# Blender v3.0.0 OBJ File: ''
# www.blender.org
mtllib superstick_outer.mtl
o mesh-0_meshId0_name.009
v -5.224610 -18.999992 -49.724602
v -5.224610 18.998009 -49.724594
v -15.449200 -18.999992 -47.552704
v -15.449200 18.998009 -47.552696
v -25.000000 -18.999992 -43.300804
v -25.000000 18.998009 -43.300797
v -33.455101 -18.999994 -37.156303
v -33.455101 18.998007 -37.156296
v -40.449200 -18.999994 -29.388702
v -40.449200 18.998007 -29.388695
v -45.675800 -18.999996 -20.335903
v -45.675800 18.998005 -20.335896
v -48.906300 -18.999998 -10.394503
v -48.906300 18.998003 -10.394497
v -50.000000 -19.000000 -0.000003
v -50.000000 18.998001 0.000003
v -48.906300 -19.000002 10.394497
v -48.906300 18.997999 10.394503
v -45.675800 -19.000004 20.335896
v -45.675800 18.997997 20.335903
v -40.449200 -19.000006 29.388695
v -40.449200 18.997995 29.388702
v -33.455101 -19.000006 37.156296
v -33.455101 18.997995 37.156303
v -25.000000 -19.000008 43.300797
v -25.000000 18.997993 43.300804
v -15.449200 -19.000008 47.552696
v -15.449200 18.997993 47.552704
v -5.224610 -19.000008 49.724594
v -5.224610 18.997993 49.724602
v 5.224610 -19.000008 49.724594
v 5.224610 18.997993 49.724602
v 15.449200 -19.000008 47.552696
v 15.449200 18.997993 47.552704
v 25.000000 -19.000008 43.300797
v 25.000000 18.997993 43.300804
v 33.455101 -19.000006 37.156296
v 33.455101 18.997995 37.156303
v 40.449200 -19.000006 29.388695
v 40.449200 18.997995 29.388702
v 45.675800 -19.000004 20.335896
v 45.675800 18.997997 20.335903
v 48.906300 -19.000002 10.394497
v 48.906300 18.997999 10.394503
v 50.000000 -19.000000 -0.000003
v 50.000000 18.998001 0.000003
v 48.906300 -18.999998 -10.394503
v 48.906300 18.998003 -10.394497
v 45.675800 -18.999996 -20.335903
v 45.675800 18.998005 -20.335896
v 40.449200 -18.999994 -29.388702
v 40.449200 18.998007 -29.388695
v 33.455101 -18.999994 -37.156303
v 33.455101 18.998007 -37.156296
v 25.000000 -18.999992 -43.300804
v 25.000000 18.998009 -43.300797
v 15.449200 -18.999992 -47.552704
v 15.449200 18.998009 -47.552696
v 5.224610 -18.999992 -49.724602
v 5.224610 18.998009 -49.724594
v -5.224610 -18.999992 -49.724602
v -5.224610 18.998009 -49.724594
vt -21.999001 -7.000000
vt -23.665001 8.000000
vt -23.665001 -7.000000
vt -21.999001 8.000000
vt -20.332001 -7.000000
vt -20.332001 8.000000
vt -18.665001 -7.000000
vt -18.665001 8.000000
vt -16.999001 -7.000000
vt -16.999001 8.000000
vt -15.332001 -7.000000
vt -15.332001 8.000000
vt -13.665001 -7.000000
vt -13.665001 8.000000
vt -11.999001 -7.000000
vt -11.999001 8.000000
vt -10.332001 -7.000000
vt -10.332001 8.000000
vt -8.665040 -7.000000
vt -8.665040 8.000000
vt -6.999020 -7.000000
vt -6.999020 8.000000
vt -5.332030 -7.000000
vt -5.332030 8.000000
vt -3.665040 -7.000000
vt -3.665040 8.000000
vt -1.999020 -7.000000
vt -1.999020 8.000000
vt -0.332031 -7.000000
vt -0.332031 8.000000
vt 1.333980 -7.000000
vt 1.333980 8.000000
vt 3.000000 -7.000000
vt 3.000000 8.000000
vt 4.666990 -7.000000
vt 4.666990 8.000000
vt 6.333980 -7.000000
vt 6.333980 8.000000
vt 8.000000 -7.000000
vt 8.000000 8.000000
vt 9.666989 -7.000000
vt 9.666989 8.000000
vt 11.334001 -7.000000
vt 11.334001 8.000000
vt 13.000000 -7.000000
vt 13.000000 8.000000
vt 14.667001 -7.000000
vt 14.667001 8.000000
vt 16.334002 -7.000000
vt 16.334002 8.000000
vt 18.000000 -7.000000
vt 18.000000 8.000000
vt 19.667002 -7.000000
vt 19.667002 8.000000
vt 21.334002 -7.000000
vt 21.334002 8.000000
vt 23.000000 -7.000000
vt 23.000000 8.000000
vt 24.667002 -7.000000
vt 24.667002 8.000000
vt 26.334002 -7.000000
vt 26.334002 8.000000
vn -0.3089 0.0000 -0.9511
vn -0.2078 0.0000 -0.9781
vn -0.5000 0.0000 -0.8660
vn -0.6691 0.0000 -0.7431
vn -0.8090 0.0000 -0.5878
vn -0.9135 0.0000 -0.4067
vn -0.9781 0.0000 -0.2080
vn -1.0000 0.0000 0.0000
vn -0.9781 0.0000 0.2080
vn -0.9135 0.0000 0.4067
vn -0.8090 0.0000 0.5878
vn -0.6691 0.0000 0.7431
vn -0.5000 0.0000 0.8660
vn -0.3089 0.0000 0.9511
vn -0.1044 0.0000 0.9945
vn 0.1044 0.0000 0.9945
vn 0.3089 0.0000 0.9511
vn 0.5000 0.0000 0.8660
vn 0.6691 0.0000 0.7431
vn 0.8090 0.0000 0.5878
vn 0.9135 0.0000 0.4067
vn 0.9781 0.0000 0.2080
vn 1.0000 0.0000 0.0000
vn 0.9781 0.0000 -0.2080
vn 0.9135 0.0000 -0.4067
vn 0.8090 0.0000 -0.5878
vn 0.6691 0.0000 -0.7431
vn 0.5000 0.0000 -0.8660
vn 0.3089 0.0000 -0.9511
vn 0.1044 0.0000 -0.9945
vn 0.0000 0.0000 -1.0000
usemtl m2tape_mat
s 1
f 3/1/1 2/2/2 1/3/2
f 3/1/1 4/4/1 2/2/2
f 5/5/3 4/4/1 3/1/1
f 5/5/3 6/6/3 4/4/1
f 7/7/4 6/6/3 5/5/3
f 7/7/4 8/8/4 6/6/3
f 9/9/5 8/8/4 7/7/4
f 9/9/5 10/10/5 8/8/4
f 11/11/6 10/10/5 9/9/5
f 11/11/6 12/12/6 10/10/5
f 13/13/7 12/12/6 11/11/6
f 13/13/7 14/14/7 12/12/6
f 15/15/8 14/14/7 13/13/7
f 15/15/8 16/16/8 14/14/7
f 17/17/9 16/16/8 15/15/8
f 17/17/9 18/18/9 16/16/8
f 19/19/10 18/18/9 17/17/9
f 19/19/10 20/20/10 18/18/9
f 21/21/11 20/20/10 19/19/10
f 21/21/11 22/22/11 20/20/10
f 23/23/12 22/22/11 21/21/11
f 23/23/12 24/24/12 22/22/11
f 25/25/13 24/24/12 23/23/12
f 25/25/13 26/26/13 24/24/12
f 27/27/14 26/26/13 25/25/13
f 27/27/14 28/28/14 26/26/13
f 29/29/15 28/28/14 27/27/14
f 29/29/15 30/30/15 28/28/14
f 31/31/16 30/30/15 29/29/15
f 31/31/16 32/32/16 30/30/15
f 33/33/17 32/32/16 31/31/16
f 33/33/17 34/34/17 32/32/16
f 35/35/18 34/34/17 33/33/17
f 35/35/18 36/36/18 34/34/17
f 37/37/19 36/36/18 35/35/18
f 37/37/19 38/38/19 36/36/18
f 39/39/20 38/38/19 37/37/19
f 39/39/20 40/40/20 38/38/19
f 41/41/21 40/40/20 39/39/20
f 41/41/21 42/42/21 40/40/20
f 43/43/22 42/42/21 41/41/21
f 43/43/22 44/44/22 42/42/21
f 45/45/23 44/44/22 43/43/22
f 45/45/23 46/46/23 44/44/22
f 47/47/24 46/46/23 45/45/23
f 47/47/24 48/48/24 46/46/23
f 49/49/25 48/48/24 47/47/24
f 49/49/25 50/50/25 48/48/24
f 51/51/26 50/50/25 49/49/25
f 51/51/26 52/52/26 50/50/25
f 53/53/27 52/52/26 51/51/26
f 53/53/27 54/54/27 52/52/26
f 55/55/28 54/54/27 53/53/27
f 55/55/28 56/56/28 54/54/27
f 57/57/29 56/56/28 55/55/28
f 57/57/29 58/58/29 56/56/28
f 59/59/30 58/58/29 57/57/29
f 59/59/30 60/60/30 58/58/29
f 61/61/31 60/60/30 59/59/30
f 61/61/31 62/62/31 60/60/30
