# Blender v3.0.0 OBJ File: ''
# www.blender.org
mtllib superstick_inner.mtl
o mesh-2_meshId2_name.004
v -2.611330 -18.997997 -24.861303
v -2.611330 18.998005 -24.861296
v 2.611330 -18.997997 -24.861303
v 2.611330 18.998005 -24.861296
v 7.724610 -18.997997 -23.775404
v 7.724610 18.998005 -23.775396
v 12.500000 -18.997997 -21.650404
v 12.500000 18.998005 -21.650396
v 16.726599 -18.997997 -18.578104
v 16.726599 18.998005 -18.578096
v 20.224600 -18.997999 -14.693402
v 20.224600 18.998003 -14.693397
v 22.837900 -18.997999 -10.168003
v 22.837900 18.998003 -10.167997
v 24.453100 -18.998001 -5.197273
v 24.453100 18.998001 -5.197267
v 25.000000 -18.998001 -0.000003
v 25.000000 18.998001 0.000003
v 24.453100 -18.998001 5.197267
v 24.453100 18.998001 5.197273
v 22.837900 -18.998003 10.167997
v 22.837900 18.997999 10.168003
v 20.224600 -18.998003 14.693397
v 20.224600 18.997999 14.693402
v 16.726599 -18.998005 18.578096
v 16.726599 18.997997 18.578104
v 12.500000 -18.998005 21.650396
v 12.500000 18.997997 21.650404
v 7.724610 -18.998005 23.775396
v 7.724610 18.997997 23.775404
v 2.611330 -18.998005 24.861296
v 2.611330 18.997997 24.861303
v -2.611330 -18.998005 24.861296
v -2.611330 18.997997 24.861303
v -7.724610 -18.998005 23.775396
v -7.724610 18.997997 23.775404
v -12.500000 -18.998005 21.650396
v -12.500000 18.997997 21.650404
v -16.726599 -18.998005 18.578096
v -16.726599 18.997997 18.578104
v -20.224600 -18.998003 14.693397
v -20.224600 18.997999 14.693402
v -22.837900 -18.998003 10.167997
v -22.837900 18.997999 10.168003
v -24.453100 -18.998001 5.197267
v -24.453100 18.998001 5.197273
v -25.000000 -18.998001 -0.000003
v -25.000000 18.998001 0.000003
v -24.453100 -18.998001 -5.197273
v -24.453100 18.998001 -5.197267
v -22.837900 -18.997999 -10.168003
v -22.837900 18.998003 -10.167997
v -20.224600 -18.997999 -14.693402
v -20.224600 18.998003 -14.693397
v -16.726599 -18.997997 -18.578104
v -16.726599 18.998005 -18.578096
v -12.500000 -18.997997 -21.650404
v -12.500000 18.998005 -21.650396
v -7.724610 -18.997997 -23.775404
v -7.724610 18.998005 -23.775396
v -2.611330 -18.997997 -24.861303
v -2.611330 18.998005 -24.861296
vt -0.358398 -2.415040
vt -0.478516 1.487300
vt -0.424805 -2.481450
vt -0.412109 1.553710
vt -0.291016 -2.348630
vt -0.344727 1.620120
vt -0.224609 -2.281250
vt -0.278320 1.686520
vt -0.158203 -2.214840
vt -0.211914 1.752930
vt -0.090820 -2.148440
vt -0.144531 1.819340
vt -0.024414 -2.082030
vt -0.078125 1.885740
vt 0.041992 -2.015630
vt -0.011719 1.953130
vt 0.108398 -1.949220
vt 0.054688 2.019530
vt 0.174805 -1.882810
vt 0.121094 2.085940
vt 0.242188 -1.816410
vt 0.187500 2.152340
vt 0.308594 -1.750000
vt 0.254883 2.218750
vt 0.375000 -1.683590
vt 0.321289 2.285160
vt 0.442383 -1.617190
vt 0.387695 2.351560
vt 0.508789 -1.550780
vt 0.455078 2.417970
vt 0.575195 -1.484380
vt 0.521484 2.484380
vt 0.642578 -1.417970
vt 0.587891 2.550780
vt 0.708984 -1.351560
vt 0.655273 2.617190
vt 0.775391 -1.285160
vt 0.721680 2.683590
vt 0.842773 -1.218750
vt 0.788086 2.750000
vt 0.909180 -1.152340
vt 0.855469 2.816410
vt 0.975586 -1.085940
vt 0.921875 2.882810
vt 1.042970 -1.019530
vt 0.988281 2.949220
vt 1.109380 -0.953125
vt 1.055660 3.015630
vt 1.175780 -0.885742
vt 1.122070 3.082030
vt 1.243160 -0.819336
vt 1.188480 3.148440
vt 1.309570 -0.752930
vt 1.255860 3.214840
vt 1.375980 -0.686523
vt 1.322270 3.281250
vt 1.443360 -0.620117
vt 1.388670 3.347660
vt 1.509770 -0.553711
vt 1.456050 3.415040
vt 1.576170 -0.487305
vt 1.522460 3.481450
vn -0.1044 0.0000 0.9945
vn 0.0000 0.0000 1.0000
vn -0.3088 0.0000 0.9511
vn -0.5000 0.0000 0.8660
vn -0.6692 0.0000 0.7431
vn -0.8090 0.0000 0.5878
vn -0.9135 0.0000 0.4068
vn -0.9781 0.0000 0.2080
vn -1.0000 0.0000 0.0000
vn -0.9781 0.0000 -0.2080
vn -0.9135 0.0000 -0.4068
vn -0.8090 0.0000 -0.5878
vn -0.6692 0.0000 -0.7431
vn -0.5000 0.0000 -0.8660
vn -0.3088 0.0000 -0.9511
vn -0.1044 0.0000 -0.9945
vn 0.1044 0.0000 -0.9945
vn 0.3088 0.0000 -0.9511
vn 0.5000 0.0000 -0.8660
vn 0.6692 0.0000 -0.7431
vn 0.8090 0.0000 -0.5878
vn 0.9135 0.0000 -0.4068
vn 0.9781 0.0000 -0.2080
vn 1.0000 0.0000 0.0000
vn 0.9781 0.0000 0.2080
vn 0.9135 0.0000 0.4068
vn 0.8090 0.0000 0.5878
vn 0.6692 0.0000 0.7431
vn 0.5000 0.0000 0.8660
vn 0.3088 0.0000 0.9511
vn 0.2077 0.0000 0.9782
usemtl m0label_mat
s 1
f 3/1/1 2/2/2 1/3/2
f 3/1/1 4/4/1 2/2/2
f 5/5/3 4/4/1 3/1/1
f 5/5/3 6/6/3 4/4/1
f 7/7/4 6/6/3 5/5/3
f 7/7/4 8/8/4 6/6/3
f 9/9/5 8/8/4 7/7/4
f 9/9/5 10/10/5 8/8/4
f 11/11/6 10/10/5 9/9/5
f 11/11/6 12/12/6 10/10/5
f 13/13/7 12/12/6 11/11/6
f 13/13/7 14/14/7 12/12/6
f 15/15/8 14/14/7 13/13/7
f 15/15/8 16/16/8 14/14/7
f 17/17/9 16/16/8 15/15/8
f 17/17/9 18/18/9 16/16/8
f 19/19/10 18/18/9 17/17/9
f 19/19/10 20/20/10 18/18/9
f 21/21/11 20/20/10 19/19/10
f 21/21/11 22/22/11 20/20/10
f 23/23/12 22/22/11 21/21/11
f 23/23/12 24/24/12 22/22/11
f 25/25/13 24/24/12 23/23/12
f 25/25/13 26/26/13 24/24/12
f 27/27/14 26/26/13 25/25/13
f 27/27/14 28/28/14 26/26/13
f 29/29/15 28/28/14 27/27/14
f 29/29/15 30/30/15 28/28/14
f 31/31/16 30/30/15 29/29/15
f 31/31/16 32/32/16 30/30/15
f 33/33/17 32/32/16 31/31/16
f 33/33/17 34/34/17 32/32/16
f 35/35/18 34/34/17 33/33/17
f 35/35/18 36/36/18 34/34/17
f 37/37/19 36/36/18 35/35/18
f 37/37/19 38/38/19 36/36/18
f 39/39/20 38/38/19 37/37/19
f 39/39/20 40/40/20 38/38/19
f 41/41/21 40/40/20 39/39/20
f 41/41/21 42/42/21 40/40/20
f 43/43/22 42/42/21 41/41/21
f 43/43/22 44/44/22 42/42/21
f 45/45/23 44/44/22 43/43/22
f 45/45/23 46/46/23 44/44/22
f 47/47/24 46/46/23 45/45/23
f 47/47/24 48/48/24 46/46/23
f 49/49/25 48/48/24 47/47/24
f 49/49/25 50/50/25 48/48/24
f 51/51/26 50/50/25 49/49/25
f 51/51/26 52/52/26 50/50/25
f 53/53/27 52/52/26 51/51/26
f 53/53/27 54/54/27 52/52/26
f 55/55/28 54/54/27 53/53/27
f 55/55/28 56/56/28 54/54/27
f 57/57/29 56/56/28 55/55/28
f 57/57/29 58/58/29 56/56/28
f 59/59/30 58/58/29 57/57/29
f 59/59/30 60/60/30 58/58/29
f 61/61/31 60/60/30 59/59/30
f 61/61/31 62/62/31 60/60/30
