# Blender v3.0.0 OBJ File: ''
# www.blender.org
mtllib BerryTop.mtl
o mesh-1_meshId1_name.003
v 3.359380 24.896500 1.857428
v -3.462890 12.250006 -16.964796
v -18.027300 16.521503 -11.349594
v 9.802730 10.529304 -11.212896
v 16.880899 14.884800 0.437504
v 19.250000 5.408202 -6.330078
v 30.382799 3.388672 -4.621089
v -3.503910 12.197306 -16.894495
v 3.320310 24.843800 1.927738
v -18.068399 16.470703 -11.279294
v 9.761720 10.476604 -11.142596
v 8.714840 1.392586 -19.382799
v 17.300800 3.218756 -17.232399
v 19.209002 5.355472 -6.259768
v 16.841799 14.832001 0.507817
v 30.341799 3.337892 -4.550778
v 22.199200 16.382795 14.720705
v 11.601600 32.183598 8.470709
v 22.240200 16.433596 14.648405
v 11.642600 32.236298 8.400401
v 8.755859 1.443366 -19.453100
v -13.445300 2.722668 -24.777300
v 9.828130 -3.544910 -32.052700
v -13.486300 2.669928 -24.707001
v 9.787109 -3.595690 -31.982399
v 17.341799 3.271486 -17.302700
v -17.345699 12.980507 -21.794895
v -17.304699 13.033207 -21.865196
vt 0.878052 0.768555
vt 0.661865 0.298462
vt 1.010130 0.123047
vt 0.415771 0.495605
vt 0.455933 0.871826
vt 0.203979 0.723511
vt -0.010742 0.923706
vt 0.661865 0.298462
vt 0.878052 0.768555
vt 1.010130 0.123047
vt 0.415771 0.495605
vt 0.241211 0.213989
vt 0.042725 0.587769
vt 0.203979 0.723511
vt 0.455933 0.871826
vt -0.010742 0.923706
vt 0.462158 1.062334
vt 0.912109 1.090700
vt 0.912109 1.041094
vt 0.462158 1.062334
vt 0.912109 1.041094
vt 0.912109 1.090700
vt 0.241211 0.213989
vt 0.608154 -0.099365
vt 0.070190 0.202759
vt 0.608154 -0.099365
vt 0.070190 0.202759
vt 0.042725 0.587769
vt 0.883179 0.143921
vt 0.883179 0.143921
vn 0.2856 0.6495 -0.7047
vn 0.2452 0.6262 -0.7401
vn 0.0248 0.8256 -0.5637
vn 0.4184 0.6904 -0.5902
vn 0.5524 0.6433 -0.5301
vn 0.4465 0.6664 -0.5971
vn 0.4080 0.7240 -0.5562
vn -0.2452 -0.6262 0.7401
vn -0.2856 -0.6494 0.7047
vn -0.0249 -0.8256 0.5637
vn -0.4184 -0.6904 0.5902
vn -0.1945 -0.7310 0.6541
vn -0.3033 -0.7774 0.5510
vn -0.4465 -0.6664 0.5971
vn -0.5524 -0.6433 0.5301
vn -0.4079 -0.7240 0.5563
vn -0.7359 -0.5848 0.3412
vn -0.5502 -0.4798 0.6835
vn 0.7359 0.5848 -0.3413
vn 0.5501 0.4798 -0.6835
vn 0.1945 0.7310 -0.6541
vn 0.2673 0.5545 -0.7881
vn 0.1383 0.9248 -0.3544
vn -0.2673 -0.5545 0.7881
vn -0.1382 -0.9248 0.3544
vn 0.3033 0.7774 -0.5511
vn -0.3287 -0.3686 0.8695
vn 0.3287 0.3686 -0.8695
usemtl m0heta_mat_v
s 1
f 1/1/1 2/2/2 3/3/3
f 1/1/1 4/4/4 2/2/2
f 5/5/5 4/4/4 1/1/1
f 5/5/5 6/6/6 4/4/4
f 7/7/7 6/6/6 5/5/5
f 8/8/8 9/9/9 10/10/10
f 8/8/8 11/11/11 9/9/9
f 12/12/12 11/11/11 8/8/8
f 12/12/12 13/13/13 11/11/11
f 14/14/14 11/11/11 13/13/13
f 14/14/14 15/15/15 11/11/11
f 16/16/16 15/15/15 14/14/14
f 16/16/16 17/17/17 15/15/15
f 15/15/15 9/9/9 11/11/11
f 15/15/15 18/18/18 9/9/9
f 17/17/17 18/19/18 15/15/15
f 5/5/5 19/20/19 7/7/7
f 5/5/5 20/21/20 19/20/19
f 1/1/1 20/22/20 5/5/5
f 21/23/21 2/2/2 4/4/4
f 21/23/21 22/24/22 2/2/2
f 23/25/23 22/24/22 21/23/21
f 12/12/12 24/26/24 25/27/25
f 12/12/12 8/8/8 24/26/24
f 26/28/26 4/4/4 6/6/6
f 26/28/26 21/23/21 4/4/4
f 24/26/24 8/8/8 27/29/27
f 22/24/22 28/30/28 2/2/2
