# Blender v3.0.0 OBJ File: ''
# www.blender.org
mtllib DALabel.mtl
o mesh-1_meshId1_name
v 13.882470 16.054718 -44.290657
v 4.418139 20.929718 -44.918617
v 8.831775 20.929720 -52.313362
v 0.216693 22.648420 -52.437622
v 4.630490 20.929720 -59.831383
v -3.983308 20.929720 -59.947731
v -4.187867 20.929718 -45.036240
v -8.389305 20.929720 -52.555252
v 14.108212 16.054718 -60.195320
v -13.665687 16.054718 -44.672295
v 9.150302 18.492218 -44.604630
v 11.357125 18.492218 -48.302010
vt 0.134631 0.104237
vt 0.095224 0.126980
vt 0.092603 0.076938
vt 0.500000 0.055176
vt 0.500000 0.500000
vt 0.114624 0.277588
vt 0.885254 0.277588
vt 0.885254 0.722534
vt 0.114624 0.722534
vt 0.500000 0.944946
vt 0.910889 -0.211792
vt 0.088989 1.211790
vt 0.101807 0.032898
vt 0.294495 -0.078308
vn 0.4292 0.8662 0.2561
vn 0.3280 0.9447 0.0047
vn -0.0001 1.0000 -0.0001
vn 0.2170 0.9546 0.2042
vn 0.2227 0.9546 -0.1979
vn -0.0956 0.9806 -0.1710
vn -0.2227 0.9546 0.1979
vn -0.2853 0.9546 0.0859
vn 0.4362 0.8662 -0.2438
vn -0.4362 0.8662 0.2437
usemtl Material.002
s 1
f 12/1/1 11/2/1 1/3/1
f 3/4/2 4/5/3 2/6/4
f 5/7/5 4/5/3 3/4/2
f 5/7/5 6/8/6 4/5/3
f 4/5/3 7/9/7 2/6/4
f 4/5/3 8/10/8 7/9/7
f 6/8/6 8/10/8 4/5/3
f 3/4/2 9/11/9 5/7/5
f 8/10/8 10/12/10 7/9/7
f 3/4/2 2/6/4 11/13/1 12/14/1
