# Blender v3.0.0 OBJ File: ''
# www.blender.org
mtllib petrified_outer.mtl
o mesh-0_meshId0_name.002
v -8.874515 10.239300 7.071921
v -2.521591 7.715818 10.982248
v -0.022972 12.236299 4.055486
v 2.395728 7.715818 11.010180
v 8.792457 10.239298 7.172790
v 3.665189 15.645499 -1.156475
v -3.652173 15.645500 -1.198600
v -9.506083 14.233400 0.936582
v 9.494540 14.233398 1.045251
v 11.432288 15.989300 -6.801583
v 9.494540 14.233398 1.045251
v 19.911949 10.054699 -6.640702
v 16.098619 9.994138 2.431135
v 16.098619 9.994138 2.431135
v 8.792457 10.239298 7.172790
v 16.436686 1.700198 6.165615
v 7.109900 4.139647 11.367617
v 0.036032 15.603500 -6.272142
v 3.665189 15.645499 -1.156475
v 7.741356 15.707002 -15.388491
v 11.432288 15.989300 -6.801583
v 7.109900 4.139647 11.367617
v 2.395728 7.715818 11.010180
v 4.860763 -3.251952 13.704716
v -0.090040 1.200198 15.840339
v -11.353836 15.989302 -6.931260
v -3.652173 15.645500 -1.198600
v -7.565619 15.707004 -15.476003
v 0.036032 15.603500 -6.272142
v -0.090040 1.200198 15.840339
v -2.521591 7.715818 10.982248
v -5.017000 -3.251951 13.648746
v -7.239887 4.139649 11.284932
v -16.125553 9.994141 2.247008
v -9.506083 14.233400 0.936582
v -19.834053 10.054703 -6.868360
v -11.353836 15.989302 -6.931260
v -7.239887 4.139649 11.284932
v -8.874515 10.239300 7.071921
v -16.506924 1.700201 5.977293
v -16.125553 9.994141 2.247008
v 0.069035 3.165042 -12.031548
v 0.062337 12.743201 -10.881252
v 7.741356 15.707002 -15.388491
v 0.069035 3.165042 -12.031548
v -7.565619 15.707004 -15.476003
v 0.062337 12.743201 -10.881252
v -5.823276 1.835942 -10.023932
v -7.565619 15.707004 -15.476003
v 0.069035 3.165042 -12.031548
v -5.823276 1.835942 -10.023932
v -17.224129 13.517603 -12.169681
v -7.565619 15.707004 -15.476003
v -8.285810 -1.372069 -5.111188
v -19.996880 5.877932 -0.455994
v -19.834053 10.054703 -6.868360
v -19.834053 10.054703 -6.868360
v -11.353836 15.989302 -6.931260
v -17.224129 13.517603 -12.169681
v -17.224129 13.517603 -12.169681
v -11.353836 15.989302 -6.931260
v -7.565619 15.707004 -15.476003
v -7.565619 15.707004 -15.476003
v 0.036032 15.603500 -6.272142
v 0.062337 12.743201 -10.881252
v 0.062337 12.743201 -10.881252
v 0.036032 15.603500 -6.272142
v 7.741356 15.707002 -15.388491
v 7.741356 15.707002 -15.388491
v 11.432288 15.989300 -6.801583
v 17.363270 13.517600 -11.970887
v 17.363270 13.517600 -11.970887
v 11.432288 15.989300 -6.801583
v 19.911949 10.054699 -6.640702
v 0.069035 3.165042 -12.031548
v 7.741356 15.707002 -15.388491
v 5.937428 1.835941 -9.956356
v 5.937428 1.835941 -9.956356
v 7.741356 15.707002 -15.388491
v 17.363270 13.517600 -11.970887
v 0.046086 -5.879879 -7.999371
v 5.937428 1.835941 -9.956356
v 8.344307 -1.372070 -5.016008
v 0.046086 -5.879879 -7.999371
v 8.344307 -1.372070 -5.016008
v 5.880432 -4.581050 -0.103545
v 0.046086 -5.879879 -7.999371
v 5.880432 -4.581050 -0.103545
v -0.011051 -5.910161 1.903558
v 0.046086 -5.879879 -7.999371
v -0.011051 -5.910161 1.903558
v -5.878405 -4.581049 -0.170007
v 0.046086 -5.879879 -7.999371
v -5.878405 -4.581049 -0.170007
v -8.285810 -1.372069 -5.111188
v 0.046086 -5.879879 -7.999371
v -8.285810 -1.372069 -5.111188
v -5.823276 1.835942 -10.023932
v 0.046086 -5.879879 -7.999371
v -5.823276 1.835942 -10.023932
v 0.069035 3.165042 -12.031548
v 0.046086 -5.879879 -7.999371
v 0.069035 3.165042 -12.031548
v 5.937428 1.835941 -9.956356
v -19.996880 5.877932 -0.455994
v -16.125553 9.994141 2.247008
v -19.834053 10.054703 -6.868360
v 20.001120 5.877928 -0.227373
v 16.098619 9.994138 2.431135
v 16.436686 1.700198 6.165615
v 19.911949 10.054699 -6.640702
v 16.098619 9.994138 2.431135
v 20.001120 5.877928 -0.227373
v -19.996880 5.877932 -0.455994
v -8.285810 -1.372069 -5.111188
v -16.506924 1.700201 5.977293
v -17.224129 13.517603 -12.169681
v -5.823276 1.835942 -10.023932
v -19.834053 10.054703 -6.868360
v -19.834053 10.054703 -6.868360
v -5.823276 1.835942 -10.023932
v -8.285810 -1.372069 -5.111188
v -8.968366 -1.475591 10.897573
v -5.878405 -4.581049 -0.170007
v -5.017000 -3.251951 13.648746
v -8.285810 -1.372069 -5.111188
v -5.878405 -4.581049 -0.170007
v -16.506924 1.700201 5.977293
v 2.395728 7.715818 11.010180
v 7.109900 4.139647 11.367617
v 8.792457 10.239298 7.172790
v -2.521591 7.715818 10.982248
v -0.090040 1.200198 15.840339
v 2.395728 7.715818 11.010180
v -8.874515 10.239300 7.071921
v -7.239887 4.139649 11.284932
v -2.521591 7.715818 10.982248
v -9.506083 14.233400 0.936582
v -16.125553 9.994141 2.247008
v -8.874515 10.239300 7.071921
v -3.652173 15.645500 -1.198600
v -11.353836 15.989302 -6.931260
v -9.506083 14.233400 0.936582
v 3.665189 15.645499 -1.156475
v 0.036032 15.603500 -6.272142
v -3.652173 15.645500 -1.198600
v 9.494540 14.233398 1.045251
v 11.432288 15.989300 -6.801583
v 3.665189 15.645499 -1.156475
v 8.792457 10.239298 7.172790
v 16.098619 9.994138 2.431135
v 9.494540 14.233398 1.045251
v -0.011051 -5.910161 1.903558
v -5.017000 -3.251951 13.648746
v -5.878405 -4.581049 -0.170007
v -5.878405 -4.581049 -0.170007
v -8.968366 -1.475591 10.897573
v -16.506924 1.700201 5.977293
v 5.937428 1.835941 -9.956356
v 17.363270 13.517600 -11.970887
v 19.911949 10.054699 -6.640702
v 5.937428 1.835941 -9.956356
v 19.911949 10.054699 -6.640702
v 8.344307 -1.372070 -5.016008
v 8.344307 -1.372070 -5.016008
v 19.911949 10.054699 -6.640702
v 20.001120 5.877928 -0.227373
v 8.344307 -1.372070 -5.016008
v 20.001120 5.877928 -0.227373
v 16.436686 1.700198 6.165615
v 8.344307 -1.372070 -5.016008
v 16.436686 1.700198 6.165615
v 5.880432 -4.581050 -0.103545
v 5.880432 -4.581050 -0.103545
v 16.436686 1.700198 6.165615
v 8.841617 -1.475592 11.000118
v 5.880432 -4.581050 -0.103545
v 8.841617 -1.475592 11.000118
v 4.860763 -3.251952 13.704716
v 5.880432 -4.581050 -0.103545
v 4.860763 -3.251952 13.704716
v -0.011051 -5.910161 1.903558
v -0.011051 -5.910161 1.903558
v 4.860763 -3.251952 13.704716
v -0.093956 -5.036132 16.416393
v -0.011051 -5.910161 1.903558
v -0.093956 -5.036132 16.416393
v -5.017000 -3.251951 13.648746
v -5.017000 -3.251951 13.648746
v -7.239887 4.139649 11.284932
v -8.968366 -1.475591 10.897573
v -0.093956 -5.036132 16.416393
v -0.090040 1.200198 15.840339
v -5.017000 -3.251951 13.648746
v -8.968366 -1.475591 10.897573
v -7.239887 4.139649 11.284932
v -16.506924 1.700201 5.977293
v 4.860763 -3.251952 13.704716
v -0.090040 1.200198 15.840339
v -0.093956 -5.036132 16.416393
v 8.841617 -1.475592 11.000118
v 7.109900 4.139647 11.367617
v 4.860763 -3.251952 13.704716
v -16.506924 1.700201 5.977293
v -16.125553 9.994141 2.247008
v -19.996880 5.877932 -0.455994
v 16.436686 1.700198 6.165615
v 7.109900 4.139647 11.367617
v 8.841617 -1.475592 11.000118
vt 0.500000 0.500000
vt 0.367584 0.554840
vt 0.445160 0.632416
vt 0.367584 0.445190
vt 0.445160 0.367615
vt 0.632385 0.554840
vt 0.632385 0.445190
vt 0.554810 0.632416
vt 0.554810 0.367615
vt 0.619568 0.211304
vt 0.554810 0.367615
vt 0.662445 0.337555
vt 0.500000 0.270233
vt 0.380402 0.211304
vt 0.445160 0.367615
vt 0.500000 0.270233
vt 0.337524 0.337555
vt 0.788696 0.380432
vt 0.632385 0.445190
vt 0.729767 0.500000
vt 0.662445 0.337555
vt 0.211273 0.380432
vt 0.367584 0.445190
vt 0.337524 0.337555
vt 0.270203 0.500000
vt 0.788696 0.619598
vt 0.632385 0.554840
vt 0.662445 0.662476
vt 0.729767 0.500000
vt 0.211273 0.619598
vt 0.367584 0.554840
vt 0.270203 0.500000
vt 0.337524 0.662476
vt 0.619568 0.788727
vt 0.554810 0.632416
vt 0.500000 0.729797
vt 0.662445 0.662476
vt 0.380402 0.788727
vt 0.445160 0.632416
vt 0.337524 0.662476
vt 0.500000 0.729797
vt 0.788696 0.380432
vt 0.812500 0.500000
vt 0.723755 0.500000
vt 0.812500 0.500000
vt 0.788696 0.619598
vt 0.723755 0.500000
vt 0.723755 0.500000
vt 0.788696 0.619598
vt 0.658203 0.658234
vt 0.788696 0.619598
vt 0.720947 0.720978
vt 0.658203 0.658234
vt 0.619568 0.788727
vt 0.500000 0.812500
vt 0.500000 0.723785
vt 0.720947 0.720978
vt 0.662445 0.662476
vt 0.619568 0.788727
vt 0.788696 0.619598
vt 0.662445 0.662476
vt 0.720947 0.720978
vt 0.812500 0.500000
vt 0.729767 0.500000
vt 0.788696 0.619598
vt 0.788696 0.380432
vt 0.729767 0.500000
vt 0.812500 0.500000
vt 0.720947 0.279053
vt 0.662445 0.337555
vt 0.788696 0.380432
vt 0.619568 0.211304
vt 0.662445 0.337555
vt 0.720947 0.279053
vt 0.658203 0.341797
vt 0.788696 0.380432
vt 0.723755 0.500000
vt 0.720947 0.279053
vt 0.788696 0.380432
vt 0.658203 0.341797
vt 0.500000 0.276245
vt 0.658203 0.341797
vt 0.500000 0.500000
vt 0.341766 0.341797
vt 0.500000 0.276245
vt 0.500000 0.500000
vt 0.276215 0.500000
vt 0.341766 0.341797
vt 0.500000 0.500000
vt 0.341766 0.658234
vt 0.276215 0.500000
vt 0.500000 0.500000
vt 0.500000 0.723785
vt 0.341766 0.658234
vt 0.500000 0.500000
vt 0.658203 0.658234
vt 0.500000 0.723785
vt 0.500000 0.500000
vt 0.723755 0.500000
vt 0.658203 0.658234
vt 0.500000 0.500000
vt 0.658203 0.341797
vt 0.723755 0.500000
vt 0.500000 0.500000
vt 0.619568 0.788727
vt 0.500000 0.729797
vt 0.500000 0.812500
vt 0.380402 0.211304
vt 0.500000 0.270233
vt 0.500000 0.187500
vt 0.500000 0.187500
vt 0.500000 0.270233
vt 0.619568 0.211304
vt 0.380402 0.788727
vt 0.500000 0.723785
vt 0.500000 0.812500
vt 0.619568 0.788727
vt 0.658203 0.658234
vt 0.720947 0.720978
vt 0.500000 0.723785
vt 0.658203 0.658234
vt 0.619568 0.788727
vt 0.211273 0.619598
vt 0.341766 0.658234
vt 0.279022 0.720978
vt 0.380402 0.788727
vt 0.341766 0.658234
vt 0.500000 0.723785
vt 0.445160 0.367615
vt 0.337524 0.337555
vt 0.367584 0.445190
vt 0.367584 0.445190
vt 0.270203 0.500000
vt 0.367584 0.554840
vt 0.367584 0.554840
vt 0.337524 0.662476
vt 0.445160 0.632416
vt 0.445160 0.632416
vt 0.500000 0.729797
vt 0.554810 0.632416
vt 0.554810 0.632416
vt 0.662445 0.662476
vt 0.632385 0.554840
vt 0.632385 0.554840
vt 0.729767 0.500000
vt 0.632385 0.445190
vt 0.632385 0.445190
vt 0.662445 0.337555
vt 0.554810 0.367615
vt 0.554810 0.367615
vt 0.500000 0.270233
vt 0.445160 0.367615
vt 0.341766 0.658234
vt 0.211273 0.619598
vt 0.276215 0.500000
vt 0.380402 0.788727
vt 0.279022 0.720978
vt 0.341766 0.658234
vt 0.619568 0.211304
vt 0.720947 0.279053
vt 0.658203 0.341797
vt 0.500000 0.276245
vt 0.619568 0.211304
vt 0.658203 0.341797
vt 0.500000 0.187500
vt 0.619568 0.211304
vt 0.500000 0.276245
vt 0.380402 0.211304
vt 0.500000 0.187500
vt 0.500000 0.276245
vt 0.341766 0.341797
vt 0.380402 0.211304
vt 0.500000 0.276245
vt 0.279022 0.279053
vt 0.380402 0.211304
vt 0.341766 0.341797
vt 0.211273 0.380432
vt 0.279022 0.279053
vt 0.341766 0.341797
vt 0.276215 0.500000
vt 0.211273 0.380432
vt 0.341766 0.341797
vt 0.187500 0.500000
vt 0.211273 0.380432
vt 0.276215 0.500000
vt 0.211273 0.619598
vt 0.187500 0.500000
vt 0.276215 0.500000
vt 0.279022 0.720978
vt 0.337524 0.662476
vt 0.211273 0.619598
vt 0.211273 0.619598
vt 0.270203 0.500000
vt 0.187500 0.500000
vt 0.380402 0.788727
vt 0.337524 0.662476
vt 0.279022 0.720978
vt 0.187500 0.500000
vt 0.270203 0.500000
vt 0.211273 0.380432
vt 0.211273 0.380432
vt 0.337524 0.337555
vt 0.279022 0.279053
vt 0.500000 0.812500
vt 0.500000 0.729797
vt 0.380402 0.788727
vt 0.279022 0.279053
vt 0.337524 0.337555
vt 0.380402 0.211304
vn 0.0031 -0.8379 -0.5457
vn 0.0031 -0.8380 -0.5457
vn 0.0032 -0.8379 -0.5458
vn 0.0031 -0.8379 -0.5458
vn 0.0030 -0.8379 -0.5458
vn -0.5414 -0.7820 -0.3087
vn -0.4955 -0.8419 -0.2139
vn -0.5146 -0.3694 -0.7738
vn -0.5244 -0.3795 -0.7622
vn 0.0126 -0.9999 -0.0007
vn 0.0519 -0.9986 0.0105
vn -0.1274 -0.2636 -0.9562
vn -0.6006 -0.3155 -0.7347
vn -0.0520 -0.9986 0.0099
vn -0.0126 -0.9999 -0.0009
vn 0.6088 -0.3155 -0.7279
vn 0.1386 -0.2636 -0.9546
vn 0.4979 -0.8419 -0.2082
vn 0.5450 -0.7820 -0.3025
vn 0.5330 -0.3795 -0.7562
vn 0.5234 -0.3694 -0.7678
vn 0.5322 -0.1006 0.8406
vn -0.5418 -0.1006 0.8345
vn 0.2201 0.3807 0.8981
vn 0.2211 0.3807 0.8979
vn 0.5925 0.6680 0.4502
vn 0.5545 -0.7949 -0.2463
vn 0.2671 -0.9519 0.1499
vn -0.5431 -0.7148 0.4405
vn 0.5381 -0.7148 0.4467
vn -0.2688 -0.9520 0.1468
vn -0.5516 -0.7949 -0.2527
vn -0.2305 0.3807 0.8955
vn -0.2314 0.3807 0.8953
vn -0.5336 0.5666 0.6279
vn -0.5314 0.8062 0.2601
vn -0.2195 0.9756 0.0017
vn 0.2195 0.9756 0.0042
vn 0.5284 0.8062 0.2661
vn 0.5263 0.5667 0.6339
vn 0.2144 0.3972 0.8923
vn -0.2247 0.3972 0.8898
vn 0.7860 -0.5270 -0.3233
vn -0.7340 -0.3035 -0.6076
vn -0.7822 -0.5270 -0.3323
vn 0.5728 0.7937 0.2047
vn 0.4929 0.5972 0.6328
vn 0.4922 0.5951 0.6353
vn 0.4720 0.8742 -0.1135
vn 0.5874 0.7789 0.2197
vn -0.3032 -0.4818 -0.8222
vn 0.0046 -0.5966 -0.8025
vn 0.3126 -0.4817 -0.8187
vn 0.3795 -0.7570 -0.5319
vn 0.1411 -0.9587 -0.2471
vn -0.0000 -1.0000 0.0082
vn -0.1383 -0.9587 -0.2487
vn -0.3734 -0.7570 -0.5362
vn 0.2559 0.9606 -0.1083
vn 0.4518 0.8838 -0.1218
vn -0.5000 0.5972 0.6271
vn -0.4994 0.5951 0.6297
vn -0.5976 0.6680 0.4434
vn -0.5751 0.7938 0.1981
vn -0.5899 0.7789 0.2129
vn -0.4504 0.8837 -0.1270
vn -0.4709 0.8742 -0.1189
vn -0.2546 0.9606 -0.1113
vn -0.3662 0.9287 -0.0580
vn 0.3668 0.9287 -0.0538
vn 0.5353 -0.1070 -0.8379
vn 0.4658 -0.0817 -0.8811
vn 0.5141 -0.0995 -0.8519
vn -0.4557 -0.0816 -0.8864
vn -0.5257 -0.1069 -0.8439
vn 0.7410 -0.3035 -0.5991
vn -0.5044 -0.0994 -0.8577
usemtl m0houseki01_mat_v
s off
f 3/1/1 2/2/1 1/3/1
f 3/1/2 4/4/2 2/2/2
f 5/5/3 4/4/3 3/1/3
f 3/1/4 7/6/4 6/7/4
f 3/1/5 8/8/5 7/6/5
f 1/3/5 8/8/5 3/1/5
f 9/9/3 3/1/3 6/7/3
f 9/9/3 5/5/3 3/1/3
f 12/10/6 11/11/6 10/12/6
f 12/10/7 13/13/7 11/11/7
f 16/14/8 15/15/8 14/16/8
f 16/14/9 17/17/9 15/15/9
f 20/18/10 19/19/10 18/20/10
f 20/18/11 21/21/11 19/19/11
f 24/22/12 23/23/12 22/24/12
f 24/22/13 25/25/13 23/23/13
f 28/26/14 27/27/14 26/28/14
f 28/26/15 29/29/15 27/27/15
f 32/30/16 31/31/16 30/32/16
f 32/30/17 33/33/17 31/31/17
f 36/34/18 35/35/18 34/36/18
f 36/34/19 37/37/19 35/35/19
f 40/38/20 39/39/20 38/40/20
f 40/38/21 41/41/21 39/39/21
f 44/42/22 43/43/22 42/44/22
f 47/45/23 46/46/23 45/47/23
f 50/48/24 49/49/24 48/50/24
f 53/51/25 52/52/25 51/53/25
f 56/54/26 55/55/26 54/56/26
f 59/57/27 58/58/27 57/59/27
f 62/60/28 61/61/28 60/62/28
f 65/63/29 64/64/29 63/65/29
f 68/66/30 67/67/30 66/68/30
f 71/69/31 70/70/31 69/71/31
f 74/72/32 73/73/32 72/74/32
f 77/75/33 76/76/33 75/77/33
f 80/78/34 79/79/34 78/80/34
f 83/81/35 82/82/35 81/83/35
f 86/84/36 85/85/36 84/86/36
f 89/87/37 88/88/37 87/89/37
f 92/90/38 91/91/38 90/92/38
f 95/93/39 94/94/39 93/95/39
f 98/96/40 97/97/40 96/98/40
f 101/99/41 100/100/41 99/101/41
f 104/102/42 103/103/42 102/104/42
f 107/105/43 106/106/43 105/107/43
f 110/108/44 109/109/44 108/110/44
f 113/111/45 112/112/45 111/113/45
f 116/114/46 115/115/46 114/116/46
f 119/117/47 118/118/47 117/119/47
f 122/120/48 121/121/48 120/122/48
f 125/123/49 124/124/49 123/125/49
f 128/126/50 127/127/50 126/128/50
f 131/129/51 130/130/51 129/131/51
f 134/132/52 133/133/52 132/134/52
f 137/135/53 136/136/53 135/137/53
f 140/138/54 139/139/54 138/140/54
f 143/141/55 142/142/55 141/143/55
f 146/144/56 145/145/56 144/146/56
f 149/147/57 148/148/57 147/149/57
f 152/150/58 151/151/58 150/152/58
f 155/153/59 154/154/59 153/155/59
f 158/156/60 157/157/60 156/158/60
f 161/159/61 160/160/61 159/161/61
f 164/162/62 163/163/62 162/164/62
f 167/165/63 166/166/63 165/167/63
f 170/168/64 169/169/64 168/170/64
f 173/171/65 172/172/65 171/173/65
f 176/174/66 175/175/66 174/176/66
f 179/177/67 178/178/67 177/179/67
f 182/180/68 181/181/68 180/182/68
f 185/183/69 184/184/69 183/185/69
f 188/186/70 187/187/70 186/188/70
f 191/189/71 190/190/71 189/191/71
f 194/192/72 193/193/72 192/194/72
f 197/195/73 196/196/73 195/197/73
f 200/198/74 199/199/74 198/200/74
f 203/201/75 202/202/75 201/203/75
f 206/204/76 205/205/76 204/206/76
f 209/207/77 208/208/77 207/209/77
