# Blender v3.0.0 OBJ File: ''
# www.blender.org
mtllib petrified_lower.mtl
o mesh-1_meshId1_name.001
v 11.912849 12.464800 -5.426960
v 11.432288 15.989300 -6.801583
v 5.844631 2.568360 -5.336761
v 17.363270 13.517600 -11.970887
v 13.388680 6.936518 3.070261
v 16.098619 9.994138 2.431135
v 5.821118 -0.058594 -1.301871
v 20.001120 5.877928 -0.227373
v 5.260934 2.481448 9.863408
v 7.109900 4.139647 11.367617
v 2.399253 -1.917970 1.532934
v 8.841617 -1.475592 11.000118
v -5.782822 2.568361 -5.403370
v -17.224129 13.517603 -12.169681
v -11.849917 12.464802 -5.562934
v -11.353836 15.989302 -6.931260
v -1.888239 0.829100 12.359152
v -0.090040 1.200198 15.840339
v -2.416514 -1.917970 1.505500
v -0.093956 -5.036132 16.416393
v 7.959847 14.174800 -8.074689
v 2.455340 4.427731 -8.209921
v 11.432288 15.989300 -6.801583
v 17.363270 13.517600 -11.970887
v -5.805802 -0.058593 -1.367657
v -19.996880 5.877932 -0.455994
v -13.423572 6.936521 2.916105
v -16.125553 9.994141 2.247008
v -2.416514 -1.917970 1.505500
v -8.968366 -1.475591 10.897573
v -5.372772 2.481449 9.802461
v -7.239887 4.139649 11.284932
v -19.996880 5.877932 -0.455994
v -5.782822 2.568361 -5.403370
v -16.125553 9.994141 2.247008
v -13.401644 9.355471 -0.797819
v -8.968366 -1.475591 10.897573
v -5.805802 -0.058593 -1.367657
v -7.239887 4.139649 11.284932
v -9.892776 3.827150 7.709204
v 1.746862 0.829100 12.379750
v 2.399253 -1.917970 1.532934
v -0.090040 1.200198 15.840339
v -0.093956 -5.036132 16.416393
v 2.264800 14.487301 -8.586808
v 0.036032 15.603500 -6.272142
v 2.455340 4.427731 -8.209921
v 0.062337 12.743201 -10.881252
v 13.410048 9.355469 -0.644456
v 5.844631 2.568360 -5.336761
v 16.098619 9.994138 2.431135
v 20.001120 5.877928 -0.227373
v 9.803061 3.827148 7.822541
v 5.821118 -0.058594 -1.301871
v 7.109900 4.139647 11.367617
v 8.841617 -1.475592 11.000118
v 8.344307 -1.372070 -5.016008
v 0.046086 -5.879879 -7.999371
v 5.821118 -0.058594 -1.301871
v 5.880432 -4.581050 -0.103545
v 0.046086 -5.879879 -7.999371
v 2.399253 -1.917970 1.532934
v -0.011051 -5.910161 1.903558
v 0.046086 -5.879879 -7.999371
v -2.416514 -1.917970 1.505500
v -17.224129 13.517603 -12.169681
v -5.782822 2.568361 -5.403370
v -5.823276 1.835942 -10.023932
v -19.996880 5.877932 -0.455994
v -5.805802 -0.058593 -1.367657
v -8.285810 -1.372069 -5.111188
v -0.090040 1.200198 15.840339
v -1.888239 0.829100 12.359152
v -5.017000 -3.251951 13.648746
v 7.109900 4.139647 11.367617
v 5.260934 2.481448 9.863408
v 4.860763 -3.251952 13.704716
v 16.098619 9.994138 2.431135
v 13.388680 6.936518 3.070261
v 16.436686 1.700198 6.165615
v 11.432288 15.989300 -6.801583
v 11.912849 12.464800 -5.426960
v 19.911949 10.054699 -6.640702
v 5.880432 -4.581050 -0.103545
v 2.399253 -1.917970 1.532934
v 8.841617 -1.475592 11.000118
v 5.880432 -4.581050 -0.103545
v 8.841617 -1.475592 11.000118
v 5.821118 -0.058594 -1.301871
v 5.937428 1.835941 -9.956356
v 17.363270 13.517600 -11.970887
v 2.455340 4.427731 -8.209921
v 8.344307 -1.372070 -5.016008
v 5.821118 -0.058594 -1.301871
v 20.001120 5.877928 -0.227373
v 8.344307 -1.372070 -5.016008
v 20.001120 5.877928 -0.227373
v 5.844631 2.568360 -5.336761
v 5.937428 1.835941 -9.956356
v 5.844631 2.568360 -5.336761
v 17.363270 13.517600 -11.970887
v 0.069035 3.165042 -12.031548
v 2.455340 4.427731 -8.209921
v 0.062337 12.743201 -10.881252
v 0.069035 3.165042 -12.031548
v 0.062337 12.743201 -10.881252
v -2.361779 4.427732 -8.237642
v 5.821118 -0.058594 -1.301871
v 0.046086 -5.879879 -7.999371
v 5.880432 -4.581050 -0.103545
v 2.399253 -1.917970 1.532934
v 0.046086 -5.879879 -7.999371
v -0.011051 -5.910161 1.903558
v -2.416514 -1.917970 1.505500
v 0.046086 -5.879879 -7.999371
v -5.878405 -4.581049 -0.170007
v -5.805802 -0.058593 -1.367657
v 0.046086 -5.879879 -7.999371
v -8.285810 -1.372069 -5.111188
v -5.782822 2.568361 -5.403370
v 0.046086 -5.879879 -7.999371
v -5.823276 1.835942 -10.023932
v -2.361779 4.427732 -8.237642
v 0.046086 -5.879879 -7.999371
v 0.069035 3.165042 -12.031548
v 2.455340 4.427731 -8.209921
v 0.046086 -5.879879 -7.999371
v 5.937428 1.835941 -9.956356
v -3.652173 15.645500 -1.198600
v -2.167171 14.487301 -8.612641
v -7.565619 15.707004 -15.476003
v -2.361779 4.427732 -8.237642
v -2.167171 14.487301 -8.612641
v -3.652173 15.645500 -1.198600
v -3.652173 15.645500 -1.198600
v -7.866091 14.174802 -8.165930
v -2.361779 4.427732 -8.237642
v 5.844631 2.568360 -5.336761
v 0.046086 -5.879879 -7.999371
v 8.344307 -1.372070 -5.016008
v -5.782822 2.568361 -5.403370
v -19.996880 5.877932 -0.455994
v -8.285810 -1.372069 -5.111188
v -5.805802 -0.058593 -1.367657
v -8.968366 -1.475591 10.897573
v -5.878405 -4.581049 -0.170007
v -8.968366 -1.475591 10.897573
v -2.416514 -1.917970 1.505500
v -5.878405 -4.581049 -0.170007
v 2.395728 7.715818 11.010180
v 1.746862 0.829100 12.379750
v 4.860763 -3.251952 13.704716
v 8.792457 10.239298 7.172790
v 9.803061 3.827148 7.822541
v 16.436686 1.700198 6.165615
v 9.494540 14.233398 1.045251
v 13.410048 9.355469 -0.644456
v 19.911949 10.054699 -6.640702
v 3.665189 15.645499 -1.156475
v 7.959847 14.174800 -8.074689
v 7.741356 15.707002 -15.388491
v 2.264800 14.487301 -8.586808
v 3.665189 15.645499 -1.156475
v 7.741356 15.707002 -15.388491
v -2.167171 14.487301 -8.612641
v 0.036032 15.603500 -6.272142
v -7.565619 15.707004 -15.476003
v -3.652173 15.645500 -1.198600
v -7.565619 15.707004 -15.476003
v -7.866091 14.174802 -8.165930
v -5.878405 -4.581049 -0.170007
v 0.046086 -5.879879 -7.999371
v -5.805802 -0.058593 -1.367657
v -8.285810 -1.372069 -5.111188
v 0.046086 -5.879879 -7.999371
v -5.782822 2.568361 -5.403370
v -5.823276 1.835942 -10.023932
v 0.046086 -5.879879 -7.999371
v -2.361779 4.427732 -8.237642
v 0.069035 3.165042 -12.031548
v 0.046086 -5.879879 -7.999371
v 2.455340 4.427731 -8.209921
v 5.937428 1.835941 -9.956356
v 0.046086 -5.879879 -7.999371
v 5.844631 2.568360 -5.336761
v 0.036032 15.603500 -6.272142
v 2.264800 14.487301 -8.586808
v 7.741356 15.707002 -15.388491
v -9.506083 14.233400 0.936582
v -11.849917 12.464802 -5.562934
v -19.834053 10.054703 -6.868360
v -16.125553 9.994141 2.247008
v -13.401644 9.355471 -0.797819
v -19.834053 10.054703 -6.868360
v -8.874515 10.239300 7.071921
v -13.423572 6.936521 2.916105
v -16.506924 1.700201 5.977293
v -7.239887 4.139649 11.284932
v -9.892776 3.827150 7.709204
v -16.506924 1.700201 5.977293
v -2.521591 7.715818 10.982248
v -5.372772 2.481449 9.802461
v -5.017000 -3.251951 13.648746
v -1.888239 0.829100 12.359152
v -2.521591 7.715818 10.982248
v -5.017000 -3.251951 13.648746
v 1.746862 0.829100 12.379750
v -0.090040 1.200198 15.840339
v 4.860763 -3.251952 13.704716
v 5.260934 2.481448 9.863408
v 2.395728 7.715818 11.010180
v 4.860763 -3.251952 13.704716
v 9.803061 3.827148 7.822541
v 7.109900 4.139647 11.367617
v 16.436686 1.700198 6.165615
v 13.388680 6.936518 3.070261
v 8.792457 10.239298 7.172790
v 16.436686 1.700198 6.165615
v 13.410048 9.355469 -0.644456
v 16.098619 9.994138 2.431135
v 19.911949 10.054699 -6.640702
v 11.912849 12.464800 -5.426960
v 9.494540 14.233398 1.045251
v 19.911949 10.054699 -6.640702
v 3.665189 15.645499 -1.156475
v 2.264800 14.487301 -8.586808
v 2.455340 4.427731 -8.209921
v 0.036032 15.603500 -6.272142
v -2.167171 14.487301 -8.612641
v -2.361779 4.427732 -8.237642
v -7.866091 14.174802 -8.165930
v -11.353836 15.989302 -6.931260
v -2.361779 4.427732 -8.237642
v -5.823276 1.835942 -10.023932
v -2.361779 4.427732 -8.237642
v -17.224129 13.517603 -12.169681
v -9.506083 14.233400 0.936582
v -13.401644 9.355471 -0.797819
v -5.782822 2.568361 -5.403370
v -8.874515 10.239300 7.071921
v -9.892776 3.827150 7.709204
v -5.805802 -0.058593 -1.367657
v -0.011051 -5.910161 1.903558
v -2.416514 -1.917970 1.505500
v -0.093956 -5.036132 16.416393
v -0.011051 -5.910161 1.903558
v -0.093956 -5.036132 16.416393
v 2.399253 -1.917970 1.532934
v -2.361779 4.427732 -8.237642
v -11.353836 15.989302 -6.931260
v -17.224129 13.517603 -12.169681
v 0.062337 12.743201 -10.881252
v 0.036032 15.603500 -6.272142
v -2.361779 4.427732 -8.237642
v -9.506083 14.233400 0.936582
v -5.782822 2.568361 -5.403370
v -11.849917 12.464802 -5.562934
v -8.874515 10.239300 7.071921
v -5.805802 -0.058593 -1.367657
v -13.423572 6.936521 2.916105
v -2.521591 7.715818 10.982248
v -1.888239 0.829100 12.359152
v -2.416514 -1.917970 1.505500
v -2.521591 7.715818 10.982248
v -2.416514 -1.917970 1.505500
v -5.372772 2.481449 9.802461
v 2.395728 7.715818 11.010180
v 5.260934 2.481448 9.863408
v 2.399253 -1.917970 1.532934
v 8.792457 10.239298 7.172790
v 13.388680 6.936518 3.070261
v 5.821118 -0.058594 -1.301871
v 9.494540 14.233398 1.045251
v 11.912849 12.464800 -5.426960
v 5.844631 2.568360 -5.336761
v -16.506924 1.700201 5.977293
v -9.892776 3.827150 7.709204
v -8.874515 10.239300 7.071921
v -16.506924 1.700201 5.977293
v -13.423572 6.936521 2.916105
v -16.125553 9.994141 2.247008
v -5.017000 -3.251951 13.648746
v -5.372772 2.481449 9.802461
v -7.239887 4.139649 11.284932
v -19.834053 10.054703 -6.868360
v -13.401644 9.355471 -0.797819
v -9.506083 14.233400 0.936582
v -19.834053 10.054703 -6.868360
v -11.849917 12.464802 -5.562934
v -11.353836 15.989302 -6.931260
v 2.399253 -1.917970 1.532934
v 1.746862 0.829100 12.379750
v 2.395728 7.715818 11.010180
v 5.821118 -0.058594 -1.301871
v 9.803061 3.827148 7.822541
v 8.792457 10.239298 7.172790
v -7.866091 14.174802 -8.165930
v -7.565619 15.707004 -15.476003
v -11.353836 15.989302 -6.931260
v 5.844631 2.568360 -5.336761
v 13.410048 9.355469 -0.644456
v 9.494540 14.233398 1.045251
v 2.455340 4.427731 -8.209921
v 7.959847 14.174800 -8.074689
v 3.665189 15.645499 -1.156475
v 7.959847 14.174800 -8.074689
v 11.432288 15.989300 -6.801583
v 7.741356 15.707002 -15.388491
vt 0.579102 0.309021
vt 0.655640 0.259796
vt 0.627502 0.259979
vt 0.691742 0.308258
vt 0.420868 0.309021
vt 0.440186 0.220062
vt 0.420410 0.240112
vt 0.500000 0.228851
vt 0.308990 0.420898
vt 0.259766 0.344360
vt 0.259949 0.372498
vt 0.308228 0.308258
vt 0.627502 0.740051
vt 0.691742 0.691772
vt 0.579102 0.691010
vt 0.655640 0.740234
vt 0.308990 0.579132
vt 0.220032 0.559814
vt 0.240082 0.579590
vt 0.228821 0.500000
vt 0.740204 0.344360
vt 0.690979 0.420898
vt 0.740021 0.372498
vt 0.691742 0.308258
vt 0.420410 0.759918
vt 0.500000 0.771179
vt 0.420868 0.691010
vt 0.440186 0.779968
vt 0.259949 0.627533
vt 0.308228 0.691772
vt 0.308990 0.579132
vt 0.259766 0.655670
vt 0.559784 0.779968
vt 0.579102 0.691010
vt 0.500000 0.771179
vt 0.579559 0.759918
vt 0.344330 0.740234
vt 0.420868 0.691010
vt 0.308228 0.691772
vt 0.372467 0.740051
vt 0.220032 0.440216
vt 0.308990 0.420898
vt 0.240082 0.420441
vt 0.228821 0.500000
vt 0.690979 0.420898
vt 0.779938 0.440216
vt 0.759888 0.420441
vt 0.771149 0.500000
vt 0.559784 0.220062
vt 0.579102 0.309021
vt 0.579559 0.240112
vt 0.500000 0.228851
vt 0.344330 0.259796
vt 0.420868 0.309021
vt 0.372467 0.259979
vt 0.308228 0.308258
vt 0.420868 0.309021
vt 0.500000 0.500000
vt 0.500000 0.276245
vt 0.308990 0.420898
vt 0.500000 0.500000
vt 0.341766 0.341797
vt 0.308990 0.579132
vt 0.500000 0.500000
vt 0.276215 0.500000
vt 0.658203 0.658234
vt 0.579102 0.691010
vt 0.691742 0.691772
vt 0.500000 0.723785
vt 0.420868 0.691010
vt 0.500000 0.771179
vt 0.211273 0.619598
vt 0.240082 0.579590
vt 0.220032 0.559814
vt 0.211273 0.380432
vt 0.259949 0.372498
vt 0.259766 0.344360
vt 0.380402 0.211304
vt 0.420410 0.240112
vt 0.440186 0.220062
vt 0.619568 0.211304
vt 0.627502 0.259979
vt 0.655640 0.259796
vt 0.308228 0.308258
vt 0.308990 0.420898
vt 0.341766 0.341797
vt 0.420868 0.309021
vt 0.308228 0.308258
vt 0.341766 0.341797
vt 0.690979 0.420898
vt 0.691742 0.308258
vt 0.658203 0.341797
vt 0.500000 0.228851
vt 0.420868 0.309021
vt 0.500000 0.276245
vt 0.579102 0.309021
vt 0.500000 0.228851
vt 0.500000 0.276245
vt 0.691742 0.308258
vt 0.579102 0.309021
vt 0.658203 0.341797
vt 0.771149 0.500000
vt 0.690979 0.420898
vt 0.723755 0.500000
vt 0.690979 0.579132
vt 0.771149 0.500000
vt 0.723755 0.500000
vt 0.341766 0.341797
vt 0.500000 0.500000
vt 0.420868 0.309021
vt 0.276215 0.500000
vt 0.500000 0.500000
vt 0.308990 0.420898
vt 0.341766 0.658234
vt 0.500000 0.500000
vt 0.308990 0.579132
vt 0.500000 0.723785
vt 0.500000 0.500000
vt 0.420868 0.691010
vt 0.658203 0.658234
vt 0.500000 0.500000
vt 0.579102 0.691010
vt 0.723755 0.500000
vt 0.500000 0.500000
vt 0.690979 0.579132
vt 0.658203 0.341797
vt 0.500000 0.500000
vt 0.690979 0.420898
vt 0.788696 0.619598
vt 0.742249 0.581635
vt 0.739838 0.599365
vt 0.739838 0.599365
vt 0.742249 0.581635
vt 0.690979 0.579132
vt 0.690979 0.579132
vt 0.729004 0.613617
vt 0.739838 0.599365
vt 0.500000 0.276245
vt 0.500000 0.500000
vt 0.579102 0.309021
vt 0.500000 0.723785
vt 0.500000 0.771179
vt 0.579102 0.691010
vt 0.341766 0.658234
vt 0.308228 0.691772
vt 0.420868 0.691010
vt 0.341766 0.658234
vt 0.308990 0.579132
vt 0.308228 0.691772
vt 0.211273 0.380432
vt 0.240082 0.420441
vt 0.260132 0.400665
vt 0.380402 0.211304
vt 0.372467 0.259979
vt 0.400635 0.260162
vt 0.619568 0.211304
vt 0.579559 0.240112
vt 0.599335 0.260162
vt 0.788696 0.380432
vt 0.740021 0.372498
vt 0.739838 0.400665
vt 0.788696 0.380432
vt 0.739838 0.400665
vt 0.759888 0.420441
vt 0.788696 0.619598
vt 0.744690 0.563934
vt 0.742249 0.581635
vt 0.729004 0.613617
vt 0.788696 0.619598
vt 0.739838 0.599365
vt 0.420868 0.691010
vt 0.500000 0.500000
vt 0.341766 0.658234
vt 0.579102 0.691010
vt 0.500000 0.500000
vt 0.500000 0.723785
vt 0.690979 0.579132
vt 0.500000 0.500000
vt 0.658203 0.658234
vt 0.690979 0.420898
vt 0.500000 0.500000
vt 0.723755 0.500000
vt 0.579102 0.309021
vt 0.500000 0.500000
vt 0.658203 0.341797
vt 0.788696 0.380432
vt 0.759888 0.420441
vt 0.779938 0.440216
vt 0.619568 0.788727
vt 0.627502 0.740051
vt 0.599335 0.739868
vt 0.619568 0.788727
vt 0.579559 0.759918
vt 0.559784 0.779968
vt 0.380402 0.788727
vt 0.420410 0.759918
vt 0.400635 0.739868
vt 0.380402 0.788727
vt 0.372467 0.740051
vt 0.344330 0.740234
vt 0.211273 0.619598
vt 0.259949 0.627533
vt 0.260132 0.599365
vt 0.211273 0.619598
vt 0.260132 0.599365
vt 0.240082 0.579590
vt 0.211273 0.380432
vt 0.220032 0.440216
vt 0.240082 0.420441
vt 0.211273 0.380432
vt 0.260132 0.400665
vt 0.259949 0.372498
vt 0.380402 0.211304
vt 0.344330 0.259796
vt 0.372467 0.259979
vt 0.380402 0.211304
vt 0.400635 0.260162
vt 0.420410 0.240112
vt 0.619568 0.211304
vt 0.559784 0.220062
vt 0.579559 0.240112
vt 0.619568 0.211304
vt 0.599335 0.260162
vt 0.627502 0.259979
vt 0.690979 0.420898
vt 0.759888 0.420441
vt 0.739838 0.400665
vt 0.690979 0.579132
vt 0.742249 0.581635
vt 0.744690 0.563934
vt 0.690979 0.579132
vt 0.718201 0.627838
vt 0.729004 0.613617
vt 0.691742 0.691772
vt 0.690979 0.579132
vt 0.658203 0.658234
vt 0.579102 0.691010
vt 0.579559 0.759918
vt 0.599335 0.739868
vt 0.420868 0.691010
vt 0.372467 0.740051
vt 0.400635 0.739868
vt 0.228821 0.500000
vt 0.308990 0.579132
vt 0.276215 0.500000
vt 0.308990 0.420898
vt 0.228821 0.500000
vt 0.276215 0.500000
vt 0.691742 0.691772
vt 0.718201 0.627838
vt 0.690979 0.579132
vt 0.690979 0.579132
vt 0.744690 0.563934
vt 0.771149 0.500000
vt 0.627502 0.740051
vt 0.579102 0.691010
vt 0.599335 0.739868
vt 0.420410 0.759918
vt 0.420868 0.691010
vt 0.400635 0.739868
vt 0.308990 0.579132
vt 0.240082 0.579590
vt 0.260132 0.599365
vt 0.259949 0.627533
vt 0.308990 0.579132
vt 0.260132 0.599365
vt 0.308990 0.420898
vt 0.259949 0.372498
vt 0.260132 0.400665
vt 0.420868 0.309021
vt 0.420410 0.240112
vt 0.400635 0.260162
vt 0.579102 0.309021
vt 0.627502 0.259979
vt 0.599335 0.260162
vt 0.400635 0.739868
vt 0.372467 0.740051
vt 0.380402 0.788727
vt 0.440186 0.779968
vt 0.420410 0.759918
vt 0.380402 0.788727
vt 0.259766 0.655670
vt 0.259949 0.627533
vt 0.211273 0.619598
vt 0.599335 0.739868
vt 0.579559 0.759918
vt 0.619568 0.788727
vt 0.655640 0.740234
vt 0.627502 0.740051
vt 0.619568 0.788727
vt 0.260132 0.400665
vt 0.240082 0.420441
vt 0.308990 0.420898
vt 0.400635 0.260162
vt 0.372467 0.259979
vt 0.420868 0.309021
vt 0.718201 0.627838
vt 0.788696 0.619598
vt 0.729004 0.613617
vt 0.599335 0.260162
vt 0.579559 0.240112
vt 0.579102 0.309021
vt 0.739838 0.400665
vt 0.740021 0.372498
vt 0.690979 0.420898
vt 0.788696 0.380432
vt 0.740204 0.344360
vt 0.740021 0.372498
vn 0.4356 -0.2749 -0.8571
vn 0.6070 -0.1679 0.7767
vn 0.7199 -0.6733 -0.1688
vn 0.1230 -0.4535 0.8827
vn 0.5270 -0.8128 0.2482
vn -0.7878 -0.2789 0.5491
vn -0.7300 -0.4391 0.5238
vn -0.7017 0.3415 0.6252
vn -0.2895 -0.9245 0.2481
vn -0.9875 0.0151 0.1570
vn 0.4412 -0.2372 -0.8655
vn -0.4690 0.4563 -0.7562
vn -0.2423 -0.6848 0.6873
vn -0.4255 -0.1820 0.8865
vn 0.7013 -0.4954 0.5126
vn 0.4878 -0.2086 0.8477
vn -0.1236 0.6233 -0.7721
vn -0.7158 -0.4302 -0.5501
vn -0.9313 0.3008 -0.2054
vn -0.2641 -0.9240 0.2767
vn 0.2868 -0.9244 0.2514
vn 0.9856 0.0149 0.1682
vn -0.7292 -0.0394 -0.6831
vn 0.9627 0.2325 -0.1388
vn 0.7220 -0.4302 -0.5418
vn 0.1324 0.6233 -0.7707
vn 0.2609 -0.9240 0.2796
vn 0.9337 0.3007 -0.1946
vn 0.2778 -0.8307 0.4825
vn -0.4094 -0.8022 0.4345
vn -0.8562 -0.5166 -0.0065
vn -0.7214 -0.6830 0.1146
vn -0.3093 -0.8146 0.4907
vn 0.7096 -0.6383 -0.2985
vn 0.7662 -0.3937 -0.5078
vn 0.2317 -0.3915 -0.8905
vn -0.2499 -0.3812 -0.8901
vn -0.4594 -0.8161 0.3507
vn 0.9684 -0.0519 -0.2438
vn -0.3375 0.1704 -0.9258
vn 0.3036 -0.8146 0.4943
vn 0.3118 0.1211 -0.9424
vn 0.7200 -0.6830 0.1228
vn 0.8364 0.0659 -0.5441
vn -0.8301 0.0659 -0.5538
vn 0.8072 -0.1413 -0.5732
vn 0.8562 -0.5166 0.0034
vn 0.4045 -0.8022 0.4392
vn -0.2833 -0.8307 0.4792
vn -0.8044 -0.5857 0.0999
vn -0.8535 -0.2104 -0.4768
vn -0.4017 0.0753 -0.9127
vn -0.3194 -0.9439 0.0835
vn -0.9801 0.0116 -0.1981
vn 0.7351 0.4190 -0.5330
vn 0.2860 0.1039 -0.9526
vn -0.3010 0.1211 -0.9459
vn -0.9655 -0.0520 -0.2550
vn 0.4554 -0.8160 0.3561
vn 0.1421 -0.2059 -0.9682
vn -0.2821 -0.1406 -0.9490
vn -0.6388 -0.2622 -0.7233
vn -0.5374 -0.8285 -0.1575
vn 0.3184 -0.9439 0.0871
vn 0.7576 -0.1791 -0.6277
vn 0.5395 -0.8283 -0.1514
vn -0.8006 -0.1414 -0.5823
vn -0.2751 0.1039 -0.9558
vn 0.4122 0.0753 -0.9080
vn 0.8590 -0.2103 -0.4669
vn 0.8032 -0.5856 0.1090
vn -0.7504 -0.1789 -0.6363
vn 0.2602 -0.9513 0.1650
vn -0.1637 -0.9847 0.0601
vn 0.7280 -0.6108 -0.3115
vn 0.3423 -0.9235 -0.1733
vn 0.7876 -0.3088 -0.5332
vn -0.1311 -0.2059 -0.9697
vn -0.7062 -0.6383 -0.3064
vn -0.7813 -0.3088 -0.5424
vn -0.3403 -0.9235 -0.1771
vn -0.7244 -0.6107 -0.3199
vn 0.1630 -0.9847 0.0620
vn -0.2620 -0.9514 0.1621
vn 0.9823 0.0116 -0.1869
vn 0.7369 -0.0394 -0.6749
vn -0.4315 -0.2373 -0.8703
vn 0.3481 0.1704 -0.9218
vn -0.1493 0.4350 -0.8880
vn -0.8912 0.0975 -0.4430
vn -0.8574 -0.5140 0.0261
vn 0.8570 -0.5141 0.0359
vn 0.4777 0.4564 -0.7507
vn -0.9610 0.2325 -0.1498
vn -0.7806 -0.4719 0.4099
vn -0.1913 -0.6556 0.7304
vn -0.9946 -0.0779 0.0681
vn 0.7000 -0.4969 0.5129
vn -0.7058 -0.4969 0.5049
vn 0.1828 -0.6556 0.7326
vn 0.7758 -0.4719 0.4188
vn 0.2928 -0.1405 -0.9458
vn -0.2218 -0.3915 -0.8931
vn -0.7601 -0.3939 -0.5168
vn 0.6471 -0.2622 -0.7159
vn 0.2601 -0.3811 -0.8872
vn 0.9938 -0.0778 0.0795
vn 0.8963 0.0974 -0.4326
vn -0.5064 -0.8395 -0.1968
vn 0.1594 0.4350 -0.8862
vn -0.7288 0.4191 -0.5415
vn 0.5087 -0.8395 -0.1911
usemtl m1houseki02_mat_v
s off
f 3/1/1 2/2/1 1/3/1
f 3/1/2 4/4/2 2/2/2
f 7/5/3 6/6/3 5/7/3
f 7/5/4 8/8/4 6/6/4
f 11/9/5 10/10/5 9/11/5
f 11/9/6 12/12/6 10/10/6
f 15/13/7 14/14/7 13/15/7
f 15/13/8 16/16/8 14/14/8
f 19/17/9 18/18/9 17/19/9
f 19/17/10 20/20/10 18/18/10
f 23/21/11 22/22/11 21/23/11
f 23/21/12 24/24/12 22/22/12
f 27/25/13 26/26/13 25/27/13
f 27/25/14 28/28/14 26/26/14
f 31/29/15 30/30/15 29/31/15
f 31/29/16 32/32/16 30/30/16
f 35/33/17 34/34/17 33/35/17
f 35/33/18 36/36/18 34/34/18
f 39/37/19 38/38/19 37/39/19
f 39/37/20 40/40/20 38/38/20
f 43/41/21 42/42/21 41/43/21
f 43/41/22 44/44/22 42/42/22
f 47/45/23 46/46/23 45/47/23
f 47/45/24 48/48/24 46/46/24
f 51/49/25 50/50/25 49/51/25
f 51/49/26 52/52/26 50/50/26
f 55/53/27 54/54/27 53/55/27
f 55/53/28 56/56/28 54/54/28
f 59/57/29 58/58/29 57/59/29
f 62/60/30 61/61/30 60/62/30
f 65/63/31 64/64/31 63/65/31
f 68/66/32 67/67/32 66/68/32
f 71/69/33 70/70/33 69/71/33
f 74/72/34 73/73/34 72/74/34
f 77/75/35 76/76/35 75/77/35
f 80/78/36 79/79/36 78/80/36
f 83/81/37 82/82/37 81/83/37
f 86/84/38 85/85/38 84/86/38
f 89/87/39 88/88/39 87/89/39
f 92/90/40 91/91/40 90/92/40
f 95/93/41 94/94/41 93/95/41
f 98/96/42 97/97/42 96/98/42
f 101/99/43 100/100/43 99/101/43
f 104/102/44 103/103/44 102/104/44
f 107/105/45 106/106/45 105/107/45
f 110/108/46 109/109/46 108/110/46
f 113/111/47 112/112/47 111/113/47
f 116/114/48 115/115/48 114/116/48
f 119/117/49 118/118/49 117/119/49
f 122/120/50 121/121/50 120/122/50
f 125/123/51 124/124/51 123/125/51
f 128/126/52 127/127/52 126/128/52
f 131/129/53 130/130/53 129/131/53
f 134/132/54 133/133/54 132/134/54
f 137/135/55 136/136/55 135/137/55
f 140/138/56 139/139/56 138/140/56
f 143/141/57 142/142/57 141/143/57
f 146/144/58 145/145/58 144/146/58
f 149/147/59 148/148/59 147/149/59
f 152/150/60 151/151/60 150/152/60
f 155/153/61 154/154/61 153/155/61
f 158/156/62 157/157/62 156/158/62
f 161/159/63 160/160/63 159/161/63
f 164/162/64 163/163/64 162/164/64
f 167/165/65 166/166/65 165/167/65
f 170/168/66 169/169/66 168/170/66
f 173/171/67 172/172/67 171/173/67
f 176/174/68 175/175/68 174/176/68
f 179/177/69 178/178/69 177/179/69
f 182/180/70 181/181/70 180/182/70
f 185/183/71 184/184/71 183/185/71
f 188/186/72 187/187/72 186/188/72
f 191/189/73 190/190/73 189/191/73
f 194/192/74 193/193/74 192/194/74
f 197/195/75 196/196/75 195/197/75
f 200/198/76 199/199/76 198/200/76
f 203/201/77 202/202/77 201/203/77
f 206/204/78 205/205/78 204/206/78
f 209/207/79 208/208/79 207/209/79
f 212/210/80 211/211/80 210/212/80
f 215/213/81 214/214/81 213/215/81
f 218/216/82 217/217/82 216/218/82
f 221/219/83 220/220/83 219/221/83
f 224/222/84 223/223/84 222/224/84
f 227/225/85 226/226/85 225/227/85
f 230/228/86 229/229/86 228/230/86
f 233/231/87 232/232/87 231/233/87
f 236/234/88 235/235/88 234/236/88
f 239/237/89 238/238/89 237/239/89
f 242/240/90 241/241/90 240/242/90
f 245/243/91 244/244/91 243/245/91
f 248/246/92 247/247/92 246/248/92
f 251/249/93 250/250/93 249/251/93
f 254/252/94 253/253/94 252/254/94
f 257/255/95 256/256/95 255/257/95
f 260/258/96 259/259/96 258/260/96
f 263/261/97 262/262/97 261/263/97
f 266/264/98 265/265/98 264/266/98
f 269/267/99 268/268/99 267/269/99
f 272/270/100 271/271/100 270/272/100
f 275/273/101 274/274/101 273/275/101
f 278/276/102 277/277/102 276/278/102
f 281/279/103 280/280/103 279/281/103
f 284/282/104 283/283/104 282/284/104
f 287/285/105 286/286/105 285/287/105
f 290/288/106 289/289/106 288/290/106
f 293/291/107 292/292/107 291/293/107
f 296/294/108 295/295/108 294/296/108
f 299/297/109 298/298/109 297/299/109
f 302/300/110 301/301/110 300/302/110
f 305/303/111 304/304/111 303/305/111
f 308/306/112 307/307/112 306/308/112
