# Blender v3.0.0 OBJ File: ''
# www.blender.org
mtllib petrified_upper.mtl
o mesh-2_meshId2_name
v 3.665189 15.645499 -1.156475
v 0.026988 10.604501 -4.721240
v 0.036032 15.603500 -6.272142
v 4.438223 9.605470 -3.162542
v 3.665189 15.645499 -1.156475
v 11.432288 15.989300 -6.801583
v 8.578679 10.512699 -1.509933
v 9.494540 14.233398 1.045251
v 6.247396 7.193359 0.551177
v 9.494540 14.233398 1.045251
v 4.438223 9.605470 -3.162542
v 11.432288 15.989300 -6.801583
v 6.247396 7.193359 0.551177
v 9.494540 14.233398 1.045251
v 16.098619 9.994138 2.431135
v 8.543983 6.638669 4.439074
v 8.792457 10.239298 7.172790
v 4.394629 4.781249 4.244190
v 8.792457 10.239298 7.172790
v 6.247396 7.193359 0.551177
v 16.098619 9.994138 2.431135
v 4.394629 4.781249 4.244190
v 8.792457 10.239298 7.172790
v 7.109900 4.139647 11.367617
v -0.032891 3.782229 5.752384
v -3.599248 3.898439 8.576049
v -0.010433 9.254880 1.857782
v -3.599248 3.898439 8.576049
v -4.443307 4.781250 4.193147
v -0.010433 9.254880 1.857782
v -4.443307 4.781250 4.193147
v -8.594802 6.638670 4.341714
v -0.010433 9.254880 1.857782
v -8.594802 6.638670 4.341714
v -6.253299 7.193360 0.479967
v -0.010433 9.254880 1.857782
v -6.253299 7.193360 0.479967
v -8.560629 10.512701 -1.608120
v -0.010433 9.254880 1.857782
v -8.560629 10.512701 -1.608120
v -4.400537 9.605471 -3.213054
v -0.010433 9.254880 1.857782
v -4.400537 9.605471 -3.213054
v -3.517016 13.252901 -5.785130
v -0.010433 9.254880 1.857782
v -3.517016 13.252901 -5.785130
v 0.026988 10.604501 -4.721240
v -0.010433 9.254880 1.857782
v 0.026988 10.604501 -4.721240
v 3.582592 13.252900 -5.745091
v -0.010433 9.254880 1.857782
v 3.582592 13.252900 -5.745091
v 4.438223 9.605470 -3.162542
v -0.010433 9.254880 1.857782
v 4.438223 9.605470 -3.162542
v 8.578679 10.512699 -1.509933
v -0.010433 9.254880 1.857782
v 8.578679 10.512699 -1.509933
v 6.247396 7.193359 0.551177
v -0.010433 9.254880 1.857782
v 6.247396 7.193359 0.551177
v 8.543983 6.638669 4.439074
v -0.010433 9.254880 1.857782
v 8.543983 6.638669 4.439074
v 4.394629 4.781249 4.244190
v -0.010433 9.254880 1.857782
v 4.394629 4.781249 4.244190
v 3.500890 3.898438 8.616899
v -0.010433 9.254880 1.857782
v 3.500890 3.898438 8.616899
v -0.032891 3.782229 5.752384
v -0.010433 9.254880 1.857782
v 4.394629 4.781249 4.244190
v 2.395728 7.715818 11.010180
v 3.500890 3.898438 8.616899
v -0.032891 3.782229 5.752384
v -2.521591 7.715818 10.982248
v -3.599248 3.898439 8.576049
v -4.443307 4.781250 4.193147
v -8.874515 10.239300 7.071921
v -8.594802 6.638670 4.341714
v -6.253299 7.193360 0.479967
v -9.506083 14.233400 0.936582
v -8.560629 10.512701 -1.608120
v -4.400537 9.605471 -3.213054
v -3.652173 15.645500 -1.198600
v -3.517016 13.252901 -5.785130
v 0.026988 10.604501 -4.721240
v 3.665189 15.645499 -1.156475
v 3.582592 13.252900 -5.745091
v 4.438223 9.605470 -3.162542
v 9.494540 14.233398 1.045251
v 8.578679 10.512699 -1.509933
v 6.247396 7.193359 0.551177
v 8.792457 10.239298 7.172790
v 8.543983 6.638669 4.439074
v 3.500890 3.898438 8.616899
v 2.395728 7.715818 11.010180
v -0.032891 3.782229 5.752384
v 2.395728 7.715818 11.010180
v 4.394629 4.781249 4.244190
v 7.109900 4.139647 11.367617
v -0.032891 3.782229 5.752384
v 2.395728 7.715818 11.010180
v -0.090040 1.200198 15.840339
v -3.599248 3.898439 8.576049
v -2.521591 7.715818 10.982248
v -4.443307 4.781250 4.193147
v -2.521591 7.715818 10.982248
v -0.032891 3.782229 5.752384
v -0.090040 1.200198 15.840339
v -4.443307 4.781250 4.193147
v -2.521591 7.715818 10.982248
v -7.239887 4.139649 11.284932
v -8.594802 6.638670 4.341714
v -8.874515 10.239300 7.071921
v -6.253299 7.193360 0.479967
v -8.874515 10.239300 7.071921
v -4.443307 4.781250 4.193147
v -7.239887 4.139649 11.284932
v -6.253299 7.193360 0.479967
v -8.874515 10.239300 7.071921
v -16.125553 9.994141 2.247008
v -8.560629 10.512701 -1.608120
v -9.506083 14.233400 0.936582
v -4.400537 9.605471 -3.213054
v -9.506083 14.233400 0.936582
v -6.253299 7.193360 0.479967
v -16.125553 9.994141 2.247008
v -4.400537 9.605471 -3.213054
v -9.506083 14.233400 0.936582
v -11.353836 15.989302 -6.931260
v -3.517016 13.252901 -5.785130
v -3.652173 15.645500 -1.198600
v 0.026988 10.604501 -4.721240
v -3.652173 15.645500 -1.198600
v -4.400537 9.605471 -3.213054
v -11.353836 15.989302 -6.931260
v 0.026988 10.604501 -4.721240
v -3.652173 15.645500 -1.198600
v 0.036032 15.603500 -6.272142
v 3.582592 13.252900 -5.745091
v 3.665189 15.645499 -1.156475
v 4.438223 9.605470 -3.162542
vt 0.632385 0.500000
vt 0.544128 0.500000
vt 0.632385 0.445190
vt 0.593597 0.406403
vt 0.632385 0.445190
vt 0.531189 0.468811
vt 0.500000 0.455872
vt 0.554810 0.367615
vt 0.515594 0.462341
vt 0.593597 0.406403
vt 0.531189 0.468811
vt 0.554810 0.367615
vt 0.500000 0.367615
vt 0.554810 0.367615
vt 0.500000 0.455872
vt 0.468781 0.468811
vt 0.445160 0.367615
vt 0.484375 0.462341
vt 0.500000 0.367615
vt 0.500000 0.455872
vt 0.445160 0.367615
vt 0.406372 0.406403
vt 0.445160 0.367615
vt 0.468781 0.468811
vt 0.500000 0.500000
vt 0.462311 0.515625
vt 0.455841 0.500000
vt 0.500000 0.500000
vt 0.468781 0.531219
vt 0.462311 0.515625
vt 0.500000 0.500000
vt 0.484375 0.537689
vt 0.468781 0.531219
vt 0.500000 0.500000
vt 0.500000 0.544159
vt 0.484375 0.537689
vt 0.500000 0.500000
vt 0.515594 0.537689
vt 0.500000 0.544159
vt 0.500000 0.500000
vt 0.531189 0.531219
vt 0.515594 0.537689
vt 0.500000 0.500000
vt 0.537659 0.515625
vt 0.531189 0.531219
vt 0.500000 0.500000
vt 0.544128 0.500000
vt 0.537659 0.515625
vt 0.500000 0.500000
vt 0.537659 0.484406
vt 0.544128 0.500000
vt 0.500000 0.500000
vt 0.531189 0.468811
vt 0.537659 0.484406
vt 0.500000 0.500000
vt 0.515594 0.462341
vt 0.531189 0.468811
vt 0.500000 0.500000
vt 0.500000 0.455872
vt 0.515594 0.462341
vt 0.500000 0.500000
vt 0.484375 0.462341
vt 0.500000 0.455872
vt 0.500000 0.500000
vt 0.468781 0.468811
vt 0.484375 0.462341
vt 0.500000 0.500000
vt 0.462311 0.484406
vt 0.468781 0.468811
vt 0.500000 0.500000
vt 0.455841 0.500000
vt 0.462311 0.484406
vt 0.462311 0.484406
vt 0.367584 0.445190
vt 0.468781 0.468811
vt 0.462311 0.515625
vt 0.367584 0.554840
vt 0.455841 0.500000
vt 0.484375 0.537689
vt 0.445160 0.632416
vt 0.468781 0.531219
vt 0.515594 0.537689
vt 0.554810 0.632416
vt 0.500000 0.544159
vt 0.537659 0.515625
vt 0.632385 0.554840
vt 0.531189 0.531219
vt 0.537659 0.484406
vt 0.632385 0.445190
vt 0.544128 0.500000
vt 0.515594 0.462341
vt 0.554810 0.367615
vt 0.531189 0.468811
vt 0.484375 0.462341
vt 0.445160 0.367615
vt 0.500000 0.455872
vt 0.455841 0.500000
vt 0.367584 0.445190
vt 0.462311 0.484406
vt 0.406372 0.406403
vt 0.468781 0.468811
vt 0.367584 0.445190
vt 0.367584 0.500000
vt 0.367584 0.445190
vt 0.455841 0.500000
vt 0.468781 0.531219
vt 0.367584 0.554840
vt 0.462311 0.515625
vt 0.367584 0.500000
vt 0.455841 0.500000
vt 0.367584 0.554840
vt 0.406372 0.593628
vt 0.367584 0.554840
vt 0.468781 0.531219
vt 0.500000 0.544159
vt 0.445160 0.632416
vt 0.484375 0.537689
vt 0.406372 0.593628
vt 0.468781 0.531219
vt 0.445160 0.632416
vt 0.500000 0.632416
vt 0.445160 0.632416
vt 0.500000 0.544159
vt 0.531189 0.531219
vt 0.554810 0.632416
vt 0.515594 0.537689
vt 0.500000 0.632416
vt 0.500000 0.544159
vt 0.554810 0.632416
vt 0.593597 0.593628
vt 0.554810 0.632416
vt 0.531189 0.531219
vt 0.544128 0.500000
vt 0.632385 0.554840
vt 0.537659 0.515625
vt 0.593597 0.593628
vt 0.531189 0.531219
vt 0.632385 0.554840
vt 0.632385 0.500000
vt 0.632385 0.554840
vt 0.544128 0.500000
vt 0.531189 0.468811
vt 0.632385 0.445190
vt 0.537659 0.484406
vn -0.8033 0.1778 0.5684
vn 0.5829 -0.1880 0.7905
vn -0.8582 0.4169 -0.2994
vn -0.6745 0.7382 -0.0014
vn -0.1929 0.0201 0.9810
vn -0.2318 0.5983 -0.7670
vn -0.1946 0.9174 -0.3472
vn -0.8121 0.4658 0.3515
vn 0.5537 0.4813 0.6795
vn -0.6109 0.7451 0.2677
vn 0.1741 0.3146 0.9331
vn -0.3037 0.9516 -0.0475
vn -0.3091 0.3431 0.8870
vn 0.1798 0.9798 -0.0879
vn -0.6126 0.5492 0.5684
vn 0.5566 0.8132 0.1700
vn -0.5586 0.8132 0.1636
vn 0.6059 0.5495 0.5753
vn -0.1788 0.9798 -0.0900
vn 0.2989 0.3430 0.8905
vn 0.3043 0.9516 -0.0440
vn -0.1847 0.3148 0.9310
vn 0.6078 0.7450 0.2747
vn -0.5615 0.4813 0.6731
vn -0.9645 -0.1382 -0.2250
vn -0.5039 0.5579 -0.6594
vn 0.2403 0.5983 -0.7644
vn 0.8617 0.4169 -0.2894
vn 0.9810 -0.1588 0.1118
vn 0.6221 -0.6987 0.3531
vn -0.2178 -0.5155 0.8287
vn -0.8419 -0.2883 0.4562
vn 0.5115 0.5578 -0.6536
vn 0.6043 0.7806 -0.1600
vn -0.9018 0.4199 0.1024
vn 0.9670 -0.1381 -0.2140
vn 0.9005 0.4200 0.1126
vn -0.6023 0.7806 -0.1669
vn 0.8366 -0.2882 0.4659
vn 0.8080 0.4657 0.3608
vn 0.1985 0.9174 -0.3450
vn 0.2082 -0.5156 0.8312
vn 0.1817 0.0202 0.9831
vn 0.6744 0.7383 0.0064
vn -0.6261 -0.6988 0.3461
vn -0.5918 -0.1881 0.7838
vn 0.7967 0.1778 0.5777
vn -0.9821 -0.1591 0.1006
usemtl m2houseki03_mat_v
s off
f 3/1/1 2/2/1 1/3/1
f 6/4/2 5/5/2 4/6/2
f 9/7/3 8/8/3 7/9/3
f 12/10/4 11/11/4 10/12/4
f 15/13/5 14/14/5 13/15/5
f 18/16/6 17/17/6 16/18/6
f 21/19/7 20/20/7 19/21/7
f 24/22/8 23/23/8 22/24/8
f 27/25/9 26/26/9 25/27/9
f 30/28/10 29/29/10 28/30/10
f 33/31/11 32/32/11 31/33/11
f 36/34/12 35/35/12 34/36/12
f 39/37/13 38/38/13 37/39/13
f 42/40/14 41/41/14 40/42/14
f 45/43/15 44/44/15 43/45/15
f 48/46/16 47/47/16 46/48/16
f 51/49/17 50/50/17 49/51/17
f 54/52/18 53/53/18 52/54/18
f 57/55/19 56/56/19 55/57/19
f 60/58/20 59/59/20 58/60/20
f 63/61/21 62/62/21 61/63/21
f 66/64/22 65/65/22 64/66/22
f 69/67/23 68/68/23 67/69/23
f 72/70/24 71/71/24 70/72/24
f 75/73/25 74/74/25 73/75/25
f 78/76/26 77/77/26 76/78/26
f 81/79/27 80/80/27 79/81/27
f 84/82/28 83/83/28 82/84/28
f 87/85/29 86/86/29 85/87/29
f 90/88/30 89/89/30 88/90/30
f 93/91/31 92/92/31 91/93/31
f 96/94/32 95/95/32 94/96/32
f 99/97/33 98/98/33 97/99/33
f 102/100/34 101/101/34 100/102/34
f 105/103/35 104/104/35 103/105/35
f 108/106/36 107/107/36 106/108/36
f 111/109/37 110/110/37 109/111/37
f 114/112/38 113/113/38 112/114/38
f 117/115/39 116/116/39 115/117/39
f 120/118/40 119/119/40 118/120/40
f 123/121/41 122/122/41 121/123/41
f 126/124/42 125/125/42 124/126/42
f 129/127/43 128/128/43 127/129/43
f 132/130/44 131/131/44 130/132/44
f 135/133/45 134/134/45 133/135/45
f 138/136/46 137/137/46 136/138/46
f 141/139/47 140/140/47 139/141/47
f 144/142/48 143/143/48 142/144/48
