# Blender v3.0.0 OBJ File: ''
# www.blender.org
mtllib slicer_base.mtl
o mesh-1_meshId1_name
v -12.837001 3.000002 -10.893789
v -12.837001 0.500002 -10.893789
v -6.890649 3.000004 -23.989828
v -6.890649 0.500004 -23.989830
v -6.397976 3.000005 -27.100531
v -6.397976 0.500005 -27.100533
v -6.595293 3.000015 -93.100449
v -6.595293 0.500015 -93.100449
v -5.598755 3.000015 -94.103203
v -5.598755 0.500015 -94.103203
v 12.400761 3.000014 -94.157288
v 12.400761 0.500014 -94.157288
v 13.403555 3.000014 -93.160660
v 13.403555 0.500013 -93.160660
v 13.636109 3.000002 -15.159493
v 13.636109 0.500002 -15.159494
v 13.383609 3.000001 -12.811199
v 13.383609 0.500001 -12.811199
v 12.652100 3.000001 -10.157916
v 12.652100 0.500001 -10.157917
v 6.803700 3.000000 -0.352165
v 6.803700 0.500000 -0.352165
v 5.309838 3.000000 1.653164
v 6.803700 -0.500000 -0.352165
v -11.293521 4.000000 6.912205
v 2.966387 4.000000 1.765023
v 3.316091 3.000000 2.660286
v 4.516173 4.000000 1.033365
v 5.309838 3.000000 1.653164
v 6.007045 4.000000 -0.866835
v 6.803700 3.000000 -0.352165
v 11.823403 4.000001 -10.465206
v 12.652100 3.000001 -10.157916
v 12.432208 4.000001 -12.886145
v 13.383609 3.000001 -12.811199
v 12.638920 4.000001 -15.155210
v 13.636109 3.000002 -15.159493
v 12.463129 4.000010 -72.906494
v 13.403555 3.000014 -93.160660
v 12.407015 4.000013 -92.157906
v 12.400761 3.000014 -94.157288
v 11.404167 4.000014 -93.154411
v -5.598755 3.000015 -94.103203
v -4.595905 4.000014 -93.106697
v -6.595293 3.000015 -93.100449
v -10.336484 -3.999998 -7.089201
v -9.647287 4.000002 -7.592005
v -9.647287 -3.999998 -7.592007
v -0.006376 3.996090 -0.617722
v -0.006376 -4.000000 -0.617723
v -0.003588 4.000000 0.126165
v -0.003589 -4.000000 0.126164
v -9.617567 4.000000 3.658103
v -9.617567 -4.000000 3.658102
v -10.303836 4.000000 2.911457
v -10.303836 -4.000000 2.911456
v -10.336484 4.000001 -7.089200
v -6.397976 3.000005 -27.100531
v -5.939635 4.000004 -23.723331
v -6.890649 3.000004 -23.989828
v -11.930756 4.000002 -10.635880
v -12.837001 3.000002 -10.893789
v -12.342140 4.000002 -9.082324
v -13.339312 3.000002 -9.077992
v -12.297449 4.000000 5.674682
v -13.295967 3.000000 5.879212
v -12.018597 4.000000 6.637586
v -12.706537 3.000000 7.223239
v -11.288983 3.000000 7.876009
v -5.939636 -3.999996 -23.723333
v -6.890649 -2.999996 -23.989830
v -11.930756 -3.999998 -10.635881
v -12.837001 -2.999998 -10.893790
v -12.342140 -3.999998 -9.082325
v -13.339312 -2.999998 -9.077993
v -12.297449 -4.000000 5.674681
v -13.295967 -3.000000 5.879211
v -12.018597 -4.000000 6.637585
v -12.706537 -3.000000 7.223238
v -11.288983 -3.000000 7.876009
v -6.397976 -2.999995 -27.100533
v -6.397976 -0.499995 -27.100533
v -6.890649 -2.999996 -23.989830
v -6.890649 -0.499996 -23.989830
v -12.837001 -2.999998 -10.893790
v -12.837001 -0.499998 -10.893789
v -13.339312 -2.999998 -9.077993
v -13.339312 3.000002 -9.077992
v 11.823403 4.000001 -10.465206
v 6.007045 4.000000 -0.866835
v -11.930756 4.000002 -10.635880
v -9.647287 4.000002 -7.592005
v -12.342140 4.000002 -9.082324
v -10.336484 4.000001 -7.089200
v -12.297449 4.000000 5.674682
v -10.303836 4.000000 2.911457
v -12.018597 4.000000 6.637586
v -11.293521 4.000000 6.912205
v 6.007045 -4.000000 -0.866836
v -11.930756 -3.999998 -10.635881
v -9.647287 -3.999998 -7.592007
v -12.342140 -3.999998 -9.082325
v -10.336484 -3.999998 -7.089201
v -12.297449 -4.000000 5.674681
v -10.303836 -4.000000 2.911456
v -12.018597 -4.000000 6.637585
v -11.293521 -4.000000 6.912204
v 13.636109 -0.499998 -15.159494
v 13.636109 -2.999998 -15.159494
v 13.383609 -0.499999 -12.811199
v 13.383609 -2.999999 -12.811200
v 12.652100 -0.499999 -10.157917
v 12.652100 -2.999999 -10.157917
v 6.803700 -3.000000 -0.352166
v 5.309838 -3.000000 1.653163
v 12.463129 -3.999990 -72.906494
v -5.399460 -3.999995 -27.101202
v 12.638920 -3.999998 -15.155210
v -5.939636 -3.999996 -23.723333
v 12.432208 -3.999999 -12.886146
v 11.823403 -3.999999 -10.465208
v 4.516173 -4.000000 1.033364
v -0.006376 -4.000000 -0.617723
v 2.966387 -4.000000 1.765022
v -0.003589 -4.000000 0.126164
v -9.617567 -4.000000 3.658102
v -6.595293 -2.999985 -93.100449
v -4.595905 -3.999985 -93.106705
v -5.598755 -2.999985 -94.103203
v 11.404167 -3.999986 -93.154411
v 12.400761 -2.999986 -94.157288
v 12.407015 -3.999987 -92.157906
v 13.403555 -2.999986 -93.160660
v 3.438208 -3.996078 -81.126656
v 4.936018 -3.999988 -81.535431
v 6.033396 -3.996078 -82.637772
v 6.431597 -3.996078 -84.136513
v -11.293521 -4.000000 6.912204
v 3.316090 -3.000000 2.660285
v 2.966387 -4.000000 1.765022
v 4.516173 -4.000000 1.033364
v -4.595905 4.000014 -93.106697
v 11.404167 4.000014 -93.154411
v -5.592503 4.000014 -92.103821
v 12.407015 4.000013 -92.157906
v 3.421732 3.996103 -87.129906
v 4.920511 3.996103 -86.731613
v 6.033396 3.996102 -82.637764
v 12.463129 4.000010 -72.906494
v 4.936018 4.000012 -81.535431
v -5.399460 4.000004 -27.101200
v 3.438208 3.996102 -81.126648
v 1.939428 4.000012 -81.524940
v 0.837126 4.000012 -82.622223
v -5.543249 4.000012 -75.850441
v 0.428438 4.000013 -84.120071
v 0.826632 4.000013 -85.618813
v 1.923922 4.000013 -86.721115
v -0.006376 3.996090 -0.617722
v 2.966387 4.000000 1.765023
v -0.003588 4.000000 0.126165
v -9.617567 4.000000 3.658103
v -6.397976 -2.999995 -27.100533
v -5.399460 -3.999995 -27.101202
v -5.543249 -3.999988 -75.850441
v -5.592503 -3.999986 -92.103821
v 4.516173 4.000000 1.033365
v -5.543249 4.000012 -75.850441
v -5.399460 4.000004 -27.101200
v -5.939635 4.000004 -23.723331
v 12.638920 4.000001 -15.155210
v 12.432208 4.000001 -12.886145
v -5.543249 -3.999988 -75.850441
v 0.428438 -3.999987 -84.120071
v -5.592503 -3.999986 -92.103821
v 0.826632 -3.999987 -85.618820
v 1.923922 -3.999987 -86.721123
v -13.295967 -3.000000 5.879211
v -13.295967 3.000000 5.879212
v -12.706537 3.000000 7.223239
v -6.595293 -2.999985 -93.100449
v -5.598755 -2.999985 -94.103203
v -6.595293 -0.499985 -93.100449
v -5.598755 -0.499985 -94.103203
v 12.400761 -2.999986 -94.157288
v 12.400761 -0.499986 -94.157288
v 13.403555 -2.999986 -93.160660
v 13.403555 -0.499986 -93.160660
v 5.309838 -3.000000 1.653163
v 6.007045 -4.000000 -0.866836
v -12.706537 -3.000000 7.223238
v -11.288983 -3.000000 7.876009
v -11.288983 3.000000 7.876009
v 3.316090 -3.000000 2.660285
v 3.316091 3.000000 2.660286
v 6.431597 3.996102 -84.136513
v 6.022812 3.996103 -85.634323
v 6.803700 -3.000000 -0.352166
v 11.823403 -3.999999 -10.465208
v 6.022812 -3.996077 -85.634323
v 12.407015 -3.999987 -92.157906
v 4.920511 -3.996077 -86.731613
v 3.421732 -3.996077 -87.129906
v 1.939428 -3.999988 -81.524948
v 0.837126 -3.999987 -82.622223
v -4.595905 -3.999985 -93.106705
v 11.404167 -3.999986 -93.154411
v -5.592503 4.000014 -92.103821
v 13.636109 -2.999998 -15.159494
v 12.463129 -3.999990 -72.906494
v 13.383609 -2.999999 -12.811200
v 12.638920 -3.999998 -15.155210
v 12.652100 -2.999999 -10.157917
v 12.432208 -3.999999 -12.886146
vt 0.818359 -0.280640
vt 0.914673 0.615479
vt 0.820679 0.907837
vt 0.848267 -0.166992
vt 0.833618 -0.301392
vt 0.853149 -0.201416
vt 0.978271 -0.301392
vt 0.951294 -0.201416
vt 0.987793 -0.287598
vt 0.990479 -0.251343
vt 0.848267 -0.166992
vt 0.818359 -0.280640
vt 0.914673 0.615479
vt 0.833618 -0.301392
vt 0.853149 -0.201416
vt 0.978271 -0.301392
vt 0.951294 -0.201416
vt 0.987793 -0.287598
vt 0.990479 -0.251343
vt 0.774780 0.949219
vt 0.656982 0.048828
vt 0.208374 0.949219
vt 0.690186 0.021240
vt 0.796997 0.938599
vt 0.820679 0.907837
vt 0.940430 0.462891
vt 0.916870 0.314575
vt 0.933350 0.540649
vt 0.924316 0.314575
vt 0.958618 -0.166992
vt 0.123535 0.574097
vt 0.127441 0.499023
vt 0.112671 0.629028
vt 0.098022 0.649048
vt 0.019531 0.048828
vt 0.009766 0.899170
vt 0.009766 0.098755
vt 0.019531 0.949219
vt 0.068604 0.499023
vt 0.072510 0.574097
vt 0.123535 0.574097
vt 0.208374 0.949219
vt 0.112671 0.629028
vt 0.656982 0.048828
vt 0.127441 0.499023
vt 0.123535 0.423950
vt 0.098022 0.348877
vt 0.178955 0.048828
vt 0.112671 0.369019
vt 0.083252 0.369019
vt 0.072510 0.423950
vt 0.924316 0.314575
vt 0.940430 0.462891
vt 0.916870 0.314575
vt 0.958618 -0.166992
vt 0.933350 0.540649
vt 0.774780 0.949219
vt 0.690186 0.021240
vt 0.796997 0.938599
vt 0.019531 0.048828
vt 0.098022 0.348877
vt 0.178955 0.048828
vt 0.083252 0.369019
vt 0.072510 0.423950
vt 0.098022 0.649048
vt 0.083252 0.629028
vt 0.072510 0.574097
vt 0.019531 0.949219
vt 0.083252 0.629028
vt 0.068604 0.499023
vt 0.123535 0.423950
vt 0.112671 0.369019
vt 0.009766 0.899170
vt 0.009766 0.098755
vt 0.687500 -0.026367
vt 0.815796 -0.325928
vt 0.815796 -0.325928
vt 0.687500 -0.026367
vt 0.656982 -0.001221
vt 0.656982 -0.001221
vt 0.009766 -0.001221
vt 0.009766 -0.001221
vt 0.000000 0.048828
vt 0.000000 0.048828
vt 0.000000 0.949219
vt 0.000000 0.949219
vt 0.009766 0.999268
vt 0.009766 0.999268
vt 0.774780 0.999268
vt 0.774780 0.999268
vt 0.797729 0.986206
vt 0.797729 0.986206
vt 0.823730 0.949219
vt 0.823730 0.949219
vt 0.919800 0.655273
vt 0.919800 0.655273
vt 0.939453 0.580322
vt 0.919800 0.655273
vt 0.949219 0.480225
vt 0.940430 0.462891
vt 0.990479 -0.251343
vt 0.933350 0.540649
vt 0.939453 0.580322
vt 0.914673 0.615479
vt 0.919800 0.655273
vt 0.820679 0.907837
vt 0.823730 0.949219
vt 0.796997 0.938599
vt 0.797729 0.986206
vt 0.774780 0.949219
vt 0.774780 0.999268
vt 0.208374 0.949219
vt 0.009766 0.999268
vt 0.019531 0.949219
vt 0.000000 0.949219
vt 0.009766 0.899170
vt 0.000000 0.048828
vt 0.009766 0.098755
vt 0.009766 -0.001221
vt 0.848267 -0.166992
vt 0.848267 -0.166992
vt 0.853149 -0.201416
vt 0.916870 0.314575
vt 0.916870 0.314575
vt 0.924316 0.314575
vt 0.924316 0.314575
vt 0.958618 -0.166992
vt 0.958618 -0.166992
vt 0.951294 -0.201416
vt 0.951294 -0.201416
vt 0.853149 -0.201416
vt 0.687500 -0.026367
vt 0.690186 0.021240
vt 0.656982 -0.001221
vt 0.818359 -0.280640
vt 0.815796 -0.325928
vt 0.833618 -0.301392
vt 0.833618 -0.351440
vt 0.978271 -0.301392
vt 0.980347 -0.351440
vt 0.987793 -0.287598
vt 0.993530 -0.322144
vt 1.000000 -0.251343
vt 0.818359 -0.280640
vt 0.687500 -0.026367
vt 0.690186 0.021240
vt 0.815796 -0.325928
vt 0.833618 -0.301392
vt 0.833618 -0.351440
vt 0.978271 -0.301392
vt 0.980347 -0.351440
vt 0.987793 -0.287598
vt 0.993530 -0.322144
vt 1.000000 -0.251343
vt 0.687500 -0.026367
vt 0.656982 -0.001221
vt 0.656982 -0.001221
vt 0.687500 -0.026367
vt 0.815796 -0.325928
vt 0.815796 -0.325928
vt 0.833618 -0.351440
vt 0.833618 -0.351440
vt 0.797729 0.986206
vt 0.774780 0.999268
vt 0.774780 0.999268
vt 0.797729 0.986206
vt 0.823730 0.949219
vt 0.823730 0.949219
vt 0.919800 0.655273
vt 0.939453 0.580322
vt 0.000000 0.048828
vt 0.009766 0.098755
vt 0.009766 -0.001221
vt 0.009766 0.899170
vt 0.000000 0.949219
vt 0.019531 0.949219
vt 0.009766 0.999268
vt 0.990479 -0.251343
vt 0.949219 0.480225
vt 0.940430 0.462891
vt 0.933350 0.540649
vt 0.656982 -0.001221
vt 0.656982 0.048828
vt 0.178955 0.048828
vt 0.019531 0.048828
vt 0.178955 0.048828
vt 0.656982 0.048828
vt 0.980347 -0.351440
vt 0.980347 -0.351440
vt 0.993530 -0.322144
vt 0.009766 -0.001221
vt 0.000000 0.048828
vt 0.009766 -0.001221
vt 0.000000 0.048828
vt 0.000000 0.949219
vt 0.000000 0.949219
vt 0.009766 0.999268
vt 0.009766 0.999268
vt 0.939453 0.580322
vt 0.914673 0.615479
vt 0.993530 -0.322144
vt 1.000000 -0.251343
vt 1.000000 -0.251343
vt 0.949219 0.480225
vt 0.949219 0.480225
vt 0.919800 0.655273
vt 0.820679 0.907837
vt 0.019531 0.048828
vt 0.208374 0.949219
vt 0.774780 0.999268
vt 0.774780 0.949219
vt 0.797729 0.986206
vt 0.796997 0.938599
vt 0.823730 0.949219
vn 0.0000 1.0000 0.0000
vn -0.0000 -1.0000 0.0000
vn -0.0028 -1.0000 -0.0005
vn 0.0019 -1.0000 -0.0017
vn -0.0004 -1.0000 -0.0001
vn 0.0000 1.0000 0.0008
vn -0.0001 1.0000 0.0005
vn 0.0019 1.0000 -0.0017
vn -0.0028 1.0000 -0.0005
vn 0.0025 1.0000 0.0003
vn 0.0029 1.0000 -0.0053
vn -0.0006 1.0000 0.0014
vn -0.0007 1.0000 -0.0005
vn -0.0005 1.0000 -0.0010
vn -0.0007 1.0000 0.0000
vn -0.0004 1.0000 -0.0001
vn -0.0003 1.0000 0.0003
vn -0.0005 1.0000 0.0001
vn -0.0003 -1.0000 0.0003
vn -0.0001 -1.0000 0.0005
vn -0.0007 -1.0000 0.0000
vn -0.0005 -1.0000 0.0001
vn 0.0025 -1.0000 0.0003
vn 0.0019 -1.0000 -0.0026
vn 0.0000 -1.0000 0.0008
vn 0.0019 1.0000 -0.0026
vn -0.9578 0.0000 -0.2875
vn -0.9486 0.0000 -0.3164
vn -0.9400 0.0000 -0.3410
vn -0.9970 0.0000 -0.0769
vn -0.9250 0.0000 -0.3799
vn -0.3855 0.0000 -0.9227
vn 0.3799 0.0000 -0.9250
vn 0.9227 0.0000 -0.3855
vn 0.9227 0.0000 -0.3854
vn 0.9986 0.0000 0.0520
vn 0.9824 0.0000 0.1870
vn 0.9197 0.0000 0.3925
vn 0.8315 0.0000 0.5555
vn 0.8219 0.0000 0.5697
vn 0.6435 0.0000 0.7654
vn 0.2817 0.6885 0.6683
vn 0.2769 0.6929 0.6657
vn -0.0088 0.6944 0.7195
vn 0.4342 0.7024 0.5639
vn 0.4665 0.6985 0.5427
vn 0.5971 0.6919 0.4059
vn 0.6031 0.6869 0.4054
vn 0.6909 0.6631 0.2879
vn 0.6890 0.6658 0.2861
vn 0.7168 0.6849 0.1309
vn 0.7112 0.6911 0.1287
vn 0.7101 0.7032 0.0360
vn 0.7077 0.7056 0.0359
vn 0.7068 0.7074 -0.0021
vn 0.5378 0.8007 -0.2639
vn 0.6017 0.7785 -0.1784
vn 0.2606 0.8007 -0.5394
vn 0.1747 0.7786 -0.6027
vn -0.2640 0.8007 -0.5378
vn -0.1784 0.7785 -0.6017
vn -0.5394 0.8007 -0.2606
vn 0.0020 0.0000 1.0000
vn 0.0021 0.0000 1.0000
vn 0.8922 0.0000 0.4516
vn -0.8900 0.0000 0.4559
vn -0.8897 0.0000 0.4566
vn -0.8204 0.0000 -0.5718
vn -0.8211 0.0000 -0.5708
vn 0.2355 0.0000 -0.9719
vn 0.9311 0.0000 -0.3647
vn -0.6814 0.7021 -0.2066
vn -0.6811 0.7028 -0.2049
vn -0.7067 0.7052 -0.0571
vn -0.6852 0.6854 -0.2463
vn -0.6847 0.6866 -0.2444
vn -0.7064 0.7007 -0.0997
vn -0.7054 0.7031 -0.0891
vn -0.6944 0.7131 0.0966
vn -0.7027 0.6993 0.1313
vn -0.5108 0.6989 0.5005
vn -0.5345 0.6697 0.5156
vn -0.0208 0.6866 0.7267
vn -0.6852 -0.6854 -0.2463
vn -0.6814 -0.7021 -0.2066
vn -0.6811 -0.7028 -0.2049
vn -0.6847 -0.6866 -0.2444
vn -0.7064 -0.7007 -0.0997
vn -0.7054 -0.7031 -0.0891
vn -0.6944 -0.7131 0.0966
vn -0.7027 -0.6993 0.1313
vn -0.5108 -0.6989 0.5005
vn -0.5345 -0.6697 0.5156
vn -0.0208 -0.6866 0.7267
vn -0.9911 0.0000 -0.1331
vn -0.2640 -0.8007 -0.5378
vn -0.1784 -0.7785 -0.6017
vn -0.5394 -0.8007 -0.2606
vn 0.1747 -0.7786 -0.6027
vn 0.2606 -0.8007 -0.5394
vn 0.6017 -0.7785 -0.1784
vn 0.5378 -0.8007 -0.2639
vn -0.0088 -0.6944 0.7195
vn 0.2817 -0.6885 0.6683
vn 0.2769 -0.6929 0.6657
vn 0.4342 -0.7024 0.5639
vn -0.7067 -0.7052 -0.0571
vn -0.7066 -0.7056 -0.0532
vn -0.7069 -0.7072 0.0021
vn -0.6027 -0.7786 -0.1747
vn -0.7069 0.7072 0.0021
vn -0.7066 0.7056 -0.0532
vn -0.9784 0.0000 0.2066
vn -0.7135 0.0000 0.7006
vn -0.9250 0.0000 -0.3798
vn 0.4665 -0.6985 0.5427
vn 0.5971 -0.6919 0.4059
vn -0.0443 0.0000 0.9990
vn 0.3944 0.0000 0.9189
vn 0.6031 -0.6869 0.4054
vn 0.6909 -0.6631 0.2879
vn -0.6027 0.7786 -0.1747
vn 0.7068 -0.7074 -0.0021
vn 0.7077 -0.7056 0.0359
vn 0.7101 -0.7032 0.0360
vn 0.7112 -0.6911 0.1287
vn 0.7168 -0.6849 0.1309
vn 0.6890 -0.6658 0.2861
usemtl m0plastic_mat_v
s off
f 91/1/1 90/2/1 89/3/1
f 91/1/1 92/4/1 90/2/1
f 93/5/1 92/4/1 91/1/1
f 93/5/1 94/6/1 92/4/1
f 95/7/1 94/6/1 93/5/1
f 95/7/1 96/8/1 94/6/1
f 97/9/1 96/8/1 95/7/1
f 97/9/1 98/10/1 96/8/1
f 101/11/2 100/12/2 99/13/2
f 101/11/2 102/14/2 100/12/2
f 103/15/2 102/14/2 101/11/2
f 103/15/2 104/16/2 102/14/2
f 105/17/2 104/16/2 103/15/2
f 105/17/2 106/18/2 104/16/2
f 107/19/2 106/18/2 105/17/2
f 118/20/2 117/21/2 116/22/2
f 118/20/2 119/23/2 117/21/2
f 120/24/2 119/23/2 118/20/2
f 120/24/2 100/12/2 119/23/2
f 121/25/2 100/12/2 120/24/2
f 121/25/2 99/13/2 100/12/2
f 124/26/2 123/27/2 122/28/2
f 124/26/2 125/29/2 123/27/2
f 107/19/2 125/29/2 124/26/2
f 107/19/2 126/30/2 125/29/2
f 105/17/2 126/30/2 107/19/2
f 135/31/3 117/21/3 134/32/3
f 135/31/2 116/22/2 117/21/2
f 136/33/4 116/22/4 135/31/4
f 136/33/5 137/34/5 116/22/5
f 144/35/1 143/36/1 142/37/1
f 144/35/1 145/38/1 143/36/1
f 146/39/6 145/38/6 144/35/6
f 146/39/7 147/40/7 145/38/7
f 150/41/8 149/42/8 148/43/8
f 150/41/1 151/44/1 149/42/1
f 152/45/9 151/44/9 150/41/9
f 152/45/10 153/46/10 151/44/10
f 156/47/1 155/48/1 154/49/1
f 156/47/1 144/35/1 155/48/1
f 157/50/1 144/35/1 156/47/1
f 157/50/1 158/51/1 144/35/1
f 161/52/11 160/53/11 159/54/11
f 161/52/1 98/10/1 160/53/1
f 162/55/1 98/10/1 161/52/1
f 162/55/1 96/8/1 98/10/1
f 159/54/12 90/2/12 92/4/12
f 159/54/13 167/56/13 90/2/13
f 160/53/14 167/56/14 159/54/14
f 91/1/1 171/57/1 170/58/1
f 91/1/1 172/59/1 171/57/1
f 89/3/1 172/59/1 91/1/1
f 175/60/2 174/61/2 173/62/2
f 175/60/2 176/63/2 174/61/2
f 177/64/2 176/63/2 175/60/2
f 153/46/1 155/48/1 151/44/1
f 153/46/1 154/49/1 155/48/1
f 196/65/15 149/42/15 145/38/15
f 196/65/16 148/43/16 149/42/16
f 197/66/17 145/38/17 147/40/17
f 197/66/18 196/65/18 145/38/18
f 99/13/2 123/27/2 101/11/2
f 99/13/2 122/28/2 123/27/2
f 202/67/19 201/68/19 200/69/19
f 202/67/20 203/70/20 201/68/20
f 137/34/21 201/68/21 116/22/21
f 137/34/22 200/69/22 201/68/22
f 151/44/1 171/57/1 149/42/1
f 151/44/1 170/58/1 171/57/1
f 204/71/2 117/21/2 173/62/2
f 204/71/23 134/32/23 117/21/23
f 175/60/24 203/70/24 177/64/24
f 175/60/25 201/68/25 203/70/25
f 205/72/2 173/62/2 174/61/2
f 205/72/2 204/71/2 173/62/2
f 207/73/2 175/60/2 206/74/2
f 207/73/2 201/68/2 175/60/2
f 146/39/26 144/35/26 158/51/26
s 1
f 3/75/27 2/76/28 1/77/29
f 3/75/27 4/78/27 2/76/28
f 5/79/30 4/78/27 3/75/27
f 5/79/30 6/80/30 4/78/27
f 7/81/31 6/80/30 5/79/30
f 7/81/31 8/82/31 6/80/30
f 9/83/32 8/82/31 7/81/31
f 9/83/32 10/84/32 8/82/31
f 11/85/33 10/84/32 9/83/32
f 11/85/33 12/86/33 10/84/32
f 13/87/34 12/86/33 11/85/33
f 13/87/34 14/88/35 12/86/33
f 15/89/36 14/88/35 13/87/34
f 15/89/36 16/90/36 14/88/35
f 17/91/37 16/90/36 15/89/36
f 17/91/37 18/92/37 16/90/36
f 19/93/38 18/92/37 17/91/37
f 19/93/38 20/94/38 18/92/37
f 21/95/39 20/94/38 19/93/38
f 21/95/39 22/96/40 20/94/38
f 23/97/41 22/96/40 21/95/39
f 23/97/41 24/98/40 22/96/40
f 27/99/42 26/100/43 25/101/44
f 27/99/42 28/102/45 26/100/43
f 29/103/46 28/102/45 27/99/42
f 29/103/46 30/104/47 28/102/45
f 31/105/48 30/104/47 29/103/46
f 31/105/48 32/106/49 30/104/47
f 33/107/50 32/106/49 31/105/48
f 33/107/50 34/108/51 32/106/49
f 35/109/52 34/108/51 33/107/50
f 35/109/52 36/110/53 34/108/51
f 37/111/54 36/110/53 35/109/52
f 37/111/54 38/112/55 36/110/53
f 39/113/56 38/112/55 37/111/54
f 39/113/56 40/114/57 38/112/55
f 41/115/58 40/114/57 39/113/56
f 41/115/58 42/116/59 40/114/57
f 43/117/60 42/116/59 41/115/58
f 43/117/60 44/118/61 42/116/59
f 45/119/62 44/118/61 43/117/60
f 48/120/63 47/121/64 46/122/65
f 48/120/63 49/123/66 47/121/64
f 50/124/67 49/123/66 48/120/63
f 50/124/67 51/125/68 49/123/66
f 52/126/69 51/125/68 50/124/67
f 52/126/69 53/127/70 51/125/68
f 54/128/70 53/127/70 52/126/69
f 54/128/70 55/129/71 53/127/70
f 56/130/71 55/129/71 54/128/70
f 56/130/71 57/131/65 55/129/71
f 46/122/65 57/131/65 56/130/71
f 46/122/65 47/121/64 57/131/65
f 60/132/72 59/133/73 58/134/74
f 60/132/72 61/135/75 59/133/73
f 62/136/76 61/135/75 60/132/72
f 62/136/76 63/137/77 61/135/75
f 64/138/78 63/137/77 62/136/76
f 64/138/78 65/139/79 63/137/77
f 66/140/80 65/139/79 64/138/78
f 66/140/80 67/141/81 65/139/79
f 68/142/82 67/141/81 66/140/80
f 68/142/82 69/143/83 67/141/81
f 72/144/84 71/145/85 70/146/86
f 72/144/84 73/147/87 71/145/85
f 74/148/88 73/147/87 72/144/84
f 74/148/88 75/149/89 73/147/87
f 76/150/90 75/149/89 74/148/88
f 76/150/90 77/151/91 75/149/89
f 78/152/92 77/151/91 76/150/90
f 78/152/92 79/153/93 77/151/91
f 80/154/94 79/153/93 78/152/92
f 83/155/27 82/156/30 81/157/30
f 83/155/27 84/158/27 82/156/30
f 85/159/29 84/158/27 83/155/27
f 85/159/29 86/160/28 84/158/27
f 87/161/95 86/160/28 85/159/29
f 87/161/95 2/76/28 86/160/28
f 88/162/95 2/76/28 87/161/95
f 88/162/95 1/77/29 2/76/28
f 110/163/37 109/164/36 108/165/36
f 110/163/37 111/166/37 109/164/36
f 112/167/38 111/166/37 110/163/37
f 112/167/38 113/168/38 111/166/37
f 24/98/40 113/168/38 112/167/38
f 24/98/40 114/169/39 113/168/38
f 115/170/41 114/169/39 24/98/40
f 129/171/96 128/172/97 127/173/98
f 129/171/96 130/174/99 128/172/97
f 131/175/100 130/174/99 129/171/96
f 131/175/100 132/176/101 130/174/99
f 133/177/102 132/176/101 131/175/100
f 138/178/103 80/154/94 78/152/92
f 138/178/103 139/179/104 80/154/94
f 140/180/105 139/179/104 138/178/103
f 140/180/105 141/181/106 139/179/104
f 163/182/107 70/146/86 71/145/85
f 163/182/107 164/183/108 70/146/86
f 165/184/109 164/183/108 163/182/107
f 127/173/98 165/184/109 163/182/107
f 127/173/98 166/185/110 165/184/109
f 128/172/97 166/185/110 127/173/98
f 58/134/74 168/186/111 45/119/62
f 58/134/74 169/187/112 168/186/111
f 59/133/73 169/187/112 58/134/74
f 178/188/113 88/162/95 87/161/95
f 178/188/113 179/189/113 88/162/95
f 180/190/114 179/189/113 178/188/113
f 183/191/115 182/192/32 181/193/31
f 183/191/115 184/194/32 182/192/32
f 184/194/32 185/195/33 182/192/32
f 184/194/32 186/196/33 185/195/33
f 186/196/33 187/197/34 185/195/33
f 186/196/33 188/198/34 187/197/34
f 188/198/34 109/164/36 187/197/34
f 188/198/34 108/165/36 109/164/36
f 141/181/106 189/199/116 139/179/104
f 141/181/106 190/200/117 189/199/116
f 191/201/114 180/190/114 178/188/113
f 191/201/114 192/202/118 180/190/114
f 192/202/118 193/203/118 180/190/114
f 192/202/118 194/204/119 193/203/118
f 194/204/119 195/205/119 193/203/118
f 194/204/119 115/170/41 195/205/119
f 115/170/41 23/97/41 195/205/119
f 115/170/41 24/98/40 23/97/41
f 82/156/30 181/193/31 81/157/30
f 82/156/30 183/191/115 181/193/31
f 190/200/117 198/206/120 189/199/116
f 190/200/117 199/207/121 198/206/120
f 69/143/83 25/101/44 67/141/81
f 69/143/83 27/99/42 25/101/44
f 208/208/122 45/119/62 168/186/111
f 208/208/122 44/118/61 45/119/62
f 210/209/123 133/177/102 209/210/124
f 210/209/123 132/176/101 133/177/102
f 212/211/125 209/210/124 211/212/126
f 212/211/125 210/209/123 209/210/124
f 214/213/127 211/212/126 213/214/128
f 214/213/127 212/211/125 211/212/126
f 199/207/121 213/214/128 198/206/120
f 199/207/121 214/213/127 213/214/128
