# Blender v3.0.0 OBJ File: ''
# www.blender.org
mtllib slicer_metal.mtl
o mesh-0_meshId0_name.002
v 4.920511 3.996103 -86.731613
v 3.421732 -3.996077 -87.129906
v 3.421732 3.996103 -87.129906
v 1.923922 -3.999987 -86.721123
v 1.923922 4.000013 -86.721115
v 0.826632 -3.999987 -85.618820
v 0.826632 4.000013 -85.618813
v 0.428438 -3.999987 -84.120071
v 0.428438 4.000013 -84.120071
v 0.837126 -3.999987 -82.622223
v 0.837126 4.000012 -82.622223
v 1.939428 -3.999988 -81.524948
v 1.939428 4.000012 -81.524940
v 3.438208 -3.996078 -81.126656
v 3.438208 3.996102 -81.126648
v 4.936018 -3.999988 -81.535431
v 4.936018 4.000012 -81.535431
v 6.033396 -3.996078 -82.637772
v 6.033396 3.996102 -82.637764
v 6.431597 -3.996078 -84.136513
v 6.431597 3.996102 -84.136513
v 6.022812 -3.996077 -85.634323
v 6.022812 3.996103 -85.634323
v 4.920511 -3.996077 -86.731613
v -8.727612 0.500020 -129.092773
v -10.705727 -0.499980 -129.085175
v -5.208893 0.500020 -131.001236
v -5.208893 -0.499980 -131.001236
v -0.437454 0.500020 -130.394394
v -0.437454 -0.499980 -130.394394
v 4.579262 0.500019 -127.817284
v 4.579262 -0.499981 -127.817284
v 8.499069 0.500018 -123.502319
v 8.499069 -0.499982 -123.502319
v 11.118523 0.500018 -119.113411
v 11.118523 -0.499982 -119.113411
v 12.342911 -0.499983 -113.300034
v -8.727612 0.500020 -129.092773
v -5.208893 0.500020 -131.001236
v -5.206100 0.500020 -127.935120
v -0.437454 0.500020 -130.394394
v -0.996010 0.500019 -124.812386
v 4.579262 0.500019 -127.817284
v 1.523411 0.500018 -120.786232
v 8.499069 0.500018 -123.502319
v 3.032127 0.500017 -115.263756
v 11.118523 0.500018 -119.113411
v 12.342911 0.500017 -113.300034
v -5.598755 -0.499985 -94.103203
v -5.598755 0.500015 -94.103203
v -6.595293 -0.499985 -93.100449
v -6.595293 0.500015 -93.100449
v -6.397976 -0.499995 -27.100533
v -6.397976 0.500005 -27.100533
v -6.890649 -0.499996 -23.989830
v -6.890649 0.500004 -23.989830
v -12.837001 -0.499998 -10.893789
v -12.837001 0.500002 -10.893789
v -6.647438 -0.499983 -110.097984
v -8.639921 -0.499983 -107.093605
v -6.082891 -0.499983 -106.397682
v -8.625362 -0.499984 -102.092560
v -4.383202 -0.499984 -104.104652
v -5.598755 -0.499985 -94.103203
v -1.626957 -0.499984 -103.115547
v 12.400761 -0.499986 -94.157288
v 1.319530 -0.499984 -104.123116
v 2.359306 -0.499984 -107.126816
v -6.647438 -0.499983 -110.097984
v -6.647438 0.500017 -110.097984
v -8.639921 -0.499983 -107.093605
v -8.639921 0.500017 -107.093605
v -8.625362 -0.499984 -102.092560
v -8.625362 0.500016 -102.092560
v -5.598755 -0.499985 -94.103203
v -5.598755 0.500015 -94.103203
v 6.803700 -0.500000 -0.352165
v 6.803700 0.500000 -0.352165
v 12.652100 -0.499999 -10.157917
v 12.652100 0.500001 -10.157917
v 13.383609 -0.499999 -12.811199
v 13.383609 0.500001 -12.811199
v 13.636109 -0.499998 -15.159494
v -10.705727 -0.499980 -129.085175
v -8.727612 0.500020 -129.092773
v -5.698704 -0.499980 -127.101089
v -5.206100 0.500020 -127.935120
v -1.687939 -0.499981 -124.112885
v -0.996010 0.500019 -124.812386
v 1.523411 0.500018 -120.786232
v 3.361519 0.500016 -107.128738
v 12.400761 0.500014 -94.157288
v 1.319530 0.500016 -104.123116
v -1.626957 0.500016 -103.115547
v 3.032127 0.500017 -115.263756
v 2.055035 -0.499983 -115.125320
v 3.361519 0.500016 -107.128738
v 2.359306 -0.499984 -107.126816
v 1.319530 0.500016 -104.123116
v -0.128920 2.000013 -87.664803
v 6.966459 2.000013 -87.687256
v 3.430000 3.175792 -84.128334
v 6.988953 2.000012 -80.591782
v -0.106558 2.000012 -80.569389
v 6.966459 -1.999987 -87.687256
v -0.128920 -1.999987 -87.664803
v 3.430000 -3.175767 -84.128334
v -0.106558 -1.999988 -80.569389
v 6.988953 -1.999988 -80.591782
v 12.400761 0.500014 -94.157288
v 12.400761 -0.499986 -94.157288
v 13.403555 0.500013 -93.160660
v 13.403555 -0.499986 -93.160660
v 11.118523 -0.499982 -119.113411
v 2.055035 -0.499983 -115.125320
v 12.342911 -0.499983 -113.300034
v 13.636109 0.500002 -15.159494
v -6.647438 0.500017 -110.097984
v -6.082891 0.500017 -106.397682
v -8.639921 0.500017 -107.093605
v -8.625362 0.500016 -102.092560
v -4.383202 0.500016 -104.104652
v -5.598755 0.500015 -94.103203
v -10.705727 -0.499980 -129.085175
v -5.698704 -0.499980 -127.101089
v -5.208893 -0.499980 -131.001236
v -0.437454 -0.499980 -130.394394
v -4.383202 0.500016 -104.104652
v -6.082891 0.500017 -106.397682
v -6.082891 -0.499983 -106.397682
v -6.647438 -0.499983 -110.097984
v -1.626957 0.500016 -103.115547
v -4.383202 -0.499984 -104.104652
v 1.319530 0.500016 -104.123116
v -1.626957 -0.499984 -103.115547
v 2.359306 -0.499984 -107.126816
v 1.319530 -0.499984 -104.123116
v -1.687939 -0.499981 -124.112885
v 4.579262 -0.499981 -127.817284
v 0.569870 -0.499982 -120.368805
v 0.569870 -0.499982 -120.368805
v 8.499069 -0.499982 -123.502319
v 12.342911 0.500017 -113.300034
v 12.400761 0.500014 -94.157288
v -6.647438 0.500017 -110.097984
v 12.400761 -0.499986 -94.157288
vt 0.066895 0.056152
vt -0.099121 0.056641
vt 0.003662 -0.092041
vt -0.065552 0.257690
vt 0.236816 0.233398
vt 0.074829 0.468750
vt 0.455566 0.338989
vt 0.309448 0.633545
vt 0.755127 0.401978
vt 0.547852 0.743530
vt 0.863037 0.794189
vt 1.234250 0.016602
vt 1.196170 -0.091064
vt 1.033450 -0.006836
vt 1.467160 -0.091064
vt 1.358760 0.088013
vt 1.900760 0.035400
vt 1.412960 0.203979
vt 1.900760 0.794189
vt 1.358760 0.328369
vt 1.196170 0.372681
vt 1.196170 0.414795
vt 1.900760 0.794189
vt 1.358760 0.328369
vt 1.412960 0.203979
vt 0.863037 0.794189
vt 0.762451 0.360718
vt 0.547852 0.743530
vt 1.196170 -0.091064
vt 1.234250 0.016602
vt 1.033450 -0.006836
vt 1.467160 -0.091064
vt 1.358760 0.088013
vt 1.900760 0.035400
vt -0.099121 0.056641
vt 0.112061 0.035400
vt 0.003662 -0.175415
vt -0.065552 0.257690
vt 0.274658 0.203979
vt 0.074829 0.468750
vt 0.478027 0.298706
vt 0.309448 0.633545
vt 0.870117 0.549561
vt 0.870117 0.549561
vt 0.878052 0.579346
vt 0.878052 0.519897
vt 0.878052 0.519897
vt 0.899902 0.498169
vt 0.899902 0.498169
vt 0.929565 0.490112
vt 0.929565 0.490112
vt 0.959351 0.498169
vt 0.959351 0.498169
vt 0.981079 0.519897
vt 0.981079 0.519897
vt 0.989014 0.549561
vt 0.989014 0.549561
vt 0.981079 0.579346
vt 0.981079 0.579346
vt 0.959351 0.601074
vt 0.959351 0.601074
vt 0.929565 0.609131
vt 0.929565 0.609131
vt 0.899902 0.601074
vt 0.899902 0.601074
vt 0.878052 0.579346
vt -0.099121 0.056641
vt 0.003662 -0.175415
vt 0.003662 -0.092041
vt -0.099121 0.056641
vt -0.065552 0.257690
vt -0.065552 0.257690
vt 0.074829 0.468750
vt 0.074829 0.468750
vt 0.309448 0.633545
vt 0.309448 0.633545
vt 0.547852 0.743530
vt 0.547852 0.743530
vt 0.863037 0.794189
vt -1.457280 0.428345
vt -1.500000 0.571777
vt -1.500000 0.428345
vt -1.457280 0.571777
vt 1.357300 0.428345
vt 1.357300 0.571777
vt 1.489870 0.428345
vt 1.489870 0.571777
vt 2.047730 0.428345
vt 2.047730 0.571777
vt 1.196170 -0.091064
vt 1.033450 -0.006836
vt 1.033450 -0.006836
vt 1.196170 -0.091064
vt 1.467160 -0.091064
vt 1.467160 -0.091064
vt 1.900760 0.035400
vt 1.900760 0.035400
vt 2.082400 0.428345
vt 2.500000 0.571777
vt 2.500000 0.428345
vt 2.082400 0.571777
vt 1.969240 0.428345
vt 1.969240 0.571777
vt 1.869140 0.428345
vt 0.112061 0.035400
vt 0.003662 -0.092041
vt 0.003662 -0.175415
vt 0.066895 0.056152
vt 0.274658 0.203979
vt 0.236816 0.233398
vt 0.455566 0.338989
vt 0.762451 0.360718
vt 0.755127 0.401978
vt 1.196170 0.414795
vt 1.196170 0.372681
vt 1.358760 0.328369
vt 0.500000 0.705322
vt 0.156006 0.787354
vt 0.417969 0.361450
vt 0.581909 1.049190
vt 0.843872 0.623413
vt 0.500000 0.705322
vt 0.417969 0.361450
vt 0.156006 0.787354
vt 0.843872 0.623413
vt 0.581909 1.049190
vt -1.457280 0.571777
vt -1.500000 0.428345
vt -1.500000 0.571777
vt -1.457280 0.428345
vt 1.869140 0.571777
vt 1.234250 0.016602
vt 1.234250 0.016602
vt 1.358760 0.088013
vt 1.033450 -0.006836
vt 1.358760 0.088013
vt 1.412960 0.203979
vt 1.412960 0.203979
vt 1.358760 0.328369
vt 1.358760 0.328369
vt 1.196170 0.372681
vt 0.478027 0.298706
vt 0.863037 0.794189
vt 1.900760 0.794189
vt 1.033450 -0.006836
vt 1.900760 0.794189
vn 0.0000 1.0000 0.0000
vn -0.0000 -1.0000 -0.0000
vn 0.0035 0.0000 1.0000
vn -0.4981 0.0000 0.8671
vn 0.5032 0.0000 0.8642
vn 0.8671 0.0000 0.4981
vn 1.0000 0.0000 -0.0033
vn 0.8643 0.0000 -0.5029
vn 0.4983 0.0000 -0.8670
vn -0.0033 0.0000 -1.0000
vn -0.5030 0.0000 -0.8643
vn -0.8670 0.0000 -0.4983
vn -1.0000 0.0000 0.0034
vn -0.8643 0.0000 0.5030
vn -0.1127 0.0524 -0.9922
vn -0.3639 0.5209 -0.7721
vn -0.3480 0.6835 -0.6416
vn -0.1043 0.0000 -0.9945
vn 0.2960 0.0000 -0.9552
vn 0.6083 0.0000 -0.7937
vn 0.8034 0.0000 -0.5954
vn 0.9313 0.0000 -0.3642
vn 0.9944 0.0000 -0.1051
vn -0.9250 0.0000 -0.3799
vn -0.7093 0.0000 -0.7049
vn -0.9970 0.0000 -0.0769
vn -0.9578 0.0000 -0.2875
vn -0.9105 0.0000 -0.4134
vn -0.9579 0.0000 -0.2872
vn -0.8334 0.0000 -0.5527
vn -0.9834 0.0000 0.1815
vn -0.9351 0.0000 0.3543
vn 0.9197 0.0000 0.3925
vn 0.8588 0.0000 0.5122
vn 0.9824 0.0000 0.1870
vn 0.9986 0.0000 0.0520
vn -0.3370 0.6858 0.6450
vn -0.2869 0.6070 0.7411
vn -0.2967 0.5926 0.7488
vn -0.3332 0.6956 0.6364
vn -0.5251 0.7031 0.4795
vn -0.5221 0.7010 0.4857
vn -0.6391 0.7171 0.2781
vn -0.7015 0.7042 0.1095
vn -0.7035 0.7024 0.1085
vn -0.6960 0.6963 -0.1751
vn -0.6911 0.6922 -0.2077
vn -0.6371 0.6377 -0.4328
vn 0.1608 0.9736 -0.1618
vn -0.1618 0.9736 -0.1608
vn 0.1618 0.9736 0.1608
vn -0.1608 0.9736 0.1618
vn -0.1618 -0.9736 -0.1608
vn 0.1608 -0.9736 -0.1618
vn -0.1608 -0.9736 0.1618
vn 0.1618 -0.9736 0.1608
vn 0.9227 0.0000 -0.3855
vn 0.7049 0.0000 -0.7093
vn 0.9231 0.0000 -0.3845
vn 0.9231 0.0000 -0.3844
vn 0.5962 0.0000 -0.8029
vn 0.9886 0.0000 -0.1508
vn 0.5961 0.0000 -0.8029
vn 0.0075 0.0000 -1.0000
vn -0.6677 0.0000 -0.7444
vn -0.7058 0.0000 -0.7084
vn -0.9450 0.0000 -0.3271
vn -0.6356 0.7211 0.2756
vn 1.0000 0.0000 -0.0030
usemtl m1stenless_mat_v
s off
f 40/1/1 39/2/1 38/3/1
f 40/1/1 41/4/1 39/2/1
f 42/5/1 41/4/1 40/1/1
f 42/5/1 43/6/1 41/4/1
f 44/7/1 43/6/1 42/5/1
f 44/7/1 45/8/1 43/6/1
f 46/9/1 45/8/1 44/7/1
f 46/9/1 47/10/1 45/8/1
f 48/11/1 47/10/1 46/9/1
f 61/12/2 60/13/2 59/14/2
f 61/12/2 62/15/2 60/13/2
f 63/16/2 62/15/2 61/12/2
f 63/16/2 64/17/2 62/15/2
f 65/18/2 64/17/2 63/16/2
f 65/18/2 66/19/2 64/17/2
f 67/20/2 66/19/2 65/18/2
f 67/20/2 68/21/2 66/19/2
f 91/22/1 48/11/1 46/9/1
f 91/22/1 92/23/1 48/11/1
f 93/24/1 92/23/1 91/22/1
f 93/24/1 94/25/1 92/23/1
f 116/26/2 115/27/2 114/28/2
f 116/26/2 68/21/2 115/27/2
f 66/19/2 68/21/2 116/26/2
f 120/29/1 119/30/1 118/31/1
f 120/29/1 121/32/1 119/30/1
f 121/32/1 122/33/1 119/30/1
f 121/32/1 123/34/1 122/33/1
f 123/34/1 94/25/1 122/33/1
f 123/34/1 92/23/1 94/25/1
f 126/35/2 125/36/2 124/37/2
f 126/35/2 127/38/2 125/36/2
f 127/38/2 138/39/2 125/36/2
f 127/38/2 139/40/2 138/39/2
f 139/40/2 141/41/2 138/39/2
f 139/40/2 142/42/2 141/41/2
f 142/42/2 115/27/2 141/41/2
f 142/42/2 114/28/2 115/27/2
s 1
f 3/43/3 2/44/3 1/45/4
f 3/43/3 4/46/5 2/44/3
f 5/47/5 4/46/5 3/43/3
f 5/47/5 6/48/6 4/46/5
f 7/49/6 6/48/6 5/47/5
f 7/49/6 8/50/7 6/48/6
f 9/51/7 8/50/7 7/49/6
f 9/51/7 10/52/8 8/50/7
f 11/53/8 10/52/8 9/51/7
f 11/53/8 12/54/9 10/52/8
f 13/55/9 12/54/9 11/53/8
f 13/55/9 14/56/10 12/54/9
f 15/57/10 14/56/10 13/55/9
f 15/57/10 16/58/11 14/56/10
f 17/59/11 16/58/11 15/57/10
f 17/59/11 18/60/12 16/58/11
f 19/61/12 18/60/12 17/59/11
f 19/61/12 20/62/13 18/60/12
f 21/63/13 20/62/13 19/61/12
f 21/63/13 22/64/14 20/62/13
f 23/65/14 22/64/14 21/63/13
f 23/65/14 24/66/4 22/64/14
f 1/45/4 24/66/4 23/65/14
f 1/45/4 2/44/3 24/66/4
f 27/67/15 26/68/16 25/69/17
f 27/67/15 28/70/18 26/68/16
f 29/71/19 28/70/18 27/67/15
f 29/71/19 30/72/19 28/70/18
f 31/73/20 30/72/19 29/71/19
f 31/73/20 32/74/20 30/72/19
f 33/75/21 32/74/20 31/73/20
f 33/75/21 34/76/21 32/74/20
f 35/77/22 34/76/21 33/75/21
f 35/77/22 36/78/22 34/76/21
f 37/79/23 36/78/22 35/77/22
f 51/80/24 50/81/25 49/82/25
f 51/80/24 52/83/24 50/81/25
f 53/84/26 52/83/24 51/80/24
f 53/84/26 54/85/26 52/83/24
f 55/86/27 54/85/26 53/84/26
f 55/86/27 56/87/27 54/85/26
f 57/88/28 56/87/27 55/86/27
f 57/88/28 58/89/28 56/87/27
f 71/90/29 70/91/30 69/92/30
f 71/90/29 72/93/29 70/91/30
f 73/94/31 72/93/29 71/90/29
f 73/94/31 74/95/31 72/93/29
f 75/96/32 74/95/31 73/94/31
f 75/96/32 76/97/32 74/95/31
f 79/98/33 78/99/34 77/100/34
f 79/98/33 80/101/33 78/99/34
f 81/102/35 80/101/33 79/98/33
f 81/102/35 82/103/35 80/101/33
f 83/104/36 82/103/35 81/102/35
f 86/105/37 85/106/38 84/107/39
f 86/105/37 87/108/40 85/106/38
f 88/109/41 87/108/40 86/105/37
f 88/109/41 89/110/42 87/108/40
f 90/111/43 89/110/42 88/109/41
f 96/112/44 95/113/45 90/111/43
f 96/112/44 97/114/46 95/113/45
f 98/115/47 97/114/46 96/112/44
f 98/115/47 99/116/48 97/114/46
f 102/117/1 101/118/49 100/119/50
f 102/117/1 103/120/51 101/118/49
f 104/121/52 103/120/51 102/117/1
f 107/122/2 106/123/53 105/124/54
f 107/122/2 108/125/55 106/123/53
f 109/126/56 108/125/55 107/122/2
f 112/127/57 111/128/58 110/129/58
f 112/127/57 113/130/57 111/128/58
f 83/104/36 113/130/57 112/127/57
f 117/131/36 83/104/36 112/127/57
f 117/131/36 82/103/35 83/104/36
f 130/132/59 129/133/60 128/134/61
f 130/132/59 131/135/62 129/133/60
f 133/136/63 128/134/61 132/137/64
f 133/136/63 130/132/59 128/134/61
f 135/138/64 132/137/64 134/139/65
f 135/138/64 133/136/63 132/137/64
f 137/140/66 134/139/65 136/141/67
f 137/140/66 135/138/64 134/139/65
f 140/142/68 90/111/43 88/109/41
f 140/142/68 96/112/44 90/111/43
f 143/143/23 37/79/23 35/77/22
f 143/143/23 144/144/69 37/79/23
f 131/135/62 145/145/62 129/133/60
f 144/144/69 146/146/69 37/79/23
f 105/124/54 109/126/56 107/122/2
f 100/119/50 104/121/52 102/117/1
