# Blender v3.0.0 OBJ File: ''
# www.blender.org
mtllib cosmic_logo.mtl
o mesh-1_meshId1_name.002
v -25.721867 2.199218 32.469921
v -25.697014 2.199221 10.471458
v -25.036709 2.199217 33.287937
v -25.010096 2.199221 9.656648
v 24.962845 2.199213 33.342663
v 24.988508 2.199217 9.709704
v 25.649797 2.199213 32.527809
v 25.673615 2.199216 10.527634
vt 0.013184 0.007324
vt 0.000000 0.958984
vt 0.000000 0.041260
vt 0.013184 0.992920
vt 0.986572 0.007324
vt 0.986572 0.992920
vt 1.000000 0.041260
vt 1.000000 0.958984
vn 0.0000 1.0000 0.0000
usemtl m1label_mat_v
s off
f 3/1/1 2/2/1 1/3/1
f 3/1/1 4/4/1 2/2/1
f 5/5/1 4/4/1 3/1/1
f 5/5/1 6/6/1 4/4/1
f 7/7/1 6/6/1 5/5/1
f 7/7/1 8/8/1 6/6/1
