# Blender v3.0.0 OBJ File: ''
# www.blender.org
mtllib body.mtl
o mesh-1_meshId1_name.003
v -3.006572 20.867754 -17.746735
v -2.824012 21.867754 -16.668720
v -8.895203 20.867756 -15.648491
v -8.355165 21.867754 -14.698453
v -13.710576 20.867754 -11.662167
v -12.877699 21.867754 -10.953818
v -16.871668 20.867754 -6.269536
v -15.847713 21.867754 -5.888931
v -17.999107 20.867754 -0.121047
v -16.906181 21.867754 -0.113260
v -16.954245 20.867752 6.042852
v -15.925887 21.867752 5.676213
v -13.865631 20.867752 11.476357
v -13.024518 21.867752 10.780317
v -9.104388 20.867750 15.526594
v -8.551479 21.867750 14.584379
v -3.244117 20.867750 17.704128
v -3.047317 21.867750 16.629599
v 3.006576 20.867750 17.746740
v 2.824016 21.867750 16.668726
v 8.895206 20.867748 15.648497
v 8.355168 21.867750 14.698459
v 13.710580 20.867750 11.662172
v 12.877703 21.867750 10.953825
v 16.871672 20.867750 6.269542
v 15.847717 21.867750 5.888937
v 17.999111 20.867750 0.121052
v 16.906185 21.867750 0.113266
v 16.954248 20.867752 -6.042846
v 15.925891 21.867752 -5.676207
v 13.865635 20.867752 -11.476351
v 13.024522 21.867752 -10.780311
v 9.104392 20.867754 -15.526588
v 8.551483 21.867754 -14.584373
v 3.244121 20.867754 -17.704124
v 3.047321 21.867754 -16.629593
v -3.006572 20.867754 -17.746735
v -2.824012 21.867754 -16.668720
v -3.006573 11.867755 -17.746735
v -3.006572 20.867754 -17.746735
v -8.895204 11.867755 -15.648492
v -8.895203 20.867756 -15.648491
v -13.710577 11.867755 -11.662169
v -13.710576 20.867754 -11.662167
v -16.871670 11.867754 -6.269537
v -16.871668 20.867754 -6.269536
v -17.999109 11.867754 -0.121047
v -17.999107 20.867754 -0.121047
v -16.954245 11.867753 6.042851
v -16.954245 20.867752 6.042852
v -13.865632 11.867751 11.476357
v -13.865631 20.867752 11.476357
v -9.104389 11.867750 15.526594
v -9.104388 20.867750 15.526594
v -3.244118 11.867750 17.704128
v -3.244117 20.867750 17.704128
v 3.006575 11.867749 17.746738
v 3.006576 20.867750 17.746740
v 8.895205 11.867749 15.648496
v 8.895206 20.867748 15.648497
v 13.710579 11.867749 11.662171
v 13.710580 20.867750 11.662172
v 16.871672 11.867750 6.269541
v 16.871672 20.867750 6.269542
v 17.999111 11.867750 0.121051
v 17.999111 20.867750 0.121052
v 16.954247 11.867751 -6.042847
v 16.954248 20.867752 -6.042846
v 13.865635 11.867753 -11.476352
v 13.865635 20.867752 -11.476351
v 9.104391 11.867754 -15.526590
v 9.104392 20.867754 -15.526588
v 3.244120 11.867754 -17.704124
v 3.244121 20.867754 -17.704124
v -3.006573 11.867755 -17.746735
v -3.006572 20.867754 -17.746735
v -3.006573 11.000003 -17.746735
v -2.824013 12.000003 -16.668722
v -8.895204 11.000003 -15.648492
v -8.355165 12.000003 -14.698454
v -13.710577 11.000003 -11.662169
v -12.877701 12.000003 -10.953820
v -16.871670 11.000002 -6.269537
v -15.847715 12.000002 -5.888932
v -17.999109 11.000002 -0.121048
v -16.906181 12.000001 -0.113261
v -16.954245 11.000001 6.042851
v -15.925888 12.000001 5.676212
v -13.865632 10.999999 11.476357
v -13.024519 11.999999 10.780315
v -9.104389 10.999998 15.526593
v -8.551480 11.999999 14.584377
v -3.244118 10.999998 17.704128
v -3.047318 11.999998 16.629599
v 3.006575 10.999997 17.746738
v 2.824015 11.999997 16.668726
v 8.895205 10.999997 15.648496
v 8.355167 11.999997 14.698458
v 13.710579 10.999997 11.662171
v 12.877703 11.999997 10.953823
v 16.871672 10.999998 6.269540
v 15.847717 11.999998 5.888936
v 17.999111 10.999998 0.121051
v 16.906185 11.999999 0.113265
v 16.954247 10.999999 -6.042847
v 15.925890 11.999999 -5.676208
v 13.865634 11.000001 -11.476353
v 13.024521 12.000001 -10.780312
v 9.104391 11.000002 -15.526590
v 8.551482 12.000001 -14.584373
v 3.244120 11.000002 -17.704124
v 3.047320 12.000002 -16.629595
v -3.006573 11.000003 -17.746735
v -2.824013 12.000003 -16.668722
v -3.006573 11.000003 -17.746735
v -3.006574 -2.999997 -17.746738
v 3.244120 11.000002 -17.704124
v 3.244119 -2.999998 -17.704126
v 9.104391 11.000002 -15.526590
v 9.104390 -2.999999 -15.526592
v 13.865634 11.000001 -11.476353
v 13.865633 -3.000000 -11.476355
v 16.954247 10.999999 -6.042847
v 16.954247 -3.000000 -6.042849
v 17.999111 10.999998 0.121051
v 17.999111 -3.000001 0.121049
v 16.871672 10.999998 6.269540
v 16.871670 -3.000002 6.269538
v 13.710579 10.999997 11.662171
v 13.710577 -3.000003 11.662169
v 8.895205 10.999997 15.648496
v 8.895205 -3.000003 15.648494
v 3.006575 10.999997 17.746738
v 3.006573 -3.000003 17.746737
v -3.244118 10.999998 17.704128
v -3.244119 -3.000002 17.704126
v -9.104389 10.999998 15.526593
v -9.104390 -3.000001 15.526591
v -13.865632 10.999999 11.476357
v -13.865633 -3.000000 11.476355
v -16.954245 11.000001 6.042851
v -16.954247 -3.000000 6.042849
v -17.999109 11.000002 -0.121048
v -17.999111 -2.999999 -0.121050
v -16.871670 11.000002 -6.269537
v -16.871670 -2.999998 -6.269539
v -13.710577 11.000003 -11.662169
v -13.710579 -2.999997 -11.662170
v -8.895204 11.000003 -15.648492
v -8.895205 -2.999997 -15.648494
v -3.006573 11.000003 -17.746735
v -3.006574 -2.999997 -17.746738
v -0.000000 -3.000000 -0.000000
v -2.824013 12.000003 -16.668722
v 3.047320 12.000002 -16.629595
v 0.000001 12.000000 0.000002
v 8.551482 12.000001 -14.584373
v 13.024521 12.000001 -10.780312
v 15.847717 11.999998 5.888936
v 16.906185 11.999999 0.113265
v 15.925890 11.999999 -5.676208
v 8.355167 11.999997 14.698458
v 12.877703 11.999997 10.953823
v -3.047318 11.999998 16.629599
v 2.824015 11.999997 16.668726
v -13.024519 11.999999 10.780315
v -8.551480 11.999999 14.584377
v -16.906181 12.000001 -0.113261
v -15.925888 12.000001 5.676212
v -12.877701 12.000003 -10.953820
v -15.847715 12.000002 -5.888932
v -2.824013 12.000003 -16.668722
v -8.355165 12.000003 -14.698454
vt 1.271240 0.090588
vt 1.743470 0.090588
vt 1.799010 0.090588
vt 1.687930 0.090588
vt 1.632320 0.090588
vt 1.521240 0.090588
vt 1.465700 0.090588
vt 1.576780 0.090588
vt 1.410160 0.090588
vt 1.354550 0.090588
vt 1.299010 0.090588
vt 1.243470 0.090588
vt 1.187930 0.090588
vt 1.132320 0.090588
vt 1.076780 0.090588
vt 1.021240 0.090588
vt 0.965698 0.090588
vt 0.910156 0.090588
vt 0.854553 0.090588
vt 0.799011 0.090588
vt 0.854553 0.900792
vt 0.799011 0.984109
vt 0.799011 0.900792
vt 0.854553 0.984109
vt 0.910156 0.900792
vt 0.910156 0.984109
vt 0.965698 0.900792
vt 0.965698 0.984109
vt 1.021240 0.900792
vt 1.021240 0.984109
vt 1.076780 0.900792
vt 1.076780 0.984109
vt 1.132320 0.900792
vt 1.132320 0.984109
vt 1.187930 0.900792
vt 1.187930 0.984109
vt 1.243470 0.900792
vt 1.243470 0.984109
vt 1.299010 0.900792
vt 1.299010 0.984109
vt 1.354550 0.900792
vt 1.354550 0.984109
vt 1.410160 0.900792
vt 1.410160 0.984109
vt 1.465700 0.900792
vt 1.465700 0.984109
vt 1.521240 0.900792
vt 1.521240 0.984109
vt 1.576780 0.900792
vt 1.576780 0.984109
vt 1.632320 0.900792
vt 1.632320 0.984109
vt 1.687930 0.900792
vt 1.687930 0.984109
vt 1.743470 0.900792
vt 1.743470 0.984109
vt 1.799010 0.900792
vt 1.799010 0.984109
vt 0.854553 0.131627
vt 0.799011 0.900792
vt 0.799011 0.131627
vt 0.854553 0.900792
vt 0.910156 0.131627
vt 0.910156 0.900792
vt 0.965698 0.131627
vt 0.965698 0.900792
vt 1.021240 0.131627
vt 1.021240 0.900792
vt 1.076780 0.131627
vt 1.076780 0.900792
vt 1.132320 0.131627
vt 1.132320 0.900792
vt 1.187930 0.131627
vt 1.187930 0.900792
vt 1.243470 0.131627
vt 1.243470 0.900792
vt 1.299010 0.131627
vt 1.299010 0.900792
vt 1.354550 0.131627
vt 1.354550 0.900792
vt 1.410160 0.131627
vt 1.410160 0.900792
vt 1.465700 0.131627
vt 1.465700 0.900792
vt 1.521240 0.131627
vt 1.521240 0.900792
vt 1.576780 0.131627
vt 1.576780 0.900792
vt 1.632320 0.131627
vt 1.632320 0.900792
vt 1.687930 0.131627
vt 1.687930 0.900792
vt 1.743470 0.131627
vt 1.743470 0.900792
vt 1.799010 0.131627
vt 1.799010 0.900792
vt 0.854553 0.072223
vt 0.799011 0.090588
vt 0.799011 0.072223
vt 0.854553 0.090588
vt 0.910156 0.072223
vt 0.910156 0.090588
vt 0.965698 0.072223
vt 0.965698 0.090588
vt 1.021240 0.072223
vt 1.021240 0.090588
vt 1.076780 0.072223
vt 1.076780 0.090588
vt 1.132320 0.072223
vt 1.132320 0.090588
vt 1.187930 0.072223
vt 1.187930 0.090588
vt 1.243470 0.072223
vt 1.243470 0.090588
vt 1.299010 0.072223
vt 1.299010 0.090588
vt 1.354550 0.072223
vt 1.354550 0.090588
vt 1.410160 0.072223
vt 1.410160 0.090588
vt 1.465700 0.072223
vt 1.465700 0.090588
vt 1.521240 0.072223
vt 1.521240 0.090588
vt 1.576780 0.072223
vt 1.576780 0.090588
vt 1.632320 0.072223
vt 1.632320 0.090588
vt 1.687930 0.072223
vt 1.687930 0.090588
vt 1.743470 0.072223
vt 1.743470 0.090588
vt 1.799010 0.072223
vt 1.799010 0.090588
vt 1.743470 0.072223
vt 1.799010 0.001106
vt 1.799010 0.072223
vt 1.743470 0.001106
vt 1.687930 0.072223
vt 1.687930 0.001106
vt 1.632320 0.072223
vt 1.632320 0.001106
vt 1.576780 0.072223
vt 1.576780 0.001106
vt 1.521240 0.072223
vt 1.521240 0.001106
vt 1.465700 0.072223
vt 1.465700 0.001106
vt 1.410160 0.072223
vt 1.410160 0.001106
vt 1.354550 0.072223
vt 1.354550 0.001106
vt 1.299010 0.072223
vt 1.299010 0.001106
vt 1.243470 0.072223
vt 1.243470 0.001106
vt 1.187930 0.072223
vt 1.187930 0.001106
vt 1.132320 0.072223
vt 1.132320 0.001106
vt 1.076780 0.072223
vt 1.076780 0.001106
vt 1.021240 0.072223
vt 1.021240 0.001106
vt 0.965698 0.072223
vt 0.965698 0.001106
vt 0.910156 0.072223
vt 0.910156 0.001106
vt 0.854553 0.072223
vt 0.854553 0.001106
vt 0.799011 0.072223
vt 0.799011 0.001106
vt 1.271240 0.001106
vn 0.0000 1.0000 0.0000
vn -0.3336 0.7377 -0.5869
vn -0.2284 0.7327 -0.6410
vn -0.5141 0.7379 -0.4372
vn -0.6329 0.7376 -0.2352
vn -0.6750 0.7378 -0.0045
vn -0.6362 0.7374 0.2267
vn -0.5203 0.7374 0.4306
vn -0.3415 0.7376 0.5825
vn -0.3414 0.7376 0.5825
vn -0.1217 0.7376 0.6641
vn 0.1127 0.7379 0.6654
vn 0.3336 0.7377 0.5869
vn 0.5141 0.7379 0.4372
vn 0.6329 0.7376 0.2352
vn 0.6750 0.7378 0.0045
vn 0.6362 0.7374 -0.2267
vn 0.5203 0.7374 -0.4306
vn 0.3415 0.7376 -0.5825
vn 0.3414 0.7376 -0.5825
vn 0.1217 0.7376 -0.6641
vn 0.0045 0.7327 -0.6805
vn -0.4942 0.0000 -0.8694
vn -0.3356 0.0000 -0.9420
vn -0.7617 0.0000 -0.6478
vn -0.9373 0.0000 -0.3483
vn -1.0000 0.0000 -0.0067
vn -0.9419 0.0000 0.3357
vn -0.7703 0.0000 0.6376
vn -0.5058 0.0000 0.8626
vn -0.1803 0.0000 0.9836
vn 0.1669 0.0000 0.9860
vn 0.4942 0.0000 0.8694
vn 0.7617 0.0000 0.6478
vn 0.9373 0.0000 0.3483
vn 0.9374 0.0000 0.3483
vn 1.0000 0.0000 0.0067
vn 0.9419 0.0000 -0.3357
vn 0.7703 0.0000 -0.6376
vn 0.5058 0.0000 -0.8626
vn 0.1803 0.0000 -0.9836
vn 0.0068 0.0000 -1.0000
vn 0.0051 -0.6643 -0.7474
vn 0.1338 -0.6700 -0.7302
vn 0.3755 -0.6700 -0.6404
vn 0.5719 -0.6700 -0.4733
vn 0.6992 -0.6700 -0.2492
vn 0.7423 -0.6700 0.0050
vn 0.6958 -0.6700 0.2586
vn 0.5655 -0.6700 0.4809
vn 0.3668 -0.6700 0.6453
vn 0.1239 -0.6700 0.7319
vn -0.1338 -0.6700 0.7302
vn -0.3755 -0.6700 0.6404
vn -0.5719 -0.6700 0.4733
vn -0.6992 -0.6700 0.2492
vn -0.7423 -0.6700 -0.0050
vn -0.6958 -0.6700 -0.2586
vn -0.5655 -0.6700 -0.4809
vn -0.3668 -0.6700 -0.6453
vn -0.2509 -0.6644 -0.7040
vn 0.0000 -1.0000 0.0000
usemtl m1moji_mat_v.001
s off
f 156/1/1 155/2/1 154/3/1
f 156/1/1 157/4/1 155/2/1
f 158/5/1 157/4/1 156/1/1
f 160/6/1 156/1/1 159/7/1
f 160/6/1 161/8/1 156/1/1
f 163/9/1 156/1/1 162/10/1
f 163/9/1 159/7/1 156/1/1
f 165/11/1 156/1/1 164/12/1
f 165/11/1 162/10/1 156/1/1
f 167/13/1 156/1/1 166/14/1
f 167/13/1 164/12/1 156/1/1
f 169/15/1 156/1/1 168/16/1
f 169/15/1 166/14/1 156/1/1
f 171/17/1 156/1/1 170/18/1
f 171/17/1 168/16/1 156/1/1
f 173/19/1 156/1/1 172/20/1
f 173/19/1 170/18/1 156/1/1
f 161/8/1 158/5/1 156/1/1
s 1
f 3/21/2 2/22/3 1/23/3
f 3/21/2 4/24/2 2/22/3
f 5/25/4 4/24/2 3/21/2
f 5/25/4 6/26/4 4/24/2
f 7/27/5 6/26/4 5/25/4
f 7/27/5 8/28/5 6/26/4
f 9/29/6 8/28/5 7/27/5
f 9/29/6 10/30/6 8/28/5
f 11/31/7 10/30/6 9/29/6
f 11/31/7 12/32/7 10/30/6
f 13/33/8 12/32/7 11/31/7
f 13/33/8 14/34/8 12/32/7
f 15/35/9 14/34/8 13/33/8
f 15/35/9 16/36/10 14/34/8
f 17/37/11 16/36/10 15/35/9
f 17/37/11 18/38/11 16/36/10
f 19/39/12 18/38/11 17/37/11
f 19/39/12 20/40/12 18/38/11
f 21/41/13 20/40/12 19/39/12
f 21/41/13 22/42/13 20/40/12
f 23/43/14 22/42/13 21/41/13
f 23/43/14 24/44/14 22/42/13
f 25/45/15 24/44/14 23/43/14
f 25/45/15 26/46/15 24/44/14
f 27/47/16 26/46/15 25/45/15
f 27/47/16 28/48/16 26/46/15
f 29/49/17 28/48/16 27/47/16
f 29/49/17 30/50/17 28/48/16
f 31/51/18 30/50/17 29/49/17
f 31/51/18 32/52/18 30/50/17
f 33/53/19 32/52/18 31/51/18
f 33/53/19 34/54/20 32/52/18
f 35/55/21 34/54/20 33/53/19
f 35/55/21 36/56/21 34/54/20
f 37/57/22 36/56/21 35/55/21
f 37/57/22 38/58/22 36/56/21
f 41/59/23 40/60/24 39/61/24
f 41/59/23 42/62/23 40/60/24
f 43/63/25 42/62/23 41/59/23
f 43/63/25 44/64/25 42/62/23
f 45/65/26 44/64/25 43/63/25
f 45/65/26 46/66/26 44/64/25
f 47/67/27 46/66/26 45/65/26
f 47/67/27 48/68/27 46/66/26
f 49/69/28 48/68/27 47/67/27
f 49/69/28 50/70/28 48/68/27
f 51/71/29 50/70/28 49/69/28
f 51/71/29 52/72/29 50/70/28
f 53/73/30 52/72/29 51/71/29
f 53/73/30 54/74/30 52/72/29
f 55/75/31 54/74/30 53/73/30
f 55/75/31 56/76/31 54/74/30
f 57/77/32 56/76/31 55/75/31
f 57/77/32 58/78/32 56/76/31
f 59/79/33 58/78/32 57/77/32
f 59/79/33 60/80/33 58/78/32
f 61/81/34 60/80/33 59/79/33
f 61/81/34 62/82/34 60/80/33
f 63/83/35 62/82/34 61/81/34
f 63/83/35 64/84/36 62/82/34
f 65/85/37 64/84/36 63/83/35
f 65/85/37 66/86/37 64/84/36
f 67/87/38 66/86/37 65/85/37
f 67/87/38 68/88/38 66/86/37
f 69/89/39 68/88/38 67/87/38
f 69/89/39 70/90/39 68/88/38
f 71/91/40 70/90/39 69/89/39
f 71/91/40 72/92/40 70/90/39
f 73/93/41 72/92/40 71/91/40
f 73/93/41 74/94/41 72/92/40
f 75/95/42 74/94/41 73/93/41
f 75/95/42 76/96/42 74/94/41
f 79/97/2 78/98/3 77/99/3
f 79/97/2 80/100/2 78/98/3
f 81/101/4 80/100/2 79/97/2
f 81/101/4 82/102/4 80/100/2
f 83/103/5 82/102/4 81/101/4
f 83/103/5 84/104/5 82/102/4
f 85/105/6 84/104/5 83/103/5
f 85/105/6 86/106/6 84/104/5
f 87/107/7 86/106/6 85/105/6
f 87/107/7 88/108/7 86/106/6
f 89/109/8 88/108/7 87/107/7
f 89/109/8 90/110/8 88/108/7
f 91/111/9 90/110/8 89/109/8
f 91/111/9 92/112/10 90/110/8
f 93/113/11 92/112/10 91/111/9
f 93/113/11 94/114/11 92/112/10
f 95/115/12 94/114/11 93/113/11
f 95/115/12 96/116/12 94/114/11
f 97/117/13 96/116/12 95/115/12
f 97/117/13 98/118/13 96/116/12
f 99/119/14 98/118/13 97/117/13
f 99/119/14 100/120/14 98/118/13
f 101/121/15 100/120/14 99/119/14
f 101/121/15 102/122/15 100/120/14
f 103/123/16 102/122/15 101/121/15
f 103/123/16 104/124/16 102/122/15
f 105/125/17 104/124/16 103/123/16
f 105/125/17 106/126/17 104/124/16
f 107/127/18 106/126/17 105/125/17
f 107/127/18 108/128/18 106/126/17
f 109/129/19 108/128/18 107/127/18
f 109/129/19 110/130/20 108/128/18
f 111/131/21 110/130/20 109/129/19
f 111/131/21 112/132/21 110/130/20
f 113/133/22 112/132/21 111/131/21
f 113/133/22 114/134/22 112/132/21
f 117/135/41 116/136/43 115/137/42
f 117/135/41 118/138/44 116/136/43
f 119/139/40 118/138/44 117/135/41
f 119/139/40 120/140/45 118/138/44
f 121/141/39 120/140/45 119/139/40
f 121/141/39 122/142/46 120/140/45
f 123/143/38 122/142/46 121/141/39
f 123/143/38 124/144/47 122/142/46
f 125/145/37 124/144/47 123/143/38
f 125/145/37 126/146/48 124/144/47
f 127/147/35 126/146/48 125/145/37
f 127/147/35 128/148/49 126/146/48
f 129/149/34 128/148/49 127/147/35
f 129/149/34 130/150/50 128/148/49
f 131/151/33 130/150/50 129/149/34
f 131/151/33 132/152/51 130/150/50
f 133/153/32 132/152/51 131/151/33
f 133/153/32 134/154/52 132/152/51
f 135/155/31 134/154/52 133/153/32
f 135/155/31 136/156/53 134/154/52
f 137/157/30 136/156/53 135/155/31
f 137/157/30 138/158/54 136/156/53
f 139/159/29 138/158/54 137/157/30
f 139/159/29 140/160/55 138/158/54
f 141/161/28 140/160/55 139/159/29
f 141/161/28 142/162/56 140/160/55
f 143/163/27 142/162/56 141/161/28
f 143/163/27 144/164/57 142/162/56
f 145/165/26 144/164/57 143/163/27
f 145/165/26 146/166/58 144/164/57
f 147/167/25 146/166/58 145/165/26
f 147/167/25 148/168/59 146/166/58
f 149/169/23 148/168/59 147/167/25
f 149/169/23 150/170/60 148/168/59
f 151/171/24 150/170/60 149/169/23
f 151/171/24 152/172/61 150/170/60
f 153/173/62 126/146/48 128/148/49
f 153/173/62 124/144/47 126/146/48
f 122/142/46 124/144/47 153/173/62
f 153/173/62 132/152/51 134/154/52
f 153/173/62 130/150/50 132/152/51
f 128/148/49 130/150/50 153/173/62
f 153/173/62 138/158/54 140/160/55
f 153/173/62 136/156/53 138/158/54
f 134/154/52 136/156/53 153/173/62
f 153/173/62 144/164/57 146/166/58
f 153/173/62 142/162/56 144/164/57
f 140/160/55 142/162/56 153/173/62
f 153/173/62 150/170/60 152/172/61
f 153/173/62 148/168/59 150/170/60
f 146/166/58 148/168/59 153/173/62
f 118/138/44 153/173/62 116/136/43
f 118/138/44 120/140/45 153/173/62
f 120/140/45 122/142/46 153/173/62
