# Blender v3.0.0 OBJ File: ''
# www.blender.org
mtllib tear_bottom.mtl
o mesh-0_meshId0_name.001
v -11.264324 9.553731 9.210580
v -11.549956 10.505878 14.570183
v -7.732226 5.115256 0.446325
v -12.706342 4.924825 16.708685
v -13.775690 12.784197 -3.893166
v -16.450520 14.395527 -1.183196
v -7.816227 6.898457 -6.797080
v -20.350649 9.626976 -2.312027
v -8.381430 14.894558 -12.530252
v -11.859386 17.118187 -12.300606
v -3.522875 7.935567 -11.063664
v -14.651850 13.005878 -16.110910
v 7.093152 5.115254 0.274992
v 12.441496 4.924822 16.417631
v 10.827245 9.553729 8.956084
v 11.235491 10.505877 14.307275
v 1.720495 15.459007 -14.938436
v -0.519572 18.246117 -17.013571
v 2.619304 7.935566 -11.134188
v -0.577225 14.405298 -21.961830
v -8.081257 8.483415 13.522681
v -3.320767 3.632835 6.421796
v -11.549956 10.505878 14.570183
v -12.706342 4.924825 16.708685
v 7.011188 6.898456 -6.967562
v 19.645336 9.626971 -2.773667
v 13.034968 12.784194 -4.203057
v 15.771683 14.395524 -1.555515
v 2.619304 7.935566 -11.134188
v 13.630389 13.005876 -16.436964
v 7.443268 14.894556 -12.712691
v 10.925418 17.118185 -12.562870
v 19.645336 9.626971 -2.773667
v 7.093152 5.115254 0.274992
v 15.771683 14.395524 -1.555515
v 13.095669 11.498064 1.024334
v 13.630389 13.005876 -16.436964
v 7.011188 6.898456 -6.967562
v 10.925418 17.118185 -12.562870
v 10.611744 14.145525 -9.706005
v -2.711786 15.459007 -14.887767
v -3.522875 7.935567 -11.063664
v -0.519572 18.246117 -17.013571
v -0.577225 14.405298 -21.961830
v -2.107291 7.804704 16.212727
v -0.081262 8.894548 20.987148
v -3.320767 3.632835 6.421796
v -0.032509 2.797873 25.206846
v -13.715614 11.498067 1.333498
v -7.732226 5.115256 0.446325
v -16.450520 14.395527 -1.183196
v -20.350649 9.626976 -2.312027
v -11.479780 14.145528 -9.451506
v -7.816227 6.898457 -6.797080
v -11.859386 17.118187 -12.300606
v -14.651850 13.005878 -16.110910
v -10.979334 3.349627 -4.470670
v -0.380541 -0.250954 -4.972960
v -7.816227 6.898457 -6.797080
v -7.958304 5.141628 -11.786893
v -0.380541 -0.250954 -4.972960
v -3.522875 7.935567 -11.063664
v -0.495898 5.883807 -14.888945
v -0.380541 -0.250954 -4.972960
v 2.619304 7.935566 -11.134188
v 12.441496 4.924822 16.417631
v 7.093152 5.115254 0.274992
v 7.240361 0.789083 5.723958
v 19.645336 9.626971 -2.773667
v 7.011188 6.898456 -6.967562
v 10.225820 3.349625 -4.715640
v -0.519572 18.246117 -17.013571
v 1.720495 15.459007 -14.938436
v 7.093188 14.042017 -20.572201
v -11.859386 17.118187 -12.300606
v -8.381430 14.894558 -12.530252
v -8.212812 14.042019 -20.395056
v -16.450520 14.395527 -1.183196
v -13.775690 12.784197 -3.893166
v -18.914635 11.455098 -9.760717
v -11.549956 10.505878 14.570183
v -11.264324 9.553731 9.210580
v -18.705381 7.013697 8.289923
v -7.958304 5.141628 -11.786893
v -3.522875 7.935567 -11.063664
v -14.651850 13.005878 -16.110910
v -7.958304 5.141628 -11.786893
v -14.651850 13.005878 -16.110910
v -7.816227 6.898457 -6.797080
v -7.753319 0.789085 5.897381
v -12.706342 4.924825 16.708685
v -3.320767 3.632835 6.421796
v -10.979334 3.349627 -4.470670
v -7.816227 6.898457 -6.797080
v -20.350649 9.626976 -2.312027
v -10.979334 3.349627 -4.470670
v -20.350649 9.626976 -2.312027
v -7.732226 5.115256 0.446325
v -7.753319 0.789085 5.897381
v -7.732226 5.115256 0.446325
v -12.706342 4.924825 16.708685
v -0.206655 -0.271465 10.119017
v -3.320767 3.632835 6.421796
v -0.032509 2.797873 25.206846
v -0.206655 -0.271465 10.119017
v -0.032509 2.797873 25.206846
v 2.820772 3.632834 6.350544
v -7.816227 6.898457 -6.797080
v -0.380541 -0.250954 -4.972960
v -7.958304 5.141628 -11.786893
v -3.522875 7.935567 -11.063664
v -0.380541 -0.250954 -4.972960
v -0.495898 5.883807 -14.888945
v 2.619304 7.935566 -11.134188
v -0.380541 -0.250954 -4.972960
v 7.037428 5.141626 -11.959492
v 7.011188 6.898456 -6.967562
v -0.380541 -0.250954 -4.972960
v 10.225820 3.349625 -4.715640
v 7.093152 5.115254 0.274992
v -0.380541 -0.250954 -4.972960
v 7.240361 0.789083 5.723958
v 2.820772 3.632834 6.350544
v -0.380541 -0.250954 -4.972960
v -0.206655 -0.271465 10.119017
v -3.320767 3.632835 6.421796
v -0.380541 -0.250954 -4.972960
v -7.753319 0.789085 5.897381
v 4.272254 13.476583 14.098996
v 1.833291 7.804703 16.167036
v 6.583039 3.698262 21.470669
v 2.820772 3.632834 6.350544
v 1.833291 7.804703 16.167036
v 4.272254 13.476583 14.098996
v 4.272254 13.476583 14.098996
v 7.744147 8.483413 13.339514
v 2.820772 3.632834 6.350544
v -7.732226 5.115256 0.446325
v -0.380541 -0.250954 -4.972960
v -10.979334 3.349627 -4.470670
v 7.093152 5.115254 0.274992
v 19.645336 9.626971 -2.773667
v 10.225820 3.349625 -4.715640
v 7.011188 6.898456 -6.967562
v 13.630389 13.005876 -16.436964
v 7.037428 5.141626 -11.959492
v 13.630389 13.005876 -16.436964
v 2.619304 7.935566 -11.134188
v 7.037428 5.141626 -11.959492
v -4.883952 19.687517 -11.034051
v -2.711786 15.459007 -14.887767
v -8.212812 14.042019 -20.395056
v -11.080711 18.190447 -4.876642
v -11.479780 14.145528 -9.451506
v -18.914635 11.455098 -9.760717
v -10.959914 15.617206 5.577409
v -13.715614 11.498067 1.333498
v -18.705381 7.013697 8.289923
v -4.592382 13.476583 14.201689
v -8.081257 8.483415 13.522681
v -6.731885 3.698264 21.624302
v -2.107291 7.804704 16.212727
v -4.592382 13.476583 14.201689
v -6.731885 3.698264 21.624302
v 1.833291 7.804703 16.167036
v -0.081262 8.894548 20.987148
v 6.583039 3.698262 21.470669
v 4.272254 13.476583 14.098996
v 6.583039 3.698262 21.470669
v 7.744147 8.483413 13.339514
v 7.037428 5.141626 -11.959492
v -0.380541 -0.250954 -4.972960
v 7.011188 6.898456 -6.967562
v 10.225820 3.349625 -4.715640
v -0.380541 -0.250954 -4.972960
v 7.093152 5.115254 0.274992
v 7.240361 0.789083 5.723958
v -0.380541 -0.250954 -4.972960
v 2.820772 3.632834 6.350544
v -0.206655 -0.271465 10.119017
v -0.380541 -0.250954 -4.972960
v -3.320767 3.632835 6.421796
v -7.753319 0.789085 5.897381
v -0.380541 -0.250954 -4.972960
v -7.732226 5.115256 0.446325
v -0.081262 8.894548 20.987148
v -2.107291 7.804704 16.212727
v -6.731885 3.698264 21.624302
v 10.438400 15.617203 5.330580
v 10.827245 9.553729 8.956084
v 18.245537 7.013693 7.862811
v 15.771683 14.395524 -1.555515
v 13.095669 11.498064 1.024334
v 18.245537 7.013693 7.862811
v 10.317595 18.190445 -5.123371
v 13.034968 12.784194 -4.203057
v 18.036921 11.455094 -10.187042
v 10.925418 17.118185 -12.562870
v 10.611744 14.145525 -9.706005
v 18.036921 11.455094 -10.187042
v 3.980715 19.687515 -11.136813
v 7.443268 14.894556 -12.712691
v 7.093188 14.042017 -20.572201
v 1.720495 15.459007 -14.938436
v 3.980715 19.687515 -11.136813
v 7.093188 14.042017 -20.572201
v -2.711786 15.459007 -14.887767
v -0.519572 18.246117 -17.013571
v -8.212812 14.042019 -20.395056
v -8.381430 14.894558 -12.530252
v -4.883952 19.687517 -11.034051
v -8.212812 14.042019 -20.395056
v -11.479780 14.145528 -9.451506
v -11.859386 17.118187 -12.300606
v -18.914635 11.455098 -9.760717
v -13.775690 12.784197 -3.893166
v -11.080711 18.190447 -4.876642
v -18.914635 11.455098 -9.760717
v -13.715614 11.498067 1.333498
v -16.450520 14.395527 -1.183196
v -18.705381 7.013697 8.289923
v -11.264324 9.553731 9.210580
v -10.959914 15.617206 5.577409
v -18.705381 7.013697 8.289923
v -4.592382 13.476583 14.201689
v -2.107291 7.804704 16.212727
v -3.320767 3.632835 6.421796
v -0.081262 8.894548 20.987148
v 1.833291 7.804703 16.167036
v 2.820772 3.632834 6.350544
v 7.744147 8.483413 13.339514
v 11.235491 10.505877 14.307275
v 2.820772 3.632834 6.350544
v 7.240361 0.789083 5.723958
v 2.820772 3.632834 6.350544
v 12.441496 4.924822 16.417631
v 10.438400 15.617203 5.330580
v 13.095669 11.498064 1.024334
v 7.093152 5.115254 0.274992
v 10.317595 18.190445 -5.123371
v 10.611744 14.145525 -9.706005
v 7.011188 6.898456 -6.967562
v -0.495898 5.883807 -14.888945
v 2.619304 7.935566 -11.134188
v -0.577225 14.405298 -21.961830
v -0.495898 5.883807 -14.888945
v -0.577225 14.405298 -21.961830
v -3.522875 7.935567 -11.063664
v 2.820772 3.632834 6.350544
v 11.235491 10.505877 14.307275
v 12.441496 4.924822 16.417631
v -0.032509 2.797873 25.206846
v -0.081262 8.894548 20.987148
v 2.820772 3.632834 6.350544
v 10.438400 15.617203 5.330580
v 7.093152 5.115254 0.274992
v 10.827245 9.553729 8.956084
v 10.317595 18.190445 -5.123371
v 7.011188 6.898456 -6.967562
v 13.034968 12.784194 -4.203057
v 3.980715 19.687515 -11.136813
v 1.720495 15.459007 -14.938436
v 2.619304 7.935566 -11.134188
v 3.980715 19.687515 -11.136813
v 2.619304 7.935566 -11.134188
v 7.443268 14.894556 -12.712691
v -4.883952 19.687517 -11.034051
v -8.381430 14.894558 -12.530252
v -3.522875 7.935567 -11.063664
v -11.080711 18.190447 -4.876642
v -13.775690 12.784197 -3.893166
v -7.816227 6.898457 -6.797080
v -10.959914 15.617206 5.577409
v -11.264324 9.553731 9.210580
v -7.732226 5.115256 0.446325
v 18.036921 11.455094 -10.187042
v 10.611744 14.145525 -9.706005
v 10.317595 18.190445 -5.123371
v 18.036921 11.455094 -10.187042
v 13.034968 12.784194 -4.203057
v 15.771683 14.395524 -1.555515
v 7.093188 14.042017 -20.572201
v 7.443268 14.894556 -12.712691
v 10.925418 17.118185 -12.562870
v 18.245537 7.013693 7.862811
v 13.095669 11.498064 1.024334
v 10.438400 15.617203 5.330580
v 18.245537 7.013693 7.862811
v 10.827245 9.553729 8.956084
v 11.235491 10.505877 14.307275
v -3.522875 7.935567 -11.063664
v -2.711786 15.459007 -14.887767
v -4.883952 19.687517 -11.034051
v -7.816227 6.898457 -6.797080
v -11.479780 14.145528 -9.451506
v -11.080711 18.190447 -4.876642
v 7.744147 8.483413 13.339514
v 6.583039 3.698262 21.470669
v 11.235491 10.505877 14.307275
v -7.732226 5.115256 0.446325
v -13.715614 11.498067 1.333498
v -10.959914 15.617206 5.577409
v -3.320767 3.632835 6.421796
v -8.081257 8.483415 13.522681
v -4.592382 13.476583 14.201689
v -8.081257 8.483415 13.522681
v -11.549956 10.505878 14.570183
v -6.731885 3.698264 21.624302
vt 0.579102 0.309021
vt 0.655640 0.259796
vt 0.627502 0.259979
vt 0.691742 0.308258
vt 0.420868 0.309021
vt 0.440186 0.220062
vt 0.420410 0.240112
vt 0.500000 0.228851
vt 0.308990 0.420898
vt 0.259766 0.344360
vt 0.259949 0.372498
vt 0.308228 0.308258
vt 0.627502 0.740051
vt 0.691742 0.691772
vt 0.579102 0.691010
vt 0.655640 0.740234
vt 0.308990 0.579132
vt 0.220032 0.559814
vt 0.240082 0.579590
vt 0.228821 0.500000
vt 0.740204 0.344360
vt 0.690979 0.420898
vt 0.740021 0.372498
vt 0.691742 0.308258
vt 0.420410 0.759918
vt 0.500000 0.771179
vt 0.420868 0.691010
vt 0.440186 0.779968
vt 0.259949 0.627533
vt 0.308228 0.691772
vt 0.308990 0.579132
vt 0.259766 0.655670
vt 0.559784 0.779968
vt 0.579102 0.691010
vt 0.500000 0.771179
vt 0.579559 0.759918
vt 0.344330 0.740234
vt 0.420868 0.691010
vt 0.308228 0.691772
vt 0.372467 0.740051
vt 0.220032 0.440216
vt 0.308990 0.420898
vt 0.240082 0.420441
vt 0.228821 0.500000
vt 0.690979 0.420898
vt 0.779938 0.440216
vt 0.759888 0.420441
vt 0.771149 0.500000
vt 0.559784 0.220062
vt 0.579102 0.309021
vt 0.579559 0.240112
vt 0.500000 0.228851
vt 0.344330 0.259796
vt 0.420868 0.309021
vt 0.372467 0.259979
vt 0.308228 0.308258
vt 0.420868 0.309021
vt 0.500000 0.500000
vt 0.500000 0.276245
vt 0.308990 0.420898
vt 0.500000 0.500000
vt 0.341766 0.341797
vt 0.308990 0.579132
vt 0.500000 0.500000
vt 0.276215 0.500000
vt 0.658203 0.658234
vt 0.579102 0.691010
vt 0.691742 0.691772
vt 0.500000 0.723785
vt 0.420868 0.691010
vt 0.500000 0.771179
vt 0.211273 0.619598
vt 0.240082 0.579590
vt 0.220032 0.559814
vt 0.211273 0.380432
vt 0.259949 0.372498
vt 0.259766 0.344360
vt 0.380402 0.211304
vt 0.420410 0.240112
vt 0.440186 0.220062
vt 0.619568 0.211304
vt 0.627502 0.259979
vt 0.655640 0.259796
vt 0.308228 0.308258
vt 0.308990 0.420898
vt 0.341766 0.341797
vt 0.420868 0.309021
vt 0.308228 0.308258
vt 0.341766 0.341797
vt 0.690979 0.420898
vt 0.691742 0.308258
vt 0.658203 0.341797
vt 0.500000 0.228851
vt 0.420868 0.309021
vt 0.500000 0.276245
vt 0.579102 0.309021
vt 0.500000 0.228851
vt 0.500000 0.276245
vt 0.691742 0.308258
vt 0.579102 0.309021
vt 0.658203 0.341797
vt 0.771149 0.500000
vt 0.690979 0.420898
vt 0.723755 0.500000
vt 0.690979 0.579132
vt 0.771149 0.500000
vt 0.723755 0.500000
vt 0.341766 0.341797
vt 0.500000 0.500000
vt 0.420868 0.309021
vt 0.276215 0.500000
vt 0.500000 0.500000
vt 0.308990 0.420898
vt 0.341766 0.658234
vt 0.500000 0.500000
vt 0.308990 0.579132
vt 0.500000 0.723785
vt 0.500000 0.500000
vt 0.420868 0.691010
vt 0.658203 0.658234
vt 0.500000 0.500000
vt 0.579102 0.691010
vt 0.723755 0.500000
vt 0.500000 0.500000
vt 0.690979 0.579132
vt 0.658203 0.341797
vt 0.500000 0.500000
vt 0.690979 0.420898
vt 0.788696 0.619598
vt 0.742249 0.581635
vt 0.739838 0.599365
vt 0.739838 0.599365
vt 0.742249 0.581635
vt 0.690979 0.579132
vt 0.690979 0.579132
vt 0.729004 0.613617
vt 0.739838 0.599365
vt 0.500000 0.276245
vt 0.500000 0.500000
vt 0.579102 0.309021
vt 0.500000 0.723785
vt 0.500000 0.771179
vt 0.579102 0.691010
vt 0.341766 0.658234
vt 0.308228 0.691772
vt 0.420868 0.691010
vt 0.341766 0.658234
vt 0.308990 0.579132
vt 0.308228 0.691772
vt 0.211273 0.380432
vt 0.240082 0.420441
vt 0.260132 0.400665
vt 0.380402 0.211304
vt 0.372467 0.259979
vt 0.400635 0.260162
vt 0.619568 0.211304
vt 0.579559 0.240112
vt 0.599335 0.260162
vt 0.788696 0.380432
vt 0.740021 0.372498
vt 0.739838 0.400665
vt 0.788696 0.380432
vt 0.739838 0.400665
vt 0.759888 0.420441
vt 0.788696 0.619598
vt 0.744690 0.563934
vt 0.742249 0.581635
vt 0.729004 0.613617
vt 0.788696 0.619598
vt 0.739838 0.599365
vt 0.420868 0.691010
vt 0.500000 0.500000
vt 0.341766 0.658234
vt 0.579102 0.691010
vt 0.500000 0.500000
vt 0.500000 0.723785
vt 0.690979 0.579132
vt 0.500000 0.500000
vt 0.658203 0.658234
vt 0.690979 0.420898
vt 0.500000 0.500000
vt 0.723755 0.500000
vt 0.579102 0.309021
vt 0.500000 0.500000
vt 0.658203 0.341797
vt 0.788696 0.380432
vt 0.759888 0.420441
vt 0.779938 0.440216
vt 0.619568 0.788727
vt 0.627502 0.740051
vt 0.599335 0.739868
vt 0.619568 0.788727
vt 0.579559 0.759918
vt 0.559784 0.779968
vt 0.380402 0.788727
vt 0.420410 0.759918
vt 0.400635 0.739868
vt 0.380402 0.788727
vt 0.372467 0.740051
vt 0.344330 0.740234
vt 0.211273 0.619598
vt 0.259949 0.627533
vt 0.260132 0.599365
vt 0.211273 0.619598
vt 0.260132 0.599365
vt 0.240082 0.579590
vt 0.211273 0.380432
vt 0.220032 0.440216
vt 0.240082 0.420441
vt 0.211273 0.380432
vt 0.260132 0.400665
vt 0.259949 0.372498
vt 0.380402 0.211304
vt 0.344330 0.259796
vt 0.372467 0.259979
vt 0.380402 0.211304
vt 0.400635 0.260162
vt 0.420410 0.240112
vt 0.619568 0.211304
vt 0.559784 0.220062
vt 0.579559 0.240112
vt 0.619568 0.211304
vt 0.599335 0.260162
vt 0.627502 0.259979
vt 0.690979 0.420898
vt 0.759888 0.420441
vt 0.739838 0.400665
vt 0.690979 0.579132
vt 0.742249 0.581635
vt 0.744690 0.563934
vt 0.690979 0.579132
vt 0.718201 0.627838
vt 0.729004 0.613617
vt 0.691742 0.691772
vt 0.690979 0.579132
vt 0.658203 0.658234
vt 0.579102 0.691010
vt 0.579559 0.759918
vt 0.599335 0.739868
vt 0.420868 0.691010
vt 0.372467 0.740051
vt 0.400635 0.739868
vt 0.228821 0.500000
vt 0.308990 0.579132
vt 0.276215 0.500000
vt 0.308990 0.420898
vt 0.228821 0.500000
vt 0.276215 0.500000
vt 0.691742 0.691772
vt 0.718201 0.627838
vt 0.690979 0.579132
vt 0.690979 0.579132
vt 0.744690 0.563934
vt 0.771149 0.500000
vt 0.627502 0.740051
vt 0.579102 0.691010
vt 0.599335 0.739868
vt 0.420410 0.759918
vt 0.420868 0.691010
vt 0.400635 0.739868
vt 0.308990 0.579132
vt 0.240082 0.579590
vt 0.260132 0.599365
vt 0.259949 0.627533
vt 0.308990 0.579132
vt 0.260132 0.599365
vt 0.308990 0.420898
vt 0.259949 0.372498
vt 0.260132 0.400665
vt 0.420868 0.309021
vt 0.420410 0.240112
vt 0.400635 0.260162
vt 0.579102 0.309021
vt 0.627502 0.259979
vt 0.599335 0.260162
vt 0.400635 0.739868
vt 0.372467 0.740051
vt 0.380402 0.788727
vt 0.440186 0.779968
vt 0.420410 0.759918
vt 0.380402 0.788727
vt 0.259766 0.655670
vt 0.259949 0.627533
vt 0.211273 0.619598
vt 0.599335 0.739868
vt 0.579559 0.759918
vt 0.619568 0.788727
vt 0.655640 0.740234
vt 0.627502 0.740051
vt 0.619568 0.788727
vt 0.260132 0.400665
vt 0.240082 0.420441
vt 0.308990 0.420898
vt 0.400635 0.260162
vt 0.372467 0.259979
vt 0.420868 0.309021
vt 0.718201 0.627838
vt 0.788696 0.619598
vt 0.729004 0.613617
vt 0.599335 0.260162
vt 0.579559 0.240112
vt 0.579102 0.309021
vt 0.739838 0.400665
vt 0.740021 0.372498
vt 0.690979 0.420898
vt 0.788696 0.380432
vt 0.740204 0.344360
vt 0.740021 0.372498
vn -0.6820 -0.7255 0.0925
vn -0.9530 0.0862 -0.2905
vn -0.7352 -0.5468 -0.4006
vn -0.2308 0.3988 -0.8875
vn -0.3125 -0.3998 -0.8617
vn 0.5174 0.3655 -0.7737
vn 0.9337 -0.1764 -0.3114
vn 0.9795 0.1718 -0.1053
vn 0.3019 -0.4012 -0.8648
vn 0.9658 0.1994 -0.1660
vn -0.4055 -0.8583 0.3145
vn 0.7412 0.1007 0.6636
vn 0.2802 0.1580 -0.9469
vn 0.4118 0.5248 -0.7450
vn -0.4801 0.1362 -0.8666
vn -0.3089 0.5366 -0.7853
vn 0.2505 -0.0435 0.9671
vn 0.7291 -0.6843 -0.0122
vn 0.8197 -0.0004 0.5728
vn 0.7048 -0.5288 -0.4729
vn -0.3215 -0.4013 -0.8577
vn -0.9693 0.1995 -0.1436
vn -0.5063 -0.7689 0.3904
vn -0.9777 0.1141 0.1762
vn -0.7292 -0.6842 0.0047
vn -0.2282 -0.0436 0.9726
vn -0.7155 -0.5289 -0.4565
vn -0.8063 -0.0005 0.5915
vn -0.1844 -0.4186 -0.8893
vn 0.4073 -0.4393 -0.8007
vn 0.7688 -0.5398 -0.3429
vn 0.8894 -0.3460 -0.2988
vn 0.3534 -0.2516 -0.9010
vn -0.5748 -0.7329 -0.3639
vn -0.5332 -0.8422 0.0799
vn -0.1805 -0.9134 0.3650
vn 0.2974 -0.9372 0.1823
vn 0.3051 -0.2462 -0.9200
vn -0.7992 -0.5594 0.2197
vn 0.4298 -0.7599 0.4876
vn -0.3742 -0.2516 -0.8926
vn -0.3859 -0.7573 0.5268
vn -0.8960 -0.3461 -0.2781
vn -0.8286 -0.5466 0.1208
vn 0.8313 -0.5465 0.1016
vn -0.7020 -0.6653 0.2542
vn -0.7765 -0.5398 -0.3249
vn -0.4256 -0.4394 -0.7911
vn 0.1638 -0.4185 -0.8933
vn 0.7074 -0.5441 -0.4511
vn 0.7856 -0.6187 -0.0099
vn 0.4639 -0.7951 0.3907
vn 0.4454 -0.4695 -0.7624
vn 0.9221 -0.3140 0.2262
vn -0.5295 -0.4751 0.7028
vn -0.2628 -0.8398 0.4751
vn 0.3980 -0.7573 0.5177
vn 0.8040 -0.5595 0.2011
vn -0.3262 -0.2462 -0.9127
vn -0.3880 -0.7217 0.5732
vn 0.2406 -0.7375 0.6311
vn 0.7569 -0.6404 0.1301
vn 0.7717 -0.4830 -0.4138
vn -0.4630 -0.4694 -0.7519
vn -0.6107 -0.7892 -0.0641
vn -0.7811 -0.4829 -0.3958
vn 0.7077 -0.6653 0.2379
vn 0.2737 -0.8398 0.4689
vn -0.4547 -0.7951 0.4013
vn -0.7855 -0.6188 0.0082
vn -0.7176 -0.5442 -0.4347
vn 0.6091 -0.7892 -0.0783
vn -0.2925 -0.5045 -0.8124
vn 0.1949 -0.7465 -0.6362
vn -0.7306 -0.4540 -0.5099
vn -0.2811 -0.6494 -0.7066
vn -0.7905 -0.6042 0.1007
vn 0.4012 -0.7216 0.5641
vn 0.5662 -0.7330 -0.3770
vn 0.7926 -0.6041 0.0825
vn 0.2647 -0.6494 -0.7129
vn 0.7187 -0.4541 -0.5266
vn -0.2096 -0.7464 -0.6316
vn 0.2735 -0.5045 -0.8190
vn -0.9167 -0.3139 0.2474
vn 0.5155 -0.7688 0.3786
vn 0.4127 -0.8583 0.3050
vn -0.4184 -0.7599 0.4974
vn 0.4377 -0.4994 0.7477
vn 0.8882 -0.3147 0.3348
vn 0.8037 -0.3755 -0.4616
vn -0.8142 -0.3754 -0.4429
vn -0.7257 0.1005 0.6806
vn 0.9815 0.1141 0.1536
vn 0.9335 -0.1380 -0.3310
vn 0.3864 0.0374 -0.9216
vn 0.9016 -0.1045 -0.4198
vn -0.3650 0.0421 -0.9300
vn 0.3436 0.0422 -0.9382
vn -0.4077 0.0373 -0.9123
vn -0.9409 -0.1381 -0.3093
vn -0.2260 -0.7375 0.6364
vn 0.1888 -0.9134 0.3607
vn 0.5349 -0.8422 0.0675
vn -0.7537 -0.6405 0.1476
vn -0.2930 -0.9372 0.1891
vn -0.9110 -0.1045 -0.3988
vn -0.8802 -0.3149 0.3552
vn 0.5403 -0.7566 -0.3681
vn -0.4203 -0.4993 0.7576
vn 0.5456 -0.4751 0.6903
vn -0.5486 -0.7567 -0.3556
g mesh-0_meshId0_name.001_m1houseki02_mat_v
usemtl m1houseki02_mat_v
s off
f 3/1/1 2/2/1 1/3/1
f 3/1/2 4/4/2 2/2/2
f 7/5/3 6/6/3 5/7/3
f 7/5/4 8/8/4 6/6/4
f 11/9/5 10/10/5 9/11/5
f 11/9/6 12/12/6 10/10/6
f 15/13/7 14/14/7 13/15/7
f 15/13/8 16/16/8 14/14/8
f 19/17/9 18/18/9 17/19/9
f 19/17/10 20/20/10 18/18/10
f 23/21/11 22/22/11 21/23/11
f 23/21/12 24/24/12 22/22/12
f 27/25/13 26/26/13 25/27/13
f 27/25/14 28/28/14 26/26/14
f 31/29/15 30/30/15 29/31/15
f 31/29/16 32/32/16 30/30/16
f 35/33/17 34/34/17 33/35/17
f 35/33/18 36/36/18 34/34/18
f 39/37/19 38/38/19 37/39/19
f 39/37/20 40/40/20 38/38/20
f 43/41/21 42/42/21 41/43/21
f 43/41/22 44/44/22 42/42/22
f 47/45/23 46/46/23 45/47/23
f 47/45/24 48/48/24 46/46/24
f 51/49/25 50/50/25 49/51/25
f 51/49/26 52/52/26 50/50/26
f 55/53/27 54/54/27 53/55/27
f 55/53/28 56/56/28 54/54/28
f 59/57/29 58/58/29 57/59/29
f 62/60/30 61/61/30 60/62/30
f 65/63/31 64/64/31 63/65/31
f 68/66/32 67/67/32 66/68/32
f 71/69/33 70/70/33 69/71/33
f 74/72/34 73/73/34 72/74/34
f 77/75/35 76/76/35 75/77/35
f 80/78/36 79/79/36 78/80/36
f 83/81/37 82/82/37 81/83/37
f 86/84/38 85/85/38 84/86/38
f 89/87/39 88/88/39 87/89/39
f 92/90/40 91/91/40 90/92/40
f 95/93/41 94/94/41 93/95/41
f 98/96/42 97/97/42 96/98/42
f 101/99/43 100/100/43 99/101/43
f 104/102/44 103/103/44 102/104/44
f 107/105/45 106/106/45 105/107/45
f 110/108/46 109/109/46 108/110/46
f 113/111/47 112/112/47 111/113/47
f 116/114/48 115/115/48 114/116/48
f 119/117/49 118/118/49 117/119/49
f 122/120/50 121/121/50 120/122/50
f 125/123/51 124/124/51 123/125/51
f 128/126/52 127/127/52 126/128/52
f 131/129/53 130/130/53 129/131/53
f 134/132/54 133/133/54 132/134/54
f 137/135/55 136/136/55 135/137/55
f 140/138/56 139/139/56 138/140/56
f 143/141/57 142/142/57 141/143/57
f 146/144/58 145/145/58 144/146/58
f 149/147/59 148/148/59 147/149/59
f 152/150/60 151/151/60 150/152/60
f 155/153/61 154/154/61 153/155/61
f 158/156/62 157/157/62 156/158/62
f 161/159/63 160/160/63 159/161/63
f 164/162/64 163/163/64 162/164/64
f 167/165/65 166/166/65 165/167/65
f 170/168/66 169/169/66 168/170/66
f 173/171/67 172/172/67 171/173/67
f 176/174/68 175/175/68 174/176/68
f 179/177/69 178/178/69 177/179/69
f 182/180/70 181/181/70 180/182/70
f 185/183/71 184/184/71 183/185/71
f 188/186/72 187/187/72 186/188/72
f 191/189/73 190/190/73 189/191/73
f 194/192/74 193/193/74 192/194/74
f 197/195/75 196/196/75 195/197/75
f 200/198/76 199/199/76 198/200/76
f 203/201/77 202/202/77 201/203/77
f 206/204/78 205/205/78 204/206/78
f 209/207/79 208/208/79 207/209/79
f 212/210/80 211/211/80 210/212/80
f 215/213/81 214/214/81 213/215/81
f 218/216/82 217/217/82 216/218/82
f 221/219/83 220/220/83 219/221/83
f 224/222/84 223/223/84 222/224/84
f 227/225/85 226/226/85 225/227/85
f 230/228/86 229/229/86 228/230/86
f 233/231/87 232/232/87 231/233/87
f 236/234/88 235/235/88 234/236/88
f 239/237/89 238/238/89 237/239/89
f 242/240/90 241/241/90 240/242/90
f 245/243/91 244/244/91 243/245/91
f 248/246/92 247/247/92 246/248/92
f 251/249/93 250/250/93 249/251/93
f 254/252/94 253/253/94 252/254/94
f 257/255/95 256/256/95 255/257/95
f 260/258/96 259/259/96 258/260/96
f 263/261/97 262/262/97 261/263/97
f 266/264/98 265/265/98 264/266/98
f 269/267/99 268/268/99 267/269/99
f 272/270/100 271/271/100 270/272/100
f 275/273/101 274/274/101 273/275/101
f 278/276/102 277/277/102 276/278/102
f 281/279/103 280/280/103 279/281/103
f 284/282/104 283/283/104 282/284/104
f 287/285/105 286/286/105 285/287/105
f 290/288/106 289/289/106 288/290/106
f 293/291/107 292/292/107 291/293/107
f 296/294/108 295/295/108 294/296/108
f 299/297/109 298/298/109 297/299/109
f 302/300/110 301/301/110 300/302/110
f 305/303/111 304/304/111 303/305/111
f 308/306/112 307/307/112 306/308/112
