# Blender v3.0.0 OBJ File: ''
# www.blender.org
mtllib combustion_base.mtl
o mesh-0_meshId0_name.001
v -3.923653 20.000008 -26.763409
v -19.458378 10.320312 -29.341238
v -23.219200 15.671912 -24.024092
v -9.016104 5.845710 -32.632206
v -0.789612 6.580088 -34.113998
v -11.474542 -5.648430 -33.506027
v 2.872927 -4.490222 -36.193081
v -12.140621 -14.083991 -29.264824
v 4.699212 -12.656294 -32.362759
v -11.930853 -18.628891 -23.958855
v 5.378257 -17.095695 -27.090986
v 6.776553 -21.011696 -21.867781
v 20.786625 -8.843750 -24.262102
v 22.081791 -12.933599 -19.156933
v 30.039330 3.591796 -16.464245
v 31.265917 -0.648442 -11.464863
v 32.023438 12.953092 -0.561501
v 32.013046 7.554682 3.807088
v 24.058891 23.997993 10.461700
v 24.147085 17.872993 14.214842
v 9.509874 29.525393 18.650021
v 9.991612 23.087893 22.050570
v -8.698847 21.757795 26.363621
v -6.514257 12.279294 30.264250
v -19.409554 6.408198 28.741043
v -17.936600 -0.660159 31.231777
v -23.765959 -7.048831 27.495821
v -15.130484 -7.552734 35.996120
v -20.882910 -11.830104 34.270432
v -11.728175 -11.716805 38.144012
v -15.005562 -15.265603 36.080742
v -6.368816 -15.986307 37.707306
v -8.051432 -20.367207 34.560894
v -5.920959 -22.320307 32.429222
v -14.633492 -19.279303 32.712029
v -10.711102 -22.681602 28.943146
v -18.697735 -16.841803 29.323652
v -13.807240 -21.169903 24.863422
v -16.277918 -20.357399 14.748668
v -4.810635 -22.505903 19.031792
v -28.535164 -15.150390 -11.153510
v -30.024309 -11.222689 -16.342850
v -10.461889 -22.486292 -18.707232
v 8.010370 -24.152300 -15.973484
v 22.696707 -16.709005 -13.622213
v 31.482197 -5.101565 -6.379936
v 28.543304 -9.966807 3.245255
v 28.588467 0.291006 11.600620
v 24.267860 -13.171907 10.343992
v 23.660429 -5.962899 16.377485
v 18.409008 -16.002008 19.074211
v 17.819796 -11.054709 23.256840
v 14.627851 -13.470709 26.497713
v 10.705401 -10.068409 30.263800
v 7.260891 -14.437510 31.976461
v 1.399781 -11.609407 32.530560
v 0.106368 -17.224607 30.561783
v -3.007166 -14.734407 37.877693
v -27.859991 26.287104 13.701059
v -36.958809 17.113308 -0.541012
v -37.238926 13.527308 5.669416
v -27.915886 29.298803 7.105262
v -12.328335 34.863300 16.760975
v -12.971852 37.158199 9.732143
v 7.388057 36.775398 7.267382
v 4.845875 36.853500 -2.975222
v 17.007307 32.318398 -9.753543
v 7.648916 28.560503 -18.326723
v 23.721249 23.302700 -18.806887
v 11.411154 23.209005 -23.642561
v 11.002659 16.605503 -28.924774
v 6.537057 10.519506 -32.757339
v 15.563101 2.048834 -34.071609
v 19.643225 -4.796878 -29.738705
v -5.681330 -9.583987 38.350849
v 2.332047 -7.660168 33.732887
v 12.647097 -6.830090 28.012163
v 16.782612 0.132803 23.091141
v 21.195446 8.748040 20.369356
v -1.964169 -20.369102 26.238995
v 4.348498 -22.023407 26.526566
v 0.106368 -17.224607 30.561783
v 5.677054 -23.166008 20.857496
v -3.474548 -22.783203 22.870218
v 6.470322 -22.918005 16.456381
v -4.810635 -22.505903 19.031792
v -4.970204 -23.710899 9.149794
v -16.277918 -20.357399 14.748668
v -6.682300 -26.007799 -0.917167
v -19.531107 -21.619095 5.913637
v -8.642475 -25.439495 -12.806602
v -24.834187 -20.267591 -3.823341
v -36.498333 -4.105461 -0.129000
v -28.535164 -15.150390 -11.153510
v -24.834187 -20.267591 -3.823341
v -37.953163 0.001963 -5.180414
v -37.680874 3.867202 -11.160041
v -33.871330 9.710951 -18.311697
v -33.342541 20.789110 -9.409158
v -23.219200 15.671912 -24.024092
v -22.810757 22.275412 -18.744652
v 30.878422 17.441391 -5.381982
v 23.072868 28.990192 6.011442
v 8.503649 34.585892 14.264778
v -11.251392 29.859396 21.177336
v 21.073967 -19.281303 -2.458040
v 18.438503 -19.562508 6.608015
v 14.253956 -20.343807 16.585751
v 14.999928 -17.484407 23.128986
v 11.723885 -21.033207 21.064346
v 7.708748 -20.771507 26.698376
v 0.730731 31.224604 -14.401180
v -11.018458 32.298805 -13.552608
v -13.023022 37.505898 -0.922764
v -25.711830 30.962908 -3.045639
v 28.686134 7.384768 -22.092438
v 29.406893 20.630896 -11.471893
v 21.611328 31.388695 -0.726350
v 9.391438 -16.390608 29.844860
v 9.555359 -18.709009 27.912792
v -32.701496 -9.949214 6.583073
v -35.831909 9.261725 10.605173
v -32.170624 2.707034 16.772785
v -23.386566 14.314500 24.010992
v -26.878904 -2.902339 23.037737
v 5.473476 3.486322 28.688622
v 2.322471 -3.929698 32.375351
v -7.234989 3.195304 31.667755
v -7.630373 -5.082036 36.419170
v 7.736923 -23.419903 6.172091
v 8.178679 -25.152300 -3.981263
v -26.556641 21.781303 18.466484
v 23.195246 12.222700 -27.706680
v 8.349422 13.136692 27.200171
v -26.924053 -13.162096 14.682384
v -23.157057 -14.259800 21.463722
v -18.345165 28.361307 -14.912081
v -19.531107 -21.619095 5.913637
v -18.345165 28.361307 -14.912081
v -11.018458 32.298805 -13.552608
v -22.810757 22.275412 -18.744652
v -3.474548 -22.783203 22.870218
v -1.964169 -20.369102 26.238995
v -27.157347 0.695325 -27.362301
v -29.885405 -6.888658 -21.908485
v -29.885405 -6.888658 -21.908485
v -30.024309 -11.222689 -16.342850
v -27.157347 0.695325 -27.362301
v -19.458378 10.320312 -29.341238
vt 1.514890 1.000000
vt 2.116940 0.977539
vt 2.331180 0.974976
vt 1.829470 0.951416
vt 1.633540 0.955811
vt 1.862790 0.866455
vt 1.633060 0.874268
vt 1.878660 0.749146
vt 1.640380 0.758301
vt 1.889770 0.652344
vt 1.646000 0.661621
vt 1.640380 0.568604
vt 1.404660 0.669434
vt 1.401730 0.576294
vt 1.168950 0.673340
vt 1.170170 0.580200
vt 0.932495 0.579346
vt 0.950317 0.485718
vt 0.688232 0.574097
vt 0.707275 0.480469
vt 0.435059 0.565552
vt 0.442749 0.472168
vt 0.136230 0.454834
vt 0.125854 0.326050
vt -0.126831 0.319458
vt -0.175537 0.228149
vt -0.345093 0.225586
vt -0.195801 0.111084
vt -0.327148 0.105103
vt -0.196045 0.044556
vt -0.320679 0.043091
vt -0.200684 0.000610
vt -0.411255 0.000000
vt -0.526611 0.001465
vt -0.444092 0.043701
vt -0.593506 0.046143
vt -0.455566 0.109985
vt -0.615479 0.109741
vt -0.735229 0.230835
vt -0.911743 0.141357
vt 2.177000 0.580933
vt 2.178830 0.673950
vt 1.884890 0.559204
vt 1.633180 0.475342
vt 1.401000 0.482666
vt 1.177370 0.486450
vt 1.167850 0.347290
vt 0.951904 0.346436
vt 1.165160 0.252441
vt 0.974854 0.251465
vt 1.139530 0.146851
vt 0.946289 0.146118
vt 0.918823 0.097290
vt 0.645142 0.094849
vt 0.555420 0.046021
vt 0.134888 0.077271
vt -0.254883 0.052612
vt -0.079224 0.002319
vt -0.110107 0.671753
vt -0.359009 0.765015
vt -0.349609 0.667725
vt -0.117798 0.768921
vt 0.135986 0.679565
vt 0.132080 0.776367
vt 0.442993 0.755371
vt 0.465210 0.871582
vt 0.732056 0.878662
vt 0.797729 0.958496
vt 0.973145 0.883179
vt 1.030030 0.961060
vt 1.240840 0.961426
vt 1.439700 0.959473
vt 1.412840 0.880615
vt 1.407960 0.765747
vt -0.044190 0.047729
vt 0.224731 0.096680
vt 0.679810 0.142944
vt 0.722046 0.247192
vt 0.705078 0.341553
vt 2.259030 0.076294
vt 1.702390 0.045044
vt 2.745000 0.052612
vt 1.633540 0.093262
vt 2.123780 0.094727
vt 1.609500 0.140869
vt 2.088130 0.141357
vt 1.946780 0.237427
vt 2.264650 0.230835
vt 1.902220 0.329346
vt 2.182860 0.321899
vt 1.878910 0.466309
vt 2.162600 0.449707
vt -0.583496 0.575562
vt -0.822876 0.580933
vt -0.837280 0.449707
vt -0.582031 0.668579
vt -0.595825 0.765747
vt -0.613892 0.885010
vt -0.380249 0.884277
vt -0.668701 0.974976
vt -0.437988 0.974609
vt 0.926025 0.672607
vt 0.677002 0.667236
vt 0.429565 0.658813
vt 0.132446 0.586426
vt 1.382690 0.343994
vt 1.355220 0.249878
vt 1.332760 0.145020
vt 1.128050 0.097778
vt 1.338990 0.096313
vt 1.340330 0.046875
vt 0.529419 0.954468
vt 0.101440 0.980225
vt 0.122559 0.893921
vt -0.137695 0.887573
vt 1.177610 0.769653
vt 0.943359 0.768921
vt 0.699463 0.763672
vt 0.841309 0.047363
vt 1.084470 0.047607
vt -0.594971 0.444458
vt -0.350952 0.574707
vt -0.358887 0.443604
vt -0.118774 0.447510
vt -0.348633 0.316162
vt 0.370972 0.240723
vt 0.248901 0.143555
vt 0.045776 0.233765
vt -0.034546 0.111694
vt 1.605590 0.244385
vt 1.624630 0.337402
vt -0.112549 0.578735
vt 1.196290 0.883911
vt 0.417114 0.334106
vt -0.569336 0.317139
vt -0.514893 0.226563
vt -0.182739 0.976563
vt -0.817017 0.321899
vt 2.817140 0.976563
vt 3.101440 0.980225
vt 2.561890 0.974609
vt -0.876099 0.094727
vt -0.740845 0.076294
vt 2.152950 0.889526
vt 2.166630 0.770996
vt -0.833252 0.770996
vt -0.821045 0.673950
vt -0.846924 0.889526
vt -0.882935 0.977539
vn -0.1040 0.6002 -0.7930
vn -0.2387 0.3271 -0.9143
vn -0.2433 0.6050 -0.7582
vn -0.2070 0.2447 -0.9472
vn -0.1008 0.2886 -0.9521
vn -0.2922 -0.1819 -0.9389
vn 0.0355 -0.1543 -0.9874
vn -0.3008 -0.5959 -0.7446
vn 0.1657 -0.5872 -0.7923
vn -0.2907 -0.7725 -0.5646
vn 0.2046 -0.7464 -0.6332
vn 0.2282 -0.7951 -0.5619
vn 0.6654 -0.5104 -0.5448
vn 0.6677 -0.5375 -0.5150
vn 0.9394 -0.1228 -0.3201
vn 0.9479 -0.1628 -0.2738
vn 0.9737 0.2062 0.0968
vn 0.9637 0.0467 0.2627
vn 0.7487 0.4490 0.4878
vn 0.7368 0.2870 0.6122
vn 0.3522 0.5683 0.7437
vn 0.3780 0.4158 0.8272
vn -0.0826 0.4458 0.8913
vn 0.0079 0.2765 0.9610
vn -0.4683 0.2306 0.8529
vn -0.4619 0.2720 0.8442
vn -0.8439 -0.0704 0.5319
vn -0.3751 0.3484 0.8590
vn -0.7811 -0.1124 0.6142
vn -0.2115 0.0005 0.9774
vn -0.3813 -0.4369 0.8147
vn 0.0046 -0.4160 0.9094
vn -0.1010 -0.7004 0.7066
vn 0.2454 -0.8994 0.3618
vn -0.4874 -0.7479 0.4506
vn -0.2334 -0.9614 0.1457
vn -0.7208 -0.6607 0.2095
vn -0.4457 -0.8950 0.0190
vn -0.4472 -0.8801 0.1598
vn -0.1442 -0.9871 -0.0701
vn -0.4760 -0.7898 -0.3868
vn -0.4969 -0.7171 -0.4888
vn -0.2579 -0.8558 -0.4483
vn 0.2589 -0.9154 -0.3081
vn 0.6668 -0.6867 -0.2897
vn 0.9438 -0.3184 -0.0883
vn 0.8758 -0.4539 0.1643
vn 0.8751 -0.0873 0.4761
vn 0.7905 -0.5285 0.3096
vn 0.7938 -0.1783 0.5815
vn 0.7514 -0.5443 0.3729
vn 0.7794 -0.1340 0.6120
vn 0.7084 -0.2289 0.6676
vn 0.5260 0.0710 0.8475
vn 0.2627 -0.2302 0.9370
vn 0.4383 -0.2486 0.8638
vn 0.6027 -0.5644 0.5641
vn 0.4972 -0.2341 0.8355
vn -0.6779 0.5631 0.4726
vn -0.9307 0.3654 -0.0176
vn -0.9496 0.1958 0.2450
vn -0.6758 0.7203 0.1562
vn -0.2065 0.8039 0.5578
vn -0.2287 0.9558 0.1845
vn 0.2204 0.9673 0.1252
vn 0.1143 0.9690 -0.2189
vn 0.3594 0.8684 -0.3415
vn 0.0722 0.7947 -0.6027
vn 0.5571 0.6295 -0.5416
vn 0.1590 0.6783 -0.7174
vn 0.1575 0.5333 -0.8311
vn 0.0653 0.3895 -0.9187
vn 0.3756 0.0206 -0.9266
vn 0.6147 -0.3787 -0.6918
vn 0.2052 0.2149 0.9548
vn 0.4166 0.0473 0.9078
vn 0.5924 0.1831 0.7845
vn 0.5975 0.0567 0.7998
vn 0.6545 0.1260 0.7455
vn -0.1119 -0.8440 0.5246
vn 0.0143 -0.8791 0.4764
vn -0.0489 -0.6678 0.7428
vn 0.1218 -0.9861 0.1134
vn 0.0131 -0.9720 0.2345
vn 0.1574 -0.9869 0.0343
vn -0.0900 -0.9942 0.0582
vn -0.0690 -0.9825 0.1731
vn -0.2053 -0.9603 0.1889
vn -0.0999 -0.9916 0.0824
vn -0.2562 -0.9590 0.1211
vn -0.1797 -0.9589 -0.2196
vn -0.3847 -0.9071 -0.1711
vn -0.9301 -0.3549 0.0946
vn -0.8404 -0.5384 -0.0629
vn -0.7402 -0.6659 0.0929
vn -0.9737 -0.2219 -0.0515
vn -0.9593 -0.0458 -0.2787
vn -0.7994 0.2393 -0.5511
vn -0.7688 0.5356 -0.3494
vn -0.5991 0.4196 -0.6820
vn -0.5735 0.6086 -0.5484
vn 0.9532 0.3021 -0.0101
vn 0.7015 0.6519 0.2879
vn 0.2956 0.8176 0.4941
vn -0.1609 0.5775 0.8004
vn 0.6054 -0.7959 0.0047
vn 0.5274 -0.8363 0.1496
vn 0.4972 -0.8544 0.1513
vn 0.6762 -0.5840 0.4492
vn 0.4669 -0.8539 0.2301
vn 0.3372 -0.7764 0.5324
vn 0.0148 0.8417 -0.5398
vn -0.1162 0.8746 -0.4707
vn -0.2112 0.9626 -0.1700
vn -0.5733 0.7921 -0.2097
vn 0.8783 0.0037 -0.4781
vn 0.8708 0.4388 -0.2218
vn 0.5959 0.8029 -0.0138
vn 0.4636 -0.4535 0.7612
vn 0.4507 -0.6276 0.6349
vn -0.8410 -0.4908 0.2277
vn -0.9033 0.0416 0.4269
vn -0.8433 -0.0766 0.5320
vn -0.5541 0.2754 0.7856
vn -0.8219 -0.0890 0.5627
vn 0.3416 0.1754 0.9233
vn 0.3464 0.3345 0.8764
vn 0.0491 0.3012 0.9523
vn 0.0318 0.4501 0.8924
vn 0.2020 -0.9708 0.1296
vn 0.2405 -0.9705 0.0171
vn -0.6203 0.3879 0.6817
vn 0.5697 0.3144 -0.7594
vn 0.3473 0.2398 0.9066
vn -0.7534 -0.5749 0.3193
vn -0.7436 -0.6046 0.2855
vn -0.4546 0.7683 -0.4507
vn -0.5770 -0.7812 0.2382
vn -0.2267 0.6443 -0.7304
vn -0.2168 0.6537 -0.7250
vn -0.2399 0.6255 -0.7424
vn 0.1166 -0.9810 0.1553
vn 0.4669 -0.8540 0.2295
vn -0.4137 -0.2025 -0.8876
vn -0.4960 -0.5549 -0.6679
vn -0.8818 -0.2129 -0.4209
vn -0.8848 -0.4156 -0.2106
vn -0.7443 0.1119 -0.6585
vn -0.5841 0.3211 -0.7455
usemtl m1ichigo_mat.001
s 1
f 1/1/1 2/2/2 3/3/3
f 1/1/1 4/4/4 2/2/2
f 5/5/5 4/4/4 1/1/1
f 5/5/5 6/6/6 4/4/4
f 7/7/7 6/6/6 5/5/5
f 7/7/7 8/8/8 6/6/6
f 9/9/9 8/8/8 7/7/7
f 9/9/9 10/10/10 8/8/8
f 11/11/11 10/10/10 9/9/9
f 11/11/11 12/12/12 10/10/10
f 13/13/13 12/12/12 11/11/11
f 13/13/13 14/14/14 12/12/12
f 15/15/15 14/14/14 13/13/13
f 15/15/15 16/16/16 14/14/14
f 17/17/17 16/16/16 15/15/15
f 17/17/17 18/18/18 16/16/16
f 19/19/19 18/18/18 17/17/17
f 19/19/19 20/20/20 18/18/18
f 21/21/21 20/20/20 19/19/19
f 21/21/21 22/22/22 20/20/20
f 23/23/23 22/22/22 21/21/21
f 23/23/23 24/24/24 22/22/22
f 25/25/25 24/24/24 23/23/23
f 25/25/25 26/26/26 24/24/24
f 27/27/27 26/26/26 25/25/25
f 27/27/27 28/28/28 26/26/26
f 29/29/29 28/28/28 27/27/27
f 29/29/29 30/30/30 28/28/28
f 31/31/31 30/30/30 29/29/29
f 31/31/31 32/32/32 30/30/30
f 33/33/33 32/32/32 31/31/31
f 33/33/33 34/34/34 32/32/32
f 35/35/35 34/34/34 33/33/33
f 35/35/35 36/36/36 34/34/34
f 37/37/37 36/36/36 35/35/35
f 37/37/37 38/38/38 36/36/36
f 39/39/39 38/38/38 37/37/37
f 39/39/39 40/40/40 38/38/38
f 10/10/10 41/41/41 42/42/42
f 10/10/10 43/43/43 41/41/41
f 12/12/12 43/43/43 10/10/10
f 12/12/12 44/44/44 43/43/43
f 14/14/14 44/44/44 12/12/12
f 14/14/14 45/45/45 44/44/44
f 16/16/16 45/45/45 14/14/14
f 16/16/16 46/46/46 45/45/45
f 18/18/18 46/46/46 16/16/16
f 18/18/18 47/47/47 46/46/46
f 48/48/48 47/47/47 18/18/18
f 48/48/48 49/49/49 47/47/47
f 50/50/50 49/49/49 48/48/48
f 50/50/50 51/51/51 49/49/49
f 52/52/52 51/51/51 50/50/50
f 52/52/52 53/53/53 51/51/51
f 54/54/54 53/53/53 52/52/52
f 54/54/54 55/55/55 53/53/53
f 56/56/56 55/55/55 54/54/54
f 56/56/56 57/57/57 55/55/55
f 58/58/58 57/57/57 56/56/56
f 58/58/58 34/34/34 57/57/57
f 32/32/32 34/34/34 58/58/58
f 59/59/59 60/60/60 61/61/61
f 59/59/59 62/62/62 60/60/60
f 63/63/63 62/62/62 59/59/59
f 63/63/63 64/64/64 62/62/62
f 65/65/65 64/64/64 63/63/63
f 65/65/65 66/66/66 64/64/64
f 67/67/67 66/66/66 65/65/65
f 67/67/67 68/68/68 66/66/66
f 69/69/69 68/68/68 67/67/67
f 69/69/69 70/70/70 68/68/68
f 71/71/71 70/70/70 69/69/69
f 71/71/71 1/1/1 70/70/70
f 72/72/72 1/1/1 71/71/71
f 72/72/72 5/5/5 1/1/1
f 73/73/73 5/5/5 72/72/72
f 73/73/73 7/7/7 5/5/5
f 74/74/74 7/7/7 73/73/73
f 74/74/74 9/9/9 7/7/7
f 11/11/11 9/9/9 74/74/74
f 58/58/58 30/30/30 32/32/32
f 58/58/58 75/75/75 30/30/30
f 56/56/56 75/75/75 58/58/58
f 56/56/56 76/76/76 75/75/75
f 54/54/54 76/76/76 56/56/56
f 54/54/54 77/77/77 76/76/76
f 52/52/52 77/77/77 54/54/54
f 52/52/52 78/78/78 77/77/77
f 50/50/50 78/78/78 52/52/52
f 50/50/50 79/79/79 78/78/78
f 48/48/48 79/79/79 50/50/50
f 48/48/48 18/18/18 79/79/79
f 80/80/80 81/81/81 82/82/82
f 80/80/80 83/83/83 81/81/81
f 84/84/84 83/83/83 80/80/80
f 84/84/84 85/85/85 83/83/83
f 86/86/86 85/85/85 84/84/84
f 86/86/86 87/87/87 85/85/85
f 88/88/88 87/87/87 86/86/86
f 88/88/88 89/89/89 87/87/87
f 90/90/90 89/89/89 88/88/88
f 90/90/90 91/91/91 89/89/89
f 92/92/92 91/91/91 90/90/90
f 92/92/92 41/41/41 91/91/91
f 93/93/93 94/94/94 95/95/95
f 93/93/93 96/96/96 94/94/94
f 61/61/61 96/96/96 93/93/93
f 61/61/61 97/97/97 96/96/96
f 60/60/60 97/97/97 61/61/61
f 60/60/60 98/98/98 97/97/97
f 99/99/99 98/98/98 60/60/60
f 99/99/99 100/100/100 98/98/98
f 101/101/101 100/100/100 99/99/99
f 102/102/102 17/17/17 15/15/15
f 102/102/102 19/19/19 17/17/17
f 103/103/103 19/19/19 102/102/102
f 103/103/103 21/21/21 19/19/19
f 104/104/104 21/21/21 103/103/103
f 104/104/104 105/105/105 21/21/21
f 63/63/63 105/105/105 104/104/104
f 63/63/63 59/59/59 105/105/105
f 49/49/49 106/106/106 47/47/47
f 49/49/49 107/107/107 106/106/106
f 51/51/51 107/107/107 49/49/49
f 51/51/51 108/108/108 107/107/107
f 109/109/109 108/108/108 51/51/51
f 109/109/109 110/110/110 108/108/108
f 111/111/111 110/110/110 109/109/109
f 111/111/111 81/81/81 110/110/110
f 1/1/1 68/68/68 70/70/70
f 1/1/1 112/112/112 68/68/68
f 113/113/113 112/112/112 1/1/1
f 113/113/113 114/114/114 112/112/112
f 115/115/115 114/114/114 113/113/113
f 115/115/115 62/62/62 114/114/114
f 99/99/99 62/62/62 115/115/115
f 99/99/99 60/60/60 62/62/62
f 116/116/116 15/15/15 13/13/13
f 116/116/116 102/102/102 15/15/15
f 117/117/117 102/102/102 116/116/116
f 117/117/117 103/103/103 102/102/102
f 118/118/118 103/103/103 117/117/117
f 118/118/118 104/104/104 103/103/103
f 65/65/65 104/104/104 118/118/118
f 65/65/65 63/63/63 104/104/104
f 81/81/81 55/55/55 82/82/82
f 81/81/81 119/119/119 55/55/55
f 111/111/111 119/119/119 81/81/81
f 111/111/111 120/120/120 119/119/119
f 109/109/109 120/120/120 111/111/111
f 109/109/109 119/119/119 120/120/120
f 53/53/53 119/119/119 109/109/109
f 53/53/53 55/55/55 119/119/119
f 121/121/121 93/93/93 95/95/95
f 121/121/121 122/122/122 93/93/93
f 123/123/123 122/122/122 121/121/121
f 123/123/123 124/124/124 122/122/122
f 125/125/125 124/124/124 123/123/123
f 125/125/125 25/25/25 124/124/124
f 27/27/27 25/25/25 125/125/125
f 126/126/126 77/77/77 78/78/78
f 126/126/126 127/127/127 77/77/77
f 128/128/128 127/127/127 126/126/126
f 128/128/128 129/129/129 127/127/127
f 28/28/28 129/129/129 128/128/128
f 28/28/28 75/75/75 129/129/129
f 30/30/30 75/75/75 28/28/28
f 83/83/83 110/110/110 81/81/81
f 83/83/83 108/108/108 110/110/110
f 85/85/85 108/108/108 83/83/83
f 85/85/85 130/130/130 108/108/108
f 87/87/87 130/130/130 85/85/85
f 87/87/87 89/89/89 130/130/130
f 44/44/44 89/89/89 91/91/91
f 44/44/44 131/131/131 89/89/89
f 45/45/45 131/131/131 44/44/44
f 45/45/45 106/106/106 131/131/131
f 46/46/46 106/106/106 45/45/45
f 46/46/46 47/47/47 106/106/106
f 122/122/122 61/61/61 93/93/93
f 122/122/122 132/132/132 61/61/61
f 124/124/124 132/132/132 122/122/122
f 124/124/124 105/105/105 132/132/132
f 23/23/23 105/105/105 124/124/124
f 23/23/23 21/21/21 105/105/105
f 74/74/74 13/13/13 11/11/11
f 74/74/74 116/116/116 13/13/13
f 73/73/73 116/116/116 74/74/74
f 73/73/73 133/133/133 116/116/116
f 72/72/72 133/133/133 73/73/73
f 72/72/72 71/71/71 133/133/133
f 134/134/134 78/78/78 79/79/79
f 134/134/134 126/126/126 78/78/78
f 24/24/24 126/126/126 134/134/134
f 24/24/24 128/128/128 126/126/126
f 26/26/26 128/128/128 24/24/24
f 26/26/26 28/28/28 128/128/128
f 135/135/135 125/125/125 123/123/123
f 135/135/135 27/27/27 125/125/125
f 136/136/136 27/27/27 135/135/135
f 136/136/136 37/37/37 27/27/27
f 39/39/39 37/37/37 136/136/136
f 20/20/20 79/79/79 18/18/18
f 20/20/20 134/134/134 79/79/79
f 22/22/22 134/134/134 20/20/20
f 22/22/22 24/24/24 134/134/134
f 69/69/69 133/133/133 71/71/71
f 69/69/69 117/117/117 133/133/133
f 118/118/118 117/117/117 69/69/69
f 115/115/115 101/101/101 99/99/99
f 115/115/115 137/137/137 101/101/101
f 113/113/113 137/137/137 115/115/115
f 138/138/138 135/135/135 95/95/95
f 138/138/138 136/136/136 135/135/135
f 39/39/39 136/136/136 138/138/138
f 1/1/1 139/139/139 140/140/140
f 1/1/1 141/141/141 139/139/139
f 3/3/3 141/141/141 1/1/1
f 36/36/36 142/142/142 143/143/143
f 36/36/36 40/40/40 142/142/142
f 38/38/38 40/40/40 36/36/36
f 131/131/131 130/130/130 89/89/89
f 131/131/131 107/107/107 130/130/130
f 106/106/106 107/107/107 131/131/131
f 121/121/121 135/135/135 123/123/123
f 121/121/121 95/95/95 135/135/135
f 31/31/31 35/35/35 33/33/33
f 31/31/31 29/29/29 35/35/35
f 59/59/59 132/132/132 105/105/105
f 59/59/59 61/61/61 132/132/132
f 4/4/4 144/144/144 2/2/2
f 4/4/4 6/6/6 144/144/144
f 114/114/114 64/64/64 66/66/66
f 114/114/114 62/62/62 64/64/64
f 67/67/67 118/118/118 69/69/69
f 67/67/67 65/65/65 118/118/118
f 112/112/112 66/66/66 68/68/68
f 112/112/112 114/114/114 66/66/66
f 6/6/6 145/145/145 144/144/144
f 6/6/6 8/8/8 145/145/145
f 8/8/8 42/42/42 145/145/145
f 8/8/8 10/10/10 42/42/42
f 34/34/34 143/143/143 57/57/57
f 34/34/34 36/36/36 143/143/143
f 127/127/127 76/76/76 77/77/77
f 127/127/127 129/129/129 76/76/76
f 29/29/29 37/37/37 35/35/35
f 29/29/29 27/27/27 37/37/37
f 43/43/43 91/91/91 41/41/41
f 43/43/43 44/44/44 91/91/91
f 146/146/146 96/96/96 97/97/97
f 146/146/146 147/147/147 96/96/96
f 148/148/148 97/97/97 98/98/98
f 148/148/148 146/146/146 97/97/97
f 149/149/149 98/98/98 100/100/100
f 149/149/149 148/148/148 98/98/98
f 107/107/107 108/108/108 130/130/130
f 75/75/75 76/76/76 129/129/129
f 124/124/124 25/25/25 23/23/23
f 116/116/116 133/133/133 117/117/117
f 147/147/147 94/94/94 96/96/96
f 53/53/53 109/109/109 51/51/51
