# Blender v3.0.0 OBJ File: ''
# www.blender.org
mtllib tomato_top.mtl
o meshes_0-0_Mesh.004
v -6.695312 37.035156 1.855475
v -3.617188 37.765625 7.105475
v -3.886719 41.367188 3.835944
v 0.000000 41.367188 5.390632
v 2.335938 38.347656 7.664069
v 4.347656 41.367188 4.347663
v 7.082031 37.253906 2.710943
v 5.656250 41.367188 0.000007
v 6.972656 38.527344 -3.660150
v 3.496094 41.367188 -3.492181
v 3.500000 38.988281 -7.312494
v 0.000000 41.367188 -5.109368
v -2.945312 38.488281 -7.519525
v -4.347656 41.367188 -4.347650
v -6.878906 38.722656 -3.617181
v -5.800781 41.367188 0.000007
v -57.246094 48.605465 30.414070
v -42.562500 44.769527 32.597664
v -42.660156 44.769527 31.335945
v -35.937500 45.679684 30.683601
v -35.324219 45.679684 32.445320
v -28.539062 46.593746 29.011726
v -27.414062 46.593746 31.277351
v -20.996094 44.390621 26.554695
v -18.847656 44.390621 29.121101
v -14.128906 42.503902 22.410164
v -10.957031 42.183590 25.269539
v -7.097656 42.539059 21.617195
v 13.089844 42.472656 9.375007
v 20.210938 45.347656 10.742195
v 16.113281 41.867188 3.457038
v 22.246094 44.625000 5.359382
v 27.839844 47.882812 10.925789
v 28.886719 45.988281 6.074226
v 34.699219 49.433594 9.792976
v -15.164062 46.617191 -24.097649
v -13.750000 43.652348 -14.582025
v -7.781250 44.175785 -19.945305
v -4.898438 42.953129 -16.906242
v -5.535156 41.554688 -10.898431
v -1.402344 41.570316 -12.921868
v -2.945312 38.488281 -7.519525
v 3.964844 40.972656 9.292975
v 7.621094 40.882812 8.109382
v 2.335938 38.347656 7.664069
v 7.082031 37.253906 2.710943
v 11.261719 39.644531 -0.320306
v 6.972656 38.527344 -3.660150
v 9.933594 40.457031 -4.253900
v 60.871094 48.972652 13.949226
v 52.210938 49.347656 10.976570
v 51.550781 49.976559 13.671884
v 41.894531 50.984375 10.183602
v 42.863281 49.722656 6.132821
v 35.703125 47.855469 5.343758
v 47.546875 47.320324 -63.093742
v 31.031250 49.523445 -56.796867
v 32.214844 49.523445 -54.925774
v 23.812500 49.878914 -48.542961
v 21.816406 50.058601 -51.374992
v 15.304688 50.589851 -42.566399
v 11.128906 43.300785 -19.542961
v 13.300781 44.621098 -25.503899
v 7.175781 44.468754 -26.609367
v 11.746094 47.531254 -34.332024
v 15.878906 47.218754 -31.968742
v 18.796875 50.230476 -41.140617
v -6.695312 37.035156 1.855475
v -9.375000 40.765625 8.753913
v -3.617188 37.765625 7.105475
v 1.140625 41.222656 10.886725
v -8.027344 40.378906 10.683600
v -19.882812 42.359375 8.875007
v -24.187500 44.214840 14.312508
v -17.589844 42.226559 13.027350
v -21.687500 43.953121 18.074226
v -26.957031 45.613277 21.585945
v -2.945312 38.488281 -7.519525
v 3.500000 38.988281 -7.312494
v -1.402344 41.570316 -12.921868
v 9.621094 41.265625 -7.214837
v 6.972656 38.527344 -3.660150
v -9.667969 41.542969 -8.878900
v -6.878906 38.722656 -3.617181
v -9.691406 40.429688 -4.929681
v -10.847656 40.410156 -1.910150
v -6.878906 38.722656 -3.617181
v -6.695312 37.035156 1.855475
v -9.375000 40.765625 8.753913
v 10.359375 40.976566 -14.093743
v 2.050781 42.140629 -16.652336
v 5.027344 43.304691 -21.628899
v -9.171875 40.804684 15.589850
v -1.449219 41.152340 12.816413
v -10.015625 41.265621 18.312508
v -4.214844 41.773434 18.738289
v 3.964844 40.972656 9.292975
v 2.335938 38.347656 7.664069
v -11.578125 40.519531 7.968757
v -13.933594 40.519531 2.496100
v -68.738281 38.417976 -42.175774
v -54.496094 41.085941 -31.664055
v -53.238281 41.687504 -34.050774
v -45.542969 43.285160 -28.332024
v -43.835938 44.289066 -32.171867
v -34.562500 45.488285 -25.507805
v -32.070312 46.894535 -30.124992
v -26.347656 45.542973 -21.554680
v -23.953125 46.753910 -26.433586
v -19.148438 45.601566 -19.121086
v -29.886719 45.640617 51.914070
v -32.417969 47.203117 38.093758
v -34.925781 47.203117 38.230476
v -33.000000 46.640621 30.496101
v -29.679688 45.746090 18.515633
v -33.312500 46.078121 23.398445
v -30.367188 46.078121 25.773445
v -35.726562 46.640621 29.375008
v 79.378906 48.972652 11.914070
v 61.222656 48.972652 12.601570
v -9.691406 40.429688 -4.929681
v 9.933594 40.457031 -4.253900
v 9.621094 41.265625 -7.214837
vt 0.176270 -0.026123
vt 0.417358 -0.063354
vt 0.390869 -0.031372
vt 0.549072 -0.044556
vt 0.681030 -0.063477
vt 0.707397 -0.031372
vt 0.812866 -0.026123
vt 0.773193 0.000244
vt 0.813354 0.026733
vt 0.707397 0.031982
vt 0.680908 0.063965
vt 0.549072 0.045166
vt 0.417114 0.064087
vt 0.390869 0.031982
vt 0.176636 0.026611
vt 0.324951 0.000244
vt 0.525391 0.989624
vt 0.272583 0.901367
vt 0.879150 0.885498
vt 0.870605 0.765991
vt 0.259399 0.815308
vt 0.868530 0.697998
vt 0.273926 0.717163
vt 0.900879 0.614868
vt 0.285278 0.654297
vt 0.878418 0.480835
vt 0.326904 0.512817
vt 0.302002 0.444092
vt 0.807129 0.205444
vt 0.792847 0.291382
vt 0.304932 0.214355
vt 0.283569 0.291382
vt 0.793701 0.377930
vt 0.266602 0.369019
vt 0.752563 0.450195
vt 0.990845 0.458862
vt 0.033691 0.300781
vt 0.958984 0.331543
vt 0.969238 0.282471
vt 0.669312 0.206665
vt 0.975098 0.080444
vt 0.491211 0.069824
vt 0.990845 0.119507
vt 0.836426 0.161743
vt 0.913330 0.093262
vt 0.547974 0.128540
vt 0.246704 0.167725
vt 0.171997 0.098877
vt 0.040283 0.130615
vt 0.747803 0.762085
vt 0.237305 0.651978
vt 0.785767 0.656128
vt 0.783081 0.532715
vt 0.245239 0.526367
vt 0.246948 0.442505
vt 0.468262 0.968262
vt 0.039673 0.858521
vt 0.915894 0.841309
vt 0.876465 0.739014
vt 0.022217 0.763916
vt 0.021240 0.615967
vt 0.902710 0.300293
vt 0.884766 0.388062
vt -0.002930 0.368164
vt 0.056396 0.491699
vt 0.884155 0.484497
vt 0.851318 0.617188
vt 0.949341 0.053711
vt 0.974731 0.160889
vt 0.583130 0.112793
vt 0.228638 0.155029
vt 0.959106 0.230957
vt 0.684937 0.371338
vt 0.643921 0.449097
vt 0.061279 0.355713
vt 0.091431 0.443848
vt 0.083008 0.518921
vt 0.055664 0.053467
vt 0.497803 0.133911
vt 0.021240 0.174561
vt 0.985840 0.161133
vt 0.932861 0.058960
vt 0.028564 0.247681
vt 0.014160 0.091553
vt 0.989990 0.228516
vt 0.801880 0.240845
vt 0.920410 0.143677
vt 0.559937 0.117676
vt 0.213501 0.127563
vt 0.934082 0.226807
vt 0.024414 0.213257
vt 0.006592 0.292969
vt 0.875244 0.310669
vt 0.203857 0.241333
vt 0.886963 0.404541
vt 0.269653 0.340576
vt 0.062866 0.115234
vt 0.180542 0.089111
vt 0.104004 0.247803
vt 0.682617 0.303467
vt 0.527100 0.999756
vt 0.012939 0.940918
vt 0.979370 0.940063
vt 0.013428 0.822266
vt 0.980103 0.824463
vt 0.009888 0.683716
vt 0.976807 0.681396
vt 0.023560 0.569824
vt 0.984253 0.570190
vt 0.036987 0.475830
vt 0.239014 0.972168
vt 0.173462 0.809082
vt 0.585693 0.858032
vt 0.151123 0.732056
vt 0.611694 0.573120
vt 0.555664 0.658936
vt 0.063354 0.640381
vt 0.572266 0.764526
vt 0.369873 0.961426
vt 0.274780 0.760254
vt 0.056519 0.152588
vt 0.947998 0.040405
vt 0.912964 0.069336
vn 0.1177 0.9875 0.1044
vn 0.0163 0.9949 -0.0999
vn -0.3309 0.8592 0.3902
vn -0.0018 0.8384 0.5451
vn -0.0367 0.9889 -0.1438
vn 0.3980 0.8312 0.3883
vn -0.0309 0.9993 -0.0221
vn 0.5335 0.8451 0.0350
vn 0.0715 0.9861 0.1497
vn 0.3476 0.8939 -0.2829
vn -0.0250 0.9944 0.1024
vn -0.0139 0.9124 -0.4090
vn -0.0025 0.9996 0.0299
vn -0.3264 0.8956 -0.3022
vn -0.0739 0.9973 0.0007
vn -0.4729 0.8811 -0.0001
vn 0.2556 0.9666 -0.0202
vn 0.0446 0.9990 -0.0006
vn 0.0693 0.9976 -0.0054
vn -0.1198 0.9920 0.0397
vn -0.1172 0.9922 0.0425
vn 0.0476 0.9986 -0.0249
vn 0.0946 0.9939 -0.0558
vn 0.2085 0.9636 -0.1672
vn 0.2001 0.9639 -0.1756
vn 0.1522 0.9758 -0.1570
vn 0.1403 0.9778 -0.1556
vn 0.1010 0.9904 -0.0945
vn -0.2807 0.9490 -0.1434
vn -0.3167 0.9151 -0.2497
vn -0.3266 0.9153 -0.2357
vn -0.2731 0.9160 -0.2940
vn -0.2743 0.8864 -0.3729
vn -0.2529 0.8836 -0.3939
vn -0.2319 0.8968 -0.3767
vn 0.0675 0.9693 0.2363
vn 0.1470 0.9450 0.2922
vn 0.1501 0.9539 0.2600
vn 0.1533 0.9400 0.3048
vn 0.2056 0.8814 0.4253
vn 0.0335 0.9169 0.3978
vn -0.0024 0.9996 0.0298
vn -0.3288 0.4734 -0.8172
vn -0.4462 0.7541 -0.4818
vn -0.0367 0.9889 -0.1439
vn -0.0309 0.9993 -0.0222
vn -0.5221 0.8520 -0.0395
vn -0.5481 0.7803 0.3012
vn 0.0311 0.9994 -0.0153
vn 0.1381 0.9716 -0.1922
vn 0.1409 0.9711 -0.1926
vn -0.0135 0.9535 -0.3011
vn -0.0283 0.9524 -0.3034
vn -0.2306 0.9019 -0.3652
vn 0.1066 0.9920 -0.0674
vn 0.0688 0.9969 -0.0372
vn 0.0675 0.9968 -0.0427
vn 0.0762 0.9971 0.0082
vn 0.0756 0.9971 0.0097
vn 0.0218 0.9816 0.1897
vn 0.0264 0.9645 0.2626
vn -0.0348 0.9481 0.3161
vn -0.0020 0.9557 0.2943
vn -0.0855 0.9404 0.3293
vn -0.1201 0.9351 0.3335
vn 0.0235 0.9858 0.1662
vn 0.2149 0.9563 -0.1985
vn -0.1201 0.7619 -0.6364
vn -0.0471 0.9910 0.1257
vn 0.2716 0.9549 -0.1198
vn 0.2458 0.9633 -0.1082
vn 0.2708 0.9555 -0.1173
vn 0.2531 0.9621 -0.1016
vn 0.1330 0.9885 -0.0726
vn -0.2462 0.9145 0.3211
vn 0.0715 0.9862 0.1496
vn 0.2465 0.9028 0.3525
vn 0.4110 0.8839 0.2231
vn 0.3933 0.9169 0.0687
vn 0.1178 0.9875 0.1044
vn 0.2148 0.9563 -0.1986
vn 0.1213 0.9910 0.0559
vn 0.0057 0.9864 0.1641
vn 0.0305 0.9696 0.2427
vn 0.0644 0.9890 -0.1328
vn -0.0416 0.9880 0.1489
vn 0.0999 0.9888 -0.1107
vn 0.0680 0.9936 -0.0905
vn 0.0829 0.9945 -0.0641
vn 0.1043 0.9935 -0.0454
vn -0.2579 0.9604 0.1058
vn -0.2646 0.9590 0.1018
vn -0.2675 0.9579 0.1043
vn -0.2607 0.9565 0.1312
vn -0.2556 0.9567 0.1392
vn -0.1842 0.9640 0.1920
vn -0.1619 0.9670 0.1969
vn -0.0841 0.9742 0.2094
vn -0.0665 0.9779 0.1982
vn 0.0242 0.9727 0.2307
vn 0.0061 0.9938 0.1112
vn 0.0013 0.9997 0.0232
vn 0.0041 1.0000 0.0091
vn 0.0301 0.9963 -0.0803
vn 0.1274 0.9893 -0.0707
vn 0.0585 0.9966 -0.0573
vn 0.0530 0.9960 -0.0721
vn 0.0384 0.9962 -0.0782
vn 0.0000 1.0000 0.0000
vn 0.0177 0.9998 0.0046
usemtl heta_mat
s 1
f 1/1/1 2/2/2 3/3/3
f 2/2/2 4/4/4 3/3/3
f 2/2/2 5/5/5 4/4/4
f 5/5/5 6/6/6 4/4/4
f 5/5/5 7/7/7 6/6/6
f 7/7/7 8/8/8 6/6/6
f 7/7/7 9/9/9 8/8/8
f 9/9/9 10/10/10 8/8/8
f 9/9/9 11/11/11 10/10/10
f 11/11/11 12/12/12 10/10/10
f 11/11/11 13/13/13 12/12/12
f 13/13/13 14/14/14 12/12/12
f 13/13/13 15/15/15 14/14/14
f 15/15/15 16/16/16 14/14/14
f 15/15/15 1/1/1 16/16/16
f 1/1/1 3/3/3 16/16/16
f 17/17/17 18/18/18 19/19/19
f 18/18/18 20/20/20 19/19/19
f 18/18/18 21/21/21 20/20/20
f 21/21/21 22/22/22 20/20/20
f 21/21/21 23/23/23 22/22/22
f 23/23/23 24/24/24 22/22/22
f 23/23/23 25/25/25 24/24/24
f 25/25/25 26/26/26 24/24/24
f 25/25/25 27/27/27 26/26/26
f 27/27/27 28/28/28 26/26/26
f 29/29/29 30/30/30 31/31/31
f 30/30/30 32/32/32 31/31/31
f 30/30/30 33/33/33 32/32/32
f 33/33/33 34/34/34 32/32/32
f 33/33/33 35/35/35 34/34/34
f 36/36/36 37/37/37 38/38/38
f 37/37/37 39/39/39 38/38/38
f 37/37/37 40/40/40 39/39/39
f 40/40/40 41/41/41 39/39/39
f 40/40/40 42/42/42 41/41/41
f 43/43/43 44/44/44 45/45/45
f 44/44/44 46/46/46 45/45/45
f 44/44/44 47/47/47 46/46/46
f 47/47/47 48/48/9 46/46/46
f 47/47/47 49/49/48 48/48/9
f 50/50/49 51/51/50 52/52/51
f 51/51/50 53/53/52 52/52/51
f 51/51/50 54/54/53 53/53/52
f 54/54/53 55/55/54 53/53/52
f 56/56/55 57/57/56 58/58/57
f 57/57/56 59/59/58 58/58/57
f 57/57/56 60/60/59 59/59/58
f 60/60/59 61/61/60 59/59/58
f 62/62/61 63/63/62 64/64/63
f 63/63/62 65/65/64 64/64/63
f 63/63/62 66/66/65 65/65/64
f 66/66/65 67/67/66 65/65/64
f 68/68/1 69/69/67 70/70/2
f 69/69/67 71/71/68 70/70/2
f 69/69/67 72/72/69 71/71/68
f 73/73/70 74/74/71 75/75/72
f 74/74/71 76/76/73 75/75/72
f 74/74/71 77/77/74 76/76/73
f 78/78/42 79/79/11 80/80/41
f 79/79/11 81/81/75 80/80/41
f 79/79/11 82/82/76 81/81/75
f 37/37/37 83/83/77 40/40/40
f 83/83/77 42/42/42 40/40/40
f 83/83/77 84/84/15 42/42/42
f 85/85/78 86/86/79 87/87/15
f 86/86/79 88/88/80 87/87/15
f 86/86/79 89/89/81 88/88/80
f 90/90/82 62/62/61 91/91/83
f 62/62/61 92/92/84 91/91/83
f 62/62/61 64/64/63 92/92/84
f 80/80/41 81/81/75 91/91/83
f 81/81/75 90/90/82 91/91/83
f 93/93/85 94/94/86 72/72/69
f 94/94/86 71/71/68 72/72/69
f 95/95/87 96/96/88 93/93/85
f 96/96/88 94/94/86 93/93/85
f 97/97/43 98/98/45 71/71/68
f 98/98/45 70/70/2 71/71/68
f 26/26/26 28/28/28 95/95/87
f 28/28/28 96/96/88 95/95/87
f 12/12/12 6/6/6 10/10/10
f 6/6/6 8/8/8 10/10/10
f 14/14/14 4/4/4 12/12/12
f 4/4/4 6/6/6 12/12/12
f 16/16/16 3/3/3 14/14/14
f 3/3/3 4/4/4 14/14/14
f 89/89/81 86/86/79 99/99/89
f 86/86/79 100/100/90 99/99/89
f 99/99/89 100/100/90 75/75/72
f 100/100/90 73/73/70 75/75/72
f 101/101/91 102/102/92 103/103/93
f 102/102/92 104/104/94 103/103/93
f 103/103/93 104/104/94 105/105/95
f 104/104/94 106/106/96 105/105/95
f 105/105/95 106/106/96 107/107/97
f 106/106/96 108/108/98 107/107/97
f 107/107/97 108/108/98 109/109/99
f 108/108/98 110/110/100 109/109/99
f 109/109/99 110/110/100 36/36/36
f 110/110/100 37/37/37 36/36/36
f 111/111/101 112/112/102 113/113/103
f 112/112/102 114/114/104 113/113/103
f 74/74/71 115/115/105 77/77/74
f 115/115/105 116/116/106 77/77/74
f 77/77/74 116/116/106 117/117/107
f 116/116/106 118/118/108 117/117/107
f 117/117/107 118/118/108 114/114/104
f 118/118/108 113/113/103 114/114/104
f 59/59/58 61/61/60 67/67/66
f 61/61/60 65/65/64 67/67/66
f 119/119/109 120/120/110 50/50/49
f 120/120/110 51/51/50 50/50/49
f 53/53/52 55/55/54 35/35/35
f 55/55/54 34/34/34 35/35/35
f 47/47/47 44/44/44 31/31/31
f 44/44/44 29/29/29 31/31/31
f 83/83/77 121/121/78 84/84/15
f 122/122/48 123/123/75 9/9/9
