# Blender v3.0.0 OBJ File: ''
# www.blender.org
mtllib small_marble_inside.mtl
o mesh-2_meshId2_name.001
v 7.233581 -2.779137 0.650832
v 3.810824 -0.780317 0.767785
v 8.204906 0.266940 2.863054
v 4.378880 1.261414 3.173658
v 5.559791 4.703535 4.749099
v 0.552866 2.255890 3.484270
v 1.733779 5.698010 5.060092
v -2.645100 4.436215 1.886045
v -1.464562 7.877979 3.461867
v -6.261891 5.825975 1.560635
v -7.233581 2.779137 -0.650832
v -3.616791 1.389378 -0.325416
v -4.662148 -0.586281 2.855464
v -0.014809 0.213779 1.078393
v -0.851325 -1.366593 3.623245
v 2.376637 -3.974863 3.064303
v -2.285503 -4.561521 5.919759
v 1.136865 -6.560349 5.803189
v -7.233581 2.779137 -0.650832
v -3.616791 1.389378 -0.325416
v -4.588100 -1.656697 -2.537262
v -0.014809 0.213779 1.078393
v -0.552866 -2.255890 -3.484270
v 2.645100 -4.436215 -1.886045
v -1.315337 -4.907444 -6.332519
v 2.091851 -6.692486 -5.370697
v -3.616791 1.389378 -0.325416
v -2.182223 4.584306 -2.621933
v -0.014809 0.213779 1.078393
v 1.239772 2.585485 -2.738504
v 4.662148 0.586281 -2.855464
v 2.285503 4.561521 -5.919759
v 6.096708 3.781204 -5.151980
v -1.330906 5.951280 -6.245560
v -6.187842 4.755554 -3.832084
v -7.233581 2.779137 -0.650832
v -0.014809 0.213779 1.078393
v -3.616791 1.389378 -0.325416
v 3.810824 -0.780317 0.767785
v 7.233581 -2.779137 0.650832
v 6.471112 -5.430691 -2.196657
v -5.350570 -4.308252 -5.385502
v -8.204906 -0.266940 -2.863054
v 3.810824 -0.780317 0.767785
v 7.233581 -2.779137 0.650832
v 6.187842 -4.755554 3.832084
v -5.902294 -3.171762 5.594349
v -8.279327 0.803094 2.529665
v -7.233581 2.779137 -0.650832
v 3.810824 -0.780317 0.767785
v 7.233581 -2.779137 0.650832
v 8.279327 -0.803094 -2.529665
vt 0.113770 0.995483
vt 0.987549 0.509644
vt 0.980957 1.017330
vt 0.278442 0.560791
vt -0.174072 0.882507
vt 0.370239 0.001831
vt -0.187683 0.235779
vt 0.322998 0.517212
vt -0.195313 0.597656
vt 0.328064 1.081300
vt 0.059631 0.663452
vt 1.003170 0.444092
vt 1.022160 1.015500
vt 1.010620 0.001831
vt 0.335938 0.023743
vt 0.361450 0.414551
vt -0.194824 -0.027405
vt -0.134033 0.414551
vt 0.310974 0.444092
vt 1.059390 0.444092
vt 1.059390 1.015500
vt 1.073240 0.001831
vt 0.328979 0.001831
vt 0.368591 0.509644
vt -0.286499 0.001831
vt -0.207336 0.509644
vt 1.033200 0.001831
vt 0.408936 0.444092
vt 1.109990 0.444092
vt 0.408936 0.001831
vt 0.408936 0.509644
vt -0.059875 0.001831
vt -0.059875 0.509644
vt -0.059875 0.444092
vt 0.408936 1.015500
vt 1.026250 1.015500
vt 1.044620 0.001831
vt 1.003780 0.444092
vt 1.073240 0.509644
vt 1.059390 1.017330
vt 0.393799 1.017330
vt -0.174927 0.444092
vt 0.303772 1.015500
vt 0.991699 0.509644
vt 1.029790 1.017330
vt 0.453064 1.017330
vt -0.386597 0.356384
vt 0.173706 0.913208
vt 0.977112 1.015500
vt 1.109990 0.509644
vt 1.026250 1.017330
vt 0.408936 1.017330
vn -0.1543 -0.5520 0.8194
vn -0.1744 -0.6845 0.7078
vn -0.2689 -0.5083 0.8180
vn -0.0871 -0.5866 0.8051
vn -0.0316 -0.4070 0.9129
vn -0.3554 -0.4925 0.7944
vn -0.3003 -0.3099 0.9021
vn -0.3997 -0.3839 0.8324
vn -0.4356 -0.2469 0.8656
vn -0.2517 -0.4552 0.8540
vn 0.1451 0.7392 0.6576
vn 0.1632 0.8131 0.5587
vn 0.2498 0.7836 0.5689
vn 0.2406 0.7231 0.6474
vn 0.2769 0.6435 0.7136
vn 0.2491 0.6224 0.7420
vn 0.2525 0.5687 0.7828
vn 0.2525 0.6439 0.7222
vn -0.1912 -0.6689 0.7183
vn -0.3644 -0.4683 0.8049
vn -0.2690 -0.5083 0.8181
vn -0.3049 -0.6733 0.6735
vn -0.3340 -0.7293 0.5970
vn -0.3493 -0.6804 0.6442
vn -0.2816 -0.6982 0.6581
vn -0.4021 -0.7381 0.5418
vn 0.2571 0.7495 0.6100
vn 0.1629 0.8166 0.5538
vn 0.0092 0.5809 0.8139
vn 0.4126 0.7227 0.5545
vn 0.2693 0.7121 0.6484
vn 0.2222 0.7294 0.6470
vn 0.0174 0.5784 0.8155
vn 0.2210 0.8654 0.4497
vn -0.0967 0.8898 0.4459
vn 0.0097 0.7249 0.6887
vn -0.3688 -0.6185 0.6938
vn -0.3533 -0.4731 0.8070
vn -0.1696 -0.5430 0.8224
vn -0.2073 -0.6041 0.7695
vn -0.1423 -0.7494 0.6466
vn -0.0683 -0.7210 0.6895
vn -0.2850 -0.5590 0.7786
vn 0.2524 0.4875 0.8358
vn 0.1921 0.6690 0.7180
vn 0.0455 0.8045 0.5922
vn 0.1922 0.6687 0.7183
vn 0.2314 0.7482 0.6218
vn -0.2689 -0.5081 0.8182
vn 0.3611 0.8413 0.4022
vn 0.3652 0.7908 0.4912
vn 0.2127 0.7110 0.6702
usemtl m2moyou_mat.001
s 1
f 3/1/1 2/2/2 1/3/3
f 3/1/1 4/4/4 2/2/2
f 5/5/5 4/4/4 3/1/1
f 5/5/5 6/6/6 4/4/4
f 7/7/7 6/6/6 5/5/5
f 7/7/7 8/8/8 6/6/6
f 9/9/9 8/8/8 7/7/7
f 9/9/9 10/10/10 8/8/8
f 13/11/11 12/12/12 11/13/13
f 13/11/11 14/14/14 12/12/12
f 15/15/15 14/14/14 13/11/11
f 15/15/15 16/16/16 14/14/14
f 17/17/17 16/16/16 15/15/15
f 17/17/17 18/18/18 16/16/16
f 21/19/19 20/20/20 19/21/21
f 21/19/19 22/22/22 20/20/20
f 23/23/23 22/22/22 21/19/19
f 23/23/23 24/24/24 22/22/22
f 25/25/25 24/24/24 23/23/23
f 25/25/25 26/26/26 24/24/24
f 29/27/27 28/28/28 27/29/29
f 29/27/27 30/30/30 28/28/28
f 31/31/31 30/30/30 29/27/27
f 31/31/31 32/32/32 30/30/30
f 33/33/33 32/32/32 31/31/31
f 34/34/34 30/30/30 32/32/32
f 34/34/34 28/28/28 30/30/30
f 35/35/35 28/28/28 34/34/34
f 35/35/35 36/36/36 28/28/28
f 6/6/6 2/2/2 4/4/4
f 6/6/6 37/37/37 2/2/2
f 8/8/8 37/37/37 6/6/6
f 8/8/8 38/38/38 37/37/37
f 24/24/24 39/39/39 22/22/22
f 24/24/24 40/40/40 39/39/39
f 41/41/41 40/40/40 24/24/24
f 21/19/19 25/25/25 23/23/23
f 21/19/19 42/42/42 25/25/25
f 43/43/43 42/42/42 21/19/19
f 16/16/16 44/44/44 14/14/14
f 16/16/16 45/45/45 44/44/44
f 46/46/46 45/45/45 16/16/16
f 17/17/17 13/11/11 47/47/47
f 17/17/17 15/15/15 13/11/11
f 48/48/48 13/11/11 11/13/13
f 48/48/48 47/47/47 13/11/11
f 49/49/49 8/8/8 10/10/10
f 49/49/49 38/38/38 8/8/8
f 50/50/50 31/31/31 29/27/27
f 50/50/50 51/51/51 31/31/31
f 52/52/52 31/31/31 51/51/51
f 52/52/52 33/33/33 31/31/31
f 46/46/46 16/16/16 18/18/18
f 21/19/19 19/21/21 43/43/43
f 41/41/41 24/24/24 26/26/26
f 28/28/28 36/36/36 27/29/29
