# Blender v3.0.0 OBJ File: ''
# www.blender.org
mtllib scrumptious.mtl
o mesh-0_meshId0_name.007
v 0.086685 10.310999 27.897287
v 0.053538 13.760220 17.613379
v 19.109444 9.189898 22.440952
v 16.523607 12.646939 13.090553
v 32.837727 6.783652 8.395246
v 28.570789 9.219199 1.540536
v 36.538109 3.113730 -12.922071
v 32.376278 3.500452 -17.063896
v 32.131901 -0.198767 -26.256884
v 27.357559 3.643033 -21.448483
v 25.467012 0.900844 -31.368071
v 20.299288 2.975064 -28.024563
v 16.135223 1.107876 -38.266258
v 15.197148 2.139125 -33.637299
v 8.825550 1.602017 -40.335590
v 7.699215 5.605927 -35.938736
v -0.153433 0.629369 -49.952438
v 4.431211 7.273895 -32.688545
v -0.097113 7.721160 -31.403263
v 7.662921 10.727015 -20.266373
v -0.056274 11.764125 -18.073725
v 10.889159 13.559052 -9.110089
v -0.018169 14.576624 -6.009741
v 13.933078 14.336391 1.315693
v 0.015764 15.439901 4.904910
v 0.145266 -0.198773 47.372494
v -12.844486 -0.198771 45.520920
v 0.116322 4.307088 37.532383
v -22.007069 3.830531 31.393959
v 0.086685 10.310999 27.897287
v -18.970337 9.189901 22.556808
v 0.053538 13.760220 17.613379
v -16.443407 12.646942 13.191529
v 0.015764 15.439901 4.904910
v -13.925453 14.336393 1.402832
v -0.018169 14.576624 -6.009741
v -10.945680 13.559055 -9.042670
v -0.056274 11.764125 -18.073725
v -7.787842 10.727016 -20.218859
v -0.097113 7.721160 -31.403263
v -4.633859 7.273896 -32.662113
v -0.153433 0.629369 -49.952438
v -7.920816 5.605928 -35.888870
v -9.074901 1.602019 -40.279949
v -15.404924 2.139129 -33.541870
v -8.262560 0.803199 -44.058819
v -16.370226 1.107880 -38.166565
v 47.116646 -0.198771 -11.994799
v 40.295475 -0.198769 -19.722008
v -0.004850 3.504363 -1.289367
v 32.131901 -0.198767 -26.256884
v 31.620281 -0.187046 -39.263088
v 31.620281 0.629364 -39.263088
v 28.172661 -0.187044 -45.462437
v 28.172661 0.629366 -45.462437
v 19.200890 -0.187043 -48.728149
v 19.200890 0.629367 -48.728149
v 9.521812 -0.187042 -49.719536
v 9.521812 0.629368 -49.719536
v -0.153433 -0.187041 -49.952438
v -0.153433 0.629369 -49.952438
v -9.828600 -0.187040 -49.661491
v -9.828600 0.629370 -49.661491
v -19.500027 -0.187039 -48.609241
v -19.500027 0.629371 -48.609241
v -28.452276 -0.187038 -45.288548
v -28.452276 0.629372 -45.288548
v -31.861336 -0.187039 -39.069073
v -38.042210 3.539515 15.651655
v -32.784447 6.783659 8.597193
v -28.561451 9.219206 1.715987
v -24.027056 9.475066 -7.590820
v -18.860533 9.027806 -15.552459
v -13.391403 7.678193 -25.719986
v -40.417080 -0.198761 -19.472540
v -32.293919 -0.198761 -26.057932
v -31.861336 0.629371 -39.069073
v -26.126139 1.082490 -39.972458
v -17.936361 1.980930 -43.766411
v -16.370226 1.107880 -38.166565
v -8.262560 0.803199 -44.058819
v 0.116322 4.307088 37.532383
v 22.200497 3.830527 31.257437
v 38.138412 3.539507 15.417584
v 43.142731 1.644979 -6.734913
v 40.295475 -0.198769 -19.722008
v -27.488770 3.643038 -21.278358
v -32.480694 3.500459 -16.863878
v -32.293919 -0.198761 -26.057932
v -36.617500 3.113738 -12.696083
v -40.417080 -0.198761 -19.472540
v -43.182953 1.644988 -6.469891
v -47.188847 -0.198761 -11.704582
v -49.888634 -0.198762 0.546906
v -25.137478 -0.198770 40.356239
v -35.071224 -0.198768 33.529160
v -43.463905 -0.198765 22.366566
v -48.226074 -0.198763 10.820070
v -20.471436 2.975069 -27.898798
v -25.659754 0.900849 -31.209764
v -9.044966 1.082489 -46.859428
v -0.153433 0.629369 -49.952438
v 25.467012 0.900844 -31.368071
v 25.878151 1.082485 -40.133015
v 17.666107 1.980927 -43.876484
v 16.135223 1.107876 -38.266258
v 8.755655 1.082488 -46.915192
v 18.766127 9.027802 -15.669116
v 13.233286 7.678191 -25.803120
v 23.981794 9.475061 -7.739161
v 43.600788 -0.198774 22.098827
v 48.292061 -0.198773 10.522552
v 49.890152 -0.198772 0.239052
v 47.116646 -0.198771 -11.994799
v 0.145266 -0.198773 47.372494
v 13.125772 -0.198774 45.440804
v 25.386162 -0.198775 40.201096
v 35.275566 -0.198775 33.312870
v 43.600788 -0.198774 22.098827
v 48.292061 -0.198773 10.522552
v 49.890152 -0.198772 0.239052
v 13.125772 -0.198774 45.440804
v 25.386162 -0.198775 40.201096
v 35.275566 -0.198775 33.312870
v -25.137478 -0.198770 40.356239
v -12.844486 -0.198771 45.520920
v 0.145266 -0.198773 47.372494
v -48.226074 -0.198763 10.820070
v -43.463905 -0.198765 22.366566
v -35.071224 -0.198768 33.529160
v -47.188847 -0.198761 -11.704582
v -49.888634 -0.198762 0.546906
v -25.659754 0.900849 -31.209764
v 7.990864 0.803198 -44.109386
v 7.990864 0.803198 -44.109386
vt 0.614319 0.261597
vt 0.989044 0.310547
vt 0.984131 0.207489
vt 0.664612 0.355377
vt 0.343292 0.401947
vt 0.426819 0.470764
vt 0.269135 0.615448
vt 0.350800 0.657104
vt 0.355042 0.749237
vt 0.449341 0.701172
vt 0.485931 0.800659
vt 0.587860 0.767334
vt 0.669189 0.870087
vt 0.687927 0.823730
vt 0.812897 0.891052
vt 0.835358 0.847015
vt 0.989044 0.987732
vt 0.899841 0.814575
vt 0.989044 0.801819
vt 0.837006 0.689972
vt 0.989044 0.668213
vt 0.774170 0.578033
vt 0.989044 0.547333
vt 0.714874 0.473450
vt 0.989044 0.437927
vt 0.978180 0.110931
vt 0.734955 0.031280
vt 0.978180 0.012299
vt 0.555481 0.173126
vt 0.985596 0.207489
vt 0.615784 0.261597
vt 0.990509 0.310547
vt 0.666077 0.355377
vt 0.990509 0.437927
vt 0.716370 0.473450
vt 0.990509 0.547333
vt 0.775635 0.578033
vt 0.990509 0.668213
vt 0.838470 0.689972
vt 0.990509 0.801819
vt 0.901337 0.814575
vt 0.990509 0.987732
vt 0.836823 0.847015
vt 0.814362 0.891052
vt 0.689392 0.823730
vt 0.830597 0.928894
vt 0.670654 0.870087
vt 0.983612 0.500000
vt 0.194794 0.683472
vt 0.061035 0.605835
vt 0.355042 0.749237
vt 0.383087 0.893616
vt 0.383087 0.893616
vt 0.405762 0.991058
vt 0.405762 0.991058
vt 0.608215 0.982452
vt 0.608215 0.982452
vt 0.798645 0.985077
vt 0.798645 0.985077
vt 0.989044 0.987732
vt 0.989044 0.987732
vt 0.800110 0.985077
vt 0.800110 0.985077
vt 0.609680 0.982452
vt 0.609680 0.982452
vt 0.407227 0.991058
vt 0.407227 0.991058
vt 0.384552 0.893616
vt 0.240845 0.331390
vt 0.344757 0.401947
vt 0.428314 0.470764
vt 0.518066 0.563904
vt 0.620239 0.643524
vt 0.728516 0.745270
vt 0.356506 0.749237
vt 0.196259 0.683472
vt 0.384552 0.893616
vt 0.444183 0.901276
vt 0.622345 0.926270
vt 0.670654 0.870087
vt 0.830597 0.928894
vt 0.554016 0.173126
vt 0.976715 0.110931
vt 0.239380 0.331390
vt 0.139557 0.553253
vt 0.194794 0.683472
vt 0.450806 0.701172
vt 0.352295 0.657104
vt 0.356506 0.749237
vt 0.270599 0.615448
vt 0.196259 0.683472
vt 0.141022 0.553253
vt 0.062500 0.605835
vt 0.008636 0.483154
vt 0.493347 0.083405
vt 0.298279 0.152130
vt 0.133759 0.264282
vt 0.040710 0.380157
vt 0.589325 0.767334
vt 0.487427 0.800659
vt 0.815338 0.957001
vt 0.990509 0.987732
vt 0.442719 0.901276
vt 0.485931 0.800659
vt 0.620850 0.926270
vt 0.669189 0.870087
vt 0.813873 0.957001
vt 0.618774 0.643524
vt 0.727051 0.745270
vt 0.516602 0.563904
vt 0.039246 0.380157
vt 0.132294 0.264282
vt 0.007172 0.483154
vt 0.061035 0.605835
vt 0.733490 0.031280
vt 0.976715 0.012299
vt 0.491882 0.083405
vt 0.296814 0.152130
vt 0.039246 0.380157
vt 0.132294 0.264282
vt 0.007172 0.483154
vt 0.491882 0.083405
vt 0.733490 0.031280
vt 0.296814 0.152130
vt 0.734955 0.031280
vt 0.493347 0.083405
vt 0.978180 0.012299
vt 0.133759 0.264282
vt 0.040710 0.380157
vt 0.298279 0.152130
vt 0.062500 0.605835
vt 0.008636 0.483154
vt 0.487427 0.800659
vt 0.829132 0.928894
vt 0.829132 0.928894
vn 0.2730 0.8986 0.3435
vn 0.1282 0.9632 0.2362
vn 0.1609 0.8903 0.4260
vn 0.2438 0.9521 0.1842
vn 0.4197 0.9044 0.0765
vn 0.4198 0.9067 -0.0400
vn 0.3523 0.9110 -0.2143
vn 0.3624 0.8799 -0.3073
vn 0.3504 0.8773 -0.3278
vn 0.3128 0.8877 -0.3378
vn 0.2479 0.9254 -0.2864
vn 0.2828 0.8951 -0.3446
vn 0.1283 0.9689 -0.2116
vn 0.2729 0.9004 -0.3389
vn 0.3192 0.8650 -0.3871
vn 0.3117 0.8491 -0.4264
vn 0.2113 0.8905 -0.4029
vn 0.0822 0.9434 -0.3213
vn 0.0121 0.9505 -0.3105
vn 0.1435 0.9480 -0.2842
vn 0.0435 0.9637 -0.2633
vn 0.1737 0.9634 -0.2039
vn 0.0473 0.9885 -0.1435
vn 0.2073 0.9780 -0.0237
vn 0.0858 0.9955 0.0394
vn -0.1190 0.8886 0.4429
vn -0.1087 0.9248 0.3645
vn -0.0592 0.9075 0.4157
vn -0.2262 0.9010 0.3702
vn -0.1583 0.8903 0.4270
vn -0.2709 0.8986 0.3452
vn -0.1267 0.9632 0.2369
vn -0.2427 0.9521 0.1857
vn -0.0855 0.9955 0.0399
vn -0.2074 0.9780 -0.0224
vn -0.0482 0.9885 -0.1432
vn -0.1750 0.9634 -0.2028
vn -0.0451 0.9637 -0.2631
vn -0.1453 0.9479 -0.2832
vn -0.0140 0.9505 -0.3103
vn -0.0843 0.9434 -0.3209
vn -0.2138 0.8905 -0.4016
vn -0.3145 0.8491 -0.4245
vn -0.3384 0.8564 -0.3899
vn -0.2742 0.9000 -0.3389
vn -0.1483 0.9615 -0.2314
vn -0.1181 0.9709 -0.2085
vn 0.0000 -1.0000 0.0007
vn -0.0626 -0.9960 0.0632
vn -0.0707 -0.9969 0.0334
vn -0.0612 -0.9966 0.0556
vn 0.7017 -0.6860 -0.1924
vn 0.7430 0.6437 -0.1832
vn 0.4894 -0.6580 -0.5722
vn 0.5119 0.6108 -0.6040
vn 0.1581 -0.7047 -0.6916
vn 0.2005 0.6007 -0.7739
vn 0.0433 -0.7242 -0.6882
vn 0.0352 0.6323 -0.7739
vn -0.0020 -0.7271 -0.6865
vn -0.0096 0.1855 -0.9826
vn -0.0475 -0.7242 -0.6879
vn -0.0535 0.6414 -0.7653
vn -0.1624 -0.7047 -0.6906
vn -0.1795 0.5906 -0.7867
vn -0.4929 -0.6580 -0.5692
vn -0.5363 0.5948 -0.5987
vn -0.7028 -0.6860 -0.1881
vn -0.3715 0.9144 0.1606
vn -0.4193 0.9044 0.0791
vn -0.4201 0.9067 -0.0374
vn -0.3575 0.9112 -0.2045
vn -0.3235 0.8975 -0.2997
vn -0.3322 0.8776 -0.3455
vn 0.0592 -0.9964 0.0598
vn 0.0630 -0.9960 0.0628
vn -0.7474 0.6377 -0.1866
vn -0.0706 0.9974 0.0089
vn -0.0016 0.9988 -0.0477
vn 0.0345 0.9934 0.1095
vn 0.1053 0.9912 0.0800
vn 0.2285 0.9010 0.3688
vn 0.1217 0.8886 0.4422
vn 0.3725 0.9144 0.1584
vn 0.3227 0.9420 -0.0919
vn 0.2792 0.9230 -0.2649
vn -0.3148 0.8877 -0.3358
vn -0.3643 0.8799 -0.3050
vn -0.3523 0.8774 -0.3256
vn -0.3536 0.9110 -0.2121
vn -0.2808 0.9230 -0.2631
vn -0.3233 0.9420 -0.0899
vn -0.2512 0.9570 -0.1448
vn -0.2513 0.9678 0.0141
vn -0.1861 0.9188 0.3481
vn -0.2583 0.9286 0.2663
vn -0.3584 0.9082 0.2162
vn -0.3455 0.9370 0.0512
vn -0.2849 0.8951 -0.3428
vn -0.2497 0.9254 -0.2849
vn 0.0461 0.9975 -0.0527
vn 0.0358 0.9984 -0.0433
vn 0.0903 0.9957 -0.0193
vn 0.1078 0.9934 0.0396
vn 0.0197 0.9976 -0.0659
vn -0.0967 0.9877 0.1230
vn -0.0562 0.9976 -0.0411
vn 0.3216 0.8975 -0.3017
vn 0.3301 0.8776 -0.3476
vn 0.3563 0.9112 -0.2066
vn 0.3459 0.9370 0.0491
vn 0.3597 0.9082 0.2140
vn 0.2514 0.9678 0.0125
vn 0.2503 0.9570 -0.1464
vn 0.1109 0.9248 0.3639
vn 0.0618 0.9075 0.4154
vn 0.1882 0.9188 0.3469
vn 0.2599 0.9286 0.2647
vn -0.0716 -0.9972 -0.0196
vn -0.0651 -0.9972 -0.0364
vn -0.0741 -0.9972 0.0020
vn -0.0370 -0.9971 -0.0663
vn -0.0207 -0.9971 -0.0732
vn -0.0522 -0.9972 -0.0535
vn 0.0202 -0.9971 -0.0733
vn 0.0366 -0.9971 -0.0666
vn -0.0002 -0.9971 -0.0759
vn 0.0649 -0.9972 -0.0368
vn 0.0715 -0.9972 -0.0201
vn 0.0518 -0.9972 -0.0538
vn 0.0710 -0.9969 0.0330
vn 0.0741 -0.9972 0.0016
vn -0.0752 0.9963 0.0406
vn 0.1447 0.9610 -0.2354
vn -0.0852 0.9935 0.0756
usemtl m0hotate_mat
s 1
f 3/1/1 2/2/2 1/3/3
f 3/1/1 4/4/4 2/2/2
f 5/5/5 4/4/4 3/1/1
f 5/5/5 6/6/6 4/4/4
f 7/7/7 6/6/6 5/5/5
f 7/7/7 8/8/8 6/6/6
f 9/9/9 8/8/8 7/7/7
f 9/9/9 10/10/10 8/8/8
f 11/11/11 10/10/10 9/9/9
f 11/11/11 12/12/12 10/10/10
f 13/13/13 12/12/12 11/11/11
f 13/13/13 14/14/14 12/12/12
f 15/15/15 14/14/14 13/13/13
f 15/15/15 16/16/16 14/14/14
f 17/17/17 16/16/16 15/15/15
f 17/17/17 18/18/18 16/16/16
f 19/19/19 18/18/18 17/17/17
f 19/19/19 20/20/20 18/18/18
f 21/21/21 20/20/20 19/19/19
f 21/21/21 22/22/22 20/20/20
f 23/23/23 22/22/22 21/21/21
f 23/23/23 24/24/24 22/22/22
f 25/25/25 24/24/24 23/23/23
f 25/25/25 4/4/4 24/24/24
f 2/2/2 4/4/4 25/25/25
f 28/26/26 27/27/27 26/28/28
f 28/26/26 29/29/29 27/27/27
f 30/30/30 29/29/29 28/26/26
f 30/30/30 31/31/31 29/29/29
f 32/32/32 31/31/31 30/30/30
f 32/32/32 33/33/33 31/31/31
f 34/34/34 33/33/33 32/32/32
f 34/34/34 35/35/35 33/33/33
f 36/36/36 35/35/35 34/34/34
f 36/36/36 37/37/37 35/35/35
f 38/38/38 37/37/37 36/36/36
f 38/38/38 39/39/39 37/37/37
f 40/40/40 39/39/39 38/38/38
f 40/40/40 41/41/41 39/39/39
f 42/42/42 41/41/41 40/40/40
f 42/42/42 43/43/43 41/41/41
f 44/44/44 43/43/43 42/42/42
f 44/44/44 45/45/45 43/43/43
f 46/46/46 45/45/45 44/44/44
f 46/46/46 47/47/47 45/45/45
f 50/48/48 49/49/49 48/50/50
f 50/48/48 51/51/51 49/49/49
f 52/52/52 51/51/51 50/48/48
f 52/52/52 53/53/53 51/51/51
f 54/54/54 53/53/53 52/52/52
f 54/54/54 55/55/55 53/53/53
f 56/56/56 55/55/55 54/54/54
f 56/56/56 57/57/57 55/55/55
f 58/58/58 57/57/57 56/56/56
f 58/58/58 59/59/59 57/57/57
f 60/60/60 59/59/59 58/58/58
f 60/60/60 61/61/61 59/59/59
f 62/62/62 61/61/61 60/60/60
f 62/62/62 63/63/63 61/61/61
f 64/64/64 63/63/63 62/62/62
f 64/64/64 65/65/65 63/63/63
f 66/66/66 65/65/65 64/64/64
f 66/66/66 67/67/67 65/65/65
f 68/68/68 67/67/67 66/66/66
f 31/31/31 69/69/69 29/29/29
f 31/31/31 70/70/70 69/69/69
f 33/33/33 70/70/70 31/31/31
f 33/33/33 71/71/71 70/70/70
f 35/35/35 71/71/71 33/33/33
f 35/35/35 72/72/72 71/71/71
f 37/37/37 72/72/72 35/35/35
f 37/37/37 73/73/73 72/72/72
f 39/39/39 73/73/73 37/37/37
f 39/39/39 74/74/74 73/73/73
f 41/41/41 74/74/74 39/39/39
f 41/41/41 43/43/43 74/74/74
f 76/75/75 50/48/48 75/76/76
f 76/75/75 68/68/68 50/48/48
f 77/77/77 68/68/68 76/75/75
f 77/77/77 67/67/67 68/68/68
f 78/78/78 67/67/67 77/77/77
f 78/78/78 79/79/79 67/67/67
f 80/80/80 79/79/79 78/78/78
f 80/80/80 81/81/81 79/79/79
f 83/82/82 1/3/3 82/83/83
f 83/82/82 3/1/1 1/3/3
f 84/84/84 3/1/1 83/82/82
f 84/84/84 5/5/5 3/1/1
f 85/85/85 5/5/5 84/84/84
f 85/85/85 7/7/7 5/5/5
f 86/86/86 7/7/7 85/85/85
f 86/86/86 9/9/9 7/7/7
f 87/87/87 72/72/72 73/73/73
f 87/87/87 88/88/88 72/72/72
f 89/89/89 88/88/88 87/87/87
f 89/89/89 90/90/90 88/88/88
f 91/91/91 90/90/90 89/89/89
f 91/91/91 92/92/92 90/90/90
f 93/93/93 92/92/92 91/91/91
f 93/93/93 94/94/94 92/92/92
f 70/70/70 92/92/92 69/69/69
f 70/70/70 90/90/90 92/92/92
f 71/71/71 90/90/90 70/70/70
f 71/71/71 88/88/88 90/90/90
f 72/72/72 88/88/88 71/71/71
f 29/29/29 95/95/95 27/27/27
f 29/29/29 96/96/96 95/95/95
f 69/69/69 96/96/96 29/29/29
f 69/69/69 97/97/97 96/96/96
f 98/98/98 97/97/97 69/69/69
f 99/99/99 73/73/73 74/74/74
f 99/99/99 87/87/87 73/73/73
f 100/100/100 87/87/87 99/99/99
f 100/100/100 89/89/89 87/87/87
f 45/45/45 74/74/74 43/43/43
f 45/45/45 99/99/99 74/74/74
f 47/47/47 99/99/99 45/45/45
f 47/47/47 100/100/100 99/99/99
f 79/79/79 65/65/65 67/67/67
f 79/79/79 101/101/101 65/65/65
f 81/81/81 101/101/101 79/79/79
f 81/81/81 102/102/102 101/101/101
f 104/103/103 103/104/104 51/51/51
f 104/103/103 105/105/105 103/104/104
f 57/57/57 105/105/105 104/103/103
f 57/57/57 59/59/59 105/105/105
f 105/105/105 106/106/106 103/104/104
f 105/105/105 107/107/107 106/106/106
f 59/59/59 107/107/107 105/105/105
f 59/59/59 61/61/61 107/107/107
f 108/108/108 20/20/20 22/22/22
f 108/108/108 109/109/109 20/20/20
f 12/12/12 109/109/109 108/108/108
f 12/12/12 14/14/14 109/109/109
f 110/110/110 22/22/22 24/24/24
f 110/110/110 108/108/108 22/22/22
f 10/10/10 108/108/108 110/110/110
f 10/10/10 12/12/12 108/108/108
f 6/6/6 24/24/24 4/4/4
f 6/6/6 110/110/110 24/24/24
f 8/8/8 110/110/110 6/6/6
f 8/8/8 10/10/10 110/110/110
f 112/111/111 84/84/84 111/112/112
f 112/111/111 85/85/85 84/84/84
f 113/113/113 85/85/85 112/111/111
f 113/113/113 114/114/114 85/85/85
f 116/115/115 82/83/83 115/116/116
f 116/115/115 83/82/82 82/83/83
f 117/117/117 83/82/82 116/115/115
f 117/117/117 118/118/118 83/82/82
f 50/48/48 54/54/54 52/52/52
f 50/48/48 56/56/56 54/54/54
f 58/58/58 56/56/56 50/48/48
f 104/103/103 55/55/55 57/57/57
f 104/103/103 53/53/53 55/55/55
f 51/51/51 53/53/53 104/103/103
f 50/48/48 120/119/119 119/120/120
f 50/48/48 121/121/121 120/119/119
f 48/50/50 121/121/121 50/48/48
f 50/48/48 123/122/122 122/123/123
f 50/48/48 124/124/124 123/122/122
f 119/120/120 124/124/124 50/48/48
f 50/48/48 126/125/125 125/126/126
f 50/48/48 127/127/127 126/125/125
f 122/123/123 127/127/127 50/48/48
f 50/48/48 129/128/128 128/129/129
f 50/48/48 130/130/130 129/128/128
f 125/126/126 130/130/130 50/48/48
f 50/48/48 131/131/131 75/76/76
f 50/48/48 132/132/132 131/131/131
f 128/129/129 132/132/132 50/48/48
f 78/78/78 133/133/133 80/80/80
f 78/78/78 77/77/77 133/133/133
f 98/98/98 92/92/92 94/94/94
f 98/98/98 69/69/69 92/92/92
f 101/101/101 63/63/63 65/65/65
f 101/101/101 102/102/102 63/63/63
f 66/66/66 50/48/48 68/68/68
f 66/66/66 64/64/64 50/48/48
f 62/62/62 50/48/48 64/64/64
f 62/62/62 60/60/60 50/48/48
f 134/134/134 15/15/15 13/13/13
f 134/134/134 17/17/17 15/15/15
f 16/16/16 109/109/109 14/14/14
f 16/16/16 18/18/18 109/109/109
f 107/107/107 135/135/135 106/106/106
f 107/107/107 61/61/61 135/135/135
f 118/118/118 84/84/84 83/82/82
f 118/118/118 111/112/112 84/84/84
f 77/77/77 76/75/75 133/133/133
f 46/46/46 44/44/44 42/42/42
f 86/86/86 85/85/85 114/114/114
f 50/48/48 60/60/60 58/58/58
f 109/109/109 18/18/18 20/20/20
