# Blender v3.0.0 OBJ File: ''
# www.blender.org
mtllib courage_base.mtl
o mesh-0_meshId0_name
v 0.000000 -0.015812 -16.214800
v -3.003910 0.999818 -17.035200
v -5.501950 -0.015812 -15.117201
v -8.648439 0.999818 -14.980500
v -10.421900 -0.015813 -12.421901
v -13.250000 0.999817 -11.119101
v -13.933599 -0.015813 -8.042971
v -16.255899 0.999816 -5.916020
v -15.968800 -0.015814 -2.814451
v -17.298800 0.999815 -0.000000
v -15.843800 -0.015815 2.792969
v -16.255899 0.999814 5.916019
v -14.043000 -0.015816 8.107419
v -13.250000 0.999813 11.119099
v -10.341800 -0.015816 12.324199
v -8.648439 0.999813 14.980498
v -5.544920 -0.015817 15.238298
v -3.003910 0.999812 17.035200
v 0.000000 -0.015817 16.087900
v 3.003910 0.999812 17.035200
v 5.544920 -0.015817 15.238298
v 8.648439 0.999813 14.980498
v 10.341800 -0.015816 12.324199
v 13.250000 0.999813 11.119099
v 14.043000 -0.015816 8.107419
v 16.255899 0.999814 5.916019
v 15.843800 -0.015815 2.792969
v 17.298800 0.999815 -0.000000
v 15.968800 -0.015814 -2.814451
v 16.255899 0.999816 -5.916020
v 13.933599 -0.015813 -8.042971
v 13.250000 0.999817 -11.119101
v 10.421900 -0.015813 -12.421901
v 8.648439 0.999818 -14.980500
v 5.501950 -0.015812 -15.117201
v 3.003910 0.999818 -17.035200
v 0.000000 -0.015812 -16.214800
v -3.003910 0.999818 -17.035200
v 8.648439 39.999813 14.980505
v 3.003910 39.999813 17.035206
v -3.003910 39.999813 17.035206
v -8.648439 39.999813 14.980505
v -13.250000 39.999817 11.119105
v -16.255899 39.999817 5.916026
v -17.298800 39.999817 0.000006
v -16.255899 39.999817 -5.916014
v -13.250000 39.999817 -11.119094
v -8.648439 39.999821 -14.980494
v -13.250000 39.999817 11.119105
v -13.250000 56.999817 11.119108
v -8.648439 39.999813 14.980505
v -8.648439 56.999813 14.980508
v -3.003910 39.999813 17.035206
v -3.003910 56.999813 17.035210
v 3.003910 39.999813 17.035206
v 3.003910 56.999813 17.035210
v 8.648439 39.999813 14.980505
v 8.648439 56.999813 14.980508
v 13.250000 39.999817 11.119105
v 13.250000 56.999817 11.119108
v 16.255899 39.999817 5.916026
v 16.255899 56.999817 5.916028
v 17.298800 56.999817 0.000009
v 16.220699 57.374821 -2.867181
v 16.255899 56.999817 -5.916011
v 14.261700 57.374821 -8.246081
v 13.250000 56.999817 -11.119091
v 10.582001 57.374825 -12.632792
v 8.648439 56.999821 -14.980491
v 5.625000 57.374825 -15.494091
v 3.003910 56.999821 -17.035191
v -0.011719 57.374825 -16.488291
v -3.003910 56.999821 -17.035191
v 16.255899 39.999817 -5.916014
v 16.255899 56.999817 -5.916011
v 13.250000 39.999817 -11.119094
v 13.250000 56.999817 -11.119091
v 8.648439 39.999821 -14.980494
v 8.648439 56.999821 -14.980491
v 3.003910 39.999821 -17.035194
v 3.003910 56.999821 -17.035191
v -3.003910 39.999821 -17.035194
v -3.003910 56.999821 -17.035191
v 16.220699 57.374821 2.855479
v 16.255899 56.999817 5.916028
v 14.261700 57.374821 8.236339
v 13.250000 56.999817 11.119108
v 10.582001 57.374817 12.621108
v 8.648439 56.999813 14.980508
v 5.625000 57.374817 15.482409
v 3.003910 56.999813 17.035210
v -0.011719 57.374817 16.476608
v -2.496090 57.706821 -14.158191
v -0.011719 57.374825 -16.488291
v 2.496090 57.706821 -14.158191
v 5.625000 57.374825 -15.494091
v 7.187500 57.706821 -12.451191
v 10.582001 57.374825 -12.632792
v 11.013700 57.706818 -9.240221
v 14.261700 57.374821 -8.246081
v 13.509800 57.706818 -4.916011
v -15.968800 -0.015814 -2.814451
v -15.843800 -0.015815 2.792969
v -13.933599 -0.015813 -8.042971
v -14.043000 -0.015816 8.107419
v -10.421900 -0.015813 -12.421901
v -10.341800 -0.015816 12.324199
v -5.501950 -0.015812 -15.117201
v -5.544920 -0.015817 15.238298
v 0.000000 -0.015812 -16.214800
v 16.255899 0.999816 -5.916020
v 16.255899 39.999817 -5.916014
v 13.250000 0.999817 -11.119101
v 13.250000 39.999817 -11.119094
v 8.648439 0.999818 -14.980500
v 8.648439 39.999821 -14.980494
v 3.003910 0.999818 -17.035200
v 3.003910 39.999821 -17.035194
v -17.298800 39.999817 0.000006
v -17.298800 56.999817 0.000009
v -16.255899 39.999817 5.916026
v -16.255899 56.999817 5.916028
v -13.250000 39.999817 11.119105
v -13.250000 56.999817 11.119108
v 16.255899 39.999817 -5.916014
v 16.255899 0.999816 -5.916020
v 17.298800 39.999817 0.000006
v 17.298800 0.999815 -0.000000
v 16.255899 39.999817 5.916026
v 16.255899 0.999814 5.916019
v 3.003910 0.999818 -17.035200
v 3.003910 39.999821 -17.035194
v -3.003910 0.999818 -17.035200
v -3.003910 39.999821 -17.035194
v -8.648439 0.999818 -14.980500
v -8.648439 39.999821 -14.980494
v -8.648439 39.999821 -14.980494
v -8.648439 56.999821 -14.980491
v -13.250000 39.999817 -11.119094
v -13.250000 56.999817 -11.119091
v -16.255899 39.999817 -5.916014
v -16.255899 56.999817 -5.916011
v 16.255899 39.999817 5.916026
v 16.255899 56.999817 5.916028
v 17.298800 39.999817 0.000006
v 17.298800 56.999817 0.000009
v 16.255899 39.999817 -5.916014
v 16.255899 56.999817 -5.916011
v 8.648439 0.999813 14.980498
v 8.648439 39.999813 14.980505
v 13.250000 0.999813 11.119099
v 13.250000 39.999817 11.119105
v 16.255899 0.999814 5.916019
v 16.255899 39.999817 5.916026
v -10.607400 57.374817 12.621108
v -14.287100 57.374821 8.236339
v -11.013700 57.706818 9.240238
v -13.509800 57.706818 4.916028
v -16.244099 57.374821 2.855479
v -14.377001 57.706818 0.000009
v -16.244099 57.374821 -2.867181
v -13.509800 57.706818 -4.916011
v -14.287100 57.374821 -8.246081
v -11.013700 57.706818 -9.240221
v -10.607400 57.374825 -12.632792
v -7.187500 57.706821 -12.451191
v -5.648440 57.374825 -15.494091
v -2.496090 57.706821 -14.158191
v -0.011719 57.374825 -16.488291
v -5.648440 57.374825 -15.494091
v -3.003910 56.999821 -17.035191
v -8.648439 56.999821 -14.980491
v -10.607400 57.374825 -12.632792
v -13.250000 56.999817 -11.119091
v -14.287100 57.374821 -8.246081
v -16.255899 56.999817 -5.916011
v -16.244099 57.374821 -2.867181
v -17.298800 56.999817 0.000009
v -16.244099 57.374821 2.855479
v -16.255899 56.999817 5.916028
v -14.287100 57.374821 8.236339
v -13.250000 56.999817 11.119108
v -10.607400 57.374817 12.621108
v -8.648439 56.999813 14.980508
v -5.648440 57.374817 15.482409
v -3.003910 56.999813 17.035210
v 0.000000 -0.015817 16.087900
v 0.000000 -0.015812 -16.214800
v 5.501950 -0.015812 -15.117201
v 5.544920 -0.015817 15.238298
v 10.421900 -0.015813 -12.421901
v 10.341800 -0.015816 12.324199
v 13.933599 -0.015813 -8.042971
v 14.043000 -0.015816 8.107419
v 15.968800 -0.015814 -2.814451
v -3.003910 39.999821 -17.035194
v -3.003910 56.999821 -17.035191
v -8.648439 39.999821 -14.980494
v -8.648439 56.999821 -14.980491
v 14.377001 57.706818 0.000009
v 16.220699 57.374821 -2.867181
v 16.255899 56.999817 5.916028
v 16.220699 57.374821 2.855479
v 17.298800 56.999817 0.000009
v 16.220699 57.374821 -2.867181
v -16.255899 39.999817 -5.916014
v -16.255899 56.999817 -5.916011
v -17.298800 39.999817 0.000006
v -17.298800 56.999817 0.000009
v 16.220699 57.374821 2.855479
v 14.261700 57.374821 8.236339
v 13.509800 57.706818 4.916028
v 11.013700 57.706818 9.240238
v 10.582001 57.374817 12.621108
v 7.187500 57.706814 12.451208
v 5.625000 57.374817 15.482409
v 2.496090 57.706814 14.158208
v -0.011719 57.374817 16.476608
v -2.496090 57.706814 14.158208
v -5.648440 57.374817 15.482409
v -7.187500 57.706814 12.451208
v 16.220699 57.374821 -2.867181
v 16.220699 57.374821 2.855479
v 14.377001 57.706818 0.000009
v -0.011719 57.374825 -16.488291
v 14.377001 57.706818 0.000009
v 16.220699 57.374821 2.855479
v 13.509800 57.706818 4.916028
v 15.843800 -0.015815 2.792969
vt -0.166626 0.000000
vt 0.055542 0.000000
vt -0.055420 0.000000
vt 0.166626 0.000000
vt -0.277710 0.000000
vt 0.277710 0.000000
vt -0.388794 0.000000
vt 0.388916 0.000000
vt -0.499878 0.000000
vt 1.500000 0.000000
vt 0.500000 0.000000
vt 1.388920 0.000000
vt 0.611084 0.000000
vt 1.277710 0.000000
vt 0.722168 0.000000
vt 1.166630 0.000000
vt 0.833252 0.000000
vt 1.055540 0.000000
vt 0.944458 0.000000
vt -0.388794 0.000000
vt -0.444336 0.017700
vt -0.499878 0.000000
vt -0.333252 0.017700
vt -0.277710 0.000000
vt -0.222168 0.017700
vt -0.166626 0.000000
vt -0.110962 0.017700
vt -0.055420 0.000000
vt 0.000000 0.017700
vt 0.055542 0.000000
vt 0.111084 0.017700
vt 0.166626 0.000000
vt 0.222168 0.017700
vt 0.277710 0.000000
vt 0.333252 0.017700
vt 0.388916 0.000000
vt 0.444458 0.017700
vt 0.500000 0.000000
vt 0.555542 0.017700
vt 0.611084 0.000000
vt 0.666626 0.017700
vt 0.722168 0.000000
vt 0.777710 0.017700
vt 0.833252 0.000000
vt 0.888916 0.017700
vt 0.944458 0.000000
vt 1.000000 0.017700
vt 1.055540 0.000000
vt 1.111080 0.017700
vt 1.166630 0.000000
vt 1.222170 0.017700
vt 1.277710 0.000000
vt 1.333250 0.017700
vt 1.388920 0.000000
vt 1.444460 0.017700
vt 1.500000 0.000000
vt 1.555540 0.017700
vt 0.555542 0.700073
vt 0.666626 0.700073
vt 0.444458 0.700073
vt 0.333252 0.700073
vt 0.222168 0.700073
vt 0.111084 0.700073
vt 0.000000 0.700073
vt -0.110962 0.700073
vt -0.222168 0.700073
vt -0.333252 0.700073
vt 0.074219 0.700317
vt 0.018677 0.987915
vt 0.018677 0.700317
vt 0.074219 0.987915
vt 0.129761 0.700317
vt 0.129761 0.987915
vt 0.185303 0.700317
vt 0.185303 0.987915
vt 0.240845 0.700317
vt 0.240845 0.987915
vt 0.296387 0.700317
vt 0.296387 0.987915
vt 0.351929 0.700317
vt 0.351929 0.987915
vt 1.111080 0.987793
vt 1.055660 0.994263
vt 1.000000 0.987793
vt 1.166870 0.994263
vt 1.222170 0.987793
vt 1.277950 0.994263
vt 1.333250 0.987793
vt 1.389160 0.994263
vt 1.444460 0.987793
vt 1.500240 0.994263
vt 1.555540 0.987793
vt 0.518677 0.700317
vt 0.463135 0.987915
vt 0.463135 0.700317
vt 0.518677 0.987915
vt 0.574219 0.700317
vt 0.574219 0.987915
vt 0.629761 0.700317
vt 0.629761 0.987915
vt 0.685303 0.700317
vt 0.685303 0.987915
vt 0.833252 0.994263
vt 0.888916 0.987793
vt 0.944458 0.994263
vt 0.777710 0.987793
vt 0.722046 0.994263
vt 0.666626 0.987793
vt 0.610962 0.994263
vt 0.555542 0.987793
vt 0.499756 0.994263
vt 1.444460 1.000000
vt 1.500240 0.994263
vt 1.555540 1.000000
vt 1.389160 0.994263
vt 1.333250 1.000000
vt 1.277950 0.994263
vt 1.222170 1.000000
vt 1.166870 0.994263
vt 1.111080 1.000000
vt 0.638794 0.017578
vt 0.538818 0.700073
vt 0.538818 0.017578
vt 0.638794 0.700073
vt 0.538818 0.017578
vt 0.538818 0.700073
vt 0.638794 0.017578
vt 0.638794 0.700073
vt 0.489868 0.699341
vt 0.657471 0.987671
vt 0.657471 0.699341
vt 0.489868 0.987671
vt 0.342407 0.699341
vt 0.342407 0.987671
vt 0.459229 0.700073
vt 0.564941 0.000000
vt 0.564941 0.700073
vt 0.459229 0.000000
vt 0.353638 0.700073
vt 0.353638 0.000000
vt 0.638794 0.017578
vt 0.538818 0.700073
vt 0.538818 0.017578
vt 0.638794 0.700073
vt 0.538818 0.017578
vt 0.538818 0.700073
vt 0.371704 0.699951
vt 0.598877 0.988403
vt 0.598877 0.699951
vt 0.371704 0.988403
vt 0.065552 0.699951
vt 0.065552 0.988403
vt 0.783325 0.700928
vt 0.675537 0.988403
vt 0.675537 0.700928
vt 0.783325 0.988403
vt 0.891235 0.700928
vt 0.891235 0.988403
vt 0.638794 0.017578
vt 0.538818 0.700073
vt 0.538818 0.017578
vt 0.638794 0.700073
vt 0.538818 0.017578
vt 0.538818 0.700073
vt 0.222168 1.000000
vt 0.166382 0.994263
vt 0.277466 0.994263
vt 0.111084 1.000000
vt 0.055420 0.994263
vt 0.000000 1.000000
vt -0.055542 0.994263
vt -0.110962 1.000000
vt -0.166504 0.994263
vt -0.222168 1.000000
vt -0.277588 0.994263
vt -0.333252 1.000000
vt -0.388672 0.994263
vt -0.444336 1.000000
vt -0.444336 0.987793
vt -0.388672 0.994263
vt -0.499634 0.994263
vt -0.333252 0.987793
vt -0.277588 0.994263
vt -0.222168 0.987793
vt -0.166504 0.994263
vt -0.110962 0.987793
vt -0.055542 0.994263
vt 0.000000 0.987793
vt 0.055420 0.994263
vt 0.111084 0.987793
vt 0.166382 0.994263
vt 0.222168 0.987793
vt 0.277466 0.994263
vt 0.333252 0.987793
vt 0.388550 0.994263
vt 0.444458 0.987793
vt -0.259033 0.700317
vt -0.314575 0.987915
vt -0.314575 0.700317
vt -0.259033 0.987915
vt 1.055660 0.994263
vt 1.000000 1.000000
vt 0.430542 0.851929
vt 0.373169 0.889893
vt 0.361084 0.851929
vt 0.454590 0.889893
vt -0.036499 0.699951
vt 0.130127 0.985352
vt 0.130127 0.699951
vt -0.036499 0.985352
vt 0.888916 1.000000
vt 0.833252 0.994263
vt 0.944458 0.994263
vt 0.777710 1.000000
vt 0.722046 0.994263
vt 0.666626 1.000000
vt 0.610962 0.994263
vt 0.555542 1.000000
vt 0.499756 0.994263
vt 0.444458 1.000000
vt 0.388550 0.994263
vt 0.333252 1.000000
vt 0.480835 0.923584
vt 0.585449 0.889893
vt 0.454590 0.889893
vt -0.499634 0.994263
vt 0.337402 0.923584
vt 0.373169 0.889893
vt 0.268555 0.923584
vn 0.0000 -1.0000 -0.0000
vn -0.2348 -0.7270 -0.6452
vn -0.1393 -0.7885 -0.5990
vn -0.1153 -0.8079 -0.5780
vn -0.4708 -0.5452 -0.6935
vn -0.4633 -0.6932 -0.5521
vn -0.7024 -0.4081 -0.5831
vn -0.5947 -0.7268 -0.3435
vn -0.8561 -0.4083 -0.3168
vn -0.7094 -0.6936 -0.1250
vn -0.9128 -0.4083 0.0049
vn -0.6760 -0.7271 0.1192
vn -0.8594 -0.4082 0.3077
vn -0.6241 -0.6931 0.3605
vn -0.6961 -0.4080 0.5906
vn -0.4417 -0.7266 0.5263
vn -0.4607 -0.4081 0.7881
vn -0.2466 -0.6930 0.6775
vn -0.1537 -0.4081 0.8999
vn 0.0000 -0.7268 0.6868
vn 0.1537 -0.4081 0.8999
vn 0.2466 -0.6930 0.6775
vn 0.3653 -0.5450 0.7546
vn 0.4417 -0.7266 0.5263
vn 0.4837 -0.7689 0.4180
vn 0.6241 -0.6931 0.3605
vn 0.6034 -0.7693 0.2098
vn 0.6760 -0.7271 0.1192
vn 0.6388 -0.7693 0.0092
vn 0.7094 -0.6936 -0.1250
vn 0.5971 -0.7693 -0.2271
vn 0.5947 -0.7268 -0.3435
vn 0.4954 -0.7691 -0.4038
vn 0.4633 -0.6932 -0.5521
vn 0.3114 -0.7692 -0.5579
vn 0.2348 -0.7270 -0.6452
vn 0.1201 -0.7693 -0.6275
vn 0.0223 -0.6674 -0.7443
vn 0.0000 -0.6283 -0.7779
vn 0.1737 0.0000 0.9848
vn 0.3421 0.0000 0.9397
vn -0.1737 0.0000 0.9848
vn -0.5000 0.0000 0.8660
vn -0.7660 0.0000 0.6429
vn -0.9396 0.0000 0.3421
vn -1.0000 0.0000 0.0000
vn -0.9396 0.0000 -0.3421
vn -0.7660 0.0000 -0.6429
vn -0.6428 0.0000 -0.7660
vn -0.6428 0.0000 0.7660
vn 0.5000 0.0000 0.8660
vn 0.7660 0.0000 0.6429
vn 0.8659 0.0000 0.5002
vn 0.3427 0.9311 -0.1248
vn 0.5181 0.8496 -0.0985
vn 0.5453 0.8327 -0.0961
vn 0.4400 0.8613 -0.2542
vn 0.2806 0.9305 -0.2353
vn 0.3289 0.8591 -0.3920
vn 0.1838 0.9300 -0.3183
vn 0.1759 0.8576 -0.4834
vn 0.0641 0.9294 -0.3633
vn 0.0070 0.8424 -0.5388
vn 0.0000 0.8247 -0.5655
vn 0.7660 0.0000 -0.6429
vn 0.8659 0.0000 -0.5002
vn 0.5000 0.0000 -0.8660
vn 0.1737 0.0000 -0.9848
vn 0.0000 0.0000 -1.0000
vn 0.4372 0.8632 0.2526
vn 0.3236 0.9377 0.1265
vn 0.3082 0.9447 0.1122
vn 0.2789 0.9313 0.2340
vn 0.3252 0.8625 0.3876
vn 0.1823 0.9312 0.3157
vn 0.1734 0.8618 0.4766
vn 0.0635 0.9308 0.3598
vn -0.0000 0.8603 0.5097
vn 0.0278 0.9871 -0.1575
vn 0.0080 0.9887 -0.1495
vn 0.0000 0.9900 -0.1410
vn 0.0529 0.9879 -0.1454
vn 0.0802 0.9871 -0.1388
vn 0.0996 0.9879 -0.1187
vn 0.1231 0.9870 -0.1032
vn 0.1345 0.9879 -0.0777
vn 0.1513 0.9869 -0.0550
vn 0.3421 0.0000 -0.9397
vn -0.9848 0.0000 0.1736
vn -0.8659 0.0000 0.5002
vn 1.0000 0.0000 0.0000
vn 0.9848 0.0000 -0.1736
vn 0.9848 0.0000 0.1736
vn -0.1737 0.0000 -0.9848
vn -0.3421 0.0000 -0.9397
vn -0.8659 0.0000 -0.5002
vn 0.6428 0.0000 0.7660
vn -0.1223 0.9872 0.1026
vn -0.1336 0.9880 0.0771
vn -0.0993 0.9880 0.1184
vn -0.1498 0.9872 0.0545
vn -0.1517 0.9880 0.0267
vn -0.1592 0.9872 0.0000
vn -0.1516 0.9881 -0.0267
vn -0.1495 0.9872 -0.0544
vn -0.1333 0.9881 -0.0769
vn -0.1219 0.9872 -0.1022
vn -0.0989 0.9881 -0.1179
vn -0.0796 0.9872 -0.1380
vn -0.0527 0.9880 -0.1449
vn -0.0354 0.9862 -0.1616
vn -0.0695 0.9353 -0.3468
vn -0.1778 0.8543 -0.4884
vn -0.0580 0.9426 -0.3289
vn -0.1856 0.9285 -0.3217
vn -0.3359 0.8526 -0.4003
vn -0.2851 0.9281 -0.2392
vn -0.4525 0.8526 -0.2614
vn -0.3493 0.9283 -0.1271
vn -0.5135 0.8533 -0.0905
vn -0.3713 0.9285 0.0000
vn -0.5122 0.8541 0.0902
vn -0.3482 0.9288 0.1267
vn -0.4497 0.8546 0.2597
vn -0.2834 0.9290 0.2379
vn -0.3321 0.8562 0.3957
vn -0.1840 0.9297 0.3190
vn -0.1753 0.8587 0.4815
vn -0.0636 0.9303 0.3611
vn 0.1468 0.9886 -0.0341
vn 0.1399 0.9898 -0.0247
vn 0.3478 0.9375 0.0082
vn 0.5192 0.8505 0.0843
vn 0.5439 0.8336 0.0959
vn 0.3285 0.9445 0.0000
vn -0.9848 0.0000 -0.1736
vn 0.1547 0.9859 0.0635
vn 0.1348 0.9878 0.0779
vn 0.1666 0.9841 0.0606
vn 0.1235 0.9869 0.1036
vn 0.1000 0.9878 0.1192
vn 0.0806 0.9869 0.1395
vn 0.0531 0.9878 0.1461
vn 0.0280 0.9870 0.1584
vn -0.0000 0.9879 0.1552
vn -0.0278 0.9870 0.1581
vn -0.0530 0.9879 0.1455
vn -0.0800 0.9871 0.1387
vn 0.1772 0.9842 0.0000
vn -0.0305 0.9845 -0.1727
vn 0.1400 0.9898 0.0247
usemtl m1label_mat
s off
f 104/1/1 103/2/1 102/3/1
f 104/1/1 105/4/1 103/2/1
f 106/5/1 105/4/1 104/1/1
f 106/5/1 107/6/1 105/4/1
f 108/7/1 107/6/1 106/5/1
f 108/7/1 109/8/1 107/6/1
f 110/9/1 109/8/1 108/7/1
f 188/10/1 187/11/1 109/8/1
f 188/10/1 189/12/1 187/11/1
f 189/12/1 190/13/1 187/11/1
f 189/12/1 191/14/1 190/13/1
f 191/14/1 192/15/1 190/13/1
f 191/14/1 193/16/1 192/15/1
f 193/16/1 194/17/1 192/15/1
f 193/16/1 195/18/1 194/17/1
f 194/17/1 195/18/1 229/19/1
s 1
f 3/20/2 2/21/3 1/22/4
f 3/20/2 4/23/5 2/21/3
f 5/24/6 4/23/5 3/20/2
f 5/24/6 6/25/7 4/23/5
f 7/26/8 6/25/7 5/24/6
f 7/26/8 8/27/9 6/25/7
f 9/28/10 8/27/9 7/26/8
f 9/28/10 10/29/11 8/27/9
f 11/30/12 10/29/11 9/28/10
f 11/30/12 12/31/13 10/29/11
f 13/32/14 12/31/13 11/30/12
f 13/32/14 14/33/15 12/31/13
f 15/34/16 14/33/15 13/32/14
f 15/34/16 16/35/17 14/33/15
f 17/36/18 16/35/17 15/34/16
f 17/36/18 18/37/19 16/35/17
f 19/38/20 18/37/19 17/36/18
f 19/38/20 20/39/21 18/37/19
f 21/40/22 20/39/21 19/38/20
f 21/40/22 22/41/23 20/39/21
f 23/42/24 22/41/23 21/40/22
f 23/42/24 24/43/25 22/41/23
f 25/44/26 24/43/25 23/42/24
f 25/44/26 26/45/27 24/43/25
f 27/46/28 26/45/27 25/44/26
f 27/46/28 28/47/29 26/45/27
f 29/48/30 28/47/29 27/46/28
f 29/48/30 30/49/31 28/47/29
f 31/50/32 30/49/31 29/48/30
f 31/50/32 32/51/33 30/49/31
f 33/52/34 32/51/33 31/50/32
f 33/52/34 34/53/35 32/51/33
f 35/54/36 34/53/35 33/52/34
f 35/54/36 36/55/37 34/53/35
f 37/56/38 36/55/37 35/54/36
f 37/56/38 38/57/39 36/55/37
f 40/58/40 22/41/23 39/59/41
f 40/58/40 20/39/21 22/41/23
f 41/60/42 20/39/21 40/58/40
f 41/60/42 18/37/19 20/39/21
f 42/61/43 18/37/19 41/60/42
f 42/61/43 16/35/17 18/37/19
f 43/62/44 16/35/17 42/61/43
f 43/62/44 14/33/15 16/35/17
f 44/63/45 14/33/15 43/62/44
f 44/63/45 12/31/13 14/33/15
f 45/64/46 12/31/13 44/63/45
f 45/64/46 10/29/11 12/31/13
f 46/65/47 10/29/11 45/64/46
f 46/65/47 8/27/9 10/29/11
f 47/66/48 8/27/9 46/65/47
f 47/66/48 6/25/7 8/27/9
f 48/67/49 6/25/7 47/66/48
f 48/67/49 4/23/5 6/25/7
f 51/68/43 50/69/50 49/70/50
f 51/68/43 52/71/43 50/69/50
f 53/72/42 52/71/43 51/68/43
f 53/72/42 54/73/42 52/71/43
f 55/74/40 54/73/42 53/72/42
f 55/74/40 56/75/40 54/73/42
f 57/76/51 56/75/40 55/74/40
f 57/76/51 58/77/51 56/75/40
f 59/78/52 58/77/51 57/76/51
f 59/78/52 60/79/52 58/77/51
f 61/80/53 60/79/52 59/78/52
f 61/80/53 62/81/53 60/79/52
f 65/82/54 64/83/55 63/84/56
f 65/82/54 66/85/57 64/83/55
f 67/86/58 66/85/57 65/82/54
f 67/86/58 68/87/59 66/85/57
f 69/88/60 68/87/59 67/86/58
f 69/88/60 70/89/61 68/87/59
f 71/90/62 70/89/61 69/88/60
f 71/90/62 72/91/63 70/89/61
f 73/92/64 72/91/63 71/90/62
f 76/93/65 75/94/66 74/95/66
f 76/93/65 77/96/65 75/94/66
f 78/97/67 77/96/65 76/93/65
f 78/97/67 79/98/67 77/96/65
f 80/99/68 79/98/67 78/97/67
f 80/99/68 81/100/68 79/98/67
f 82/101/69 81/100/68 80/99/68
f 82/101/69 83/102/69 81/100/68
f 86/103/70 85/104/71 84/105/72
f 86/103/70 87/106/73 85/104/71
f 88/107/74 87/106/73 86/103/70
f 88/107/74 89/108/75 87/106/73
f 90/109/76 89/108/75 88/107/74
f 90/109/76 91/110/77 89/108/75
f 92/111/78 91/110/77 90/109/76
f 95/112/79 94/113/80 93/114/81
f 95/112/79 96/115/82 94/113/80
f 97/116/83 96/115/82 95/112/79
f 97/116/83 98/117/84 96/115/82
f 99/118/85 98/117/84 97/116/83
f 99/118/85 100/119/86 98/117/84
f 101/120/87 100/119/86 99/118/85
f 113/121/65 112/122/66 111/123/66
f 113/121/65 114/124/65 112/122/66
f 115/125/67 114/124/65 113/121/65
f 115/125/67 116/126/67 114/124/65
f 117/127/88 116/126/67 115/125/67
f 117/127/88 118/128/88 116/126/67
f 121/129/45 120/130/89 119/131/89
f 121/129/45 122/132/45 120/130/89
f 123/133/90 122/132/45 121/129/45
f 123/133/90 124/134/90 122/132/45
f 127/135/91 126/136/92 125/137/92
f 127/135/91 128/138/91 126/136/92
f 129/139/93 128/138/91 127/135/91
f 129/139/93 130/140/93 128/138/91
f 133/141/94 132/142/69 131/143/69
f 133/141/94 134/144/94 132/142/69
f 135/145/95 134/144/94 133/141/94
f 135/145/95 136/146/95 134/144/94
f 139/147/48 138/148/49 137/149/49
f 139/147/48 140/150/48 138/148/49
f 141/151/96 140/150/48 139/147/48
f 141/151/96 142/152/96 140/150/48
f 145/153/91 144/154/93 143/155/93
f 145/153/91 146/156/91 144/154/93
f 147/157/92 146/156/91 145/153/91
f 147/157/92 148/158/92 146/156/91
f 151/159/52 150/160/97 149/161/97
f 151/159/52 152/162/52 150/160/97
f 153/163/53 152/162/52 151/159/52
f 153/163/53 154/164/53 152/162/52
f 157/165/98 156/166/99 155/167/100
f 157/165/98 158/168/101 156/166/99
f 158/168/101 159/169/102 156/166/99
f 158/168/101 160/170/103 159/169/102
f 160/170/103 161/171/104 159/169/102
f 160/170/103 162/172/105 161/171/104
f 162/172/105 163/173/106 161/171/104
f 162/172/105 164/174/107 163/173/106
f 164/174/107 165/175/108 163/173/106
f 164/174/107 166/176/109 165/175/108
f 166/176/109 167/177/110 165/175/108
f 166/176/109 168/178/111 167/177/110
f 171/179/112 170/180/113 169/181/114
f 171/179/112 172/182/115 170/180/113
f 172/182/115 173/183/116 170/180/113
f 172/182/115 174/184/117 173/183/116
f 174/184/117 175/185/118 173/183/116
f 174/184/117 176/186/119 175/185/118
f 176/186/119 177/187/120 175/185/118
f 176/186/119 178/188/121 177/187/120
f 178/188/121 179/189/122 177/187/120
f 178/188/121 180/190/123 179/189/122
f 180/190/123 181/191/124 179/189/122
f 180/190/123 182/192/125 181/191/124
f 182/192/125 183/193/126 181/191/124
f 182/192/125 184/194/127 183/193/126
f 184/194/127 185/195/128 183/193/126
f 184/194/127 186/196/129 185/195/128
f 186/196/129 92/111/78 185/195/128
f 186/196/129 91/110/77 92/111/78
f 198/197/95 197/198/95 196/199/95
f 198/197/95 199/200/95 197/198/95
f 201/201/130 101/120/87 200/202/131
f 201/201/130 100/119/86 101/120/87
f 204/203/132 203/204/133 202/205/134
f 204/203/132 205/206/135 203/204/133
f 208/207/136 207/208/136 206/209/136
f 208/207/136 209/210/136 207/208/136
f 212/211/137 211/212/138 210/213/139
f 212/211/137 213/214/140 211/212/138
f 213/214/140 214/215/141 211/212/138
f 213/214/140 215/216/142 214/215/141
f 215/216/142 216/217/143 214/215/141
f 215/216/142 217/218/144 216/217/143
f 217/218/144 218/219/145 216/217/143
f 217/218/144 219/220/146 218/219/145
f 219/220/146 220/221/147 218/219/145
f 219/220/146 221/222/148 220/221/147
f 221/222/148 155/167/100 220/221/147
f 221/222/148 157/165/98 155/167/100
f 224/223/149 223/224/149 222/225/149
f 167/177/110 168/178/111 225/226/150
f 228/227/151 227/228/151 226/229/151
