# Blender v3.0.0 OBJ File: ''
# www.blender.org
mtllib courage_base.mtl
o mesh-1_meshId1_name
v -13.509800 57.706818 -4.916011
v -11.771500 57.732216 -2.107411
v -14.377001 57.706818 0.000009
v -11.771500 57.732216 2.041029
v -13.509800 57.706818 4.916028
v -10.351600 57.732216 5.941419
v -11.013700 57.706818 9.240238
v -7.683590 57.732216 9.121099
v -7.187500 57.706814 12.451208
v -4.089840 57.732216 11.195309
v -2.496090 57.706814 14.158208
v -0.001953 57.732212 11.916009
v 2.496090 57.706814 14.158208
v 4.083980 57.732216 11.195309
v 7.187500 57.706814 12.451208
v 7.677730 57.732216 9.121099
v 11.013700 57.706818 9.240238
v 10.345699 57.732216 5.941419
v 13.509800 57.706818 4.916028
v 11.765599 57.732216 2.041029
v 14.377001 57.706818 0.000009
v 11.765599 57.732216 -2.107411
v 13.509800 57.706818 -4.916011
v 10.345699 57.732216 -6.007801
v 11.013700 57.706818 -9.240221
v 7.677730 57.732216 -9.185541
v 7.187500 57.706821 -12.451191
v 4.083980 57.732216 -11.261691
v 2.496090 57.706821 -14.158191
v -0.001953 57.732220 -11.982391
v -2.496090 57.706821 -14.158191
v -4.089840 57.732216 -11.261691
v -7.187500 57.706821 -12.451191
v -7.683590 57.732216 -9.185541
v -11.013700 57.706818 -9.240221
v -10.351600 57.732216 -6.007801
v 3.123050 58.533016 -3.757801
v 8.265630 58.029114 -6.984371
v 4.208980 58.533016 -2.462881
v 10.142600 58.029114 -3.732411
v 4.785160 58.533016 -0.876944
v 10.794900 58.029114 -0.035147
v 4.785160 58.533016 0.810556
v 10.142600 58.029114 3.660169
v 4.208980 58.533016 2.398449
v 8.265630 58.029114 6.912118
v 3.123050 58.533016 3.691419
v 5.388670 58.029114 9.326179
v 1.660160 58.533016 4.537119
v 1.861330 58.029114 10.611308
v -0.001953 58.533016 4.830089
v -1.892580 58.029114 10.611308
v -0.857422 58.533016 4.753919
v -5.421880 58.029114 9.326179
v -3.128910 58.533016 3.691419
v -8.296880 58.029114 6.912118
v -4.214840 58.533016 2.398449
v -10.175799 58.029114 3.660169
v -4.792970 58.533016 0.810556
v -10.828099 58.029114 -0.035147
v -4.792970 58.533016 -0.876944
v -10.175799 58.029114 -3.732411
v -4.214840 58.533016 -2.462881
v -8.296880 58.029114 -6.984371
v -3.128910 58.533016 -3.757801
v -5.421880 58.029114 -9.398431
v -1.666020 58.533016 -4.601551
v -1.892580 58.029114 -10.683591
v -0.001953 58.533016 -4.896471
v 1.861330 58.029114 -10.683591
v 1.660160 58.533016 -4.601551
v 5.388670 58.029114 -9.398431
v 3.123050 58.533016 3.691419
v 3.203130 59.822117 2.664069
v 4.208980 58.533016 2.398449
v 3.933590 59.822117 1.400399
v 4.785160 58.533016 0.810556
v 4.185550 59.822117 -0.035147
v 4.785160 58.533016 -0.876944
v 3.933590 59.822117 -1.472651
v 4.208980 58.533016 -2.462881
v 3.203130 59.822117 -2.736321
v 3.123050 58.533016 -3.757801
v 2.085940 59.822117 -3.673821
v 1.660160 58.533016 -4.601551
v 0.714844 59.822117 -4.171871
v -0.001953 58.533016 -4.896471
v -0.742188 59.822117 -4.171871
v -1.666020 58.533016 -4.601551
v -2.113280 59.822117 -3.673821
v -3.128910 58.533016 -3.757801
v -3.232420 59.822117 -2.736321
v -4.214840 58.533016 -2.462881
v -3.960940 59.822117 -1.472651
v -4.792970 58.533016 -0.876944
v -4.214840 59.822117 -0.035147
v -4.792970 58.533016 0.810556
v -3.960940 59.822117 1.400399
v -4.214840 58.533016 2.398449
v -3.232420 59.822117 2.664069
v -3.128910 58.533016 3.691419
v -2.113280 59.822117 3.601569
v -0.857422 58.533016 4.753919
v -0.742188 59.822117 4.101569
v -0.001953 58.533016 4.830089
v 0.714844 59.822117 4.101569
v 1.660160 58.533016 4.537119
v 2.085940 59.822117 3.601569
v -1.892580 58.029114 10.611308
v -4.089840 57.732216 11.195309
v -5.421880 58.029114 9.326179
v -7.683590 57.732216 9.121099
v -8.296880 58.029114 6.912118
v -10.351600 57.732216 5.941419
v -10.175799 58.029114 3.660169
v -11.771500 57.732216 2.041029
v -10.828099 58.029114 -0.035147
v -11.771500 57.732216 -2.107411
v -10.175799 58.029114 -3.732411
v -10.351600 57.732216 -6.007801
v -8.296880 58.029114 -6.984371
v -7.683590 57.732216 -9.185541
v -5.421880 58.029114 -9.398431
v -4.089840 57.732216 -11.261691
v -1.892580 58.029114 -10.683591
v -0.001953 57.732220 -11.982391
v 1.861330 58.029114 -10.683591
v 4.083980 57.732216 -11.261691
v 5.388670 58.029114 -9.398431
v 7.677730 57.732216 -9.185541
v 8.265630 58.029114 -6.984371
v 10.345699 57.732216 -6.007801
v 10.142600 58.029114 -3.732411
v 11.765599 57.732216 -2.107411
v 10.794900 58.029114 -0.035147
v 11.765599 57.732216 2.041029
v 10.142600 58.029114 3.660169
v 10.345699 57.732216 5.941419
v 8.265630 58.029114 6.912118
v 7.677730 57.732216 9.121099
v 5.388670 58.029114 9.326179
v 4.083980 57.732216 11.195309
v 1.861330 58.029114 10.611308
v -0.001953 57.732212 11.916009
v -3.960940 59.822117 -1.472651
v -3.232420 59.822117 -2.736321
v -0.013672 60.076015 -0.035147
v -2.113280 59.822117 -3.673821
v -0.742188 59.822117 -4.171871
v -4.214840 59.822117 -0.035147
v -3.960940 59.822117 1.400399
v -3.232420 59.822117 2.664069
v -2.113280 59.822117 3.601569
v -0.742188 59.822117 4.101569
v 0.714844 59.822117 4.101569
v 2.085940 59.822117 3.601569
v 3.203130 59.822117 2.664069
v 3.933590 59.822117 1.400399
v 4.185550 59.822117 -0.035147
v 3.933590 59.822117 -1.472651
v 3.203130 59.822117 -2.736321
v 2.085940 59.822117 -3.673821
v 0.714844 59.822117 -4.171871
vt 0.000006 0.492434
vt 0.090582 0.421389
vt 0.090582 0.565674
vt 0.030157 0.321413
vt 0.139959 0.285769
vt 0.117010 0.171023
vt 0.232733 0.175173
vt 0.250006 0.059450
vt 0.357733 0.102968
vt 0.413214 0.000063
vt 0.499883 0.077944
vt 0.586858 0.000063
vt 0.642098 0.102968
vt 0.750008 0.059450
vt 0.767098 0.175173
vt 0.883063 0.171023
vt 0.859868 0.285769
vt 0.969853 0.321413
vt 0.909248 0.421389
vt 1.000008 0.492434
vt 0.909248 0.565674
vt 0.969853 0.663394
vt 0.859868 0.701359
vt 0.883063 0.813784
vt 0.767098 0.811954
vt 0.750008 0.925419
vt 0.642098 0.884094
vt 0.586858 0.984804
vt 0.499883 0.909184
vt 0.413214 0.984804
vt 0.357733 0.884094
vt 0.250006 0.925419
vt 0.232733 0.811954
vt 0.117010 0.813784
vt 0.139959 0.701359
vt 0.030157 0.663394
vt 0.646428 0.578129
vt 0.787543 0.735354
vt 0.608648 0.623109
vt 0.852848 0.622254
vt 0.666508 0.522889
vt 0.875553 0.493654
vt 0.666508 0.464174
vt 0.852848 0.365053
vt 0.646428 0.408999
vt 0.787543 0.251955
vt 0.608648 0.364016
vt 0.687508 0.168032
vt 0.557743 0.334597
vt 0.564763 0.123354
vt 0.499883 0.324404
vt 0.434149 0.123354
vt 0.470160 0.327089
vt 0.311407 0.168032
vt 0.391180 0.364016
vt 0.211371 0.251955
vt 0.353399 0.408999
vt 0.146063 0.365053
vt 0.333319 0.464174
vt 0.123419 0.493654
vt 0.333319 0.522889
vt 0.146063 0.622254
vt 0.353399 0.578129
vt 0.211371 0.735354
vt 0.391180 0.623109
vt 0.311407 0.819339
vt 0.442022 0.652469
vt 0.434149 0.864014
vt 0.499883 0.662724
vt 0.564763 0.864014
vt 0.557743 0.652469
vt 0.687508 0.819339
vt 0.646428 0.408999
vt 0.611458 0.399721
vt 0.608648 0.364016
vt 0.636848 0.443728
vt 0.666508 0.464174
vt 0.645638 0.493594
vt 0.666508 0.522889
vt 0.636848 0.543579
vt 0.646428 0.578129
vt 0.611458 0.587589
vt 0.608648 0.623109
vt 0.572578 0.620179
vt 0.557743 0.652469
vt 0.524908 0.637514
vt 0.499883 0.662724
vt 0.474127 0.637514
vt 0.442022 0.652469
vt 0.426458 0.620179
vt 0.391180 0.623109
vt 0.387579 0.587589
vt 0.353399 0.578129
vt 0.362188 0.543579
vt 0.333319 0.522889
vt 0.353399 0.493594
vt 0.333319 0.464174
vt 0.362188 0.443728
vt 0.353399 0.408999
vt 0.387579 0.399721
vt 0.391180 0.364016
vt 0.426458 0.367129
vt 0.470160 0.327089
vt 0.474127 0.349795
vt 0.499883 0.324404
vt 0.524908 0.349795
vt 0.557743 0.334597
vt 0.572578 0.367129
vt 0.311407 0.168032
vt 0.357733 0.102968
vt 0.434149 0.123354
vt 0.232733 0.175173
vt 0.211371 0.251955
vt 0.139959 0.285769
vt 0.146063 0.365053
vt 0.090582 0.421389
vt 0.123419 0.493654
vt 0.090582 0.565674
vt 0.146063 0.622254
vt 0.139959 0.701359
vt 0.211371 0.735354
vt 0.232733 0.811954
vt 0.311407 0.819339
vt 0.357733 0.884094
vt 0.434149 0.864014
vt 0.499883 0.909184
vt 0.564763 0.864014
vt 0.642098 0.884094
vt 0.687508 0.819339
vt 0.767098 0.811954
vt 0.787543 0.735354
vt 0.859868 0.701359
vt 0.852848 0.622254
vt 0.909248 0.565674
vt 0.875553 0.493654
vt 0.909248 0.421389
vt 0.852848 0.365053
vt 0.859868 0.285769
vt 0.787543 0.251955
vt 0.767098 0.175173
vt 0.687508 0.168032
vt 0.642098 0.102968
vt 0.564763 0.123354
vt 0.499883 0.077944
vt 0.499518 0.493594
vt 0.387579 0.587589
vt 0.362188 0.543579
vt 0.426458 0.620179
vt 0.474127 0.637514
vt 0.353399 0.493594
vt 0.362188 0.443728
vt 0.387579 0.399721
vt 0.426458 0.367129
vt 0.474127 0.349795
vt 0.524908 0.349795
vt 0.572578 0.367129
vt 0.611458 0.399721
vt 0.636848 0.443728
vt 0.645638 0.493594
vt 0.636848 0.543579
vt 0.611458 0.587589
vt 0.572578 0.620179
vt 0.524908 0.637514
vn -0.0097 1.0000 0.0000
vn -0.0091 1.0000 0.0033
vn -0.0074 1.0000 0.0062
vn -0.0048 1.0000 0.0083
vn -0.0017 1.0000 0.0095
vn 0.0017 1.0000 0.0095
vn 0.0048 1.0000 0.0083
vn 0.0074 1.0000 0.0062
vn 0.0091 1.0000 0.0033
vn 0.0097 1.0000 0.0000
vn 0.0092 1.0000 -0.0033
vn 0.0075 1.0000 -0.0063
vn 0.0049 1.0000 -0.0085
vn 0.0017 1.0000 -0.0097
vn -0.0017 1.0000 -0.0097
vn -0.0049 1.0000 -0.0085
vn -0.0075 1.0000 -0.0063
vn -0.0092 1.0000 -0.0033
vn -0.0106 0.9999 0.0000
vn -0.0104 0.9999 -0.0018
vn -0.0100 0.9999 -0.0036
vn -0.0099 0.9999 0.0036
vn -0.0103 0.9999 0.0018
vn -0.0080 0.9999 0.0067
vn -0.0090 0.9999 0.0052
vn -0.0052 0.9999 0.0090
vn -0.0067 0.9999 0.0080
vn -0.0018 0.9999 0.0103
vn -0.0035 0.9999 0.0097
vn 0.0018 0.9999 0.0103
vn 0.0000 0.9999 0.0103
vn 0.0052 0.9999 0.0090
vn 0.0035 0.9999 0.0097
vn 0.0080 0.9999 0.0067
vn 0.0067 0.9999 0.0079
vn 0.0099 0.9999 0.0036
vn 0.0090 0.9999 0.0052
vn 0.0105 0.9999 0.0000
vn 0.0103 0.9999 0.0018
vn 0.0099 0.9999 -0.0036
vn 0.0103 0.9999 -0.0018
vn 0.0081 0.9999 -0.0068
vn 0.0092 0.9999 -0.0053
vn 0.0053 0.9999 -0.0092
vn 0.0068 0.9999 -0.0081
vn 0.0018 0.9999 -0.0105
vn 0.0036 0.9999 -0.0100
vn -0.0018 0.9999 -0.0105
vn 0.0000 0.9999 -0.0107
vn -0.0053 0.9999 -0.0092
vn -0.0036 0.9999 -0.0100
vn -0.0081 0.9999 -0.0068
vn -0.0068 0.9999 -0.0081
vn -0.0092 0.9999 -0.0053
vn 0.0720 0.9965 -0.0415
vn 0.0654 0.9963 -0.0549
vn 0.0534 0.9965 -0.0636
vn 0.0803 0.9963 -0.0292
vn 0.0819 0.9965 -0.0144
vn 0.0855 0.9963 0.0000
vn 0.0819 0.9965 0.0144
vn 0.0803 0.9963 0.0292
vn 0.0720 0.9965 0.0415
vn 0.0654 0.9963 0.0549
vn 0.0534 0.9965 0.0637
vn 0.0427 0.9963 0.0739
vn 0.0284 0.9965 0.0780
vn 0.0148 0.9963 0.0840
vn 0.0031 0.9965 0.0839
vn -0.0150 0.9964 0.0836
vn -0.0210 0.9965 0.0804
vn -0.0421 0.9964 0.0733
vn -0.0501 0.9966 0.0649
vn -0.0652 0.9963 0.0547
vn -0.0717 0.9966 0.0414
vn -0.0800 0.9964 0.0291
vn -0.0815 0.9966 0.0144
vn -0.0851 0.9964 0.0000
vn -0.0815 0.9966 -0.0144
vn -0.0799 0.9964 -0.0291
vn -0.0717 0.9966 -0.0414
vn -0.0652 0.9964 -0.0547
vn -0.0532 0.9966 -0.0634
vn -0.0426 0.9964 -0.0737
vn -0.0283 0.9966 -0.0779
vn -0.0148 0.9963 -0.0839
vn 0.0000 0.9966 -0.0829
vn 0.0148 0.9963 -0.0840
vn 0.0284 0.9965 -0.0779
vn 0.0426 0.9963 -0.0739
vn 0.7740 0.4488 0.4466
vn 0.6733 0.4761 0.5657
vn 0.5750 0.4479 0.6846
vn 0.8263 0.4763 0.3004
vn 0.8802 0.4486 0.1547
vn 0.8795 0.4760 -0.0000
vn 0.8805 0.4480 -0.1545
vn 0.8268 0.4751 -0.3010
vn 0.7750 0.4469 -0.4467
vn 0.6742 0.4737 -0.5665
vn 0.5760 0.4452 -0.6856
vn 0.4400 0.4717 -0.7641
vn 0.3072 0.4431 -0.8422
vn 0.1527 0.4700 -0.8693
vn 0.0006 0.4415 -0.8972
vn -0.1540 0.4679 -0.8702
vn -0.3069 0.4389 -0.8444
vn -0.4422 0.4657 -0.7664
vn -0.5777 0.4371 -0.6893
vn -0.6786 0.4643 -0.5691
vn -0.7793 0.4362 -0.4499
vn -0.8322 0.4642 -0.3030
vn -0.8859 0.4367 -0.1563
vn -0.8854 0.4648 -0.0000
vn -0.8856 0.4373 0.1565
vn -0.8318 0.4655 0.3024
vn -0.7782 0.4383 0.4498
vn -0.6777 0.4667 0.5683
vn -0.5601 0.4272 0.7097
vn -0.4347 0.4322 0.7901
vn -0.2125 0.4388 0.8731
vn -0.1675 0.4707 0.8662
vn 0.0266 0.4562 0.8895
vn 0.1526 0.4728 0.8678
vn 0.3068 0.4463 0.8406
vn 0.4400 0.4747 0.7622
vn -0.1351 0.9628 0.2338
vn -0.0838 0.9695 0.2304
vn -0.0468 0.9631 0.2650
vn -0.1579 0.9693 0.1883
vn -0.2075 0.9626 0.1740
vn -0.2134 0.9691 0.1233
vn -0.2556 0.9623 0.0930
vn -0.2434 0.9690 0.0430
vn -0.2725 0.9621 0.0000
vn -0.2435 0.9689 -0.0429
vn -0.2560 0.9622 -0.0932
vn -0.2139 0.9690 -0.1236
vn -0.2083 0.9623 -0.1748
vn -0.1586 0.9691 -0.1891
vn -0.1359 0.9624 -0.2351
vn -0.0842 0.9692 -0.2314
vn -0.0471 0.9627 -0.2665
vn 0.0001 0.9694 -0.2455
vn 0.0467 0.9630 -0.2653
vn 0.0838 0.9696 -0.2297
vn 0.1340 0.9634 -0.2322
vn 0.1567 0.9698 -0.1867
vn 0.2044 0.9637 -0.1717
vn 0.2104 0.9700 -0.1214
vn 0.2499 0.9640 -0.0910
vn 0.2387 0.9702 -0.0421
vn 0.2655 0.9641 0.0000
vn 0.2385 0.9702 0.0421
vn 0.2494 0.9641 0.0908
vn 0.2099 0.9702 0.1211
vn 0.2036 0.9640 0.1709
vn 0.1560 0.9701 0.1859
vn 0.1332 0.9638 0.2309
vn 0.0834 0.9699 0.2288
vn 0.0464 0.9634 0.2638
vn 0.0001 0.9697 0.2444
vn 0.0000 1.0000 0.0000
vn -0.0462 0.9982 -0.0388
vn -0.0567 0.9982 -0.0206
vn -0.0301 0.9982 -0.0522
vn -0.0104 0.9982 -0.0594
vn -0.0603 0.9982 0.0000
vn -0.0567 0.9982 0.0206
vn -0.0462 0.9982 0.0388
vn -0.0302 0.9982 0.0522
vn -0.0105 0.9982 0.0594
vn 0.0105 0.9982 0.0594
vn 0.0302 0.9982 0.0522
vn 0.0462 0.9982 0.0388
vn 0.0567 0.9982 0.0206
vn 0.0603 0.9982 0.0000
vn 0.0567 0.9982 -0.0206
vn 0.0462 0.9982 -0.0388
vn 0.0301 0.9982 -0.0522
vn 0.0104 0.9982 -0.0594
usemtl m0kanagu_mat
s off
f 3/1/1 4/2/1 2/3/1
f 5/4/2 6/5/2 4/2/2
f 7/6/3 8/7/3 6/5/3
f 9/8/4 10/9/4 8/7/4
f 11/10/5 12/11/5 10/9/5
f 13/12/6 14/13/6 12/11/6
f 15/14/7 16/15/7 14/13/7
f 17/16/8 18/17/8 16/15/8
f 19/18/9 20/19/9 18/17/9
f 21/20/10 22/21/10 20/19/10
f 23/22/11 24/23/11 22/21/11
f 25/24/12 26/25/12 24/23/12
f 27/26/13 28/27/13 26/25/13
f 29/28/14 30/29/14 28/27/14
f 31/30/15 32/31/15 30/29/15
f 33/32/16 34/33/16 32/31/16
f 35/34/17 36/35/17 34/33/17
f 1/36/18 2/3/18 36/35/18
s 1
f 3/1/19 2/3/20 1/36/21
f 5/4/22 4/2/23 3/1/19
f 7/6/24 6/5/25 5/4/22
f 9/8/26 8/7/27 7/6/24
f 11/10/28 10/9/29 9/8/26
f 13/12/30 12/11/31 11/10/28
f 15/14/32 14/13/33 13/12/30
f 17/16/34 16/15/35 15/14/32
f 19/18/36 18/17/37 17/16/34
f 21/20/38 20/19/39 19/18/36
f 23/22/40 22/21/41 21/20/38
f 25/24/42 24/23/43 23/22/40
f 27/26/44 26/25/45 25/24/42
f 29/28/46 28/27/47 27/26/44
f 31/30/48 30/29/49 29/28/46
f 33/32/50 32/31/51 31/30/48
f 35/34/52 34/33/53 33/32/50
f 1/36/21 36/35/54 35/34/52
f 39/37/55 38/38/56 37/39/57
f 39/37/55 40/40/58 38/38/56
f 41/41/59 40/40/58 39/37/55
f 41/41/59 42/42/60 40/40/58
f 43/43/61 42/42/60 41/41/59
f 43/43/61 44/44/62 42/42/60
f 45/45/63 44/44/62 43/43/61
f 45/45/63 46/46/64 44/44/62
f 47/47/65 46/46/64 45/45/63
f 47/47/65 48/48/66 46/46/64
f 49/49/67 48/48/66 47/47/65
f 49/49/67 50/50/68 48/48/66
f 51/51/69 50/50/68 49/49/67
f 51/51/69 52/52/70 50/50/68
f 53/53/71 52/52/70 51/51/69
f 53/53/71 54/54/72 52/52/70
f 55/55/73 54/54/72 53/53/71
f 55/55/73 56/56/74 54/54/72
f 57/57/75 56/56/74 55/55/73
f 57/57/75 58/58/76 56/56/74
f 59/59/77 58/58/76 57/57/75
f 59/59/77 60/60/78 58/58/76
f 61/61/79 60/60/78 59/59/77
f 61/61/79 62/62/80 60/60/78
f 63/63/81 62/62/80 61/61/79
f 63/63/81 64/64/82 62/62/80
f 65/65/83 64/64/82 63/63/81
f 65/65/83 66/66/84 64/64/82
f 67/67/85 66/66/84 65/65/83
f 67/67/85 68/68/86 66/66/84
f 69/69/87 68/68/86 67/67/85
f 69/69/87 70/70/88 68/68/86
f 71/71/89 70/70/88 69/69/87
f 71/71/89 72/72/90 70/70/88
f 37/39/57 72/72/90 71/71/89
f 37/39/57 38/38/56 72/72/90
f 75/73/91 74/74/92 73/75/93
f 75/73/91 76/76/94 74/74/92
f 77/77/95 76/76/94 75/73/91
f 77/77/95 78/78/96 76/76/94
f 79/79/97 78/78/96 77/77/95
f 79/79/97 80/80/98 78/78/96
f 81/81/99 80/80/98 79/79/97
f 81/81/99 82/82/100 80/80/98
f 83/83/101 82/82/100 81/81/99
f 83/83/101 84/84/102 82/82/100
f 85/85/103 84/84/102 83/83/101
f 85/85/103 86/86/104 84/84/102
f 87/87/105 86/86/104 85/85/103
f 87/87/105 88/88/106 86/86/104
f 89/89/107 88/88/106 87/87/105
f 89/89/107 90/90/108 88/88/106
f 91/91/109 90/90/108 89/89/107
f 91/91/109 92/92/110 90/90/108
f 93/93/111 92/92/110 91/91/109
f 93/93/111 94/94/112 92/92/110
f 95/95/113 94/94/112 93/93/111
f 95/95/113 96/96/114 94/94/112
f 97/97/115 96/96/114 95/95/113
f 97/97/115 98/98/116 96/96/114
f 99/99/117 98/98/116 97/97/115
f 99/99/117 100/100/118 98/98/116
f 101/101/119 100/100/118 99/99/117
f 101/101/119 102/102/120 100/100/118
f 103/103/121 102/102/120 101/101/119
f 103/103/121 104/104/122 102/102/120
f 105/105/123 104/104/122 103/103/121
f 105/105/123 106/106/124 104/104/122
f 107/107/125 106/106/124 105/105/123
f 107/107/125 108/108/126 106/106/124
f 73/75/93 108/108/126 107/107/125
f 73/75/93 74/74/92 108/108/126
f 111/109/127 110/110/128 109/111/129
f 111/109/127 112/112/130 110/110/128
f 113/113/131 112/112/130 111/109/127
f 113/113/131 114/114/132 112/112/130
f 115/115/133 114/114/132 113/113/131
f 115/115/133 116/116/134 114/114/132
f 117/117/135 116/116/134 115/115/133
f 117/117/135 118/118/136 116/116/134
f 119/119/137 118/118/136 117/117/135
f 119/119/137 120/120/138 118/118/136
f 121/121/139 120/120/138 119/119/137
f 121/121/139 122/122/140 120/120/138
f 123/123/141 122/122/140 121/121/139
f 123/123/141 124/124/142 122/122/140
f 125/125/143 124/124/142 123/123/141
f 125/125/143 126/126/144 124/124/142
f 127/127/145 126/126/144 125/125/143
f 127/127/145 128/128/146 126/126/144
f 129/129/147 128/128/146 127/127/145
f 129/129/147 130/130/148 128/128/146
f 131/131/149 130/130/148 129/129/147
f 131/131/149 132/132/150 130/130/148
f 133/133/151 132/132/150 131/131/149
f 133/133/151 134/134/152 132/132/150
f 135/135/153 134/134/152 133/133/151
f 135/135/153 136/136/154 134/134/152
f 137/137/155 136/136/154 135/135/153
f 137/137/155 138/138/156 136/136/154
f 139/139/157 138/138/156 137/137/155
f 139/139/157 140/140/158 138/138/156
f 141/141/159 140/140/158 139/139/157
f 141/141/159 142/142/160 140/140/158
f 143/143/161 142/142/160 141/141/159
f 143/143/161 144/144/162 142/142/160
f 109/111/129 144/144/162 143/143/161
f 109/111/129 110/110/128 144/144/162
f 147/145/163 146/146/164 145/147/165
f 147/145/163 148/148/166 146/146/164
f 149/149/167 148/148/166 147/145/163
f 150/150/168 147/145/163 145/147/165
f 150/150/168 151/151/169 147/145/163
f 152/152/170 147/145/163 151/151/169
f 152/152/170 153/153/171 147/145/163
f 154/154/172 147/145/163 153/153/171
f 154/154/172 155/155/173 147/145/163
f 156/156/174 147/145/163 155/155/173
f 156/156/174 157/157/175 147/145/163
f 158/158/176 147/145/163 157/157/175
f 158/158/176 159/159/177 147/145/163
f 160/160/178 147/145/163 159/159/177
f 160/160/178 161/161/179 147/145/163
f 162/162/180 147/145/163 161/161/179
f 162/162/180 163/163/181 147/145/163
f 147/145/163 163/163/181 149/149/167
