# Blender v3.0.0 OBJ File: ''
# www.blender.org
mtllib emerald_gem.mtl
o mesh-0_meshId0_name.002
v 6.242190 12.815565 -4.542969
v 7.625000 12.815564 1.201171
v 0.000000 12.815564 0.000001
v 4.542970 12.815563 6.242191
v -1.201170 12.815563 7.625001
v -7.625000 12.815564 -1.201169
v -4.542970 12.815565 -6.242189
v 1.201170 12.815565 -7.625000
v -6.242190 12.815563 4.542971
v 0.480469 8.194472 11.990200
v -1.613280 11.546032 10.252002
v 5.031250 8.194472 10.892600
v 6.107420 11.546033 8.390631
v 6.107420 11.546033 8.390631
v 10.252001 11.546034 1.613281
v 8.818359 8.194473 8.136720
v 11.261700 8.194473 4.142581
v 11.990200 8.194474 -0.480469
v 10.252001 11.546034 1.613281
v 10.892600 8.194475 -5.031250
v 8.390630 11.546036 -6.107419
v 8.390630 11.546036 -6.107419
v 1.613280 11.546036 -10.252000
v 8.136720 8.194475 -8.818359
v 4.142580 8.194476 -11.261700
v -0.480469 8.194476 -11.990200
v 1.613280 11.546036 -10.252000
v -5.031250 8.194476 -10.892600
v -6.107420 11.546036 -8.390629
v -6.107420 11.546036 -8.390629
v -10.252001 11.546035 -1.613279
v -8.818359 8.194475 -8.136720
v -11.261700 8.194475 -4.142580
v -10.252001 11.546035 -1.613279
v -8.390630 11.546034 6.107421
v -11.990200 8.194474 0.480469
v -10.892600 8.194473 5.031250
v -8.390630 11.546034 6.107421
v -1.613280 11.546032 10.252002
v -8.136720 8.194473 8.818359
v -4.142580 8.194472 11.261700
v -8.390630 11.546034 6.107421
v -10.252001 11.546035 -1.613279
v -6.242190 12.815563 4.542971
v -7.625000 12.815564 -1.201169
v 6.107420 11.546033 8.390631
v -1.613280 11.546032 10.252002
v 4.542970 12.815563 6.242191
v -1.201170 12.815563 7.625001
v 8.390630 11.546036 -6.107419
v 10.252001 11.546034 1.613281
v 6.242190 12.815565 -4.542969
v 7.625000 12.815564 1.201171
v -6.107420 11.546036 -8.390629
v 1.613280 11.546036 -10.252000
v -4.542970 12.815565 -6.242189
v 1.201170 12.815565 -7.625000
v -1.613280 11.546032 10.252002
v -8.390630 11.546034 6.107421
v -1.201170 12.815563 7.625001
v -6.242190 12.815563 4.542971
v 10.252001 11.546034 1.613281
v 6.107420 11.546033 8.390631
v 7.625000 12.815564 1.201171
v 4.542970 12.815563 6.242191
v 1.613280 11.546036 -10.252000
v 8.390630 11.546036 -6.107419
v 1.201170 12.815565 -7.625000
v 6.242190 12.815565 -4.542969
v -10.252001 11.546035 -1.613279
v -6.107420 11.546036 -8.390629
v -7.625000 12.815564 -1.201169
v -4.542970 12.815565 -6.242189
v -11.261700 8.194475 -4.142580
v -10.252001 11.546035 -1.613279
v -11.990200 8.194474 0.480469
v -10.892600 8.194473 5.031250
v -8.390630 11.546034 6.107421
v -8.136720 8.194473 8.818359
v -4.142580 8.194472 11.261700
v -1.613280 11.546032 10.252002
v 0.480469 8.194472 11.990200
v 5.031250 8.194472 10.892600
v 6.107420 11.546033 8.390631
v 8.818359 8.194473 8.136720
v 11.261700 8.194473 4.142581
v 10.252001 11.546034 1.613281
v 11.990200 8.194474 -0.480469
v 10.892600 8.194475 -5.031250
v 8.390630 11.546036 -6.107419
v 8.136720 8.194475 -8.818359
v 4.142580 8.194476 -11.261700
v 1.613280 11.546036 -10.252000
v -0.480469 8.194476 -11.990200
v -5.031250 8.194476 -10.892600
v -6.107420 11.546036 -8.390629
v -8.818359 8.194475 -8.136720
vt 1.000000 0.000000
vt 0.942383 0.289063
vt 0.754883 0.164063
vt 0.754883 0.164063
vt 0.942383 0.289063
vt 0.754883 0.164063
vt 0.942383 0.289063
vt 0.942383 0.289063
vt 0.754883 0.164063
vt 0.787109 0.212891
vt 0.942383 0.289063
vt 0.884766 0.277344
vt 0.754883 0.164063
vt 0.722656 0.115234
vt 0.942383 0.289063
vt 0.754883 0.164063
vt 1.000000 0.300781
vt 0.787109 0.212891
vt 0.942383 0.289063
vt 0.884766 0.277344
vt 0.754883 0.164063
vt 0.722656 0.115234
vt 0.942383 0.289063
vt 0.754883 0.164063
vt 1.000000 0.300781
vt 0.787109 0.212891
vt 0.942383 0.289063
vt 0.884766 0.277344
vt 0.754883 0.164063
vt 0.722656 0.115234
vt 0.942383 0.289063
vt 0.754883 0.164063
vt 1.000000 0.300781
vt 0.884766 0.277344
vt 0.754883 0.164063
vt 0.942383 0.289063
vt 0.787109 0.212891
vt 0.722656 0.115234
vt 0.942383 0.289063
vt 0.754883 0.164063
vt 1.000000 0.300781
vt 0.754883 0.164063
vt 0.942383 0.289063
vt 0.754883 0.164063
vt 0.942383 0.289063
vt 0.754883 0.164063
vt 0.942383 0.289063
vt 0.754883 0.164063
vt 0.942383 0.289063
vt 0.754883 0.164063
vt 0.942383 0.289063
vt 0.754883 0.164063
vt 0.942383 0.289063
vt 0.754883 0.164063
vt 0.942383 0.289063
vt 0.754883 0.164063
vt 0.942383 0.289063
vt 0.942383 0.289063
vt 0.754883 0.164063
vt 0.942383 0.289063
vt 0.754883 0.164063
vt 0.942383 0.289063
vt 0.754883 0.164063
vt 0.942383 0.289063
vt 0.754883 0.164063
vt 0.942383 0.289063
vt 0.754883 0.164063
vt 0.942383 0.289063
vt 0.754883 0.164063
vt 0.942383 0.289063
vt 0.754883 0.164063
vt 0.942383 0.289063
vt 0.754883 0.164063
vt 0.884766 0.277344
vt 0.942383 0.289063
vt 1.000000 0.300781
vt 0.722656 0.115234
vt 0.754883 0.164063
vt 0.787109 0.212891
vt 0.884766 0.277344
vt 0.942383 0.289063
vt 1.000000 0.300781
vt 0.722656 0.115234
vt 0.754883 0.164063
vt 0.787109 0.212891
vt 0.884766 0.277344
vt 0.942383 0.289063
vt 1.000000 0.300781
vt 0.722656 0.115234
vt 0.754883 0.164063
vt 0.787109 0.212891
vt 0.884766 0.277344
vt 0.942383 0.289063
vt 1.000000 0.300781
vt 0.722656 0.115234
vt 0.754883 0.164063
vt 0.787109 0.212891
vn -0.0000 1.0000 0.0000
vn 0.1965 0.5454 0.8148
vn 0.1965 0.5453 0.8149
vn 0.7151 0.5453 0.4373
vn 0.7150 0.5455 0.4374
vn 0.8148 0.5454 -0.1965
vn 0.8149 0.5453 -0.1965
vn 0.4373 0.5453 -0.7151
vn 0.4374 0.5455 -0.7150
vn -0.1965 0.5454 -0.8148
vn -0.1965 0.5453 -0.8149
vn -0.7151 0.5453 -0.4373
vn -0.7150 0.5455 -0.4374
vn -0.8149 0.5453 0.1965
vn -0.8149 0.5452 0.1965
vn -0.4373 0.5453 0.7151
vn -0.4374 0.5455 0.7150
vn -0.4465 0.8883 0.1076
vn -0.4462 0.8885 0.1074
vn 0.1076 0.8883 0.4465
vn 0.1074 0.8885 0.4462
vn 0.4465 0.8883 -0.1076
vn 0.4462 0.8885 -0.1074
vn -0.1076 0.8883 -0.4465
vn -0.1074 0.8885 -0.4462
vn -0.2396 0.8883 0.3917
vn -0.2396 0.8883 0.3918
vn 0.3917 0.8883 0.2396
vn 0.3918 0.8883 0.2396
vn 0.2396 0.8883 -0.3917
vn 0.2396 0.8883 -0.3918
vn -0.3917 0.8883 -0.2396
vn -0.3918 0.8883 -0.2396
vn -0.9123 0.3834 -0.1438
vn -0.7469 0.3830 0.5435
vn -0.1438 0.3834 0.9123
vn 0.5435 0.3830 0.7469
vn 0.9123 0.3834 0.1438
vn 0.7469 0.3830 -0.5435
vn 0.1438 0.3834 -0.9123
vn -0.5435 0.3830 -0.7469
g mesh-0_meshId0_name.002_m0houseki01_mat_v.001
usemtl m0houseki01_mat_v.001
s off
f 3/1/1 2/2/1 1/3/1
f 3/1/1 4/4/1 2/2/1
f 5/5/1 4/4/1 3/1/1
f 3/1/1 7/6/1 6/7/1
f 3/1/1 8/8/1 7/6/1
f 1/3/1 8/8/1 3/1/1
f 3/1/1 9/9/1 5/5/1
f 3/1/1 6/7/1 9/9/1
f 12/10/2 11/11/2 10/12/2
f 12/10/3 13/13/3 11/11/3
f 16/14/4 15/15/4 14/16/4
f 16/14/5 17/17/5 15/15/5
f 20/18/6 19/19/6 18/20/6
f 20/18/7 21/21/7 19/19/7
f 24/22/8 23/23/8 22/24/8
f 24/22/9 25/25/9 23/23/9
f 28/26/10 27/27/10 26/28/10
f 28/26/11 29/29/11 27/27/11
f 32/30/12 31/31/12 30/32/12
f 32/30/13 33/33/13 31/31/13
f 36/34/14 35/35/14 34/36/14
f 36/34/15 37/37/15 35/35/15
f 40/38/16 39/39/16 38/40/16
f 40/38/17 41/41/17 39/39/17
f 44/42/18 43/43/18 42/44/18
f 44/42/19 45/45/19 43/43/19
f 48/46/20 47/47/20 46/48/20
f 48/46/21 49/49/21 47/47/21
f 52/50/22 51/51/22 50/52/22
f 52/50/23 53/53/23 51/51/23
f 56/54/24 55/55/24 54/56/24
f 56/54/25 57/57/25 55/55/25
f 60/58/26 59/59/26 58/60/26
f 60/58/27 61/61/27 59/59/27
f 64/62/28 63/63/28 62/64/28
f 64/62/29 65/65/29 63/63/29
f 68/66/30 67/67/30 66/68/30
f 68/66/31 69/69/31 67/67/31
f 72/70/32 71/71/32 70/72/32
f 72/70/33 73/73/33 71/71/33
f 76/74/34 75/75/34 74/76/34
f 79/77/35 78/78/35 77/79/35
f 82/80/36 81/81/36 80/82/36
f 85/83/37 84/84/37 83/85/37
f 88/86/38 87/87/38 86/88/38
f 91/89/39 90/90/39 89/91/39
f 94/92/40 93/93/40 92/94/40
f 97/95/41 96/96/41 95/97/41
