# Blender v3.0.0 OBJ File: ''
# www.blender.org
mtllib skippy_lid.mtl
o mesh-1_meshId1_name.002
v 26.988298 63.003899 2.835950
v 27.750000 64.003899 2.914070
v 25.335899 63.003899 9.722671
v 26.050798 64.003899 10.000010
v 21.953100 63.003895 15.949210
v 22.574200 64.003899 16.402309
v 17.078100 63.003895 21.089809
v 17.558599 64.003899 21.683609
v 11.035200 63.003895 24.793011
v 11.347700 64.003891 25.492208
v 4.242190 63.003895 26.804708
v 4.363280 64.003891 27.558609
v -2.835940 63.003895 26.988308
v -2.914060 64.003891 27.750010
v -9.722660 63.003895 25.335909
v -10.000000 64.003891 26.050808
v -15.949200 63.003895 21.953110
v -16.402300 64.003899 22.574209
v -21.089800 63.003895 17.078110
v -21.683599 64.003899 17.558609
v -24.793001 63.003899 11.035211
v -25.492199 64.003899 11.347711
v -26.804699 63.003899 4.242200
v -27.558599 64.003899 4.363290
v -26.988298 63.003899 -2.835930
v -27.750000 64.003899 -2.914049
v -25.335899 63.003899 -9.722650
v -26.050798 64.003899 -9.999990
v -21.953100 63.003902 -15.949189
v -22.574200 64.003899 -16.402290
v -17.078100 63.003902 -21.089790
v -17.558599 64.003899 -21.683590
v -11.035200 63.003902 -24.792992
v -11.347700 64.003906 -25.492189
v -4.242190 63.003902 -26.804689
v -4.363280 64.003906 -27.558590
v 2.835940 63.003902 -26.988289
v 2.914060 64.003906 -27.749990
v 9.722660 63.003902 -25.335890
v 10.000000 64.003906 -26.050789
v 15.949200 63.003902 -21.953091
v 16.402300 64.003899 -22.574190
v 21.089800 63.003902 -17.078091
v 21.683599 64.003899 -17.558590
v 24.793001 63.003899 -11.035190
v 25.492199 64.003899 -11.347690
v 26.804699 63.003899 -4.242179
v 27.558599 64.003899 -4.363269
v 10.000000 64.003906 -26.050789
v 10.550799 64.003906 -27.484390
v 16.402300 64.003899 -22.574190
v 17.304699 64.003906 -23.816389
v 21.683599 64.003899 -17.558590
v 22.878899 64.003899 -18.527290
v 25.492199 64.003899 -11.347690
v 26.894499 64.003899 -11.972690
v 27.558599 64.003899 -4.363269
v 29.078100 64.003899 -4.605459
v 27.750000 64.003899 2.914070
v 29.277300 64.003899 3.074230
v 26.050798 64.003899 10.000010
v 27.484400 64.003899 10.550810
v 22.574200 64.003899 16.402309
v 23.816399 64.003899 17.304708
v 17.558599 64.003899 21.683609
v 18.527300 64.003899 22.878908
v 11.347700 64.003891 25.492208
v 11.972700 64.003891 26.894508
v 4.363280 64.003891 27.558609
v 4.605470 64.003891 29.078110
v -2.914060 64.003891 27.750010
v -3.074220 64.003891 29.277309
v -10.000000 64.003891 26.050808
v -10.550799 64.003891 27.484409
v -16.402300 64.003899 22.574209
v -17.304699 64.003891 23.816408
v -21.683599 64.003899 17.558609
v -22.878899 64.003899 18.527309
v -25.492199 64.003899 11.347711
v -26.894499 64.003899 11.972711
v -27.558599 64.003899 4.363290
v -29.078100 64.003899 4.605480
v -27.750000 64.003899 -2.914049
v -29.277300 64.003899 -3.074209
v -26.050798 64.003899 -9.999990
v -27.484400 64.003899 -10.550789
v -22.574200 64.003899 -16.402290
v -23.816399 64.003899 -17.304689
v -17.558599 64.003899 -21.683590
v -18.527300 64.003899 -22.878889
v -11.347700 64.003906 -25.492189
v -11.972700 64.003906 -26.894489
v -4.363280 64.003906 -27.558590
v -4.605470 64.003906 -29.078091
v 2.914060 64.003906 -27.749990
v 3.074220 64.003906 -29.277290
v -11.972700 48.851604 -26.894491
v -11.972700 64.003906 -26.894489
v -18.527300 48.851604 -22.878891
v -18.527300 64.003899 -22.878889
v -23.816399 48.851604 -17.304691
v -23.816399 64.003899 -17.304689
v -27.484400 48.851601 -10.550792
v -27.484400 64.003899 -10.550789
v -29.277300 48.851601 -3.074212
v -29.277300 64.003899 -3.074209
v -29.078100 48.851601 4.605478
v -29.078100 64.003899 4.605480
v -26.894499 48.851597 11.972708
v -26.894499 64.003899 11.972711
v -22.878899 48.851597 18.527308
v -22.878899 64.003899 18.527309
v -17.304699 48.851597 23.816406
v -17.304699 64.003891 23.816408
v -10.550799 48.851597 27.484407
v -10.550799 64.003891 27.484409
v -3.074220 48.851597 29.277308
v -3.074220 64.003891 29.277309
v 4.605470 48.851597 29.078108
v 4.605470 64.003891 29.078110
v 11.972700 48.851597 26.894506
v 11.972700 64.003891 26.894508
v 18.527300 48.851597 22.878906
v 18.527300 64.003899 22.878908
v 23.816399 48.851597 17.304707
v 23.816399 64.003899 17.304708
v 27.484400 48.851601 10.550807
v 27.484400 64.003899 10.550810
v 29.277300 48.851601 3.074228
v 29.277300 64.003899 3.074230
v 29.078100 48.851601 -4.605462
v 29.078100 64.003899 -4.605459
v 26.894499 48.851604 -11.972692
v 26.894499 64.003899 -11.972690
v 22.878899 48.851604 -18.527292
v 22.878899 64.003899 -18.527290
v 17.304699 48.851604 -23.816391
v 17.304699 64.003906 -23.816389
v 10.550799 48.851604 -27.484392
v 10.550799 64.003906 -27.484390
v 3.074220 48.851604 -29.277292
v 3.074220 64.003906 -29.277290
v -4.605470 48.851604 -29.078093
v -4.605470 64.003906 -29.078091
v -11.972700 48.851604 -26.894491
v -11.972700 64.003906 -26.894489
v 17.078100 63.003895 21.089809
v 11.035200 63.003895 24.793011
v -11.035200 63.003902 -24.792992
v -17.078100 63.003902 -21.089790
v 21.953100 63.003895 15.949210
v -4.242190 63.003902 -26.804689
v 25.335899 63.003899 9.722671
v 2.835940 63.003902 -26.988289
v 26.988298 63.003899 2.835950
v 9.722660 63.003902 -25.335890
v 26.804699 63.003899 -4.242179
v 15.949200 63.003902 -21.953091
v 24.793001 63.003899 -11.035190
v 21.089800 63.003902 -17.078091
v -21.953100 63.003902 -15.949189
v 4.242190 63.003895 26.804708
v -25.335899 63.003899 -9.722650
v -2.835940 63.003895 26.988308
v -26.988298 63.003899 -2.835930
v -9.722660 63.003895 25.335909
v -26.804699 63.003899 4.242200
v -15.949200 63.003895 21.953110
v -24.793001 63.003899 11.035211
v -21.089800 63.003895 17.078110
v 4.605470 48.851597 29.078108
v 11.972700 48.851597 26.894506
v -11.972700 48.851604 -26.894491
v -4.605470 48.851604 -29.078093
v -3.074220 48.851597 29.277308
v -18.527300 48.851604 -22.878891
v -10.550799 48.851597 27.484407
v -23.816399 48.851604 -17.304691
v -17.304699 48.851597 23.816406
v -27.484400 48.851601 -10.550792
v -22.878899 48.851597 18.527308
v -29.277300 48.851601 -3.074212
v -26.894499 48.851597 11.972708
v -29.078100 48.851601 4.605478
v 3.074220 48.851604 -29.277292
v 18.527300 48.851597 22.878906
v 10.550799 48.851604 -27.484392
v 23.816399 48.851597 17.304707
v 17.304699 48.851604 -23.816391
v 27.484400 48.851601 10.550807
v 22.878899 48.851604 -18.527292
v 29.277300 48.851601 3.074228
v 26.894499 48.851604 -11.972692
v 29.078100 48.851601 -4.605462
vt 0.936401 0.766357
vt 0.834229 0.843384
vt 0.857056 0.865112
vt 0.908447 0.750977
vt 0.986328 0.651245
vt 0.955078 0.643311
vt 1.003300 0.527832
vt 0.971069 0.527832
vt 0.986328 0.404419
vt 0.955078 0.412354
vt 0.936401 0.289307
vt 0.908447 0.304688
vt 0.857056 0.190552
vt 0.834229 0.212280
vt 0.753540 0.114746
vt 0.737427 0.141357
vt 0.633179 0.067139
vt 0.624756 0.096802
vt 0.503906 0.050781
vt 0.503906 0.081665
vt 0.374634 0.067139
vt 0.383057 0.096802
vt 0.254272 0.114746
vt 0.270386 0.141357
vt 0.150757 0.190552
vt 0.173584 0.212280
vt 0.071411 0.289307
vt 0.099365 0.304688
vt 0.021484 0.404419
vt 0.052734 0.412354
vt 0.004517 0.527832
vt 0.036743 0.527832
vt 0.021484 0.651245
vt 0.052734 0.643311
vt 0.071411 0.766357
vt 0.099365 0.750977
vt 0.150757 0.865112
vt 0.173584 0.843384
vt 0.254272 0.940918
vt 0.270386 0.914307
vt 0.374634 0.988647
vt 0.383057 0.958862
vt 0.503906 0.998753
vt 0.503906 0.974121
vt 0.633179 0.988647
vt 0.624756 0.958862
vt 0.753540 0.940918
vt 0.737427 0.914307
vt 0.503906 0.991821
vt 0.503906 0.063965
vt 0.629639 0.079712
vt 0.378174 0.975952
vt 0.629639 0.975952
vt 0.746704 0.126099
vt 0.746704 0.929565
vt 0.847290 0.199829
vt 0.847290 0.855835
vt 0.924561 0.295898
vt 0.924561 0.759766
vt 0.973022 0.407715
vt 0.973022 0.647949
vt 0.989624 0.527832
vt 0.378174 0.079712
vt 0.261108 0.929565
vt 0.261108 0.126099
vt 0.160522 0.855835
vt 0.160522 0.199829
vt 0.083252 0.759766
vt 0.083252 0.295898
vt 0.034790 0.647949
vt 0.034790 0.407715
vt 0.018189 0.527832
vt 0.503906 0.974121
vt 0.503906 0.081665
vt 0.383057 0.096802
vt 0.624756 0.958862
vt 0.383057 0.958862
vt 0.270386 0.141357
vt 0.270386 0.914307
vt 0.173584 0.212280
vt 0.173584 0.843384
vt 0.099365 0.304688
vt 0.099365 0.750977
vt 0.052734 0.412354
vt 0.052734 0.643311
vt 0.036743 0.527832
vt 0.624756 0.096802
vt 0.737427 0.914307
vt 0.737427 0.141357
vt 0.834229 0.843384
vt 0.834229 0.212280
vt 0.908447 0.750977
vt 0.908447 0.304688
vt 0.955078 0.643311
vt 0.955078 0.412354
vt 0.971069 0.527832
vt 0.847290 0.199829
vt 0.936401 0.289307
vt 0.924561 0.295898
vt 0.857056 0.190552
vt 0.746704 0.126099
vt 0.753540 0.114746
vt 0.629639 0.079712
vt 0.633179 0.067139
vt 0.503906 0.063965
vt 0.503906 0.050781
vt 0.378174 0.079712
vt 0.374634 0.067139
vt 0.261108 0.126099
vt 0.254272 0.114746
vt 0.160522 0.199829
vt 0.150757 0.190552
vt 0.083252 0.295898
vt 0.071411 0.289307
vt 0.034790 0.407715
vt 0.021484 0.404419
vt 0.018189 0.527832
vt 0.004517 0.527832
vt 0.034790 0.647949
vt 0.021484 0.651245
vt 0.083252 0.759766
vt 0.071411 0.766357
vt 0.160522 0.855835
vt 0.150757 0.865112
vt 0.261108 0.929565
vt 0.254272 0.940918
vt 0.378174 0.975952
vt 0.374634 0.988647
vt 0.503906 0.991821
vt 0.503906 0.998753
vt 0.629639 0.975952
vt 0.633179 0.988647
vt 0.746704 0.929565
vt 0.753540 0.940918
vt 0.847290 0.855835
vt 0.857056 0.865112
vt 0.924561 0.759766
vt 0.936401 0.766357
vt 0.973022 0.647949
vt 0.986328 0.651245
vt 0.989624 0.527832
vt 1.003300 0.527832
vt 0.973022 0.407715
vt 0.986328 0.404419
vt -0.876465 0.038352
vt -1.001710 0.001298
vt -1.001710 0.038352
vt -0.876465 0.001298
vt -0.751343 0.038352
vt -0.751343 0.001298
vt -0.626221 0.038352
vt -0.626221 0.001298
vt -0.501099 0.038352
vt -0.501099 0.001298
vt -0.375977 0.038352
vt -0.375977 0.001298
vt -0.250732 0.038352
vt -0.250732 0.001298
vt -0.125610 0.038352
vt -0.125610 0.001298
vt -0.000488 0.038352
vt -0.000488 0.001298
vt 0.124512 0.038352
vt 0.124512 0.001298
vt 0.249634 0.038352
vt 0.249634 0.001298
vt 0.374756 0.038352
vt 0.374756 0.001298
vt 0.500000 0.038352
vt 0.500000 0.001298
vt 0.625122 0.038352
vt 0.625122 0.001298
vt 0.750244 0.038352
vt 0.750244 0.001298
vt 0.875366 0.038352
vt 0.875366 0.001298
vt 1.000490 0.038352
vt 1.000490 0.001298
vt 1.125730 0.038352
vt 1.125730 0.001298
vt 1.250850 0.038352
vt 1.250850 0.001298
vt 1.375980 0.038352
vt 1.375980 0.001298
vt 1.501100 0.038352
vt 1.501100 0.001298
vt 1.626220 0.038352
vt 1.626220 0.001298
vt 1.751340 0.038352
vt 1.751340 0.001298
vt 1.876590 0.038352
vt 1.876590 0.001298
vt 2.001710 0.038352
vt 2.001710 0.001298
vn 0.0000 1.0000 0.0000
vn -0.0000 -1.0000 0.0000
vn -0.7409 0.6084 -0.2842
vn -0.7896 0.6080 -0.0828
vn -0.7897 0.6079 -0.0830
vn -0.7407 0.6085 -0.2845
vn -0.6415 0.6095 -0.4658
vn -0.6415 0.6093 -0.4660
vn -0.5000 0.6071 -0.6176
vn -0.3229 0.6080 -0.7253
vn -0.3230 0.6080 -0.7252
vn -0.1240 0.6069 -0.7850
vn -0.1242 0.6069 -0.7850
vn 0.0830 0.6079 -0.7897
vn 0.0828 0.6080 -0.7896
vn 0.2842 0.6084 -0.7409
vn 0.2845 0.6085 -0.7407
vn 0.4658 0.6095 -0.6415
vn 0.4660 0.6093 -0.6415
vn 0.6175 0.6071 -0.5000
vn 0.6176 0.6071 -0.5000
vn 0.7253 0.6080 -0.3229
vn 0.7252 0.6080 -0.3230
vn 0.7850 0.6069 -0.1240
vn 0.7850 0.6069 -0.1242
vn 0.7897 0.6079 0.0830
vn 0.7896 0.6080 0.0828
vn 0.7409 0.6084 0.2842
vn 0.7407 0.6085 0.2845
vn 0.6415 0.6095 0.4658
vn 0.6415 0.6093 0.4660
vn 0.5000 0.6071 0.6175
vn 0.5000 0.6071 0.6176
vn 0.3229 0.6080 0.7253
vn 0.3230 0.6080 0.7252
vn 0.1240 0.6069 0.7850
vn 0.1242 0.6069 0.7850
vn -0.0830 0.6079 0.7897
vn -0.0828 0.6080 0.7896
vn -0.2842 0.6084 0.7409
vn -0.2845 0.6085 0.7407
vn -0.4658 0.6095 0.6415
vn -0.4660 0.6093 0.6415
vn -0.6175 0.6071 0.5000
vn -0.6176 0.6071 0.5000
vn -0.7253 0.6080 0.3229
vn -0.7252 0.6080 0.3230
vn -0.7850 0.6069 0.1240
vn -0.7850 0.6069 0.1242
vn -0.6293 0.0000 -0.7772
vn -0.5224 0.0000 -0.8527
vn -0.8090 0.0000 -0.5878
vn -0.9336 0.0000 -0.3583
vn -0.9945 0.0000 -0.1045
vn -0.9877 0.0000 0.1564
vn -0.9135 0.0000 0.4068
vn -0.7772 0.0000 0.6293
vn -0.5878 0.0000 0.8090
vn -0.3583 0.0000 0.9336
vn -0.1045 0.0000 0.9945
vn 0.1564 0.0000 0.9877
vn 0.4068 0.0000 0.9135
vn 0.6293 0.0000 0.7772
vn 0.8090 0.0000 0.5878
vn 0.9336 0.0000 0.3583
vn 0.9945 0.0000 0.1045
vn 0.9877 0.0000 -0.1564
vn 0.9135 0.0000 -0.4068
vn 0.7772 0.0000 -0.6293
vn 0.5878 0.0000 -0.8090
vn 0.3583 0.0000 -0.9336
vn 0.1045 0.0000 -0.9945
vn -0.1564 0.0000 -0.9877
vn -0.2842 0.0000 -0.9588
usemtl m1futa_mat_v
s off
f 51/1/1 50/2/1 49/3/1
f 51/1/1 52/4/1 50/2/1
f 53/5/1 52/4/1 51/1/1
f 53/5/1 54/6/1 52/4/1
f 55/7/1 54/6/1 53/5/1
f 55/7/1 56/8/1 54/6/1
f 57/9/1 56/8/1 55/7/1
f 57/9/1 58/10/1 56/8/1
f 59/11/1 58/10/1 57/9/1
f 59/11/1 60/12/1 58/10/1
f 61/13/1 60/12/1 59/11/1
f 61/13/1 62/14/1 60/12/1
f 63/15/1 62/14/1 61/13/1
f 63/15/1 64/16/1 62/14/1
f 65/17/1 64/16/1 63/15/1
f 65/17/1 66/18/1 64/16/1
f 67/19/1 66/18/1 65/17/1
f 67/19/1 68/20/1 66/18/1
f 69/21/1 68/20/1 67/19/1
f 69/21/1 70/22/1 68/20/1
f 71/23/1 70/22/1 69/21/1
f 71/23/1 72/24/1 70/22/1
f 73/25/1 72/24/1 71/23/1
f 73/25/1 74/26/1 72/24/1
f 75/27/1 74/26/1 73/25/1
f 75/27/1 76/28/1 74/26/1
f 77/29/1 76/28/1 75/27/1
f 77/29/1 78/30/1 76/28/1
f 79/31/1 78/30/1 77/29/1
f 79/31/1 80/32/1 78/30/1
f 81/33/1 80/32/1 79/31/1
f 81/33/1 82/34/1 80/32/1
f 83/35/1 82/34/1 81/33/1
f 83/35/1 84/36/1 82/34/1
f 85/37/1 84/36/1 83/35/1
f 85/37/1 86/38/1 84/36/1
f 87/39/1 86/38/1 85/37/1
f 87/39/1 88/40/1 86/38/1
f 89/41/1 88/40/1 87/39/1
f 89/41/1 90/42/1 88/40/1
f 91/43/1 90/42/1 89/41/1
f 91/43/1 92/44/1 90/42/1
f 93/45/1 92/44/1 91/43/1
f 93/45/1 94/46/1 92/44/1
f 95/47/1 94/46/1 93/45/1
f 95/47/1 96/48/1 94/46/1
f 49/3/1 96/48/1 95/47/1
f 49/3/1 50/2/1 96/48/1
f 149/49/1 148/50/1 147/51/1
f 149/49/1 150/52/1 148/50/1
f 152/53/1 147/51/1 151/54/1
f 152/53/1 149/49/1 147/51/1
f 154/55/1 151/54/1 153/56/1
f 154/55/1 152/53/1 151/54/1
f 156/57/1 153/56/1 155/58/1
f 156/57/1 154/55/1 153/56/1
f 158/59/1 155/58/1 157/60/1
f 158/59/1 156/57/1 155/58/1
f 160/61/1 157/60/1 159/62/1
f 160/61/1 158/59/1 157/60/1
f 162/63/1 150/52/1 161/64/1
f 162/63/1 148/50/1 150/52/1
f 164/65/1 161/64/1 163/66/1
f 164/65/1 162/63/1 161/64/1
f 166/67/1 163/66/1 165/68/1
f 166/67/1 164/65/1 163/66/1
f 168/69/1 165/68/1 167/70/1
f 168/69/1 166/67/1 165/68/1
f 170/71/1 167/70/1 169/72/1
f 170/71/1 168/69/1 167/70/1
f 173/73/2 172/74/2 171/75/2
f 173/73/2 174/76/2 172/74/2
f 176/77/2 171/75/2 175/78/2
f 176/77/2 173/73/2 171/75/2
f 178/79/2 175/78/2 177/80/2
f 178/79/2 176/77/2 175/78/2
f 180/81/2 177/80/2 179/82/2
f 180/81/2 178/79/2 177/80/2
f 182/83/2 179/82/2 181/84/2
f 182/83/2 180/81/2 179/82/2
f 184/85/2 181/84/2 183/86/2
f 184/85/2 182/83/2 181/84/2
f 186/87/2 174/76/2 185/88/2
f 186/87/2 172/74/2 174/76/2
f 188/89/2 185/88/2 187/90/2
f 188/89/2 186/87/2 185/88/2
f 190/91/2 187/90/2 189/92/2
f 190/91/2 188/89/2 187/90/2
f 192/93/2 189/92/2 191/94/2
f 192/93/2 190/91/2 189/92/2
f 194/95/2 191/94/2 193/96/2
f 194/95/2 192/93/2 191/94/2
s 1
f 3/97/3 2/98/4 1/99/5
f 3/97/3 4/100/6 2/98/4
f 5/101/7 4/100/6 3/97/3
f 5/101/7 6/102/8 4/100/6
f 7/103/9 6/102/8 5/101/7
f 7/103/9 8/104/9 6/102/8
f 9/105/10 8/104/9 7/103/9
f 9/105/10 10/106/11 8/104/9
f 11/107/12 10/106/11 9/105/10
f 11/107/12 12/108/13 10/106/11
f 13/109/14 12/108/13 11/107/12
f 13/109/14 14/110/15 12/108/13
f 15/111/16 14/110/15 13/109/14
f 15/111/16 16/112/17 14/110/15
f 17/113/18 16/112/17 15/111/16
f 17/113/18 18/114/19 16/112/17
f 19/115/20 18/114/19 17/113/18
f 19/115/20 20/116/21 18/114/19
f 21/117/22 20/116/21 19/115/20
f 21/117/22 22/118/23 20/116/21
f 23/119/24 22/118/23 21/117/22
f 23/119/24 24/120/25 22/118/23
f 25/121/26 24/120/25 23/119/24
f 25/121/26 26/122/27 24/120/25
f 27/123/28 26/122/27 25/121/26
f 27/123/28 28/124/29 26/122/27
f 29/125/30 28/124/29 27/123/28
f 29/125/30 30/126/31 28/124/29
f 31/127/32 30/126/31 29/125/30
f 31/127/32 32/128/33 30/126/31
f 33/129/34 32/128/33 31/127/32
f 33/129/34 34/130/35 32/128/33
f 35/131/36 34/130/35 33/129/34
f 35/131/36 36/132/37 34/130/35
f 37/133/38 36/132/37 35/131/36
f 37/133/38 38/134/39 36/132/37
f 39/135/40 38/134/39 37/133/38
f 39/135/40 40/136/41 38/134/39
f 41/137/42 40/136/41 39/135/40
f 41/137/42 42/138/43 40/136/41
f 43/139/44 42/138/43 41/137/42
f 43/139/44 44/140/45 42/138/43
f 45/141/46 44/140/45 43/139/44
f 45/141/46 46/142/47 44/140/45
f 47/143/48 46/142/47 45/141/46
f 47/143/48 48/144/49 46/142/47
f 1/99/5 48/144/49 47/143/48
f 1/99/5 2/98/4 48/144/49
f 99/145/50 98/146/51 97/147/51
f 99/145/50 100/148/50 98/146/51
f 101/149/52 100/148/50 99/145/50
f 101/149/52 102/150/52 100/148/50
f 103/151/53 102/150/52 101/149/52
f 103/151/53 104/152/53 102/150/52
f 105/153/54 104/152/53 103/151/53
f 105/153/54 106/154/54 104/152/53
f 107/155/55 106/154/54 105/153/54
f 107/155/55 108/156/55 106/154/54
f 109/157/56 108/156/55 107/155/55
f 109/157/56 110/158/56 108/156/55
f 111/159/57 110/158/56 109/157/56
f 111/159/57 112/160/57 110/158/56
f 113/161/58 112/160/57 111/159/57
f 113/161/58 114/162/58 112/160/57
f 115/163/59 114/162/58 113/161/58
f 115/163/59 116/164/59 114/162/58
f 117/165/60 116/164/59 115/163/59
f 117/165/60 118/166/60 116/164/59
f 119/167/61 118/166/60 117/165/60
f 119/167/61 120/168/61 118/166/60
f 121/169/62 120/168/61 119/167/61
f 121/169/62 122/170/62 120/168/61
f 123/171/63 122/170/62 121/169/62
f 123/171/63 124/172/63 122/170/62
f 125/173/64 124/172/63 123/171/63
f 125/173/64 126/174/64 124/172/63
f 127/175/65 126/174/64 125/173/64
f 127/175/65 128/176/65 126/174/64
f 129/177/66 128/176/65 127/175/65
f 129/177/66 130/178/66 128/176/65
f 131/179/67 130/178/66 129/177/66
f 131/179/67 132/180/67 130/178/66
f 133/181/68 132/180/67 131/179/67
f 133/181/68 134/182/68 132/180/67
f 135/183/69 134/182/68 133/181/68
f 135/183/69 136/184/69 134/182/68
f 137/185/70 136/184/69 135/183/69
f 137/185/70 138/186/70 136/184/69
f 139/187/71 138/186/70 137/185/70
f 139/187/71 140/188/71 138/186/70
f 141/189/72 140/188/71 139/187/71
f 141/189/72 142/190/72 140/188/71
f 143/191/73 142/190/72 141/189/72
f 143/191/73 144/192/73 142/190/72
f 145/193/74 144/192/73 143/191/73
f 145/193/74 146/194/74 144/192/73
