# Blender v3.0.0 OBJ File: ''
# www.blender.org
mtllib skippy_label.mtl
o mesh-2_meshId2_name
v -27.671900 3.539062 -10.621099
v -27.671900 41.683598 -10.621093
v -29.480499 3.539060 -3.097659
v -29.480499 41.683598 -3.097653
v -29.277300 3.539059 4.636720
v -29.277300 41.683598 4.636726
v -27.078100 3.539058 12.054701
v -27.078100 41.683594 12.054707
v -23.035200 3.539057 18.652300
v -23.035200 41.683594 18.652308
v -17.421900 3.539056 23.980499
v -17.421900 41.683594 23.980507
v -10.621099 3.539055 27.671900
v -10.621099 41.683594 27.671907
v -3.097660 3.539055 29.480499
v -3.097660 41.683594 29.480507
v 4.636720 3.539055 29.277300
v 4.636720 41.683594 29.277308
v 12.054700 3.539055 27.078100
v 12.054700 41.683594 27.078108
v 18.652300 3.539056 23.035200
v 18.652300 41.683594 23.035208
v 23.980499 3.539057 17.421900
v 23.980499 41.683594 17.421907
v 27.671900 3.539058 10.621100
v 27.671900 41.683598 10.621106
v 29.480499 3.539059 3.097660
v 29.480499 41.683598 3.097667
v 29.277300 3.539061 -4.636719
v 29.277300 41.683598 -4.636713
v 27.078100 3.539062 -12.054699
v 27.078100 41.683601 -12.054693
v 23.035200 3.539063 -18.652300
v 23.035200 41.683601 -18.652292
v 17.421900 3.539064 -23.980499
v 17.421900 41.683601 -23.980492
v 10.621099 3.539064 -27.671900
v 10.621099 41.683601 -27.671892
vt 0.052124 0.000000
vt 0.000000 1.000000
vt 0.000000 0.000000
vt 0.052124 1.000000
vt 0.105103 0.000000
vt 0.105103 1.000000
vt 0.158936 0.000000
vt 0.158936 1.000000
vt 0.213623 0.000000
vt 0.213623 1.000000
vt 0.269409 0.000000
vt 0.269409 1.000000
vt 0.326050 0.000000
vt 0.326050 1.000000
vt 0.383545 0.000000
vt 0.383545 1.000000
vt 0.441528 0.000000
vt 0.441528 1.000000
vt 0.500000 0.000000
vt 0.500000 1.000000
vt 0.558350 0.000000
vt 0.558350 1.000000
vt 0.616455 0.000000
vt 0.616455 1.000000
vt 0.673828 0.000000
vt 0.673828 1.000000
vt 0.730469 0.000000
vt 0.730469 1.000000
vt 0.786255 0.000000
vt 0.786255 1.000000
vt 0.841064 0.000000
vt 0.841064 1.000000
vt 0.894775 0.000000
vt 0.894775 1.000000
vt 0.947754 0.000000
vt 0.947754 1.000000
vt 1.000000 0.000000
vt 1.000000 1.000000
vn -0.9945 0.0000 -0.1046
vn -0.9723 0.0000 -0.2337
vn -0.9876 0.0000 0.1566
vn -0.9135 0.0000 0.4068
vn -0.7772 0.0000 0.6293
vn -0.5878 0.0000 0.8090
vn -0.3584 0.0000 0.9335
vn -0.1046 0.0000 0.9945
vn 0.1566 0.0000 0.9876
vn 0.4068 0.0000 0.9135
vn 0.6293 0.0000 0.7772
vn 0.8090 0.0000 0.5878
vn 0.9335 0.0000 0.3584
vn 0.9945 0.0000 0.1046
vn 0.9876 0.0000 -0.1566
vn 0.9135 0.0000 -0.4068
vn 0.7772 0.0000 -0.6293
vn 0.5878 0.0000 -0.8090
vn 0.4770 0.0000 -0.8789
usemtl m2label_mat_v
s 1
f 3/1/1 2/2/2 1/3/2
f 3/1/1 4/4/1 2/2/2
f 5/5/3 4/4/1 3/1/1
f 5/5/3 6/6/3 4/4/1
f 7/7/4 6/6/3 5/5/3
f 7/7/4 8/8/4 6/6/3
f 9/9/5 8/8/4 7/7/4
f 9/9/5 10/10/5 8/8/4
f 11/11/6 10/10/5 9/9/5
f 11/11/6 12/12/6 10/10/5
f 13/13/7 12/12/6 11/11/6
f 13/13/7 14/14/7 12/12/6
f 15/15/8 14/14/7 13/13/7
f 15/15/8 16/16/8 14/14/7
f 17/17/9 16/16/8 15/15/8
f 17/17/9 18/18/9 16/16/8
f 19/19/10 18/18/9 17/17/9
f 19/19/10 20/20/10 18/18/9
f 21/21/11 20/20/10 19/19/10
f 21/21/11 22/22/11 20/20/10
f 23/23/12 22/22/11 21/21/11
f 23/23/12 24/24/12 22/22/11
f 25/25/13 24/24/12 23/23/12
f 25/25/13 26/26/13 24/24/12
f 27/27/14 26/26/13 25/25/13
f 27/27/14 28/28/14 26/26/13
f 29/29/15 28/28/14 27/27/14
f 29/29/15 30/30/15 28/28/14
f 31/31/16 30/30/15 29/29/15
f 31/31/16 32/32/16 30/30/15
f 33/33/17 32/32/16 31/31/16
f 33/33/17 34/34/17 32/32/16
f 35/35/18 34/34/17 33/33/17
f 35/35/18 36/36/18 34/34/17
f 37/37/19 36/36/18 35/35/18
f 37/37/19 38/38/19 36/36/18
