# Blender v3.0.0 OBJ File: ''
# www.blender.org
mtllib capsule_dog.mtl
o mesh-1_meshId1_name.004
v -14.943399 2.059017 -0.097660
v -11.837900 2.059023 -9.419926
v -14.078099 2.059020 -5.541023
v -7.556640 2.059023 -12.892606
v -14.439500 2.059014 3.724606
v -3.994140 2.059023 -14.369105
v -12.964800 2.059014 7.287106
v -0.169922 2.059026 -14.871105
v -10.617200 2.059011 10.347694
v 3.652340 2.059023 -14.369105
v -7.556640 2.059011 12.695294
v 7.216800 2.059023 -12.892606
v -3.994140 2.059011 14.171894
v 10.275400 2.059023 -10.544906
v -0.169922 2.059009 14.675794
v 12.623000 2.059020 -7.484385
v 3.652340 2.059011 14.171894
v 14.099600 2.059020 -3.921883
v 7.216800 2.059011 12.695294
v 14.603499 2.059017 -0.097660
v 14.099600 2.059014 3.724606
v 12.623000 2.059014 7.287106
v 10.275400 2.059011 10.347694
vt 0.066834 0.250000
vt 0.000122 0.575806
vt 0.000122 0.424255
vt 0.066834 0.750000
vt 0.146301 0.146484
vt 0.146301 0.853577
vt 0.249817 0.067017
vt 0.249817 0.933044
vt 0.370422 0.017090
vt 0.370422 0.982971
vt 0.499817 0.000000
vt 0.499817 1.000000
vt 0.629272 0.017090
vt 0.629272 0.982971
vt 0.749817 0.067017
vt 0.749817 0.933044
vt 0.853394 0.146484
vt 0.853394 0.853577
vt 0.932861 0.250000
vt 0.932861 0.750000
vt 0.982788 0.629456
vt 0.999817 0.500000
vt 0.982788 0.370605
vn 0.0000 1.0000 0.0000
usemtl m1photo_mat
s 1
f 1/1/1 2/2/1 3/3/1
f 1/1/1 4/4/1 2/2/1
f 5/5/1 4/4/1 1/1/1
f 5/5/1 6/6/1 4/4/1
f 7/7/1 6/6/1 5/5/1
f 7/7/1 8/8/1 6/6/1
f 9/9/1 8/8/1 7/7/1
f 9/9/1 10/10/1 8/8/1
f 11/11/1 10/10/1 9/9/1
f 11/11/1 12/12/1 10/10/1
f 13/13/1 12/12/1 11/11/1
f 13/13/1 14/14/1 12/12/1
f 15/15/1 14/14/1 13/13/1
f 15/15/1 16/16/1 14/14/1
f 17/17/1 16/16/1 15/15/1
f 17/17/1 18/18/1 16/16/1
f 19/19/1 18/18/1 17/17/1
f 19/19/1 20/20/1 18/18/1
f 21/21/1 20/20/1 19/19/1
f 19/19/1 22/22/1 21/21/1
f 19/19/1 23/23/1 22/22/1
