# Blender v3.0.0 OBJ File: ''
# www.blender.org
mtllib mirrored_inner.mtl
o mesh-2_meshId2_name
v 13.364136 6.433674 -23.171762
v 18.847397 6.433673 -18.970589
v 11.776995 4.751054 -20.934170
v 20.209463 4.751052 -12.514772
v 0.511287 1.751072 -1.199272
v 23.300203 4.751050 -1.007515
v 20.224180 4.751049 10.504490
v 25.713469 6.433669 6.583321
v 23.074221 6.433668 12.967139
v 18.872961 6.433668 18.450329
v 11.804334 4.751049 18.936060
v 0.297569 4.751050 21.682394
v -11.214394 4.751050 18.951626
v -13.064730 6.433670 22.677135
v -18.548000 6.433671 18.475945
v 6.482234 6.433675 -26.182924
v 0.264935 4.751056 -24.234612
v -6.219385 6.433676 -26.173815
v -11.242536 4.751056 -20.918028
v -13.096918 6.433676 -23.153261
v -18.573078 6.433676 -18.944193
v 23.056168 6.433672 -13.493138
v 25.703812 6.433671 -7.114044
v 26.610075 6.433670 -0.266057
v -22.756197 6.433672 12.999290
v -19.645491 4.751052 10.532598
v -25.404415 6.433673 6.619401
v -22.737602 4.751054 -0.975028
v -26.310669 6.433674 -0.228569
v -25.413479 6.433675 -7.077133
v -19.661530 4.751056 -12.486948
v 13.395510 6.433668 22.659103
v -22.774315 6.433676 -13.460898
vt 0.999634 0.800049
vt 0.749634 1.000000
vt 0.499634 0.800049
vt -0.000244 0.800049
vt 0.249634 1.000000
vt -0.000244 1.000000
vt 0.499634 0.800049
vt 0.499634 0.000000
vt 0.999634 0.800049
vt 0.499634 0.800049
vt 0.749634 1.000000
vt 0.499634 1.000000
vt 0.249634 1.000000
vt -0.000244 0.800049
vt 0.499634 0.800049
vt 0.999634 0.800049
vt 0.999634 1.000000
vt 0.749634 1.000000
vt 0.249634 1.000000
vt 0.499634 0.800049
vt 0.749634 1.000000
vt 0.999634 1.000000
vt 0.499634 1.000000
vt 0.749634 1.000000
vt 0.999634 1.000000
vt 0.499634 0.800049
vt 0.499634 1.000000
vt 0.249634 1.000000
vt -0.000244 0.800049
vt -0.000244 1.000000
vt 0.249634 1.000000
vt -0.000244 1.000000
vt 0.499634 1.000000
vn 0.2870 0.9141 0.2866
vn -0.1731 0.9390 0.2971
vn -0.3204 0.8918 0.3192
vn -0.2686 0.8517 0.4500
vn -0.2819 0.9445 0.1689
vn -0.0013 1.0000 0.0007
vn -0.3046 0.9525 0.0058
vn -0.2465 0.9594 -0.1368
vn -0.3765 0.9207 -0.1026
vn -0.3553 0.9106 -0.2110
vn -0.2557 0.9318 -0.2575
vn -0.1264 0.9622 -0.2413
vn -0.0004 0.8387 -0.5445
vn 0.1218 0.9638 -0.2371
vn 0.1638 0.9151 -0.3683
vn 0.2469 0.9366 -0.2486
vn -0.1160 0.8813 0.4580
vn -0.0001 0.9167 0.3995
vn 0.1158 0.8853 0.4503
vn 0.1666 0.9429 0.2884
vn 0.2616 0.8628 0.4324
vn 0.3081 0.9010 0.3053
vn -0.4308 0.8694 0.2419
vn -0.4092 0.9060 0.1080
vn -0.4520 0.8920 -0.0064
vn 0.2349 0.9630 -0.1318
vn 0.3385 0.9194 -0.2003
vn 0.3578 0.9286 -0.0978
vn 0.2880 0.9576 0.0048
vn 0.4250 0.9052 -0.0062
vn 0.3878 0.9161 0.1016
vn 0.2675 0.9501 0.1606
vn -0.1659 0.9109 -0.3778
vn 0.4072 0.8847 0.2268
usemtl m2fande_mat
s off
f 19/1/1 21/2/1 31/3/1
s 1
f 3/4/2 2/5/3 1/6/4
f 3/4/2 4/7/5 2/5/3
f 5/8/6 4/7/5 3/4/2
f 5/8/6 6/9/7 4/7/5
f 7/10/8 6/9/7 5/8/6
f 7/10/8 8/11/9 6/9/7
f 9/12/10 8/11/9 7/10/8
f 7/10/8 10/13/11 9/12/10
f 7/10/8 11/14/12 10/13/11
f 5/8/6 11/14/12 7/10/8
f 5/8/6 12/15/13 11/14/12
f 13/16/14 12/15/13 5/8/6
f 13/16/14 14/17/15 12/15/13
f 15/18/16 14/17/15 13/16/14
f 16/19/17 3/4/2 1/6/4
f 16/19/17 17/20/18 3/4/2
f 18/21/19 17/20/18 16/19/17
f 18/21/19 19/1/20 17/20/18
f 20/22/21 19/1/20 18/21/19
f 20/22/21 21/2/22 19/1/20
f 4/7/5 22/23/23 2/5/3
f 4/7/5 23/24/24 22/23/23
f 6/9/7 23/24/24 4/7/5
f 6/9/7 24/25/25 23/24/24
f 8/11/9 24/25/25 6/9/7
f 26/26/26 25/27/27 15/18/16
f 26/26/26 27/28/28 25/27/27
f 28/29/29 27/28/28 26/26/26
f 28/29/29 29/30/30 27/28/28
f 30/31/31 29/30/30 28/29/29
f 5/8/6 28/29/29 26/26/26
f 5/8/6 31/3/32 28/29/29
f 19/1/20 31/3/32 5/8/6
f 32/32/33 12/15/13 14/17/15
f 32/32/33 11/14/12 12/15/13
f 10/13/11 11/14/12 32/32/33
f 17/20/18 5/8/6 3/4/2
f 17/20/18 19/1/20 5/8/6
f 13/16/14 26/26/26 15/18/16
f 13/16/14 5/8/6 26/26/26
f 33/33/34 31/3/32 21/2/22
f 33/33/34 30/31/31 31/3/32
f 30/31/31 28/29/29 31/3/32
