# Blender v3.0.0 OBJ File: ''
# www.blender.org
mtllib crayon_base.mtl
o meshes_0-0_Mesh.005
v -2.407584 -13.593751 9.994544
v -6.912986 -11.957032 9.991888
v -2.611284 -14.769532 6.993461
v -7.507154 -12.988282 6.991185
v -10.584384 -8.875001 9.985844
v -11.498603 -9.640625 6.984904
v -12.982924 -4.718751 9.983408
v -14.101054 -5.128907 6.981650
v -13.818259 -0.000001 9.983126
v -15.006806 -0.000000 6.981985
v -12.982924 4.718749 9.983410
v -14.101054 5.128906 6.981652
v -10.584382 8.871093 9.985846
v -11.498601 9.640625 6.984907
v -7.507152 12.988280 6.991189
v -11.385574 9.640641 -101.008858
v -7.395458 12.988297 -101.006241
v -13.991701 5.128922 -101.010773
v -7.386835 -1.597639 -109.985008
v -14.898787 0.000016 -101.014114
v 2.390132 13.058593 8.237308
v -2.407321 13.058593 8.735371
v 6.892822 11.417967 8.747904
v 10.563457 8.335936 9.335979
v -6.912153 11.417968 9.318418
v 12.961168 4.718748 10.011889
v 13.792831 -0.000002 10.013502
v 12.961168 -4.718752 10.011888
v -13.818259 -0.000001 9.983126
v 10.562626 -8.871096 10.009451
v -12.982924 -4.718751 9.983408
v 6.892560 -11.957033 10.007076
v -10.584384 -8.875001 9.985844
v 2.389498 -13.593752 9.999416
v -6.912986 -11.957032 9.991888
v -2.407584 -13.593751 9.994544
v -2.501928 -14.769516 -100.998970
v -7.395458 -12.988265 -101.006248
v -11.385574 -9.640609 -101.008858
v -13.991701 -5.128890 -101.010780
v 0.116737 -4.105451 -114.386093
v 9.761585 -5.703109 -110.239342
v -1.670116 -12.304670 -110.251450
v 6.670578 -13.234360 -104.854500
v 13.323320 -6.808578 -104.533882
v 11.593966 -9.640610 -100.985237
v 14.200089 -5.128891 -100.983307
v 11.482270 -9.640627 7.012200
v 14.084723 -5.128908 7.015455
v 15.102169 0.000015 -100.982315
v 14.200089 5.128921 -100.983307
v 14.990476 -0.000002 7.015123
v 14.084723 5.128904 7.015456
v 11.593966 9.640640 -100.985229
v 11.482271 9.640623 7.012203
v 7.602518 12.988297 -100.991508
v 7.490823 12.988279 7.005922
v 2.706646 14.769547 -100.993790
v 2.593621 14.769530 6.999974
v 10.563457 8.335936 9.335979
v 6.892822 11.417967 8.747904
v 0.116737 -4.105451 -114.386093
v -0.483517 13.574235 -103.705055
v 7.807713 12.457047 -104.091080
v -2.501928 14.769547 -100.998962
v -2.611283 14.769530 6.993465
v -2.407321 13.058593 8.735371
v -6.912153 11.417968 9.318418
v 7.490821 -12.988283 7.005918
v 7.602518 -12.988266 -100.991516
v 2.593620 -14.769532 6.999970
v 2.706646 -14.769516 -100.993790
v -2.611284 -14.769532 6.993461
v -2.501928 -14.769516 -100.998970
v -7.386835 -1.597639 -109.985008
v -1.670116 -12.304670 -110.251450
v 13.323320 -6.808578 -104.533882
v 9.761585 -5.703109 -110.239342
v 7.807713 12.457047 -104.091080
v -1.670116 -12.304670 -110.251450
v 6.670578 -13.234360 -104.854500
v 6.670578 -13.234360 -104.854500
v 0.116737 -4.105451 -114.386093
v 2.390132 13.058593 8.237308
v 7.807713 12.457047 -104.091080
v 0.116737 -4.105451 -114.386093
v 0.116737 -4.105451 -114.386093
v -1.670116 -12.304670 -110.251450
vt -0.444336 0.000000
vt -0.333252 0.000000
vt -0.444336 0.024170
vt -0.333252 0.024170
vt -0.222168 0.000000
vt -0.222168 0.024170
vt -0.110962 0.000000
vt -0.110962 0.024170
vt 0.000000 0.000000
vt 0.000000 0.024170
vt 0.111084 0.000000
vt 0.111084 0.024170
vt 0.222168 0.000000
vt 0.222168 0.024170
vt 0.333252 0.024170
vt 0.222168 0.461426
vt 0.333252 0.461426
vt 0.111084 0.461426
vt -0.066772 0.822754
vt 0.000000 0.461426
vt 0.557739 0.014282
vt 0.442139 0.010132
vt 0.672974 0.010132
vt 0.787476 0.005493
vt 0.326904 0.005493
vt 0.888916 0.000000
vt 1.000000 0.000000
vt 1.111084 0.000000
vt 2.000000 0.000000
vt 1.222168 0.000000
vt 1.888916 0.000000
vt 1.333252 0.000000
vt 1.777710 0.000000
vt 1.444458 0.000000
vt 1.666626 0.000000
vt 1.555542 0.000000
vt -0.444336 0.461426
vt -0.333252 0.461426
vt -0.222168 0.461426
vt -0.110962 0.461426
vt 1.500000 1.000000
vt 1.169922 0.833740
vt 1.545776 0.833740
vt 1.353394 0.616943
vt 1.151489 0.604248
vt 1.222168 0.461426
vt 1.111084 0.461426
vt 1.222168 0.024170
vt 1.111084 0.024170
vt 1.000000 0.461426
vt 0.888916 0.461426
vt 1.000000 0.024170
vt 0.888916 0.024170
vt 0.777710 0.461426
vt 0.777710 0.024170
vt 0.666626 0.461426
vt 0.666626 0.024170
vt 0.555542 0.461426
vt 0.555542 0.024170
vt 0.787476 0.005493
vt 0.672974 0.010132
vt 1.500000 1.000000
vt 0.349976 0.850098
vt 0.649902 0.800049
vt 0.444458 0.461426
vt 0.444458 0.024170
vt 0.442139 0.010132
vt 0.326904 0.005493
vt 1.333252 0.024170
vt 1.333252 0.461426
vt 1.444458 0.024170
vt 1.444458 0.461426
vt 1.555542 0.024170
vt 1.555542 0.461426
vt -0.066772 0.822754
vt -0.454102 0.833740
vt 1.151489 0.604248
vt 1.169922 0.833740
vt 0.649902 0.800049
vt 1.545776 0.833740
vt 1.353394 0.616943
vt 1.353394 0.616943
vt -0.499878 1.000000
vt 0.557739 0.014282
vt 0.649902 0.800049
vt 1.500000 1.000000
vt -0.499878 1.000000
vt -0.454102 0.833740
vn -0.0926 -0.7909 0.6049
vn -0.2990 -0.5945 0.7464
vn -0.1687 -0.9676 0.1881
vn -0.4895 -0.8516 0.1878
vn -0.4068 -0.3834 0.8292
vn -0.7512 -0.6329 0.1875
vn -0.5135 -0.2215 0.8290
vn -0.9224 -0.3378 0.1874
vn -0.5583 -0.0327 0.8290
vn -0.9823 -0.0021 0.1873
vn -0.5359 0.1599 0.8290
vn -0.9238 0.3340 0.1873
vn -0.4354 0.4348 0.7883
vn -0.7800 0.6076 0.1497
vn -0.5081 0.8185 0.2683
vn -0.7186 0.6646 -0.2047
vn -0.4552 0.8009 -0.3891
vn -0.8719 0.3798 -0.3090
vn -0.4941 0.3927 -0.7757
vn -0.9611 0.0364 -0.2737
vn 0.0893 0.5114 0.8547
vn 0.0571 0.3295 0.9424
vn 0.0655 0.3768 0.9240
vn 0.0386 0.2244 0.9737
vn 0.0370 0.2152 0.9759
vn 0.4746 0.3057 0.8254
vn 0.5566 0.0327 0.8301
vn 0.5342 -0.1599 0.8301
vn 0.4472 -0.3332 0.8300
vn 0.3062 -0.4664 0.8299
vn 0.1282 -0.5433 0.8297
vn -0.2073 -0.9723 -0.1083
vn -0.5240 -0.8399 -0.1415
vn -0.7665 -0.5685 -0.2989
vn -0.9166 -0.2935 -0.2714
vn 0.2781 -0.4801 -0.8319
vn 0.4292 -0.5883 -0.6854
vn 0.3253 -0.5621 -0.7604
vn 0.5705 -0.6659 -0.4807
vn 0.8239 -0.5198 -0.2258
vn 0.7352 -0.6759 -0.0514
vn 0.9265 -0.3753 -0.0270
vn 0.7535 -0.6297 0.1890
vn 0.9234 -0.3340 0.1892
vn 0.9761 -0.0264 -0.2158
vn 0.9001 0.3056 -0.3104
vn 0.9819 0.0020 0.1893
vn 0.9220 0.3378 0.1892
vn 0.7796 0.6136 -0.1249
vn 0.7230 0.6404 0.2593
vn 0.5299 0.8468 -0.0456
vn 0.4506 0.8213 0.3500
vn 0.1929 0.9649 -0.1781
vn 0.1250 0.8689 0.4789
vn 0.5294 0.5951 0.6047
vn 0.2565 0.6249 0.7374
vn -0.1460 0.5077 -0.8491
vn -0.1456 0.7110 -0.6880
vn 0.0641 0.7148 -0.6963
vn -0.1309 0.9708 -0.2011
vn -0.2031 0.9112 0.3583
vn -0.0263 0.6672 0.7444
vn -0.2784 0.7283 0.6262
vn 0.4926 -0.8495 0.1888
vn 0.4688 -0.8829 -0.0260
vn 0.1724 -0.9668 0.1885
vn 0.1307 -0.9866 -0.0976
vn -0.2072 -0.9723 -0.1083
vn -0.6775 -0.2907 -0.6756
vn -0.6298 -0.4567 -0.6283
vn 0.8517 0.0496 -0.5217
vn 0.7109 0.2127 -0.6703
vn 0.6241 0.3608 -0.6931
vn -0.0831 -0.9568 -0.2785
vn 0.0835 -0.9525 -0.2930
vn 0.4986 -0.8644 -0.0657
vn 0.1006 0.5745 0.8123
vn 0.4972 0.8600 -0.1147
vn 0.4181 0.3312 -0.8459
vn -0.5528 -0.2758 -0.7863
usemtl Material.008
s 1
f 1/1/1 2/2/2 3/3/3
f 2/2/2 4/4/4 3/3/3
f 2/2/2 5/5/5 4/4/4
f 5/5/5 6/6/6 4/4/4
f 5/5/5 7/7/7 6/6/6
f 7/7/7 8/8/8 6/6/6
f 7/7/7 9/9/9 8/8/8
f 9/9/9 10/10/10 8/8/8
f 9/9/9 11/11/11 10/10/10
f 11/11/11 12/12/12 10/10/10
f 11/11/11 13/13/13 12/12/12
f 13/13/13 14/14/14 12/12/12
f 13/13/13 15/15/15 14/14/14
f 15/15/15 16/16/16 14/14/14
f 15/15/15 17/17/17 16/16/16
f 17/17/17 18/18/18 16/16/16
f 17/17/17 19/19/19 18/18/18
f 19/19/19 20/20/20 18/18/18
f 21/21/21 22/22/22 23/23/23
f 22/22/22 24/24/24 23/23/23
f 22/22/22 25/25/25 24/24/24
f 25/25/25 26/26/26 24/24/24
f 25/25/25 13/13/13 26/26/26
f 13/13/13 27/27/27 26/26/26
f 13/13/13 11/11/11 27/27/27
f 11/11/11 28/28/28 27/27/27
f 11/11/11 29/29/9 28/28/28
f 29/29/9 30/30/29 28/28/28
f 29/29/9 31/31/7 30/30/29
f 31/31/7 32/32/30 30/30/29
f 31/31/7 33/33/5 32/32/30
f 33/33/5 34/34/31 32/32/30
f 33/33/5 35/35/2 34/34/31
f 35/35/2 36/36/1 34/34/31
f 3/3/3 4/4/4 37/37/32
f 4/4/4 38/38/33 37/37/32
f 4/4/4 6/6/6 38/38/33
f 6/6/6 39/39/34 38/38/33
f 6/6/6 8/8/8 39/39/34
f 8/8/8 40/40/35 39/39/34
f 8/8/8 10/10/10 40/40/35
f 10/10/10 20/20/20 40/40/35
f 10/10/10 12/12/12 20/20/20
f 12/12/12 18/18/18 20/20/20
f 12/12/12 14/14/14 18/18/18
f 14/14/14 16/16/16 18/18/18
f 41/41/36 42/42/37 43/43/38
f 42/42/37 44/44/39 43/43/38
f 42/42/37 45/45/40 44/44/39
f 45/45/40 46/46/41 44/44/39
f 45/45/40 47/47/42 46/46/41
f 47/47/42 48/48/43 46/46/41
f 47/47/42 49/49/44 48/48/43
f 49/49/44 30/30/29 48/48/43
f 49/49/44 28/28/28 30/30/29
f 50/50/45 51/51/46 52/52/47
f 51/51/46 53/53/48 52/52/47
f 51/51/46 54/54/49 53/53/48
f 54/54/49 55/55/50 53/53/48
f 54/54/49 56/56/51 55/55/50
f 56/56/51 57/57/52 55/55/50
f 56/56/51 58/58/53 57/57/52
f 58/58/53 59/59/54 57/57/52
f 52/52/47 53/53/48 27/27/27
f 53/53/48 26/26/26 27/27/27
f 53/53/48 55/55/50 26/26/26
f 55/55/50 60/60/55 26/26/26
f 55/55/50 57/57/52 60/60/55
f 57/57/52 61/61/56 60/60/55
f 57/57/52 59/59/54 61/61/56
f 62/62/57 63/63/58 64/64/59
f 63/63/58 58/58/53 64/64/59
f 63/63/58 65/65/60 58/58/53
f 65/65/60 59/59/54 58/58/53
f 65/65/60 66/66/61 59/59/54
f 66/66/61 67/67/62 59/59/54
f 66/66/61 68/68/63 67/67/62
f 48/48/43 69/69/64 46/46/41
f 69/69/64 70/70/65 46/46/41
f 69/69/64 71/71/66 70/70/65
f 71/71/66 72/72/67 70/70/65
f 71/71/66 73/73/3 72/72/67
f 73/73/3 74/74/68 72/72/67
f 30/30/29 32/32/30 48/48/43
f 32/32/30 69/69/64 48/48/43
f 32/32/30 34/34/31 69/69/64
f 34/34/31 71/71/66 69/69/64
f 34/34/31 36/36/1 71/71/66
f 36/36/1 73/73/3 71/71/66
f 63/63/58 17/17/17 65/65/60
f 17/17/17 66/66/61 65/65/60
f 17/17/17 15/15/15 66/66/61
f 15/15/15 68/68/63 66/66/61
f 15/15/15 13/13/13 68/68/63
f 45/45/40 50/50/45 47/47/42
f 50/50/45 49/49/44 47/47/42
f 50/50/45 52/52/47 49/49/44
f 52/52/47 28/28/28 49/49/44
f 52/52/47 27/27/27 28/28/28
f 20/20/20 75/75/69 40/40/35
f 75/75/69 39/39/34 40/40/35
f 75/75/69 76/76/70 39/39/34
f 76/76/70 38/38/33 39/39/34
f 77/77/71 78/78/72 50/50/45
f 78/78/72 51/51/46 50/50/45
f 78/78/72 79/79/73 51/51/46
f 79/79/73 54/54/49 51/51/46
f 74/74/68 80/80/74 72/72/67
f 80/80/74 81/81/75 72/72/67
f 46/46/41 70/70/65 82/82/76
f 70/70/65 72/72/67 82/82/76
f 83/83/57 19/19/19 63/63/58
f 19/19/19 17/17/17 63/63/58
f 67/67/62 84/84/77 59/59/54
f 84/84/77 61/61/56 59/59/54
f 54/54/49 85/85/78 56/56/51
f 85/85/78 58/58/53 56/56/51
f 86/86/79 79/79/73 78/78/72
f 87/87/80 76/76/70 75/75/69
f 38/38/33 88/88/74 37/37/32
