# Blender v3.0.0 OBJ File: ''
# www.blender.org
mtllib goodness_wrapper.mtl
o mesh-0_meshId0_name.004
v -27.818399 10.994102 -16.294897
v -23.732399 10.994102 -18.617197
v -25.904299 -15.999997 -14.955103
v -22.349600 -15.999997 -17.150402
v 0.000000 -16.000000 -0.000003
v -21.150400 -15.999996 -21.150402
v -17.150400 -15.999996 -22.349602
v -19.857399 10.994103 -25.878897
v -34.628899 10.994100 -0.130857
v -34.072300 10.994101 -4.089838
v -29.912100 -16.000000 -0.000003
v -27.931599 -15.999999 -3.675782
v -28.892599 -15.999999 -7.740232
v -26.027300 -15.999998 -10.781302
v -28.939499 10.994102 -12.023397
v -16.648399 10.994104 -29.347698
v -12.482400 10.994104 -30.136698
v -14.955100 -15.999996 -25.904301
v -10.781300 -15.999996 -26.027302
v -7.740230 -15.999995 -28.892601
v -3.675780 -15.999995 -27.931601
v -4.257810 10.994105 -32.341801
v 12.800799 10.994094 32.556599
v 10.781300 -16.000004 26.027298
v 14.955100 -16.000004 25.904297
v 0.000000 -16.000000 -0.000003
v 17.150400 -16.000004 22.349598
v 21.150400 -16.000004 21.150398
v 20.052700 10.994095 27.158201
v 23.625002 10.994096 24.896502
v -29.378899 10.994097 17.152302
v -30.275400 10.994098 12.816401
v -25.904299 -16.000002 14.955097
v -26.027300 -16.000002 10.781297
v -28.892599 -16.000002 7.740227
v -27.931599 -16.000000 3.675777
v -32.337898 10.994099 4.125002
v 33.740200 10.994100 -0.253904
v 32.146500 10.994099 4.144532
v 29.912100 -16.000000 -0.000003
v 27.931599 -16.000000 3.675777
v 28.892599 -16.000002 7.740227
v 26.027300 -16.000002 10.781297
v 29.048800 10.994098 12.115202
v -0.345703 10.994094 37.037098
v 0.000000 -16.000006 29.912098
v 3.675780 -16.000004 27.931597
v 7.740230 -16.000004 28.892597
v 8.636720 10.994094 37.035198
v 28.761700 10.994102 -16.986298
v 28.906300 10.994102 -12.152298
v 25.904299 -15.999997 -14.955103
v 26.027300 -15.999998 -10.781302
v 28.892599 -15.999999 -7.740232
v 27.931599 -15.999999 -3.675782
v 31.921900 10.994101 -3.978518
v 15.851600 10.994104 -27.455097
v 18.761700 10.994103 -24.429697
v 14.955100 -15.999996 -25.904301
v 17.150400 -15.999996 -22.349602
v 21.150400 -15.999996 -21.150402
v 22.349600 -15.999997 -17.150402
v 25.931599 10.994102 -19.046898
v 15.851600 10.994104 -27.455097
v 14.955100 -15.999996 -25.904301
v 10.781300 -15.999996 -26.027302
v 7.740230 -15.999995 -28.892601
v 3.675780 -15.999995 -27.931601
v 8.287109 10.994105 -32.283199
v 22.349600 -16.000002 17.150398
v 25.904299 -16.000002 14.955097
v 28.904299 10.994097 16.947302
v -7.740230 -16.000004 28.892597
v -3.675780 -16.000004 27.931597
v -4.896480 10.994094 34.755898
v -7.740230 -16.000004 28.892597
v -10.781300 -16.000004 26.027298
v -14.955100 -16.000004 25.904297
v -17.150400 -16.000004 22.349598
v -19.822300 10.994096 25.818401
v -24.152300 10.994096 23.904301
v -25.263699 10.994097 19.693401
v -21.150400 -16.000004 21.150398
v -22.349600 -16.000002 17.150398
v 0.000000 10.994105 -34.634800
v 4.656250 10.994105 -33.933598
v 0.000000 -15.999995 -29.912102
v -9.414060 10.994094 34.234398
v -12.482400 10.994095 30.136702
v -17.281300 10.994095 29.933601
v -33.453098 10.994098 8.962892
v -32.980499 10.994101 -8.429688
v -23.347700 10.994103 -23.310497
v -8.962890 10.994105 -33.453098
v 32.027298 10.994101 -8.746088
v 32.140598 10.994098 8.986332
v 24.791000 10.994097 19.490202
v 17.759800 10.994095 31.031301
v 3.929690 10.994094 35.923798
v 11.416000 10.994104 -29.191397
v 23.640600 10.994103 -22.117197
v -26.027300 -16.000002 10.781297
v -27.931599 -16.000000 3.675777
v -27.931599 -15.999999 -3.675782
v -26.027300 -15.999998 -10.781302
v -22.349600 -15.999997 -17.150402
v -17.150400 -15.999996 -22.349602
v -3.675780 -15.999995 -27.931601
v 3.675780 -15.999995 -27.931601
v 10.781300 -15.999996 -26.027302
v 17.150400 -15.999996 -22.349602
v 22.349600 -15.999997 -17.150402
v 26.027300 -15.999998 -10.781302
v 27.931599 -15.999999 -3.675782
v 27.931599 -16.000000 3.675777
v 26.027300 -16.000002 10.781297
v 22.349600 -16.000002 17.150398
v 14.955100 -16.000004 25.904297
v 3.675780 -16.000004 27.931597
v -3.675780 -16.000004 27.931597
v -10.781300 -16.000004 26.027298
v -17.150400 -16.000004 22.349598
vt -0.525635 0.000000
vt -0.614258 1.000000
vt -0.527832 1.000000
vt -0.609131 0.000000
vt -1.316410 0.000000
vt -0.689209 0.000000
vt -0.771729 0.000000
vt -0.768799 1.000000
vt -0.193359 0.000000
vt -0.266357 1.000000
vt -0.192139 1.000000
vt -0.278809 0.000000
vt -0.360352 0.000000
vt -0.444824 0.000000
vt -0.442871 1.000000
vt -0.851318 0.000000
vt -0.930664 1.000000
vt -0.854004 1.000000
vt -0.932861 0.000000
vt -1.012450 0.000000
vt -1.093020 0.000000
vt -1.091800 1.000000
vt 1.186040 0.000000
vt 1.101070 0.000000
vt 1.085690 1.000000
vt 2.683350 0.000000
vt 1.273190 0.000000
vt 1.357180 0.000000
vt 1.257080 1.000000
vt 1.336910 1.000000
vt 0.146240 0.000000
vt 0.067627 1.000000
vt 0.151855 1.000000
vt 0.059082 0.000000
vt -0.024414 0.000000
vt -0.110596 0.000000
vt -0.109375 1.000000
vt 1.859620 0.000000
vt 1.776610 1.000000
vt 1.861330 1.000000
vt 1.778560 0.000000
vt 1.693850 0.000000
vt 1.612060 0.000000
vt 1.607420 1.000000
vt 0.927490 0.000000
vt 0.839844 0.000000
vt 0.832520 1.000000
vt 1.013430 0.000000
vt 0.989014 1.000000
vt 2.185790 0.000000
vt 2.107180 1.000000
vt 2.189940 1.000000
vt 2.106200 0.000000
vt 2.023440 0.000000
vt 1.943360 0.000000
vt 1.935790 1.000000
vt 2.507320 0.000000
vt 2.426760 1.000000
vt 2.507080 1.000000
vt 2.427980 0.000000
vt 2.347170 0.000000
vt 2.267580 0.000000
vt 2.252440 1.000000
vt -1.412110 0.000000
vt -1.492430 0.000000
vt -1.492680 1.000000
vt -1.332520 0.000000
vt -1.252690 0.000000
vt -1.326170 1.000000
vt 1.443600 0.000000
vt 1.526370 0.000000
vt 1.519290 1.000000
vt 0.753174 0.000000
vt 4.665770 0.000000
vt 0.746582 1.000000
vt 0.578613 0.000000
vt 0.665771 0.000000
vt 0.491943 0.000000
vt 0.404297 0.000000
vt 0.405762 1.000000
vt 0.318359 0.000000
vt 0.238281 1.000000
vt 0.316895 1.000000
vt 0.230957 0.000000
vt -1.172610 0.000000
vt -1.255620 1.000000
vt -1.171880 1.000000
vt 0.661621 1.000000
vt 0.579102 1.000000
vt 0.492920 1.000000
vt -0.020996 1.000000
vt -0.349854 1.000000
vt -0.686768 1.000000
vt -1.010740 1.000000
vt 2.024170 1.000000
vt 1.684330 1.000000
vt 1.433110 1.000000
vt 1.180420 1.000000
vt 0.910645 1.000000
vt -1.400390 1.000000
vt 2.325440 1.000000
vt 0.059082 0.000000
vt -0.110596 0.000000
vt -0.278809 0.000000
vt -0.444824 0.000000
vt -0.609131 0.000000
vt -0.771729 0.000000
vt -1.093020 0.000000
vt -1.252690 0.000000
vt -1.412110 0.000000
vt 2.427980 0.000000
vt 2.267580 0.000000
vt 2.106200 0.000000
vt 1.943360 0.000000
vt 1.778560 0.000000
vt 1.612060 0.000000
vt 1.443600 0.000000
vt 1.186040 0.000000
vt 0.927490 0.000000
vt 0.753174 0.000000
vt 0.578613 0.000000
vt 0.404297 0.000000
vn 0.6617 0.6453 0.3817
vn 0.8446 0.0749 0.5300
vn 0.7955 0.1031 0.5971
vn 0.4290 0.8342 0.3465
vn 0.0000 1.0000 0.0000
vn 0.5364 0.6664 0.5178
vn 0.3123 0.8493 0.4256
vn 0.6482 0.1394 0.7486
vn 0.7261 0.6875 -0.0138
vn 0.9592 0.1968 0.2031
vn 0.9713 0.1689 -0.1672
vn 0.5089 0.8576 0.0741
vn 0.7171 0.6675 0.2002
vn 0.5011 0.8371 0.2194
vn 0.8466 0.1216 0.5181
vn 0.3778 0.6710 0.6379
vn 0.4441 0.1511 0.8831
vn 0.4852 0.1541 0.8607
vn 0.2076 0.8400 0.5013
vn 0.1901 0.6785 0.7095
vn 0.0563 0.8526 0.5195
vn 0.1289 0.1626 0.9782
vn -0.3685 0.7188 -0.5894
vn -0.1940 0.8614 -0.4694
vn -0.5163 0.2206 -0.8275
vn -0.3188 0.8502 -0.4189
vn -0.5304 0.6812 -0.5046
vn -0.7023 0.1796 -0.6889
vn -0.8007 0.1483 -0.5803
vn 0.6358 0.6755 -0.3735
vn 0.8939 0.1598 -0.4187
vn 0.8108 0.1504 -0.5656
vn 0.4848 0.8540 -0.1887
vn 0.7093 0.6787 -0.1903
vn 0.5198 0.8524 -0.0558
vn 0.9779 0.1614 -0.1324
vn -0.7412 0.6712 0.0040
vn -0.9730 0.1447 -0.1798
vn -0.9881 0.1436 0.0549
vn -0.5253 0.8471 -0.0804
vn -0.7253 0.6611 -0.1920
vn -0.4919 0.8430 -0.2174
vn -0.9128 0.1232 -0.3893
vn -0.0513 0.8750 -0.4814
vn -0.0043 0.7100 -0.7041
vn 0.0882 0.2713 -0.9584
vn -0.1895 0.7208 -0.6666
vn -0.2624 0.2821 -0.9228
vn -0.6504 0.6622 0.3721
vn -0.9207 0.1171 0.3722
vn -0.8727 0.1336 0.4696
vn -0.5037 0.8412 0.1965
vn -0.7184 0.6661 0.2004
vn -0.5291 0.8466 0.0583
vn -0.9698 0.1309 0.2055
vn -0.6676 0.6068 0.4313
vn -0.5902 0.0821 0.8031
vn -0.7192 0.0636 0.6918
vn -0.3449 0.8360 0.4268
vn -0.5180 0.6563 0.5485
vn -0.4318 0.8445 0.3166
vn -0.7067 0.1191 0.6974
vn -0.2179 0.8355 0.5044
vn -0.0238 0.5904 0.8067
vn -0.3315 0.1118 0.9368
vn -0.1982 0.6605 0.7242
vn -0.0751 0.8540 0.5148
vn -0.5311 0.1605 0.8319
vn -0.4122 0.8467 -0.3362
vn -0.6489 0.6636 -0.3722
vn -0.8573 0.1320 -0.4975
vn 0.0757 0.8660 -0.4942
vn 0.2814 0.2452 -0.9277
vn 0.2110 0.8523 -0.4785
vn 0.2322 0.4917 -0.8392
vn 0.3676 0.6776 -0.6369
vn 0.3299 0.8498 -0.4110
vn 0.6500 0.1598 -0.7429
vn 0.5254 0.6689 -0.5257
vn 0.7957 0.1438 -0.5884
vn 0.7466 0.1585 -0.6461
vn 0.4363 0.8347 -0.3360
vn 0.0145 0.6887 0.7249
vn -0.2913 0.1948 0.9366
vn 0.1634 0.1700 0.9718
vn 0.4640 0.2243 -0.8569
vn 0.4552 0.1748 -0.8730
vn 0.4973 0.1708 -0.8506
vn 0.9569 0.1771 -0.2300
vn 0.8571 0.1768 0.4839
vn 0.8607 0.0945 0.5002
vn 0.2550 0.1723 0.9514
vn -0.9292 0.1219 0.3488
vn -0.9192 0.1448 -0.3661
vn -0.8135 0.1228 -0.5685
vn -0.5989 0.2078 -0.7734
vn -0.0100 0.2839 -0.9588
vn -0.5453 0.1119 0.8307
vn -0.6308 0.0962 0.7700
vn 0.7607 0.1670 -0.6272
vn 0.8706 0.1499 -0.4686
vn 0.9463 0.2189 0.2380
vn 0.9608 0.1152 0.2521
vn 0.9951 0.0554 0.0815
vn 0.7245 0.1603 0.6703
vn 0.4686 0.1523 0.8702
vn -0.4043 0.2125 0.8896
vn -0.3620 0.1169 0.9248
vn -0.4264 0.0948 0.8996
vn -0.5833 0.1337 0.8011
vn -0.7326 0.1122 0.6713
vn -0.8902 0.1364 0.4346
vn -0.9880 0.1543 -0.0012
vn -0.9932 0.1126 -0.0297
vn -0.9720 0.1061 -0.2096
vn -0.2876 0.2075 -0.9350
vn -0.2421 0.2775 -0.9297
vn 0.1111 0.2483 -0.9623
vn 0.0418 0.1529 -0.9873
vn 0.3994 0.1556 -0.9035
usemtl m1cover_mat
s 1
f 3/1/1 2/2/2 1/3/3
f 3/1/1 4/4/4 2/2/2
f 5/5/5 4/4/4 3/1/1
f 5/5/5 6/6/6 4/4/4
f 7/7/7 6/6/6 5/5/5
f 7/7/7 8/8/8 6/6/6
f 11/9/9 10/10/10 9/11/11
f 11/9/9 12/12/12 10/10/10
f 5/5/5 12/12/12 11/9/9
f 5/5/5 13/13/13 12/12/12
f 14/14/14 13/13/13 5/5/5
f 14/14/14 15/15/15 13/13/13
f 18/16/16 17/17/17 16/18/18
f 18/16/16 19/19/19 17/17/17
f 5/5/5 19/19/19 18/16/16
f 5/5/5 20/20/20 19/19/19
f 21/21/21 20/20/20 5/5/5
f 21/21/21 22/22/22 20/20/20
f 25/23/23 24/24/24 23/25/25
f 25/23/23 26/26/5 24/24/24
f 27/27/26 26/26/5 25/23/23
f 27/27/26 28/28/27 26/26/5
f 29/29/28 28/28/27 27/27/26
f 29/29/28 30/30/29 28/28/27
f 33/31/30 32/32/31 31/33/32
f 33/31/30 34/34/33 32/32/31
f 5/5/5 34/34/33 33/31/30
f 5/5/5 35/35/34 34/34/33
f 36/36/35 35/35/34 5/5/5
f 36/36/35 37/37/36 35/35/34
f 40/38/37 39/39/38 38/40/39
f 40/38/37 41/41/40 39/39/38
f 26/26/5 41/41/40 40/38/37
f 26/26/5 42/42/41 41/41/40
f 43/43/42 42/42/41 26/26/5
f 43/43/42 44/44/43 42/42/41
f 47/45/44 46/46/45 45/47/46
f 47/45/44 26/26/5 46/46/45
f 48/48/47 26/26/5 47/45/44
f 48/48/47 24/24/24 26/26/5
f 49/49/48 24/24/24 48/48/47
f 49/49/48 23/25/25 24/24/24
f 52/50/49 51/51/50 50/52/51
f 52/50/49 53/53/52 51/51/50
f 26/26/5 53/53/52 52/50/49
f 26/26/5 54/54/53 53/53/52
f 55/55/54 54/54/53 26/26/5
f 55/55/54 56/56/55 54/54/53
f 59/57/56 58/58/57 57/59/58
f 59/57/56 60/60/59 58/58/57
f 26/26/5 60/60/59 59/57/56
f 26/26/5 61/61/60 60/60/59
f 62/62/61 61/61/60 26/26/5
f 62/62/61 63/63/62 61/61/60
f 66/64/63 65/65/64 64/66/65
f 66/64/63 5/5/5 65/65/64
f 67/67/66 5/5/5 66/64/63
f 67/67/66 68/68/67 5/5/5
f 69/69/68 68/68/67 67/67/66
f 70/70/69 28/28/27 30/30/29
f 70/70/69 26/26/5 28/28/27
f 71/71/70 26/26/5 70/70/69
f 71/71/70 43/43/42 26/26/5
f 72/72/71 43/43/42 71/71/70
f 74/73/72 26/26/5 73/74/5
f 74/73/72 46/46/45 26/26/5
f 75/75/73 46/46/45 74/73/72
f 75/75/73 45/47/46 46/46/45
f 5/5/5 77/76/74 76/77/75
f 5/5/5 78/78/76 77/76/74
f 79/79/77 78/78/76 5/5/5
f 79/79/77 80/80/78 78/78/76
f 83/81/79 82/82/80 81/83/81
f 83/81/79 84/84/82 82/82/80
f 5/5/5 84/84/82 83/81/79
f 5/5/5 33/31/30 84/84/82
f 87/85/83 86/86/84 85/87/85
f 87/85/83 68/68/67 86/86/84
f 5/5/5 68/68/67 87/85/83
f 76/77/75 88/88/86 74/73/72
f 76/77/75 89/89/87 88/88/86
f 77/76/74 89/89/87 76/77/75
f 90/90/88 78/78/76 80/80/78
f 90/90/88 77/76/74 78/78/76
f 91/91/89 35/35/34 37/37/36
f 91/91/89 34/34/33 35/35/34
f 92/92/90 13/13/13 15/15/15
f 92/92/90 12/12/12 13/13/13
f 11/9/9 36/36/35 5/5/5
f 11/9/9 9/11/11 36/36/35
f 93/93/91 6/6/6 8/8/8
f 93/93/91 4/4/4 6/6/6
f 3/1/1 14/14/14 5/5/5
f 3/1/1 1/3/3 14/14/14
f 19/19/19 94/94/92 17/17/17
f 19/19/19 20/20/20 94/94/92
f 18/16/16 7/7/7 5/5/5
f 18/16/16 16/18/18 7/7/7
f 87/85/83 21/21/21 5/5/5
f 87/85/83 85/87/85 21/21/21
f 95/95/93 54/54/53 56/56/55
f 95/95/93 53/53/52 54/54/53
f 52/50/49 62/62/61 26/26/5
f 52/50/49 50/52/51 62/62/61
f 96/96/94 42/42/41 44/44/43
f 96/96/94 41/41/40 42/42/41
f 40/38/37 55/55/54 26/26/5
f 40/38/37 38/40/39 55/55/54
f 84/84/82 31/33/32 82/82/80
f 84/84/82 33/31/30 31/33/32
f 83/81/79 79/79/77 5/5/5
f 83/81/79 81/83/81 79/79/77
f 71/71/70 97/97/95 72/72/71
f 71/71/70 70/70/69 97/97/95
f 27/27/26 98/98/96 29/29/28
f 27/27/26 25/23/23 98/98/96
f 48/48/47 99/99/97 49/49/48
f 48/48/47 47/45/44 99/99/97
f 67/67/66 100/100/98 69/69/68
f 67/67/66 66/64/63 100/100/98
f 101/101/99 61/61/60 63/63/62
f 101/101/99 60/60/59 61/61/60
f 102/102/100 91/91/89 32/32/31
f 103/103/101 9/11/11 37/37/36
f 104/104/102 92/92/90 10/10/10
f 105/105/103 1/3/3 15/15/15
f 106/106/104 93/93/91 2/2/2
f 107/107/105 16/18/18 8/8/8
f 108/108/106 85/87/85 22/22/22
f 109/109/107 69/69/68 86/86/84
f 110/110/108 64/66/65 100/100/98
f 111/111/109 101/101/99 58/58/57
f 112/112/110 50/52/51 63/63/62
f 20/20/20 22/22/22 94/94/92
f 113/113/111 95/95/93 51/51/50
f 114/114/112 38/40/39 56/56/55
f 115/115/113 96/96/94 39/39/38
f 116/116/114 72/72/71 44/44/43
f 117/117/115 30/30/29 97/97/95
f 118/118/116 23/25/25 98/98/96
f 119/119/117 45/47/46 99/99/97
f 120/120/118 88/88/86 75/75/73
f 121/121/119 90/90/88 89/89/87
f 122/122/120 81/83/81 80/80/78
