# Blender v3.0.0 OBJ File: ''
# www.blender.org
mtllib badminton_top.mtl
o meshes_0-0_Mesh.007
v -22.210938 93.027344 -12.824203
v -12.824219 102.203125 -22.210920
v -12.824219 93.027344 -22.210922
v 0.000000 102.203133 -25.648420
v 0.000000 108.843758 -24.773420
v 12.386719 108.843750 -21.457014
v 11.105469 115.027344 -19.234356
v 19.234375 115.027344 -11.105450
v 15.707031 120.339844 -9.066386
v 18.136719 120.339844 0.000020
v 12.824219 124.417969 0.000020
v 11.105469 124.417969 6.410177
v 5.746094 126.980469 3.316427
v 3.316406 126.980469 5.746114
v 0.000000 127.855469 0.000021
v 0.000000 126.980469 6.636739
v -3.316406 126.980469 5.746114
v 0.000000 124.417969 12.824239
v -6.410156 124.417969 11.105489
v 0.000000 120.339844 18.136738
v -9.066406 120.339844 15.707051
v 0.000000 115.027344 22.210957
v -11.105469 115.027344 19.234394
v 0.000000 108.843742 24.773455
v -12.386719 108.843750 21.457048
v 0.000000 102.203117 25.648455
v -12.824219 102.203125 22.210955
v 0.000000 93.027336 25.648453
v -12.824219 93.027344 22.210953
v -22.210938 102.203125 12.824235
v -22.210938 93.027344 12.824234
v -25.648438 102.203125 0.000017
v -24.773438 108.843750 0.000018
v -21.457031 108.843750 -12.386701
v -19.234375 115.027344 -11.105450
v -11.105469 115.027344 -19.234356
v -9.066406 120.339844 -15.707011
v 0.000000 120.339844 -18.136700
v 0.000000 124.417969 -12.824199
v 6.410156 124.417969 -11.105449
v 3.316406 126.980469 -5.746073
v 5.746094 126.980469 -3.316386
v 6.636719 126.980469 0.000021
v 0.000000 93.027351 -25.648422
v 12.824219 102.203125 -22.210920
v 21.457031 108.843750 -12.386701
v 22.210938 115.027344 0.000019
v 15.707031 120.339844 9.066426
v 6.410156 124.417969 11.105489
v -25.648438 93.027344 0.000015
v -22.210938 102.203125 -12.824203
v -12.386719 108.843750 -21.457014
v 0.000000 115.027344 -22.210918
v 9.066406 120.339844 -15.707011
v 11.105469 124.417969 -6.410136
v -21.457031 108.843750 12.386737
v -19.234375 115.027344 11.105488
v -15.707031 120.339844 9.066426
v -11.105469 124.417969 6.410177
v -5.746094 126.980469 3.316427
v 9.066406 120.339844 15.707051
v 11.105469 115.027344 19.234394
v 12.386719 108.843750 21.457048
v 12.824219 102.203125 22.210955
v 12.824219 93.027344 22.210953
v -22.210938 115.027344 0.000019
v -18.136719 120.339844 0.000020
v -12.824219 124.417969 0.000020
v -6.636719 126.980469 0.000021
v 19.234375 115.027344 11.105488
v 21.457031 108.843750 12.386737
v 22.210938 102.203125 12.824235
v 22.210938 93.027344 12.824234
v -15.707031 120.339844 -9.066386
v -11.105469 124.417969 -6.410136
v -5.746094 126.980469 -3.316386
v 24.773438 108.843750 0.000018
v 25.648438 102.203125 0.000017
v 25.648438 93.027344 0.000015
v -6.410156 124.417969 -11.105449
v -3.316406 126.980469 -5.746073
v 0.000000 93.027351 -25.648422
v 12.824219 93.027344 -22.210922
v 0.000000 93.027336 25.648453
v 12.824219 93.027344 22.210953
v 22.210938 93.027344 -12.824203
v 22.210938 93.027344 12.824234
v 25.648438 93.027344 0.000015
v 22.210938 102.203125 -12.824203
v 22.210938 93.027344 -12.824203
v 0.000000 126.980469 -6.636698
v -22.210938 93.027344 -12.824203
v -12.824219 93.027344 -22.210922
v -22.210938 93.027344 12.824234
v -12.824219 93.027344 22.210953
v 0.000000 93.027351 -25.648422
v 12.824219 93.027344 -22.210922
v -25.648438 93.027344 0.000015
v -22.210938 93.027344 -12.824203
v -22.210938 93.027344 12.824234
vt 0.649902 0.000000
vt 0.349976 0.250000
vt 0.349976 0.000000
vt 0.000000 0.250000
vt 0.000000 0.350098
vt 0.349976 0.350098
vt 0.349976 0.500000
vt 0.649902 0.500000
vt 0.649902 0.650024
vt 1.000000 0.650024
vt 1.000000 0.800049
vt 0.649902 0.800049
vt 0.649902 0.900024
vt 0.349976 0.900024
vt 0.500000 1.000000
vt 0.000000 0.900024
vt 0.349976 0.900024
vt 0.000000 0.800049
vt 0.349976 0.800049
vt 0.000000 0.650024
vt 0.349976 0.650024
vt 0.000000 0.500000
vt 0.349976 0.500000
vt 0.000000 0.350098
vt 0.349976 0.350098
vt 0.000000 0.250000
vt 0.349976 0.250000
vt 0.000000 0.000000
vt 0.349976 0.000000
vt 0.649902 0.250000
vt 0.649902 0.000000
vt 1.000000 0.250000
vt 1.000000 0.350098
vt 0.649902 0.350098
vt 0.649902 0.500000
vt 0.349976 0.500000
vt 0.349976 0.650024
vt 0.000000 0.650024
vt 0.000000 0.800049
vt 0.349976 0.800049
vt 0.349976 0.900024
vt 0.649902 0.900024
vt 1.000000 0.900024
vt 0.000000 0.000000
vt 0.349976 0.250000
vt 0.649902 0.350098
vt 1.000000 0.500000
vt 0.649902 0.650024
vt 0.349976 0.800049
vt 1.000000 0.000000
vt 0.649902 0.250000
vt 0.349976 0.350098
vt 0.000000 0.500000
vt 0.349976 0.650024
vt 0.649902 0.800049
vt 0.649902 0.350098
vt 0.649902 0.500000
vt 0.649902 0.650024
vt 0.649902 0.800049
vt 0.649902 0.900024
vt 0.349976 0.650024
vt 0.349976 0.500000
vt 0.349976 0.350098
vt 0.349976 0.250000
vt 0.349976 0.000000
vt 1.000000 0.500000
vt 1.000000 0.650024
vt 1.000000 0.800049
vt 1.000000 0.900024
vt 0.649902 0.500000
vt 0.649902 0.350098
vt 0.649902 0.250000
vt 0.649902 0.000000
vt 0.649902 0.650024
vt 0.649902 0.800049
vt 0.649902 0.900024
vt 1.000000 0.350098
vt 1.000000 0.250000
vt 1.000000 0.000000
vt 0.349976 0.800049
vt 0.349976 0.900024
vt 1.000000 0.000000
vt 1.000000 0.000000
vt 0.500000 0.000000
vt 0.833374 0.000000
vt 1.000000 0.000000
vt 1.000000 0.000000
vt 1.000000 0.000000
vt 0.649902 0.250000
vt 0.649902 0.000000
vt 0.000000 0.900024
vt 0.000000 0.000000
vt 0.000000 0.000000
vt 0.000000 0.000000
vt 0.166626 0.000000
vt 0.000000 0.000000
vt 0.349976 0.000000
vt 1.000000 0.000000
vt 0.649902 0.000000
vt 1.000000 0.000000
vn -0.8181 0.0000 -0.5751
vn -0.4992 0.0652 -0.8640
vn -0.4210 0.0000 -0.9071
vn -0.0003 0.0653 -0.9979
vn -0.0028 0.2591 -0.9658
vn 0.4804 0.2591 -0.8379
vn 0.4281 0.5004 -0.7526
vn 0.7470 0.5004 -0.4377
vn 0.6080 0.7075 -0.3602
vn 0.7067 0.7075 -0.0080
vn 0.4995 0.8662 -0.0100
vn 0.4376 0.8663 0.2411
vn 0.2561 0.9587 0.1240
vn 0.1597 0.9587 0.2354
vn -0.0000 1.0000 0.0000
vn 0.0206 0.9587 0.2838
vn -0.1240 0.9587 0.2561
vn 0.0100 0.8662 0.4995
vn -0.2411 0.8663 0.4376
vn 0.0080 0.7075 0.7067
vn -0.3464 0.7075 0.6160
vn 0.0056 0.5004 0.8657
vn -0.4281 0.5004 0.7526
vn 0.0028 0.2591 0.9658
vn -0.4804 0.2591 0.8379
vn 0.0003 0.0653 0.9979
vn -0.4987 0.0653 0.8643
vn -0.0889 -0.0000 0.9960
vn -0.5751 -0.0000 0.8181
vn -0.8640 0.0654 0.4992
vn -0.9071 0.0000 0.4210
vn -0.9979 0.0653 0.0003
vn -0.9659 0.2591 0.0028
vn -0.8379 0.2591 -0.4804
vn -0.7526 0.5004 -0.4281
vn -0.4377 0.5004 -0.7470
vn -0.3602 0.7075 -0.6080
vn -0.0080 0.7075 -0.7067
vn -0.0100 0.8662 -0.4995
vn 0.2411 0.8663 -0.4376
vn 0.1240 0.9587 -0.2561
vn 0.2354 0.9587 -0.1597
vn 0.2838 0.9587 -0.0206
vn 0.0889 0.0000 -0.9960
vn 0.4987 0.0653 -0.8643
vn 0.8350 0.2591 -0.4854
vn 0.8657 0.5004 -0.0056
vn 0.6160 0.7075 0.3464
vn 0.2584 0.8663 0.4276
vn -0.9960 -0.0000 -0.0889
vn -0.8643 0.0651 -0.4987
vn -0.4854 0.2591 -0.8350
vn -0.0056 0.5004 -0.8658
vn 0.3464 0.7075 -0.6160
vn 0.4276 0.8662 -0.2584
vn -0.8350 0.2591 0.4854
vn -0.7470 0.5004 0.4377
vn -0.6080 0.7075 0.3602
vn -0.4276 0.8663 0.2584
vn -0.2354 0.9587 0.1597
vn 0.3602 0.7075 0.6080
vn 0.4377 0.5004 0.7470
vn 0.4854 0.2591 0.8350
vn 0.4992 0.0652 0.8640
vn 0.4210 -0.0000 0.9071
vn -0.8658 0.5004 0.0056
vn -0.7067 0.7075 0.0080
vn -0.4995 0.8662 0.0100
vn -0.2838 0.9587 0.0206
vn 0.7526 0.5004 0.4281
vn 0.8379 0.2591 0.4804
vn 0.8643 0.0651 0.4987
vn 0.8181 -0.0000 0.5751
vn -0.6160 0.7075 -0.3464
vn -0.4376 0.8663 -0.2411
vn -0.2561 0.9587 -0.1240
vn 0.9659 0.2591 -0.0028
vn 0.9979 0.0653 -0.0003
vn 0.9960 -0.0000 0.0889
vn -0.2584 0.8663 -0.4276
vn -0.1597 0.9587 -0.2354
vn -0.0000 -1.0000 0.0000
vn 0.8640 0.0654 -0.4992
vn 0.9071 0.0000 -0.4210
vn -0.0206 0.9587 -0.2838
vn 0.5751 0.0000 -0.8181
usemtl Material.011
s 1
f 1/1/1 2/2/2 3/3/3
f 2/2/2 4/4/4 3/3/3
f 2/2/2 5/5/5 4/4/4
f 5/5/5 6/6/6 4/4/4
f 5/5/5 7/7/7 6/6/6
f 7/7/7 8/8/8 6/6/6
f 7/7/7 9/9/9 8/8/8
f 9/9/9 10/10/10 8/8/8
f 9/9/9 11/11/11 10/10/10
f 11/11/11 12/12/12 10/10/10
f 11/11/11 13/13/13 12/12/12
f 13/13/13 14/14/14 12/12/12
f 13/13/13 15/15/15 14/14/14
f 15/15/15 16/16/16 14/14/14
f 15/15/15 17/17/17 16/16/16
f 17/17/17 18/18/18 16/16/16
f 17/17/17 19/19/19 18/18/18
f 19/19/19 20/20/20 18/18/18
f 19/19/19 21/21/21 20/20/20
f 21/21/21 22/22/22 20/20/20
f 21/21/21 23/23/23 22/22/22
f 23/23/23 24/24/24 22/22/22
f 23/23/23 25/25/25 24/24/24
f 25/25/25 26/26/26 24/24/24
f 25/25/25 27/27/27 26/26/26
f 27/27/27 28/28/28 26/26/26
f 27/27/27 29/29/29 28/28/28
f 29/29/29 30/30/30 31/31/31
f 30/30/30 32/32/32 31/31/31
f 30/30/30 33/33/33 32/32/32
f 33/33/33 34/34/34 32/32/32
f 33/33/33 35/35/35 34/34/34
f 35/35/35 36/36/36 34/34/34
f 35/35/35 37/37/37 36/36/36
f 37/37/37 38/38/38 36/36/36
f 37/37/37 39/39/39 38/38/38
f 39/39/39 40/40/40 38/38/38
f 39/39/39 41/41/41 40/40/40
f 41/41/41 42/42/42 40/40/40
f 41/41/41 15/15/15 42/42/42
f 15/15/15 43/43/43 42/42/42
f 15/15/15 13/13/13 43/43/43
f 13/13/13 11/11/11 43/43/43
f 3/3/3 4/4/4 44/44/44
f 4/4/4 45/45/45 44/44/44
f 4/4/4 6/6/6 45/45/45
f 6/6/6 46/46/46 45/45/45
f 6/6/6 8/8/8 46/46/46
f 8/8/8 47/47/47 46/46/46
f 8/8/8 10/10/10 47/47/47
f 10/10/10 48/48/48 47/47/47
f 10/10/10 12/12/12 48/48/48
f 12/12/12 49/49/49 48/48/48
f 12/12/12 14/14/14 49/49/49
f 14/14/14 16/16/16 49/49/49
f 31/31/31 32/32/32 50/50/50
f 32/32/32 51/51/51 50/50/50
f 32/32/32 34/34/34 51/51/51
f 34/34/34 52/52/52 51/51/51
f 34/34/34 36/36/36 52/52/52
f 36/36/36 53/53/53 52/52/52
f 36/36/36 38/38/38 53/53/53
f 38/38/38 54/54/54 53/53/53
f 38/38/38 40/40/40 54/54/54
f 40/40/40 55/55/55 54/54/54
f 40/40/40 42/42/42 55/55/55
f 42/42/42 43/43/43 55/55/55
f 29/29/29 27/27/27 30/30/30
f 27/27/27 56/56/56 30/30/30
f 27/27/27 25/25/25 56/56/56
f 25/25/25 57/57/57 56/56/56
f 25/25/25 23/23/23 57/57/57
f 23/23/23 58/58/58 57/57/57
f 23/23/23 21/21/21 58/58/58
f 21/21/21 59/59/59 58/58/58
f 21/21/21 19/19/19 59/59/59
f 19/19/19 60/60/60 59/59/59
f 19/19/19 17/17/17 60/60/60
f 17/17/17 15/15/15 60/60/60
f 16/16/16 18/18/18 49/49/49
f 18/18/18 61/61/61 49/49/49
f 18/18/18 20/20/20 61/61/61
f 20/20/20 62/62/62 61/61/61
f 20/20/20 22/22/22 62/62/62
f 22/22/22 63/63/63 62/62/62
f 22/22/22 24/24/24 63/63/63
f 24/24/24 64/64/64 63/63/63
f 24/24/24 26/26/26 64/64/64
f 26/26/26 65/65/65 64/64/64
f 26/26/26 28/28/28 65/65/65
f 30/30/30 56/56/56 33/33/33
f 56/56/56 66/66/66 33/33/33
f 56/56/56 57/57/57 66/66/66
f 57/57/57 67/67/67 66/66/66
f 57/57/57 58/58/58 67/67/67
f 58/58/58 68/68/68 67/67/67
f 58/58/58 59/59/59 68/68/68
f 59/59/59 69/69/69 68/68/68
f 59/59/59 60/60/60 69/69/69
f 60/60/60 15/15/15 69/69/69
f 49/49/49 61/61/61 48/48/48
f 61/61/61 70/70/70 48/48/48
f 61/61/61 62/62/62 70/70/70
f 62/62/62 71/71/71 70/70/70
f 62/62/62 63/63/63 71/71/71
f 63/63/63 72/72/72 71/71/71
f 63/63/63 64/64/64 72/72/72
f 64/64/64 73/73/73 72/72/72
f 64/64/64 65/65/65 73/73/73
f 33/33/33 66/66/66 35/35/35
f 66/66/66 74/74/74 35/35/35
f 66/66/66 67/67/67 74/74/74
f 67/67/67 75/75/75 74/74/74
f 67/67/67 68/68/68 75/75/75
f 68/68/68 76/76/76 75/75/75
f 68/68/68 69/69/69 76/76/76
f 69/69/69 15/15/15 76/76/76
f 48/48/48 70/70/70 47/47/47
f 70/70/70 77/77/77 47/47/47
f 70/70/70 71/71/71 77/77/77
f 71/71/71 78/78/78 77/77/77
f 71/71/71 72/72/72 78/78/78
f 72/72/72 79/79/79 78/78/78
f 72/72/72 73/73/73 79/79/79
f 35/35/35 74/74/74 37/37/37
f 74/74/74 80/80/80 37/37/37
f 74/74/74 75/75/75 80/80/80
f 75/75/75 81/81/81 80/80/80
f 75/75/75 76/76/76 81/81/81
f 76/76/76 15/15/15 81/81/81
f 82/82/82 83/83/82 84/84/82
f 83/83/82 85/85/82 84/84/82
f 83/83/82 86/86/82 85/85/82
f 86/86/82 87/87/82 85/85/82
f 86/86/82 88/88/82 87/87/82
f 47/47/47 77/77/77 46/46/46
f 77/77/77 89/89/83 46/46/46
f 77/77/77 78/78/78 89/89/83
f 78/78/78 90/90/84 89/89/83
f 78/78/78 79/79/79 90/90/84
f 50/50/50 51/51/51 1/1/1
f 51/51/51 2/2/2 1/1/1
f 51/51/51 52/52/52 2/2/2
f 52/52/52 5/5/5 2/2/2
f 52/52/52 53/53/53 5/5/5
f 37/37/37 80/80/80 39/39/39
f 80/80/80 91/91/85 39/39/39
f 80/80/80 81/81/81 91/91/85
f 81/81/81 15/15/15 91/91/85
f 92/92/82 93/93/82 94/94/82
f 93/93/82 95/95/82 94/94/82
f 93/93/82 96/96/82 95/95/82
f 96/96/82 84/84/82 95/95/82
f 46/46/46 89/89/83 45/45/45
f 89/89/83 97/97/86 45/45/45
f 89/89/83 90/90/84 97/97/86
f 54/54/54 7/7/7 53/53/53
f 7/7/7 5/5/5 53/53/53
f 55/55/55 9/9/9 54/54/54
f 9/9/9 7/7/7 54/54/54
f 43/43/43 11/11/11 55/55/55
f 11/11/11 9/9/9 55/55/55
f 15/15/15 41/41/41 91/91/85
f 41/41/41 39/39/39 91/91/85
f 97/97/86 44/44/44 45/45/45
f 98/98/82 99/99/82 100/100/82
