# Blender v3.0.0 OBJ File: ''
# www.blender.org
mtllib table_base.mtl
o mesh-2_meshId2_name.003
v 50.000000 0.000000 0.000000
v 48.294899 0.000002 -12.939500
v 0.000000 0.000000 0.000000
v 43.300800 0.000004 -24.998001
v 35.353500 0.000006 -35.353500
v 50.000000 8.000000 0.000001
v 48.294899 -0.000002 12.939500
v 43.300800 7.999996 25.000002
v 43.300800 -0.000004 25.000000
v 35.353500 -0.000006 35.353500
v 43.300800 8.000004 -24.997999
v 48.294899 0.000002 -12.939500
v 50.000000 0.000000 0.000000
v 24.998001 8.000007 -43.300800
v 35.353500 0.000006 -35.353500
v 43.300800 0.000004 -24.998001
v 0.000000 8.000009 -49.998001
v 12.939500 0.000008 -48.294899
v 24.998001 0.000007 -43.300800
v -24.998001 8.000007 -43.300800
v -12.939500 0.000008 -48.294899
v 0.000000 0.000008 -49.998001
v -43.300800 8.000004 -24.997999
v -35.353500 0.000006 -35.353500
v -24.998001 0.000007 -43.300800
v -49.998001 8.000000 0.000001
v -48.294899 0.000002 -12.939500
v -43.300800 0.000004 -24.998001
v -43.300800 7.999996 24.998003
v -48.294899 -0.000002 12.939500
v -49.998001 0.000000 0.000000
v -24.998001 7.999993 43.300800
v -35.353500 -0.000006 35.353500
v -43.300800 -0.000004 24.998001
v 0.000000 7.999992 49.998001
v -12.939500 -0.000008 48.294899
v -24.998001 -0.000007 43.300800
v 24.998001 7.999993 43.300800
v 12.939500 -0.000008 48.294899
v 0.000000 -0.000008 49.998001
v 24.998001 -0.000007 43.300800
v 50.000000 8.000000 0.000001
v 43.300800 7.999996 25.000002
v 0.000000 8.000000 0.000001
v 24.998001 7.999993 43.300800
v 0.000000 7.999992 49.998001
v 0.000000 0.000008 -49.998001
v 12.939500 0.000008 -48.294899
v 24.998001 0.000007 -43.300800
v -24.998001 0.000007 -43.300800
v -12.939500 0.000008 -48.294899
v -43.300800 0.000004 -24.998001
v -35.353500 0.000006 -35.353500
v -49.998001 0.000000 0.000000
v -48.294899 0.000002 -12.939500
v -43.300800 -0.000004 24.998001
v -48.294899 -0.000002 12.939500
v -24.998001 -0.000007 43.300800
v -35.353500 -0.000006 35.353500
v 0.000000 -0.000008 49.998001
v -12.939500 -0.000008 48.294899
v 24.998001 -0.000007 43.300800
v 12.939500 -0.000008 48.294899
v 43.300800 -0.000004 25.000000
v 35.353500 -0.000006 35.353500
v 48.294899 -0.000002 12.939500
v 43.300800 8.000004 -24.997999
v 24.998001 8.000007 -43.300800
v 0.000000 8.000009 -49.998001
v -24.998001 8.000007 -43.300800
v -43.300800 8.000004 -24.997999
v -49.998001 8.000000 0.000001
v -43.300800 7.999996 24.998003
v -24.998001 7.999993 43.300800
vt 0.499088 0.500912
vt 0.742838 0.567578
vt 0.751171 0.500912
vt 0.717838 0.627995
vt 0.676172 0.680078
vt 0.500000 0.500000
vt 0.910156 0.265625
vt 0.972656 0.500000
vt 0.734375 0.089844
vt 0.500000 0.027344
vt 0.563672 0.746745
vt 0.499088 0.755078
vt 0.624088 0.721745
vt 0.432422 0.746745
vt 0.372005 0.721745
vt 0.319922 0.680078
vt 0.278255 0.627995
vt 0.253255 0.567578
vt 0.244922 0.500912
vt 0.253255 0.436328
vt 0.278255 0.375912
vt 0.319922 0.323829
vt 0.372005 0.282162
vt 0.432422 0.257162
vt 0.499088 0.248829
vt 0.563672 0.257162
vt 0.624088 0.282162
vt 0.676172 0.323829
vt 0.717838 0.375912
vt 0.742838 0.436328
vt 0.910156 0.738281
vt 0.734375 0.914063
vt 0.500000 0.976563
vt 0.261719 0.914063
vt 0.085938 0.738281
vt 0.023438 0.500000
vt 0.085938 0.265625
vt 0.261719 0.089844
vt 0.910156 0.265625
vt 0.957031 0.378906
vt 0.972656 0.500000
vt 0.910156 0.265625
vt 0.832031 0.167969
vt 0.957031 0.625000
vt 0.910156 0.738281
vt 0.972656 0.500000
vt 0.832031 0.835938
vt 0.734375 0.914063
vt 0.910156 0.738281
vt 0.621094 0.960938
vt 0.500000 0.976563
vt 0.734375 0.914063
vt 0.375000 0.960938
vt 0.261719 0.914063
vt 0.500000 0.976563
vt 0.164063 0.835938
vt 0.085938 0.738281
vt 0.261719 0.914063
vt 0.039062 0.625000
vt 0.023438 0.500000
vt 0.085938 0.738281
vt 0.039062 0.378906
vt 0.085938 0.265625
vt 0.023438 0.500000
vt 0.164063 0.167969
vt 0.261719 0.089844
vt 0.085938 0.265625
vt 0.375000 0.042969
vt 0.500000 0.027344
vt 0.261719 0.089844
vt 0.621094 0.042969
vt 0.734375 0.089844
vt 0.500000 0.027344
vt 0.734375 0.089844
vn 0.0000 -1.0000 -0.0000
vn 0.0000 1.0000 0.0000
vn 0.8635 0.0757 0.4986
vn 0.9570 0.1357 0.2564
vn 0.9971 0.0757 0.0000
vn 0.8660 0.0000 0.5000
vn 0.7005 0.1357 0.7006
vn 0.9570 0.1357 -0.2564
vn 0.8635 0.0757 -0.4986
vn 1.0000 0.0000 0.0000
vn 0.7006 0.1357 -0.7006
vn 0.4986 0.0757 -0.8635
vn 0.8660 0.0000 -0.5000
vn 0.2564 0.1358 -0.9570
vn 0.0000 0.0758 -0.9971
vn 0.5000 0.0000 -0.8660
vn -0.2564 0.1358 -0.9570
vn -0.4986 0.0757 -0.8635
vn 0.0000 0.0000 -1.0000
vn -0.7006 0.1357 -0.7006
vn -0.8635 0.0757 -0.4986
vn -0.5000 0.0000 -0.8660
vn -0.9570 0.1358 -0.2564
vn -0.9971 0.0758 0.0000
vn -0.8660 0.0000 -0.5000
vn -0.9570 0.1358 0.2564
vn -0.8635 0.0757 0.4986
vn -1.0000 0.0000 0.0000
vn -0.7006 0.1357 0.7006
vn -0.4986 0.0757 0.8635
vn -0.8660 0.0000 0.5000
vn -0.2564 0.1358 0.9570
vn 0.0000 0.0758 0.9971
vn -0.5000 0.0000 0.8660
vn 0.2564 0.1358 0.9570
vn 0.4986 0.0757 0.8635
vn 0.0000 0.0000 1.0000
vn 0.5000 0.0000 0.8660
usemtl m2mojiban_mat
s off
f 3/1/1 2/2/1 1/3/1
f 3/1/1 4/4/1 2/2/1
f 5/5/1 4/4/1 3/1/1
f 44/6/2 43/7/2 42/8/2
f 44/6/2 45/9/2 43/7/2
f 46/10/2 45/9/2 44/6/2
f 48/11/1 3/1/1 47/12/1
f 48/11/1 49/13/1 3/1/1
f 51/14/1 3/1/1 50/15/1
f 51/14/1 47/12/1 3/1/1
f 53/16/1 3/1/1 52/17/1
f 53/16/1 50/15/1 3/1/1
f 55/18/1 3/1/1 54/19/1
f 55/18/1 52/17/1 3/1/1
f 57/20/1 3/1/1 56/21/1
f 57/20/1 54/19/1 3/1/1
f 59/22/1 3/1/1 58/23/1
f 59/22/1 56/21/1 3/1/1
f 61/24/1 3/1/1 60/25/1
f 61/24/1 58/23/1 3/1/1
f 63/26/1 3/1/1 62/27/1
f 63/26/1 60/25/1 3/1/1
f 65/28/1 3/1/1 64/29/1
f 65/28/1 62/27/1 3/1/1
f 66/30/1 3/1/1 1/3/1
f 66/30/1 64/29/1 3/1/1
f 67/31/2 44/6/2 42/8/2
f 67/31/2 68/32/2 44/6/2
f 69/33/2 44/6/2 68/32/2
f 69/33/2 70/34/2 44/6/2
f 71/35/2 44/6/2 70/34/2
f 71/35/2 72/36/2 44/6/2
f 73/37/2 44/6/2 72/36/2
f 73/37/2 74/38/2 44/6/2
f 44/6/2 74/38/2 46/10/2
f 49/13/1 5/5/1 3/1/1
s 1
f 8/39/3 7/40/4 6/41/5
f 8/39/3 9/42/6 7/40/4
f 10/43/7 9/42/6 8/39/3
f 6/41/5 12/44/8 11/45/9
f 6/41/5 13/46/10 12/44/8
f 7/40/4 13/46/10 6/41/5
f 11/45/9 15/47/11 14/48/12
f 11/45/9 16/49/13 15/47/11
f 12/44/8 16/49/13 11/45/9
f 14/48/12 18/50/14 17/51/15
f 14/48/12 19/52/16 18/50/14
f 15/47/11 19/52/16 14/48/12
f 17/51/15 21/53/17 20/54/18
f 17/51/15 22/55/19 21/53/17
f 18/50/14 22/55/19 17/51/15
f 20/54/18 24/56/20 23/57/21
f 20/54/18 25/58/22 24/56/20
f 21/53/17 25/58/22 20/54/18
f 23/57/21 27/59/23 26/60/24
f 23/57/21 28/61/25 27/59/23
f 24/56/20 28/61/25 23/57/21
f 26/60/24 30/62/26 29/63/27
f 26/60/24 31/64/28 30/62/26
f 27/59/23 31/64/28 26/60/24
f 29/63/27 33/65/29 32/66/30
f 29/63/27 34/67/31 33/65/29
f 30/62/26 34/67/31 29/63/27
f 32/66/30 36/68/32 35/69/33
f 32/66/30 37/70/34 36/68/32
f 33/65/29 37/70/34 32/66/30
f 35/69/33 39/71/35 38/72/36
f 35/69/33 40/73/37 39/71/35
f 36/68/32 40/73/37 35/69/33
f 38/72/36 10/43/7 8/39/3
f 38/72/36 41/74/38 10/43/7
f 39/71/35 41/74/38 38/72/36
