# Blender v3.0.0 OBJ File: ''
# www.blender.org
mtllib mattress.mtl
o mesh-0_meshId0_name.006
v 33.407181 1.951165 14.301453
v 34.800629 -3.285163 -0.176817
v 34.143845 -3.285165 14.617657
v 33.120548 -5.000003 -0.168116
v 29.100929 -5.000007 29.171612
v -0.000000 -5.000000 -0.000001
v 0.164761 -5.000005 32.344372
v -28.780485 -5.000002 29.476295
v -14.445191 -3.285163 33.780670
v -25.398556 -3.285162 32.280300
v -24.851412 1.951168 31.582916
v -27.305950 1.951168 31.055677
v -27.352798 3.197268 30.135248
v -28.749258 3.197268 29.444504
v -24.570404 3.710938 25.573963
v -29.557497 3.197268 28.215691
v -29.934769 3.197269 26.737354
v -30.658045 1.951169 27.915340
v -31.285494 1.951169 25.834435
v -31.334953 -3.285161 28.530151
v -31.975853 -3.285161 26.402826
v -33.993462 -3.285159 14.964329
v -33.120548 -4.999997 0.168114
v -34.800629 -3.285157 0.176817
v -34.143845 -3.285155 -14.617657
v -33.407181 1.951175 -14.301453
v -31.547455 1.951176 -25.421766
v -30.203957 3.197276 -26.432730
v -29.977150 3.197276 -27.666815
v -24.828203 3.710945 -25.322769
v -29.080168 3.197276 -29.081942
v -27.621611 3.197276 -29.857042
v -29.559868 1.951177 -29.566315
v -27.798529 1.951177 -30.678797
v -30.211475 -3.285153 -30.217094
v -28.410648 -3.285153 -31.354961
v -29.111959 -4.999993 -29.113171
v -26.073551 -3.285153 -31.946529
v -14.789355 -3.285154 -33.631969
v -14.469924 1.951176 -32.907009
v -0.169567 1.951175 -33.250916
v -0.164223 3.197274 -32.308556
v 13.735266 3.197273 -32.115101
v 0.000000 5.000000 0.000001
v 24.570404 3.710942 -25.573963
v 32.317913 3.197269 -14.227597
v 29.934769 3.197271 -26.737354
v 31.111301 1.951171 -25.861614
v 30.322931 1.951171 -27.819103
v 30.990391 -3.285158 -28.430666
v 29.722078 -3.285158 -30.164364
v -0.164761 -4.999995 -32.344376
v -0.172635 -3.285155 -33.984173
v 14.135518 1.951173 -33.052460
v 25.650736 3.197272 -30.423500
v 27.175770 3.197272 -30.097504
v 28.669844 3.197272 -29.305466
v 27.162607 1.951172 -30.917629
v 29.079994 1.951172 -29.513321
v 27.761597 -3.285158 -31.600018
v 28.701071 -4.999998 -29.337255
v 31.798052 -3.285159 -26.432425
v 33.260784 1.951169 -14.642658
v 33.084694 3.197267 -0.167437
v 32.460884 3.197265 13.897393
v 24.828205 3.710934 25.322771
v 30.203957 3.197264 26.432732
v 29.879105 3.197263 27.882404
v 31.302242 1.951164 25.528757
v 30.776842 1.951164 27.568308
v 31.992741 -3.285166 26.091274
v 31.455418 -3.285166 28.176237
v 30.212231 -3.285167 30.094475
v 27.872406 -3.285167 31.517773
v 27.271412 1.951163 30.837421
v 24.878864 1.951164 31.275974
v 25.956501 3.197263 30.162395
v 14.060825 3.197264 31.974321
v -14.135518 1.951167 33.052460
v -25.650736 3.197268 30.423500
v -13.735266 3.197267 32.115101
v -32.317913 3.197271 14.227597
v -33.084694 3.197273 0.167437
v -33.260784 1.951171 14.642658
v -34.049877 1.951173 0.172565
v 33.993462 -3.285161 -14.964329
v 34.049877 1.951167 -0.172565
v 0.172635 -3.285165 33.984173
v 0.169567 1.951165 33.250916
v 0.164223 3.197265 32.308556
v -32.460884 3.197274 -13.897393
v -14.060825 3.197276 -31.974319
v -32.242958 -3.285154 -25.981359
v -30.749977 1.951176 -27.746948
v 14.789354 -3.285166 33.631966
v 14.469925 1.951164 32.907009
v -30.005114 -3.285162 30.442728
v -29.357172 1.951168 29.786062
v 25.436665 -3.285157 -32.218830
v 24.888510 1.951172 -31.523172
v 29.558985 1.951163 29.444654
v 27.562586 3.197263 29.864422
v -25.510504 1.951176 -31.257566
v -25.956501 3.197276 -30.162394
v 29.511631 3.197271 -28.046391
v 14.445191 -3.285156 -33.780670
v -31.428831 -3.285153 -28.359118
v -27.908218 -3.285162 31.739981
v 29.069052 3.197263 29.140434
v 25.427132 -3.285167 31.966740
vt 0.095642 0.424835
vt 0.076721 0.032929
vt 0.063110 0.439484
vt 0.120178 0.032929
vt 0.228760 0.796234
vt 0.967133 0.032929
vt 0.967133 0.877594
vt 0.228760 0.796234
vt 0.588959 0.913666
vt 0.315155 0.871185
vt 0.290833 0.902527
vt 0.226318 0.887390
vt 0.241364 0.844421
vt 0.200989 0.822723
vt 0.314575 0.719604
vt 0.179535 0.788452
vt 0.170441 0.750854
vt 0.137390 0.800018
vt 0.118591 0.740997
vt 0.167236 0.772369
vt 0.149139 0.715485
vt 0.095642 0.424835
vt 0.120178 0.032929
vt 0.076721 0.032929
vt 0.095642 0.424835
vt 0.063110 0.439484
vt 0.118591 0.740997
vt 0.170441 0.750854
vt 0.179535 0.788452
vt 0.314575 0.719604
vt 0.200989 0.822723
vt 0.241364 0.844421
vt 0.171326 0.851044
vt 0.226318 0.887390
vt 0.200989 0.822723
vt 0.252960 0.856598
vt 0.228760 0.796234
vt 0.315155 0.871185
vt 0.588959 0.913666
vt 0.574860 0.946594
vt 0.967163 0.954224
vt 0.967163 0.908203
vt 0.594208 0.900940
vt 0.967133 0.032929
vt 0.314575 0.719604
vt 0.108185 0.419464
vt 0.170441 0.750854
vt 0.118591 0.740997
vt 0.137390 0.800018
vt 0.167236 0.772369
vt 0.200989 0.822723
vt 0.967133 0.877594
vt 0.967133 0.921021
vt 0.574860 0.946594
vt 0.284943 0.852783
vt 0.241364 0.844421
vt 0.200989 0.822723
vt 0.226318 0.887390
vt 0.171326 0.851044
vt 0.252960 0.856598
vt 0.228760 0.796234
vt 0.149139 0.715485
vt 0.063110 0.439484
vt 0.089539 0.032929
vt 0.108185 0.419464
vt 0.314575 0.719604
vt 0.170441 0.750854
vt 0.179535 0.788452
vt 0.118591 0.740997
vt 0.137390 0.800018
vt 0.149139 0.715485
vt 0.167236 0.772369
vt 0.200989 0.822723
vt 0.252960 0.856598
vt 0.226318 0.887390
vt 0.290833 0.902527
vt 0.284943 0.852783
vt 0.594208 0.900940
vt 0.574860 0.946594
vt 0.284943 0.852783
vt 0.594208 0.900940
vt 0.108185 0.419464
vt 0.089539 0.032929
vt 0.063110 0.439484
vt 0.043488 0.032929
vt 0.095642 0.424835
vt 0.043488 0.032929
vt 0.967133 0.921021
vt 0.967163 0.954224
vt 0.967163 0.908203
vt 0.108185 0.419464
vt 0.594208 0.900940
vt 0.149139 0.715485
vt 0.137390 0.800018
vt 0.588959 0.913666
vt 0.574860 0.946594
vt 0.200989 0.822723
vt 0.171326 0.851044
vt 0.315155 0.871185
vt 0.290833 0.902527
vt 0.171326 0.851044
vt 0.241364 0.844421
vt 0.290833 0.902527
vt 0.284943 0.852783
vt 0.179535 0.788452
vt 0.588959 0.913666
vt 0.167236 0.772369
vt 0.252960 0.856598
vt 0.200989 0.822723
vt 0.315155 0.871185
vn 0.9010 -0.4195 0.1106
vn 0.9517 -0.3071 -0.0048
vn 0.9140 0.3916 0.1061
vn 0.3976 -0.9175 -0.0021
vn 0.3194 -0.8858 0.3367
vn 0.0000 -1.0000 0.0000
vn 0.0020 -0.9178 0.3970
vn -0.2973 -0.8958 0.3302
vn -0.0757 -0.4135 0.9073
vn -0.1541 -0.3730 0.9149
vn -0.1498 0.4005 0.9040
vn -0.3291 0.3565 0.8744
vn -0.1812 0.8454 0.5023
vn -0.3977 0.8044 0.4413
vn -0.0403 0.9980 0.0475
vn -0.4852 0.8383 0.2485
vn -0.4538 0.8838 0.1133
vn -0.8420 0.3825 0.3804
vn -0.8833 0.4224 0.2033
vn -0.8590 -0.3265 0.3942
vn -0.8971 -0.3917 0.2042
vn -0.8989 -0.4233 0.1128
vn -0.3976 -0.9175 0.0020
vn -0.9517 -0.3071 0.0048
vn -0.9004 -0.4223 -0.1040
vn -0.9134 0.3942 -0.1007
vn -0.8866 0.4156 -0.2029
vn -0.4391 0.8950 -0.0789
vn -0.5067 0.8295 -0.2347
vn -0.0408 0.9980 -0.0472
vn -0.4027 0.8024 -0.4404
vn -0.1981 0.8339 -0.5150
vn -0.6561 0.3320 -0.6777
vn -0.3542 0.3660 -0.8606
vn -0.6767 -0.2633 -0.6875
vn -0.3606 -0.3113 -0.8792
vn -0.3066 -0.8960 -0.3211
vn -0.1746 -0.3729 -0.9113
vn -0.0860 -0.4154 -0.9055
vn -0.0815 0.3868 -0.9185
vn -0.0047 0.3822 -0.9241
vn -0.0024 0.8804 -0.4741
vn 0.0293 0.8761 -0.4812
vn 0.0000 1.0000 0.0000
vn 0.0407 0.9980 -0.0479
vn 0.4741 0.8790 -0.0509
vn 0.5059 0.8483 -0.1563
vn 0.8915 0.3818 -0.2436
vn 0.8397 0.3171 -0.4407
vn 0.8459 -0.2863 -0.4499
vn 0.6901 -0.2286 -0.6866
vn -0.0020 -0.9178 -0.3970
vn -0.0048 -0.3054 -0.9522
vn 0.0736 0.3869 -0.9192
vn 0.0926 0.8668 -0.4899
vn 0.2062 0.8314 -0.5160
vn 0.4506 0.7614 -0.4660
vn 0.3825 0.3274 -0.8640
vn 0.6902 0.2568 -0.6765
vn 0.3909 -0.2962 -0.8715
vn 0.3251 -0.8810 -0.3437
vn 0.8950 -0.3711 -0.2473
vn 0.9126 0.3927 -0.1138
vn 0.4746 0.8802 -0.0024
vn 0.4747 0.8789 0.0460
vn 0.0408 0.9980 0.0472
vn 0.4920 0.8643 0.1042
vn 0.5259 0.8118 0.2538
vn 0.9072 0.3736 0.1934
vn 0.8718 0.3316 0.3605
vn 0.9087 -0.3686 0.1960
vn 0.8777 -0.3116 0.3641
vn 0.6784 -0.2450 0.6926
vn 0.3172 -0.3143 0.8947
vn 0.3132 0.3572 0.8799
vn 0.1510 0.3830 0.9113
vn 0.0861 0.8655 0.4934
vn 0.0350 0.8759 0.4813
vn -0.0722 0.3876 0.9190
vn -0.0748 0.8787 0.4714
vn -0.0293 0.8761 0.4812
vn -0.4733 0.8796 0.0482
vn -0.4746 0.8802 0.0024
vn -0.9135 0.3925 0.1070
vn -0.9220 0.3872 0.0047
vn 0.8978 -0.4242 -0.1183
vn 0.9220 0.3872 -0.0047
vn 0.0048 -0.3054 0.9522
vn 0.0047 0.3822 0.9241
vn 0.0024 0.8804 0.4741
vn -0.4747 0.8789 -0.0460
vn -0.0337 0.8761 -0.4808
vn -0.8991 -0.3818 -0.2140
vn -0.8500 0.3362 -0.4054
vn 0.0879 -0.4124 0.9067
vn 0.0848 0.3869 0.9182
vn -0.6673 -0.2621 0.6972
vn -0.6578 0.3245 0.6796
vn 0.1749 -0.3736 -0.9109
vn 0.1716 0.3839 -0.9073
vn 0.6616 0.2988 0.6877
vn 0.2143 0.8257 0.5218
vn -0.1753 0.3960 -0.9013
vn -0.0942 0.8705 -0.4830
vn 0.5301 0.7968 -0.2898
vn 0.0784 -0.4177 -0.9052
vn -0.8609 -0.3085 -0.4046
vn -0.3384 -0.3115 0.8879
vn 0.4107 0.7715 0.4859
vn 0.1534 -0.3677 0.9172
usemtl m0cookie_c_mat
s 1
f 3/1/1 2/2/2 1/3/3
f 3/1/1 4/4/4 2/2/2
f 5/5/5 4/4/4 3/1/1
f 5/5/5 6/6/6 4/4/4
f 7/7/7 6/6/6 5/5/5
f 7/7/7 8/8/8 6/6/6
f 9/9/9 8/8/8 7/7/7
f 9/9/9 10/10/10 8/8/8
f 11/11/11 10/10/10 9/9/9
f 11/11/11 12/12/12 10/10/10
f 13/13/13 12/12/12 11/11/11
f 13/13/13 14/14/14 12/12/12
f 15/15/15 14/14/14 13/13/13
f 15/15/15 16/16/16 14/14/14
f 17/17/17 16/16/16 15/15/15
f 17/17/17 18/18/18 16/16/16
f 19/19/19 18/18/18 17/17/17
f 19/19/19 20/20/20 18/18/18
f 21/21/21 20/20/20 19/19/19
f 21/21/21 8/8/8 20/20/20
f 22/22/22 8/8/8 21/21/21
f 22/22/22 23/23/23 8/8/8
f 24/24/24 23/23/23 22/22/22
f 24/24/24 25/25/25 23/23/23
f 26/26/26 25/25/25 24/24/24
f 26/26/26 27/27/27 25/25/25
f 28/28/28 27/27/27 26/26/26
f 28/28/28 29/29/29 27/27/27
f 30/30/30 29/29/29 28/28/28
f 30/30/30 31/31/31 29/29/29
f 32/32/32 31/31/31 30/30/30
f 32/32/32 33/33/33 31/31/31
f 34/34/34 33/33/33 32/32/32
f 34/34/34 35/35/35 33/33/33
f 36/36/36 35/35/35 34/34/34
f 36/36/36 37/37/37 35/35/35
f 38/38/38 37/37/37 36/36/36
f 38/38/38 39/39/39 37/37/37
f 40/40/40 39/39/39 38/38/38
f 40/40/40 41/41/41 39/39/39
f 42/42/42 41/41/41 40/40/40
f 42/42/42 43/43/43 41/41/41
f 44/44/44 43/43/43 42/42/42
f 44/44/44 45/45/45 43/43/43
f 46/46/46 45/45/45 44/44/44
f 46/46/46 47/47/47 45/45/45
f 48/48/48 47/47/47 46/46/46
f 48/48/48 49/49/49 47/47/47
f 50/50/50 49/49/49 48/48/48
f 50/50/50 51/51/51 49/49/49
f 37/37/37 6/6/6 23/23/23
f 37/37/37 52/52/52 6/6/6
f 39/39/39 52/52/52 37/37/37
f 39/39/39 53/53/53 52/52/52
f 41/41/41 53/53/53 39/39/39
f 41/41/41 54/54/54 53/53/53
f 43/43/43 54/54/54 41/41/41
f 43/43/43 55/55/55 54/54/54
f 45/45/45 55/55/55 43/43/43
f 45/45/45 56/56/56 55/55/55
f 57/57/57 56/56/56 45/45/45
f 57/57/57 58/58/58 56/56/56
f 59/59/59 58/58/58 57/57/57
f 59/59/59 60/60/60 58/58/58
f 51/51/51 60/60/60 59/59/59
f 51/51/51 61/61/61 60/60/60
f 50/50/50 61/61/61 51/51/51
f 50/50/50 62/62/62 61/61/61
f 48/48/48 62/62/62 50/50/50
f 48/48/48 63/63/63 62/62/62
f 46/46/46 63/63/63 48/48/48
f 46/46/46 64/64/64 63/63/63
f 44/44/44 64/64/64 46/46/46
f 44/44/44 65/65/65 64/64/64
f 66/66/66 65/65/65 44/44/44
f 66/66/66 67/67/67 65/65/65
f 68/68/68 67/67/67 66/66/66
f 68/68/68 69/69/69 67/67/67
f 70/70/70 69/69/69 68/68/68
f 70/70/70 71/71/71 69/69/69
f 72/72/72 71/71/71 70/70/70
f 72/72/72 5/5/5 71/71/71
f 73/73/73 5/5/5 72/72/72
f 73/73/73 74/74/74 5/5/5
f 75/75/75 74/74/74 73/73/73
f 75/75/75 76/76/76 74/74/74
f 77/77/77 76/76/76 75/75/75
f 77/77/77 78/78/78 76/76/76
f 66/66/66 78/78/78 77/77/77
f 66/66/66 44/44/44 78/78/78
f 79/79/79 11/11/11 9/9/9
f 79/79/79 80/80/80 11/11/11
f 81/81/81 80/80/80 79/79/79
f 81/81/81 15/15/15 80/80/80
f 44/44/44 15/15/15 81/81/81
f 44/44/44 82/82/82 15/15/15
f 83/83/83 82/82/82 44/44/44
f 83/83/83 84/84/84 82/82/82
f 85/85/85 84/84/84 83/83/83
f 85/85/85 22/22/22 84/84/84
f 24/24/24 22/22/22 85/85/85
f 61/61/61 6/6/6 52/52/52
f 61/61/61 4/4/4 6/6/6
f 86/86/86 4/4/4 61/61/61
f 86/86/86 2/2/2 4/4/4
f 87/87/87 2/2/2 86/86/86
f 87/87/87 1/3/3 2/2/2
f 65/65/65 1/3/3 87/87/87
f 65/65/65 67/67/67 1/3/3
f 88/88/88 9/9/9 7/7/7
f 88/88/88 79/79/79 9/9/9
f 89/89/89 79/79/79 88/88/88
f 89/89/89 81/81/81 79/79/79
f 90/90/90 81/81/81 89/89/89
f 90/90/90 44/44/44 81/81/81
f 78/78/78 44/44/44 90/90/90
f 91/91/91 28/28/28 26/26/26
f 91/91/91 30/30/30 28/28/28
f 44/44/44 30/30/30 91/91/91
f 44/44/44 92/92/92 30/30/30
f 42/42/42 92/92/92 44/44/44
f 42/42/42 40/40/40 92/92/92
f 25/25/25 37/37/37 23/23/23
f 25/25/25 93/93/93 37/37/37
f 27/27/27 93/93/93 25/25/25
f 27/27/27 94/94/94 93/93/93
f 29/29/29 94/94/94 27/27/27
f 29/29/29 31/31/31 94/94/94
f 95/95/95 88/88/88 7/7/7
f 95/95/95 89/89/89 88/88/88
f 96/96/96 89/89/89 95/95/95
f 96/96/96 90/90/90 89/89/89
f 78/78/78 90/90/90 96/96/96
f 97/97/97 20/20/20 8/8/8
f 97/97/97 18/18/18 20/20/20
f 98/98/98 18/18/18 97/97/97
f 98/98/98 16/16/16 18/18/18
f 14/14/14 16/16/16 98/98/98
f 99/99/99 60/60/60 61/61/61
f 99/99/99 58/58/58 60/60/60
f 100/100/100 58/58/58 99/99/99
f 100/100/100 56/56/56 58/58/58
f 55/55/55 56/56/56 100/100/100
f 101/101/101 73/73/73 72/72/72
f 101/101/101 75/75/75 73/73/73
f 102/102/102 75/75/75 101/101/101
f 102/102/102 77/77/77 75/75/75
f 66/66/66 77/77/77 102/102/102
f 34/34/34 103/103/103 36/36/36
f 34/34/34 104/104/104 103/103/103
f 32/32/32 104/104/104 34/34/34
f 32/32/32 30/30/30 104/104/104
f 59/59/59 49/49/49 51/51/51
f 59/59/59 105/105/105 49/49/49
f 57/57/57 105/105/105 59/59/59
f 57/57/57 45/45/45 105/105/105
f 100/100/100 54/54/54 55/55/55
f 100/100/100 106/106/106 54/54/54
f 99/99/99 106/106/106 100/100/100
f 99/99/99 61/61/61 106/106/106
f 33/33/33 94/94/94 31/31/31
f 33/33/33 107/107/107 94/94/94
f 35/35/35 107/107/107 33/33/33
f 35/35/35 37/37/37 107/107/107
f 98/98/98 12/12/12 14/14/14
f 98/98/98 108/108/108 12/12/12
f 97/97/97 108/108/108 98/98/98
f 97/97/97 8/8/8 108/108/108
f 69/69/69 1/3/3 67/67/67
f 69/69/69 3/1/1 1/3/3
f 71/71/71 3/1/1 69/69/69
f 71/71/71 5/5/5 3/1/1
f 70/70/70 101/101/101 72/72/72
f 70/70/70 109/109/109 101/101/101
f 68/68/68 109/109/109 70/70/70
f 68/68/68 66/66/66 109/109/109
f 5/5/5 95/95/95 7/7/7
f 5/5/5 110/110/110 95/95/95
f 74/74/74 110/110/110 5/5/5
f 74/74/74 76/76/76 110/110/110
f 85/85/85 26/26/26 24/24/24
f 85/85/85 91/91/91 26/26/26
f 83/83/83 91/91/91 85/85/85
f 83/83/83 44/44/44 91/91/91
f 103/103/103 38/38/38 36/36/36
f 103/103/103 40/40/40 38/38/38
f 92/92/92 40/40/40 103/103/103
f 106/106/106 53/53/53 54/54/54
f 106/106/106 52/52/52 53/53/53
f 61/61/61 52/52/52 106/106/106
f 96/96/96 76/76/76 78/78/78
f 96/96/96 110/110/110 76/76/76
f 95/95/95 110/110/110 96/96/96
f 104/104/104 92/92/92 103/103/103
f 104/104/104 30/30/30 92/92/92
f 109/109/109 102/102/102 101/101/101
f 109/109/109 66/66/66 102/102/102
f 80/80/80 13/13/13 11/11/11
f 80/80/80 15/15/15 13/13/13
f 19/19/19 82/82/82 84/84/84
f 19/19/19 17/17/17 82/82/82
f 21/21/21 84/84/84 22/22/22
f 21/21/21 19/19/19 84/84/84
f 10/10/10 108/108/108 8/8/8
f 10/10/10 12/12/12 108/108/108
f 105/105/105 47/47/47 49/49/49
f 105/105/105 45/45/45 47/47/47
f 93/93/93 107/107/107 37/37/37
f 93/93/93 94/94/94 107/107/107
f 63/63/63 87/87/87 86/86/86
f 63/63/63 64/64/64 87/87/87
f 62/62/62 86/86/86 61/61/61
f 62/62/62 63/63/63 86/86/86
f 82/82/82 17/17/17 15/15/15
f 65/65/65 87/87/87 64/64/64
f 8/8/8 23/23/23 6/6/6
