# Blender v3.0.0 OBJ File: ''
# www.blender.org
mtllib greedseed.mtl
o mesh-0_meshId0_name.003
v -7.438537 2.000003 18.060253
v -0.032804 -2.486327 23.817585
v -3.956873 -4.986327 22.707266
v -1.409277 -4.986327 24.535971
v -0.032883 -6.544917 24.538635
v -0.035912 -4.986326 26.149521
v 1.343151 -4.986327 24.539930
v 3.895313 -4.986327 22.717155
v 7.388943 2.000002 18.079948
v 7.824004 -4.986328 20.750357
v 14.971863 -4.986329 15.561663
v 7.499166 -9.999998 19.499073
v 14.349024 -9.999999 14.559946
v 6.132816 -13.999998 14.913721
v 11.354859 -13.999999 10.873550
v 11.304127 -14.000003 -15.946765
v 14.754471 -14.000003 -14.039909
v 13.823626 -10.000004 -18.243303
v 18.043344 -10.000004 -15.911202
v 14.424311 -4.986334 -19.531866
v 18.827618 -4.986334 -16.840593
v 17.779188 1.999996 -17.688158
v 23.061928 -4.986334 -12.978811
v 21.777029 1.999996 -14.064905
v 24.375622 -4.986333 -7.955551
v 23.017756 1.999017 -9.157284
v 24.273436 -4.986332 -0.814762
v 22.919640 1.999998 -1.563798
v 21.252924 -4.986331 7.791159
v 20.068190 1.999019 6.263143
v 14.137600 1.999021 13.348484
v 15.890061 8.000000 4.172914
v 10.471591 8.000001 9.594613
v 6.301685 12.000000 2.145298
v 5.656318 8.000001 13.216954
v -0.008768 12.000001 6.209661
v -0.021375 8.000002 15.904173
v -5.692045 8.000002 13.201277
v -14.173336 2.000003 13.311242
v -15.013483 -4.986327 15.521845
v -21.273315 -4.986327 7.733303
v -14.387608 -9.999997 14.521059
v -20.387789 -9.999997 7.106384
v -11.383465 -13.999997 10.844027
v -17.243290 -13.999998 4.779027
v -14.716736 -14.000001 -14.078871
v -18.043438 -14.000000 -11.220613
v -18.000694 -9.999021 -15.959328
v -22.068310 -10.000000 -12.464855
v -18.782305 -4.986331 -16.891617
v -23.026560 -4.986330 -13.041266
v -17.731510 1.999999 -17.735456
v -21.738947 2.000000 -14.122615
v -16.635830 8.000000 -12.859933
v -22.992916 2.000000 -9.219813
v -17.537649 8.000001 -1.739309
v -22.915039 2.000002 -1.626117
v -15.901264 8.000002 4.129898
v -20.084608 2.000003 6.208763
v -6.173334 -13.999997 14.897465
v 0.025620 -13.999003 -18.717451
v -6.546535 -14.000002 -17.624769
v 0.028683 -10.000003 -21.454567
v -8.008167 -10.000002 -20.296083
v 0.030849 -4.986333 -22.760069
v -8.355635 -4.986332 -21.599880
v -7.886909 1.999998 -21.578951
v -13.568122 1.999998 -19.867664
v -6.034156 7.999998 -18.694643
v -11.974646 7.999999 -16.494768
v -3.260445 11.999998 -13.491676
v -8.997860 11.999999 -10.899954
v 0.007899 13.999999 -6.081516
v -9.486644 12.000000 -3.742720
v -6.307576 12.000001 2.128361
v -10.497341 8.000002 9.567310
v -7.551936 -9.999996 19.479759
v -0.023335 -13.999997 17.446926
v 6.594337 -14.000003 -17.608049
v 8.063218 -10.000004 -20.274879
v 8.414443 -4.986334 -21.576986
v 7.946404 1.999996 -21.557995
v 13.620517 1.999996 -19.831438
v 6.084656 7.999997 -18.678526
v 12.018398 7.999997 -16.463009
v 3.297454 11.999998 -13.482080
v 9.026544 11.999998 -10.876164
v 9.496813 11.999999 -3.716532
v 20.368290 -10.000001 7.161462
v 17.230440 -14.000001 4.826193
v 18.072771 -14.000003 -11.172489
v 19.102276 -14.000003 -7.229056
v 22.102184 -9.999023 -12.404927
v 23.361214 -10.000003 -7.581586
v -11.261337 -14.000001 -15.976702
v -13.774618 -10.000002 -18.279785
v -14.372244 -4.986331 -19.570465
v 17.542490 7.999018 -1.690857
v 16.670181 7.999997 -12.815332
v -24.271294 -4.986328 -0.880187
v -24.354557 -4.986329 -8.022215
v -23.260118 -9.999018 -1.116082
v -23.340714 -9.999999 -7.644953
v -19.016768 -13.999999 -1.942524
v -19.083309 -13.999999 -7.281698
v -0.029131 2.000003 21.155239
v 23.263220 -10.000002 -1.052222
v 19.022774 -14.000002 -1.890923
v 0.018715 11.999998 -13.836037
v 0.026316 7.999997 -19.677357
v 0.030745 1.999997 -22.637175
v -0.030566 -9.999997 22.597757
v -7.880663 -4.986327 20.729370
vt 0.892090 0.990000
vt 0.990000 0.968933
vt 0.849976 0.900024
vt 0.944336 0.990000
vt 0.990000 0.968933
vt 0.990000 0.990001
vt 0.944336 0.990000
vt 0.892090 0.990000
vt 0.849976 0.900024
vt 0.839844 0.990000
vt 0.683105 0.990000
vt 0.849976 0.900024
vt 0.699951 0.850037
vt 0.899963 0.800049
vt 0.775024 0.708252
vt 0.658325 0.289734
vt 0.658325 0.289734
vt 0.568604 0.140198
vt 0.358337 0.229126
vt 0.318408 0.141894
vt 0.273147 0.332902
vt 0.431287 0.266020
vt 0.103209 0.283280
vt 0.317123 0.321931
vt 0.416809 0.214539
vt 0.122498 0.532471
vt 0.132385 0.163147
vt 0.331421 0.487366
vt 0.315918 0.652588
vt 0.408569 0.710449
vt 0.317322 0.990000
vt 0.477112 0.756287
vt 0.474060 0.990000
vt 0.565674 0.791809
vt 0.699951 0.850037
vt 0.656250 0.591675
vt 0.775024 0.708252
vt 0.858643 0.541870
vt 0.899963 0.800049
vt 0.990000 0.664734
vt 0.990000 0.858765
vt 0.899963 0.800049
vt 0.699951 0.850037
vt 0.683105 0.990000
vt 0.474060 0.990000
vt 0.699951 0.850037
vt 0.568054 0.793396
vt 0.775024 0.708252
vt 0.656250 0.591675
vt 0.658325 0.289734
vt 0.541748 0.393738
vt 0.358337 0.229126
vt 0.318909 0.447693
vt 0.132385 0.163147
vt 0.122498 0.532471
vt 0.416809 0.214539
vt 0.331421 0.487366
vt 0.602356 0.466858
vt 0.485901 0.641541
vt 0.583374 0.514526
vt 0.477112 0.756287
vt 0.656250 0.591675
vt 0.565674 0.791809
vt 0.843872 0.191589
vt 0.990000 0.167969
vt 0.899963 0.800049
vt 0.990000 0.001160
vt 0.781616 0.054871
vt 0.591493 0.201845
vt 0.755738 0.014510
vt 0.755738 0.161450
vt 0.523371 0.065693
vt 0.591493 0.201845
vt 0.431287 0.266020
vt 0.568604 0.140198
vt 0.843872 0.191589
vt 0.781616 0.054871
vt 0.658325 0.289734
vt 0.887451 0.288452
vt 0.769592 0.335022
vt 0.990000 0.403687
vt 0.781311 0.456055
vt 0.873291 0.573242
vt 0.775024 0.708252
vt 0.849976 0.900024
vt 0.990000 0.858094
vt 0.843872 0.191589
vt 0.781616 0.054871
vt 0.591493 0.201845
vt 0.523371 0.065693
vt 0.591493 0.201845
vt 0.431287 0.266020
vt 0.843872 0.191589
vt 0.568604 0.140198
vt 0.781616 0.054871
vt 0.658325 0.289734
vt 0.887451 0.288452
vt 0.775879 0.312073
vt 0.779236 0.462341
vt 0.568481 0.793640
vt 0.656250 0.591675
vt 0.541748 0.393738
vt 0.441772 0.550049
vt 0.318909 0.447693
vt 0.335510 0.647827
vt 0.658325 0.289734
vt 0.568604 0.140198
vt 0.273147 0.332902
vt 0.318408 0.141894
vt 0.431287 0.266020
vt 0.103209 0.283280
vt 0.317123 0.321931
vt 0.583374 0.514526
vt 0.602356 0.466858
vt 0.317322 0.990000
vt 0.315918 0.652588
vt 0.477112 0.756287
vt 0.335510 0.647827
vt 0.583374 0.514526
vt 0.441772 0.550049
vt 0.990000 0.924073
vt 0.477112 0.756287
vt 0.583374 0.514526
vt 0.990000 0.288269
vt 0.990000 0.181824
vt 0.990000 0.001160
vt 0.990000 0.918884
vt 0.839844 0.990000
vt 0.755738 0.161450
vn -0.4880 0.0641 0.8705
vn -0.0012 0.5091 0.8607
vn -0.4376 0.4988 0.7481
vn -0.6563 0.0045 0.7545
vn -0.0010 -0.5145 0.8575
vn -0.0016 -0.0198 0.9998
vn 0.6542 0.0047 0.7562
vn 0.4857 0.0641 0.8717
vn 0.4356 0.4988 0.7493
vn 0.5141 0.0508 0.8562
vn 0.6810 0.0396 0.7312
vn 0.4284 -0.5252 0.7353
vn 0.5945 -0.5067 0.6243
vn 0.1867 -0.9290 0.3196
vn 0.2520 -0.9310 0.2641
vn 0.1815 -0.8889 -0.4205
vn 0.2458 -0.8963 -0.3690
vn 0.3703 -0.4499 -0.8126
vn 0.5190 -0.4552 -0.7234
vn 0.4147 -0.1337 -0.9001
vn 0.5986 -0.1167 -0.7924
vn 0.5524 0.2958 -0.7793
vn 0.8642 -0.0648 -0.4989
vn 0.7941 0.3573 -0.4917
vn 0.9933 -0.0172 -0.1137
vn 0.8936 0.4349 -0.1115
vn 0.9838 0.0015 0.1790
vn 0.8880 0.4353 0.1478
vn 0.8677 0.0196 0.4966
vn 0.7853 0.4310 0.4444
vn 0.5995 0.4697 0.6480
vn 0.5434 0.7769 0.3179
vn 0.3986 0.7920 0.4624
vn 0.2272 0.9489 0.2191
vn 0.3142 0.7917 0.5238
vn -0.0004 0.9551 0.2962
vn -0.0008 0.7904 0.6125
vn -0.3156 0.7918 0.5229
vn -0.6013 0.4697 0.6464
vn -0.6830 0.0395 0.7293
vn -0.8691 0.0196 0.4943
vn -0.5962 -0.5067 0.6227
vn -0.7671 -0.4677 0.4391
vn -0.2527 -0.9310 0.2635
vn -0.3735 -0.9017 0.2177
vn -0.2448 -0.8963 -0.3697
vn -0.3626 -0.8977 -0.2501
vn -0.5170 -0.4552 -0.7249
vn -0.7558 -0.4686 -0.4573
vn -0.5965 -0.1167 -0.7941
vn -0.8628 -0.0648 -0.5012
vn -0.5504 0.2958 -0.7807
vn -0.7927 0.3573 -0.4939
vn -0.5506 0.7691 -0.3245
vn -0.8932 0.4349 -0.1139
vn -0.6061 0.7920 0.0732
vn -0.8884 0.4353 0.1455
vn -0.5443 0.7769 0.3165
vn -0.7866 0.4310 0.4422
vn -0.1095 -0.8809 -0.4605
vn 0.0006 -0.8641 -0.5033
vn -0.1875 -0.9290 0.3191
vn 0.0012 -0.4130 -0.9107
vn -0.2152 -0.4303 -0.8766
vn 0.0013 -0.1196 -0.9928
vn -0.2259 -0.1250 -0.9661
vn -0.2072 0.2498 -0.9459
vn -0.3665 0.2703 -0.8903
vn -0.1778 0.6617 -0.7284
vn -0.3354 0.7034 -0.6267
vn -0.1015 0.9045 -0.4141
vn -0.2874 0.9297 -0.2305
vn 0.0000 0.9996 -0.0282
vn -0.3247 0.9441 0.0566
vn -0.2278 0.9489 0.2185
vn -0.3998 0.7920 0.4613
vn -0.4303 -0.5252 0.7341
vn -0.0005 -0.9198 0.3923
vn 0.1108 -0.8809 -0.4602
vn 0.2176 -0.4302 -0.8761
vn 0.2285 -0.1250 -0.9655
vn 0.2098 0.2498 -0.9453
vn 0.3689 0.2703 -0.8893
vn 0.1797 0.6617 -0.7279
vn 0.3370 0.7034 -0.6258
vn 0.1027 0.9045 -0.4138
vn 0.2880 0.9297 -0.2298
vn 0.3246 0.9441 0.0575
vn 0.7659 -0.4677 0.4412
vn 0.3728 -0.9017 0.2188
vn 0.3633 -0.8977 -0.2491
vn 0.3913 -0.9190 -0.0483
vn 0.7571 -0.4685 -0.4552
vn 0.8715 -0.4795 -0.1023
vn -0.1804 -0.8889 -0.4210
vn -0.3681 -0.4500 -0.8136
vn -0.4123 -0.1337 -0.9012
vn 0.6059 0.7920 0.0749
vn 0.5514 0.7691 -0.3230
vn -0.9843 0.0015 0.1764
vn -0.9930 -0.0172 -0.1165
vn -0.8691 -0.4726 0.1457
vn -0.8713 -0.4795 -0.1046
vn -0.3860 -0.9210 0.0511
vn -0.3912 -0.9189 -0.0493
vn -0.0011 0.5764 0.8171
vn 0.8688 -0.4725 0.1480
vn 0.3859 -0.9210 0.0521
vn 0.0006 0.9026 -0.4305
vn 0.0010 0.6425 -0.7663
vn 0.0013 0.2372 -0.9714
vn -0.0010 -0.6296 0.7769
vn -0.5165 0.0508 0.8548
usemtl m0kuri_mat
s 1
f 3/1/1 2/2/2 1/3/3
f 3/1/1 4/4/4 2/2/2
f 5/5/5 4/4/4 3/1/1
f 5/5/5 6/6/6 4/4/4
f 7/7/7 6/6/6 5/5/5
f 7/7/7 2/2/2 6/6/6
f 8/8/8 2/2/2 7/7/7
f 8/8/8 9/9/9 2/2/2
f 10/10/10 9/9/9 8/8/8
f 10/10/10 11/11/11 9/9/9
f 12/12/12 11/11/11 10/10/10
f 12/12/12 13/13/13 11/11/11
f 14/14/14 13/13/13 12/12/12
f 14/14/14 15/15/15 13/13/13
f 16/16/16 15/15/15 14/14/14
f 16/16/16 17/17/17 15/15/15
f 18/18/18 17/17/17 16/16/16
f 18/18/18 19/19/19 17/17/17
f 20/20/20 19/21/19 18/22/18
f 20/20/20 21/23/21 19/21/19
f 22/24/22 21/23/21 20/20/20
f 22/25/22 23/26/23 21/27/21
f 24/28/24 23/26/23 22/25/22
f 24/28/24 25/29/25 23/26/23
f 26/30/26 25/29/25 24/28/24
f 26/30/26 27/31/27 25/29/25
f 28/32/28 27/31/27 26/30/26
f 28/32/28 29/33/29 27/31/27
f 30/34/30 29/33/29 28/32/28
f 30/34/30 31/35/31 29/33/29
f 32/36/32 31/35/31 30/34/30
f 32/36/32 33/37/33 31/35/31
f 34/38/34 33/37/33 32/36/32
f 34/38/34 35/39/35 33/37/33
f 36/40/36 35/39/35 34/38/34
f 36/40/36 37/41/37 35/39/35
f 38/42/38 37/41/37 36/40/36
f 38/42/38 1/3/3 37/41/37
f 39/43/39 1/3/3 38/42/38
f 39/43/39 40/44/40 1/3/3
f 41/45/41 40/44/40 39/43/39
f 41/45/41 42/46/42 40/44/40
f 43/47/43 42/46/42 41/45/41
f 43/47/43 44/48/44 42/46/42
f 45/49/45 44/48/44 43/47/43
f 45/49/45 46/50/46 44/48/44
f 47/51/47 46/50/46 45/49/45
f 47/51/47 48/52/48 46/50/46
f 49/53/49 48/52/48 47/51/47
f 49/53/49 50/54/50 48/52/48
f 51/55/51 50/54/50 49/53/49
f 51/55/51 52/56/52 50/54/50
f 53/57/53 52/56/52 51/55/51
f 53/57/53 54/58/54 52/56/52
f 55/59/55 54/58/54 53/57/53
f 55/59/55 56/60/56 54/58/54
f 57/61/57 56/60/56 55/59/55
f 57/61/57 58/62/58 56/60/56
f 59/63/59 58/62/58 57/61/57
f 59/63/59 39/43/39 58/62/58
f 41/45/41 39/43/39 59/63/59
f 62/64/60 61/65/61 60/66/62
f 62/64/60 63/67/63 61/65/61
f 64/68/64 63/67/63 62/64/60
f 64/69/64 65/70/65 63/71/63
f 66/72/66 65/70/65 64/69/64
f 66/72/66 67/73/67 65/70/65
f 68/74/68 67/73/67 66/72/66
f 68/75/68 69/76/69 67/77/67
f 70/78/70 69/76/69 68/75/68
f 70/78/70 71/79/71 69/76/69
f 72/80/72 71/79/71 70/78/70
f 72/80/72 73/81/73 71/79/71
f 74/82/74 73/81/73 72/80/72
f 74/82/74 75/83/75 73/81/73
f 58/62/58 75/83/75 74/82/74
f 58/62/58 76/84/76 75/83/75
f 39/43/39 76/84/76 58/62/58
f 39/43/39 38/42/38 76/84/76
f 60/66/62 77/85/77 42/46/42
f 60/66/62 78/86/78 77/85/77
f 61/65/61 78/86/78 60/66/62
f 61/65/61 79/87/79 78/86/78
f 63/67/63 79/87/79 61/65/61
f 63/67/63 80/88/80 79/87/79
f 65/70/65 80/89/80 63/71/63
f 65/70/65 81/90/81 80/89/80
f 82/91/82 81/90/81 65/70/65
f 82/91/82 83/92/83 81/90/81
f 84/93/84 83/94/83 82/95/82
f 84/93/84 85/96/85 83/94/83
f 86/97/86 85/96/85 84/93/84
f 86/97/86 87/98/87 85/96/85
f 73/81/73 87/98/87 86/97/86
f 73/81/73 88/99/88 87/98/87
f 34/38/34 88/99/88 73/81/73
f 34/38/34 32/36/32 88/99/88
f 11/11/11 31/35/31 9/9/9
f 11/11/11 29/33/29 31/35/31
f 13/13/13 29/33/29 11/11/11
f 13/13/13 89/100/89 29/33/29
f 15/15/15 89/100/89 13/13/13
f 15/15/15 90/101/90 89/100/89
f 91/102/91 90/101/90 15/15/15
f 91/102/91 92/103/92 90/101/90
f 93/104/93 92/103/92 91/102/91
f 93/104/93 94/105/94 92/103/92
f 23/26/23 94/105/94 93/104/93
f 23/26/23 25/29/25 94/105/94
f 44/48/44 60/66/62 42/46/42
f 44/48/44 62/64/60 60/66/62
f 95/106/95 62/64/60 44/48/44
f 95/106/95 96/107/96 62/64/60
f 48/52/48 96/107/96 95/106/95
f 48/108/48 97/109/97 96/110/96
f 50/111/50 97/109/97 48/108/48
f 50/111/50 52/112/52 97/109/97
f 98/113/98 88/99/88 32/36/32
f 98/113/98 87/98/87 88/99/88
f 99/114/99 87/98/87 98/113/98
f 99/114/99 85/96/85 87/98/87
f 22/25/22 85/96/85 99/114/99
f 22/25/22 83/94/83 85/96/85
f 20/20/20 83/92/83 22/24/22
f 57/61/57 41/45/41 59/63/59
f 57/61/57 100/115/100 41/45/41
f 55/59/55 100/115/100 57/61/57
f 55/59/55 101/116/101 100/115/100
f 53/57/53 101/116/101 55/59/55
f 53/57/53 51/55/51 101/116/101
f 28/32/28 32/36/32 30/34/30
f 28/32/28 98/113/98 32/36/32
f 26/30/26 98/113/98 28/32/28
f 26/30/26 99/114/99 98/113/98
f 24/28/24 99/114/99 26/30/26
f 24/28/24 22/25/22 99/114/99
f 100/115/100 43/47/43 41/45/41
f 100/115/100 102/117/102 43/47/43
f 101/116/101 102/117/102 100/115/100
f 101/116/101 103/118/103 102/117/102
f 51/55/51 103/118/103 101/116/101
f 51/55/51 49/53/49 103/118/103
f 102/117/102 45/49/45 43/47/43
f 102/117/102 104/119/104 45/49/45
f 103/118/103 104/119/104 102/117/102
f 103/118/103 105/120/105 104/119/104
f 49/53/49 105/120/105 103/118/103
f 49/53/49 47/51/47 105/120/105
f 35/39/35 31/35/31 33/37/33
f 35/39/35 9/9/9 31/35/31
f 37/41/37 9/9/9 35/39/35
f 37/41/37 106/121/106 9/9/9
f 1/3/3 106/121/106 37/41/37
f 1/3/3 2/2/2 106/121/106
f 89/100/89 27/31/27 29/33/29
f 89/100/89 107/122/107 27/31/27
f 90/101/90 107/122/107 89/100/89
f 90/101/90 108/123/108 107/122/107
f 92/103/92 108/123/108 90/101/90
f 92/103/92 94/105/94 108/123/108
f 84/93/84 109/124/109 86/97/86
f 84/93/84 110/125/110 109/124/109
f 111/126/111 110/125/110 84/93/84
f 111/126/111 69/76/69 110/125/110
f 67/77/67 69/76/69 111/126/111
f 77/85/77 5/5/5 3/1/1
f 77/85/77 112/127/112 5/5/5
f 78/86/78 112/127/112 77/85/77
f 78/86/78 12/12/12 112/127/112
f 14/14/14 12/12/12 78/86/78
f 113/128/113 3/1/1 1/3/3
f 113/128/113 77/85/77 3/1/1
f 40/44/40 77/85/77 113/128/113
f 40/44/40 42/46/42 77/85/77
f 80/88/80 18/18/18 79/87/79
f 80/89/80 20/20/20 18/22/18
f 81/90/81 20/20/20 80/89/80
f 81/90/81 83/92/83 20/20/20
f 8/8/8 12/12/12 10/10/10
f 8/8/8 5/5/5 12/12/12
f 7/7/7 5/5/5 8/8/8
f 79/87/79 14/14/14 78/86/78
f 79/87/79 16/16/16 14/14/14
f 18/18/18 16/16/16 79/87/79
f 73/81/73 36/40/36 34/38/34
f 73/81/73 75/83/75 36/40/36
f 68/74/68 97/109/97 52/112/52
f 68/74/68 66/72/66 97/109/97
f 70/78/70 52/56/52 54/58/54
f 70/78/70 68/75/68 52/56/52
f 72/80/72 54/58/54 56/60/56
f 72/80/72 70/78/70 54/58/54
f 74/82/74 56/60/56 58/62/58
f 74/82/74 72/80/72 56/60/56
f 96/107/96 64/68/64 62/64/60
f 96/110/96 97/109/97 64/69/64
f 47/51/47 104/119/104 105/120/105
f 47/51/47 45/49/45 104/119/104
f 17/17/17 91/102/91 15/15/15
f 17/17/17 19/19/19 91/102/91
f 46/50/46 95/106/95 44/48/44
f 46/50/46 48/52/48 95/106/95
f 19/19/19 93/104/93 91/102/91
f 19/19/19 21/27/21 93/104/93
f 75/83/75 38/42/38 36/40/36
f 75/83/75 76/84/76 38/42/38
f 94/105/94 107/122/107 108/123/108
f 94/105/94 25/29/25 107/122/107
f 69/76/69 109/124/109 110/125/110
f 69/76/69 71/79/71 109/124/109
f 82/95/82 111/126/111 84/93/84
f 82/91/82 65/70/65 111/129/111
f 109/124/109 73/81/73 86/97/86
f 109/124/109 71/79/71 73/81/73
f 65/70/65 67/73/67 111/129/111
f 64/69/64 97/109/97 66/72/66
f 40/44/40 113/128/113 1/3/3
f 12/12/12 5/5/5 112/127/112
f 4/4/4 6/6/6 2/2/2
f 2/2/2 9/9/9 106/121/106
f 93/104/93 21/27/21 23/26/23
f 107/122/107 25/29/25 27/31/27
