# Blender v3.0.0 OBJ File: ''
# www.blender.org
mtllib universal_gem.mtl
o mesh-0_meshId0_name.005
v -6.433327 7.667967 22.218861
v -5.519533 8.161127 22.212790
v -3.713272 4.955077 23.520086
v 0.070958 6.711906 23.496519
v 0.076661 1.176757 24.627308
v 3.855814 4.952146 23.497341
v 5.615383 1.166016 23.517921
v 7.070613 6.760736 22.183666
v 7.070717 -4.440434 22.261572
v -6.932509 6.760737 22.226765
v -5.469540 1.171877 23.551838
v -6.931927 -4.440432 22.305546
v -3.709422 -2.613283 23.573257
v -6.433245 -5.347662 22.310314
v -5.519496 -5.840823 22.309933
v 6.571500 -5.347664 22.269493
v 3.859972 -2.616214 23.549173
v 5.658236 -5.840824 22.276415
v 0.076229 -4.372073 23.573618
v 5.657721 8.161126 22.178392
v 6.571920 7.667966 22.178907
vt 0.229492 0.770508
vt 0.100830 1.000000
vt 0.035645 0.964844
vt 0.499756 0.895874
vt 0.500000 0.500000
vt 0.770142 0.770264
vt 0.895752 0.499878
vt 1.000000 0.900024
vt 1.000000 0.100098
vt 0.000000 0.900024
vt 0.104126 0.500244
vt 0.000000 0.100098
vt 0.229736 0.229858
vt 0.035645 0.035278
vt 0.100830 0.000000
vt 0.770386 0.229614
vt 0.964233 0.035278
vt 0.899048 0.000000
vt 0.500122 0.104248
vt 0.899048 1.000000
vt 0.964233 0.964844
vn -0.1875 0.1972 0.9622
vn -0.1311 0.3499 0.9275
vn -0.2213 0.2324 0.9471
vn 0.0027 0.4251 0.9051
vn 0.0031 0.0069 1.0000
vn 0.1933 0.1972 0.9611
vn 0.4214 0.0063 0.9068
vn 0.3451 0.1414 0.9278
vn 0.3453 -0.1286 0.9296
vn -0.3395 0.1416 0.9298
vn -0.4158 0.0063 0.9094
vn -0.3392 -0.1284 0.9319
vn -0.1873 -0.1838 0.9649
vn -0.2206 -0.2192 0.9504
vn -0.1305 -0.3370 0.9324
vn 0.1934 -0.1838 0.9637
vn 0.2273 -0.2189 0.9489
vn 0.1370 -0.3366 0.9316
vn 0.0028 -0.4122 0.9111
vn 0.1367 0.3497 0.9268
vn 0.2270 0.2322 0.9458
usemtl m0dia_mat.001
s 1
f 3/1/1 2/2/2 1/3/3
f 3/1/1 4/4/4 2/2/2
f 5/5/5 4/4/4 3/1/1
f 5/5/5 6/6/6 4/4/4
f 7/7/7 6/6/6 5/5/5
f 7/7/7 8/8/8 6/6/6
f 9/9/9 8/8/8 7/7/7
f 10/10/10 3/1/1 1/3/3
f 10/10/10 11/11/11 3/1/1
f 12/12/12 11/11/11 10/10/10
f 12/12/12 13/13/13 11/11/11
f 14/14/14 13/13/13 12/12/12
f 14/14/14 15/15/15 13/13/13
f 17/16/16 16/17/17 9/9/9
f 17/16/16 18/18/18 16/17/17
f 19/19/19 18/18/18 17/16/16
f 19/19/19 15/15/15 18/18/18
f 13/13/13 15/15/15 19/19/19
f 4/4/4 20/20/20 2/2/2
f 4/4/4 6/6/6 20/20/20
f 6/6/6 21/21/21 20/20/20
f 6/6/6 8/8/8 21/21/21
f 11/11/11 5/5/5 3/1/1
f 11/11/11 13/13/13 5/5/5
f 19/19/19 5/5/5 13/13/13
f 19/19/19 17/16/16 5/5/5
f 7/7/7 17/16/16 9/9/9
f 7/7/7 5/5/5 17/16/16
