# Blender v3.0.0 OBJ File: ''
# www.blender.org
mtllib universal_ring.mtl
o mesh-1_meshId1_name.004
v 3.317167 -3.000978 -18.184776
v 2.959340 -3.106448 -16.060844
v 9.664618 -2.985348 -15.896502
v 8.622622 -3.091799 -14.026493
v 14.846902 -2.955080 -11.575048
v 13.246874 -3.065430 -10.184868
v 18.238062 -2.914061 -5.743249
v 16.272062 -3.029301 -4.999939
v 19.430168 -2.867192 0.897372
v 17.335409 -2.987301 0.904421
v 18.279377 -2.821293 7.545823
v 16.308262 -2.946292 6.815606
v 14.924076 -2.780273 13.398843
v 13.314589 -2.910163 12.020040
v 9.769120 -2.750003 17.751934
v 8.716029 -2.882813 15.890416
v 3.436077 -2.734383 20.079056
v 3.065490 -2.869143 17.959475
v -3.311275 -2.734383 20.100674
v -2.953859 -2.869142 17.978024
v -9.658720 -2.750002 17.812410
v -8.617116 -2.882811 15.943716
v -14.841021 -2.780271 13.490932
v -13.240010 -2.910161 12.102436
v -18.232182 -2.821290 7.659132
v -16.265692 -2.946290 6.916661
v -19.424271 -2.867188 1.018537
v -17.329819 -2.987299 1.012753
v -18.273483 -2.914057 -5.629924
v -16.302782 -3.029298 -4.898426
v -14.917849 -2.955077 -11.484295
v -13.309049 -3.065427 -10.102776
v -9.762443 -2.985347 -15.836608
v -8.709140 -3.091797 -13.972784
v -3.430696 -3.000977 -18.164015
v -3.059993 -3.106447 -16.042305
v -1.056701 -3.000977 -18.170805
v -1.050469 -3.106447 -16.048386
v -1.054905 4.878912 -17.775305
v -1.049907 4.498052 -16.101809
v -3.361057 4.878913 -17.768400
v -3.060228 4.498052 -16.095146
v -9.565429 4.894533 -15.495861
v -8.709921 4.511723 -14.026581
v -14.617414 4.923833 -11.245445
v -13.309324 4.539062 -10.155710
v -17.904858 4.963872 -5.530327
v -16.303034 4.575202 -4.951375
v -19.032219 5.008791 0.962274
v -17.330154 4.616211 0.959854
v -17.864462 5.053710 7.446439
v -16.265938 4.657230 6.863721
v -14.541499 5.093750 13.141662
v -13.240749 4.693359 12.048649
v -9.464109 5.123048 17.360310
v -8.617368 4.720698 15.890767
v -3.245229 5.138668 19.594585
v -2.954196 4.735347 17.925125
v 3.366115 5.138667 19.574087
v 3.066052 4.735347 17.906054
v 9.572675 5.123046 17.301428
v 8.715750 4.720697 15.837483
v 14.622470 5.093747 13.051130
v 13.314310 4.693357 11.967104
v 17.910744 5.053708 7.335412
v 16.307924 4.657228 6.762707
v 19.038633 5.008788 0.843720
v 17.335077 4.616209 0.851530
v 17.870388 4.963870 -5.641284
v 16.271725 4.575200 -5.052838
v 14.547827 4.923831 -11.335617
v -8.617368 4.720698 15.890767
v -2.954196 4.735347 17.925125
v 3.066052 4.735347 17.906054
v 8.715750 4.720697 15.837483
v 13.314310 4.693357 11.967104
v 16.307924 4.657228 6.762707
v 17.335077 4.616209 0.851530
v 16.271725 4.575200 -5.052838
v 13.246623 4.539061 -10.237817
v 8.623153 4.511721 -14.079886
v 2.959952 4.498052 -16.114296
v 0.949564 4.498052 -16.107712
v 0.949841 -3.106448 -16.054777
v 0.944557 4.878912 -17.781204
v 0.943617 -3.000978 -18.177202
v 0.942954 4.355472 -18.409443
v 3.348423 4.355472 -18.416491
v 3.250301 4.878912 -17.788910
v 9.470037 4.894531 -15.555155
v 8.623153 4.511721 -14.079886
v 13.246623 4.539061 -10.237817
v 7.365245 -4.664064 23.550968
v 7.070717 -4.440434 22.261572
v 7.365368 7.002926 23.469578
v 7.070613 6.760736 22.183666
v 6.845253 7.948236 23.521233
v 6.571920 7.667966 22.178907
v 5.894688 8.460936 23.464012
v 5.657721 8.161126 22.178392
v -5.748021 8.460937 23.500235
v -5.519533 8.161127 22.212790
v -6.698884 7.948237 23.562916
v -6.433327 7.667967 22.218861
v -7.219188 7.002927 23.515194
v -6.932509 6.760737 22.226765
v -7.218515 -4.664063 23.596123
v -6.931927 -4.440432 22.305546
v -6.699071 -5.608403 23.657879
v -6.433245 -5.347662 22.310314
v -5.747752 -6.122073 23.601757
v -5.519496 -5.840823 22.309933
v 5.894129 -6.122074 23.566017
v 5.658236 -5.840824 22.276415
v 6.845946 -5.608404 23.615685
v 6.571500 -5.347664 22.269493
v 8.322273 -5.433594 23.162775
v 8.188381 -6.988283 19.995174
v 7.734819 -6.501954 23.215181
v 7.046838 -7.604493 20.060225
v 6.658690 -7.083014 23.179035
v -6.922132 -7.604492 20.103706
v -6.514027 -7.083013 23.220360
v -8.063190 -6.988282 20.045397
v -7.589615 -6.501953 23.262907
v -8.687435 -5.854492 20.096642
v -8.178673 -5.433592 23.213524
v -8.687472 8.144527 19.999496
v -8.178755 7.766597 23.122074
v -8.063738 9.277338 19.931660
v -7.590617 8.835937 23.156143
v -6.922862 9.894527 19.982094
v -6.514299 9.416986 23.105305
v 7.046998 9.894526 19.938097
v 6.658436 9.416986 23.063972
v 8.187731 9.277336 19.881380
v 7.733813 8.835936 23.108536
v 8.812317 8.144526 19.945271
v 8.322586 7.766596 23.070053
v 8.812330 -5.854493 20.042429
v -3.060228 4.498052 -16.095146
v -8.709921 4.511723 -14.026581
v -13.309324 4.539062 -10.155710
v -16.303034 4.575202 -4.951375
v -17.330154 4.616211 0.959854
v -16.265938 4.657230 6.863721
v -13.240749 4.693359 12.048649
v 3.468290 4.624997 20.208277
v 9.862141 4.608397 17.859447
v 15.064852 4.578126 13.466092
v 18.451536 4.537107 7.556419
v 19.613779 4.490228 0.845898
v 18.410711 4.443359 -5.858333
v 14.987152 4.402340 -11.745848
v 9.755473 4.372071 -16.107487
v -9.855354 4.372073 -16.046902
v -15.058910 4.402343 -11.653057
v -18.447006 4.443362 -5.743719
v -19.608665 4.490232 0.967607
v -18.404724 4.537110 7.671353
v -14.981657 4.578129 13.558021
v -9.749996 4.608398 17.919624
v -3.342526 4.624998 20.229553
v 7.365368 7.002926 23.469578
v 5.894129 -6.122074 23.566017
v -5.747752 -6.122073 23.601757
v -6.699071 -5.608403 23.657879
v -7.218515 -4.664063 23.596123
v -7.219188 7.002927 23.515194
v -6.698884 7.948237 23.562916
v -5.748021 8.460937 23.500235
v 5.894688 8.460936 23.464012
v 6.845253 7.948236 23.521233
v -1.057330 4.355473 -18.403065
v -3.462851 4.355473 -18.396105
v 2.959952 4.498052 -16.114296
v 7.046998 9.894526 19.938097
v -6.922862 9.894527 19.982094
v 0.062304 1.144527 19.963427
v -8.063738 9.277338 19.931660
v -8.687472 8.144527 19.999496
v 8.812330 -5.854493 20.042429
v 8.812317 8.144526 19.945271
v 8.187731 9.277336 19.881380
v -8.687435 -5.854492 20.096642
v -8.063190 -6.988282 20.045397
v 7.046838 -7.604493 20.060225
v -6.922132 -7.604492 20.103706
v 8.188381 -6.988283 19.995174
v 9.664618 -2.985348 -15.896502
v 9.755473 4.372071 -16.107487
v 3.317167 -3.000978 -18.184776
v 3.348423 4.355472 -18.416491
v -9.855354 4.372073 -16.046902
v -9.762443 -2.985347 -15.836608
v -3.462851 4.355473 -18.396105
v -3.430696 -3.000977 -18.164015
vt -0.106445 -0.165039
vt 0.115234 -0.191895
vt 0.115601 -0.165039
vt -0.107422 -0.191895
vt -0.328735 -0.165039
vt -0.329712 -0.191895
vt -0.550903 -0.165039
vt -0.551636 -0.191895
vt -0.773071 -0.165039
vt -0.773071 -0.191895
vt -0.995361 -0.165039
vt -0.994629 -0.191895
vt -1.217530 -0.165039
vt -1.216430 -0.191895
vt -1.439820 -0.165039
vt -1.438840 -0.191895
vt -1.661990 -0.165039
vt -1.661620 -0.191895
vt -1.884280 -0.165039
vt -1.884640 -0.191895
vt -2.106450 -0.165039
vt -2.107420 -0.191895
vt -2.328740 -0.165039
vt -2.329710 -0.191895
vt -2.550900 -0.165039
vt -2.551640 -0.191895
vt -2.773070 -0.165039
vt -2.773070 -0.191895
vt -2.995360 -0.165039
vt -2.994630 -0.191895
vt -3.217530 -0.165039
vt -3.216430 -0.191895
vt -3.439820 -0.165039
vt -3.438840 -0.191895
vt -3.661990 -0.165039
vt -3.661620 -0.191895
vt -3.739870 -0.165039
vt -3.735720 -0.191895
vt -3.739140 1.599730
vt -3.735720 1.511840
vt -3.661620 1.599730
vt -3.661620 1.511840
vt -3.438840 1.599730
vt -3.438840 1.511840
vt -3.216430 1.599730
vt -3.216430 1.511840
vt -2.994630 1.599730
vt -2.994630 1.511840
vt -2.773070 1.599730
vt -2.773070 1.511840
vt -2.551640 1.599730
vt -2.551640 1.511840
vt -2.329710 1.599730
vt -2.329710 1.511840
vt -2.107420 1.599730
vt -2.107420 1.511840
vt -1.884640 1.599730
vt -1.884640 1.511840
vt -1.661620 1.599730
vt -1.661620 1.511840
vt -1.438840 1.599730
vt -1.438840 1.511840
vt -1.216430 1.599730
vt -1.216430 1.511840
vt -0.994629 1.599730
vt -0.994629 1.511840
vt -0.773071 1.599730
vt -0.773071 1.511840
vt -0.551636 1.599730
vt -0.551636 1.511840
vt -0.329712 1.599730
vt -1.884640 1.511840
vt -2.107420 1.511840
vt -1.661620 1.511840
vt -1.438840 1.511840
vt -1.216430 1.511840
vt -0.994629 1.511840
vt -0.773071 1.511840
vt -0.551636 1.511840
vt -0.329712 1.511840
vt -0.107422 1.511840
vt 0.115234 1.511840
vt 0.189331 1.511840
vt 0.189331 -0.191895
vt 0.192749 1.599730
vt 0.193481 -0.165039
vt 0.193848 1.483640
vt 0.115601 1.483640
vt 0.115234 1.599730
vt -0.107422 1.599730
vt -0.107422 1.511840
vt -0.329712 1.511840
vt 0.154541 0.221069
vt 0.143433 -0.218750
vt 0.154541 -0.227661
vt 0.143433 0.212158
vt 0.134521 0.257446
vt 0.124146 0.246948
vt 0.098022 0.277100
vt 0.089111 0.265991
vt -0.349609 0.277100
vt -0.340698 0.265991
vt -0.386230 0.257446
vt -0.375854 0.246948
vt -0.406250 0.221069
vt -0.395020 0.212158
vt -0.406250 -0.227661
vt -0.395020 -0.218750
vt -0.386230 -0.264038
vt -0.375854 -0.253662
vt -0.349609 -0.283813
vt -0.340698 -0.272583
vt 0.098022 -0.283813
vt 0.089111 -0.272583
vt 0.134521 -0.264038
vt 0.124146 -0.253662
vt 0.168823 -0.298340
vt 0.186646 -0.316162
vt 0.191406 -0.257202
vt 0.142700 -0.339844
vt 0.127441 -0.320679
vt -0.394409 -0.339844
vt -0.379150 -0.320679
vt -0.438354 -0.316162
vt -0.420532 -0.298340
vt -0.462280 -0.272583
vt -0.443115 -0.257202
vt -0.462280 0.265869
vt -0.443115 0.250488
vt -0.438354 0.309570
vt -0.420532 0.291626
vt -0.394409 0.333252
vt -0.379150 0.313965
vt 0.142700 0.333252
vt 0.127441 0.313965
vt 0.186646 0.309570
vt 0.168823 0.291626
vt 0.210693 0.265869
vt 0.191406 0.250488
vt 0.210693 -0.272583
vt -3.661620 1.511840
vt -3.438840 1.511840
vt -3.216430 1.511840
vt -2.994630 1.511840
vt -2.773070 1.511840
vt -2.551640 1.511840
vt -2.329710 1.511840
vt -1.661990 1.483640
vt -1.439820 1.483640
vt -1.217530 1.483640
vt -0.995361 1.483640
vt -0.773071 1.483640
vt -0.550903 1.483640
vt -0.328735 1.483640
vt -0.106445 1.483640
vt -3.439820 1.483640
vt -3.217530 1.483640
vt -2.995360 1.483640
vt -2.773070 1.483640
vt -2.550900 1.483640
vt -2.328740 1.483640
vt -2.106450 1.483640
vt -1.884280 1.483640
vt 0.154541 0.221069
vt 0.098022 -0.283813
vt -0.349609 -0.283813
vt -0.386230 -0.264038
vt -0.406250 -0.227661
vt -0.406250 0.221069
vt -0.349609 0.277100
vt -0.386230 0.257446
vt 0.098022 0.277100
vt 0.134521 0.257446
vt -3.740230 1.483640
vt -3.661990 1.483640
vt 0.115234 1.511840
vt 0.101196 -0.002197
vt -0.247803 0.347900
vt 0.450195 0.347900
vt -0.249512 0.323242
vt -0.248047 0.277832
vt 0.450439 0.277832
vt 0.450439 -0.282104
vt 0.451904 0.323242
vt -0.248047 -0.282104
vt -0.249512 -0.327515
vt -0.247803 -0.352173
vt 0.450195 -0.352173
vt 0.451904 -0.327515
vt 0.185303 -0.139038
vt 1.059450 1.465580
vt 1.047000 -0.139038
vt 0.189697 1.465580
vt 1.055050 1.464600
vt 0.197876 -0.138062
vt 0.185303 1.464600
vt 1.059450 -0.138062
vn 0.3276 -0.8560 -0.3998
vn -0.1087 -0.7641 0.6358
vn 0.0065 -0.8568 -0.5156
vn -0.3172 -0.7647 0.5609
vn 0.5737 -0.6637 -0.4799
vn -0.4876 -0.7661 0.4186
vn 0.7050 -0.6619 -0.2545
vn -0.5993 -0.7678 0.2264
vn 0.7512 -0.6600 0.0023
vn -0.6388 -0.7693 0.0073
vn 0.7066 -0.6583 0.2593
vn -0.6008 -0.7707 -0.2120
vn 0.5767 -0.6569 0.4855
vn -0.4902 -0.7719 -0.4048
vn 0.3774 -0.6560 0.6537
vn -0.3207 -0.7725 -0.5480
vn 0.1722 -0.8498 0.4981
vn -0.1126 -0.7729 -0.6244
vn -0.1692 -0.8498 0.4992
vn 0.1087 -0.7729 -0.6251
vn -0.3734 -0.6559 0.6560
vn 0.3172 -0.7725 -0.5501
vn -0.5737 -0.6569 0.4892
vn 0.4877 -0.7719 -0.4078
vn -0.7049 -0.6584 0.2637
vn 0.5995 -0.7707 -0.2157
vn -0.7512 -0.6601 0.0070
vn 0.6388 -0.7693 0.0034
vn -0.7066 -0.6619 -0.2501
vn 0.6007 -0.7678 0.2228
vn -0.5767 -0.6636 -0.4764
vn 0.4902 -0.7661 0.4156
vn -0.3300 -0.8560 -0.3978
vn 0.3208 -0.7647 0.5589
vn -0.0096 -0.8568 -0.5155
vn 0.1126 -0.7642 0.6351
vn 0.5800 -0.5699 -0.5820
vn 0.5761 -0.5910 0.5646
vn 0.6191 0.7631 -0.1852
vn 0.5925 0.5056 0.6272
vn -0.0485 0.9608 -0.2729
vn 0.0396 0.9758 0.2150
vn -0.1402 0.9594 -0.2445
vn 0.1129 0.9756 0.1884
vn -0.2208 0.9569 -0.1884
vn 0.1724 0.9754 0.1375
vn -0.2772 0.9550 -0.1054
vn 0.2113 0.9749 0.0697
vn -0.2971 0.9548 -0.0058
vn 0.2247 0.9744 -0.0074
vn -0.2762 0.9565 0.0934
vn 0.2107 0.9739 -0.0846
vn -0.2193 0.9596 0.1761
vn 0.1716 0.9733 -0.1523
vn -0.1387 0.9627 0.2323
vn 0.1115 0.9730 -0.2021
vn -0.0467 0.9645 0.2597
vn 0.0381 0.9728 -0.2283
vn 0.0484 0.9645 0.2594
vn -0.0396 0.9728 -0.2281
vn 0.1404 0.9626 0.2315
vn -0.1127 0.9730 -0.2015
vn 0.2205 0.9596 0.1747
vn -0.1725 0.9733 -0.1513
vn 0.2774 0.9563 0.0921
vn -0.2112 0.9739 -0.0832
vn 0.2977 0.9546 -0.0074
vn -0.2246 0.9744 -0.0060
vn 0.2766 0.9550 -0.1069
vn -0.2109 0.9749 0.0710
vn 0.2194 0.9570 -0.1895
vn 0.1700 -0.0068 -0.9854
vn 0.4961 -0.0060 -0.8682
vn -0.1761 -0.0069 -0.9843
vn -0.5015 -0.0060 -0.8651
vn -0.7670 -0.0045 -0.6416
vn -0.9404 -0.0024 -0.3401
vn -1.0000 0.0000 0.0031
vn -0.9383 0.0023 0.3458
vn -0.7630 0.0045 0.6463
vn -0.4961 0.0061 0.8682
vn -0.1700 0.0069 0.9854
vn -0.5885 0.5056 0.6309
vn -0.5727 -0.5910 0.5680
vn -0.6202 0.7632 -0.1812
vn -0.5835 -0.5699 -0.5785
vn -0.6225 0.3213 -0.7136
vn 0.0749 0.5384 -0.8393
vn 0.0466 0.9608 -0.2733
vn 0.1386 0.9594 -0.2456
vn -0.1118 0.9756 0.1889
vn -0.1715 0.9754 0.1386
vn -0.9275 -0.2660 0.2627
vn -0.9408 0.2245 0.2539
vn -0.3343 0.1454 0.9312
vn -0.9408 -0.2239 0.2544
vn -0.6778 -0.6785 0.2832
vn -0.6783 -0.6780 0.2832
vn -0.2601 -0.9296 0.2609
vn -0.2181 -0.9407 0.2596
vn 0.2643 -0.9279 0.2630
vn 0.2229 -0.9408 0.2554
vn 0.6758 -0.6821 0.2790
vn 0.6753 -0.6827 0.2792
vn 0.9310 -0.2631 0.2529
vn 0.9424 -0.2209 0.2512
vn 0.9292 0.2692 0.2530
vn 0.9424 0.2273 0.2454
vn 0.6796 0.6823 0.2694
vn 0.6799 0.6820 0.2694
vn 0.2617 0.9333 0.2458
vn 0.2199 0.9444 0.2445
vn -0.2626 0.9316 0.2512
vn -0.2214 0.9443 0.2433
vn -0.2410 0.2598 0.9351
vn -0.6736 0.6865 0.2736
vn 0.5487 -0.5429 0.6358
vn 0.6917 -0.6926 0.2044
vn 0.7719 -0.1838 0.6085
vn 0.2592 -0.9473 0.1880
vn 0.1845 -0.7682 0.6130
vn -0.2599 -0.9463 0.1924
vn -0.1831 -0.7664 0.6157
vn -0.6880 -0.6950 0.2087
vn -0.5409 -0.5466 0.6392
vn -0.9468 -0.2615 0.1873
vn -0.7700 -0.1815 0.6117
vn -0.9459 0.2657 0.1863
vn -0.7702 0.1912 0.6084
vn -0.6906 0.6953 0.1990
vn -0.5428 0.5535 0.6316
vn -0.2584 0.9498 0.1763
vn -0.1818 0.7746 0.6058
vn 0.2611 0.9489 0.1774
vn 0.1859 0.7770 0.6013
vn 0.6893 0.6978 0.1947
vn 0.5469 0.5532 0.6283
vn 0.9479 0.2641 0.1779
vn 0.7718 0.1910 0.6065
vn 0.9471 -0.2629 0.1842
vn 0.1762 0.0069 0.9843
vn 0.5015 0.0061 0.8651
vn 0.7670 0.0045 0.6416
vn 0.9404 0.0024 0.3401
vn 1.0000 0.0000 -0.0031
vn 0.9382 -0.0023 -0.3459
vn 0.7630 -0.0045 -0.6463
vn 0.2140 0.5506 0.8068
vn 0.4602 0.4022 0.7914
vn 0.7064 0.3935 0.5883
vn 0.8689 0.3844 0.3117
vn 0.9253 0.3792 -0.0053
vn 0.8671 0.3797 -0.3223
vn 0.7028 0.3847 -0.5983
vn 0.4750 0.5335 -0.6999
vn -0.4792 0.5342 -0.6964
vn -0.7064 0.3850 -0.5939
vn -0.8689 0.3800 -0.3171
vn -0.9251 0.3796 0.0002
vn -0.8669 0.3845 0.3170
vn -0.7029 0.3931 0.5928
vn -0.4553 0.4019 0.7944
vn -0.2088 0.5505 0.8083
vn 0.3518 0.0529 0.9345
vn 0.0447 -0.3423 0.9385
vn -0.0426 -0.3427 0.9385
vn -0.2058 -0.2112 0.9555
vn -0.3450 -0.0359 0.9379
vn -0.3448 0.0492 0.9373
vn -0.0426 0.3555 0.9337
vn -0.2056 0.2243 0.9525
vn 0.0446 0.3551 0.9337
vn 0.2186 0.2176 0.9512
vn 0.6181 0.3212 -0.7175
vn -0.0800 0.5388 -0.8386
vn -0.0382 0.9758 0.2153
vn -0.0031 -0.0070 -1.0000
vn 0.0188 0.0171 -0.9997
vn -0.0247 0.0168 -0.9995
vn -0.0271 -0.0287 -0.9992
vn 0.0209 -0.0287 -0.9994
vn 0.0206 0.0144 -0.9997
vn -0.0029 -0.0072 -1.0000
vn -0.0268 0.0145 -0.9995
vn 0.0185 -0.0308 -0.9993
vn -0.0246 -0.0307 -0.9992
vn -0.0030 -0.0069 -1.0000
vn 0.3390 -0.0311 -0.9402
vn 0.3389 -0.0310 -0.9403
vn -0.3449 -0.0311 -0.9381
vn -0.3448 -0.0312 -0.9381
usemtl m1ring_mat.001
s 1
f 3/1/1 2/2/2 1/3/3
f 3/1/1 4/4/4 2/2/2
f 5/5/5 4/4/4 3/1/1
f 5/5/5 6/6/6 4/4/4
f 7/7/7 6/6/6 5/5/5
f 7/7/7 8/8/8 6/6/6
f 9/9/9 8/8/8 7/7/7
f 9/9/9 10/10/10 8/8/8
f 11/11/11 10/10/10 9/9/9
f 11/11/11 12/12/12 10/10/10
f 13/13/13 12/12/12 11/11/11
f 13/13/13 14/14/14 12/12/12
f 15/15/15 14/14/14 13/13/13
f 15/15/15 16/16/16 14/14/14
f 17/17/17 16/16/16 15/15/15
f 17/17/17 18/18/18 16/16/16
f 19/19/19 18/18/18 17/17/17
f 19/19/19 20/20/20 18/18/18
f 21/21/21 20/20/20 19/19/19
f 21/21/21 22/22/22 20/20/20
f 23/23/23 22/22/22 21/21/21
f 23/23/23 24/24/24 22/22/22
f 25/25/25 24/24/24 23/23/23
f 25/25/25 26/26/26 24/24/24
f 27/27/27 26/26/26 25/25/25
f 27/27/27 28/28/28 26/26/26
f 29/29/29 28/28/28 27/27/27
f 29/29/29 30/30/30 28/28/28
f 31/31/31 30/30/30 29/29/29
f 31/31/31 32/32/32 30/30/30
f 33/33/33 32/32/32 31/31/31
f 33/33/33 34/34/34 32/32/32
f 35/35/35 34/34/34 33/33/33
f 35/35/35 36/36/36 34/34/34
f 37/37/37 36/36/36 35/35/35
f 37/37/37 38/38/38 36/36/36
f 39/39/39 38/38/38 37/37/37
f 39/39/39 40/40/40 38/38/38
f 41/41/41 40/40/40 39/39/39
f 41/41/41 42/42/42 40/40/40
f 43/43/43 42/42/42 41/41/41
f 43/43/43 44/44/44 42/42/42
f 45/45/45 44/44/44 43/43/43
f 45/45/45 46/46/46 44/44/44
f 47/47/47 46/46/46 45/45/45
f 47/47/47 48/48/48 46/46/46
f 49/49/49 48/48/48 47/47/47
f 49/49/49 50/50/50 48/48/48
f 51/51/51 50/50/50 49/49/49
f 51/51/51 52/52/52 50/50/50
f 53/53/53 52/52/52 51/51/51
f 53/53/53 54/54/54 52/52/52
f 55/55/55 54/54/54 53/53/53
f 55/55/55 56/56/56 54/54/54
f 57/57/57 56/56/56 55/55/55
f 57/57/57 58/58/58 56/56/56
f 59/59/59 58/58/58 57/57/57
f 59/59/59 60/60/60 58/58/58
f 61/61/61 60/60/60 59/59/59
f 61/61/61 62/62/62 60/60/60
f 63/63/63 62/62/62 61/61/61
f 63/63/63 64/64/64 62/62/62
f 65/65/65 64/64/64 63/63/63
f 65/65/65 66/66/66 64/64/64
f 67/67/67 66/66/66 65/65/65
f 67/67/67 68/68/68 66/66/66
f 69/69/69 68/68/68 67/67/67
f 69/69/69 70/70/70 68/68/68
f 71/71/71 70/70/70 69/69/69
f 73/72/72 22/22/22 72/73/73
f 73/72/72 20/20/20 22/22/22
f 74/74/74 20/20/20 73/72/72
f 74/74/74 18/18/18 20/20/20
f 75/75/75 18/18/18 74/74/74
f 75/75/75 16/16/16 18/18/18
f 76/76/76 16/16/16 75/75/75
f 76/76/76 14/14/14 16/16/16
f 77/77/77 14/14/14 76/76/76
f 77/77/77 12/12/12 14/14/14
f 78/78/78 12/12/12 77/77/77
f 78/78/78 10/10/10 12/12/12
f 79/79/79 10/10/10 78/78/78
f 79/79/79 8/8/8 10/10/10
f 80/80/80 8/8/8 79/79/79
f 80/80/80 6/6/6 8/8/8
f 81/81/81 6/6/6 80/80/80
f 81/81/81 4/4/4 6/6/6
f 82/82/82 4/4/4 81/81/81
f 82/82/82 2/2/2 4/4/4
f 83/83/83 2/2/2 82/82/82
f 83/83/83 84/84/84 2/2/2
f 85/85/85 84/84/84 83/83/83
f 85/85/85 86/86/86 84/84/84
f 87/87/87 86/86/86 85/85/85
f 87/87/87 88/88/88 86/86/86
f 89/89/89 88/88/88 87/87/87
f 89/89/89 90/90/90 88/88/88
f 91/91/91 90/90/90 89/89/89
f 91/91/91 92/92/92 90/90/90
f 95/93/93 94/94/94 93/95/95
f 95/93/93 96/96/96 94/94/94
f 97/97/97 96/96/96 95/93/93
f 97/97/97 98/98/98 96/96/96
f 99/99/99 98/98/98 97/97/97
f 99/99/99 100/100/100 98/98/98
f 101/101/101 100/100/100 99/99/99
f 101/101/101 102/102/102 100/100/100
f 103/103/103 102/102/102 101/101/101
f 103/103/103 104/104/104 102/102/102
f 105/105/105 104/104/104 103/103/103
f 105/105/105 106/106/106 104/104/104
f 107/107/107 106/106/106 105/105/105
f 107/107/107 108/108/108 106/106/106
f 109/109/109 108/108/108 107/107/107
f 109/109/109 110/110/110 108/108/108
f 111/111/111 110/110/110 109/109/109
f 111/111/111 112/112/112 110/110/110
f 113/113/113 112/112/112 111/111/111
f 113/113/113 114/114/114 112/112/112
f 115/115/115 114/114/114 113/113/113
f 115/115/115 116/116/116 114/114/114
f 93/95/95 116/116/116 115/115/115
f 93/95/95 94/94/94 116/116/116
f 119/117/117 118/118/118 117/119/119
f 119/117/117 120/120/120 118/118/118
f 121/121/121 120/120/120 119/117/117
f 121/121/121 122/122/122 120/120/120
f 123/123/123 122/122/122 121/121/121
f 123/123/123 124/124/124 122/122/122
f 125/125/125 124/124/124 123/123/123
f 125/125/125 126/126/126 124/124/124
f 127/127/127 126/126/126 125/125/125
f 127/127/127 128/128/128 126/126/126
f 129/129/129 128/128/128 127/127/127
f 129/129/129 130/130/130 128/128/128
f 131/131/131 130/130/130 129/129/129
f 131/131/131 132/132/132 130/130/130
f 133/133/133 132/132/132 131/131/131
f 133/133/133 134/134/134 132/132/132
f 135/135/135 134/134/134 133/133/133
f 135/135/135 136/136/136 134/134/134
f 137/137/137 136/136/136 135/135/135
f 137/137/137 138/138/138 136/136/136
f 139/139/139 138/138/138 137/137/137
f 139/139/139 140/140/140 138/138/138
f 141/141/141 38/38/38 40/40/40
f 141/141/141 36/36/36 38/38/38
f 142/142/142 36/36/36 141/141/141
f 142/142/142 34/34/34 36/36/36
f 143/143/143 34/34/34 142/142/142
f 143/143/143 32/32/32 34/34/34
f 144/144/144 32/32/32 143/143/143
f 144/144/144 30/30/30 32/32/32
f 145/145/145 30/30/30 144/144/144
f 145/145/145 28/28/28 30/30/30
f 146/146/146 28/28/28 145/145/145
f 146/146/146 26/26/26 28/28/28
f 147/147/147 26/26/26 146/146/146
f 147/147/147 24/24/24 26/26/26
f 72/73/73 24/24/24 147/147/147
f 72/73/73 22/22/22 24/24/24
f 15/15/15 148/148/148 17/17/17
f 15/15/15 149/149/149 148/148/148
f 13/13/13 149/149/149 15/15/15
f 13/13/13 150/150/150 149/149/149
f 11/11/11 150/150/150 13/13/13
f 11/11/11 151/151/151 150/150/150
f 9/9/9 151/151/151 11/11/11
f 9/9/9 152/152/152 151/151/151
f 7/7/7 152/152/152 9/9/9
f 7/7/7 153/153/153 152/152/152
f 5/5/5 153/153/153 7/7/7
f 5/5/5 154/154/154 153/153/153
f 3/1/1 154/154/154 5/5/5
f 3/1/1 155/155/155 154/154/154
f 31/31/31 156/156/156 33/33/33
f 31/31/31 157/157/157 156/156/156
f 29/29/29 157/157/157 31/31/31
f 29/29/29 158/158/158 157/157/157
f 27/27/27 158/158/158 29/29/29
f 27/27/27 159/159/159 158/158/158
f 25/25/25 159/159/159 27/27/27
f 25/25/25 160/160/160 159/159/159
f 23/23/23 160/160/160 25/25/25
f 23/23/23 161/161/161 160/160/160
f 21/21/21 161/161/161 23/23/23
f 21/21/21 162/162/162 161/161/161
f 19/19/19 162/162/162 21/21/21
f 19/19/19 163/163/163 162/162/162
f 93/95/95 117/119/119 164/164/164
f 93/95/95 119/117/117 117/119/119
f 115/115/115 119/117/117 93/95/95
f 115/115/115 121/121/121 119/117/117
f 165/165/165 121/121/121 115/115/115
f 165/165/165 123/123/123 121/121/121
f 166/166/166 123/123/123 165/165/165
f 166/166/166 125/125/125 123/123/123
f 167/167/167 125/125/125 166/166/166
f 167/167/167 127/127/127 125/125/125
f 168/168/168 127/127/127 167/167/167
f 168/168/168 169/169/169 127/127/127
f 171/170/170 131/131/131 170/171/171
f 171/170/170 133/133/133 131/131/131
f 172/172/172 133/133/133 171/170/170
f 172/172/172 135/135/135 133/133/133
f 173/173/173 135/135/135 172/172/172
f 173/173/173 137/137/137 135/135/135
f 164/164/164 137/137/137 173/173/173
f 164/164/164 139/139/139 137/137/137
f 117/119/119 139/139/139 164/164/164
f 117/119/119 140/140/140 139/139/139
f 118/118/118 140/140/140 117/119/119
f 90/90/90 155/155/155 88/88/88
f 90/90/90 71/71/71 155/155/155
f 92/92/92 71/71/71 90/90/90
f 92/92/92 70/70/70 71/71/71
f 174/174/174 37/37/37 35/35/35
f 174/174/174 39/39/39 37/37/37
f 175/175/175 39/39/39 174/174/174
f 176/176/176 85/85/85 83/83/83
f 176/176/176 89/89/89 85/85/85
f 91/91/91 89/89/89 176/176/176
f 1/3/3 86/86/86 88/88/88
f 1/3/3 84/84/84 86/86/86
f 2/2/2 84/84/84 1/3/3
f 129/129/129 170/171/171 131/131/131
f 129/129/129 169/169/169 170/171/171
f 127/127/127 169/169/169 129/129/129
f 179/177/177 178/178/178 177/179/179
f 179/177/177 180/180/177 178/178/178
f 181/181/180 180/180/177 179/177/177
f 179/177/177 183/182/181 182/183/182
f 179/177/177 184/184/183 183/182/181
f 177/179/179 184/184/183 179/177/177
f 41/41/41 175/175/175 156/156/156
f 41/41/41 39/39/39 175/175/175
f 43/43/43 156/156/156 157/157/157
f 43/43/43 41/41/41 156/156/156
f 45/45/45 157/157/157 158/158/158
f 45/45/45 43/43/43 157/157/157
f 47/47/47 158/158/158 159/159/159
f 47/47/47 45/45/45 158/158/158
f 49/49/49 159/159/159 160/160/160
f 49/49/49 47/47/47 159/159/159
f 51/51/51 160/160/160 161/161/161
f 51/51/51 49/49/49 160/160/160
f 53/53/53 161/161/161 162/162/162
f 53/53/53 51/51/51 161/161/161
f 55/55/55 162/162/162 163/163/163
f 55/55/55 53/53/53 162/162/162
f 57/57/57 163/163/163 148/148/148
f 57/57/57 55/55/55 163/163/163
f 59/59/59 148/148/148 149/149/149
f 59/59/59 57/57/57 148/148/148
f 61/61/61 149/149/149 150/150/150
f 61/61/61 59/59/59 149/149/149
f 63/63/63 150/150/150 151/151/151
f 63/63/63 61/61/61 150/150/150
f 65/65/65 151/151/151 152/152/152
f 65/65/65 63/63/63 151/151/151
f 67/67/67 152/152/152 153/153/153
f 67/67/67 65/65/65 152/152/152
f 69/69/69 153/153/153 154/154/154
f 69/69/69 67/67/67 153/153/153
f 71/71/71 154/154/154 155/155/155
f 71/71/71 69/69/69 154/154/154
f 179/177/177 185/185/184 181/181/180
f 179/177/177 186/186/177 185/185/184
f 188/187/185 179/177/177 187/188/186
f 188/187/185 186/186/177 179/177/177
f 189/189/187 179/177/177 182/183/182
f 189/189/187 187/188/186 179/177/177
f 192/190/188 191/191/188 190/192/188
f 192/190/188 193/193/189 191/191/188
f 196/194/190 195/195/190 194/196/191
f 196/194/190 197/197/190 195/195/190
f 87/87/87 85/85/85 89/89/89
f 35/35/35 175/175/175 174/174/174
