# Blender v3.0.0 OBJ File: ''
# www.blender.org
mtllib dreamer_frosting.mtl
o meshes_0-0_Mesh.016
v -23.348467 8.351429 -30.430317
v -14.677835 8.351430 -35.436321
v -21.013620 21.005253 -36.394997
v -10.877911 21.005253 -40.596951
v -5.006003 8.351430 -38.026299
v 0.000000 21.005255 -42.027237
v 5.006003 8.351430 -38.026299
v 10.877911 21.005253 -40.596951
v 14.677835 8.351430 -35.436321
v 21.013620 21.005253 -36.394997
v 23.348467 8.351429 -30.430317
v 29.719038 21.005253 -29.719034
v 30.430319 8.351428 -23.348465
v 36.395000 21.005251 -21.013617
v 35.436321 8.351427 -14.677835
v 40.596951 21.005249 -10.877907
v 38.026299 8.351425 -5.006002
v 42.027241 21.005247 0.000003
v 38.026299 8.351423 5.006005
v 40.596951 21.005245 10.877914
v 35.436321 8.351421 14.677836
v 36.395000 21.005243 21.013624
v 30.430319 8.351420 23.348469
v 29.719038 21.005241 29.719042
v 23.348467 8.351419 30.430321
v 21.013620 21.005241 36.395004
v 14.677835 8.351418 35.436321
v 10.877911 21.005241 40.596954
v 5.006003 8.351418 38.026299
v 0.000000 21.005239 42.027245
v -5.006003 8.351418 38.026299
v -10.877911 21.005241 40.596954
v -14.677835 8.351418 35.436321
v -21.013620 21.005241 36.395004
v -23.348467 8.351419 30.430321
v -29.719038 21.005241 29.719042
v -30.430319 8.351420 23.348469
v -36.395000 21.005243 21.013624
v -35.436321 8.351421 14.677836
v -40.596951 21.005245 10.877914
v -38.026299 8.351423 5.006005
v -42.027241 21.005247 0.000003
v -38.026299 8.351425 -5.006002
v -40.596951 21.005249 -10.877907
v -35.436321 8.351427 -14.677835
v -36.395000 21.005251 -21.013617
v -30.430319 8.351428 -23.348465
v -29.719038 21.005253 -29.719034
v 53.633671 28.290255 7.060317
v 49.979996 28.290253 20.698832
v 42.915699 28.290251 32.930862
v 32.930859 28.290249 42.915703
v 20.698828 28.290249 49.980000
v 7.060312 28.290247 53.633675
v -7.060312 28.290247 53.633675
v -20.698828 28.290249 49.980000
v -32.930859 28.290249 42.915703
v -42.915699 28.290251 32.930862
v -49.979996 28.290253 20.698832
v -53.633671 28.290255 7.060317
v -53.633671 28.290258 -7.060308
v -49.979996 28.290260 -20.698824
v -42.915699 28.290262 -32.930855
v -32.930859 28.290264 -42.915695
v -20.698828 28.290264 -49.979992
v -7.060312 28.290266 -53.633667
v 7.060312 28.290266 -53.633667
v 20.698828 28.290264 -49.979992
v 32.930859 28.290264 -42.915695
v 42.915699 28.290262 -32.930855
v 49.979996 28.290260 -20.698824
v 53.633671 28.290258 -7.060308
v -48.513748 32.688732 -48.513744
v -34.484764 32.688736 -59.733742
v -17.758358 32.688736 -66.272095
v 0.000000 32.688736 -68.973503
v 17.758358 32.688736 -66.272095
v 34.484764 32.688736 -59.733742
v 48.513748 32.688732 -48.513744
v 59.733746 32.688728 -34.484760
v 66.272102 32.688728 -17.758352
v 68.973511 32.688725 0.000005
v 66.272102 32.688721 17.758364
v 59.733746 32.688721 34.484768
v 48.513748 32.688717 48.513752
v 34.484764 32.688713 59.733749
v 17.758358 32.688713 66.272110
v 0.000000 32.688713 68.973518
v -17.758358 32.688713 66.272110
v -34.484764 32.688713 59.733749
v -48.513748 32.688717 48.513752
v -59.733746 32.688721 34.484768
v -66.272102 32.688721 17.758364
v -68.973511 32.688725 0.000005
v -66.272102 32.688728 -17.758352
v -59.733746 32.688728 -34.484760
v -77.659447 28.604153 -32.165855
v -67.017181 28.604155 -51.422337
v -51.171326 28.604158 -66.686470
v -32.325233 28.604160 -78.041939
v -10.968984 28.604160 -83.341156
v 11.024765 28.604160 -83.747566
v 32.165859 28.604160 -77.659439
v 51.422340 28.604158 -67.013191
v 66.686478 28.604155 -51.171322
v 78.041946 28.604153 -32.325230
v 83.341164 28.604149 -10.968979
v 83.747574 28.604145 11.024770
v 77.659447 28.604141 32.165863
v 67.017181 28.604139 51.422344
v 51.171326 28.604136 66.686485
v 32.325233 28.604134 78.041954
v 10.968984 28.604134 83.341171
v -11.024765 28.604134 83.747581
v -32.165859 28.604134 77.659454
v -51.422340 28.604136 67.017189
v -66.686478 28.604139 51.171329
v -78.041946 28.604141 32.325237
v -83.341164 28.604145 10.968988
v -83.747574 28.604149 -11.024760
v 82.783356 21.461151 47.792580
v 67.590935 21.461147 67.590935
v 47.792576 21.461145 82.783356
v 24.738983 21.461143 92.333900
v 0.000000 21.461143 95.589134
v -24.738983 21.461143 92.333900
v -47.792576 21.461145 82.783356
v -67.590935 21.461147 67.590935
v -82.783356 21.461151 47.792580
v -92.333900 21.461155 24.738987
v -95.589134 21.461159 0.000003
v -92.333900 21.461163 -24.738979
v -82.783356 21.461166 -47.792572
v -67.590935 21.461170 -67.590935
v -47.792576 21.461172 -82.783356
v -24.738983 21.461174 -92.333900
v 0.000000 21.461174 -95.589134
v 24.738983 21.461174 -92.333900
v 47.792576 21.461172 -82.783356
v 67.590935 21.461170 -67.590935
v 82.783356 21.461166 -47.792572
v 92.333900 21.461163 -24.738979
v 95.589134 21.461159 0.000003
v 92.333900 21.461155 24.738987
v 80.572029 8.149053 -61.825542
v 61.825542 8.149055 -80.572029
v 38.863590 8.149057 -93.828041
v 13.256015 8.149058 -100.693123
v -13.256015 8.149058 -100.693123
v -38.863590 8.149057 -93.828041
v -61.825542 8.149055 -80.572029
v -80.572029 8.149053 -61.825542
v -93.828041 8.149049 -38.863590
v -100.693123 8.149044 -13.256014
v -100.693123 8.149040 13.256016
v -93.828041 8.149035 38.863590
v -80.572029 8.149032 61.825542
v -61.825542 8.149029 80.572029
v -38.863590 8.149027 93.828041
v -13.256015 8.149026 100.693123
v 13.256015 8.149026 100.693123
v 38.863590 8.149027 93.828041
v 61.825542 8.149029 80.572029
v 80.572029 8.149032 61.825542
v 93.828041 8.149035 38.863590
v 100.693123 8.149040 13.256016
v 100.693123 8.149044 -13.256014
v 93.828041 8.149049 -38.863590
vt 0.804932 0.265137
vt 0.880859 0.308838
vt 0.770996 0.411377
vt 0.885742 0.458984
vt 0.965332 0.331543
vt 0.999000 0.475098
vt 0.965332 0.331543
vt 0.885986 0.458984
vt 0.880859 0.308838
vt 0.771240 0.411377
vt 0.805176 0.265137
vt 0.672607 0.335693
vt 0.743408 0.203125
vt 0.597168 0.237305
vt 0.699707 0.127441
vt 0.549561 0.122314
vt 0.677002 0.042969
vt 0.533447 0.001000
vt 0.677002 0.042969
vt 0.549561 0.122314
vt 0.699707 0.127441
vt 0.597168 0.237061
vt 0.743408 0.203125
vt 0.672607 0.335693
vt 0.805176 0.265137
vt 0.771240 0.411377
vt 0.880859 0.308838
vt 0.885986 0.458740
vt 0.965332 0.331299
vt 0.999000 0.475098
vt 0.965332 0.331299
vt 0.885742 0.458740
vt 0.880859 0.308838
vt 0.770996 0.411377
vt 0.804932 0.265137
vt 0.672607 0.335693
vt 0.743164 0.203125
vt 0.596924 0.237061
vt 0.699463 0.127441
vt 0.549316 0.122314
vt 0.676758 0.042969
vt 0.533203 0.001000
vt 0.676758 0.042969
vt 0.549316 0.122314
vt 0.699463 0.127441
vt 0.596924 0.237305
vt 0.743164 0.203125
vt 0.672607 0.335693
vt 0.386963 0.081055
vt 0.429199 0.239502
vt 0.511230 0.381348
vt 0.626953 0.497070
vt 0.769043 0.579102
vt 0.927246 0.621582
vt 0.927002 0.621582
vt 0.768799 0.579102
vt 0.626953 0.497070
vt 0.510986 0.381348
vt 0.429199 0.239502
vt 0.386719 0.081055
vt 0.386719 0.081299
vt 0.429199 0.239502
vt 0.510986 0.381348
vt 0.626953 0.497314
vt 0.768799 0.579102
vt 0.927002 0.621582
vt 0.927246 0.621582
vt 0.769043 0.579102
vt 0.626953 0.497314
vt 0.511230 0.381348
vt 0.429199 0.239502
vt 0.386963 0.081299
vt 0.469727 0.538574
vt 0.625732 0.663330
vt 0.811523 0.735840
vt 0.999000 0.765869
vt 0.811768 0.735840
vt 0.625732 0.663330
vt 0.469971 0.538574
vt 0.345215 0.382568
vt 0.272461 0.196777
vt 0.242432 0.001000
vt 0.272461 0.196533
vt 0.345215 0.382568
vt 0.469971 0.538574
vt 0.625732 0.663086
vt 0.811768 0.735840
vt 0.999000 0.765869
vt 0.811523 0.735840
vt 0.625732 0.663086
vt 0.469727 0.538574
vt 0.344971 0.382568
vt 0.272217 0.196533
vt 0.242188 0.001000
vt 0.272217 0.196777
vt 0.344971 0.382568
vt 0.226562 0.323242
vt 0.333740 0.517334
vt 0.493408 0.671143
vt 0.683350 0.785400
vt 0.898438 0.838867
vt 0.897949 0.843018
vt 0.685059 0.781738
vt 0.490967 0.674316
vt 0.337402 0.514893
vt 0.222900 0.324951
vt 0.169434 0.109863
vt 0.165527 0.110352
vt 0.226807 0.323242
vt 0.333984 0.517334
vt 0.493652 0.671143
vt 0.683350 0.785400
vt 0.898682 0.838867
vt 0.897949 0.843018
vt 0.684814 0.781494
vt 0.490967 0.674316
vt 0.337158 0.514648
vt 0.222656 0.324951
vt 0.169434 0.109863
vt 0.165283 0.110352
vt 0.197998 0.467529
vt 0.346924 0.661377
vt 0.527588 0.833252
vt 0.766846 0.903809
vt 0.999000 0.935791
vt 0.766602 0.903809
vt 0.540771 0.810303
vt 0.346680 0.661377
vt 0.197998 0.467529
vt 0.104248 0.241699
vt 0.072510 0.001000
vt 0.104248 0.241699
vt 0.197998 0.467529
vt 0.346680 0.661621
vt 0.540771 0.810303
vt 0.766602 0.903809
vt 0.999000 0.935791
vt 0.766846 0.903809
vt 0.540771 0.810303
vt 0.346924 0.661621
vt 0.197998 0.467529
vt 0.104492 0.241699
vt 0.072510 0.001000
vt 0.104492 0.241699
vt 0.208984 0.613281
vt 0.395020 0.799561
vt 0.623047 0.931152
vt 0.877441 0.999268
vt 0.877197 0.999268
vt 0.623047 0.931152
vt 0.395020 0.799561
vt 0.208740 0.613281
vt 0.077148 0.385254
vt 0.009033 0.130859
vt 0.009033 0.130859
vt 0.077148 0.385254
vt 0.208740 0.613281
vt 0.395020 0.799561
vt 0.623047 0.931152
vt 0.877197 0.999268
vt 0.877441 0.999268
vt 0.623047 0.931152
vt 0.395020 0.799561
vt 0.208984 0.613281
vt 0.077148 0.385254
vt 0.009033 0.130859
vt 0.009033 0.130859
vt 0.077148 0.385254
vn 0.5832 0.2869 0.7600
vn 0.3666 0.2869 0.8850
vn 0.3963 0.6097 0.6864
vn 0.2052 0.6098 0.7656
vn 0.1250 0.2870 0.9498
vn 0.0000 0.6098 0.7926
vn -0.1250 0.2870 0.9498
vn -0.2051 0.6098 0.7656
vn -0.3666 0.2869 0.8850
vn -0.3963 0.6097 0.6864
vn -0.5832 0.2869 0.7600
vn -0.5604 0.6098 0.5605
vn -0.7600 0.2869 0.5832
vn -0.6864 0.6097 0.3963
vn -0.8850 0.2869 0.3666
vn -0.7656 0.6098 0.2052
vn -0.9498 0.2870 0.1250
vn -0.7926 0.6098 0.0000
vn -0.9498 0.2870 -0.1250
vn -0.7656 0.6098 -0.2051
vn -0.8850 0.2869 -0.3666
vn -0.6864 0.6097 -0.3963
vn -0.7600 0.2869 -0.5832
vn -0.5605 0.6098 -0.5604
vn -0.5832 0.2869 -0.7600
vn -0.3963 0.6097 -0.6864
vn -0.3666 0.2869 -0.8850
vn -0.2052 0.6098 -0.7656
vn -0.1250 0.2870 -0.9498
vn -0.0000 0.6098 -0.7926
vn 0.1250 0.2870 -0.9498
vn 0.2051 0.6098 -0.7656
vn 0.3666 0.2869 -0.8850
vn 0.3963 0.6097 -0.6864
vn 0.5832 0.2869 -0.7600
vn 0.5604 0.6098 -0.5605
vn 0.7600 0.2869 -0.5832
vn 0.6864 0.6097 -0.3963
vn 0.8850 0.2869 -0.3666
vn 0.7656 0.6098 -0.2052
vn 0.9498 0.2870 -0.1250
vn 0.7926 0.6098 -0.0000
vn 0.9498 0.2870 0.1250
vn 0.7656 0.6098 0.2051
vn 0.8850 0.2869 0.3666
vn 0.6864 0.6097 0.3963
vn 0.7600 0.2869 0.5832
vn 0.5605 0.6098 0.5604
vn -0.4034 0.9134 -0.0538
vn -0.3764 0.9135 -0.1546
vn -0.3221 0.9135 -0.2486
vn -0.2486 0.9135 -0.3221
vn -0.1547 0.9135 -0.3764
vn -0.0542 0.9134 -0.4033
vn 0.0542 0.9134 -0.4033
vn 0.1546 0.9135 -0.3764
vn 0.2486 0.9135 -0.3221
vn 0.3221 0.9135 -0.2486
vn 0.3764 0.9135 -0.1547
vn 0.4033 0.9134 -0.0542
vn 0.4033 0.9134 0.0542
vn 0.3764 0.9135 0.1546
vn 0.3221 0.9135 0.2486
vn 0.2486 0.9135 0.3221
vn 0.1547 0.9135 0.3764
vn 0.0542 0.9134 0.4033
vn -0.0542 0.9134 0.4033
vn -0.1546 0.9135 0.3764
vn -0.2486 0.9135 0.3221
vn -0.3221 0.9135 0.2486
vn -0.3764 0.9135 0.1547
vn -0.4033 0.9134 0.0542
vn 0.0152 0.9998 0.0139
vn 0.0083 0.9998 0.0164
vn 0.0062 0.9998 0.0197
vn -0.0010 0.9998 0.0183
vn -0.0044 0.9998 0.0202
vn -0.0100 0.9998 0.0154
vn -0.0139 0.9998 0.0152
vn -0.0164 0.9998 0.0083
vn -0.0197 0.9998 0.0062
vn -0.0183 0.9998 -0.0010
vn -0.0202 0.9998 -0.0044
vn -0.0154 0.9998 -0.0100
vn -0.0152 0.9998 -0.0139
vn -0.0083 0.9998 -0.0164
vn -0.0062 0.9998 -0.0197
vn 0.0010 0.9998 -0.0183
vn 0.0044 0.9998 -0.0202
vn 0.0100 0.9998 -0.0154
vn 0.0139 0.9998 -0.0152
vn 0.0164 0.9998 -0.0083
vn 0.0197 0.9998 -0.0062
vn 0.0183 0.9998 0.0010
vn 0.0202 0.9998 0.0044
vn 0.0154 0.9998 0.0100
vn -0.3661 0.9183 -0.1508
vn -0.3144 0.9179 -0.2420
vn -0.2416 0.9183 -0.3137
vn -0.1512 0.9179 -0.3668
vn -0.0524 0.9183 -0.3925
vn 0.0524 0.9179 -0.3933
vn 0.1508 0.9183 -0.3661
vn 0.2420 0.9179 -0.3144
vn 0.3137 0.9183 -0.2416
vn 0.3668 0.9179 -0.1512
vn 0.3925 0.9183 -0.0524
vn 0.3933 0.9179 0.0524
vn 0.3661 0.9183 0.1508
vn 0.3144 0.9179 0.2420
vn 0.2416 0.9183 0.3137
vn 0.1512 0.9179 0.3668
vn 0.0524 0.9183 0.3925
vn -0.0524 0.9179 0.3933
vn -0.1508 0.9183 0.3661
vn -0.2420 0.9179 0.3144
vn -0.3137 0.9183 0.2416
vn -0.3668 0.9179 0.1512
vn -0.3925 0.9183 0.0524
vn -0.3933 0.9179 -0.0524
vn 0.6526 0.6583 0.3753
vn 0.5314 0.6582 0.5332
vn 0.3775 0.6583 0.6513
vn 0.1935 0.6582 0.7275
vn 0.0013 0.6582 0.7528
vn -0.1961 0.6582 0.7268
vn -0.3753 0.6583 0.6526
vn -0.5332 0.6582 0.5314
vn -0.6513 0.6582 0.3775
vn -0.7275 0.6582 0.1935
vn -0.7528 0.6582 0.0013
vn -0.7268 0.6582 -0.1961
vn -0.6526 0.6583 -0.3753
vn -0.5314 0.6582 -0.5332
vn -0.3775 0.6583 -0.6513
vn -0.1935 0.6582 -0.7275
vn -0.0013 0.6582 -0.7528
vn 0.1961 0.6582 -0.7268
vn 0.3753 0.6582 -0.6526
vn 0.5332 0.6583 -0.5314
vn 0.6513 0.6582 -0.3775
vn 0.7275 0.6582 -0.1935
vn 0.7528 0.6582 -0.0013
vn 0.7268 0.6582 0.1961
vn 0.7299 0.3921 -0.5600
vn 0.5600 0.3921 -0.7299
vn 0.3520 0.3921 -0.8499
vn 0.1200 0.3921 -0.9121
vn -0.1200 0.3921 -0.9121
vn -0.3520 0.3921 -0.8499
vn -0.5600 0.3921 -0.7299
vn -0.7299 0.3921 -0.5600
vn -0.8499 0.3921 -0.3520
vn -0.9121 0.3921 -0.1200
vn -0.9121 0.3921 0.1200
vn -0.8499 0.3921 0.3520
vn -0.7299 0.3921 0.5600
vn -0.5600 0.3921 0.7299
vn -0.3520 0.3921 0.8499
vn -0.1200 0.3921 0.9121
vn 0.1200 0.3921 0.9121
vn 0.3520 0.3921 0.8499
vn 0.5600 0.3921 0.7299
vn 0.7299 0.3921 0.5600
vn 0.8499 0.3921 0.3520
vn 0.9121 0.3921 0.1200
vn 0.9121 0.3921 -0.1200
vn 0.8499 0.3921 -0.3520
usemtl Material.020
s 1
f 1/1/1 2/2/2 3/3/3
f 2/2/2 4/4/4 3/3/3
f 2/2/2 5/5/5 4/4/4
f 5/5/5 6/6/6 4/4/4
f 5/5/5 7/7/7 6/6/6
f 7/7/7 8/8/8 6/6/6
f 7/7/7 9/9/9 8/8/8
f 9/9/9 10/10/10 8/8/8
f 9/9/9 11/11/11 10/10/10
f 11/11/11 12/12/12 10/10/10
f 11/11/11 13/13/13 12/12/12
f 13/13/13 14/14/14 12/12/12
f 13/13/13 15/15/15 14/14/14
f 15/15/15 16/16/16 14/14/14
f 15/15/15 17/17/17 16/16/16
f 17/17/17 18/18/18 16/16/16
f 17/17/17 19/19/19 18/18/18
f 19/19/19 20/20/20 18/18/18
f 19/19/19 21/21/21 20/20/20
f 21/21/21 22/22/22 20/20/20
f 21/21/21 23/23/23 22/22/22
f 23/23/23 24/24/24 22/22/22
f 23/23/23 25/25/25 24/24/24
f 25/25/25 26/26/26 24/24/24
f 25/25/25 27/27/27 26/26/26
f 27/27/27 28/28/28 26/26/26
f 27/27/27 29/29/29 28/28/28
f 29/29/29 30/30/30 28/28/28
f 29/29/29 31/31/31 30/30/30
f 31/31/31 32/32/32 30/30/30
f 31/31/31 33/33/33 32/32/32
f 33/33/33 34/34/34 32/32/32
f 33/33/33 35/35/35 34/34/34
f 35/35/35 36/36/36 34/34/34
f 35/35/35 37/37/37 36/36/36
f 37/37/37 38/38/38 36/36/36
f 37/37/37 39/39/39 38/38/38
f 39/39/39 40/40/40 38/38/38
f 39/39/39 41/41/41 40/40/40
f 41/41/41 42/42/42 40/40/40
f 41/41/41 43/43/43 42/42/42
f 43/43/43 44/44/44 42/42/42
f 43/43/43 45/45/45 44/44/44
f 45/45/45 46/46/46 44/44/44
f 45/45/45 47/47/47 46/46/46
f 47/47/47 48/48/48 46/46/46
f 47/47/47 1/1/1 48/48/48
f 1/1/1 3/3/3 48/48/48
f 18/18/18 20/20/20 49/49/49
f 20/20/20 50/50/50 49/49/49
f 20/20/20 22/22/22 50/50/50
f 22/22/22 51/51/51 50/50/50
f 22/22/22 24/24/24 51/51/51
f 24/24/24 52/52/52 51/51/51
f 24/24/24 26/26/26 52/52/52
f 26/26/26 53/53/53 52/52/52
f 26/26/26 28/28/28 53/53/53
f 28/28/28 54/54/54 53/53/53
f 28/28/28 30/30/30 54/54/54
f 30/30/30 55/55/55 54/54/54
f 30/30/30 32/32/32 55/55/55
f 32/32/32 56/56/56 55/55/55
f 32/32/32 34/34/34 56/56/56
f 34/34/34 57/57/57 56/56/56
f 34/34/34 36/36/36 57/57/57
f 36/36/36 58/58/58 57/57/57
f 36/36/36 38/38/38 58/58/58
f 38/38/38 59/59/59 58/58/58
f 38/38/38 40/40/40 59/59/59
f 40/40/40 60/60/60 59/59/59
f 40/40/40 42/42/42 60/60/60
f 42/42/42 61/61/61 60/60/60
f 42/42/42 44/44/44 61/61/61
f 44/44/44 62/62/62 61/61/61
f 44/44/44 46/46/46 62/62/62
f 46/46/46 63/63/63 62/62/62
f 46/46/46 48/48/48 63/63/63
f 48/48/48 64/64/64 63/63/63
f 48/48/48 3/3/3 64/64/64
f 3/3/3 65/65/65 64/64/64
f 3/3/3 4/4/4 65/65/65
f 4/4/4 66/66/66 65/65/65
f 4/4/4 6/6/6 66/66/66
f 6/6/6 67/67/67 66/66/66
f 6/6/6 8/8/8 67/67/67
f 8/8/8 68/68/68 67/67/67
f 8/8/8 10/10/10 68/68/68
f 10/10/10 69/69/69 68/68/68
f 10/10/10 12/12/12 69/69/69
f 12/12/12 70/70/70 69/69/69
f 12/12/12 14/14/14 70/70/70
f 14/14/14 71/71/71 70/70/70
f 14/14/14 16/16/16 71/71/71
f 16/16/16 72/72/72 71/71/71
f 16/16/16 18/18/18 72/72/72
f 18/18/18 49/49/49 72/72/72
f 63/63/63 64/64/64 73/73/73
f 64/64/64 74/74/74 73/73/73
f 64/64/64 65/65/65 74/74/74
f 65/65/65 75/75/75 74/74/74
f 65/65/65 66/66/66 75/75/75
f 66/66/66 76/76/76 75/75/75
f 66/66/66 67/67/67 76/76/76
f 67/67/67 77/77/77 76/76/76
f 67/67/67 68/68/68 77/77/77
f 68/68/68 78/78/78 77/77/77
f 68/68/68 69/69/69 78/78/78
f 69/69/69 79/79/79 78/78/78
f 69/69/69 70/70/70 79/79/79
f 70/70/70 80/80/80 79/79/79
f 70/70/70 71/71/71 80/80/80
f 71/71/71 81/81/81 80/80/80
f 71/71/71 72/72/72 81/81/81
f 72/72/72 82/82/82 81/81/81
f 72/72/72 49/49/49 82/82/82
f 49/49/49 83/83/83 82/82/82
f 49/49/49 50/50/50 83/83/83
f 50/50/50 84/84/84 83/83/83
f 50/50/50 51/51/51 84/84/84
f 51/51/51 85/85/85 84/84/84
f 51/51/51 52/52/52 85/85/85
f 52/52/52 86/86/86 85/85/85
f 52/52/52 53/53/53 86/86/86
f 53/53/53 87/87/87 86/86/86
f 53/53/53 54/54/54 87/87/87
f 54/54/54 88/88/88 87/87/87
f 54/54/54 55/55/55 88/88/88
f 55/55/55 89/89/89 88/88/88
f 55/55/55 56/56/56 89/89/89
f 56/56/56 90/90/90 89/89/89
f 56/56/56 57/57/57 90/90/90
f 57/57/57 91/91/91 90/90/90
f 57/57/57 58/58/58 91/91/91
f 58/58/58 92/92/92 91/91/91
f 58/58/58 59/59/59 92/92/92
f 59/59/59 93/93/93 92/92/92
f 59/59/59 60/60/60 93/93/93
f 60/60/60 94/94/94 93/93/93
f 60/60/60 61/61/61 94/94/94
f 61/61/61 95/95/95 94/94/94
f 61/61/61 62/62/62 95/95/95
f 62/62/62 96/96/96 95/95/95
f 62/62/62 63/63/63 96/96/96
f 63/63/63 73/73/73 96/96/96
f 95/95/95 96/96/96 97/97/97
f 96/96/96 98/98/98 97/97/97
f 96/96/96 73/73/73 98/98/98
f 73/73/73 99/99/99 98/98/98
f 73/73/73 74/74/74 99/99/99
f 74/74/74 100/100/100 99/99/99
f 74/74/74 75/75/75 100/100/100
f 75/75/75 101/101/101 100/100/100
f 75/75/75 76/76/76 101/101/101
f 76/76/76 102/102/102 101/101/101
f 76/76/76 77/77/77 102/102/102
f 77/77/77 103/103/103 102/102/102
f 77/77/77 78/78/78 103/103/103
f 78/78/78 104/104/104 103/103/103
f 78/78/78 79/79/79 104/104/104
f 79/79/79 105/105/105 104/104/104
f 79/79/79 80/80/80 105/105/105
f 80/80/80 106/106/106 105/105/105
f 80/80/80 81/81/81 106/106/106
f 81/81/81 107/107/107 106/106/106
f 81/81/81 82/82/82 107/107/107
f 82/82/82 108/108/108 107/107/107
f 82/82/82 83/83/83 108/108/108
f 83/83/83 109/109/109 108/108/108
f 83/83/83 84/84/84 109/109/109
f 84/84/84 110/110/110 109/109/109
f 84/84/84 85/85/85 110/110/110
f 85/85/85 111/111/111 110/110/110
f 85/85/85 86/86/86 111/111/111
f 86/86/86 112/112/112 111/111/111
f 86/86/86 87/87/87 112/112/112
f 87/87/87 113/113/113 112/112/112
f 87/87/87 88/88/88 113/113/113
f 88/88/88 114/114/114 113/113/113
f 88/88/88 89/89/89 114/114/114
f 89/89/89 115/115/115 114/114/114
f 89/89/89 90/90/90 115/115/115
f 90/90/90 116/116/116 115/115/115
f 90/90/90 91/91/91 116/116/116
f 91/91/91 117/117/117 116/116/116
f 91/91/91 92/92/92 117/117/117
f 92/92/92 118/118/118 117/117/117
f 92/92/92 93/93/93 118/118/118
f 93/93/93 119/119/119 118/118/118
f 93/93/93 94/94/94 119/119/119
f 94/94/94 120/120/120 119/119/119
f 94/94/94 95/95/95 120/120/120
f 95/95/95 97/97/97 120/120/120
f 109/109/109 110/110/110 121/121/121
f 110/110/110 122/122/122 121/121/121
f 110/110/110 111/111/111 122/122/122
f 111/111/111 123/123/123 122/122/122
f 111/111/111 112/112/112 123/123/123
f 112/112/112 124/124/124 123/123/123
f 112/112/112 113/113/113 124/124/124
f 113/113/113 125/125/125 124/124/124
f 113/113/113 114/114/114 125/125/125
f 114/114/114 126/126/126 125/125/125
f 114/114/114 115/115/115 126/126/126
f 115/115/115 127/127/127 126/126/126
f 115/115/115 116/116/116 127/127/127
f 116/116/116 128/128/128 127/127/127
f 116/116/116 117/117/117 128/128/128
f 117/117/117 129/129/129 128/128/128
f 117/117/117 118/118/118 129/129/129
f 118/118/118 130/130/130 129/129/129
f 118/118/118 119/119/119 130/130/130
f 119/119/119 131/131/131 130/130/130
f 119/119/119 120/120/120 131/131/131
f 120/120/120 132/132/132 131/131/131
f 120/120/120 97/97/97 132/132/132
f 97/97/97 133/133/133 132/132/132
f 97/97/97 98/98/98 133/133/133
f 98/98/98 134/134/134 133/133/133
f 98/98/98 99/99/99 134/134/134
f 99/99/99 135/135/135 134/134/134
f 99/99/99 100/100/100 135/135/135
f 100/100/100 136/136/136 135/135/135
f 100/100/100 101/101/101 136/136/136
f 101/101/101 137/137/137 136/136/136
f 101/101/101 102/102/102 137/137/137
f 102/102/102 138/138/138 137/137/137
f 102/102/102 103/103/103 138/138/138
f 103/103/103 139/139/139 138/138/138
f 103/103/103 104/104/104 139/139/139
f 104/104/104 140/140/140 139/139/139
f 104/104/104 105/105/105 140/140/140
f 105/105/105 141/141/141 140/140/140
f 105/105/105 106/106/106 141/141/141
f 106/106/106 142/142/142 141/141/141
f 106/106/106 107/107/107 142/142/142
f 107/107/107 143/143/143 142/142/142
f 107/107/107 108/108/108 143/143/143
f 108/108/108 144/144/144 143/143/143
f 108/108/108 109/109/109 144/144/144
f 109/109/109 121/121/121 144/144/144
f 145/145/145 146/146/146 140/140/140
f 146/146/146 139/139/139 140/140/140
f 146/146/146 147/147/147 139/139/139
f 147/147/147 138/138/138 139/139/139
f 147/147/147 148/148/148 138/138/138
f 148/148/148 137/137/137 138/138/138
f 148/148/148 149/149/149 137/137/137
f 149/149/149 136/136/136 137/137/137
f 149/149/149 150/150/150 136/136/136
f 150/150/150 135/135/135 136/136/136
f 150/150/150 151/151/151 135/135/135
f 151/151/151 134/134/134 135/135/135
f 151/151/151 152/152/152 134/134/134
f 152/152/152 133/133/133 134/134/134
f 152/152/152 153/153/153 133/133/133
f 153/153/153 132/132/132 133/133/133
f 153/153/153 154/154/154 132/132/132
f 154/154/154 131/131/131 132/132/132
f 154/154/154 155/155/155 131/131/131
f 155/155/155 130/130/130 131/131/131
f 155/155/155 156/156/156 130/130/130
f 156/156/156 129/129/129 130/130/130
f 156/156/156 157/157/157 129/129/129
f 157/157/157 128/128/128 129/129/129
f 157/157/157 158/158/158 128/128/128
f 158/158/158 127/127/127 128/128/128
f 158/158/158 159/159/159 127/127/127
f 159/159/159 126/126/126 127/127/127
f 159/159/159 160/160/160 126/126/126
f 160/160/160 125/125/125 126/126/126
f 160/160/160 161/161/161 125/125/125
f 161/161/161 124/124/124 125/125/125
f 161/161/161 162/162/162 124/124/124
f 162/162/162 123/123/123 124/124/124
f 162/162/162 163/163/163 123/123/123
f 163/163/163 122/122/122 123/123/123
f 163/163/163 164/164/164 122/122/122
f 164/164/164 121/121/121 122/122/122
f 164/164/164 165/165/165 121/121/121
f 165/165/165 144/144/144 121/121/121
f 165/165/165 166/166/166 144/144/144
f 166/166/166 143/143/143 144/144/144
f 166/166/166 167/167/167 143/143/143
f 167/167/167 142/142/142 143/143/143
f 167/167/167 168/168/168 142/142/142
f 168/168/168 141/141/141 142/142/142
f 168/168/168 145/145/145 141/141/141
f 145/145/145 140/140/140 141/141/141
