# Blender v3.0.0 OBJ File: ''
# www.blender.org
mtllib CPU_cap.mtl
o mesh-1_meshId1_name.002
v 8.634769 41.933601 -14.955093
v 8.390630 46.207005 -14.535192
v 2.253910 41.933601 -17.121092
v 2.220700 46.207005 -16.628893
v -4.468750 41.933601 -16.681591
v -4.279300 46.207005 -16.203093
v -10.511700 41.933601 -13.701193
v -10.123000 46.207005 -13.320292
v -14.955100 41.933598 -8.634763
v -14.419900 46.207001 -8.421872
v -17.121099 41.933598 -2.253903
v -16.513700 46.207001 -2.251942
v -16.681599 41.933598 4.468757
v -16.087900 46.207001 4.248057
v -13.701200 41.933598 10.511706
v -13.207001 46.207001 10.093807
v -8.634769 41.933594 14.955107
v -8.306640 46.206997 14.388707
v -2.253910 41.933594 17.121107
v -2.136720 46.206997 16.484407
v 4.468750 41.933594 16.681606
v 4.363280 46.206997 16.058607
v 10.511700 41.933594 13.701206
v 10.207001 46.206997 13.175807
v 14.955100 41.933598 8.634776
v 14.503900 46.207001 8.277348
v 17.121099 41.933598 2.253917
v 16.597700 46.207001 2.105478
v 16.681599 41.933598 -4.468743
v 16.171900 46.207001 -4.394522
v 13.701200 41.933598 -10.511693
v 13.289100 46.207001 -10.238292
v 8.634769 41.933601 -14.955093
v 8.390630 46.207005 -14.535192
v 7.082030 49.447304 -12.267592
v 1.818360 49.447304 -14.054692
v -3.728520 49.447304 -13.691392
v -8.714840 49.447300 -11.232392
v -12.380899 49.447300 -7.052722
v -14.168000 49.447300 -1.787102
v -13.804700 49.447300 3.759778
v -11.345699 49.447300 8.746098
v -7.166020 49.447296 12.412107
v -1.900390 49.447296 14.199207
v 3.646480 49.447296 13.835907
v 8.632810 49.447300 11.375009
v 12.298800 49.447300 7.195318
v 14.085899 49.447300 1.931648
v 13.722700 49.447300 -3.615222
v 11.263700 49.447300 -8.601552
v 7.082030 49.447304 -12.267592
v 5.154300 50.806599 -8.927721
v 1.345700 50.806599 -10.222692
v -2.667970 50.806599 -9.958971
v -6.275390 50.806599 -8.179681
v -8.927730 50.806599 -5.154292
v -10.222700 50.806599 -1.345692
v -9.958980 50.806599 2.667978
v -8.179689 50.806599 6.275398
v -5.154300 50.806599 8.927738
v -1.345700 50.806599 10.222709
v 2.667970 50.806599 9.958988
v 6.275390 50.806599 8.179698
v 8.927730 50.806599 5.154308
v 10.222700 50.806599 1.345708
v 3.738280 52.193398 2.158209
v 4.169920 52.193398 -1.117182
v 9.958980 50.806599 -2.667962
v 8.179689 50.806599 -6.275382
v 0.000000 52.386700 0.000009
v 2.158200 52.193398 -3.738271
v 5.154300 50.806599 -8.927721
v 2.158200 52.193398 -3.738271
v -1.117190 52.193398 -4.169911
v 0.000000 52.386700 0.000009
v -3.738280 52.193398 -2.158191
v -4.169920 52.193398 1.117198
v -2.158200 52.193398 3.738288
v 1.117190 52.193398 4.169929
v 10.222700 50.806599 1.345708
v 13.722700 49.447300 -3.615222
v 14.085899 49.447300 1.931648
vt -0.374878 0.313354
vt -0.499878 0.394165
vt -0.499878 0.313354
vt -0.374878 0.394165
vt -0.249878 0.313354
vt -0.249878 0.394165
vt -0.124878 0.313354
vt -0.124878 0.394165
vt 0.000000 0.313354
vt 0.000000 0.394165
vt 0.125000 0.313354
vt 0.125000 0.394165
vt 0.250000 0.313354
vt 0.250000 0.394165
vt 0.375000 0.313354
vt 0.375000 0.394165
vt 0.500000 0.313354
vt 0.500000 0.394165
vt 0.625000 0.313354
vt 0.625000 0.394165
vt 0.750000 0.313354
vt 0.750000 0.394165
vt 0.875000 0.313354
vt 0.875000 0.394165
vt 1.000000 0.313354
vt 1.000000 0.394165
vt 1.125000 0.313354
vt 1.125000 0.394165
vt 1.250000 0.313354
vt 1.250000 0.394165
vt 1.375000 0.313354
vt 1.375000 0.394165
vt 1.500000 0.313354
vt 1.500000 0.394165
vt -0.499878 0.474976
vt -0.374878 0.474976
vt -0.249878 0.474976
vt -0.124878 0.474976
vt 0.000000 0.474976
vt 0.125000 0.474976
vt 0.250000 0.474976
vt 0.375000 0.474976
vt 0.500000 0.474976
vt 0.625000 0.474976
vt 0.750000 0.474976
vt 0.875000 0.474976
vt 1.000000 0.474976
vt 1.125000 0.474976
vt 1.250000 0.474976
vt 1.375000 0.474976
vt 1.500000 0.474976
vt -0.499878 0.596191
vt -0.374878 0.596191
vt -0.249878 0.596191
vt -0.124878 0.596191
vt 0.000000 0.596191
vt 0.125000 0.596191
vt 0.250000 0.596191
vt 0.375000 0.596191
vt 0.500000 0.596191
vt 0.625000 0.596191
vt 0.750000 0.596191
vt 0.875000 0.596191
vt 1.000000 0.596191
vt 1.125000 0.596191
vt 1.000000 0.717285
vt 1.250000 0.717285
vt 1.250000 0.596191
vt 1.375000 0.596191
vt 1.256710 0.901001
vt 1.500000 0.717285
vt 1.500000 0.596191
vt -0.499878 0.717285
vt -0.249878 0.717285
vt -0.061157 0.885254
vt 0.000000 0.717285
vt 0.250000 0.717285
vt 0.500000 0.717285
vt 0.750000 0.717285
vt 1.389530 1.301030
vt 1.569820 1.301030
vt 1.391970 1.352910
vn 0.1288 0.1144 -0.9850
vn 0.2988 0.3680 -0.8805
vn 0.3194 0.1107 -0.9411
vn 0.1222 0.3739 -0.9194
vn -0.2586 0.1187 -0.9586
vn -0.2380 0.3730 -0.8968
vn -0.6057 0.1251 -0.7858
vn -0.5629 0.3715 -0.7383
vn -0.8595 0.1323 -0.4936
vn -0.8031 0.3695 -0.4673
vn -0.9820 0.1396 -0.1272
vn -0.9216 0.3676 -0.1243
vn -0.9551 0.1459 0.2576
vn -0.8996 0.3658 0.2386
vn -0.7839 0.1497 0.6025
vn -0.7395 0.3645 0.5659
vn -0.4942 0.1513 0.8561
vn -0.4656 0.3640 0.8066
vn -0.1301 0.1496 0.9801
vn -0.1204 0.3644 0.9234
vn 0.2544 0.1456 0.9561
vn 0.2431 0.3657 0.8984
vn 0.6011 0.1396 0.7869
vn 0.5685 0.3676 0.7360
vn 0.8572 0.1321 0.4977
vn 0.8063 0.3695 0.4619
vn 0.9834 0.1249 0.1317
vn 0.9209 0.3714 0.1183
vn 0.9595 0.1188 -0.2553
vn 0.8956 0.3729 -0.2423
vn 0.7887 0.1147 -0.6040
vn 0.7350 0.3739 -0.5656
vn 0.6553 0.1109 -0.7471
vn 0.6131 0.3680 -0.6990
vn 0.1949 0.7953 -0.5741
vn 0.0772 0.8002 -0.5947
vn -0.1578 0.7983 -0.5811
vn -0.3709 0.7955 -0.4791
vn -0.5300 0.7922 -0.3026
vn -0.6099 0.7887 -0.0775
vn -0.5970 0.7857 0.1621
vn -0.4920 0.7837 0.3790
vn -0.3111 0.7829 0.5387
vn -0.0822 0.7837 0.6156
vn 0.1581 0.7857 0.5980
vn 0.3721 0.7888 0.4892
vn 0.5270 0.7922 0.3076
vn 0.6678 0.7360 0.1111
vn 0.6115 0.7725 -0.1707
vn 0.4765 0.8001 -0.3643
vn 0.3996 0.7953 -0.4559
vn 0.0936 0.9567 -0.2754
vn 0.0374 0.9586 -0.2822
vn -0.0733 0.9586 -0.2751
vn -0.1717 0.9592 -0.2246
vn -0.2441 0.9593 -0.1416
vn -0.2776 0.9600 -0.0371
vn -0.2704 0.9601 0.0721
vn -0.2208 0.9605 0.1692
vn -0.1394 0.9603 0.2414
vn -0.0362 0.9605 0.2758
vn 0.0728 0.9601 0.2701
vn 0.1709 0.9600 0.2219
vn 0.2447 0.9593 0.1407
vn 0.2690 0.9619 0.0484
vn 0.1269 0.9892 0.0732
vn 0.1415 0.9892 -0.0379
vn 0.2749 0.9586 -0.0741
vn 0.2256 0.9586 -0.1734
vn 0.0274 0.9995 0.0158
vn 0.1171 0.9879 -0.1014
vn 0.1917 0.9567 -0.2187
vn 0.0292 0.9879 -0.1521
vn -0.0379 0.9892 -0.1415
vn -0.0274 0.9995 -0.0158
vn -0.1269 0.9892 -0.0732
vn -0.1415 0.9892 0.0379
vn -0.0732 0.9892 0.1269
vn 0.0379 0.9892 0.1415
vn 0.3348 0.9420 -0.0219
usemtl m1cap_mat
s 1
f 3/1/1 2/2/2 1/3/3
f 3/1/1 4/4/4 2/2/2
f 5/5/5 4/4/4 3/1/1
f 5/5/5 6/6/6 4/4/4
f 7/7/7 6/6/6 5/5/5
f 7/7/7 8/8/8 6/6/6
f 9/9/9 8/8/8 7/7/7
f 9/9/9 10/10/10 8/8/8
f 11/11/11 10/10/10 9/9/9
f 11/11/11 12/12/12 10/10/10
f 13/13/13 12/12/12 11/11/11
f 13/13/13 14/14/14 12/12/12
f 15/15/15 14/14/14 13/13/13
f 15/15/15 16/16/16 14/14/14
f 17/17/17 16/16/16 15/15/15
f 17/17/17 18/18/18 16/16/16
f 19/19/19 18/18/18 17/17/17
f 19/19/19 20/20/20 18/18/18
f 21/21/21 20/20/20 19/19/19
f 21/21/21 22/22/22 20/20/20
f 23/23/23 22/22/22 21/21/21
f 23/23/23 24/24/24 22/22/22
f 25/25/25 24/24/24 23/23/23
f 25/25/25 26/26/26 24/24/24
f 27/27/27 26/26/26 25/25/25
f 27/27/27 28/28/28 26/26/26
f 29/29/29 28/28/28 27/27/27
f 29/29/29 30/30/30 28/28/28
f 31/31/31 30/30/30 29/29/29
f 31/31/31 32/32/32 30/30/30
f 33/33/33 32/32/32 31/31/31
f 33/33/33 34/34/34 32/32/32
f 4/4/4 35/35/35 2/2/2
f 4/4/4 36/36/36 35/35/35
f 6/6/6 36/36/36 4/4/4
f 6/6/6 37/37/37 36/36/36
f 8/8/8 37/37/37 6/6/6
f 8/8/8 38/38/38 37/37/37
f 10/10/10 38/38/38 8/8/8
f 10/10/10 39/39/39 38/38/38
f 12/12/12 39/39/39 10/10/10
f 12/12/12 40/40/40 39/39/39
f 14/14/14 40/40/40 12/12/12
f 14/14/14 41/41/41 40/40/40
f 16/16/16 41/41/41 14/14/14
f 16/16/16 42/42/42 41/41/41
f 18/18/18 42/42/42 16/16/16
f 18/18/18 43/43/43 42/42/42
f 20/20/20 43/43/43 18/18/18
f 20/20/20 44/44/44 43/43/43
f 22/22/22 44/44/44 20/20/20
f 22/22/22 45/45/45 44/44/44
f 24/24/24 45/45/45 22/22/22
f 24/24/24 46/46/46 45/45/45
f 26/26/26 46/46/46 24/24/24
f 26/26/26 47/47/47 46/46/46
f 28/28/28 47/47/47 26/26/26
f 28/28/28 48/48/48 47/47/47
f 30/30/30 48/48/48 28/28/28
f 30/30/30 49/49/49 48/48/48
f 32/32/32 49/49/49 30/30/30
f 32/32/32 50/50/50 49/49/49
f 34/34/34 50/50/50 32/32/32
f 34/34/34 51/51/51 50/50/50
f 36/36/36 52/52/52 35/35/35
f 36/36/36 53/53/53 52/52/52
f 37/37/37 53/53/53 36/36/36
f 37/37/37 54/54/54 53/53/53
f 38/38/38 54/54/54 37/37/37
f 38/38/38 55/55/55 54/54/54
f 39/39/39 55/55/55 38/38/38
f 39/39/39 56/56/56 55/55/55
f 40/40/40 56/56/56 39/39/39
f 40/40/40 57/57/57 56/56/56
f 41/41/41 57/57/57 40/40/40
f 41/41/41 58/58/58 57/57/57
f 42/42/42 58/58/58 41/41/41
f 42/42/42 59/59/59 58/58/58
f 43/43/43 59/59/59 42/42/42
f 43/43/43 60/60/60 59/59/59
f 44/44/44 60/60/60 43/43/43
f 44/44/44 61/61/61 60/60/60
f 45/45/45 61/61/61 44/44/44
f 45/45/45 62/62/62 61/61/61
f 46/46/46 62/62/62 45/45/45
f 46/46/46 63/63/63 62/62/62
f 47/47/47 63/63/63 46/46/46
f 47/47/47 64/64/64 63/63/63
f 48/48/48 64/64/64 47/47/47
f 48/48/48 65/65/65 64/64/64
f 65/65/65 66/66/66 64/64/64
f 65/65/65 67/67/67 66/66/66
f 68/68/68 67/67/67 65/65/65
f 68/68/68 69/69/69 67/67/67
f 50/50/50 69/69/69 68/68/68
f 50/50/50 51/51/51 69/69/69
f 67/67/67 70/70/70 66/66/66
f 67/67/67 71/71/71 70/70/70
f 69/69/69 71/71/71 67/67/67
f 69/69/69 72/72/72 71/71/71
f 51/51/51 72/72/72 69/69/69
f 53/53/53 73/73/73 52/52/52
f 53/53/53 74/74/74 73/73/73
f 54/54/54 74/74/74 53/53/53
f 54/54/54 55/55/55 74/74/74
f 74/74/74 75/75/75 73/73/73
f 74/74/74 76/76/76 75/75/75
f 55/55/55 76/76/76 74/74/74
f 55/55/55 56/56/56 76/76/76
f 57/57/57 76/76/76 56/56/56
f 57/57/57 77/77/77 76/76/76
f 58/58/58 77/77/77 57/57/57
f 58/58/58 59/59/59 77/77/77
f 77/77/77 75/75/75 76/76/76
f 77/77/77 78/78/78 75/75/75
f 59/59/59 78/78/78 77/77/77
f 59/59/59 60/60/60 78/78/78
f 61/61/61 78/78/78 60/60/60
f 61/61/61 79/79/79 78/78/78
f 62/62/62 79/79/79 61/61/61
f 62/62/62 63/63/63 79/79/79
f 79/79/79 70/70/70 78/78/78
f 79/79/79 66/66/66 70/70/70
f 63/63/63 66/66/66 79/79/79
f 63/63/63 64/64/64 66/66/66
f 68/68/68 49/49/49 50/50/50
f 68/68/68 65/65/65 49/49/49
f 82/80/80 81/81/80 80/82/80
