# Blender v3.0.0 OBJ File: ''
# www.blender.org
mtllib shock_wire.mtl
o meshes_0-1_Mesh.009
v 43.765625 25.789062 0.004456
v 43.765625 22.738281 -0.003357
v -43.765625 25.789062 0.004456
v -43.765625 22.738281 -0.003357
v 43.765625 24.265625 1.523987
v 43.765625 24.265625 -1.522888
v -43.765625 24.265625 1.523987
v -43.765625 24.265625 -1.522888
vt 30.000000 1.000000
vt 30.000000 2.000000
vt 0.000000 1.000000
vt 0.000000 2.000000
vt 30.000000 1.000000
vt 30.000000 2.000000
vt 0.000000 1.000000
vt 0.000000 2.000000
vn -0.0000 0.0040 -1.0000
vn 0.0000 1.0000 0.0000
usemtl fira_mat
s 1
f 1/1/1 2/2/1 3/3/1
f 2/2/1 4/4/1 3/3/1
f 5/5/2 6/6/2 7/7/2
f 6/6/2 8/8/2 7/7/2
