# Blender v3.0.0 OBJ File: ''
# www.blender.org
mtllib shock_glas.mtl
o meshes_0-2_Mesh.010
v -32.859375 37.667973 -22.913509
v 32.105469 37.855473 -22.936947
v -32.820312 24.386723 -26.472105
v 32.144531 24.578129 -26.495543
v -32.781250 11.109379 -22.913513
v 32.183594 11.296879 -22.940857
v -32.750000 1.386721 -13.190861
v 32.214844 1.574221 -13.218204
v -32.734375 -2.167969 0.082577
v 32.230469 -1.980469 0.059139
v -32.738281 1.386717 13.363827
v 32.226562 1.574217 13.336483
v -32.761719 11.105465 23.086485
v 32.203125 11.296871 23.059141
v -32.800781 24.386715 26.645081
v 32.164062 24.574215 26.617737
v -32.839844 37.667965 23.086489
v 32.125000 37.855465 23.059145
v -32.871094 47.386715 13.363834
v 32.093750 47.578121 13.340397
v -32.886719 50.945312 0.086492
v 32.078125 51.136719 0.059148
v -32.882812 47.390629 -13.190853
v 32.082031 47.578129 -13.218197
v -32.859375 37.667973 -22.913509
v 32.105469 37.855473 -22.936947
vt 0.720703 0.115234
vt 0.720703 0.885742
vt 0.660156 0.115234
vt 0.660156 0.885742
vt 0.600586 0.115234
vt 0.600586 0.885742
vt 0.540039 0.115234
vt 0.540039 0.885742
vt 0.480469 0.115234
vt 0.480469 0.885742
vt 0.419922 0.115234
vt 0.419922 0.885742
vt 0.360352 0.115234
vt 0.360352 0.885742
vt 0.299805 0.115234
vt 0.299805 0.885742
vt 0.240234 0.115234
vt 0.240234 0.885742
vt 0.179688 0.115234
vt 0.179688 0.885742
vt 0.120117 0.115234
vt 0.120117 0.885742
vt 0.059570 0.115234
vt 0.059570 0.885742
vt 0.000000 0.115234
vt 0.000000 0.885742
vn -0.0018 0.5000 -0.8660
vn -0.0004 -0.0000 -1.0000
vn -0.0004 0.0002 -1.0000
vn 0.0011 -0.5000 -0.8660
vn 0.0011 -0.4999 -0.8661
vn 0.0023 -0.8661 -0.4999
vn 0.0029 -1.0000 -0.0001
vn 0.0029 -1.0000 0.0000
vn 0.0027 -0.8661 0.4998
vn 0.0027 -0.8661 0.4999
vn 0.0018 -0.5001 0.8660
vn 0.0018 -0.5000 0.8660
vn 0.0004 0.0000 1.0000
vn -0.0011 0.5001 0.8660
vn -0.0011 0.4999 0.8661
vn -0.0023 0.8660 0.5000
vn -0.0024 0.8660 0.5001
vn -0.0030 1.0000 0.0001
vn -0.0029 1.0000 -0.0000
vn -0.0027 0.8661 -0.4999
vn -0.0027 0.8660 -0.5001
vn -0.0017 0.5000 -0.8660
usemtl light_mat
s 1
f 1/1/1 2/2/1 3/3/2
f 2/2/1 4/4/3 3/3/2
f 3/3/2 4/4/3 5/5/4
f 4/4/3 6/6/5 5/5/4
f 5/5/4 6/6/5 7/7/6
f 6/6/5 8/8/6 7/7/6
f 7/7/6 8/8/6 9/9/7
f 8/8/6 10/10/8 9/9/7
f 9/9/7 10/10/8 11/11/9
f 10/10/8 12/12/10 11/11/9
f 11/11/9 12/12/10 13/13/11
f 12/12/10 14/14/12 13/13/11
f 13/13/11 14/14/12 15/15/13
f 14/14/12 16/16/13 15/15/13
f 15/15/13 16/16/13 17/17/14
f 16/16/13 18/18/15 17/17/14
f 17/17/14 18/18/15 19/19/16
f 18/18/15 20/20/17 19/19/16
f 19/19/16 20/20/17 21/21/18
f 20/20/17 22/22/19 21/21/18
f 21/21/18 22/22/19 23/23/20
f 22/22/19 24/24/21 23/23/20
f 23/23/20 24/24/21 25/25/22
f 24/24/21 26/26/1 25/25/22
