# Blender v3.0.0 OBJ File: ''
# www.blender.org
mtllib strifebottom.mtl
o mesh-0_meshId0_name.001
v -14.393045 2.201171 -1.749385
v -14.369248 0.600588 -4.715272
v -14.264296 2.201174 -18.112041
v -14.264297 -8.222656 -18.112043
v -13.905151 2.201174 -19.636898
v -13.905153 -8.329096 -19.636900
v -14.548002 -8.222661 17.885868
v -14.442147 0.600587 4.488544
v -14.548002 2.201169 17.885870
v -14.419210 2.201171 1.523168
v 14.393045 2.201169 1.749386
v 14.369248 0.600584 4.715272
v 14.264297 2.201166 18.112043
v 14.264296 -8.222664 18.112041
v 13.905152 2.201166 19.636898
v 13.905151 -8.329103 19.636898
v 14.548002 -8.222659 -17.885870
v 14.442147 0.600585 -4.488544
v 14.548002 2.201171 -17.885870
v 14.419210 2.201169 -1.523167
v 14.212860 -8.329098 -19.415655
v 14.212860 2.201172 -19.415653
v 12.962606 -8.436518 -19.908047
v 12.962606 2.201172 -19.908047
v 11.362705 -8.651368 -19.920427
v 0.157799 -9.003907 -20.008404
v -14.212860 -8.329102 19.415653
v -14.212860 2.201168 19.415653
v -12.962606 -8.436522 19.908047
v -12.962606 2.201168 19.908047
v -11.362705 -8.651372 19.920425
v -0.157801 -9.003913 20.008402
v 11.048459 -8.651374 20.096758
v 12.647551 2.201166 20.109598
v 12.647550 -8.436523 20.109596
v 13.905151 -8.329103 19.636898
v 14.212860 -8.329098 -19.415655
v 14.212860 2.201172 -19.415653
v -11.048460 -8.651366 -20.096760
v -12.647551 2.201174 -20.109598
v -12.647552 -8.436516 -20.109600
v -13.905153 -8.329096 -19.636900
v -14.212860 -8.329102 19.415653
v -14.212860 2.201168 19.415653
v 13.905151 -8.329103 19.636898
v 14.264296 -8.222664 18.112041
v 14.212860 -8.329098 -19.415655
v 14.548002 -8.222659 -17.885870
v 12.647550 -8.436523 20.109596
v 12.962606 -8.436518 -19.908047
v 11.048459 -8.651374 20.096758
v 11.362705 -8.651368 -19.920427
v -0.157801 -9.003913 20.008402
v 0.157799 -9.003907 -20.008404
v -11.362705 -8.651372 19.920425
v -11.048460 -8.651366 -20.096760
v -12.962606 -8.436522 19.908047
v -12.647552 -8.436516 -20.109600
v -14.212860 -8.329102 19.415653
v -13.905153 -8.329096 -19.636900
v -14.548002 -8.222661 17.885868
v -14.264297 -8.222656 -18.112043
v -13.905151 2.201174 -19.636898
v 13.905152 2.201166 19.636898
vt 0.535217 0.411133
vt 0.702515 0.352295
vt 0.738403 0.411560
vt 0.535767 0.005127
vt 0.521667 0.411133
vt 0.522217 0.001099
vt 0.981750 0.005981
vt 0.814026 0.352478
vt 0.981201 0.411987
vt 0.778015 0.411621
vt 0.981201 0.411987
vt 0.814026 0.352478
vt 0.778015 0.411621
vt 0.981750 0.005981
vt 0.994690 0.412048
vt 0.995300 0.002014
vt 0.535767 0.005127
vt 0.702515 0.352295
vt 0.535217 0.411133
vt 0.738403 0.411560
vt 0.468323 0.005371
vt 0.490173 0.415283
vt 0.490173 0.005371
vt 0.468323 0.415283
vt 0.440430 0.005371
vt 0.245239 0.005371
vt 0.022095 0.005371
vt 0.000244 0.415283
vt 0.000244 0.005371
vt 0.022095 0.415283
vt 0.049988 0.005371
vt 0.245239 0.005371
vt 0.468323 0.005371
vt 0.468323 0.415283
vt 0.440430 0.005371
vt 0.490173 0.005371
vt 0.522217 0.001099
vt 0.521667 0.411133
vt 0.022095 0.005371
vt 0.022095 0.415283
vt 0.049988 0.005371
vt 0.000244 0.005371
vt 0.995300 0.002014
vt 0.994690 0.412048
vt 0.016052 1.559630
vt 0.955200 1.574040
vt 0.982910 1.560300
vt 0.043701 1.573430
vt 0.004150 1.509950
vt 0.994934 1.510620
vt 0.004211 1.446470
vt 0.994995 1.447200
vt 0.004578 1.002320
vt 0.995361 1.003050
vt 0.004944 0.558228
vt 0.995728 0.558960
vt 0.005005 0.494812
vt 0.995789 0.495483
vt 0.017029 0.445129
vt 0.983887 0.445801
vt 0.044739 0.431396
vt 0.956238 0.432007
vt 0.000244 0.415283
vt 0.490173 0.415283
vn -0.9929 0.0000 -0.1193
vn -0.9999 -0.0001 -0.0078
vn -0.9999 -0.0003 -0.0078
vn -0.9926 0.0000 -0.1216
vn -0.9734 0.0000 -0.2292
vn -0.9944 0.0000 0.1061
vn -0.9999 -0.0001 -0.0079
vn -0.9946 0.0000 0.1037
vn -0.9999 -0.0002 -0.0078
vn 0.9929 0.0000 0.1193
vn 0.9999 -0.0001 0.0078
vn 0.9999 -0.0003 0.0078
vn 0.9926 0.0000 0.1216
vn 0.9734 0.0000 0.2292
vn 0.9944 0.0000 -0.1061
vn 0.9999 -0.0001 0.0079
vn 0.9946 0.0000 -0.1037
vn 0.9999 -0.0002 0.0078
vn 0.1781 0.0000 -0.9840
vn 0.3664 0.0000 -0.9304
vn 0.1903 0.0000 -0.9817
vn 0.0078 0.0000 -1.0000
vn 0.0078 0.0000 -0.9999
vn -0.1781 0.0000 0.9840
vn -0.3664 0.0000 0.9304
vn -0.1903 0.0000 0.9817
vn -0.0078 0.0000 1.0000
vn -0.0078 0.0000 0.9999
vn 0.1626 0.0000 0.9867
vn 0.1749 0.0000 0.9846
vn -0.0079 0.0000 0.9999
vn 0.3518 0.0000 0.9360
vn 0.9768 0.0000 -0.2140
vn -0.1626 0.0000 -0.9867
vn -0.1749 0.0000 -0.9846
vn 0.0079 0.0000 -0.9999
vn -0.3518 0.0000 -0.9360
vn -0.9768 0.0000 0.2140
vn 0.1079 -0.9941 0.0008
vn 0.2931 -0.9561 0.0023
vn 0.1124 -0.9937 0.0009
vn 0.0824 -0.9966 0.0006
vn 0.0000 -1.0000 0.0000
vn -0.0824 -0.9966 -0.0006
vn -0.1124 -0.9937 -0.0009
vn -0.1079 -0.9941 -0.0008
vn -0.2931 -0.9561 -0.0023
usemtl m1uraside_mat
s 1
f 3/1/1 2/2/2 1/3/3
f 3/1/1 4/4/4 2/2/2
f 5/5/5 4/4/4 3/1/1
f 5/5/5 6/6/5 4/4/4
f 7/7/6 2/2/2 4/4/4
f 7/7/6 8/8/7 2/2/2
f 9/9/8 8/8/7 7/7/6
f 9/9/8 10/10/9 8/8/7
f 13/11/10 12/12/11 11/13/12
f 13/11/10 14/14/13 12/12/11
f 15/15/14 14/14/13 13/11/10
f 15/15/14 16/16/14 14/14/13
f 17/17/15 12/12/11 14/14/13
f 17/17/15 18/18/16 12/12/11
f 19/19/17 18/18/16 17/17/15
f 19/19/17 20/20/18 18/18/16
f 23/21/19 22/22/20 21/23/20
f 23/21/19 24/24/21 22/22/20
f 25/25/22 24/24/21 23/21/19
f 25/25/22 26/26/23 24/24/21
f 29/27/24 28/28/25 27/29/25
f 29/27/24 30/30/26 28/28/25
f 31/31/27 30/30/26 29/27/24
f 31/31/27 32/32/28 30/30/26
f 35/33/29 34/34/30 33/35/31
f 35/33/29 36/36/32 34/34/30
f 32/32/28 34/34/30 30/30/26
f 32/32/28 33/35/31 34/34/30
f 37/37/33 19/19/17 17/17/15
f 37/37/33 38/38/33 19/19/17
f 41/39/34 40/40/35 39/41/36
f 41/39/34 42/42/37 40/40/35
f 26/26/23 40/40/35 24/24/21
f 26/26/23 39/41/36 40/40/35
f 43/43/38 9/9/8 7/7/6
f 43/43/38 44/44/38 9/9/8
f 47/45/39 46/46/40 45/47/39
f 47/45/39 48/48/40 46/46/40
f 50/49/41 45/47/39 49/50/41
f 50/49/41 47/45/39 45/47/39
f 52/51/42 49/50/41 51/52/42
f 52/51/42 50/49/41 49/50/41
f 54/53/43 51/52/42 53/54/43
f 54/53/43 52/51/42 51/52/42
f 56/55/44 53/54/43 55/56/44
f 56/55/44 54/53/43 53/54/43
f 58/57/45 55/56/44 57/58/45
f 58/57/45 56/55/44 55/56/44
f 60/59/46 57/58/45 59/60/46
f 60/59/46 58/57/45 57/58/45
f 62/61/47 59/60/46 61/62/47
f 62/61/47 60/59/46 59/60/46
f 63/63/37 40/40/35 42/42/37
f 34/34/30 36/36/32 64/64/32
