# Blender v3.0.0 OBJ File: ''
# www.blender.org
mtllib strifetop.mtl
o mesh-1_meshId1_name
v -12.962606 2.201168 19.908047
v -0.157799 8.999997 20.008404
v 12.647551 2.201166 20.109598
v 12.647552 8.604486 20.109600
v 13.905152 2.201166 19.636898
v 13.905153 8.604486 19.636900
v 14.264297 2.201166 18.112043
v 14.264297 8.604486 18.112043
v 14.393045 2.201169 1.749386
v 14.419210 2.201169 -1.523167
v 12.558270 9.513666 18.237303
v -0.142558 9.826167 18.136282
v 0.142560 9.826173 -18.136280
v -12.558269 9.513674 -18.237301
v 0.157801 9.000003 -20.008402
v -12.647550 8.604493 -20.109596
v -12.647551 2.201174 -20.109598
v -13.905151 2.201174 -19.636898
v 12.962606 2.201172 -19.908047
v 12.962606 8.604491 -19.908047
v 12.843758 9.513672 -18.036676
v 14.212860 8.604491 -19.415653
v 14.548002 8.604490 -17.885868
v 14.212860 2.201172 -19.415653
v 14.548002 2.201171 -17.885870
v -12.843758 9.513668 18.036678
v -14.264296 8.604493 -18.112041
v -13.905151 8.604493 -19.636898
v -14.264296 2.201174 -18.112041
v -12.962606 8.604487 19.908047
v -14.212860 8.604487 19.415655
v -14.212860 2.201168 19.415653
v -14.548002 8.604488 17.885870
v -14.548002 2.201169 17.885870
v -14.419210 2.201171 1.523168
v -14.393045 2.201171 -1.749385
v 14.369248 0.600584 4.715272
v 14.442147 0.600585 -4.488544
v -14.369248 0.600588 -4.715272
v -14.442147 0.600587 4.488544
vt 1.119570 0.604553
vt 1.095580 0.462830
vt 1.119570 0.395508
vt 1.095580 0.537231
vt -0.119568 0.395508
vt -0.095581 0.537231
vt -0.119568 0.604553
vt -0.095581 0.462830
vt 1.029420 -0.061340
vt 0.500000 0.045471
vt -0.029419 -0.061340
vt 0.907227 0.045471
vt 1.081240 -0.047791
vt 0.947083 0.056458
vt 1.095580 -0.016418
vt 0.958130 0.081848
vt 0.932678 0.063660
vt 0.500000 0.063660
vt 0.500000 0.936401
vt 0.067261 0.936401
vt 0.500000 0.954590
vt 0.092712 0.954590
vt -0.029419 1.061340
vt -0.081238 1.047790
vt 1.029420 1.061340
vt 0.907227 0.954590
vt 0.932678 0.936401
vt 0.947083 0.943604
vt 0.958130 0.918213
vt 1.081240 1.047790
vt 1.095580 1.016420
vt 0.067261 0.063660
vt 0.041809 0.918213
vt 0.052856 0.943604
vt -0.095581 1.016420
vt 0.092712 0.045471
vt 0.052856 0.056458
vt -0.081238 -0.047791
vt 0.041809 0.081848
vt -0.095581 -0.016418
vn 1.0000 -0.0002 0.0079
vn 1.0000 -0.0005 0.0080
vn -1.0000 -0.0002 -0.0079
vn -1.0000 -0.0005 -0.0080
vn 0.1749 0.0000 0.9846
vn -0.0066 0.5520 0.8338
vn -0.1903 0.0000 0.9817
vn 0.1560 0.4994 0.8522
vn 0.7509 0.0000 0.6603
vn 0.6588 0.4740 0.5841
vn 0.9928 0.0000 0.1193
vn 0.8620 0.4967 0.1006
vn 0.9999 -0.0002 0.0079
vn 0.2144 0.9594 0.1832
vn -0.0016 0.9786 0.2056
vn 0.0016 0.9786 -0.2056
vn -0.2144 0.9594 -0.1832
vn 0.0066 0.5520 -0.8338
vn -0.1560 0.4994 -0.8522
vn -0.1749 0.0000 -0.9846
vn -0.7509 0.0000 -0.6603
vn 0.1903 0.0000 -0.9817
vn 0.1693 0.4994 -0.8496
vn 0.2172 0.9594 -0.1797
vn 0.6678 0.4741 -0.5737
vn 0.8635 0.4968 -0.0870
vn 0.7612 0.0000 -0.6485
vn 0.9946 0.0000 -0.1037
vn -0.2172 0.9594 0.1797
vn -0.8620 0.4967 -0.1006
vn -0.6588 0.4740 -0.5841
vn -0.9928 0.0000 -0.1193
vn -0.1693 0.4994 0.8496
vn -0.6678 0.4741 0.5737
vn -0.7612 0.0000 0.6485
vn -0.8635 0.4968 0.0870
vn -0.9946 0.0000 0.1037
vn -0.9999 -0.0002 -0.0079
usemtl m0pinzu_mat
s off
f 38/1/1 9/2/1 37/3/1
f 38/1/2 10/4/2 9/2/2
f 40/5/3 36/6/3 39/7/3
f 40/5/4 35/8/4 36/6/4
s 1
f 3/9/5 2/10/6 1/11/7
f 3/9/5 4/12/8 2/10/6
f 5/13/9 4/12/8 3/9/5
f 5/13/9 6/14/10 4/12/8
f 7/15/11 6/14/10 5/13/9
f 7/15/11 8/16/12 6/14/10
f 9/2/13 8/16/12 7/15/11
f 9/2/13 10/4/13 8/16/12
f 11/17/14 2/10/6 4/12/8
f 11/17/14 12/18/15 2/10/6
f 13/19/16 12/18/15 11/17/14
f 13/19/16 14/20/17 12/18/15
f 15/21/18 14/20/17 13/19/16
f 15/21/18 16/22/19 14/20/17
f 17/23/20 16/22/19 15/21/18
f 17/23/20 18/24/21 16/22/19
f 15/21/18 19/25/22 17/23/20
f 15/21/18 20/26/23 19/25/22
f 21/27/24 20/26/23 15/21/18
f 21/27/24 22/28/25 20/26/23
f 23/29/26 22/28/25 21/27/24
f 23/29/26 24/30/27 22/28/25
f 25/31/28 24/30/27 23/29/26
f 14/20/17 26/32/29 12/18/15
f 14/20/17 27/33/30 26/32/29
f 28/34/31 27/33/30 14/20/17
f 28/34/31 29/35/32 27/33/30
f 18/24/21 29/35/32 28/34/31
f 26/32/29 2/10/6 12/18/15
f 26/32/29 30/36/33 2/10/6
f 31/37/34 30/36/33 26/32/29
f 31/37/34 1/11/7 30/36/33
f 32/38/35 1/11/7 31/37/34
f 8/16/12 21/27/24 11/17/14
f 8/16/12 23/29/26 21/27/24
f 10/4/13 23/29/26 8/16/12
f 10/4/13 25/31/28 23/29/26
f 33/39/36 31/37/34 26/32/29
f 33/39/36 32/38/35 31/37/34
f 34/40/37 32/38/35 33/39/36
f 27/33/30 33/39/36 26/32/29
f 27/33/30 35/8/38 33/39/36
f 36/6/38 27/33/30 29/35/32
f 36/6/38 35/8/38 27/33/30
f 16/22/19 28/34/31 14/20/17
f 16/22/19 18/24/21 28/34/31
f 19/25/22 22/28/25 24/30/27
f 19/25/22 20/26/23 22/28/25
f 13/19/16 21/27/24 15/21/18
f 13/19/16 11/17/14 21/27/24
f 6/14/10 11/17/14 4/12/8
f 6/14/10 8/16/12 11/17/14
f 1/11/7 2/10/6 30/36/33
f 34/40/37 33/39/36 35/8/38
