# Blender v3.0.0 OBJ File: ''
# www.blender.org
mtllib joyless_heart.mtl
o mesh-0_meshId0_name.008
v 3.827385 -5.221683 22.094654
v -0.003432 -8.727543 21.971373
v -0.050222 -5.116213 23.294495
v -3.833609 -5.221683 21.824429
v -0.065475 -1.644533 23.721691
v -6.272405 -1.715823 21.725719
v -7.423034 0.877927 21.676857
v 6.267376 -1.715824 22.168497
v 7.417558 0.877926 22.199936
v -0.074700 1.894526 24.001871
v -0.071646 4.853517 23.897427
v -7.645424 3.473627 21.660032
v 7.641183 3.473626 22.198326
v 7.437707 5.156246 22.185835
v 6.603741 6.839836 22.150137
v 4.864716 8.135736 22.084360
v 2.515799 8.391596 22.000856
v -0.001381 7.449216 21.914913
v -2.519127 8.391597 21.823837
v -4.867522 8.135736 21.741192
v -6.607234 6.839838 21.684608
v -7.442245 5.156248 21.661587
vt 0.500000 0.210693
vt 0.500000 0.000000
vt 0.723877 0.204773
vt 0.276062 0.204773
vt 0.500000 0.413391
vt 0.133545 0.409546
vt 0.066284 0.561157
vt 0.933655 0.561157
vt 0.866394 0.409546
vt 0.500000 0.620117
vt 0.500000 0.792969
vt 0.053223 0.712769
vt 0.946716 0.712769
vt 0.934814 0.811035
vt 0.886047 0.909363
vt 0.784363 0.985046
vt 0.647095 1.000000
vt 0.500000 0.944946
vt 0.352844 1.000000
vt 0.215576 0.985046
vt 0.113892 0.909363
vt 0.065125 0.811035
vn -0.0343 -0.2277 0.9731
vn -0.0331 -0.3442 0.9383
vn 0.2577 -0.2081 0.9435
vn -0.3236 -0.2081 0.9230
vn -0.0350 -0.1195 0.9922
vn -0.3017 -0.1386 0.9433
vn -0.2923 -0.0505 0.9550
vn 0.2244 -0.0503 0.9732
vn 0.2344 -0.1383 0.9622
vn -0.0352 -0.0169 0.9992
vn -0.0343 0.2242 0.9739
vn -0.2841 0.0048 0.9588
vn 0.2159 0.0048 0.9764
vn 0.2188 0.0727 0.9730
vn 0.1988 0.1795 0.9634
vn 0.1252 0.3287 0.9361
vn -0.0513 0.5007 0.8641
vn -0.0280 0.6072 0.7940
vn -0.0098 0.5005 0.8656
vn -0.1908 0.3288 0.9249
vn -0.2660 0.1796 0.9471
vn -0.2868 0.0728 0.9552
usemtl m0dia_mat.002
s 1
f 3/1/1 2/2/2 1/3/3
f 3/1/1 4/4/4 2/2/2
f 5/5/5 4/4/4 3/1/1
f 5/5/5 6/6/6 4/4/4
f 7/7/7 6/6/6 5/5/5
f 9/8/8 5/5/5 8/9/9
f 9/8/8 10/10/10 5/5/5
f 11/11/11 10/10/10 9/8/8
f 11/11/11 7/7/7 10/10/10
f 12/12/12 7/7/7 11/11/11
f 1/3/3 5/5/5 3/1/1
f 1/3/3 8/9/9 5/5/5
f 13/13/13 11/11/11 9/8/8
f 13/13/13 14/14/14 11/11/11
f 15/15/15 11/11/11 14/14/14
f 15/15/15 16/16/16 11/11/11
f 17/17/17 11/11/11 16/16/16
f 17/17/17 18/18/18 11/11/11
f 19/19/19 11/11/11 18/18/18
f 19/19/19 20/20/20 11/11/11
f 21/21/21 11/11/11 20/20/20
f 21/21/21 22/22/22 11/11/11
f 7/7/7 5/5/5 10/10/10
f 12/12/12 11/11/11 22/22/22
