# Blender v3.0.0 OBJ File: ''
# www.blender.org
mtllib joyless_heart.mtl
o mesh-0_meshId0_name.002
v 4.114126 -5.221683 22.043060
v 0.282031 -8.727543 21.969563
v 0.252435 -5.116213 23.293182
v -3.549730 -5.221683 21.872395
v 0.242734 -1.644533 23.720539
v -5.989604 -1.715823 21.805380
v -7.140771 0.877927 21.771469
v 6.554871 -1.715824 22.085197
v 7.705364 0.877926 22.101688
v 0.237151 1.894526 24.000816
v 0.238848 4.853517 23.896341
v -7.363362 3.473627 21.757536
v 7.928950 3.473626 22.097174
v 7.725328 5.156246 22.087326
v 6.890970 6.839836 22.062468
v 5.151236 8.135736 22.019291
v 2.801433 8.391596 21.966312
v 0.283348 7.449216 21.913082
v -2.235369 8.391597 21.854725
v -4.584640 8.135736 21.802597
v -6.324939 6.839838 21.768623
v -7.160179 5.156248 21.756451
vt 0.500000 0.210693
vt 0.500000 0.000000
vt 0.723877 0.204773
vt 0.276062 0.204773
vt 0.500000 0.413391
vt 0.133545 0.409546
vt 0.066284 0.561157
vt 0.933655 0.561157
vt 0.866394 0.409546
vt 0.500000 0.620117
vt 0.500000 0.792969
vt 0.053223 0.712769
vt 0.946716 0.712769
vt 0.934814 0.811035
vt 0.886047 0.909363
vt 0.784363 0.985046
vt 0.647095 1.000000
vt 0.500000 0.944946
vt 0.352844 1.000000
vt 0.215576 0.985046
vt 0.113892 0.909363
vt 0.065125 0.811035
vn -0.0217 -0.2277 0.9735
vn -0.0209 -0.3442 0.9387
vn 0.2699 -0.2081 0.9401
vn -0.3115 -0.2081 0.9272
vn -0.0221 -0.1195 0.9926
vn -0.2894 -0.1386 0.9471
vn -0.2799 -0.0505 0.9587
vn 0.2370 -0.0503 0.9702
vn 0.2469 -0.1383 0.9591
vn -0.0222 -0.0169 0.9996
vn -0.0216 0.2242 0.9743
vn -0.2716 0.0048 0.9624
vn 0.2286 0.0048 0.9735
vn 0.2315 0.0727 0.9701
vn 0.2112 0.1795 0.9608
vn 0.1374 0.3287 0.9344
vn -0.0401 0.5007 0.8647
vn -0.0176 0.6072 0.7943
vn 0.0014 0.5005 0.8657
vn -0.1788 0.3288 0.9273
vn -0.2537 0.1796 0.9504
vn -0.2743 0.0728 0.9589
usemtl m0dia_mat
s 1
f 3/1/1 2/2/2 1/3/3
f 3/1/1 4/4/4 2/2/2
f 5/5/5 4/4/4 3/1/1
f 5/5/5 6/6/6 4/4/4
f 7/7/7 6/6/6 5/5/5
f 9/8/8 5/5/5 8/9/9
f 9/8/8 10/10/10 5/5/5
f 11/11/11 10/10/10 9/8/8
f 11/11/11 7/7/7 10/10/10
f 12/12/12 7/7/7 11/11/11
f 1/3/3 5/5/5 3/1/1
f 1/3/3 8/9/9 5/5/5
f 13/13/13 11/11/11 9/8/8
f 13/13/13 14/14/14 11/11/11
f 15/15/15 11/11/11 14/14/14
f 15/15/15 16/16/16 11/11/11
f 17/17/17 11/11/11 16/16/16
f 17/17/17 18/18/18 11/11/11
f 19/19/19 11/11/11 18/18/18
f 19/19/19 20/20/20 11/11/11
f 21/21/21 11/11/11 20/20/20
f 21/21/21 22/22/22 11/11/11
f 7/7/7 5/5/5 10/10/10
f 12/12/12 11/11/11 22/22/22
