# Blender v3.0.0 OBJ File: ''
# www.blender.org
mtllib boom_tape.mtl
o mesh-2_meshId2_name
v -8.265630 13.999998 11.627003
v -7.222660 18.999998 10.511703
v -7.384770 13.999998 11.726602
v -6.470700 18.999998 10.582004
v -6.308590 13.999998 11.310502
v -5.414060 18.999998 10.091803
v -4.876950 13.999998 11.533201
v -4.001950 18.999998 10.240203
v -1.580080 13.999998 12.736301
v -0.742188 18.999998 11.285203
v -10.142600 18.998001 4.648443
v -8.679689 18.999998 7.388673
v -11.158199 13.998000 6.251952
v -9.574220 13.998000 8.560552
v -7.427730 18.999998 8.880862
v -8.355470 13.999998 10.003901
v -7.484380 18.999998 9.693362
v -8.443359 13.999998 10.765602
v -7.222660 18.999998 10.511703
v -8.265630 13.999998 11.627003
vt 0.849609 1.998050
vt 1.000000 1.098140
vt 1.000000 1.998050
vt 0.849609 1.098140
vt 0.750000 1.998050
vt 0.750000 1.098140
vt 0.549805 1.998050
vt 0.549805 1.098140
vt 0.000000 1.866700
vt 0.000000 1.098140
vt 0.000000 0.000977
vt 0.489746 0.999512
vt 0.013672 0.999512
vt 0.456055 0.000977
vt 0.820313 0.999512
vt 0.776855 0.000977
vt 0.885254 0.999512
vt 0.832031 0.000977
vt 1.000000 0.999512
vt 0.937500 0.000977
vn 0.0972 0.2037 0.9742
vn -0.0922 0.2379 0.9669
vn -0.1091 0.2380 0.9651
vn 0.1974 0.1916 0.9614
vn 0.1428 0.2029 0.9687
vn 0.1236 0.2205 0.9675
vn -0.2297 0.2755 0.9334
vn -0.2111 0.2875 0.9342
vn -0.3142 0.2978 0.9014
vn -0.2901 0.3112 0.9049
vn -0.8097 0.2846 0.5132
vn -0.7862 0.2902 0.5455
vn -0.8378 0.3135 0.4470
vn -0.7640 0.2731 0.5846
vn -0.9118 0.2438 0.3304
vn -0.9416 0.2332 0.2430
vn -0.9747 0.2033 0.0927
vn -0.9752 0.2106 0.0675
vn -0.9274 0.2409 0.2860
vn -0.9503 0.2420 0.1961
usemtl m2tape_mat_v
s 1
f 3/1/1 2/2/2 1/3/3
f 3/1/1 4/4/4 2/2/2
f 5/5/5 4/4/4 3/1/1
f 5/5/5 6/6/6 4/4/4
f 7/7/7 6/6/6 5/5/5
f 7/7/7 8/8/8 6/6/6
f 9/9/9 8/8/8 7/7/7
f 9/9/9 10/10/10 8/8/8
f 13/11/11 12/12/12 11/13/13
f 13/11/11 14/14/14 12/12/12
f 14/14/14 15/15/15 12/12/12
f 14/14/14 16/16/16 15/15/15
f 16/16/16 17/17/17 15/15/15
f 16/16/16 18/18/18 17/17/17
f 18/18/18 19/19/19 17/17/17
f 18/18/18 20/20/20 19/19/19
