# Blender v3.0.0 OBJ File: ''
# www.blender.org
mtllib Louie_Light.mtl
o Sphere
v -0.000000 21.868114 -7.059021
v -0.000000 21.651342 -7.383445
v -0.000000 21.326918 -7.600218
v -0.000000 20.944235 -7.676338
v -0.000000 20.561552 -7.600218
v -0.000000 20.237127 -7.383445
v -0.000000 20.020355 -7.059021
v 0.270598 21.868114 -6.946936
v 0.500000 21.651342 -7.176338
v 0.653282 21.326918 -7.329619
v 0.707107 20.944235 -7.383445
v 0.653282 20.561552 -7.329620
v 0.500000 20.237127 -7.176338
v 0.270598 20.020355 -6.946936
v 0.382684 21.868114 -6.676338
v 0.707107 21.651342 -6.676338
v 0.923880 21.326918 -6.676338
v 1.000000 20.944235 -6.676338
v 0.923880 20.561552 -6.676338
v 0.707107 20.237127 -6.676338
v 0.382684 20.020355 -6.676338
v 0.270598 21.868114 -6.405740
v 0.500000 21.651342 -6.176338
v 0.653282 21.326918 -6.023057
v 0.707107 20.944235 -5.969231
v 0.653282 20.561552 -6.023057
v 0.500000 20.237127 -6.176338
v 0.270598 20.020355 -6.405740
v 0.000000 21.868114 -6.293654
v 0.000000 21.651342 -5.969232
v 0.000000 21.326918 -5.752459
v 0.000000 20.944235 -5.676338
v 0.000000 20.561552 -5.752459
v 0.000000 20.237127 -5.969232
v 0.000000 20.020355 -6.293654
v -0.000000 21.944235 -6.676338
v -0.270598 21.868114 -6.405740
v -0.500000 21.651342 -6.176338
v -0.653281 21.326918 -6.023057
v -0.707107 20.944235 -5.969232
v -0.653282 20.561552 -6.023057
v -0.500000 20.237127 -6.176338
v -0.270598 20.020355 -6.405740
v -0.382684 21.868114 -6.676338
v -0.707107 21.651342 -6.676338
v -0.923879 21.326918 -6.676338
v -1.000000 20.944235 -6.676338
v -0.923880 20.561552 -6.676338
v -0.707107 20.237127 -6.676338
v -0.382684 20.020355 -6.676338
v -0.000000 19.944235 -6.676338
v -0.270598 21.868114 -6.946936
v -0.500000 21.651342 -7.176338
v -0.653281 21.326918 -7.329619
v -0.707107 20.944235 -7.383445
v -0.653282 20.561552 -7.329619
v -0.500000 20.237127 -7.176338
v -0.270598 20.020355 -6.946936
vt 0.687500 0.000000
vt 0.750000 0.125000
vt 0.625000 0.125000
vt 0.750000 0.250000
vt 0.750000 0.375000
vt 0.625000 0.375000
vt 0.625000 0.250000
vt 0.750000 0.500000
vt 0.750000 0.625000
vt 0.625000 0.625000
vt 0.625000 0.500000
vt 0.750000 0.750000
vt 0.750000 0.875000
vt 0.625000 0.875000
vt 0.625000 0.750000
vt 0.687500 1.000000
vt 0.500000 0.250000
vt 0.500000 0.125000
vt 0.500000 0.500000
vt 0.500000 0.375000
vt 0.500000 0.750000
vt 0.500000 0.625000
vt 0.562500 1.000000
vt 0.500000 0.875000
vt 0.562500 0.000000
vt 0.375000 0.500000
vt 0.375000 0.375000
vt 0.375000 0.750000
vt 0.375000 0.625000
vt 0.437500 1.000000
vt 0.375000 0.875000
vt 0.437500 0.000000
vt 0.375000 0.125000
vt 0.375000 0.250000
vt 0.312500 0.000000
vt 0.250000 0.125000
vt 0.250000 0.375000
vt 0.250000 0.250000
vt 0.250000 0.625000
vt 0.250000 0.500000
vt 0.250000 0.875000
vt 0.250000 0.750000
vt 0.312500 1.000000
vt 0.125000 0.625000
vt 0.125000 0.500000
vt 0.125000 0.875000
vt 0.125000 0.750000
vt 0.125000 0.250000
vt 0.125000 0.125000
vt 0.125000 0.375000
vt 0.187500 1.000000
vt 0.187500 0.000000
vt 0.000000 0.250000
vt 0.000000 0.125000
vt 0.000000 0.500000
vt 0.000000 0.375000
vt 0.000000 0.750000
vt 0.000000 0.625000
vt 0.062500 1.000000
vt 0.000000 0.875000
vt 0.062500 0.000000
vt 1.000000 0.625000
vt 1.000000 0.750000
vt 0.875000 0.750000
vt 0.875000 0.625000
vt 1.000000 0.875000
vt 0.937500 1.000000
vt 0.875000 0.875000
vt 0.937500 0.000000
vt 1.000000 0.125000
vt 0.875000 0.125000
vt 1.000000 0.250000
vt 1.000000 0.375000
vt 0.875000 0.375000
vt 0.875000 0.250000
vt 1.000000 0.500000
vt 0.875000 0.500000
vt 0.812500 0.000000
vt 0.812500 1.000000
vn 0.0000 -1.0000 0.0000
vn 0.0000 -0.9063 -0.4226
vn 0.2988 -0.9063 -0.2988
vn 0.0000 -0.6838 -0.7296
vn 0.0000 -0.3668 -0.9303
vn 0.6578 -0.3668 -0.6578
vn 0.5159 -0.6838 -0.5159
vn 0.0000 0.0000 -1.0000
vn 0.0000 0.3668 -0.9303
vn 0.6578 0.3668 -0.6578
vn 0.7071 0.0000 -0.7071
vn 0.0000 0.6838 -0.7296
vn 0.0000 0.9063 -0.4226
vn 0.2988 0.9063 -0.2988
vn 0.5159 0.6838 -0.5159
vn 0.0000 1.0000 0.0000
vn 0.7296 -0.6838 0.0000
vn 0.4226 -0.9063 0.0000
vn 1.0000 0.0000 0.0000
vn 0.9303 -0.3668 0.0000
vn 0.7296 0.6838 0.0000
vn 0.9303 0.3668 0.0000
vn 0.4226 0.9063 0.0000
vn 0.7071 0.0000 0.7071
vn 0.6578 -0.3668 0.6578
vn 0.5159 0.6838 0.5159
vn 0.6578 0.3668 0.6578
vn 0.2988 0.9063 0.2988
vn 0.2988 -0.9063 0.2988
vn 0.5159 -0.6838 0.5159
vn 0.0000 -0.9063 0.4226
vn 0.0000 -0.3668 0.9303
vn 0.0000 -0.6838 0.7296
vn 0.0000 0.3668 0.9303
vn 0.0000 0.0000 1.0000
vn 0.0000 0.9063 0.4226
vn 0.0000 0.6838 0.7296
vn -0.6578 0.3668 0.6578
vn -0.7071 0.0000 0.7071
vn -0.2988 0.9063 0.2988
vn -0.5159 0.6838 0.5159
vn -0.5159 -0.6838 0.5159
vn -0.2988 -0.9063 0.2988
vn -0.6578 -0.3668 0.6578
vn -0.7296 -0.6838 0.0000
vn -0.4226 -0.9063 0.0000
vn -1.0000 0.0000 0.0000
vn -0.9303 -0.3668 0.0000
vn -0.7296 0.6838 0.0000
vn -0.9303 0.3668 0.0000
vn -0.4226 0.9063 0.0000
vn -0.5159 0.6838 -0.5159
vn -0.6578 0.3668 -0.6578
vn -0.2988 0.9063 -0.2988
vn -0.2988 -0.9063 -0.2988
vn -0.6578 -0.3668 -0.6578
vn -0.5159 -0.6838 -0.5159
vn -0.7071 0.0000 -0.7071
usemtl None
s 1
f 51/1/1 7/2/2 14/3/3
f 6/4/4 5/5/5 12/6/6 13/7/7
f 4/8/8 3/9/9 10/10/10 11/11/11
f 2/12/12 1/13/13 8/14/14 9/15/15
f 7/2/2 6/4/4 13/7/7 14/3/3
f 5/5/5 4/8/8 11/11/11 12/6/6
f 3/9/9 2/12/12 9/15/15 10/10/10
f 1/13/13 36/16/16 8/14/14
f 14/3/3 13/7/7 20/17/17 21/18/18
f 12/6/6 11/11/11 18/19/19 19/20/20
f 10/10/10 9/15/15 16/21/21 17/22/22
f 8/14/14 36/23/16 15/24/23
f 51/25/1 14/3/3 21/18/18
f 13/7/7 12/6/6 19/20/20 20/17/17
f 11/11/11 10/10/10 17/22/22 18/19/19
f 9/15/15 8/14/14 15/24/23 16/21/21
f 19/20/20 18/19/19 25/26/24 26/27/25
f 17/22/22 16/21/21 23/28/26 24/29/27
f 15/24/23 36/30/16 22/31/28
f 51/32/1 21/18/18 28/33/29
f 20/17/17 19/20/20 26/27/25 27/34/30
f 18/19/19 17/22/22 24/29/27 25/26/24
f 16/21/21 15/24/23 22/31/28 23/28/26
f 21/18/18 20/17/17 27/34/30 28/33/29
f 51/35/1 28/33/29 35/36/31
f 27/34/30 26/27/25 33/37/32 34/38/33
f 25/26/24 24/29/27 31/39/34 32/40/35
f 23/28/26 22/31/28 29/41/36 30/42/37
f 28/33/29 27/34/30 34/38/33 35/36/31
f 26/27/25 25/26/24 32/40/35 33/37/32
f 24/29/27 23/28/26 30/42/37 31/39/34
f 22/31/28 36/43/16 29/41/36
f 32/40/35 31/39/34 39/44/38 40/45/39
f 30/42/37 29/41/36 37/46/40 38/47/41
f 35/36/31 34/38/33 42/48/42 43/49/43
f 33/37/32 32/40/35 40/45/39 41/50/44
f 31/39/34 30/42/37 38/47/41 39/44/38
f 29/41/36 36/51/16 37/46/40
f 51/52/1 35/36/31 43/49/43
f 34/38/33 33/37/32 41/50/44 42/48/42
f 43/49/43 42/48/42 49/53/45 50/54/46
f 41/50/44 40/45/39 47/55/47 48/56/48
f 39/44/38 38/47/41 45/57/49 46/58/50
f 37/46/40 36/59/16 44/60/51
f 51/61/1 43/49/43 50/54/46
f 42/48/42 41/50/44 48/56/48 49/53/45
f 40/45/39 39/44/38 46/58/50 47/55/47
f 38/47/41 37/46/40 44/60/51 45/57/49
f 46/62/50 45/63/49 53/64/52 54/65/53
f 44/66/51 36/67/16 52/68/54
f 51/69/1 50/70/46 58/71/55
f 49/72/45 48/73/48 56/74/56 57/75/57
f 47/76/47 46/62/50 54/65/53 55/77/58
f 45/63/49 44/66/51 52/68/54 53/64/52
f 50/70/46 49/72/45 57/75/57 58/71/55
f 48/73/48 47/76/47 55/77/58 56/74/56
f 51/78/1 58/71/55 7/2/2
f 57/75/57 56/74/56 5/5/5 6/4/4
f 55/77/58 54/65/53 3/9/9 4/8/8
f 53/64/52 52/68/54 1/13/13 2/12/12
f 58/71/55 57/75/57 6/4/4 7/2/2
f 56/74/56 55/77/58 4/8/8 5/5/5
f 54/65/53 53/64/52 2/12/12 3/9/9
f 52/68/54 36/79/16 1/13/13
