# Blender v3.0.0 OBJ File: ''
# www.blender.org
mtllib shiny.mtl
o mesh-1_meshId1_name.001
v -16.998001 2.365227 5.934570
v -18.233400 2.845697 9.098630
v -15.967799 2.356446 8.149410
v -19.181599 2.854487 7.058590
v -18.261700 1.221677 4.184570
v -20.345699 1.800777 5.446290
v -19.419899 -0.766605 3.369140
v -21.414099 -0.030276 4.695310
v -20.164099 -3.068363 3.706048
v -22.098600 -2.151373 5.005857
v -20.293900 -5.066413 5.105467
v -22.217800 -3.991213 6.293949
v -19.773399 -6.224613 7.191407
v -21.739300 -5.058593 8.215816
v -18.744099 -6.233403 9.406247
v -20.791000 -5.066416 10.256797
v -17.480499 -5.089846 11.156297
v -19.627001 -4.013676 11.868196
v -16.321301 -3.100596 11.971697
v -18.558599 -2.180666 12.619100
v -15.577100 -0.798834 11.634800
v -17.874001 -0.060553 12.309600
v -15.448199 1.197264 10.235400
v -17.754900 1.779294 11.020500
v 18.860399 10.521502 -4.951164
v 22.072300 10.337900 -1.435544
v 23.572300 12.014600 -2.130854
v 18.795900 3.207033 -6.138669
v 16.083000 10.983405 -8.996084
v 16.363300 3.985356 -9.713867
v 14.485399 11.599606 -12.486294
v 14.930699 4.914066 -12.856397
v 14.495100 12.205106 -14.486294
v 15.219700 5.241216 -14.929697
v 16.906300 5.247077 -15.227497
v 12.549800 -1.960934 -14.673800
v 14.600599 -3.510734 -13.040003
v 10.392600 -6.109373 -14.292004
v 12.181600 -7.792964 -12.244102
v 7.359380 -7.957024 -12.876003
v 9.195310 -9.711903 -10.691404
v 26.475599 10.913099 0.634772
v 26.485399 11.519500 -1.363274
v 27.700199 12.332001 1.251956
v 25.939499 3.169923 -3.753909
v 25.650400 2.842770 -1.681638
v 20.136700 -7.002929 -3.033203
v 20.046900 -6.445310 -0.946292
v 17.372099 -9.828130 -1.601566
v 17.484400 -8.740230 0.245114
v 14.485399 -11.187500 0.088861
v 14.585899 -9.973630 1.850584
v 16.110399 12.637706 -14.459994
v 14.196300 13.788108 -15.791995
v 19.538099 4.929697 -13.670896
v 17.095699 -5.759766 -10.108402
v 14.310499 -9.516594 -8.812506
v 11.373000 -11.036096 -7.152346
v 6.356450 -6.243154 -13.120103
v 9.424800 -4.509764 -14.407203
v 9.536130 -3.780264 -12.560503
v 11.378900 -0.871088 -12.465799
v 12.637700 -1.903314 -9.272460
v 23.963900 2.836910 -1.382810
v 18.953100 -5.853520 -0.812503
v 17.080099 -5.085938 -2.606453
v 16.515600 -7.467770 0.128903
v 14.726600 -6.193357 -1.917973
v 13.583000 -8.259769 1.606447
v 10.697300 -4.272457 -9.245123
v 14.708001 -3.375977 -5.649410
v 12.596700 -5.167967 -5.349613
v 11.747100 -6.504880 -0.577151
v 22.111300 12.597706 -8.898435
v 21.817400 13.585902 -8.329094
v 25.077099 12.976603 -3.958004
v 18.325199 13.704105 -12.480494
v 18.898399 12.781304 -12.414094
v 15.536099 13.510708 -15.260694
v 14.196300 13.788108 -15.791995
v 24.860399 10.481400 0.608404
v 26.361300 11.694300 0.554694
v 21.501001 2.901371 -3.042969
v 27.700199 12.332001 1.251956
v 24.887699 12.135702 -4.853514
v 27.230499 12.249001 -0.499017
v 22.410200 4.374026 -10.676797
v 27.700199 12.332001 1.251956
v 24.752899 3.730473 -7.046877
v 11.312500 -0.744135 -14.412100
v 27.713900 15.872100 1.872079
v 26.024399 12.133800 1.474616
v 27.245100 12.350599 1.860356
v 19.763699 12.613302 -5.775384
v 14.210000 17.328106 -15.171891
v 14.029300 13.427706 -13.664995
v 13.742200 13.807609 -15.184594
v 13.309600 -11.577097 -3.206056
v 16.210899 -10.112297 -4.916995
v 19.056599 -6.751947 -6.386723
v 6.457030 -5.028314 -11.358402
v 7.631840 -5.374997 -8.062503
v 9.568359 -6.011719 -4.116213
v -20.293900 -5.066413 5.105467
v -19.877899 -9.471683 3.417967
v -19.773399 -6.224613 7.191407
v -20.267599 -8.302730 1.602537
v -20.343800 -6.751950 0.138669
v -20.164099 -3.068363 3.706048
v -20.110399 -4.933590 -0.886722
v -19.574200 -2.965820 -1.389650
v -19.419899 -0.766605 3.369140
v -18.781300 -0.985352 -1.350590
v -17.777300 0.872070 -0.756836
v -18.261700 1.221677 4.184570
v -16.635700 2.484380 0.334961
v -15.432600 3.734380 1.866213
v 14.210000 17.328106 -15.171891
v 20.079100 12.476603 -6.219724
v 27.713900 15.872100 1.872079
v 16.820299 12.743205 -10.653295
v 14.667001 12.955106 -14.206094
v 26.361300 11.694300 0.554694
v 27.700199 12.332001 1.251956
v 23.572300 12.014600 -2.130854
v -16.998001 2.365227 5.934570
v -14.249001 4.547849 3.719733
v -13.168900 4.854487 5.778323
v -15.967799 2.356446 8.149410
v -12.260699 4.649405 7.896483
v -11.593800 3.931634 9.930662
v -15.448199 1.197264 10.235400
v -11.204100 2.762694 11.746099
v -11.127900 1.211904 13.210899
v -15.577100 -0.798834 11.634800
v -11.361300 -0.605475 14.236300
v -11.896500 -2.573246 14.739300
v -16.321301 -3.100596 11.971697
v -12.690400 -4.554697 14.700197
v -13.694300 -6.412117 14.106397
v -17.480499 -5.089846 11.156297
v -14.835001 -8.025394 13.013697
v -16.039099 -9.275394 11.482394
v -18.744099 -6.233403 9.406247
v -17.221699 -10.087906 9.628904
v -18.301800 -10.394503 7.570304
v -19.209999 -10.189503 5.452146
v 14.667001 12.955106 -14.206094
v 16.820299 12.743205 -10.653295
v 14.667001 12.955106 -14.206094
v 16.820299 12.743205 -10.653295
v 16.820299 12.743205 -10.653295
v 20.079100 12.476603 -6.219724
v 14.196300 13.788108 -15.791995
v 14.667001 12.955106 -14.206094
v 27.713900 15.872100 1.872079
v 21.817400 13.585902 -8.329094
v 14.210000 17.328106 -15.171891
v 27.713900 15.872100 1.872079
v 25.077099 12.976603 -3.958004
v 14.210000 17.328106 -15.171891
v 18.325199 13.704105 -12.480494
v 15.536099 13.510708 -15.260694
v 14.210000 17.328106 -15.171891
v 14.196300 13.788108 -15.791995
v 14.210000 17.328106 -15.171891
v 27.713900 15.872100 1.872079
v 27.230499 12.249001 -0.499017
v 14.196300 13.788108 -15.791995
v 27.700199 12.332001 1.251956
v 27.713900 15.872100 1.872079
v 14.196300 13.788108 -15.791995
v 27.700199 12.332001 1.251956
v 26.361300 11.694300 0.554694
v 26.361300 11.694300 0.554694
v 23.572300 12.014600 -2.130854
v 23.572300 12.014600 -2.130854
v 20.079100 12.476603 -6.219724
vt 1.938480 9.922850
vt 0.425781 10.307600
vt 0.362793 9.923340
vt 1.876950 10.307600
vt 3.305180 9.986330
vt 3.136230 10.366199
vt 4.097660 10.096700
vt 3.866210 10.467800
vt 4.102540 10.224600
vt 3.871090 10.585400
vt 3.319340 10.335400
vt 3.149410 10.688001
vt 1.957520 10.399899
vt 1.895020 10.747100
vt 0.382324 10.400400
vt 0.443359 10.747600
vt -0.984375 10.336900
vt -0.815430 10.689000
vt -1.776370 10.226100
vt -1.544920 10.586900
vt -1.781740 10.098100
vt -1.549800 10.469200
vt -0.998535 9.987300
vt -0.828613 10.367200
vt 0.504395 0.853027
vt 0.383301 0.853027
vt 0.383301 0.958008
vt 0.504395 0.713379
vt 0.666504 0.853027
vt 0.666504 0.713379
vt 0.828125 0.853027
vt 0.828125 0.713379
vt 1.000000 0.853027
vt 1.000000 0.713379
vt 0.828125 0.713379
vt 0.828125 0.468750
vt 0.666504 0.468750
vt 0.828125 0.364258
vt 0.666504 0.364258
vt 0.828125 0.259277
vt 0.666504 0.259277
vt 0.000000 0.853027
vt 0.180664 0.853027
vt 0.000000 0.958008
vt 0.180664 0.713379
vt 0.000000 0.713379
vt 0.180664 0.468750
vt 0.000000 0.468750
vt 0.180664 0.364258
vt 0.000000 0.364258
vt 0.180664 0.259277
vt 0.000000 0.259277
vt 0.828125 0.853027
vt 1.000000 0.958008
vt 0.666504 0.713379
vt 0.504395 0.468750
vt 0.504395 0.364258
vt 0.504395 0.259277
vt 1.000000 0.259277
vt 1.000000 0.364258
vt 0.828125 0.364258
vt 0.828125 0.468750
vt 0.666504 0.468750
vt 0.180664 0.713379
vt 0.180664 0.468750
vt 0.383301 0.468750
vt 0.180664 0.364258
vt 0.383301 0.364258
vt 0.180664 0.259277
vt 0.666504 0.364258
vt 0.504395 0.468750
vt 0.504395 0.364258
vt 0.383301 0.259277
vt 0.504395 0.853027
vt 0.504395 0.958008
vt 0.383301 0.958008
vt 0.666504 0.958008
vt 0.666504 0.853027
vt 0.828125 0.958008
vt 1.000000 0.958008
vt 0.180664 0.853027
vt 0.180664 0.958008
vt 0.383301 0.713379
vt 0.000000 0.958008
vt 0.383301 0.853027
vt 0.180664 0.958008
vt 0.504395 0.713379
vt 0.000000 0.958008
vt 0.383301 0.713379
vt 1.000000 0.468750
vt -2.245120 0.000000
vt -2.060550 0.235352
vt -2.275390 0.235352
vt 0.312500 0.235352
vt 3.212400 0.000000
vt 2.787110 0.235352
vt 3.182130 0.235352
vt 0.383301 0.259277
vt 0.383301 0.364258
vt 0.383301 0.468750
vt 0.828125 0.259277
vt 0.666504 0.259277
vt 0.504395 0.259277
vt 3.319340 10.335400
vt 4.191410 10.164599
vt 1.957520 10.399899
vt 5.358890 10.099600
vt 6.236330 10.013700
vt 4.102540 10.224600
vt 6.772950 9.912600
vt 6.921390 9.803220
vt 4.097660 10.096700
vt 6.683110 9.693359
vt 6.062990 9.589840
vt 3.305180 9.986330
vt 5.113280 9.500490
vt 3.890630 9.431149
vt 3.212400 0.000000
vt 0.355469 0.235352
vt -2.245120 0.000000
vt 1.770020 0.235352
vt 2.834960 0.235352
vt -1.891600 0.235352
vt -2.182130 0.235352
vt -0.958496 0.235352
vt 1.938480 9.922850
vt 2.484380 9.385739
vt 0.986816 9.368649
vt 0.362793 9.923340
vt -0.499023 9.379880
vt -1.870120 9.419920
vt -0.998535 9.987300
vt -3.038090 9.484859
vt -3.915530 9.570800
vt -1.781740 10.098100
vt -4.452150 9.671880
vt -4.600590 9.780760
vt -1.776370 10.226100
vt -4.361820 9.891109
vt -3.742190 9.994140
vt -0.984375 10.336900
vt -2.792480 10.084001
vt -1.569820 10.153299
vt 0.382324 10.400400
vt -0.163574 10.198700
vt 1.333980 10.215799
vt 2.819820 10.204100
vt 0.828125 0.958008
vt 0.666504 0.958008
vt 0.828125 0.958008
vt 0.666504 0.958008
vt 0.666504 0.958008
vt 0.504395 0.958008
vt 1.000000 0.958008
vt 0.828125 0.958008
vt -2.245120 0.000000
vt 0.714355 0.235352
vt 3.212400 0.000000
vt -2.245120 0.000000
vt -0.668945 0.235352
vt 3.212400 0.000000
vt 2.059570 0.235352
vt 3.001950 0.235352
vt 3.212400 0.000000
vt 3.275390 0.235352
vt 3.212400 0.000000
vt -2.245120 0.000000
vt -1.724120 0.235352
vt 3.275390 0.235352
vt -2.182130 0.235352
vt -2.245120 0.000000
vt 1.000000 0.958008
vt 0.000000 0.958008
vt 0.180664 0.958008
vt 0.180664 0.958008
vt 0.383301 0.958008
vt 0.383301 0.958008
vt 0.504395 0.958008
vn 0.0562 0.9508 -0.3046
vn 0.2719 0.9490 0.1596
vn 0.2720 0.9490 0.1596
vn 0.0563 0.9509 -0.3044
vn -0.2088 0.7112 -0.6713
vn -0.2087 0.7112 -0.6713
vn -0.4516 0.2943 -0.8423
vn -0.6076 -0.1881 -0.7717
vn -0.6076 -0.1882 -0.7716
vn -0.6347 -0.6069 -0.4784
vn -0.6346 -0.6068 -0.4785
vn -0.5256 -0.8497 -0.0412
vn -0.5256 -0.8497 -0.0414
vn -0.3098 -0.8516 0.4228
vn -0.3098 -0.8516 0.4229
vn -0.0449 -0.6119 0.7897
vn -0.0450 -0.6119 0.7896
vn 0.1979 -0.1949 0.9607
vn 0.3539 0.2877 0.8899
vn 0.3540 0.2875 0.8900
vn 0.3812 0.7061 0.5967
vn 0.3811 0.7062 0.5967
vn -0.7310 0.3043 0.6107
vn -0.6408 0.2885 0.7115
vn -0.5229 0.6806 0.5132
vn -0.7555 0.2027 0.6230
vn -0.8050 0.3066 0.5079
vn -0.8216 0.2177 0.5269
vn -0.9261 0.2398 0.2913
vn -0.9532 0.2338 0.1915
vn -0.7145 -0.2965 -0.6338
vn -0.6369 0.1255 -0.7606
vn 0.2380 -0.0470 -0.9701
vn 0.1499 -0.1465 -0.9778
vn 0.4871 -0.3665 -0.7927
vn 0.1088 -0.4089 -0.9061
vn 0.3449 -0.6363 -0.6901
vn -0.0686 -0.5375 -0.8405
vn 0.1696 -0.7894 -0.5900
vn 0.6290 -0.5054 0.5907
vn 0.9274 -0.2304 -0.2947
vn 0.7819 -0.5976 -0.1775
vn 0.9509 -0.2628 -0.1636
vn 0.7488 -0.3310 0.5743
vn 0.7942 -0.6043 -0.0637
vn 0.6434 -0.3339 0.6889
vn 0.6100 -0.7854 0.1055
vn 0.5799 -0.2873 0.7624
vn 0.5065 -0.8323 0.2250
vn 0.5376 -0.1841 0.8228
vn 0.4005 -0.1834 -0.8977
vn 0.1751 -0.6066 -0.7755
vn 0.6179 -0.0962 -0.7804
vn 0.6146 -0.4908 -0.6176
vn 0.4196 -0.7757 -0.4715
vn 0.2554 -0.8968 -0.3613
vn -0.4731 0.2909 -0.8316
vn -0.4817 0.2623 -0.8362
vn -0.6690 0.7432 0.0093
vn -0.8262 0.5052 0.2493
vn -0.6987 0.5065 0.5053
vn -0.1721 -0.0600 0.9832
vn -0.1020 0.3560 0.9289
vn -0.4021 0.6051 0.6871
vn 0.1076 0.5802 0.8074
vn -0.0944 0.8517 0.5155
vn 0.2253 0.6468 0.7286
vn -0.4713 0.8088 0.3517
vn -0.5779 0.5707 0.5835
vn -0.3307 0.8623 0.3834
vn 0.0374 0.9195 0.3913
vn 0.7526 0.3292 -0.5703
vn 0.7016 0.5008 -0.5070
vn 0.8201 0.3259 -0.4703
vn 0.6633 0.3751 -0.6476
vn 0.6733 0.2549 -0.6940
vn 0.3060 -0.5008 -0.8096
vn 0.1871 -0.5943 -0.7822
vn -0.3567 0.1444 0.9230
vn -0.4825 0.6243 0.6144
vn -0.6416 0.1419 0.7538
vn 0.1132 -0.4769 0.8717
vn 0.8495 0.2115 -0.4834
vn 0.8268 -0.5012 -0.2555
vn 0.7677 -0.1244 -0.6286
vn 0.7881 -0.5875 -0.1836
vn 0.8662 -0.1795 -0.4663
vn -0.7040 0.3784 -0.6010
vn -0.6608 0.2441 0.7098
vn -0.6027 0.1900 0.7751
vn -0.3072 0.0377 0.9509
vn -0.7262 0.3288 0.6038
vn -0.8203 0.2548 0.5121
vn -0.8542 0.2213 0.4704
vn -0.9682 0.1279 0.2149
vn 0.3636 -0.9185 -0.1553
vn 0.5072 -0.8254 -0.2479
vn 0.7183 -0.5732 -0.3942
vn -0.4057 0.9048 -0.1294
vn -0.2495 0.9406 0.2301
vn -0.1769 0.9494 0.2597
vn -0.9951 -0.0615 0.0778
vn -0.9700 -0.1767 0.1669
vn -0.9284 -0.2296 0.2923
vn -0.9946 -0.0800 0.0664
vn -0.9990 0.0413 -0.0165
vn -0.9827 0.1745 -0.0626
vn -0.9826 0.1676 -0.0796
vn -0.9467 0.2987 -0.1204
vn -0.8956 0.4283 -0.1201
vn -0.8905 0.4328 -0.1405
vn -0.8212 0.5559 -0.1288
vn -0.7475 0.6608 -0.0673
vn -0.7342 0.6730 -0.0894
vn -0.6525 0.7577 -0.0099
vn -0.8626 0.0730 0.5007
vn -0.7590 0.2024 0.6188
vn -0.6727 0.0458 0.7385
vn -0.8091 0.1086 0.5776
vn -0.8971 0.0038 0.4419
vn -0.6177 -0.0475 0.7850
vn -0.3963 -0.1569 0.9046
vn -0.7373 0.0979 0.6684
vn -0.5916 0.7982 0.1138
vn -0.5702 0.8159 0.0963
vn -0.5133 0.8266 0.2309
vn -0.4939 0.7862 0.3713
vn -0.4717 0.8029 0.3645
vn -0.4580 0.7355 0.4993
vn -0.4745 0.6367 0.6078
vn -0.4561 0.6477 0.6103
vn -0.4709 0.5342 0.7021
vn -0.5080 0.4094 0.7578
vn -0.4925 0.4100 0.7677
vn -0.5232 0.2766 0.8061
vn -0.5739 0.1469 0.8056
vn -0.5602 0.1348 0.8173
vn -0.6066 0.0030 0.7950
vn -0.6747 -0.1041 0.7307
vn -0.6605 -0.1270 0.7400
vn -0.7255 -0.2183 0.6527
vn -0.8049 -0.2515 0.5375
vn -0.7933 -0.2821 0.5396
vn -0.8648 -0.2871 0.4120
vn -0.9231 -0.2567 0.2862
vn -0.6692 0.6163 0.4151
vn -0.5677 0.6778 0.4672
vn -0.6266 0.6571 0.4190
vn -0.5815 0.6658 0.4675
vn -0.4686 0.7172 0.5158
vn 0.7042 0.4875 -0.5163
vn 0.7135 0.4622 -0.5265
vn 0.7722 0.3563 -0.5262
vn 0.7890 0.3277 -0.5196
vn 0.6747 0.2505 -0.6943
vn 0.7078 0.3466 -0.6155
vn 0.5755 0.2183 -0.7881
vn 0.7152 0.3732 -0.5910
vn 0.3920 0.1573 -0.9064
vn 0.8497 0.2046 -0.4859
vn 0.8959 0.1533 -0.4169
vn -0.9637 -0.0425 0.2637
vn 0.9645 0.0419 -0.2607
vn -0.9655 -0.2480 -0.0798
vn -0.5599 0.7117 0.4243
vn -0.6407 0.2885 0.7115
vn -0.4770 0.6650 0.5747
vn -0.5263 0.6688 0.5252
usemtl m0almi_mat_v
s 1
f 1/1/1 2/2/2 3/3/3
f 1/1/1 4/4/4 2/2/2
f 5/5/5 4/4/4 1/1/1
f 5/5/5 6/6/6 4/4/4
f 7/7/7 6/6/6 5/5/5
f 7/7/7 8/8/7 6/6/6
f 9/9/8 8/8/7 7/7/7
f 9/9/8 10/10/9 8/8/7
f 11/11/10 10/10/9 9/9/8
f 11/11/10 12/12/11 10/10/9
f 13/13/12 12/12/11 11/11/10
f 13/13/12 14/14/13 12/12/11
f 15/15/14 14/14/13 13/13/12
f 15/15/14 16/16/15 14/14/13
f 17/17/16 16/16/15 15/15/14
f 17/17/16 18/18/17 16/16/15
f 19/19/18 18/18/17 17/17/16
f 19/19/18 20/20/18 18/18/17
f 21/21/19 20/20/18 19/19/18
f 21/21/19 22/22/20 20/20/18
f 23/23/21 22/22/20 21/21/19
f 23/23/21 24/24/22 22/22/20
f 3/3/3 24/24/22 23/23/21
f 3/3/3 2/2/2 24/24/22
f 25/25/23 26/26/24 27/27/25
f 25/25/23 28/28/26 26/26/24
f 29/29/27 28/28/26 25/25/23
f 29/29/27 30/30/28 28/28/26
f 31/31/29 30/30/28 29/29/27
f 31/31/29 32/32/30 30/30/28
f 33/33/31 32/32/30 31/31/29
f 33/33/31 34/34/32 32/32/30
f 35/35/33 34/34/32 33/33/31
f 35/35/33 36/36/34 34/34/32
f 37/37/35 36/36/34 35/35/33
f 37/37/35 38/38/36 36/36/34
f 39/39/37 38/38/36 37/37/35
f 39/39/37 40/40/38 38/38/36
f 41/41/39 40/40/38 39/39/37
f 42/42/40 43/43/41 44/44/42
f 42/42/40 45/45/43 43/43/41
f 46/46/44 45/45/43 42/42/40
f 46/46/44 47/47/45 45/45/43
f 48/48/46 47/47/45 46/46/44
f 48/48/46 49/49/47 47/47/45
f 50/50/48 49/49/47 48/48/46
f 50/50/48 51/51/49 49/49/47
f 52/52/50 51/51/49 50/50/48
f 53/53/51 33/33/31 54/54/52
f 53/53/51 35/35/33 33/33/31
f 55/55/53 35/35/33 53/53/51
f 55/55/53 37/37/35 35/35/33
f 56/56/54 37/37/35 55/55/53
f 56/56/54 39/39/37 37/37/35
f 57/57/55 39/39/37 56/56/54
f 57/57/55 41/41/39 39/39/37
f 58/58/56 41/41/39 57/57/55
f 59/59/57 38/38/36 40/40/38
f 59/59/57 60/60/58 38/38/36
f 61/61/59 60/60/58 59/59/57
f 61/61/59 62/62/60 60/60/58
f 63/63/61 62/62/60 61/61/59
f 63/63/61 32/32/30 62/62/60
f 30/30/28 32/32/30 63/63/61
f 64/64/62 46/46/44 42/42/40
f 64/64/62 65/65/63 46/46/44
f 66/66/64 65/65/63 64/64/62
f 66/66/64 67/67/65 65/65/63
f 68/68/66 67/67/65 66/66/64
f 68/68/66 69/69/67 67/67/65
f 70/70/68 63/63/61 61/61/59
f 70/70/68 71/71/69 63/63/61
f 72/72/70 71/71/69 70/70/68
f 72/72/70 68/68/66 71/71/69
f 73/73/71 68/68/66 72/72/70
f 73/73/71 69/69/67 68/68/66
f 74/74/72 75/75/73 76/76/74
f 74/74/72 77/77/75 75/75/73
f 78/78/76 77/77/75 74/74/72
f 78/78/76 79/79/77 77/77/75
f 53/53/51 79/79/77 78/78/76
f 53/53/51 80/80/78 79/79/77
f 26/26/24 81/81/79 82/82/80
f 26/26/24 83/83/81 81/81/79
f 28/28/26 83/83/81 26/26/24
f 28/28/26 71/71/69 83/83/81
f 30/30/28 71/71/69 28/28/26
f 30/30/28 63/63/61 71/71/69
f 81/81/79 42/42/40 84/84/82
f 81/81/79 64/64/62 42/42/40
f 83/83/81 64/64/62 81/81/79
f 83/83/81 66/66/64 64/64/62
f 71/71/69 66/66/64 83/83/81
f 71/71/69 68/68/66 66/66/64
f 85/85/83 76/76/74 86/86/84
f 85/85/83 74/74/72 76/76/74
f 87/87/85 74/74/72 85/85/83
f 87/87/85 78/78/76 74/74/72
f 55/55/53 78/78/76 87/87/85
f 55/55/53 53/53/51 78/78/76
f 43/43/41 86/86/84 88/88/86
f 43/43/41 85/85/83 86/86/84
f 89/89/87 85/85/83 43/43/41
f 89/89/87 87/87/85 85/85/83
f 56/56/54 87/87/85 89/89/87
f 56/56/54 55/55/53 87/87/85
f 60/60/58 36/36/34 38/38/36
f 60/60/58 90/90/88 36/36/34
f 62/62/60 90/90/88 60/60/58
f 62/62/60 34/34/32 90/90/88
f 32/32/30 34/34/32 62/62/60
f 91/91/89 92/92/90 93/93/91
f 91/91/89 94/94/92 92/92/90
f 95/95/93 94/94/92 91/91/89
f 95/95/93 96/96/94 94/94/92
f 97/97/95 96/96/94 95/95/93
f 98/98/96 49/49/47 51/51/49
f 98/98/96 99/99/97 49/49/47
f 58/58/56 99/99/97 98/98/96
f 58/58/56 57/57/55 99/99/97
f 99/99/97 47/47/45 49/49/47
f 99/99/97 100/100/98 47/47/45
f 57/57/55 100/100/98 99/99/97
f 57/57/55 56/56/54 100/100/98
f 101/101/99 61/61/59 59/59/57
f 101/101/99 70/70/68 61/61/59
f 102/102/100 70/70/68 101/101/99
f 102/102/100 103/103/101 70/70/68
f 89/89/87 100/100/98 56/56/54
f 89/89/87 45/45/43 100/100/98
f 43/43/41 45/45/43 89/89/87
f 104/104/102 105/105/103 106/106/104
f 104/104/102 107/107/105 105/105/103
f 108/108/106 107/107/105 104/104/102
f 109/109/107 108/108/106 104/104/102
f 109/109/107 110/110/108 108/108/106
f 111/111/109 110/110/108 109/109/107
f 112/112/110 111/111/109 109/109/107
f 112/112/110 113/113/111 111/111/109
f 114/114/112 113/113/111 112/112/110
f 115/115/113 114/114/112 112/112/110
f 115/115/113 116/116/114 114/114/112
f 117/117/115 116/116/114 115/115/113
f 118/118/116 119/119/117 120/120/118
f 118/118/116 121/121/119 119/119/117
f 122/122/120 121/121/119 118/118/116
f 120/120/118 123/123/121 124/124/122
f 120/120/118 125/125/123 123/123/121
f 119/119/117 125/125/123 120/120/118
f 126/126/124 117/117/115 115/115/113
f 126/126/124 127/127/125 117/117/115
f 128/128/126 127/127/125 126/126/124
f 129/129/127 128/128/126 126/126/124
f 129/129/127 130/130/128 128/128/126
f 131/131/129 130/130/128 129/129/127
f 132/132/130 131/131/129 129/129/127
f 132/132/130 133/133/131 131/131/129
f 134/134/132 133/133/131 132/132/130
f 135/135/133 134/134/132 132/132/130
f 135/135/133 136/136/134 134/134/132
f 137/137/135 136/136/134 135/135/133
f 138/138/136 137/137/135 135/135/133
f 138/138/136 139/139/137 137/137/135
f 140/140/138 139/139/137 138/138/136
f 141/141/139 140/140/138 138/138/136
f 141/141/139 142/142/140 140/140/138
f 143/143/141 142/142/140 141/141/139
f 144/144/142 143/143/141 141/141/139
f 144/144/142 145/145/143 143/143/141
f 146/146/144 145/145/143 144/144/142
f 147/147/145 106/106/104 105/105/103
f 147/147/145 146/146/144 106/106/104
f 103/103/101 72/72/70 70/70/68
f 103/103/101 73/73/71 72/72/70
f 52/52/50 67/67/65 69/69/67
f 52/52/50 50/50/48 67/67/65
f 50/50/48 65/65/63 67/67/65
f 50/50/48 48/48/46 65/65/63
f 31/31/29 29/29/27 148/148/146
f 29/29/27 25/25/23 149/149/147
f 100/100/98 45/45/43 47/47/45
f 146/146/144 144/144/142 106/106/104
f 150/150/148 29/29/27 151/151/148
f 152/152/149 25/25/23 153/153/149
f 34/34/32 36/36/34 90/90/88
f 154/154/150 31/31/29 155/155/150
f 156/156/151 157/157/152 158/158/151
f 159/159/153 160/160/154 157/157/152
f 161/161/155 162/162/156 163/163/157
f 164/164/158 157/157/152 162/162/156
f 163/163/157 165/165/159 166/166/159
f 167/167/160 168/168/161 160/160/154
f 169/169/162 122/122/120 118/118/116
f 170/170/163 168/168/161 171/171/163
f 33/33/31 31/31/29 172/172/164
f 46/46/44 65/65/63 48/48/46
f 81/81/79 173/173/165 174/174/165
f 26/26/166 175/175/167 176/176/167
f 25/25/23 177/177/168 178/178/168
