# Blender v3.0.0 OBJ File: ''
# www.blender.org
mtllib durable_top.mtl
o mesh-1_meshId1_name.003
v -10.132800 48.201923 -3.687493
v -8.826170 48.231224 -1.580073
v -10.783199 48.201923 0.000007
v -8.826170 48.231224 1.531257
v -10.132800 48.201923 3.687507
v -7.761720 48.231224 4.455087
v -8.259769 48.201923 6.929697
v -5.761720 48.231224 6.837897
v -5.390630 48.201923 9.337897
v -3.066410 48.231224 8.394537
v -1.871090 48.201923 10.619107
v -0.001953 48.231224 8.935557
v 1.871090 48.201923 10.619107
v 3.060550 48.231224 8.394537
v 5.390630 48.201923 9.337897
v 5.755860 48.231224 6.837897
v 8.259769 48.201923 6.929697
v 7.755860 48.231224 4.455087
v 10.132800 48.201923 3.687507
v 8.820310 48.231224 1.531257
v 10.783199 48.201923 0.000007
v 8.820310 48.231224 -1.580073
v 10.132800 48.201923 -3.687493
v 7.755860 48.231224 -4.503903
v 8.259769 48.201923 -6.929683
v 5.755860 48.231224 -6.886713
v 5.390630 48.201923 -9.337882
v 3.060550 48.231224 -8.443352
v 1.871090 48.201923 -10.619092
v -0.001953 48.231224 -8.984372
v -1.871090 48.201923 -10.619092
v -3.066410 48.231224 -8.443352
v -5.390630 48.201923 -9.337882
v -5.761720 48.231224 -6.886713
v -8.259769 48.201923 -6.929683
v -7.761720 48.231224 -4.503903
v 2.339840 48.832825 -2.816402
v 6.197270 48.451923 -5.236323
v 3.154300 48.832825 -1.847653
v 7.605470 48.451923 -2.798823
v 3.587890 48.832825 -0.656243
v 8.093750 48.451923 -0.025383
v 3.587890 48.832825 0.607429
v 7.605470 48.451923 2.744147
v 3.154300 48.832825 1.798837
v 6.197270 48.451923 5.183597
v 2.339840 48.832825 2.767587
v 4.041020 48.451923 6.992197
v 1.244140 48.832825 3.402347
v 1.394530 48.451923 7.955087
v -0.001953 48.832825 3.621097
v -1.417970 48.451923 7.955087
v -0.642578 48.832825 3.564457
v -4.064450 48.451923 6.992197
v -2.345700 48.832825 2.767587
v -6.220700 48.451923 5.183597
v -3.160160 48.832825 1.798837
v -7.628910 48.451923 2.744147
v -3.593750 48.832825 0.607429
v -8.117189 48.451923 -0.025383
v -3.593750 48.832825 -0.656243
v -7.628910 48.451923 -2.798823
v -3.160160 48.832825 -1.847653
v -6.220700 48.451923 -5.236323
v -2.345700 48.832825 -2.816402
v -4.064450 48.451923 -7.046873
v -1.248050 48.832825 -3.451163
v -1.417970 48.451923 -8.009762
v -0.001953 48.832825 -3.669913
v 1.394530 48.451923 -8.009762
v 1.244140 48.832825 -3.451163
v 4.041020 48.451923 -7.046873
v 2.339840 48.832825 2.767587
v 2.402340 49.797726 1.998057
v 3.154300 48.832825 1.798837
v 2.949220 49.797726 1.048838
v 3.587890 48.832825 0.607429
v 3.138670 49.797726 -0.025383
v 3.587890 48.832825 -0.656243
v 2.949220 49.797726 -1.103512
v 3.154300 48.832825 -1.847653
v 2.402340 49.797726 -2.050773
v 2.339840 48.832825 -2.816402
v 1.562500 49.797726 -2.753902
v 1.244140 48.832825 -3.451163
v 0.535156 49.797726 -3.128902
v -0.001953 48.832825 -3.669913
v -0.556641 49.797726 -3.128902
v -1.248050 48.832825 -3.451163
v -1.583980 49.797726 -2.753902
v -2.345700 48.832825 -2.816402
v -2.423830 49.797726 -2.050773
v -3.160160 48.832825 -1.847653
v -2.970700 49.797726 -1.103512
v -3.593750 48.832825 -0.656243
v -3.160160 49.797726 -0.025383
v -3.593750 48.832825 0.607429
v -2.970700 49.797726 1.048838
v -3.160160 48.832825 1.798837
v -2.423830 49.797726 1.998057
v -2.345700 48.832825 2.767587
v -1.583980 49.797726 2.701177
v -0.642578 48.832825 3.564457
v -0.556641 49.797726 3.074227
v -0.001953 48.832825 3.621097
v 0.535156 49.797726 3.074227
v 1.244140 48.832825 3.402347
v 1.562500 49.797726 2.701177
v -1.417970 48.451923 7.955087
v -3.066410 48.231224 8.394537
v -4.064450 48.451923 6.992197
v -5.761720 48.231224 6.837897
v -6.220700 48.451923 5.183597
v -7.761720 48.231224 4.455087
v -7.628910 48.451923 2.744147
v -8.826170 48.231224 1.531257
v -8.117189 48.451923 -0.025383
v -8.826170 48.231224 -1.580073
v -7.628910 48.451923 -2.798823
v -7.761720 48.231224 -4.503903
v -6.220700 48.451923 -5.236323
v -5.761720 48.231224 -6.886713
v -4.064450 48.451923 -7.046873
v -3.066410 48.231224 -8.443352
v -1.417970 48.451923 -8.009762
v -0.001953 48.231224 -8.984372
v 1.394530 48.451923 -8.009762
v 3.060550 48.231224 -8.443352
v 4.041020 48.451923 -7.046873
v 5.755860 48.231224 -6.886713
v 6.197270 48.451923 -5.236323
v 7.755860 48.231224 -4.503903
v 7.605470 48.451923 -2.798823
v 8.820310 48.231224 -1.580073
v 8.093750 48.451923 -0.025383
v 8.820310 48.231224 1.531257
v 7.605470 48.451923 2.744147
v 7.755860 48.231224 4.455087
v 6.197270 48.451923 5.183597
v 5.755860 48.231224 6.837897
v 4.041020 48.451923 6.992197
v 3.060550 48.231224 8.394537
v 1.394530 48.451923 7.955087
v -0.001953 48.231224 8.935557
v -2.970700 49.797726 -1.103512
v -2.423830 49.797726 -2.050773
v -0.009766 49.989124 -0.025383
v -1.583980 49.797726 -2.753902
v -0.556641 49.797726 -3.128902
v -3.160160 49.797726 -0.025383
v -2.970700 49.797726 1.048838
v -2.423830 49.797726 1.998057
v -1.583980 49.797726 2.701177
v -0.556641 49.797726 3.074227
v 0.535156 49.797726 3.074227
v 1.562500 49.797726 2.701177
v 2.402340 49.797726 1.998057
v 2.949220 49.797726 1.048838
v 3.138670 49.797726 -0.025383
v 2.949220 49.797726 -1.103512
v 2.402340 49.797726 -2.050773
v 1.562500 49.797726 -2.753902
v 0.535156 49.797726 -3.128902
vt 0.000366 0.982910
vt 0.181519 0.856079
vt 0.181519 0.836429
vt 0.060669 0.656128
vt 0.280273 0.584839
vt 0.234375 0.355347
vt 0.465820 0.363647
vt 0.500366 0.132202
vt 0.715820 0.219238
vt 0.826782 0.013428
vt 0.999640 0.169189
vt 0.825690 0.013428
vt 0.715210 0.219238
vt 0.499390 0.132202
vt 0.465210 0.363647
vt 0.233280 0.355347
vt 0.279670 0.584839
vt 0.059700 0.656128
vt 0.180910 0.856079
vt -0.000610 0.982910
vt 0.180910 0.836429
vt 0.059700 0.640989
vt 0.279670 0.565059
vt 0.233280 0.340209
vt 0.465210 0.343869
vt 0.499390 0.116939
vt 0.715210 0.199589
vt 0.825690 -0.001831
vt 0.999640 0.149409
vt 0.826782 -0.001831
vt 0.715820 0.199589
vt 0.500366 0.116939
vt 0.465820 0.343869
vt 0.234375 0.340209
vt 0.280273 0.565059
vt 0.060669 0.640989
vt 0.706550 0.811519
vt 0.424320 0.497069
vt 0.782110 0.721559
vt 0.293710 0.723269
vt 0.666390 0.921999
vt 0.248300 0.980469
vt 0.666390 0.941650
vt 0.293710 0.743408
vt 0.706550 0.831299
vt 0.424320 0.517212
vt 0.782110 0.741333
vt 0.624390 0.349365
vt 0.883920 0.682495
vt 0.869880 0.260010
vt 0.999640 0.662109
vt 0.868652 0.260010
vt 0.940674 0.667480
vt 0.623169 0.349365
vt 0.782715 0.741333
vt 0.423096 0.517212
vt 0.707153 0.831299
vt 0.292480 0.743408
vt 0.666992 0.941650
vt 0.247192 0.980469
vt 0.666992 0.921999
vt 0.292480 0.723269
vt 0.707153 0.811519
vt 0.423096 0.497069
vt 0.782715 0.721559
vt 0.623169 0.329099
vt 0.884399 0.662839
vt 0.868652 0.239749
vt 0.999640 0.642329
vt 0.869880 0.239749
vt 0.883920 0.662839
vt 0.624390 0.329099
vt 0.706550 0.831299
vt 0.776490 0.812744
vt 0.782110 0.741333
vt 0.725710 0.900757
vt 0.666390 0.941650
vt 0.708130 0.980589
vt 0.666390 0.921999
vt 0.725710 0.880619
vt 0.706550 0.811519
vt 0.776490 0.792599
vt 0.782110 0.721559
vt 0.854250 0.727419
vt 0.883920 0.662839
vt 0.949590 0.692749
vt 0.999640 0.642329
vt 0.948608 0.692749
vt 0.884399 0.662839
vt 0.853271 0.727419
vt 0.782715 0.721559
vt 0.775513 0.792599
vt 0.707153 0.811519
vt 0.724731 0.880619
vt 0.666992 0.921999
vt 0.707153 0.980589
vt 0.666992 0.941650
vt 0.724731 0.900757
vt 0.707153 0.831299
vt 0.775513 0.812744
vt 0.782715 0.741333
vt 0.853271 0.747559
vt 0.940674 0.667480
vt 0.948608 0.712891
vt 0.999640 0.662109
vt 0.949590 0.712891
vt 0.883920 0.682495
vt 0.854250 0.747559
vt 0.623169 0.349365
vt 0.715820 0.219238
vt 0.868652 0.260010
vt 0.465820 0.363647
vt 0.423096 0.517212
vt 0.280273 0.584839
vt 0.292480 0.743408
vt 0.181519 0.856079
vt 0.247192 0.980469
vt 0.181519 0.836429
vt 0.292480 0.723269
vt 0.280273 0.565059
vt 0.423096 0.497069
vt 0.465820 0.343869
vt 0.623169 0.329099
vt 0.715820 0.199589
vt 0.868652 0.239749
vt 0.999640 0.149409
vt 0.869880 0.239749
vt 0.715210 0.199589
vt 0.624390 0.329099
vt 0.465210 0.343869
vt 0.424320 0.497069
vt 0.279670 0.565059
vt 0.293710 0.723269
vt 0.180910 0.836429
vt 0.248300 0.980469
vt 0.180910 0.856079
vt 0.293710 0.743408
vt 0.279670 0.584839
vt 0.424320 0.517212
vt 0.465210 0.363647
vt 0.624390 0.349365
vt 0.715210 0.219238
vt 0.869880 0.260010
vt 0.999640 0.169189
vt 1.000370 0.980589
vt 0.775513 0.792599
vt 0.724731 0.880619
vt 0.853271 0.727419
vt 0.948608 0.692749
vt 0.707153 0.980589
vt 0.724731 0.900757
vt 0.775513 0.812744
vt 0.853271 0.747559
vt 0.948608 0.712891
vt 0.949590 0.712891
vt 0.854250 0.747559
vt 0.776490 0.812744
vt 0.725710 0.900757
vt 0.708130 0.980589
vt 0.725710 0.880619
vt 0.776490 0.792599
vt 0.854250 0.727419
vt 0.949590 0.692749
vn -0.0150 0.9999 0.0000
vn -0.0140 0.9999 0.0051
vn -0.0114 0.9999 0.0095
vn -0.0074 0.9999 0.0128
vn -0.0026 0.9999 0.0145
vn 0.0026 0.9999 0.0145
vn 0.0074 0.9999 0.0128
vn 0.0114 0.9999 0.0095
vn 0.0140 0.9999 0.0051
vn 0.0149 0.9999 0.0000
vn 0.0141 0.9999 -0.0051
vn 0.0115 0.9999 -0.0097
vn 0.0076 0.9999 -0.0131
vn 0.0026 0.9999 -0.0149
vn -0.0026 0.9999 -0.0149
vn -0.0076 0.9999 -0.0131
vn -0.0116 0.9999 -0.0097
vn -0.0141 0.9999 -0.0051
vn -0.0162 0.9998 0.0000
vn -0.0159 0.9998 -0.0028
vn -0.0153 0.9998 -0.0056
vn -0.0152 0.9998 0.0055
vn -0.0159 0.9998 0.0028
vn -0.0123 0.9998 0.0103
vn -0.0139 0.9998 0.0080
vn -0.0080 0.9998 0.0139
vn -0.0103 0.9998 0.0122
vn -0.0028 0.9998 0.0157
vn -0.0054 0.9998 0.0150
vn 0.0028 0.9998 0.0157
vn 0.0000 0.9998 0.0159
vn 0.0080 0.9998 0.0139
vn 0.0054 0.9998 0.0150
vn 0.0123 0.9998 0.0103
vn 0.0103 0.9998 0.0122
vn 0.0151 0.9998 0.0055
vn 0.0139 0.9998 0.0080
vn 0.0162 0.9998 0.0000
vn 0.0158 0.9998 0.0028
vn 0.0153 0.9998 -0.0055
vn 0.0159 0.9998 -0.0028
vn 0.0125 0.9998 -0.0105
vn 0.0140 0.9998 -0.0081
vn 0.0082 0.9998 -0.0142
vn 0.0105 0.9998 -0.0125
vn 0.0028 0.9998 -0.0161
vn 0.0056 0.9998 -0.0154
vn -0.0028 0.9998 -0.0162
vn 0.0000 0.9998 -0.0164
vn -0.0082 0.9998 -0.0142
vn -0.0056 0.9998 -0.0154
vn -0.0125 0.9998 -0.0105
vn -0.0105 0.9998 -0.0125
vn -0.0141 0.9998 -0.0081
vn 0.0725 0.9965 -0.0419
vn 0.0659 0.9963 -0.0553
vn 0.0538 0.9965 -0.0641
vn 0.0809 0.9963 -0.0295
vn 0.0825 0.9965 -0.0145
vn 0.0861 0.9963 0.0000
vn 0.0825 0.9965 0.0145
vn 0.0809 0.9963 0.0295
vn 0.0725 0.9965 0.0419
vn 0.0660 0.9963 0.0554
vn 0.0539 0.9965 0.0641
vn 0.0430 0.9963 0.0746
vn 0.0287 0.9965 0.0786
vn 0.0149 0.9963 0.0847
vn 0.0031 0.9964 0.0846
vn -0.0151 0.9963 0.0843
vn -0.0211 0.9965 0.0811
vn -0.0424 0.9963 0.0740
vn -0.0505 0.9966 0.0654
vn -0.0658 0.9963 0.0552
vn -0.0723 0.9965 0.0418
vn -0.0806 0.9963 0.0293
vn -0.0822 0.9965 0.0145
vn -0.0858 0.9963 0.0000
vn -0.0822 0.9965 -0.0145
vn -0.0806 0.9963 -0.0293
vn -0.0722 0.9965 -0.0417
vn -0.0657 0.9963 -0.0551
vn -0.0537 0.9965 -0.0640
vn -0.0429 0.9963 -0.0743
vn -0.0285 0.9965 -0.0785
vn -0.0149 0.9963 -0.0846
vn 0.0000 0.9965 -0.0836
vn 0.0149 0.9963 -0.0846
vn 0.0286 0.9965 -0.0786
vn 0.0430 0.9963 -0.0745
vn 0.7739 0.4487 0.4468
vn 0.6735 0.4756 0.5659
vn 0.5750 0.4476 0.6849
vn 0.8263 0.4765 0.3004
vn 0.8799 0.4491 0.1551
vn 0.8792 0.4765 0.0001
vn 0.8803 0.4485 -0.1548
vn 0.8267 0.4753 -0.3010
vn 0.7747 0.4469 -0.4472
vn 0.6740 0.4736 -0.5669
vn 0.5758 0.4454 -0.6856
vn 0.4405 0.4724 -0.7634
vn 0.3075 0.4439 -0.8416
vn 0.1526 0.4701 -0.8693
vn 0.0006 0.4410 -0.8975
vn -0.1540 0.4679 -0.8702
vn -0.3069 0.4396 -0.8441
vn -0.4428 0.4664 -0.7658
vn -0.5774 0.4378 -0.6891
vn -0.6779 0.4650 -0.5693
vn -0.7787 0.4369 -0.4501
vn -0.8321 0.4647 -0.3026
vn -0.8858 0.4371 -0.1559
vn -0.8852 0.4652 0.0001
vn -0.8854 0.4377 0.1563
vn -0.8317 0.4659 0.3020
vn -0.7780 0.4387 0.4498
vn -0.6775 0.4669 0.5683
vn -0.5600 0.4273 0.7098
vn -0.4343 0.4325 0.7901
vn -0.2118 0.4398 0.8727
vn -0.1668 0.4720 0.8657
vn 0.0266 0.4575 0.8888
vn 0.1518 0.4740 0.8673
vn 0.3064 0.4473 0.8402
vn 0.4395 0.4751 0.7624
vn -0.1339 0.9635 0.2318
vn -0.0830 0.9701 0.2282
vn -0.0463 0.9639 0.2622
vn -0.1566 0.9698 0.1868
vn -0.2059 0.9632 0.1727
vn -0.2116 0.9697 0.1222
vn -0.2532 0.9630 0.0921
vn -0.2411 0.9695 0.0425
vn -0.2698 0.9629 0.0000
vn -0.2412 0.9695 -0.0425
vn -0.2538 0.9628 -0.0924
vn -0.2121 0.9695 -0.1225
vn -0.2066 0.9629 -0.1733
vn -0.1573 0.9696 -0.1874
vn -0.1347 0.9630 -0.2333
vn -0.0834 0.9697 -0.2295
vn -0.0467 0.9633 -0.2641
vn 0.0001 0.9699 -0.2434
vn 0.0464 0.9636 -0.2631
vn 0.0831 0.9701 -0.2280
vn 0.1332 0.9638 -0.2307
vn 0.1556 0.9703 -0.1853
vn 0.2030 0.9642 -0.1705
vn 0.2089 0.9705 -0.1206
vn 0.2485 0.9644 -0.0905
vn 0.2372 0.9705 -0.0417
vn 0.2639 0.9645 0.0000
vn 0.2370 0.9706 0.0418
vn 0.2479 0.9645 0.0902
vn 0.2084 0.9706 0.1203
vn 0.2023 0.9644 0.1699
vn 0.1550 0.9705 0.1847
vn 0.1323 0.9643 0.2293
vn 0.0826 0.9704 0.2268
vn 0.0460 0.9642 0.2612
vn 0.0001 0.9703 0.2419
vn 0.0000 1.0000 0.0000
vn -0.0464 0.9981 -0.0390
vn -0.0569 0.9981 -0.0207
vn -0.0303 0.9981 -0.0525
vn -0.0105 0.9981 -0.0597
vn -0.0606 0.9981 0.0000
vn -0.0570 0.9981 0.0207
vn -0.0464 0.9981 0.0390
vn -0.0303 0.9981 0.0526
vn -0.0105 0.9981 0.0598
vn 0.0105 0.9981 0.0598
vn 0.0303 0.9981 0.0526
vn 0.0465 0.9981 0.0390
vn 0.0570 0.9981 0.0207
vn 0.0607 0.9981 0.0000
vn 0.0570 0.9981 -0.0207
vn 0.0464 0.9981 -0.0390
vn 0.0303 0.9981 -0.0525
vn 0.0105 0.9981 -0.0597
usemtl m0kanagu_mat
s off
f 3/1/1 4/2/1 2/3/1
f 5/4/2 6/5/2 4/2/2
f 7/6/3 8/7/3 6/5/3
f 9/8/4 10/9/4 8/7/4
f 11/10/5 12/11/5 10/9/5
f 13/12/6 14/13/6 12/11/6
f 15/14/7 16/15/7 14/13/7
f 17/16/8 18/17/8 16/15/8
f 19/18/9 20/19/9 18/17/9
f 21/20/10 22/21/10 20/19/10
f 23/22/11 24/23/11 22/21/11
f 25/24/12 26/25/12 24/23/12
f 27/26/13 28/27/13 26/25/13
f 29/28/14 30/29/14 28/27/14
f 31/30/15 32/31/15 30/29/15
f 33/32/16 34/33/16 32/31/16
f 35/34/17 36/35/17 34/33/17
f 1/36/18 2/3/18 36/35/18
s 1
f 3/1/19 2/3/20 1/36/21
f 5/4/22 4/2/23 3/1/19
f 7/6/24 6/5/25 5/4/22
f 9/8/26 8/7/27 7/6/24
f 11/10/28 10/9/29 9/8/26
f 13/12/30 12/11/31 11/10/28
f 15/14/32 14/13/33 13/12/30
f 17/16/34 16/15/35 15/14/32
f 19/18/36 18/17/37 17/16/34
f 21/20/38 20/19/39 19/18/36
f 23/22/40 22/21/41 21/20/38
f 25/24/42 24/23/43 23/22/40
f 27/26/44 26/25/45 25/24/42
f 29/28/46 28/27/47 27/26/44
f 31/30/48 30/29/49 29/28/46
f 33/32/50 32/31/51 31/30/48
f 35/34/52 34/33/53 33/32/50
f 1/36/21 36/35/54 35/34/52
f 39/37/55 38/38/56 37/39/57
f 39/37/55 40/40/58 38/38/56
f 41/41/59 40/40/58 39/37/55
f 41/41/59 42/42/60 40/40/58
f 43/43/61 42/42/60 41/41/59
f 43/43/61 44/44/62 42/42/60
f 45/45/63 44/44/62 43/43/61
f 45/45/63 46/46/64 44/44/62
f 47/47/65 46/46/64 45/45/63
f 47/47/65 48/48/66 46/46/64
f 49/49/67 48/48/66 47/47/65
f 49/49/67 50/50/68 48/48/66
f 51/51/69 50/50/68 49/49/67
f 51/51/69 52/52/70 50/50/68
f 53/53/71 52/52/70 51/51/69
f 53/53/71 54/54/72 52/52/70
f 55/55/73 54/54/72 53/53/71
f 55/55/73 56/56/74 54/54/72
f 57/57/75 56/56/74 55/55/73
f 57/57/75 58/58/76 56/56/74
f 59/59/77 58/58/76 57/57/75
f 59/59/77 60/60/78 58/58/76
f 61/61/79 60/60/78 59/59/77
f 61/61/79 62/62/80 60/60/78
f 63/63/81 62/62/80 61/61/79
f 63/63/81 64/64/82 62/62/80
f 65/65/83 64/64/82 63/63/81
f 65/65/83 66/66/84 64/64/82
f 67/67/85 66/66/84 65/65/83
f 67/67/85 68/68/86 66/66/84
f 69/69/87 68/68/86 67/67/85
f 69/69/87 70/70/88 68/68/86
f 71/71/89 70/70/88 69/69/87
f 71/71/89 72/72/90 70/70/88
f 37/39/57 72/72/90 71/71/89
f 37/39/57 38/38/56 72/72/90
f 75/73/91 74/74/92 73/75/93
f 75/73/91 76/76/94 74/74/92
f 77/77/95 76/76/94 75/73/91
f 77/77/95 78/78/96 76/76/94
f 79/79/97 78/78/96 77/77/95
f 79/79/97 80/80/98 78/78/96
f 81/81/99 80/80/98 79/79/97
f 81/81/99 82/82/100 80/80/98
f 83/83/101 82/82/100 81/81/99
f 83/83/101 84/84/102 82/82/100
f 85/85/103 84/84/102 83/83/101
f 85/85/103 86/86/104 84/84/102
f 87/87/105 86/86/104 85/85/103
f 87/87/105 88/88/106 86/86/104
f 89/89/107 88/88/106 87/87/105
f 89/89/107 90/90/108 88/88/106
f 91/91/109 90/90/108 89/89/107
f 91/91/109 92/92/110 90/90/108
f 93/93/111 92/92/110 91/91/109
f 93/93/111 94/94/112 92/92/110
f 95/95/113 94/94/112 93/93/111
f 95/95/113 96/96/114 94/94/112
f 97/97/115 96/96/114 95/95/113
f 97/97/115 98/98/116 96/96/114
f 99/99/117 98/98/116 97/97/115
f 99/99/117 100/100/118 98/98/116
f 101/101/119 100/100/118 99/99/117
f 101/101/119 102/102/120 100/100/118
f 103/103/121 102/102/120 101/101/119
f 103/103/121 104/104/122 102/102/120
f 105/105/123 104/104/122 103/103/121
f 105/105/123 106/106/124 104/104/122
f 107/107/125 106/106/124 105/105/123
f 107/107/125 108/108/126 106/106/124
f 73/75/93 108/108/126 107/107/125
f 73/75/93 74/74/92 108/108/126
f 111/109/127 110/110/128 109/111/129
f 111/109/127 112/112/130 110/110/128
f 113/113/131 112/112/130 111/109/127
f 113/113/131 114/114/132 112/112/130
f 115/115/133 114/114/132 113/113/131
f 115/115/133 116/116/134 114/114/132
f 117/117/135 116/116/134 115/115/133
f 117/117/135 118/118/136 116/116/134
f 119/119/137 118/118/136 117/117/135
f 119/119/137 120/120/138 118/118/136
f 121/121/139 120/120/138 119/119/137
f 121/121/139 122/122/140 120/120/138
f 123/123/141 122/122/140 121/121/139
f 123/123/141 124/124/142 122/122/140
f 125/125/143 124/124/142 123/123/141
f 125/125/143 126/126/144 124/124/142
f 127/127/145 126/126/144 125/125/143
f 127/127/145 128/128/146 126/126/144
f 129/129/147 128/128/146 127/127/145
f 129/129/147 130/130/148 128/128/146
f 131/131/149 130/130/148 129/129/147
f 131/131/149 132/132/150 130/130/148
f 133/133/151 132/132/150 131/131/149
f 133/133/151 134/134/152 132/132/150
f 135/135/153 134/134/152 133/133/151
f 135/135/153 136/136/154 134/134/152
f 137/137/155 136/136/154 135/135/153
f 137/137/155 138/138/156 136/136/154
f 139/139/157 138/138/156 137/137/155
f 139/139/157 140/140/158 138/138/156
f 141/141/159 140/140/158 139/139/157
f 141/141/159 142/142/160 140/140/158
f 143/143/161 142/142/160 141/141/159
f 143/143/161 144/144/162 142/142/160
f 109/111/129 144/144/162 143/143/161
f 109/111/129 110/110/128 144/144/162
f 147/145/163 146/146/164 145/147/165
f 147/145/163 148/148/166 146/146/164
f 149/149/167 148/148/166 147/145/163
f 150/150/168 147/145/163 145/147/165
f 150/150/168 151/151/169 147/145/163
f 152/152/170 147/145/163 151/151/169
f 152/152/170 153/153/171 147/145/163
f 154/154/172 147/145/163 153/153/171
f 154/154/172 155/155/173 147/145/163
f 156/156/174 147/145/163 155/155/173
f 156/156/174 157/157/175 147/145/163
f 158/158/176 147/145/163 157/157/175
f 158/158/176 159/159/177 147/145/163
f 160/160/178 147/145/163 159/159/177
f 160/160/178 161/161/179 147/145/163
f 162/162/180 147/145/163 161/161/179
f 162/162/180 163/163/181 147/145/163
f 147/145/163 163/163/181 149/149/167
