# Blender v3.0.0 OBJ File: ''
# www.blender.org
mtllib durable_base.mtl
o mesh-0_meshId0_name.006
v 0.000000 0.002759 -12.162101
v -2.251950 0.852369 -12.775400
v -4.126950 0.002759 -11.337901
v -6.486330 0.852369 -11.234401
v -7.816410 0.002759 -9.316411
v -9.937500 0.852369 -8.337891
v -10.449200 0.002758 -6.033200
v -12.191400 0.852368 -4.437500
v -11.976600 0.002758 -2.111331
v -12.972700 0.852367 -0.000001
v -11.882800 0.002757 2.093749
v -12.191400 0.852366 4.437500
v -10.531300 0.002756 6.080080
v -9.937500 0.852366 8.337889
v -7.755860 0.002756 9.242188
v -6.486330 0.852365 11.234399
v -4.158200 0.002755 11.427699
v -2.251950 0.852365 12.775398
v 0.000000 0.002755 12.066399
v 2.251950 0.852365 12.775398
v 4.158200 0.002755 11.427699
v 6.486330 0.852365 11.234399
v 7.755860 0.002756 9.242188
v 9.937500 0.852366 8.337889
v 10.531300 0.002756 6.080080
v 12.191400 0.852366 4.437500
v 11.882800 0.002757 2.093749
v 12.972700 0.852367 -0.000001
v 11.976600 0.002758 -2.111331
v 12.191400 0.852368 -4.437500
v 10.449200 0.002758 -6.033200
v 9.937500 0.852369 -8.337891
v 7.816410 0.002759 -9.316411
v 6.486330 0.852369 -11.234401
v 4.126950 0.002759 -11.337901
v 2.251950 0.852369 -12.775400
v 0.000000 0.002759 -12.162101
v -2.251950 0.852369 -12.775400
v 6.486330 33.414825 11.234405
v 2.251950 33.414825 12.775404
v -2.251950 33.414825 12.775404
v -6.486330 33.414825 11.234405
v -9.937500 33.414825 8.337894
v -12.191400 33.414825 4.437505
v -12.972700 33.414825 0.000005
v -12.191400 33.414825 -4.437495
v -9.937500 33.414829 -8.337885
v -6.486330 33.414829 -11.234395
v -9.937500 33.414825 8.337894
v -9.937500 47.610226 8.337896
v -6.486330 33.414825 11.234405
v -6.486330 47.610226 11.234406
v -2.251950 33.414825 12.775404
v -2.251950 47.610222 12.775406
v 2.251950 33.414825 12.775404
v 2.251950 47.610222 12.775406
v 6.486330 33.414825 11.234405
v 6.486330 47.610226 11.234406
v 9.937500 33.414825 8.337894
v 9.937500 47.610226 8.337896
v 12.191400 33.414825 4.437505
v 12.191400 47.610226 4.437507
v 12.972700 47.610226 0.000007
v 12.166000 47.922726 -2.150383
v 12.191400 47.610226 -4.437493
v 10.697300 47.922726 -6.185543
v 9.937500 47.610226 -8.337883
v 7.937500 47.922726 -9.474602
v 6.486330 47.610226 -11.234393
v 4.218750 47.922726 -11.621092
v 2.251950 47.610229 -12.775393
v -0.007812 47.922729 -12.365192
v -2.251950 47.610229 -12.775393
v 12.191400 33.414825 -4.437495
v 12.191400 47.610226 -4.437493
v 9.937500 33.414829 -8.337885
v 9.937500 47.610226 -8.337883
v 6.486330 33.414829 -11.234395
v 6.486330 47.610226 -11.234393
v 2.251950 33.414829 -12.775394
v 2.251950 47.610229 -12.775393
v -2.251950 33.414829 -12.775394
v -2.251950 47.610229 -12.775393
v 12.166000 47.922726 2.142587
v 12.191400 47.610226 4.437507
v 10.697300 47.922726 6.175787
v 9.937500 47.610226 8.337896
v 7.937500 47.922726 9.464848
v 6.486330 47.610226 11.234406
v 4.218750 47.922726 11.611307
v 2.251950 47.610222 12.775406
v -0.007812 47.922722 12.357408
v -1.871090 48.201923 -10.619092
v -0.007812 47.922729 -12.365192
v 1.871090 48.201923 -10.619092
v 4.218750 47.922726 -11.621092
v 5.390630 48.201923 -9.337882
v 7.937500 47.922726 -9.474602
v 8.259769 48.201923 -6.929683
v 10.697300 47.922726 -6.185543
v 10.132800 48.201923 -3.687493
v -11.976600 0.002758 -2.111331
v -11.882800 0.002757 2.093749
v -10.449200 0.002758 -6.033200
v -10.531300 0.002756 6.080080
v -7.816410 0.002759 -9.316411
v -7.755860 0.002756 9.242188
v -4.126950 0.002759 -11.337901
v -4.158200 0.002755 11.427699
v 0.000000 0.002759 -12.162101
v 12.191400 0.852368 -4.437500
v 12.191400 33.414825 -4.437495
v 9.937500 0.852369 -8.337891
v 9.937500 33.414829 -8.337885
v 6.486330 0.852369 -11.234401
v 6.486330 33.414829 -11.234395
v 2.251950 0.852369 -12.775400
v 2.251950 33.414829 -12.775394
v -12.972700 33.414825 0.000005
v -12.972700 47.610226 0.000007
v -12.191400 33.414825 4.437505
v -12.191400 47.610226 4.437507
v -9.937500 33.414825 8.337894
v -9.937500 47.610226 8.337896
v 12.191400 33.414825 -4.437495
v 12.191400 0.852368 -4.437500
v 12.972700 33.414825 0.000005
v 12.972700 0.852367 -0.000001
v 12.191400 33.414825 4.437505
v 12.191400 0.852366 4.437500
v 2.251950 0.852369 -12.775400
v 2.251950 33.414829 -12.775394
v -2.251950 0.852369 -12.775400
v -2.251950 33.414829 -12.775394
v -6.486330 0.852369 -11.234401
v -6.486330 33.414829 -11.234395
v -6.486330 33.414829 -11.234395
v -6.486330 47.610226 -11.234393
v -9.937500 33.414829 -8.337885
v -9.937500 47.610226 -8.337883
v -12.191400 33.414825 -4.437495
v -12.191400 47.610226 -4.437493
v 12.191400 33.414825 4.437505
v 12.191400 47.610226 4.437507
v 12.972700 33.414825 0.000005
v 12.972700 47.610226 0.000007
v 12.191400 33.414825 -4.437495
v 12.191400 47.610226 -4.437493
v 6.486330 0.852365 11.234399
v 6.486330 33.414825 11.234405
v 9.937500 0.852366 8.337889
v 9.937500 33.414825 8.337894
v 12.191400 0.852366 4.437500
v 12.191400 33.414825 4.437505
v -7.955080 47.922726 9.464848
v -10.714800 47.922726 6.175787
v -8.259769 48.201923 6.929697
v -10.132800 48.201923 3.687507
v -12.183599 47.922726 2.142587
v -10.783199 48.201923 0.000007
v -12.183599 47.922726 -2.150383
v -10.132800 48.201923 -3.687493
v -10.714800 47.922726 -6.185543
v -8.259769 48.201923 -6.929683
v -7.955080 47.922726 -9.474602
v -5.390630 48.201923 -9.337882
v -4.236330 47.922726 -11.621092
v -1.871090 48.201923 -10.619092
v -0.007812 47.922729 -12.365192
v -4.236330 47.922726 -11.621092
v -2.251950 47.610229 -12.775393
v -6.486330 47.610226 -11.234393
v -7.955080 47.922726 -9.474602
v -9.937500 47.610226 -8.337883
v -10.714800 47.922726 -6.185543
v -12.191400 47.610226 -4.437493
v -12.183599 47.922726 -2.150383
v -12.972700 47.610226 0.000007
v -12.183599 47.922726 2.142587
v -12.191400 47.610226 4.437507
v -10.714800 47.922726 6.175787
v -9.937500 47.610226 8.337896
v -7.955080 47.922726 9.464848
v -6.486330 47.610226 11.234406
v -4.236330 47.922726 11.611307
v -2.251950 47.610222 12.775406
v 0.000000 0.002755 12.066399
v 0.000000 0.002759 -12.162101
v 4.126950 0.002759 -11.337901
v 4.158200 0.002755 11.427699
v 7.816410 0.002759 -9.316411
v 7.755860 0.002756 9.242188
v 10.449200 0.002758 -6.033200
v 10.531300 0.002756 6.080080
v 11.976600 0.002758 -2.111331
v -2.251950 33.414829 -12.775394
v -2.251950 47.610229 -12.775393
v -6.486330 33.414829 -11.234395
v -6.486330 47.610226 -11.234393
v 10.783199 48.201923 0.000007
v 12.166000 47.922726 -2.150383
v 12.191400 47.610226 4.437507
v 12.166000 47.922726 2.142587
v 12.972700 47.610226 0.000007
v 12.166000 47.922726 -2.150383
v -12.191400 33.414825 -4.437495
v -12.191400 47.610226 -4.437493
v -12.972700 33.414825 0.000005
v -12.972700 47.610226 0.000007
v 12.166000 47.922726 2.142587
v 10.697300 47.922726 6.175787
v 10.132800 48.201923 3.687507
v 8.259769 48.201923 6.929697
v 7.937500 47.922726 9.464848
v 5.390630 48.201923 9.337897
v 4.218750 47.922726 11.611307
v 1.871090 48.201923 10.619107
v -0.007812 47.922722 12.357408
v -1.871090 48.201923 10.619107
v -4.236330 47.922726 11.611307
v -5.390630 48.201923 9.337897
v 12.166000 47.922726 -2.150383
v 12.166000 47.922726 2.142587
v 10.783199 48.201923 0.000007
v -0.007812 47.922729 -12.365192
v 10.783199 48.201923 0.000007
v 12.166000 47.922726 2.142587
v 10.132800 48.201923 3.687507
v 11.882800 0.002757 2.093749
vt -0.166626 0.000000
vt 0.055542 0.000000
vt -0.055420 0.000000
vt 0.166626 0.000000
vt -0.277710 0.000000
vt 0.277710 0.000000
vt -0.388794 0.000000
vt 0.388916 0.000000
vt -0.499878 0.000000
vt 1.500000 0.000000
vt 0.500000 0.000000
vt 1.388920 0.000000
vt 0.611084 0.000000
vt 1.277710 0.000000
vt 0.722168 0.000000
vt 1.166630 0.000000
vt 0.833252 0.000000
vt 1.055540 0.000000
vt 0.944458 0.000000
vt -0.388794 0.000000
vt -0.444336 0.017700
vt -0.499878 0.000000
vt -0.333252 0.017700
vt -0.277710 0.000000
vt -0.222168 0.017700
vt -0.166626 0.000000
vt -0.110962 0.017700
vt -0.055420 0.000000
vt 0.000000 0.017700
vt 0.055542 0.000000
vt 0.111084 0.017700
vt 0.166626 0.000000
vt 0.222168 0.017700
vt 0.277710 0.000000
vt 0.344849 0.017700
vt 0.388916 0.000000
vt 0.444824 0.017700
vt 0.500000 0.000000
vt 0.544922 0.017700
vt 0.611084 0.000000
vt 0.666626 0.017700
vt 0.722168 0.000000
vt 0.777710 0.017700
vt 0.833252 0.000000
vt 0.888916 0.017700
vt 0.944458 0.000000
vt 1.000000 0.017700
vt 1.055540 0.000000
vt 1.111080 0.017700
vt 1.166630 0.000000
vt 1.222170 0.017700
vt 1.277710 0.000000
vt 1.333250 0.017700
vt 1.388920 0.000000
vt 1.444460 0.017700
vt 1.500000 0.000000
vt 1.555540 0.017700
vt 0.544922 0.700073
vt 0.666626 0.700073
vt 0.444824 0.700073
vt 0.344849 0.700073
vt 0.222168 0.700073
vt 0.111084 0.700073
vt 0.000000 0.700073
vt -0.110962 0.700073
vt -0.222168 0.700073
vt -0.333252 0.700073
vt 0.074219 0.700317
vt 0.018677 0.987915
vt 0.018677 0.700317
vt 0.074219 0.987915
vt 0.129761 0.700317
vt 0.129761 0.987915
vt 0.185303 0.700317
vt 0.185303 0.987915
vt 0.240845 0.700317
vt 0.240845 0.987915
vt 0.296387 0.700317
vt 0.296387 0.987915
vt 0.351929 0.700317
vt 0.351929 0.987915
vt 1.111080 0.987793
vt 1.055660 0.994263
vt 1.000000 0.987793
vt 1.166870 0.994263
vt 1.222170 0.987793
vt 1.277950 0.994263
vt 1.333250 0.987793
vt 1.389160 0.994263
vt 1.444460 0.987793
vt 1.500240 0.994263
vt 1.555540 0.987793
vt 0.518677 0.700317
vt 0.463135 0.987915
vt 0.463135 0.700317
vt 0.518677 0.987915
vt 0.574219 0.700317
vt 0.574219 0.987915
vt 0.629761 0.700317
vt 0.629761 0.987915
vt 0.685303 0.700317
vt 0.685303 0.987915
vt 0.833252 0.994263
vt 0.888916 0.987793
vt 0.944458 0.994263
vt 0.777710 0.987793
vt 0.722046 0.994263
vt 0.666626 0.987793
vt 0.610962 0.994263
vt 0.555542 0.987793
vt 0.499756 0.994263
vt 1.444460 1.000000
vt 1.500240 0.994263
vt 1.555540 1.000000
vt 1.389160 0.994263
vt 1.333250 1.000000
vt 1.277950 0.994263
vt 1.222170 1.000000
vt 1.166870 0.994263
vt 1.111080 1.000000
vt 0.638794 0.017578
vt 0.538818 0.700073
vt 0.538818 0.017578
vt 0.638794 0.700073
vt 0.538818 0.017578
vt 0.538818 0.700073
vt 0.638794 0.017578
vt 0.638794 0.700073
vt 0.489868 0.699341
vt 0.657471 0.987671
vt 0.657471 0.699341
vt 0.489868 0.987671
vt 0.342407 0.699341
vt 0.342407 0.987671
vt 0.458252 0.700073
vt 0.553345 0.000000
vt 0.553345 0.700073
vt 0.458252 0.000000
vt 0.363159 0.700073
vt 0.363159 0.000000
vt 0.638794 0.017578
vt 0.538818 0.700073
vt 0.538818 0.017578
vt 0.638794 0.700073
vt 0.538818 0.017578
vt 0.538818 0.700073
vt 0.371704 0.699951
vt 0.598877 0.988403
vt 0.598877 0.699951
vt 0.371704 0.988403
vt 0.065552 0.699951
vt 0.065552 0.988403
vt 0.783325 0.700928
vt 0.675537 0.988403
vt 0.675537 0.700928
vt 0.783325 0.988403
vt 0.891235 0.700928
vt 0.891235 0.988403
vt 0.638794 0.017578
vt 0.538818 0.700073
vt 0.538818 0.017578
vt 0.638794 0.700073
vt 0.538818 0.017578
vt 0.538818 0.700073
vt 0.222168 1.000000
vt 0.166382 0.994263
vt 0.277466 0.994263
vt 0.111084 1.000000
vt 0.055420 0.994263
vt 0.000000 1.000000
vt -0.055542 0.994263
vt -0.110962 1.000000
vt -0.166504 0.994263
vt -0.222168 1.000000
vt -0.277588 0.994263
vt -0.333252 1.000000
vt -0.388672 0.994263
vt -0.444336 1.000000
vt -0.444336 0.987793
vt -0.388672 0.994263
vt -0.499634 0.994263
vt -0.333252 0.987793
vt -0.277588 0.994263
vt -0.222168 0.987793
vt -0.166504 0.994263
vt -0.110962 0.987793
vt -0.055542 0.994263
vt 0.000000 0.987793
vt 0.055420 0.994263
vt 0.111084 0.987793
vt 0.166382 0.994263
vt 0.222168 0.987793
vt 0.277466 0.994263
vt 0.333252 0.987793
vt 0.388550 0.994263
vt 0.444458 0.987793
vt -0.259033 0.700317
vt -0.314575 0.987915
vt -0.314575 0.700317
vt -0.259033 0.987915
vt 1.055660 0.994263
vt 1.000000 1.000000
vt 0.430542 0.851929
vt 0.373169 0.889893
vt 0.361084 0.851929
vt 0.454590 0.889893
vt -0.036499 0.699951
vt 0.130127 0.985352
vt 0.130127 0.699951
vt -0.036499 0.985352
vt 0.888916 1.000000
vt 0.833252 0.994263
vt 0.944458 0.994263
vt 0.777710 1.000000
vt 0.722046 0.994263
vt 0.666626 1.000000
vt 0.610962 0.994263
vt 0.555542 1.000000
vt 0.499756 0.994263
vt 0.444458 1.000000
vt 0.388550 0.994263
vt 0.333252 1.000000
vt 0.480835 0.923584
vt 0.585449 0.889893
vt 0.454590 0.889893
vt -0.499634 0.994263
vt 0.337402 0.923584
vt 0.373169 0.889893
vt 0.268555 0.923584
vn -0.0000 -1.0000 -0.0000
vn -0.2475 -0.6902 -0.6799
vn -0.1500 -0.7530 -0.6407
vn -0.1237 -0.7751 -0.6195
vn -0.4799 -0.5133 -0.7115
vn -0.4850 -0.6562 -0.5780
vn -0.7105 -0.3840 -0.5896
vn -0.6263 -0.6905 -0.3618
vn -0.8657 -0.3843 -0.3206
vn -0.7427 -0.6567 -0.1308
vn -0.9232 -0.3841 0.0051
vn -0.7122 -0.6907 0.1254
vn -0.8692 -0.3844 0.3110
vn -0.6527 -0.6570 0.3771
vn -0.7039 -0.3842 0.5974
vn -0.4650 -0.6904 0.5541
vn -0.4660 -0.3842 0.7970
vn -0.2580 -0.6565 0.7088
vn -0.1553 -0.3840 0.9102
vn 0.0000 -0.6901 0.7237
vn 0.1553 -0.3840 0.9102
vn 0.2580 -0.6565 0.7088
vn 0.3762 -0.5134 0.7712
vn 0.4650 -0.6904 0.5541
vn 0.5159 -0.7317 0.4455
vn 0.6527 -0.6570 0.3771
vn 0.6433 -0.7321 0.2239
vn 0.7122 -0.6907 0.1254
vn 0.6816 -0.7317 0.0097
vn 0.7427 -0.6567 -0.1308
vn 0.6368 -0.7320 -0.2421
vn 0.6263 -0.6905 -0.3618
vn 0.5284 -0.7315 -0.4308
vn 0.4850 -0.6562 -0.5780
vn 0.3324 -0.7316 -0.5952
vn 0.2475 -0.6902 -0.6799
vn 0.1280 -0.7314 -0.6698
vn 0.0251 -0.6279 -0.7778
vn 0.0000 -0.5853 -0.8108
vn 0.1736 0.0000 0.9848
vn 0.3420 0.0000 0.9397
vn -0.1736 0.0000 0.9848
vn -0.5000 0.0000 0.8660
vn -0.7660 0.0000 0.6429
vn -0.9397 0.0000 0.3421
vn -1.0000 0.0000 0.0000
vn -0.9397 0.0000 -0.3421
vn -0.7660 0.0000 -0.6429
vn -0.6428 0.0000 -0.7660
vn -0.6428 0.0000 0.7660
vn 0.5000 0.0000 0.8660
vn 0.7660 0.0000 0.6429
vn 0.8658 0.0000 0.5003
vn 0.3760 0.9165 -0.1368
vn 0.5579 0.8230 -0.1062
vn 0.5864 0.8034 -0.1032
vn 0.4747 0.8363 -0.2743
vn 0.3079 0.9156 -0.2583
vn 0.3546 0.8340 -0.4227
vn 0.2016 0.9151 -0.3492
vn 0.1895 0.8323 -0.5209
vn 0.0702 0.9145 -0.3983
vn 0.0078 0.8158 -0.5783
vn 0.0000 0.7954 -0.6060
vn 0.7660 0.0000 -0.6429
vn 0.8658 0.0000 -0.5003
vn 0.5000 0.0000 -0.8660
vn 0.1736 0.0000 -0.9848
vn 0.0000 0.0000 -1.0000
vn 0.4710 0.8391 0.2722
vn 0.3551 0.9244 0.1390
vn 0.3385 0.9328 0.1233
vn 0.3058 0.9168 0.2566
vn 0.3504 0.8383 0.4176
vn 0.1998 0.9167 0.3460
vn 0.1868 0.8375 0.5134
vn 0.0697 0.9162 0.3946
vn -0.0000 0.8357 0.5491
vn 0.0310 0.9839 -0.1760
vn 0.0090 0.9858 -0.1673
vn 0.0000 0.9874 -0.1579
vn 0.0591 0.9849 -0.1625
vn 0.0895 0.9838 -0.1550
vn 0.1113 0.9849 -0.1327
vn 0.1374 0.9838 -0.1152
vn 0.1502 0.9848 -0.0868
vn 0.1690 0.9837 -0.0615
vn 0.3420 0.0000 -0.9397
vn -0.9848 0.0000 0.1734
vn -0.8658 0.0000 0.5003
vn 1.0000 0.0000 0.0000
vn 0.9848 0.0000 -0.1734
vn 0.9848 0.0000 0.1734
vn -0.1736 0.0000 -0.9848
vn -0.3420 0.0000 -0.9397
vn -0.8658 0.0000 -0.5003
vn 0.6428 0.0000 0.7660
vn -0.1367 0.9839 0.1147
vn -0.1494 0.9850 0.0862
vn -0.1111 0.9850 0.1323
vn -0.1674 0.9840 0.0610
vn -0.1697 0.9850 0.0299
vn -0.1779 0.9840 0.0000
vn -0.1695 0.9850 -0.0299
vn -0.1671 0.9840 -0.0608
vn -0.1490 0.9851 -0.0860
vn -0.1361 0.9841 -0.1142
vn -0.1106 0.9851 -0.1318
vn -0.0889 0.9840 -0.1541
vn -0.0590 0.9850 -0.1619
vn -0.0395 0.9828 -0.1806
vn -0.0762 0.9216 -0.3805
vn -0.1914 0.8287 -0.5259
vn -0.0635 0.9303 -0.3611
vn -0.2035 0.9134 -0.3525
vn -0.3612 0.8272 -0.4303
vn -0.3124 0.9130 -0.2622
vn -0.4864 0.8273 -0.2810
vn -0.3827 0.9133 -0.1393
vn -0.5528 0.8275 -0.0974
vn -0.4073 0.9133 0.0000
vn -0.5516 0.8284 0.0971
vn -0.3814 0.9139 0.1389
vn -0.4826 0.8303 0.2788
vn -0.3103 0.9143 0.2604
vn -0.3569 0.8318 0.4252
vn -0.2016 0.9150 0.3494
vn -0.1887 0.8341 0.5183
vn -0.0698 0.9156 0.3958
vn 0.1642 0.9857 -0.0381
vn 0.1564 0.9873 -0.0276
vn 0.3822 0.9240 0.0091
vn 0.5596 0.8238 0.0905
vn 0.5852 0.8043 0.1030
vn 0.3612 0.9325 0.0000
vn -0.9848 0.0000 -0.1734
vn 0.1728 0.9824 0.0710
vn 0.1507 0.9847 0.0870
vn 0.1861 0.9802 0.0678
vn 0.1380 0.9836 0.1158
vn 0.1118 0.9847 0.1332
vn 0.0900 0.9836 0.1559
vn 0.0594 0.9848 0.1634
vn 0.0313 0.9837 0.1770
vn -0.0000 0.9848 0.1736
vn -0.0311 0.9838 0.1767
vn -0.0593 0.9849 0.1628
vn -0.0894 0.9839 0.1550
vn 0.1979 0.9802 0.0000
vn -0.0340 0.9806 -0.1930
vn 0.1565 0.9873 0.0276
usemtl m1label_mat.001
s off
f 104/1/1 103/2/1 102/3/1
f 104/1/1 105/4/1 103/2/1
f 106/5/1 105/4/1 104/1/1
f 106/5/1 107/6/1 105/4/1
f 108/7/1 107/6/1 106/5/1
f 108/7/1 109/8/1 107/6/1
f 110/9/1 109/8/1 108/7/1
f 188/10/1 187/11/1 109/8/1
f 188/10/1 189/12/1 187/11/1
f 189/12/1 190/13/1 187/11/1
f 189/12/1 191/14/1 190/13/1
f 191/14/1 192/15/1 190/13/1
f 191/14/1 193/16/1 192/15/1
f 193/16/1 194/17/1 192/15/1
f 193/16/1 195/18/1 194/17/1
f 194/17/1 195/18/1 229/19/1
s 1
f 3/20/2 2/21/3 1/22/4
f 3/20/2 4/23/5 2/21/3
f 5/24/6 4/23/5 3/20/2
f 5/24/6 6/25/7 4/23/5
f 7/26/8 6/25/7 5/24/6
f 7/26/8 8/27/9 6/25/7
f 9/28/10 8/27/9 7/26/8
f 9/28/10 10/29/11 8/27/9
f 11/30/12 10/29/11 9/28/10
f 11/30/12 12/31/13 10/29/11
f 13/32/14 12/31/13 11/30/12
f 13/32/14 14/33/15 12/31/13
f 15/34/16 14/33/15 13/32/14
f 15/34/16 16/35/17 14/33/15
f 17/36/18 16/35/17 15/34/16
f 17/36/18 18/37/19 16/35/17
f 19/38/20 18/37/19 17/36/18
f 19/38/20 20/39/21 18/37/19
f 21/40/22 20/39/21 19/38/20
f 21/40/22 22/41/23 20/39/21
f 23/42/24 22/41/23 21/40/22
f 23/42/24 24/43/25 22/41/23
f 25/44/26 24/43/25 23/42/24
f 25/44/26 26/45/27 24/43/25
f 27/46/28 26/45/27 25/44/26
f 27/46/28 28/47/29 26/45/27
f 29/48/30 28/47/29 27/46/28
f 29/48/30 30/49/31 28/47/29
f 31/50/32 30/49/31 29/48/30
f 31/50/32 32/51/33 30/49/31
f 33/52/34 32/51/33 31/50/32
f 33/52/34 34/53/35 32/51/33
f 35/54/36 34/53/35 33/52/34
f 35/54/36 36/55/37 34/53/35
f 37/56/38 36/55/37 35/54/36
f 37/56/38 38/57/39 36/55/37
f 40/58/40 22/41/23 39/59/41
f 40/58/40 20/39/21 22/41/23
f 41/60/42 20/39/21 40/58/40
f 41/60/42 18/37/19 20/39/21
f 42/61/43 18/37/19 41/60/42
f 42/61/43 16/35/17 18/37/19
f 43/62/44 16/35/17 42/61/43
f 43/62/44 14/33/15 16/35/17
f 44/63/45 14/33/15 43/62/44
f 44/63/45 12/31/13 14/33/15
f 45/64/46 12/31/13 44/63/45
f 45/64/46 10/29/11 12/31/13
f 46/65/47 10/29/11 45/64/46
f 46/65/47 8/27/9 10/29/11
f 47/66/48 8/27/9 46/65/47
f 47/66/48 6/25/7 8/27/9
f 48/67/49 6/25/7 47/66/48
f 48/67/49 4/23/5 6/25/7
f 51/68/43 50/69/50 49/70/50
f 51/68/43 52/71/43 50/69/50
f 53/72/42 52/71/43 51/68/43
f 53/72/42 54/73/42 52/71/43
f 55/74/40 54/73/42 53/72/42
f 55/74/40 56/75/40 54/73/42
f 57/76/51 56/75/40 55/74/40
f 57/76/51 58/77/51 56/75/40
f 59/78/52 58/77/51 57/76/51
f 59/78/52 60/79/52 58/77/51
f 61/80/53 60/79/52 59/78/52
f 61/80/53 62/81/53 60/79/52
f 65/82/54 64/83/55 63/84/56
f 65/82/54 66/85/57 64/83/55
f 67/86/58 66/85/57 65/82/54
f 67/86/58 68/87/59 66/85/57
f 69/88/60 68/87/59 67/86/58
f 69/88/60 70/89/61 68/87/59
f 71/90/62 70/89/61 69/88/60
f 71/90/62 72/91/63 70/89/61
f 73/92/64 72/91/63 71/90/62
f 76/93/65 75/94/66 74/95/66
f 76/93/65 77/96/65 75/94/66
f 78/97/67 77/96/65 76/93/65
f 78/97/67 79/98/67 77/96/65
f 80/99/68 79/98/67 78/97/67
f 80/99/68 81/100/68 79/98/67
f 82/101/69 81/100/68 80/99/68
f 82/101/69 83/102/69 81/100/68
f 86/103/70 85/104/71 84/105/72
f 86/103/70 87/106/73 85/104/71
f 88/107/74 87/106/73 86/103/70
f 88/107/74 89/108/75 87/106/73
f 90/109/76 89/108/75 88/107/74
f 90/109/76 91/110/77 89/108/75
f 92/111/78 91/110/77 90/109/76
f 95/112/79 94/113/80 93/114/81
f 95/112/79 96/115/82 94/113/80
f 97/116/83 96/115/82 95/112/79
f 97/116/83 98/117/84 96/115/82
f 99/118/85 98/117/84 97/116/83
f 99/118/85 100/119/86 98/117/84
f 101/120/87 100/119/86 99/118/85
f 113/121/65 112/122/66 111/123/66
f 113/121/65 114/124/65 112/122/66
f 115/125/67 114/124/65 113/121/65
f 115/125/67 116/126/67 114/124/65
f 117/127/88 116/126/67 115/125/67
f 117/127/88 118/128/88 116/126/67
f 121/129/45 120/130/89 119/131/89
f 121/129/45 122/132/45 120/130/89
f 123/133/90 122/132/45 121/129/45
f 123/133/90 124/134/90 122/132/45
f 127/135/91 126/136/92 125/137/92
f 127/135/91 128/138/91 126/136/92
f 129/139/93 128/138/91 127/135/91
f 129/139/93 130/140/93 128/138/91
f 133/141/94 132/142/69 131/143/69
f 133/141/94 134/144/94 132/142/69
f 135/145/95 134/144/94 133/141/94
f 135/145/95 136/146/95 134/144/94
f 139/147/48 138/148/49 137/149/49
f 139/147/48 140/150/48 138/148/49
f 141/151/96 140/150/48 139/147/48
f 141/151/96 142/152/96 140/150/48
f 145/153/91 144/154/93 143/155/93
f 145/153/91 146/156/91 144/154/93
f 147/157/92 146/156/91 145/153/91
f 147/157/92 148/158/92 146/156/91
f 151/159/52 150/160/97 149/161/97
f 151/159/52 152/162/52 150/160/97
f 153/163/53 152/162/52 151/159/52
f 153/163/53 154/164/53 152/162/52
f 157/165/98 156/166/99 155/167/100
f 157/165/98 158/168/101 156/166/99
f 158/168/101 159/169/102 156/166/99
f 158/168/101 160/170/103 159/169/102
f 160/170/103 161/171/104 159/169/102
f 160/170/103 162/172/105 161/171/104
f 162/172/105 163/173/106 161/171/104
f 162/172/105 164/174/107 163/173/106
f 164/174/107 165/175/108 163/173/106
f 164/174/107 166/176/109 165/175/108
f 166/176/109 167/177/110 165/175/108
f 166/176/109 168/178/111 167/177/110
f 171/179/112 170/180/113 169/181/114
f 171/179/112 172/182/115 170/180/113
f 172/182/115 173/183/116 170/180/113
f 172/182/115 174/184/117 173/183/116
f 174/184/117 175/185/118 173/183/116
f 174/184/117 176/186/119 175/185/118
f 176/186/119 177/187/120 175/185/118
f 176/186/119 178/188/121 177/187/120
f 178/188/121 179/189/122 177/187/120
f 178/188/121 180/190/123 179/189/122
f 180/190/123 181/191/124 179/189/122
f 180/190/123 182/192/125 181/191/124
f 182/192/125 183/193/126 181/191/124
f 182/192/125 184/194/127 183/193/126
f 184/194/127 185/195/128 183/193/126
f 184/194/127 186/196/129 185/195/128
f 186/196/129 92/111/78 185/195/128
f 186/196/129 91/110/77 92/111/78
f 198/197/95 197/198/95 196/199/95
f 198/197/95 199/200/95 197/198/95
f 201/201/130 101/120/87 200/202/131
f 201/201/130 100/119/86 101/120/87
f 204/203/132 203/204/133 202/205/134
f 204/203/132 205/206/135 203/204/133
f 208/207/136 207/208/136 206/209/136
f 208/207/136 209/210/136 207/208/136
f 212/211/137 211/212/138 210/213/139
f 212/211/137 213/214/140 211/212/138
f 213/214/140 214/215/141 211/212/138
f 213/214/140 215/216/142 214/215/141
f 215/216/142 216/217/143 214/215/141
f 215/216/142 217/218/144 216/217/143
f 217/218/144 218/219/145 216/217/143
f 217/218/144 219/220/146 218/219/145
f 219/220/146 220/221/147 218/219/145
f 219/220/146 221/222/148 220/221/147
f 221/222/148 155/167/100 220/221/147
f 221/222/148 157/165/98 155/167/100
f 224/223/149 223/224/149 222/225/149
f 167/177/110 168/178/111 225/226/150
f 228/227/151 227/228/151 226/229/151
