# Blender v3.0.0 OBJ File: ''
# www.blender.org
mtllib architect_screen.mtl
o mesh-1_meshId1_name.001
v -21.482464 5.164056 10.964719
v -21.439255 5.164060 -17.032967
v 21.448374 5.164060 11.033707
v 21.492580 5.164064 -16.965704
v 0.004559 5.164060 -2.999631
v -0.017045 5.164058 10.999212
v 0.026663 5.164062 -16.999336
vt 0.999467 0.500000
vt 0.000000 1.000000
vt 0.000000 0.000000
vt 0.999467 0.000000
vt 0.999467 1.000000
vt 0.000183 0.000000
vt 0.000183 1.000000
vt 0.999756 1.000000
vt 0.999756 0.500000
vt 0.999756 0.000000
vn 0.0000 1.0000 0.0000
usemtl m0glass_mat
s 1
f 5/1/1 2/2/1 1/3/1 6/4/1
f 5/1/1 7/5/1 2/2/1
f 3/6/1 4/7/1 7/8/1 5/9/1
f 3/6/1 5/9/1 6/10/1
