# Blender v3.0.0 OBJ File: ''
# www.blender.org
mtllib architect_metal.mtl
o mesh-3_meshId3_name
v 44.220066 4.146488 -27.967377
v 44.510384 4.146488 -27.338692
v 43.440704 4.146488 -28.328732
v 27.499168 4.146486 -24.814646
v -43.349709 4.146481 -28.465361
v -27.421551 4.146482 -24.901386
v -44.444843 4.146481 -27.479191
v -27.489401 4.146475 18.790928
v -44.531479 4.146472 27.339993
v -43.440704 4.146472 28.328735
v -44.239128 4.146472 28.078266
v -25.547247 6.146481 -23.009399
v -27.421551 4.146482 -24.901386
v 25.618698 6.146485 -22.929161
v 27.499168 4.146486 -24.814646
v 25.556684 6.146479 17.005800
v 27.429678 4.146480 18.876711
v -25.609364 6.146475 16.925533
v -27.489401 4.146475 18.790928
v 25.618698 6.146485 -22.929161
v 21.613157 6.146484 -17.387955
v -25.547247 6.146481 -23.009399
v -21.558603 6.146480 -17.454277
v -25.609364 6.146475 16.925533
v -21.602798 6.146476 11.382604
v 25.556684 6.146479 17.005800
v 21.566975 6.146480 11.452320
v -12.029223 4.146476 18.815048
v 27.429678 4.146480 18.876711
v -12.044397 4.146475 28.377478
v 43.351440 4.146480 28.466364
v -19.042982 4.146474 28.367163
v -16.900719 4.146475 23.723629
v -17.100416 4.146475 22.973625
v -19.029493 4.146476 18.803753
v -16.898451 4.146476 22.223837
v -16.348351 4.146476 21.675781
v -15.597339 4.146476 21.474380
v -14.848541 4.146476 21.678057
v -14.299496 4.146476 22.226444
v -14.100787 4.146476 22.978184
v -14.302760 4.146476 23.727968
v -14.852852 4.146475 24.276028
v -16.352673 4.146475 24.273745
v -15.602875 4.146475 24.475693
v 44.425468 4.146480 27.481508
v 44.131489 4.146480 28.218605
v -19.029493 4.146476 18.803753
v -12.029223 4.146476 18.815048
v -44.151608 4.146481 -28.106108
vt 2.939700 1.457640
vt 3.000000 1.424320
vt 2.983520 1.445430
vt -0.173828 -0.457642
vt 2.043950 -0.135132
vt -0.173828 -0.135132
vt -0.458496 -0.275635
vt -0.567261 -0.457642
vt -0.447266 -0.300903
vt -0.567261 -0.135132
vt -0.447266 -0.250244
vt -0.416382 -0.231812
vt -0.374268 -0.224976
vt -0.332031 -0.231812
vt -0.301270 -0.250244
vt -0.289917 -0.275635
vt -0.301270 -0.300903
vt -0.332031 -0.319336
vt -0.416382 -0.319336
vt -0.374268 -0.326172
vt -2.000000 1.424320
vt -1.938480 1.457640
vt -1.983520 1.445430
vt -1.042850 -0.135132
vt 2.043950 1.338260
vt -1.042850 1.338260
vt -2.000000 -0.424316
vt -1.938480 -0.457642
vt -1.983520 -0.449219
vt 1.938480 1.274540
vt -1.042850 1.338260
vt -0.937378 1.274540
vt 2.043950 1.338260
vt 1.938480 -0.072144
vt 2.043950 -0.135132
vt -0.937378 -0.072144
vt -1.042850 -0.135132
vt -0.937378 1.274540
vt 1.713750 1.087520
vt 1.938480 1.274540
vt -0.712646 1.087520
vt -0.937378 -0.072144
vt -0.712646 0.114990
vt 1.938480 -0.072144
vt 1.713750 0.114990
vt 2.939700 -0.457642
vt 3.000000 -0.424316
vt 2.983520 -0.449219
vt -0.173828 -0.135132
vt -0.567261 -0.135132
vn 0.0000 1.0000 0.0000
vn 0.4263 0.7996 -0.4230
vn -0.4236 0.7996 -0.4256
vn -0.4250 0.7996 -0.4242
vn 0.4250 0.7996 -0.4243
vn 0.4248 0.7979 0.4276
vn 0.4258 0.7979 0.4267
vn -0.4260 0.7980 0.4262
vn -0.4271 0.7979 0.4253
vn 0.0000 1.0000 0.0003
vn 0.0000 -0.9992 0.0392
vn 0.0000 -1.0000 0.0013
usemtl m3stenless_mat
s off
f 3/1/1 2/2/1 1/3/1
f 30/4/1 29/5/1 28/6/1
f 34/7/1 32/8/1 33/9/1
f 34/7/1 35/10/1 32/8/1
f 36/11/1 35/10/1 34/7/1
f 36/11/1 37/12/1 35/10/1
f 38/13/1 35/10/1 37/12/1
f 38/13/1 28/6/1 35/10/1
f 39/14/1 28/6/1 38/13/1
f 39/14/1 40/15/1 28/6/1
f 41/16/1 28/6/1 40/15/1
f 41/16/1 30/4/1 28/6/1
f 42/17/1 30/4/1 41/16/1
f 42/17/1 43/18/1 30/4/1
f 32/8/1 44/19/1 33/9/1
f 32/8/1 45/20/1 44/19/1
f 30/4/1 45/20/1 32/8/1
f 30/4/1 43/18/1 45/20/1
f 7/21/1 5/22/1 50/23/1
f 32/8/1 35/10/1 8/24/1
s 1
f 3/1/1 4/25/1 2/2/1
f 5/22/1 4/25/1 3/1/1
f 5/22/1 6/26/1 4/25/1
f 7/21/1 6/26/1 5/22/1
f 7/21/1 8/24/1 6/26/1
f 9/27/1 8/24/1 7/21/1
f 9/27/1 10/28/1 8/24/1
f 11/29/1 10/28/1 9/27/1
f 14/30/2 13/31/3 12/32/4
f 14/30/2 15/33/5 13/31/3
f 16/34/6 15/33/5 14/30/2
f 16/34/6 17/35/7 15/33/5
f 18/36/8 17/35/7 16/34/6
f 18/36/8 19/37/9 17/35/7
f 12/32/4 19/37/9 18/36/8
f 12/32/4 13/31/3 19/37/9
f 22/38/1 21/39/1 20/40/1
f 22/38/1 23/41/1 21/39/1
f 24/42/1 23/41/1 22/38/1
f 24/42/1 25/43/1 23/41/1
f 26/44/1 25/43/1 24/42/1
f 26/44/1 27/45/1 25/43/1
f 20/40/1 27/45/1 26/44/1
f 20/40/1 21/39/1 27/45/1
f 30/4/10 31/46/1 29/5/1
f 32/8/1 31/46/1 30/4/10
f 32/8/1 10/28/1 31/46/1
f 8/24/1 10/28/1 32/8/1
f 4/25/1 46/47/1 2/2/1
f 4/25/1 29/5/1 46/47/1
f 46/47/1 31/46/1 47/48/1
f 46/47/1 29/5/1 31/46/1
f 49/49/11 19/37/9 48/50/12
f 49/49/11 17/35/7 19/37/9
