# Blender v3.0.0 OBJ File: ''
# www.blender.org
mtllib stem.mtl
o mesh-1_meshId1_name
v 1.382810 11.872836 2.994967
v 0.355469 11.869628 3.314110
v 0.916016 12.337466 2.196730
v -0.474609 12.335987 2.377177
v 0.476563 13.709445 1.442328
v -0.826172 13.712152 1.093305
v -0.326172 18.597244 1.493747
v -0.888672 18.605667 0.520207
v -0.767578 24.809271 0.867362
v -0.476563 24.777182 -0.220864
v -0.318359 32.540405 -0.222217
v 0.628906 32.286362 -0.773393
v 0.812500 39.474949 -1.094956
v 1.890630 39.338913 -0.798276
v 3.019530 45.178749 -2.057120
v 3.582030 45.172043 -1.081300
v 7.230470 51.737339 -3.789408
v 7.058590 52.176823 -2.767297
v 9.458980 53.404320 -3.728935
v 8.052730 55.043983 -2.904998
v 10.259800 56.074226 -4.586110
v 9.363279 56.628101 -4.984656
v 10.359400 55.530037 -5.568006
v 9.464840 56.083908 -5.966552
v 8.302730 53.419361 -5.731985
v 6.896480 55.058666 -4.906082
v 6.263670 52.188454 -4.147278
v 6.089840 52.627934 -3.125168
v 2.062500 45.382687 -1.503279
v 2.625000 45.375980 -0.527439
v 0.531250 39.599342 -0.011586
v 1.609380 39.463310 0.285094
v 0.242188 32.533955 0.751676
v 1.191410 32.277683 0.202084
v 0.318359 24.765537 1.159186
v 0.607422 24.733446 0.070960
v 0.646484 18.627327 0.931305
v 0.083984 18.635649 -0.042244
v 0.826172 13.719261 0.137398
v -0.476563 13.721872 -0.211643
v 0.474609 12.362930 -1.168684
v -0.917969 12.360743 -0.984397
v -0.357422 11.910837 -2.111772
v -1.382810 11.907726 -1.792615
v 1.773440 12.346258 1.080273
v 1.589840 12.356185 -0.312010
v 2.712890 11.892388 0.244099
v 2.394530 11.900361 -0.781157
v -1.773440 12.352304 0.130138
v -1.589840 12.342024 1.524344
v -2.712890 11.887724 0.960158
v -2.394530 11.879851 1.985426
v -1.666020 11.874323 2.770832
v -2.169920 11.902909 -1.064667
v 1.664060 11.906240 -1.568483
v 2.169920 11.877653 2.267022
v -0.714844 11.871347 3.272718
v -2.671880 11.894542 -0.112967
v 0.714844 11.911086 -2.070028
v 2.669920 11.885217 1.319145
vt -0.149048 0.005615
vt -0.393799 0.000000
vt -0.477783 0.000000
vt 0.040894 0.005615
vt 0.162231 0.022095
vt 0.500000 0.022095
vt 0.261108 0.111694
vt 0.738770 0.111694
vt 0.500000 0.224731
vt 0.837646 0.224121
vt 0.738770 0.356567
vt 0.738770 0.352783
vt 0.837646 0.457153
vt 0.500000 0.455200
vt 0.738770 0.539917
vt 0.261108 0.539917
vt 0.500000 0.650024
vt 0.162231 0.650024
vt 0.009399 0.850098
vt 0.009399 0.850098
vt 0.162231 1.000000
vt 0.500000 1.000000
vt 0.500000 1.000000
vt 0.837646 1.000000
vt 0.990479 0.850098
vt 0.990479 0.850098
vt 0.837646 0.650024
vt 0.500000 0.650024
vt 0.738770 0.542969
vt 0.261108 0.542969
vt 0.500000 0.459106
vt 0.162231 0.457153
vt 0.261108 0.356567
vt 0.261108 0.352783
vt 0.162231 0.224121
vt 0.500000 0.223511
vt 0.261108 0.112061
vt 0.738770 0.112061
vt 0.500000 0.022095
vt 0.837646 0.022095
vt 0.958984 0.005615
vt 1.149050 0.005615
vt 1.393800 0.000000
vt 1.477780 0.000000
vt 0.040894 0.005615
vt 0.500000 0.005615
vt 0.129761 0.000000
vt 0.500000 0.000000
vt 0.958984 0.005615
vt 0.500000 0.005615
vt 0.870117 0.000000
vt 0.500000 0.000000
vt 0.129761 0.000000
vt 1.393800 0.000000
vt 0.870117 0.000000
vt -0.393799 0.000000
vt -0.191406 0.000000
vt 1.191410 0.000000
vt 1.191410 0.000000
vt -0.191406 0.000000
vn 0.3026 0.7909 0.5318
vn 0.0561 0.8995 0.4332
vn 0.2217 0.8935 0.3904
vn -0.1540 0.7994 0.5806
vn 0.4546 0.4294 0.7803
vn -0.7847 0.4196 0.4563
vn -0.2617 0.0332 0.9645
vn -0.9700 0.0157 -0.2425
vn -0.8657 0.0623 0.4966
vn -0.5134 -0.0219 -0.8579
vn -0.9638 0.0677 -0.2577
vn 0.2432 -0.0794 -0.9667
vn -0.5355 0.0142 -0.8444
vn 0.8442 -0.2194 -0.4891
vn 0.1585 -0.2814 -0.9464
vn 0.8968 -0.2906 0.3336
vn 0.5544 -0.7658 -0.3258
vn 0.3547 -0.1548 0.9221
vn 0.7919 -0.4889 0.3658
vn -0.0955 0.4922 0.8652
vn 0.7894 0.5041 0.3503
vn 0.0179 0.9998 -0.0033
vn 0.8661 0.0175 -0.4995
vn 0.0955 0.5129 -0.8531
vn 0.0757 -0.4795 -0.8742
vn -0.7939 0.5013 -0.3440
vn -0.6218 -0.1429 -0.7700
vn -0.7823 0.4266 0.4539
vn -0.9122 0.3213 -0.2541
vn -0.2349 0.3129 0.9203
vn -0.8462 0.2091 0.4901
vn 0.4638 0.0013 0.8859
vn -0.2641 0.0767 0.9614
vn 0.9631 -0.0682 0.2602
vn 0.4892 0.0325 0.8715
vn 0.8630 -0.0544 -0.5022
vn 0.9609 0.0376 0.2743
vn 0.2550 0.0179 -0.9667
vn 0.7744 0.4506 -0.4441
vn -0.4453 0.4415 -0.7789
vn 0.1540 0.8082 -0.5684
vn -0.3038 0.7988 -0.5193
vn -0.0568 0.9062 -0.4190
vn -0.2216 0.8994 -0.3767
vn 0.5747 0.8026 0.1600
vn 0.5257 0.7969 -0.2975
vn 0.4267 0.9030 -0.0497
vn 0.3834 0.8982 -0.2150
vn -0.5744 0.8050 -0.1480
vn -0.5249 0.7928 0.3095
vn -0.4260 0.9025 0.0627
vn -0.3832 0.8950 0.2282
vn -0.2616 0.9004 0.3475
vn -0.3410 0.9048 -0.2548
vn 0.2623 0.9052 -0.3344
vn 0.3413 0.9007 0.2689
vn -0.1141 0.8940 0.4332
vn -0.4280 0.8973 -0.1079
vn 0.1150 0.9000 -0.4205
vn 0.4281 0.8955 0.1217
usemtl m0heta_mat
s 1
f 3/1/1 2/2/2 1/3/3
f 3/1/1 4/4/4 2/2/2
f 5/5/5 4/4/4 3/1/1
f 5/5/5 6/6/6 4/4/4
f 7/7/7 6/6/6 5/5/5
f 7/7/7 8/8/8 6/6/6
f 9/9/9 8/8/8 7/7/7
f 9/9/9 10/10/10 8/8/8
f 11/11/11 10/10/10 9/9/9
f 11/11/11 12/12/12 10/10/10
f 13/13/13 12/12/12 11/11/11
f 13/13/13 14/14/14 12/12/12
f 15/15/15 14/14/14 13/13/13
f 15/15/15 16/16/16 14/14/14
f 17/17/17 16/16/16 15/15/15
f 17/17/17 18/18/18 16/16/16
f 19/19/19 18/18/18 17/17/17
f 19/19/19 20/20/20 18/18/18
f 21/21/21 20/20/20 19/19/19
f 21/21/21 22/22/22 20/20/20
f 23/23/23 22/22/22 21/21/21
f 23/23/23 24/24/24 22/22/22
f 25/25/25 24/24/24 23/23/23
f 25/25/25 26/26/26 24/24/24
f 27/27/27 26/26/26 25/25/25
f 27/27/27 28/28/28 26/26/26
f 29/29/29 28/28/28 27/27/27
f 29/29/29 30/30/30 28/28/28
f 31/31/31 30/30/30 29/29/29
f 31/31/31 32/32/32 30/30/30
f 33/33/33 32/32/32 31/31/31
f 33/33/33 34/34/34 32/32/32
f 35/35/35 34/34/34 33/33/33
f 35/35/35 36/36/36 34/34/34
f 37/37/37 36/36/36 35/35/35
f 37/37/37 38/38/38 36/36/36
f 39/39/39 38/38/38 37/37/37
f 39/39/39 40/40/40 38/38/38
f 41/41/41 40/40/40 39/39/39
f 41/41/41 42/42/42 40/40/40
f 43/43/43 42/42/42 41/41/41
f 43/43/43 44/44/44 42/42/42
f 19/19/19 23/23/23 21/21/21
f 19/19/19 25/25/25 23/23/23
f 17/17/17 25/25/25 19/19/19
f 17/17/17 27/27/27 25/25/25
f 15/15/15 27/27/27 17/17/17
f 15/15/15 29/29/29 27/27/27
f 13/13/13 29/29/29 15/15/15
f 13/13/13 31/31/31 29/29/29
f 11/11/11 31/31/31 13/13/13
f 11/11/11 33/33/33 31/31/31
f 9/9/9 33/33/33 11/11/11
f 9/9/9 35/35/35 33/33/33
f 7/7/7 35/35/35 9/9/9
f 7/7/7 37/37/37 35/35/35
f 5/5/5 37/37/37 7/7/7
f 5/5/5 39/39/39 37/37/37
f 45/45/45 39/39/39 5/5/5
f 45/45/45 46/46/46 39/39/39
f 47/47/47 46/46/46 45/45/45
f 47/47/47 48/48/48 46/46/46
f 26/26/26 22/22/22 24/24/24
f 26/26/26 20/20/20 22/22/22
f 28/28/28 20/20/20 26/26/26
f 28/28/28 18/18/18 20/20/20
f 30/30/30 18/18/18 28/28/28
f 30/30/30 16/16/16 18/18/18
f 32/32/32 16/16/16 30/30/30
f 32/32/32 14/14/14 16/16/16
f 34/34/34 14/14/14 32/32/32
f 34/34/34 12/12/12 14/14/14
f 36/36/36 12/12/12 34/34/34
f 36/36/36 10/10/10 12/12/12
f 38/38/38 10/10/10 36/36/36
f 38/38/38 8/8/8 10/10/10
f 40/40/40 8/8/8 38/38/38
f 40/40/40 6/6/6 8/8/8
f 49/49/49 6/6/6 40/40/40
f 49/49/49 50/50/50 6/6/6
f 51/51/51 50/50/50 49/49/49
f 51/51/51 52/52/52 50/50/50
f 50/50/50 4/4/4 6/6/6
f 50/50/50 53/53/53 4/4/4
f 52/52/52 53/53/53 50/50/50
f 42/42/42 49/49/49 40/40/40
f 42/42/42 54/54/54 49/49/49
f 44/44/44 54/54/54 42/42/42
f 46/46/46 41/41/41 39/39/39
f 46/46/46 55/55/55 41/41/41
f 48/48/48 55/55/55 46/46/46
f 3/1/1 45/45/45 5/5/5
f 3/1/1 56/56/56 45/45/45
f 1/3/3 56/56/56 3/1/1
f 4/4/4 57/57/57 2/2/2
f 4/4/4 53/53/53 57/57/57
f 49/49/49 58/58/58 51/51/51
f 49/49/49 54/54/54 58/58/58
f 41/41/41 59/59/59 43/43/43
f 41/41/41 55/55/55 59/59/59
f 45/45/45 60/60/60 47/47/47
f 45/45/45 56/56/56 60/60/60
