# Blender v3.0.0 OBJ File: ''
# www.blender.org
mtllib detector_icons.mtl
o mesh-1_meshId1_name.004
v 5.738915 26.273399 -1.017953
v 5.732191 26.273399 -5.006491
v 6.929852 26.273399 -1.020322
v 6.920464 26.273399 -5.009563
v 7.367371 26.273399 -1.021302
v 7.359670 26.273399 -5.011522
v 8.556617 26.273399 -1.022678
v 8.548922 26.273399 -5.012909
v 9.025623 26.273399 -1.023870
v 9.016941 26.273399 -5.015781
v 10.215581 26.273399 -1.027925
v 10.207923 26.273399 -5.018172
v 10.653101 26.273399 -1.028905
v 10.645432 26.273399 -5.019149
v 11.844019 26.273399 -1.031263
v 11.833703 26.273399 -5.022225
v 12.281530 26.273399 -1.032238
v 12.272857 26.273399 -5.024154
v 13.472515 26.273399 -1.034623
v 13.462112 26.273399 -5.025536
v 13.939835 26.273399 -1.034837
v 13.931162 26.273399 -5.026753
v 15.129749 26.273399 -1.038867
v 15.122054 26.273397 -5.029096
v -15.144594 26.273399 -0.971323
v -15.154978 26.273399 -4.962200
v -13.955341 26.273399 -0.972703
v -13.964033 26.273399 -4.964575
v -13.517829 26.273399 -0.973679
v -13.526539 26.273399 -4.965598
v -12.326936 26.273399 -0.976022
v -12.335602 26.273399 -4.967965
v -11.857912 26.273399 -0.977224
v -11.866581 26.273399 -4.969132
v -10.667954 26.273399 -0.981279
v -10.677330 26.273399 -4.970521
v -10.230435 26.273399 -0.982259
v -10.239820 26.273399 -4.971496
v -9.041181 26.273399 -0.983640
v -9.049862 26.273399 -4.975551
v -8.601974 26.273399 -0.985599
v -8.612343 26.273399 -4.976531
v -7.412733 26.273399 -0.986983
v -7.421407 26.273399 -4.978900
v -6.943722 26.273399 -0.988167
v -6.952400 26.273399 -4.980092
v -5.753764 26.273399 -0.992222
v -5.763154 26.273399 -4.981468
v -4.999945 26.273399 0.011038
v -5.012796 26.273399 -5.988218
v 4.999949 26.273399 -0.011038
v 4.987098 26.273399 -6.010295
v 9.090693 21.982397 40.978661
v 9.081446 21.982397 36.977985
v 17.090290 21.982397 40.961185
v 17.081041 21.982397 36.960510
v -16.908325 21.982399 41.035652
v -16.917574 21.982401 37.034973
v -8.908780 21.982399 41.018208
v -8.918031 21.982399 37.017529
vt 0.681885 0.136719
vt 0.612793 0.778076
vt 0.612793 0.136719
vt 0.681885 0.778076
vt 0.681885 0.136719
vt 0.612793 0.778076
vt 0.612793 0.136719
vt 0.681885 0.778076
vt 0.681885 0.136719
vt 0.612793 0.778076
vt 0.612793 0.136719
vt 0.681885 0.778076
vt 0.681885 0.136719
vt 0.612793 0.778076
vt 0.612793 0.136719
vt 0.681885 0.778076
vt 0.681885 0.136719
vt 0.612793 0.778076
vt 0.612793 0.136719
vt 0.681885 0.778076
vt 0.681885 0.136719
vt 0.612793 0.778076
vt 0.612793 0.136719
vt 0.681885 0.778076
vt 0.681885 0.136719
vt 0.612793 0.778076
vt 0.612793 0.136719
vt 0.681885 0.778076
vt 0.681885 0.136719
vt 0.612793 0.778076
vt 0.612793 0.136719
vt 0.681885 0.778076
vt 0.681885 0.136719
vt 0.612793 0.778076
vt 0.612793 0.136719
vt 0.681885 0.778076
vt 0.681885 0.136719
vt 0.612793 0.778076
vt 0.612793 0.136719
vt 0.681885 0.778076
vt 0.681885 0.136719
vt 0.612793 0.778076
vt 0.612793 0.136719
vt 0.681885 0.778076
vt 0.681885 0.136719
vt 0.612793 0.778076
vt 0.612793 0.136719
vt 0.681885 0.778076
vt 1.259280 0.108643
vt 0.742188 0.902588
vt 0.742188 0.108643
vt 1.259280 0.902588
vt 0.470215 0.005127
vt 0.040527 0.482178
vt 0.040527 0.005127
vt 0.470215 0.482178
vt 0.494141 0.486816
vt -0.000244 0.993408
vt -0.000244 0.486816
vt 0.494141 0.993408
vn 0.0000 1.0000 0.0000
usemtl m4switch_logo_mat_v
s off
f 3/1/1 2/2/1 1/3/1
f 3/1/1 4/4/1 2/2/1
f 7/5/1 6/6/1 5/7/1
f 7/5/1 8/8/1 6/6/1
f 11/9/1 10/10/1 9/11/1
f 11/9/1 12/12/1 10/10/1
f 15/13/1 14/14/1 13/15/1
f 15/13/1 16/16/1 14/14/1
f 19/17/1 18/18/1 17/19/1
f 19/17/1 20/20/1 18/18/1
f 23/21/1 22/22/1 21/23/1
f 23/21/1 24/24/1 22/22/1
f 27/25/1 26/26/1 25/27/1
f 27/25/1 28/28/1 26/26/1
f 31/29/1 30/30/1 29/31/1
f 31/29/1 32/32/1 30/30/1
f 35/33/1 34/34/1 33/35/1
f 35/33/1 36/36/1 34/34/1
f 39/37/1 38/38/1 37/39/1
f 39/37/1 40/40/1 38/38/1
f 43/41/1 42/42/1 41/43/1
f 43/41/1 44/44/1 42/42/1
f 47/45/1 46/46/1 45/47/1
f 47/45/1 48/48/1 46/46/1
f 51/49/1 50/50/1 49/51/1
f 51/49/1 52/52/1 50/50/1
f 55/53/1 54/54/1 53/55/1
f 55/53/1 56/56/1 54/54/1
f 59/57/1 58/58/1 57/59/1
f 59/57/1 60/60/1 58/58/1
