# Blender v3.0.0 OBJ File: ''
# www.blender.org
mtllib detector_logos.mtl
o mesh-0_meshId0_name.007
v 16.810440 21.982397 24.205318
v -15.406958 21.982401 22.329401
v 15.504560 21.982397 22.262402
v -14.955657 21.982401 20.032875
v 15.043977 21.982399 19.966660
v -15.416235 21.982401 17.737141
v 15.494295 21.982399 17.668497
v -16.722134 21.982401 15.794193
v 16.790701 21.982399 15.719309
v -18.672302 21.982401 14.496099
v 18.734653 21.982399 14.415139
v -20.428181 21.982401 11.046130
v 20.476969 21.982399 10.954008
v 17.784554 21.982397 24.852753
v 16.445368 21.982397 32.962151
v -16.703407 21.982401 24.278496
v -18.023367 21.212900 -10.959670
v -18.073792 21.212902 -32.958763
v 17.975584 21.212898 -11.038748
v 17.926838 21.212898 -33.038822
v -4.353018 15.212900 41.323547
v -4.364697 15.212900 36.692078
v 4.537451 15.212898 41.304062
v 4.525632 15.212899 36.672554
v -4.353018 15.212900 41.323547
v -4.353018 21.212900 41.323547
v -4.364697 15.212900 36.692078
v -4.364697 21.212900 36.692078
v 4.537451 15.212898 41.304062
v 4.537452 21.212900 41.304062
v -4.353018 15.212900 41.323547
v -4.353018 21.212900 41.323547
v 4.525632 15.212899 36.672554
v 4.525633 21.212898 36.672554
v 4.537451 15.212898 41.304062
v 4.537452 21.212900 41.304062
v -4.364697 15.212900 36.692078
v -4.364697 21.212900 36.692078
v 4.525632 15.212899 36.672554
v 4.525633 21.212898 36.672554
v -16.299322 21.982401 33.033768
v -17.675383 21.982401 24.930639
v -19.819698 21.982401 14.269957
v 19.881680 21.982399 14.185283
v -18.070549 21.212902 -31.544533
v -15.756330 21.212902 -31.549614
v 17.929970 21.212898 -31.624533
v 15.147861 21.212898 -12.758161
v -18.027323 21.212900 -12.685287
v 17.971764 21.212898 -12.764441
v -16.394703 21.982401 30.967176
v 8.620949 21.982397 30.912464
v 19.867393 21.982399 12.164942
v -9.066478 21.982399 12.023529
vt 0.500977 0.454102
vt -0.002197 0.454102
vt 0.521973 0.351074
vt 0.005127 0.575928
vt 0.493408 0.575928
vt -0.002197 0.697510
vt 0.500977 0.697510
vt -0.023438 0.800781
vt 0.521973 0.800781
vt -0.054932 0.869629
vt 0.553711 0.869629
vt 0.101367 0.999439
vt -0.083496 1.052490
vt 0.572281 0.988513
vt 0.515869 -0.113037
vt 0.537842 0.316650
vt -0.023438 0.351074
vt 0.388571 -0.003488
vt 0.641247 0.345050
vt 0.627416 0.377037
vt 0.627416 0.345050
vt 0.842557 0.345050
vt 0.842557 0.377037
vt 0.877931 0.267414
vt 0.655337 0.323062
vt 0.655337 0.267414
vt 0.877931 0.323062
vt 0.655337 0.323062
vt 0.655337 0.267414
vt 0.655337 0.267414
vt 0.655337 0.323062
vt 0.655337 0.267414
vt 0.877931 0.267414
vt 0.877931 0.267414
vt 0.655337 0.267414
vt 0.877931 0.267414
vt 0.877931 0.323062
vt 0.877931 0.323062
vt 0.877931 0.267414
vt 0.877931 0.323062
vt 0.655337 0.323062
vt 0.655337 0.323062
vt 0.877931 0.323062
vt 0.653159 0.369195
vt 0.653742 0.326583
vt 0.861050 0.326583
vt 0.811535 0.369195
vt -0.039307 0.316650
vt -0.017090 -0.113037
vt -0.018588 -0.003488
vt -0.073730 0.881836
vt 0.582275 1.052490
vt 0.572510 0.881836
vt 0.994385 0.021111
vt 0.994385 0.988265
vt 0.537950 0.988264
vt 0.956122 0.021111
vt 0.506592 0.988265
vt 0.506592 0.021111
vt 0.900552 0.263335
vt 0.880171 0.310472
vt 0.640730 0.310472
vt 0.640730 0.263335
vt 0.900552 0.310472
vt 0.624509 0.964003
vt 0.509850 0.964003
vt 0.541687 0.954866
vt 0.622788 0.952985
vn 0.0000 1.0000 -0.0000
vn 1.0000 0.0000 -0.0025
vn -0.0022 0.0000 -1.0000
vn -1.0000 0.0000 0.0026
vn 0.0022 0.0000 1.0000
usemtl m2logo_mat_v
s off
f 3/1/1 2/2/1 1/3/1
f 3/1/1 4/4/1 2/2/1
f 5/5/1 4/4/1 3/1/1
f 5/5/1 6/6/1 4/4/1
f 7/7/1 6/6/1 5/5/1
f 7/7/1 8/8/1 6/6/1
f 9/9/1 8/8/1 7/7/1
f 9/9/1 10/10/1 8/8/1
f 11/11/1 10/10/1 9/9/1
f 11/11/1 54/12/1 12/13/1 10/10/1
f 53/14/1 54/12/1 11/11/1
f 1/3/1 15/15/1 14/16/1
f 1/3/1 16/17/1 52/18/1 15/15/1
f 2/2/1 16/17/1 1/3/1
f 46/19/1 18/20/1 45/21/1
f 47/22/1 20/23/1 18/20/1 46/19/1
f 23/24/1 22/25/1 21/26/1
f 23/24/1 24/27/1 22/25/1
f 27/28/2 26/29/2 25/30/2
f 27/28/2 28/31/2 26/29/2
f 31/32/3 30/33/3 29/34/3
f 31/32/3 32/35/3 30/33/3
f 35/36/4 34/37/4 33/38/4
f 35/36/4 36/39/4 34/37/4
f 39/40/5 38/41/5 37/42/5
f 39/40/5 40/43/5 38/41/5
f 51/44/1 41/45/1 15/46/1 52/47/1
f 16/17/1 42/48/1 41/49/1 51/50/1
f 10/10/1 12/13/1 43/51/1
f 13/52/1 53/14/1 11/11/1 44/53/1
f 50/54/1 47/55/1 46/56/1 48/57/1
f 48/57/1 46/56/1 45/58/1 49/59/1
f 19/60/1 48/61/1 49/62/1 17/63/1
f 19/60/1 50/64/1 48/61/1
f 16/17/1 51/50/1 52/18/1
f 13/65/1 12/66/1 54/67/1 53/68/1
