# Blender v3.0.0 OBJ File: ''
# www.blender.org
mtllib vacuum_cords.mtl
o mesh-3_meshId3_name.001
v -11.000000 36.386700 1.000006
v -12.000000 -7.000000 1.414059
v -13.000000 36.386700 1.000006
v -13.414100 -7.000000 -0.000001
v -13.000000 36.386700 -0.999994
v -12.000000 -7.000000 -1.414061
v -11.000000 36.386700 -0.999994
v -10.584001 -7.000000 -0.000001
v 13.000000 36.386700 1.000006
v 12.000000 -7.000000 1.414059
v 11.000000 36.386700 1.000006
v 10.584001 -7.000000 -0.000001
v 11.000000 36.386700 -0.999994
v 12.000000 -7.000000 -1.414061
v 13.000000 36.386700 -0.999994
v 13.414100 -7.000000 -0.000001
v -6.365230 36.386700 -9.025384
v -7.224610 -6.999999 -9.683591
v -7.365230 36.386700 -10.757794
v -6.707030 -6.999998 -11.615201
v -5.632810 36.386703 -11.757794
v -4.773440 -6.999998 -11.097701
v -4.632810 36.386700 -10.025394
v -5.291020 -6.999999 -9.166020
v 5.632810 36.386696 11.757806
v 4.773440 -7.000002 11.097699
v 4.632810 36.386700 10.025406
v 5.291020 -7.000001 9.166018
v 6.365230 36.386700 9.025395
v 7.224610 -7.000001 9.683589
v 7.365230 36.386700 10.757806
v 6.707030 -7.000002 11.615199
v -7.365230 36.386700 10.757806
v -7.224610 -7.000001 9.683589
v -6.365230 36.386700 9.025395
v -5.291020 -7.000001 9.166018
v -4.632810 36.386700 10.025406
v -4.773440 -7.000002 11.097699
v -5.632810 36.386696 11.757806
v -6.707030 -7.000002 11.615199
v 5.632810 36.386703 -11.757794
v 6.707030 -6.999998 -11.615201
v 7.365230 36.386700 -10.757794
v 7.224610 -6.999999 -9.683591
v 6.365230 36.386700 -9.025384
v 5.291020 -6.999999 -9.166020
v 4.632810 36.386700 -10.025394
v 5.291020 -6.999999 -9.166020
v 6.707030 -6.999998 -11.615201
v 4.773440 -6.999998 -11.097701
v 5.632810 36.386703 -11.757794
v 4.632810 36.386700 -10.025394
vt 0.191040 1.000000
vt 0.203979 0.000000
vt 0.195435 1.000000
vt 0.166626 0.000000
vt 0.142212 1.000000
vt 0.129272 0.000000
vt 0.137817 1.000000
vt 0.166626 0.000000
vt 1.137820 1.000000
vt 1.129270 0.000000
vt 1.142210 1.000000
vt 1.166630 0.000000
vt 1.195430 1.000000
vt 1.203980 0.000000
vt 1.191040 1.000000
vt 1.166630 0.000000
vt -0.142090 1.000000
vt -0.129272 0.000000
vt -0.137695 1.000000
vt -0.166626 0.000000
vt -0.191040 1.000000
vt -0.203857 0.000000
vt -0.195435 1.000000
vt -0.166626 0.000000
vt 0.804443 1.000000
vt 0.796021 0.000000
vt 0.808838 1.000000
vt 0.833252 0.000000
vt 0.862183 1.000000
vt 0.870605 0.000000
vt 0.857788 1.000000
vt 0.833252 0.000000
vt 0.471069 1.000000
vt 0.462646 0.000000
vt 0.475586 1.000000
vt 0.500000 0.000000
vt 0.528809 1.000000
vt 0.537354 0.000000
vt 0.524414 1.000000
vt 0.500000 0.000000
vt 1.475590 1.000000
vt 1.500000 0.000000
vt 1.524410 1.000000
vt 1.462650 0.000000
vt 1.471070 1.000000
vt 1.500000 0.000000
vt 1.528810 1.000000
vt -0.462524 0.000000
vt -0.499878 0.000000
vt -0.499878 0.000000
vt -0.475464 1.000000
vt -0.471069 1.000000
vn -0.7070 0.0130 0.7070
vn -0.0002 -0.5821 0.8131
vn 0.7070 0.0130 0.7071
vn -0.8131 -0.5821 0.0000
vn -0.7070 0.0130 -0.7070
vn -0.0002 -0.5821 -0.8131
vn 0.7070 0.0130 -0.7071
vn 0.8132 -0.5820 0.0000
vn -0.7070 0.0130 0.7071
vn 0.0002 -0.5821 0.8131
vn 0.7070 0.0130 0.7070
vn -0.8132 -0.5820 0.0000
vn -0.7070 0.0130 -0.7071
vn 0.0002 -0.5821 -0.8131
vn 0.7070 0.0130 -0.7070
vn 0.8131 -0.5821 0.0000
vn -0.9658 0.0130 -0.2589
vn -0.7041 -0.5821 0.4066
vn -0.2589 0.0130 0.9658
vn -0.4067 -0.5821 -0.7041
vn 0.2589 0.0130 -0.9658
vn 0.7041 -0.5821 -0.4066
vn 0.9658 0.0130 0.2589
vn 0.4066 -0.5821 0.7041
vn -0.4066 -0.5821 -0.7041
vn 0.4067 -0.5821 0.7041
vn -0.2589 0.0130 -0.9658
vn -0.7041 -0.5821 -0.4066
vn -0.9658 0.0130 0.2589
vn 0.4066 -0.5821 -0.7041
vn 0.9658 0.0130 -0.2589
vn 0.7041 -0.5821 0.4066
vn 0.2589 0.0130 0.9658
vn -0.4067 -0.5821 0.7041
vn 0.8568 -0.4517 -0.2486
vn 0.4999 0.0095 -0.8660
vn 0.2129 -0.4513 0.8666
vn -0.4999 0.0096 0.8660
vn -0.2297 -0.4591 -0.8581
vn -0.8579 -0.4595 0.2299
vn -0.8555 0.0091 -0.5177
vn -0.8761 0.0091 -0.4819
usemtl m0ashi_mat.001
s 1
f 3/1/1 2/2/2 1/3/3
f 3/1/1 4/4/4 2/2/2
f 5/5/5 4/4/4 3/1/1
f 5/5/5 6/6/6 4/4/4
f 7/7/7 6/6/6 5/5/5
f 7/7/7 8/8/8 6/6/6
f 1/3/3 8/8/8 7/7/7
f 1/3/3 2/2/2 8/8/8
f 11/9/9 10/10/10 9/11/11
f 11/9/9 12/12/12 10/10/10
f 13/13/13 12/12/12 11/9/9
f 13/13/13 14/14/14 12/12/12
f 15/15/15 14/14/14 13/13/13
f 15/15/15 16/16/16 14/14/14
f 9/11/11 16/16/16 15/15/15
f 9/11/11 10/10/10 16/16/16
f 19/17/17 18/18/18 17/19/19
f 19/17/17 20/20/20 18/18/18
f 21/21/21 20/20/20 19/17/17
f 21/21/21 22/22/22 20/20/20
f 23/23/23 22/22/22 21/21/21
f 23/23/23 24/24/24 22/22/22
f 17/19/19 24/24/24 23/23/23
f 17/19/19 18/18/18 24/24/24
f 27/25/17 26/26/18 25/27/19
f 27/25/17 28/28/25 26/26/18
f 29/29/21 28/28/25 27/25/17
f 29/29/21 30/30/22 28/28/25
f 31/31/23 30/30/22 29/29/21
f 31/31/23 32/32/26 30/30/22
f 25/27/19 32/32/26 31/31/23
f 25/27/19 26/26/18 32/32/26
f 35/33/27 34/34/28 33/35/29
f 35/33/27 36/36/30 34/34/28
f 37/37/31 36/36/30 35/33/27
f 37/37/31 38/38/32 36/36/30
f 39/39/33 38/38/32 37/37/31
f 39/39/33 40/40/34 38/38/32
f 33/35/29 40/40/34 39/39/33
f 33/35/29 34/34/28 40/40/34
f 43/41/31 42/42/35 41/43/36
f 43/41/31 44/44/32 42/42/35
f 45/45/33 44/44/32 43/41/31
f 45/45/33 46/46/37 44/44/32
f 47/47/38 46/46/37 45/45/33
f 50/48/28 49/49/39 48/50/40
f 50/48/28 51/51/41 49/49/39
f 52/52/42 51/51/41 50/48/28
f 4/4/4 8/8/8 2/2/2
f 4/4/4 6/6/6 8/8/8
f 12/12/12 16/16/16 10/10/10
f 12/12/12 14/14/14 16/16/16
f 20/20/20 24/24/24 18/18/18
f 20/20/20 22/22/22 24/24/24
f 28/28/25 32/32/26 26/26/18
f 28/28/25 30/30/22 32/32/26
f 36/36/30 40/40/34 34/34/28
f 36/36/30 38/38/32 40/40/34
f 46/46/37 42/42/35 44/44/32
f 50/48/28 48/50/40 52/52/42
