# Blender v3.0.0 OBJ File: ''
# www.blender.org
mtllib vacuum_logo.mtl
o mesh-0_meshId0_name.001
v 8.693359 1.826172 -15.058599
v 10.000000 4.826173 -17.320299
v 2.269530 1.826173 -17.240200
v 2.609380 4.826173 -19.828100
v -4.500000 1.826173 -16.796900
v -5.175780 4.826173 -19.318399
v -10.585899 1.826172 -13.794900
v -12.173800 4.826172 -15.865199
v -15.058599 1.826171 -8.693359
v -17.320299 4.826171 -9.999999
v -17.240200 1.826170 -2.269530
v -19.828100 4.826170 -2.609379
v -16.796900 1.826169 4.500000
v -19.318399 4.826169 5.175781
v -13.794900 1.826168 10.585899
v -15.865200 4.826168 12.173800
v -8.693359 1.826167 15.058599
v -10.000000 4.826167 17.320299
v -2.269530 1.826167 17.240200
v -2.609380 4.826167 19.828100
v 4.500000 1.826167 16.796900
v 5.175780 4.826167 19.318399
v 10.585899 1.826168 13.794900
v 12.173800 4.826168 15.865201
v 15.058599 1.826169 8.693359
v 17.320299 4.826169 10.000001
v 17.240200 1.826170 2.269530
v 19.828100 4.826169 2.609381
v 16.796900 1.826171 -4.500000
v 19.318399 4.826171 -5.175779
v 13.794900 1.826172 -10.585899
v 15.865200 4.826172 -12.173799
v 8.693359 1.826172 -15.058599
v 10.000000 4.826173 -17.320299
v 10.000000 43.386703 -17.320292
v 2.609380 43.386703 -19.828093
v -5.175780 43.386703 -19.318392
v -12.173800 43.386703 -15.865193
v -17.320299 43.386700 -9.999993
v -19.828100 43.386700 -2.609373
v -19.318399 43.386700 5.175787
v -15.865200 43.386696 12.173806
v -10.000000 43.386696 17.320307
v -2.609380 43.386696 19.828108
v 5.175780 43.386696 19.318407
v 12.173800 43.386696 15.865207
v 17.320299 43.386700 10.000007
v 19.828100 43.386700 2.609387
v 19.318399 43.386700 -5.175773
v 15.865200 43.386703 -12.173793
v 10.000000 43.386703 -17.320292
v 9.656250 46.478504 -16.724592
v 2.519530 46.478504 -19.146492
v -4.998050 46.478504 -18.654291
v -11.755899 46.478504 -15.322292
v -16.724600 46.478500 -9.656242
v -19.146500 46.478500 -2.519522
v -18.654299 46.478500 4.998057
v -15.322300 46.478497 11.755907
v -9.656250 46.478497 16.724607
v -2.519530 46.478497 19.146507
v 4.998050 46.478497 18.654306
v 11.755899 46.478497 15.322308
v 16.724600 46.478500 9.656258
v 19.146500 46.478500 2.519537
v 18.654299 46.478500 -4.998042
v 15.322300 46.478504 -11.755892
v 9.656250 46.478504 -16.724592
v 8.398439 49.482403 -14.546892
v 2.191410 49.482403 -16.652292
v -4.345700 49.482403 -16.224592
v -10.224600 49.482403 -13.326192
v -14.546900 49.482399 -8.398432
v -16.652300 49.482399 -2.191402
v -16.224600 49.482399 4.345708
v -13.326200 49.482399 10.224607
v -8.398439 49.482395 14.546907
v -2.191410 49.482395 16.652308
v 4.345700 49.482395 16.224607
v 10.224600 49.482395 13.326207
v 14.546900 49.482399 8.398447
v 16.652300 49.482399 2.191418
v 16.224600 49.482399 -4.345692
v 13.326200 49.482399 -10.224592
v 8.398439 49.482403 -14.546892
v 6.193360 51.935497 -10.728491
v 1.617190 51.935501 -12.283191
v -3.205080 51.935501 -11.966791
v -7.541020 51.935497 -9.828121
v -10.728499 51.935497 -6.193351
v -12.283199 51.935497 -1.617182
v -11.966800 51.935497 3.205088
v -9.828130 51.935497 7.541028
v -6.193360 51.935497 10.728508
v -1.617190 51.935493 12.283208
v 3.205080 51.935493 11.966808
v 7.541020 51.935497 9.828138
v 10.728499 51.935497 6.193368
v 12.283199 51.935497 1.617198
v 11.966800 51.935497 -3.205072
v 9.828130 51.935497 -7.541011
v 6.193360 51.935497 -10.728491
v -0.769531 57.828098 1.333989
v -0.890625 59.511700 1.486340
v 0.529297 57.828098 1.505869
v 1.656250 59.511700 0.802744
v 1.570310 57.828098 0.707040
v 1.742190 57.828098 -0.591788
v 3.597660 56.386700 0.333993
v 2.892580 56.386700 -2.291011
v 4.828130 53.386700 -1.292961
v 2.500000 53.386700 -4.330071
v -2.193360 61.099598 0.941416
v -0.890625 59.511700 1.486340
v -1.572270 59.511700 -1.060540
v -1.568360 57.828098 0.292978
v -1.396480 57.828098 -1.005851
v -3.447270 56.386700 -0.591788
v -2.087890 56.386700 -2.947261
v -4.330080 53.386700 -2.499991
v -1.292970 53.386700 -4.828121
v -0.355469 57.828098 -1.804681
v 0.537109 56.386700 -3.652331
v 2.500000 53.386700 -4.330071
v -0.769531 57.828098 1.333989
v -2.744140 56.386700 2.033209
v -4.828130 53.386700 1.292979
v 4.330080 53.386700 2.500009
v 0.974609 59.511700 -1.744130
v 1.800780 61.099598 -0.126943
v 0.806641 61.099598 -1.330070
v 0.468750 62.689499 -0.623037
v -0.732422 61.099598 -1.589830
v -0.388672 56.386700 3.394539
v -2.500000 53.386700 4.330089
v -1.267580 62.689499 -0.158193
v -0.802734 62.689499 1.578140
v -1.199220 61.099598 2.144540
v 0.337891 61.099598 2.404310
v 1.292970 53.386700 4.828138
v 2.236330 56.386700 2.689459
v -1.267580 62.689499 -0.158193
v -0.732422 61.099598 -1.589830
v -1.935550 61.099598 -0.595693
v -2.193360 61.099598 0.941416
v 0.974609 59.511700 -1.744130
v 0.943359 57.828098 -1.632801
v 1.541020 61.099598 1.410170
v 0.337891 61.099598 2.404310
v 0.933594 62.689499 1.111340
v -0.041016 63.457005 0.548838
v 1.800780 61.099598 -0.126943
v -15.058599 1.826171 -8.693359
v -10.585899 1.826172 -13.794900
v 0.000000 1.826170 0.000000
v -4.500000 1.826173 -16.796900
v 2.269530 1.826173 -17.240200
v -13.794900 1.826168 10.585899
v -16.796900 1.826169 4.500000
v -17.240200 1.826170 -2.269530
v 4.500000 1.826167 16.796900
v -2.269530 1.826167 17.240200
v -8.693359 1.826167 15.058599
v 0.933594 62.689499 1.111340
v -0.041016 63.457005 0.548838
v 0.000000 1.826170 0.000000
v 10.585899 1.826168 13.794900
v 15.058599 1.826169 8.693359
v 17.240200 1.826170 2.269530
v 16.796900 1.826171 -4.500000
v 8.693359 1.826172 -15.058599
v 13.794900 1.826172 -10.585899
v 0.943359 57.828098 -1.632801
v 0.537109 56.386700 -3.652331
v 8.693359 1.826172 -15.058599
v -10.643877 9.059309 16.755323
v -10.000000 9.059309 17.320301
v -3.420716 9.059309 19.552797
v -2.609380 9.059309 19.828104
v -16.244289 9.059310 11.405565
v -19.374355 9.059311 4.321133
v -19.318399 9.059311 5.175782
v 4.321132 9.059309 19.374357
v 5.175780 9.059309 19.318401
v -15.865200 9.059310 12.173801
v 11.405563 9.059309 16.244291
v -15.534106 41.209934 12.464329
v -10.000000 41.209934 17.320307
v -9.582796 41.209934 17.461874
v -2.609380 41.209934 19.828108
v -19.123465 41.209938 5.570828
v -19.799328 41.209938 -2.169897
v -19.318399 41.209938 5.175787
v -2.169904 41.209934 19.799335
v 5.175780 41.209934 19.318407
v -15.865200 41.209934 12.173806
v 5.570822 41.209934 19.123472
vt 0.803784 0.264577
vt 0.809542 0.264577
vt 0.815670 0.264577
vt 0.803413 0.264577
vt 0.797282 0.264577
vt 0.827927 0.264577
vt 0.834055 0.264577
vt 0.821802 0.264577
vt 0.846316 0.264577
vt 0.852444 0.264577
vt 0.840184 0.264577
vt 0.858573 0.264577
vt 0.901853 0.264577
vt 0.864704 0.264577
vt 0.870833 0.264577
vt 0.876961 0.264577
vt 0.883093 0.264577
vt 0.889222 0.264577
vt 0.791153 0.264577
vt 0.797282 0.264577
vt 0.791153 0.266891
vt 0.791153 0.264577
vt 0.797282 0.266891
vt 0.803413 0.264577
vt 0.803413 0.266891
vt 0.809542 0.264577
vt 0.809542 0.266891
vt 0.815670 0.264577
vt 0.815670 0.266891
vt 0.821802 0.264577
vt 0.821802 0.266891
vt 0.827927 0.264577
vt 0.827927 0.266891
vt 0.834055 0.264577
vt 0.834055 0.266891
vt 0.840184 0.264577
vt 0.840184 0.266891
vt 0.846316 0.264577
vt 0.846316 0.266891
vt 0.852444 0.264577
vt 0.852444 0.266891
vt 0.858573 0.264577
vt 0.858573 0.266891
vt 0.864704 0.264577
vt 0.864704 0.266891
vt 0.870833 0.264577
vt 0.870833 0.266891
vt 0.876961 0.264577
vt 0.876961 0.266891
vt 0.883093 0.264577
vt 0.883093 0.266891
vt 0.889222 0.264577
vt 0.889222 0.266891
vt 0.791153 0.300856
vt 0.797282 0.300856
vt 0.803413 0.300856
vt 0.809542 0.300856
vt 0.815670 0.300856
vt 0.821802 0.300856
vt 0.827255 0.270619
vt 0.822148 0.298939
vt 0.827927 0.298939
vt 0.827927 0.300856
vt 0.828273 0.298939
vt 0.834055 0.298939
vt 0.834055 0.300856
vt 0.834401 0.298939
vt 0.840184 0.298939
vt 0.840184 0.300856
vt 0.840530 0.298939
vt 0.846316 0.298939
vt 0.846316 0.300856
vt 0.846662 0.298939
vt 0.852444 0.298939
vt 0.852444 0.300856
vt 0.852790 0.298939
vt 0.858573 0.300856
vt 0.857900 0.270619
vt 0.864704 0.300856
vt 0.870833 0.300856
vt 0.876961 0.300856
vt 0.883093 0.300856
vt 0.889222 0.300856
vt 0.791153 0.302401
vt 0.797282 0.302401
vt 0.803413 0.302401
vt 0.809542 0.302401
vt 0.815670 0.302401
vt 0.821802 0.302401
vt 0.827927 0.302401
vt 0.834055 0.302401
vt 0.840184 0.302401
vt 0.846316 0.302401
vt 0.852444 0.302401
vt 0.858573 0.302401
vt 0.864704 0.302401
vt 0.870833 0.302401
vt 0.876961 0.302401
vt 0.883093 0.302401
vt 0.889222 0.302401
vt 0.791153 0.303946
vt 0.797282 0.303946
vt 0.803413 0.303946
vt 0.809542 0.303946
vt 0.815670 0.303946
vt 0.821802 0.303946
vt 0.827927 0.303946
vt 0.834055 0.303946
vt 0.840184 0.303946
vt 0.846316 0.303946
vt 0.852444 0.303946
vt 0.858573 0.303946
vt 0.864704 0.303946
vt 0.870833 0.303946
vt 0.876961 0.303946
vt 0.883093 0.303946
vt 0.889222 0.303946
vt 0.791153 0.306260
vt 0.797282 0.306260
vt 0.803413 0.306260
vt 0.809542 0.306260
vt 0.815670 0.306260
vt 0.821802 0.306260
vt 0.827927 0.306260
vt 0.834055 0.306260
vt 0.840184 0.306260
vt 0.846316 0.306260
vt 0.852444 0.306260
vt 0.858573 0.306260
vt 0.864704 0.306260
vt 0.870833 0.306260
vt 0.876961 0.306260
vt 0.883093 0.306260
vt 0.889222 0.306260
vt 0.849529 0.312042
vt 0.913739 0.313010
vt 0.938256 0.312042
vt 0.874479 0.313010
vt 0.859737 0.312042
vt 0.872361 0.312042
vt 0.871427 0.310895
vt 0.883334 0.310895
vt 0.876961 0.308578
vt 0.889222 0.308578
vt 0.805896 0.313010
vt 0.815670 0.313010
vt 0.798524 0.313254
vt 0.830842 0.312042
vt 0.820638 0.312042
vt 0.821188 0.310895
vt 0.808948 0.310895
vt 0.815670 0.308578
vt 0.803413 0.308578
vt 0.808014 0.312042
vt 0.797041 0.310895
vt 0.791153 0.308578
vt 0.840184 0.312042
vt 0.833795 0.310895
vt 0.827927 0.308578
vt 0.864704 0.308578
vt 0.889222 0.313010
vt 0.887979 0.313254
vt 0.886757 0.313254
vt 0.881850 0.313497
vt 0.885534 0.313254
vt 0.846577 0.310895
vt 0.840184 0.308578
vt 0.798524 0.313497
vt 0.791153 0.313497
vt 0.802809 0.313254
vt 0.807097 0.313254
vt 0.859187 0.310895
vt 0.852444 0.308578
vt 0.836500 0.313254
vt 0.889222 0.313497
vt 0.842028 0.313254
vt 0.847555 0.313254
vt 0.791153 0.313010
vt 0.791153 0.312042
vt 0.803413 0.313497
vt 0.856128 0.313254
vt 0.847538 0.313254
vt 0.791153 0.313982
vt 0.838945 0.313254
vt 0.901479 0.313497
vt 0.889222 0.313982
vt 0.889222 0.312042
vt 0.895110 0.310895
vt 0.852444 0.270619
vt 0.851771 0.270619
vt 0.846316 0.270619
vt 0.845643 0.270619
vt 0.840184 0.270619
vt 0.839511 0.270619
vt 0.834055 0.270619
vt 0.833383 0.270619
vt 0.827927 0.270619
vt 1.100229 0.000982
vt 0.918551 1.007878
vt 0.906250 1.007878
vt 0.906250 0.000982
vt 0.700654 1.007878
vt 0.882330 0.000982
vt 0.688354 1.007878
vt 0.688354 0.000982
vt 0.482644 1.007878
vt 0.664420 0.000982
vt 0.470337 1.007878
vt 0.470337 0.000982
vt 0.264741 1.007878
vt 0.446417 0.000982
vt 0.252441 1.007878
vt 0.252441 0.000982
vt 0.046846 1.007878
vt 0.228521 0.000982
vt 0.034546 1.007878
vt 0.034546 0.000982
vn 0.0000 1.0000 0.0000
vn 0.0985 -0.6564 -0.7479
vn 0.3032 -0.3312 -0.8935
vn 0.2445 -0.6494 -0.7201
vn 0.1228 -0.3369 -0.9335
vn -0.1953 -0.6564 -0.7287
vn -0.2438 -0.3369 -0.9094
vn -0.4594 -0.6562 -0.5985
vn -0.5732 -0.3368 -0.7469
vn -0.6531 -0.6566 -0.3772
vn -0.8153 -0.3370 -0.4708
vn -0.7479 -0.6564 -0.0985
vn -0.9335 -0.3369 -0.1228
vn -0.7287 -0.6564 0.1953
vn -0.9094 -0.3369 0.2438
vn -0.5985 -0.6562 0.4594
vn -0.7469 -0.3368 0.5732
vn -0.3772 -0.6566 0.6531
vn -0.4708 -0.3370 0.8153
vn -0.0985 -0.6564 0.7479
vn -0.1228 -0.3369 0.9335
vn 0.1953 -0.6564 0.7287
vn 0.2438 -0.3369 0.9094
vn 0.4594 -0.6562 0.5985
vn 0.5732 -0.3368 0.7469
vn 0.6531 -0.6566 0.3772
vn 0.8153 -0.3370 0.4708
vn 0.7479 -0.6564 0.0985
vn 0.9335 -0.3369 0.1228
vn 0.7287 -0.6564 -0.1953
vn 0.9094 -0.3369 -0.2438
vn 0.5985 -0.6562 -0.4594
vn 0.7469 -0.3368 -0.5732
vn 0.5015 -0.6493 -0.5717
vn 0.6223 -0.3313 -0.7092
vn 0.3195 0.1057 -0.9416
vn 0.1297 0.1077 -0.9857
vn -0.2574 0.1077 -0.9603
vn -0.6052 0.1074 -0.7888
vn -0.8610 0.1077 -0.4971
vn -0.9857 0.1077 -0.1297
vn -0.9978 0.0000 0.0653
vn -0.9659 0.0000 0.2589
vn -0.9603 0.1077 0.2574
vn -0.8968 0.0000 0.4425
vn -0.7934 0.0000 0.6087
vn -0.7888 0.1074 0.6052
vn -0.6595 0.0000 0.7516
vn -0.5000 0.0000 0.8660
vn -0.4971 0.1077 0.8610
vn -0.3213 0.0000 0.9470
vn -0.1305 0.0000 0.9914
vn -0.1297 0.1077 0.9857
vn 0.0653 0.0000 0.9978
vn 0.2589 0.0000 0.9659
vn 0.2574 0.1077 0.9603
vn 0.4425 0.0000 0.8968
vn 0.6052 0.1074 0.7888
vn 0.8610 0.1077 0.4971
vn 0.9857 0.1077 0.1297
vn 0.9603 0.1077 -0.2574
vn 0.7888 0.1074 -0.6052
vn 0.6558 0.1056 -0.7475
vn 0.2910 0.4240 -0.8576
vn 0.1177 0.4308 -0.8947
vn -0.2336 0.4308 -0.8717
vn -0.5493 0.4306 -0.7161
vn -0.7815 0.4308 -0.4512
vn -0.8947 0.4308 -0.1177
vn -0.8717 0.4308 0.2336
vn -0.7161 0.4306 0.5493
vn -0.4512 0.4308 0.7815
vn -0.1177 0.4308 0.8947
vn 0.2336 0.4308 0.8717
vn 0.5493 0.4306 0.7161
vn 0.7815 0.4308 0.4512
vn 0.8947 0.4308 0.1177
vn 0.8717 0.4308 -0.2336
vn 0.7161 0.4306 -0.5493
vn 0.5971 0.4241 -0.6809
vn 0.2112 0.7534 -0.6226
vn 0.0848 0.7598 -0.6446
vn -0.1682 0.7598 -0.6280
vn -0.3958 0.7598 -0.5158
vn -0.5631 0.7597 -0.3251
vn -0.6446 0.7598 -0.0848
vn -0.6280 0.7598 0.1682
vn -0.5158 0.7598 0.3958
vn -0.3251 0.7597 0.5631
vn -0.0848 0.7598 0.6446
vn 0.1682 0.7598 0.6280
vn 0.3958 0.7598 0.5158
vn 0.5631 0.7597 0.3251
vn 0.6446 0.7598 0.0848
vn 0.6280 0.7598 -0.1682
vn 0.5158 0.7598 -0.3958
vn 0.4335 0.7535 -0.4943
vn 0.1179 0.9303 -0.3473
vn 0.0471 0.9329 -0.3570
vn -0.0934 0.9327 -0.3484
vn -0.2192 0.9330 -0.2856
vn -0.3123 0.9327 -0.1803
vn -0.3570 0.9329 -0.0471
vn -0.3484 0.9327 0.0934
vn -0.2856 0.9330 0.2192
vn -0.1803 0.9327 0.3123
vn -0.0470 0.9329 0.3570
vn 0.0934 0.9327 0.3484
vn 0.2192 0.9330 0.2856
vn 0.3123 0.9327 0.1803
vn 0.3570 0.9329 0.0471
vn 0.3484 0.9327 -0.0934
vn 0.2856 0.9330 -0.2192
vn 0.2418 0.9303 -0.2757
vn 0.2237 0.5194 0.8247
vn 0.1551 -0.2226 0.9625
vn -0.1305 -0.0986 0.9865
vn 0.8923 -0.1087 0.4382
vn 0.7665 0.4693 0.4384
vn 0.8199 0.5284 -0.2204
vn 0.7932 0.6007 0.1002
vn 0.6397 0.5897 -0.4929
vn 0.5314 0.8355 -0.1397
vn 0.4284 0.7905 -0.4376
vn -0.8288 -0.0850 -0.5530
vn -0.7842 -0.3091 0.5380
vn -0.8856 -0.0531 0.4614
vn -0.8315 0.5094 0.2214
vn -0.7693 0.4545 -0.4490
vn -0.7806 0.6159 -0.1066
vn -0.4836 0.6008 -0.6366
vn -0.4679 0.8427 -0.2662
vn -0.1447 0.8355 -0.5301
vn -0.2185 0.5189 -0.8264
vn -0.0733 0.5600 -0.8252
vn 0.0767 0.8543 -0.5140
vn -0.5077 0.6019 0.6164
vn -0.6196 0.6262 0.4731
vn -0.5096 0.8491 0.1390
vn 0.4645 0.8427 0.2723
vn 0.8085 0.1157 -0.5769
vn 0.8779 0.2152 -0.4277
vn 0.4702 0.3495 -0.8104
vn 0.3590 0.7032 -0.6136
vn 0.1556 0.3544 -0.9220
vn -0.1000 0.6262 0.7732
vn -0.2620 0.8518 0.4536
vn -0.3607 0.6849 0.6330
vn -0.7009 0.6881 0.1876
vn -0.5001 -0.0088 0.8659
vn -0.1666 -0.0138 0.9859
vn 0.4827 0.6157 0.6227
vn 0.1344 0.8490 0.5109
vn -0.4431 0.1979 -0.8743
vn -0.4628 0.6308 -0.6227
vn -0.8707 0.1809 -0.4572
vn -0.9694 0.1838 -0.1626
vn -0.1512 0.0155 -0.9884
vn 0.1218 0.3711 -0.9206
vn 0.4796 0.5703 0.6669
vn 0.4518 -0.0089 0.8921
vn 0.8411 0.1165 0.5282
vn -0.2085 0.8517 0.4807
vn 0.9694 0.1830 0.1638
vn 0.7328 0.6515 -0.1964
vn 0.3118 0.8513 -0.4219
vn 0.6340 0.4987 -0.5910
vn 0.4025 0.5941 -0.6964
usemtl m2glass_mat.001
s off
f 155/1/1 154/2/1 153/3/1
f 155/1/1 156/4/1 154/2/1
f 157/5/1 156/4/1 155/1/1
f 155/1/1 159/6/1 158/7/1
f 155/1/1 160/8/1 159/6/1
f 153/3/1 160/8/1 155/1/1
f 155/1/1 162/9/1 161/10/1
f 155/1/1 163/11/1 162/9/1
f 158/7/1 163/11/1 155/1/1
f 167/12/1 166/13/1 161/10/1
f 167/12/1 168/14/1 166/13/1
f 169/15/1 166/13/1 168/14/1
f 169/15/1 170/16/1 166/13/1
f 166/13/1 172/17/1 171/18/1
f 166/13/1 170/16/1 172/17/1
f 157/5/1 155/1/1 175/19/1
s 1
f 3/20/2 2/21/3 1/22/4
f 3/20/2 4/23/5 2/21/3
f 5/24/6 4/23/5 3/20/2
f 5/24/6 6/25/7 4/23/5
f 7/26/8 6/25/7 5/24/6
f 7/26/8 8/27/9 6/25/7
f 9/28/10 8/27/9 7/26/8
f 9/28/10 10/29/11 8/27/9
f 11/30/12 10/29/11 9/28/10
f 11/30/12 12/31/13 10/29/11
f 13/32/14 12/31/13 11/30/12
f 13/32/14 14/33/15 12/31/13
f 15/34/16 14/33/15 13/32/14
f 15/34/16 16/35/17 14/33/15
f 17/36/18 16/35/17 15/34/16
f 17/36/18 18/37/19 16/35/17
f 19/38/20 18/37/19 17/36/18
f 19/38/20 20/39/21 18/37/19
f 21/40/22 20/39/21 19/38/20
f 21/40/22 22/41/23 20/39/21
f 23/42/24 22/41/23 21/40/22
f 23/42/24 24/43/25 22/41/23
f 25/44/26 24/43/25 23/42/24
f 25/44/26 26/45/27 24/43/25
f 27/46/28 26/45/27 25/44/26
f 27/46/28 28/47/29 26/45/27
f 29/48/30 28/47/29 27/46/28
f 29/48/30 30/49/31 28/47/29
f 31/50/32 30/49/31 29/48/30
f 31/50/32 32/51/33 30/49/31
f 33/52/34 32/51/33 31/50/32
f 33/52/34 34/53/35 32/51/33
f 4/23/5 35/54/36 2/21/3
f 4/23/5 36/55/37 35/54/36
f 6/25/7 36/55/37 4/23/5
f 6/25/7 37/56/38 36/55/37
f 8/27/9 37/56/38 6/25/7
f 8/27/9 38/57/39 37/56/38
f 10/29/11 38/57/39 8/27/9
f 10/29/11 39/58/40 38/57/39
f 12/31/13 39/58/40 10/29/11
f 12/31/13 40/59/41 39/58/40
f 14/33/15 181/60/42 192/61/42 40/59/41 12/31/13
f 193/62/43 41/63/44 40/59/41 192/61/42
f 191/64/45 41/63/44 193/62/43
f 196/65/46 42/66/47 41/63/44 191/64/45
f 187/67/48 42/66/47 196/65/46
f 188/68/49 43/69/50 42/66/47 187/67/48
f 189/70/51 43/69/50 188/68/49
f 190/71/52 44/72/53 43/69/50 189/70/51
f 194/73/54 44/72/53 190/71/52
f 195/74/55 45/75/56 44/72/53 194/73/54
f 197/76/57 45/75/56 195/74/55
f 24/43/25 46/77/58 45/75/56 197/76/57 186/78/57
f 26/45/27 46/77/58 24/43/25
f 26/45/27 47/79/59 46/77/58
f 28/47/29 47/79/59 26/45/27
f 28/47/29 48/80/60 47/79/59
f 30/49/31 48/80/60 28/47/29
f 30/49/31 49/81/61 48/80/60
f 32/51/33 49/81/61 30/49/31
f 32/51/33 50/82/62 49/81/61
f 34/53/35 50/82/62 32/51/33
f 34/53/35 51/83/63 50/82/62
f 36/55/37 52/84/64 35/54/36
f 36/55/37 53/85/65 52/84/64
f 37/56/38 53/85/65 36/55/37
f 37/56/38 54/86/66 53/85/65
f 38/57/39 54/86/66 37/56/38
f 38/57/39 55/87/67 54/86/66
f 39/58/40 55/87/67 38/57/39
f 39/58/40 56/88/68 55/87/67
f 40/59/41 56/88/68 39/58/40
f 40/59/41 57/89/69 56/88/68
f 41/63/44 57/89/69 40/59/41
f 41/63/44 58/90/70 57/89/69
f 42/66/47 58/90/70 41/63/44
f 42/66/47 59/91/71 58/90/70
f 43/69/50 59/91/71 42/66/47
f 43/69/50 60/92/72 59/91/71
f 44/72/53 60/92/72 43/69/50
f 44/72/53 61/93/73 60/92/72
f 45/75/56 61/93/73 44/72/53
f 45/75/56 62/94/74 61/93/73
f 46/77/58 62/94/74 45/75/56
f 46/77/58 63/95/75 62/94/74
f 47/79/59 63/95/75 46/77/58
f 47/79/59 64/96/76 63/95/75
f 48/80/60 64/96/76 47/79/59
f 48/80/60 65/97/77 64/96/76
f 49/81/61 65/97/77 48/80/60
f 49/81/61 66/98/78 65/97/77
f 50/82/62 66/98/78 49/81/61
f 50/82/62 67/99/79 66/98/78
f 51/83/63 67/99/79 50/82/62
f 51/83/63 68/100/80 67/99/79
f 53/85/65 69/101/81 52/84/64
f 53/85/65 70/102/82 69/101/81
f 54/86/66 70/102/82 53/85/65
f 54/86/66 71/103/83 70/102/82
f 55/87/67 71/103/83 54/86/66
f 55/87/67 72/104/84 71/103/83
f 56/88/68 72/104/84 55/87/67
f 56/88/68 73/105/85 72/104/84
f 57/89/69 73/105/85 56/88/68
f 57/89/69 74/106/86 73/105/85
f 58/90/70 74/106/86 57/89/69
f 58/90/70 75/107/87 74/106/86
f 59/91/71 75/107/87 58/90/70
f 59/91/71 76/108/88 75/107/87
f 60/92/72 76/108/88 59/91/71
f 60/92/72 77/109/89 76/108/88
f 61/93/73 77/109/89 60/92/72
f 61/93/73 78/110/90 77/109/89
f 62/94/74 78/110/90 61/93/73
f 62/94/74 79/111/91 78/110/90
f 63/95/75 79/111/91 62/94/74
f 63/95/75 80/112/92 79/111/91
f 64/96/76 80/112/92 63/95/75
f 64/96/76 81/113/93 80/112/92
f 65/97/77 81/113/93 64/96/76
f 65/97/77 82/114/94 81/113/93
f 66/98/78 82/114/94 65/97/77
f 66/98/78 83/115/95 82/114/94
f 67/99/79 83/115/95 66/98/78
f 67/99/79 84/116/96 83/115/95
f 68/100/80 84/116/96 67/99/79
f 68/100/80 85/117/97 84/116/96
f 70/102/82 86/118/98 69/101/81
f 70/102/82 87/119/99 86/118/98
f 71/103/83 87/119/99 70/102/82
f 71/103/83 88/120/100 87/119/99
f 72/104/84 88/120/100 71/103/83
f 72/104/84 89/121/101 88/120/100
f 73/105/85 89/121/101 72/104/84
f 73/105/85 90/122/102 89/121/101
f 74/106/86 90/122/102 73/105/85
f 74/106/86 91/123/103 90/122/102
f 75/107/87 91/123/103 74/106/86
f 75/107/87 92/124/104 91/123/103
f 76/108/88 92/124/104 75/107/87
f 76/108/88 93/125/105 92/124/104
f 77/109/89 93/125/105 76/108/88
f 77/109/89 94/126/106 93/125/105
f 78/110/90 94/126/106 77/109/89
f 78/110/90 95/127/107 94/126/106
f 79/111/91 95/127/107 78/110/90
f 79/111/91 96/128/108 95/127/107
f 80/112/92 96/128/108 79/111/91
f 80/112/92 97/129/109 96/128/108
f 81/113/93 97/129/109 80/112/92
f 81/113/93 98/130/110 97/129/109
f 82/114/94 98/130/110 81/113/93
f 82/114/94 99/131/111 98/130/110
f 83/115/95 99/131/111 82/114/94
f 83/115/95 100/132/112 99/131/111
f 84/116/96 100/132/112 83/115/95
f 84/116/96 101/133/113 100/132/112
f 85/117/97 101/133/113 84/116/96
f 85/117/97 102/134/114 101/133/113
f 105/135/115 104/136/116 103/137/117
f 105/135/115 106/138/118 104/136/116
f 107/139/119 106/138/118 105/135/115
f 107/139/119 108/140/120 106/138/118
f 109/141/121 108/140/120 107/139/119
f 109/141/121 110/142/122 108/140/120
f 111/143/123 110/142/122 109/141/121
f 111/143/123 112/144/124 110/142/122
f 101/133/113 112/144/124 111/143/123
f 101/133/113 102/134/114 112/144/124
f 115/145/125 114/146/126 113/147/127
f 115/145/125 116/148/128 114/146/126
f 117/149/129 116/148/128 115/145/125
f 117/149/129 118/150/130 116/148/128
f 119/151/131 118/150/130 117/149/129
f 119/151/131 120/152/132 118/150/130
f 121/153/133 120/152/132 119/151/131
f 121/153/133 89/121/101 120/152/132
f 88/120/100 89/121/101 121/153/133
f 122/154/134 117/149/129 115/145/125
f 122/154/134 119/151/131 117/149/129
f 123/155/135 119/151/131 122/154/134
f 123/155/135 121/153/133 119/151/131
f 124/156/136 121/153/133 123/155/135
f 124/156/136 87/119/99 121/153/133
f 86/118/98 87/119/99 124/156/136
f 116/148/128 125/157/137 114/146/126
f 116/148/128 126/158/138 125/157/137
f 118/150/130 126/158/138 116/148/128
f 118/150/130 127/159/139 126/158/138
f 120/152/132 127/159/139 118/150/130
f 120/152/132 91/123/103 127/159/139
f 90/122/102 91/123/103 120/152/132
f 111/143/123 100/132/112 101/133/113
f 111/143/123 99/131/111 100/132/112
f 128/160/140 99/131/111 111/143/123
f 128/160/140 98/130/110 99/131/111
f 97/129/109 98/130/110 128/160/140
f 129/161/141 106/138/118 108/140/120
f 129/161/141 130/162/142 106/138/118
f 131/163/143 130/162/142 129/161/141
f 131/163/143 132/164/144 130/162/142
f 133/165/145 132/164/144 131/163/143
f 126/158/138 134/166/146 125/157/137
f 126/158/138 135/167/147 134/166/146
f 127/159/139 135/167/147 126/158/138
f 127/159/139 93/125/105 135/167/147
f 113/147/127 137/168/148 136/169/149
f 113/147/127 138/170/150 137/168/148
f 114/146/126 138/170/150 113/147/127
f 114/146/126 139/171/151 138/170/150
f 141/172/152 140/173/153 128/160/140
f 141/172/152 134/166/146 140/173/153
f 105/135/115 134/166/146 141/172/152
f 105/135/115 125/157/137 134/166/146
f 143/174/154 142/175/155 132/164/144
f 143/174/154 144/176/156 142/175/155
f 115/145/125 144/176/156 143/174/154
f 115/145/125 145/177/157 144/176/156
f 146/178/158 115/145/125 143/174/154
f 146/178/158 122/154/134 115/145/125
f 147/179/159 122/154/134 146/178/158
f 147/179/159 123/155/135 122/154/134
f 150/180/160 149/181/161 148/182/162
f 150/180/160 137/168/148 149/181/161
f 151/183/163 137/168/148 150/180/160
f 151/183/163 136/169/149 137/168/148
f 109/141/121 128/160/140 111/143/123
f 109/141/121 141/172/152 128/160/140
f 107/139/119 141/172/152 109/141/121
f 107/139/119 105/135/115 141/172/152
f 106/138/118 149/181/161 104/136/116
f 106/138/118 148/182/162 149/181/161
f 152/184/164 148/182/162 106/138/118
f 152/184/164 150/180/160 148/182/162
f 140/173/153 97/129/109 128/160/140
f 140/173/153 96/128/108 97/129/109
f 95/127/107 96/128/108 140/173/153
f 135/167/147 140/173/153 134/166/146
f 135/167/147 95/127/107 140/173/153
f 94/126/106 95/127/107 135/167/147
f 132/164/144 164/185/165 130/162/142
f 132/164/144 165/186/166 164/185/165
f 142/175/155 165/186/166 132/164/144
f 92/124/104 127/159/139 91/123/103
f 92/124/104 93/125/105 127/159/139
f 173/187/167 108/140/120 110/142/122
f 173/187/167 129/161/141 108/140/120
f 174/188/168 110/142/122 112/144/124
f 174/188/168 173/187/167 110/142/122
f 120/152/132 89/121/101 90/122/102
f 121/153/133 87/119/99 88/120/100
f 142/175/155 144/176/156 145/177/157
f 133/165/145 131/163/143 129/161/141
f 135/167/147 93/125/105 94/126/106
f 137/168/148 138/170/150 139/171/151
f 24/43/25 186/78/57 184/189/55 22/41/23
f 22/41/23 184/189/55 183/190/54
f 22/41/23 183/190/54 179/191/52 20/39/21
f 20/39/21 179/191/52 178/192/51
f 20/39/21 178/192/51 177/193/49 18/37/19
f 18/37/19 177/193/49 176/194/48
f 18/37/19 176/194/48 185/195/46 16/35/17
f 16/35/17 185/195/46 180/196/45
f 16/35/17 180/196/45 182/197/43 14/33/15
f 14/33/15 182/197/43 181/60/42
f 186/198/57 197/199/57 195/200/55 184/201/55
f 184/201/55 195/200/55 194/202/54 183/203/54
f 183/203/54 194/202/54 190/204/52 179/205/52
f 179/205/52 190/204/52 189/206/51 178/207/51
f 178/207/51 189/206/51 188/208/49 177/209/49
f 177/209/49 188/208/49 187/210/48 176/211/48
f 176/211/48 187/210/48 196/212/46 185/213/46
f 185/213/46 196/212/46 191/214/45 180/215/45
f 180/215/45 191/214/45 193/216/43 182/217/43
f 182/197/43 193/62/43 192/61/42 181/60/42
