# Blender v3.0.0 OBJ File: ''
# www.blender.org
mtllib adhesive_inside.mtl
o mesh-1_meshId1_name.002
v -1.567380 -11.999997 -14.917003
v -1.567380 13.000003 -14.916999
v 1.567380 -11.999997 -14.917003
v 1.567380 13.000003 -14.916999
v 4.634770 -11.999998 -14.265601
v 4.634770 13.000002 -14.265597
v 7.500000 -11.999998 -12.990202
v 7.500000 13.000002 -12.990198
v 10.036099 -11.999998 -11.146502
v 10.036099 13.000002 -11.146498
v 12.134800 -11.999998 -8.816412
v 12.134800 13.000002 -8.816408
v 13.703099 -11.999999 -6.100592
v 13.703099 13.000001 -6.100588
v 14.671900 -11.999999 -3.118162
v 14.671900 13.000001 -3.118158
v 15.000000 -12.000000 -0.000002
v 15.000000 13.000000 0.000002
v 14.671900 -12.000001 3.118158
v 14.671900 12.999999 3.118162
v 13.703099 -12.000001 6.100588
v 13.703099 12.999999 6.100592
v 12.134800 -12.000002 8.816408
v 12.134800 12.999998 8.816412
v 10.036099 -12.000002 11.146498
v 10.036099 12.999998 11.146502
v 7.500000 -12.000002 12.990198
v 7.500000 12.999998 12.990202
v 4.634770 -12.000002 14.265597
v 4.634770 12.999998 14.265601
v 1.567380 -12.000003 14.916999
v 1.567380 12.999997 14.917003
v -1.567380 -12.000003 14.916999
v -1.567380 12.999997 14.917003
v -4.634770 -12.000002 14.265597
v -4.634770 12.999998 14.265601
v -7.500000 -12.000002 12.990198
v -7.500000 12.999998 12.990202
v -10.036099 -12.000002 11.146498
v -10.036099 12.999998 11.146502
v -12.134800 -12.000002 8.816408
v -12.134800 12.999998 8.816412
v -13.703099 -12.000001 6.100588
v -13.703099 12.999999 6.100592
v -14.671900 -12.000001 3.118158
v -14.671900 12.999999 3.118162
v -15.000000 -12.000000 -0.000002
v -15.000000 13.000000 0.000002
v -14.671900 -11.999999 -3.118162
v -14.671900 13.000001 -3.118158
v -13.703099 -11.999999 -6.100592
v -13.703099 13.000001 -6.100588
v -12.134800 -11.999998 -8.816412
v -12.134800 13.000002 -8.816408
v -10.036099 -11.999998 -11.146502
v -10.036099 13.000002 -11.146498
v -7.500000 -11.999998 -12.990202
v -7.500000 13.000002 -12.990198
v -4.634770 -11.999998 -14.265601
v -4.634770 13.000002 -14.265597
v -1.567380 -11.999997 -14.917003
v -1.567380 13.000003 -14.916999
vt -1.271360 -1.500000
vt -1.402710 2.500000
vt -1.402710 -1.500000
vt -1.271360 2.500000
vt -1.140140 -1.500000
vt -1.140140 2.500000
vt -1.008790 -1.500000
vt -1.008790 2.500000
vt -0.877441 -1.500000
vt -0.877441 2.500000
vt -0.746216 -1.500000
vt -0.746216 2.500000
vt -0.614868 -1.500000
vt -0.614868 2.500000
vt -0.483643 -1.500000
vt -0.483643 2.500000
vt -0.352295 -1.500000
vt -0.352295 2.500000
vt -0.220947 -1.500000
vt -0.220947 2.500000
vt -0.089722 -1.500000
vt -0.089722 2.500000
vt 0.041504 -1.500000
vt 0.041504 2.500000
vt 0.172729 -1.500000
vt 0.172729 2.500000
vt 0.304077 -1.500000
vt 0.304077 2.500000
vt 0.435425 -1.500000
vt 0.435425 2.500000
vt 0.566650 -1.500000
vt 0.566650 2.500000
vt 0.697998 -1.500000
vt 0.697998 2.500000
vt 0.829224 -1.500000
vt 0.829224 2.500000
vt 0.960571 -1.500000
vt 0.960571 2.500000
vt 1.091920 -1.500000
vt 1.091920 2.500000
vt 1.223140 -1.500000
vt 1.223140 2.500000
vt 1.354490 -1.500000
vt 1.354490 2.500000
vt 1.485720 -1.500000
vt 1.485720 2.500000
vt 1.617070 -1.500000
vt 1.617070 2.500000
vt 1.748290 -1.500000
vt 1.748290 2.500000
vt 1.879640 -1.500000
vt 1.879640 2.500000
vt 2.010990 -1.500000
vt 2.010990 2.500000
vt 2.142210 -1.500000
vt 2.142210 2.500000
vt 2.273560 -1.500000
vt 2.273560 2.500000
vt 2.404790 -1.500000
vt 2.404790 2.500000
vt 2.536130 -1.500000
vt 2.536130 2.500000
vn -0.1044 0.0000 0.9945
vn 0.0000 0.0000 1.0000
vn -0.3089 0.0000 0.9511
vn -0.5001 0.0000 0.8660
vn -0.6691 0.0000 0.7431
vn -0.8089 0.0000 0.5879
vn -0.9135 0.0000 0.4067
vn -0.9781 0.0000 0.2079
vn -1.0000 0.0000 0.0000
vn -0.9781 0.0000 -0.2079
vn -0.9135 0.0000 -0.4067
vn -0.8089 0.0000 -0.5879
vn -0.6691 0.0000 -0.7431
vn -0.5001 0.0000 -0.8660
vn -0.3089 0.0000 -0.9511
vn -0.1044 0.0000 -0.9945
vn 0.1044 0.0000 -0.9945
vn 0.3089 0.0000 -0.9511
vn 0.5001 0.0000 -0.8660
vn 0.6691 0.0000 -0.7431
vn 0.8089 0.0000 -0.5879
vn 0.9135 0.0000 -0.4067
vn 0.9781 0.0000 -0.2079
vn 1.0000 0.0000 0.0000
vn 0.9781 0.0000 0.2079
vn 0.9135 0.0000 0.4067
vn 0.8089 0.0000 0.5879
vn 0.6691 0.0000 0.7431
vn 0.5001 0.0000 0.8660
vn 0.3089 0.0000 0.9511
vn 0.2077 0.0000 0.9782
usemtl m0label_mat
s 1
f 3/1/1 2/2/2 1/3/2
f 3/1/1 4/4/1 2/2/2
f 5/5/3 4/4/1 3/1/1
f 5/5/3 6/6/3 4/4/1
f 7/7/4 6/6/3 5/5/3
f 7/7/4 8/8/4 6/6/3
f 9/9/5 8/8/4 7/7/4
f 9/9/5 10/10/5 8/8/4
f 11/11/6 10/10/5 9/9/5
f 11/11/6 12/12/6 10/10/5
f 13/13/7 12/12/6 11/11/6
f 13/13/7 14/14/7 12/12/6
f 15/15/8 14/14/7 13/13/7
f 15/15/8 16/16/8 14/14/7
f 17/17/9 16/16/8 15/15/8
f 17/17/9 18/18/9 16/16/8
f 19/19/10 18/18/9 17/17/9
f 19/19/10 20/20/10 18/18/9
f 21/21/11 20/20/10 19/19/10
f 21/21/11 22/22/11 20/20/10
f 23/23/12 22/22/11 21/21/11
f 23/23/12 24/24/12 22/22/11
f 25/25/13 24/24/12 23/23/12
f 25/25/13 26/26/13 24/24/12
f 27/27/14 26/26/13 25/25/13
f 27/27/14 28/28/14 26/26/13
f 29/29/15 28/28/14 27/27/14
f 29/29/15 30/30/15 28/28/14
f 31/31/16 30/30/15 29/29/15
f 31/31/16 32/32/16 30/30/15
f 33/33/17 32/32/16 31/31/16
f 33/33/17 34/34/17 32/32/16
f 35/35/18 34/34/17 33/33/17
f 35/35/18 36/36/18 34/34/17
f 37/37/19 36/36/18 35/35/18
f 37/37/19 38/38/19 36/36/18
f 39/39/20 38/38/19 37/37/19
f 39/39/20 40/40/20 38/38/19
f 41/41/21 40/40/20 39/39/20
f 41/41/21 42/42/21 40/40/20
f 43/43/22 42/42/21 41/41/21
f 43/43/22 44/44/22 42/42/21
f 45/45/23 44/44/22 43/43/22
f 45/45/23 46/46/23 44/44/22
f 47/47/24 46/46/23 45/45/23
f 47/47/24 48/48/24 46/46/23
f 49/49/25 48/48/24 47/47/24
f 49/49/25 50/50/25 48/48/24
f 51/51/26 50/50/25 49/49/25
f 51/51/26 52/52/26 50/50/25
f 53/53/27 52/52/26 51/51/26
f 53/53/27 54/54/27 52/52/26
f 55/55/28 54/54/27 53/53/27
f 55/55/28 56/56/28 54/54/27
f 57/57/29 56/56/28 55/55/28
f 57/57/29 58/58/29 56/56/28
f 59/59/30 58/58/29 57/57/29
f 59/59/30 60/60/30 58/58/29
f 61/61/31 60/60/30 59/59/30
f 61/61/31 62/62/31 60/60/30
