# Blender v3.0.0 OBJ File: ''
# www.blender.org
mtllib adhesive_outside.mtl
o mesh-2_meshId2_name.001
v -3.135740 -11.999995 -29.835003
v -3.168950 0.000005 -30.153299
v -9.270510 -11.999995 -28.531301
v -9.369140 0.000005 -28.835899
v -15.000000 -11.999996 -25.980501
v -15.031300 0.000004 -26.036098
v -20.073200 -11.999996 -22.293901
v -20.116199 0.000004 -22.341799
v -24.270500 -11.999997 -17.632801
v -24.529299 0.000003 -17.821299
v -27.406300 -11.999998 -12.201201
v -27.698200 0.000002 -12.332001
v -29.343800 -11.999999 -6.237302
v -29.657200 0.000001 -6.303710
v -30.000000 -12.000000 -0.000002
v -30.063499 0.000000 0.000000
v -29.343800 -12.000001 6.237298
v -29.406300 -0.000001 6.250000
v -27.406300 -12.000002 12.201198
v -27.464800 -0.000002 12.227500
v -24.270500 -12.000003 17.632797
v -24.322300 -0.000003 17.670900
v -20.073200 -12.000004 22.293898
v -20.288099 -0.000004 22.532200
v -15.000000 -12.000004 25.980497
v -15.159200 -0.000004 26.257799
v -9.270510 -12.000005 28.531298
v -9.369140 -0.000005 28.835899
v -3.135740 -12.000005 29.834999
v -3.168950 -0.000005 30.153299
v 3.135740 -12.000005 29.834999
v 3.168950 -0.000005 30.153299
v 9.270510 -12.000005 28.531298
v 9.369140 -0.000005 28.835899
v 15.000000 -12.000004 25.980497
v 15.031300 -0.000004 26.036098
v 20.073200 -12.000004 22.293898
v 20.116199 -0.000004 22.341799
v 24.270500 -12.000003 17.632797
v 24.322300 -0.000003 17.670900
v 27.406300 -12.000002 12.201198
v 27.464800 -0.000002 12.227500
v 29.343800 -12.000001 6.237298
v 29.657200 -0.000001 6.303710
v 30.000000 -12.000000 -0.000002
v 30.063499 0.000000 0.000000
v 29.343800 -11.999999 -6.237302
v 29.406300 0.000001 -6.250000
v 27.406300 -11.999998 -12.201201
v 27.464800 0.000002 -12.227500
v 24.270500 -11.999997 -17.632801
v 24.322300 0.000003 -17.670900
v 20.073200 -11.999996 -22.293901
v 20.116199 0.000004 -22.341799
v 15.000000 -11.999996 -25.980501
v 15.031300 0.000004 -26.036098
v 9.270510 -11.999995 -28.531301
v 9.290040 0.000005 -28.591799
v 3.135740 -11.999995 -29.835003
v 3.141600 0.000005 -29.899399
v -3.135740 -11.999995 -29.835003
v -3.168950 0.000005 -30.153299
v 20.281300 12.999996 24.937502
v 19.968800 9.349606 25.167004
v 14.752001 12.999995 26.765602
v 14.681600 6.499996 26.592802
v 9.270510 12.999995 28.531301
v 3.135740 12.999995 29.835003
v -3.135740 12.999995 29.835003
v -9.270510 12.999995 28.531301
v -15.000000 12.999996 25.980501
v -20.073200 12.999996 22.293901
v -24.270500 12.999997 17.632801
v -27.406300 12.999998 12.201201
v -29.343800 12.999999 6.237302
v -30.000000 13.000000 0.000002
v -29.343800 13.000001 -6.237298
v -27.406300 13.000002 -12.201198
v -24.270500 13.000003 -17.632797
v -20.073200 13.000004 -22.293898
v -15.000000 13.000004 -25.980497
v -9.270510 13.000005 -28.531298
v -3.135740 13.000005 -29.834999
v 15.000000 12.999996 25.980501
v 20.073200 12.999996 22.293901
v 24.270500 12.999997 17.632801
v 27.406300 12.999998 12.201201
v 29.343800 12.999999 6.237302
v 30.000000 13.000000 0.000002
v 29.343800 13.000001 -6.237298
v 27.406300 13.000002 -12.201198
v 24.270500 13.000003 -17.632797
v 20.073200 13.000004 -22.293898
v 15.000000 13.000004 -25.980497
v 9.270510 13.000005 -28.531298
v 3.135740 13.000005 -29.834999
v -3.135740 13.000005 -29.834999
v 20.281300 -12.000004 24.233397
v 14.752001 -12.000005 26.765598
v 20.175800 -5.699224 24.342800
v 14.681600 -6.000004 26.592798
v 20.123001 -2.849614 24.924799
v 14.611300 -0.000004 26.418900
v 19.644499 -0.000004 25.506800
v 20.358400 5.699215 25.750000
vt -0.399902 0.000000
vt -0.466553 0.500000
vt -0.466553 0.000000
vt -0.399902 0.500000
vt -0.333252 0.000000
vt -0.333252 0.500000
vt -0.266602 0.000000
vt -0.266602 0.500000
vt -0.199951 0.000000
vt -0.199951 0.500000
vt -0.133301 0.000000
vt -0.133301 0.500000
vt -0.066528 0.000000
vt -0.066528 0.500000
vt 0.000000 0.000000
vt 0.000000 0.500000
vt 0.066650 0.000000
vt 0.066650 0.500000
vt 0.133301 0.000000
vt 0.133301 0.500000
vt 0.199951 0.000000
vt 0.199951 0.500000
vt 0.266602 0.000000
vt 0.266602 0.500000
vt 0.333252 0.000000
vt 0.333252 0.500000
vt 0.400024 0.000000
vt 0.400024 0.500000
vt 0.466675 0.000000
vt 0.466675 0.500000
vt 0.533325 0.000000
vt 0.533325 0.500000
vt 0.599976 0.000000
vt 0.599976 0.500000
vt 0.666626 0.000000
vt 0.666626 0.500000
vt 0.733276 0.000000
vt 0.733276 0.500000
vt 0.799927 0.000000
vt 0.799927 0.500000
vt 0.866577 0.000000
vt 0.866577 0.500000
vt 0.933350 0.000000
vt 0.933350 0.500000
vt 1.000000 0.000000
vt 1.000000 0.500000
vt 1.066650 0.000000
vt 1.066650 0.500000
vt 1.133300 0.000000
vt 1.133300 0.500000
vt 1.199950 0.000000
vt 1.199950 0.500000
vt 1.266600 0.000000
vt 1.266600 0.500000
vt 1.333250 0.000000
vt 1.333250 0.500000
vt 1.400020 0.000000
vt 1.400020 0.500000
vt 1.466670 0.000000
vt 1.466670 0.500000
vt 1.533330 0.000000
vt 1.533330 0.500000
vt 0.666626 1.000000
vt 0.733276 0.875000
vt 0.733276 1.000000
vt 0.666626 0.750000
vt 0.599976 1.000000
vt 0.533325 1.000000
vt 0.466675 1.000000
vt 0.400024 1.000000
vt 0.333252 1.000000
vt 0.266602 1.000000
vt 0.199951 1.000000
vt 0.133301 1.000000
vt 0.066650 1.000000
vt 0.000000 1.000000
vt -0.066528 1.000000
vt -0.133301 1.000000
vt -0.199951 1.000000
vt -0.266602 1.000000
vt -0.333252 1.000000
vt -0.399902 1.000000
vt -0.466553 1.000000
vt 0.666626 1.000000
vt 0.733276 1.000000
vt 0.799927 1.000000
vt 0.866577 1.000000
vt 0.933350 1.000000
vt 1.000000 1.000000
vt 1.066650 1.000000
vt 1.133300 1.000000
vt 1.199950 1.000000
vt 1.266600 1.000000
vt 1.333250 1.000000
vt 1.400020 1.000000
vt 1.466670 1.000000
vt 1.533330 1.000000
vt 0.733276 0.250000
vt 0.666626 0.000000
vt 0.733276 0.000000
vt 0.666626 0.250000
vt 0.733276 0.375000
vt 0.666626 0.500000
vt 0.733276 0.500000
vt 0.733276 0.750000
vn -0.3088 -0.0266 -0.9507
vn -0.2078 -0.0010 -0.9781
vn -0.2078 -0.0265 -0.9778
vn -0.3251 0.0026 -0.9456
vn -0.5054 -0.0127 -0.8628
vn -0.5149 0.0033 -0.8572
vn -0.6691 -0.0053 -0.7431
vn -0.6563 -0.0039 -0.7544
vn -0.8052 -0.0193 -0.5927
vn -0.7987 -0.0045 -0.6016
vn -0.9132 -0.0266 -0.4065
vn -0.9135 -0.0010 -0.4067
vn -0.9778 -0.0266 -0.2079
vn -0.9815 0.0026 -0.1912
vn -0.9999 -0.0127 0.0062
vn -0.9998 0.0033 0.0173
vn -0.9781 -0.0053 0.2079
vn -0.9781 -0.0002 0.2079
vn -0.9135 -0.0053 0.4067
vn -0.9135 -0.0002 0.4067
vn -0.8090 -0.0053 0.5878
vn -0.8189 -0.0039 0.5738
vn -0.6736 -0.0193 0.7388
vn -0.6818 -0.0045 0.7315
vn -0.4998 -0.0266 0.8657
vn -0.5000 -0.0010 0.8660
vn -0.3089 -0.0266 0.9507
vn -0.3090 -0.0010 0.9510
vn -0.1045 -0.0266 0.9942
vn -0.1045 -0.0010 0.9945
vn 0.1045 -0.0266 0.9941
vn 0.1045 -0.0010 0.9945
vn 0.3174 -0.0168 0.9481
vn 0.3479 0.0016 0.9375
vn 0.5054 -0.0127 0.8628
vn 0.5149 0.0033 0.8572
vn 0.6691 -0.0053 0.7431
vn 0.6691 -0.0002 0.7432
vn 0.8090 -0.0053 0.5878
vn 0.8090 -0.0002 0.5878
vn 0.9135 -0.0053 0.4067
vn 0.9065 -0.0038 0.4222
vn 0.9766 -0.0193 0.2140
vn 0.9781 -0.0008 0.2081
vn 0.9999 -0.0127 -0.0062
vn 0.9998 0.0033 -0.0173
vn 0.9781 -0.0053 -0.2079
vn 0.9781 -0.0002 -0.2079
vn 0.9135 -0.0053 -0.4067
vn 0.9135 -0.0002 -0.4067
vn 0.8090 -0.0053 -0.5878
vn 0.8090 -0.0002 -0.5878
vn 0.6691 -0.0053 -0.7431
vn 0.6691 -0.0002 -0.7432
vn 0.5000 -0.0053 -0.8660
vn 0.5000 -0.0002 -0.8660
vn 0.3090 -0.0053 -0.9510
vn 0.3090 -0.0002 -0.9510
vn 0.1045 -0.0053 -0.9945
vn 0.1215 -0.0039 -0.9926
vn 0.0124 -0.0118 -0.9998
vn 0.0344 -0.0079 -0.9994
vn 0.2980 -0.0171 0.9544
vn 0.2516 0.0624 0.9658
vn 0.3137 0.0328 0.9489
vn 0.2799 0.0060 0.9600
vn 0.3207 0.0103 0.9471
vn 0.1045 0.0246 0.9942
vn -0.1045 0.0246 0.9942
vn -0.3089 0.0246 0.9508
vn -0.4999 0.0246 0.8657
vn -0.6689 0.0246 0.7429
vn -0.8123 0.0120 0.5830
vn -0.9135 0.0049 0.4067
vn -0.9781 0.0049 0.2079
vn -1.0000 0.0049 0.0000
vn -0.9792 0.0176 -0.2022
vn -0.9133 0.0246 -0.4066
vn -0.8087 0.0246 -0.5876
vn -0.6648 0.0119 -0.7469
vn -0.5000 0.0049 -0.8660
vn -0.3145 0.0176 -0.9491
vn -0.2078 0.0245 -0.9778
vn 0.5000 0.0049 0.8660
vn 0.6691 0.0049 0.7431
vn 0.8090 0.0049 0.5878
vn 0.9111 0.0119 0.4120
vn 0.9792 0.0176 0.2022
vn 1.0000 0.0049 0.0000
vn 0.9781 0.0049 -0.2079
vn 0.9135 0.0049 -0.4067
vn 0.8090 0.0049 -0.5878
vn 0.6691 0.0049 -0.7431
vn 0.5000 0.0049 -0.8660
vn 0.3090 0.0049 -0.9510
vn 0.1102 0.0119 -0.9938
vn 0.0000 0.0245 -0.9997
vn 0.3910 -0.0835 0.9166
vn 0.3525 0.0207 0.9355
vn 0.4163 -0.0088 0.9091
vn 0.3542 0.0009 0.9351
vn 0.2887 -0.1092 0.9512
vn 0.3137 -0.0182 0.9493
vn 0.1771 -0.1178 0.9771
vn 0.1637 0.0563 0.9849
usemtl m2tape_mat
s 1
f 3/1/1 2/2/2 1/3/3
f 3/1/1 4/4/4 2/2/2
f 5/5/5 4/4/4 3/1/1
f 5/5/5 6/6/6 4/4/4
f 7/7/7 6/6/6 5/5/5
f 7/7/7 8/8/8 6/6/6
f 9/9/9 8/8/8 7/7/7
f 9/9/9 10/10/10 8/8/8
f 11/11/11 10/10/10 9/9/9
f 11/11/11 12/12/12 10/10/10
f 13/13/13 12/12/12 11/11/11
f 13/13/13 14/14/14 12/12/12
f 15/15/15 14/14/14 13/13/13
f 15/15/15 16/16/16 14/14/14
f 17/17/17 16/16/16 15/15/15
f 17/17/17 18/18/18 16/16/16
f 19/19/19 18/18/18 17/17/17
f 19/19/19 20/20/20 18/18/18
f 21/21/21 20/20/20 19/19/19
f 21/21/21 22/22/22 20/20/20
f 23/23/23 22/22/22 21/21/21
f 23/23/23 24/24/24 22/22/22
f 25/25/25 24/24/24 23/23/23
f 25/25/25 26/26/26 24/24/24
f 27/27/27 26/26/26 25/25/25
f 27/27/27 28/28/28 26/26/26
f 29/29/29 28/28/28 27/27/27
f 29/29/29 30/30/30 28/28/28
f 31/31/31 30/30/30 29/29/29
f 31/31/31 32/32/32 30/30/30
f 33/33/33 32/32/32 31/31/31
f 33/33/33 34/34/34 32/32/32
f 35/35/35 34/34/34 33/33/33
f 35/35/35 36/36/36 34/34/34
f 37/37/37 36/36/36 35/35/35
f 37/37/37 38/38/38 36/36/36
f 39/39/39 38/38/38 37/37/37
f 39/39/39 40/40/40 38/38/38
f 41/41/41 40/40/40 39/39/39
f 41/41/41 42/42/42 40/40/40
f 43/43/43 42/42/42 41/41/41
f 43/43/43 44/44/44 42/42/42
f 45/45/45 44/44/44 43/43/43
f 45/45/45 46/46/46 44/44/44
f 47/47/47 46/46/46 45/45/45
f 47/47/47 48/48/48 46/46/46
f 49/49/49 48/48/48 47/47/47
f 49/49/49 50/50/50 48/48/48
f 51/51/51 50/50/50 49/49/49
f 51/51/51 52/52/52 50/50/50
f 53/53/53 52/52/52 51/51/51
f 53/53/53 54/54/54 52/52/52
f 55/55/55 54/54/54 53/53/53
f 55/55/55 56/56/56 54/54/54
f 57/57/57 56/56/56 55/55/55
f 57/57/57 58/58/58 56/56/56
f 59/59/59 58/58/58 57/57/57
f 59/59/59 60/60/60 58/58/58
f 61/61/61 60/60/60 59/59/59
f 61/61/61 62/62/62 60/60/60
f 65/63/63 64/64/64 63/65/65
f 65/63/63 66/66/66 64/64/64
f 67/67/67 66/66/66 65/63/63
f 67/67/67 34/34/34 66/66/66
f 68/68/68 34/34/34 67/67/67
f 68/68/68 32/32/32 34/34/34
f 69/69/69 32/32/32 68/68/68
f 69/69/69 30/30/30 32/32/32
f 70/70/70 30/30/30 69/69/69
f 70/70/70 28/28/28 30/30/30
f 71/71/71 28/28/28 70/70/70
f 71/71/71 26/26/26 28/28/28
f 72/72/72 26/26/26 71/71/71
f 72/72/72 24/24/24 26/26/26
f 73/73/73 24/24/24 72/72/72
f 73/73/73 22/22/22 24/24/24
f 74/74/74 22/22/22 73/73/73
f 74/74/74 20/20/20 22/22/22
f 75/75/75 20/20/20 74/74/74
f 75/75/75 18/18/18 20/20/20
f 76/76/76 18/18/18 75/75/75
f 76/76/76 16/16/16 18/18/18
f 77/77/77 16/16/16 76/76/76
f 77/77/77 14/14/14 16/16/16
f 78/78/78 14/14/14 77/77/77
f 78/78/78 12/12/12 14/14/14
f 79/79/79 12/12/12 78/78/78
f 79/79/79 10/10/10 12/12/12
f 80/80/80 10/10/10 79/79/79
f 80/80/80 8/8/8 10/10/10
f 81/81/81 8/8/8 80/80/80
f 81/81/81 6/6/6 8/8/8
f 82/82/82 6/6/6 81/81/81
f 82/82/82 4/4/4 6/6/6
f 83/83/83 4/4/4 82/82/82
f 83/83/83 2/2/2 4/4/4
f 36/36/36 67/67/67 34/34/34
f 36/36/36 84/84/84 67/67/67
f 38/38/38 84/84/84 36/36/36
f 38/38/38 85/85/85 84/84/84
f 40/40/40 85/85/85 38/38/38
f 40/40/40 86/86/86 85/85/85
f 42/42/42 86/86/86 40/40/40
f 42/42/42 87/87/87 86/86/86
f 44/44/44 87/87/87 42/42/42
f 44/44/44 88/88/88 87/87/87
f 46/46/46 88/88/88 44/44/44
f 46/46/46 89/89/89 88/88/88
f 48/48/48 89/89/89 46/46/46
f 48/48/48 90/90/90 89/89/89
f 50/50/50 90/90/90 48/48/48
f 50/50/50 91/91/91 90/90/90
f 52/52/52 91/91/91 50/50/50
f 52/52/52 92/92/92 91/91/91
f 54/54/54 92/92/92 52/52/52
f 54/54/54 93/93/93 92/92/92
f 56/56/56 93/93/93 54/54/54
f 56/56/56 94/94/94 93/93/93
f 58/58/58 94/94/94 56/56/56
f 58/58/58 95/95/95 94/94/94
f 60/60/60 95/95/95 58/58/58
f 60/60/60 96/96/96 95/95/95
f 62/62/62 96/96/96 60/60/60
f 62/62/62 97/97/97 96/96/96
f 100/98/98 99/99/99 98/100/100
f 100/98/98 101/101/101 99/99/99
f 102/102/102 101/101/101 100/98/98
f 102/102/102 103/103/103 101/101/101
f 104/104/104 103/103/103 102/102/102
f 104/104/104 105/105/105 103/103/103
f 101/101/101 33/33/33 99/99/99
f 101/101/101 34/34/34 33/33/33
f 103/103/103 34/34/34 101/101/101
f 103/103/103 66/66/66 34/34/34
f 105/105/105 66/66/66 103/103/103
f 105/105/105 64/64/64 66/66/66
