# Blender v3.0.0 OBJ File: ''
# www.blender.org
mtllib compass_bottom.mtl
o meshes_0-1_Mesh.001
v -83.012871 -11.055686 -0.006866
v -80.184319 -10.978830 21.483269
v -80.179306 -11.078324 -21.491489
v -71.895256 -10.851574 41.506447
v -71.888947 -11.038981 -41.513184
v -58.700806 -10.677711 58.701035
v -58.693363 -10.949399 -58.702797
v -41.512585 -10.476641 71.891281
v -41.500748 -10.805651 -71.893845
v -21.492836 -10.259945 80.185020
v -21.478975 -10.627220 -80.188225
v -0.006229 -10.039199 83.015213
v 83.012474 -9.405338 0.006737
v 80.187302 -9.482196 -21.481436
v 80.182289 -9.382702 21.493319
v 71.894867 -9.609452 -41.506584
v 71.888557 -9.422045 41.513054
v 58.703789 -9.779409 -58.699203
v 58.696358 -9.511627 58.704628
v 41.512199 -9.984385 -71.891411
v 41.503727 -9.651467 71.895676
v 21.492443 -10.201080 -80.185150
v 21.478580 -9.833806 80.188095
v 0.005840 -10.421826 -83.015343
vt -0.007080 0.496277
vt 0.028870 0.367004
vt 0.024963 0.625793
vt 0.130554 0.246765
vt 0.123047 0.746765
vt 0.291077 0.143799
vt 0.280396 0.850891
vt 0.499390 0.065125
vt 0.486328 0.931152
vt 0.741272 0.016113
vt 0.726746 0.981995
vt 0.977783 0.000000
vt -0.014709 0.503784
vt 0.021362 0.633057
vt 0.017456 0.374268
vt 0.123047 0.753296
vt 0.115540 0.253296
vt 0.283569 0.856262
vt 0.272888 0.149170
vt 0.491821 0.934937
vt 0.478760 0.068909
vt 0.733765 0.983948
vt 0.719238 0.018066
vt 0.992859 1.000000
vn -0.0096 1.0000 -0.0023
vn -0.0097 0.9999 -0.0023
vn -0.0098 0.9999 -0.0023
vn -0.0099 0.9999 -0.0023
vn -0.0100 0.9999 -0.0023
vn -0.0101 0.9999 -0.0023
vn -0.0097 1.0000 -0.0023
usemtl houi_mat
s 1
f 1/1/1 2/2/2 3/3/3
f 2/2/2 4/4/4 3/3/3
f 3/3/3 4/4/4 5/5/4
f 4/4/4 6/6/5 5/5/4
f 5/5/4 6/6/5 7/7/5
f 6/6/5 8/8/4 7/7/5
f 7/7/5 8/8/4 9/9/4
f 8/8/4 10/10/4 9/9/4
f 9/9/4 10/10/4 11/11/4
f 10/10/4 12/12/4 11/11/4
f 13/13/6 14/14/2 15/15/7
f 14/14/2 16/16/4 15/15/7
f 15/15/7 16/16/4 17/17/3
f 16/16/4 18/18/6 17/17/3
f 17/17/3 18/18/6 19/19/4
f 18/18/6 20/20/5 19/19/4
f 19/19/4 20/20/5 21/21/5
f 20/20/5 22/22/4 21/21/5
f 21/21/5 22/22/4 23/23/4
f 22/22/4 24/24/4 23/23/4
f 23/23/4 24/24/4 12/12/4
f 24/24/4 11/11/4 12/12/4
