# Blender v3.0.0 OBJ File: ''
# www.blender.org
mtllib flame_inner.mtl
o meshes_0-1_Mesh.010
v -32.396278 -7.993872 42.765610
v -28.396278 -7.994639 42.765610
v -30.396236 -7.781680 52.000229
v -27.458740 -7.782243 52.000092
v -26.048244 -5.995091 51.999985
v -28.396280 -7.994640 55.999985
v -28.395514 -3.994642 55.999989
v -30.395895 -5.994257 57.246078
v -32.395512 -3.993874 55.999989
v -32.396278 -7.993874 55.999985
v -34.743549 -5.993423 51.999985
v -33.333736 -7.781116 52.000092
v -37.998215 -9.992804 58.000000
v -34.728683 -9.993429 58.484375
v -37.480579 0.507096 58.433594
v -34.254017 0.506477 58.921875
v -0.000115 0.499913 60.089844
v 0.001897 10.999911 59.828125
v 34.261593 0.493347 58.921875
v 33.818298 10.993429 58.660156
v 37.001892 10.992820 58.171875
v 33.818176 10.380148 57.222656
v 37.001770 10.379539 56.738281
v 35.998402 -7.198390 56.000000
v -32.395512 -3.993873 42.765610
v -33.332832 -3.056195 51.999989
v -30.395061 -1.646602 51.999985
v -27.457834 -3.057321 51.999989
v -28.395512 -3.994641 42.765614
v -36.994186 11.007001 58.171875
v -33.810593 11.006391 58.660156
v 0.001779 10.386630 58.394531
v 32.904652 -7.197797 56.320312
v -0.001589 -7.191491 56.640625
v -32.900021 -7.185186 56.320312
v 37.001694 9.992820 57.863281
v 38.001694 9.992628 58.000000
v 37.001694 9.992836 -41.000000
v 38.001694 9.992644 -42.000000
v 37.997864 -10.007351 -42.000000
v -38.994186 11.007404 -62.000000
v 0.002106 12.089775 -61.999996
v -38.994186 11.007388 38.000000
v 0.002106 12.089759 38.000004
v 39.001888 10.992439 38.000000
v 34.728333 -10.006740 58.484375
v 37.484249 0.492730 58.433594
v 37.997864 -10.007367 58.000000
v -33.810715 10.393109 57.222656
v -36.994308 10.393720 56.738281
v -35.997677 -7.184593 56.000000
v -38.998409 -10.992607 38.000000
v 38.997669 -11.007554 38.000000
v -38.998409 -10.992591 -62.000000
v 38.997669 -11.007538 -62.000000
v 38.997669 -11.007554 38.000000
v 39.001888 10.992439 38.000000
v 38.997669 -11.007538 -62.000000
v 39.001888 10.992455 -62.000000
v -38.994186 11.007388 38.000000
v -38.998409 -10.992607 38.000000
v -38.994186 11.007404 -62.000000
v -38.998409 -10.992591 -62.000000
v 37.997864 -10.007351 -42.000000
v -37.998215 -9.992787 -42.000000
v 38.001694 9.992644 -42.000000
v -37.994381 10.007208 -42.000000
v -37.994381 10.007192 58.000000
v -37.994381 10.007208 -42.000000
v -37.998215 -9.992804 58.000000
v -37.998215 -9.992787 -42.000000
v -36.997829 -7.992978 -41.000000
v 36.998249 -8.007160 -41.000000
v -36.994385 10.007016 -41.000000
v 37.001694 9.992836 -41.000000
v 36.998249 -8.007176 57.000000
v 36.998249 -8.007160 -41.000000
v -0.001744 -8.000084 58.136719
v -36.997829 -7.992978 -41.000000
v -36.997829 -7.992994 57.000000
v -36.997829 -7.992978 -41.000000
v -36.994385 10.007000 57.863281
v -36.994385 10.007016 -41.000000
v -32.396278 -7.993872 42.765610
v -32.395512 -3.993873 42.765610
v -32.396271 -7.993866 -14.000008
v -32.395504 -3.993868 -14.000007
v -28.395512 -3.994641 42.765614
v -28.396278 -7.994639 42.765610
v -28.395508 -3.994636 -14.000007
v -28.396273 -7.994634 -14.000007
v -28.396278 -7.994639 42.765610
v -32.396278 -7.993872 42.765610
v -28.396273 -7.994634 -14.000007
v -32.396271 -7.993866 -14.000008
v -32.395512 -3.993873 42.765610
v -28.395512 -3.994641 42.765614
v -32.395504 -3.993868 -14.000007
v -28.395508 -3.994636 -14.000007
v -0.002128 -10.000084 59.656250
v -37.994381 10.007192 58.000000
v -37.998215 -9.992804 58.000000
v 38.001694 9.992628 58.000000
v 37.997864 -10.007367 58.000000
v 36.998249 -8.007160 -41.000000
v 36.998249 -8.007176 57.000000
v 39.001888 10.992455 -62.000000
v -36.997829 -7.992994 57.000000
v 37.997864 -10.007367 58.000000
vt 0.205261 -0.003235
vt 0.201538 0.001038
vt 0.073792 0.000183
vt 0.071045 0.173599
vt 0.069702 0.013794
vt 0.015747 0.178726
vt 0.015747 0.178726
vt 0.000122 -0.000305
vt 0.019470 0.168213
vt 0.019470 0.168213
vt 0.077881 0.002075
vt 0.076538 0.174011
vt 0.001831 1.800171
vt 0.001831 1.731445
vt 0.089417 1.789673
vt 0.089478 1.721863
vt 0.001831 0.264960
vt 0.089905 0.952741
vt 0.089478 0.255377
vt 0.177490 0.953047
vt 0.090332 0.280762
vt 0.177917 0.290405
vt 0.177490 1.001587
vt 0.177917 0.223450
vt 0.172791 0.290344
vt 0.172852 0.223450
vt 0.026184 0.243896
vt 0.205261 0.177002
vt 0.076538 0.174011
vt 0.073792 0.000183
vt 0.071045 0.173599
vt 0.201538 0.170913
vt 0.177002 1.779785
vt 0.177063 1.712891
vt 0.177063 0.246405
vt 0.177490 0.967483
vt 0.172363 0.967483
vt 0.177063 0.488236
vt 0.026184 0.309021
vt 0.172363 0.953047
vt 0.025757 0.952497
vt 0.025330 0.226569
vt 0.177307 1.791382
vt 0.177307 1.793518
vt 0.177734 0.225464
vt 0.177734 0.209656
vt 0.005981 0.209473
vt 0.303424 0.288852
vt 0.302082 0.585696
vt 1.002216 0.292575
vt 1.000873 0.589389
vt 0.999561 0.886172
vt 0.002747 0.270508
vt 0.090332 0.212952
vt 0.002747 0.201721
vt 0.171936 0.246405
vt 0.171936 0.488236
vt 0.171936 1.712891
vt 0.171936 1.779785
vt 0.025269 1.758179
vt 0.025330 1.693054
vt 1.002216 0.292575
vt 0.999561 0.886172
vt 0.303424 0.288852
vt 0.300769 0.882480
vt 0.404468 0.533481
vt 0.404468 0.643466
vt 0.904468 0.533481
vt 0.904468 0.643466
vt 0.404468 0.643466
vt 0.404468 0.533481
vt 0.904468 0.643466
vt 0.904468 0.533481
vt 0.002747 0.201721
vt 0.001831 0.978269
vt 0.169617 0.202393
vt 0.168640 0.978941
vt 0.177307 1.793518
vt 0.177734 0.209656
vt 0.005554 1.793335
vt 0.005981 0.209473
vt 0.018494 0.976234
vt 0.019470 0.222839
vt 0.168640 0.976784
vt 0.169617 0.223389
vt 0.199951 0.210510
vt 1.799988 0.211060
vt 0.199951 0.998840
vt 1.799988 0.944356
vt 0.022705 0.974525
vt 0.023132 0.225342
vt 0.177307 0.988380
vt 0.177734 0.225464
vt 0.205261 -0.003235
vt 0.205261 0.177002
vt 0.985229 0.003723
vt 0.985229 0.183960
vt 0.201538 0.170913
vt 0.201538 0.001038
vt 0.981445 0.177871
vt 0.981445 0.007996
vt 0.201538 0.001038
vt 0.205261 -0.003235
vt 0.981445 0.007996
vt 0.985229 0.003723
vt 0.205261 0.177002
vt 0.201538 0.170913
vt 0.985229 0.183960
vt 0.981445 0.177871
vt 0.002319 0.952375
vt 0.168640 0.334357
vt 0.001831 0.333685
vt 0.169617 0.202393
vt 0.001831 1.800171
vt 0.002747 0.201721
vt 0.023132 0.225342
vt 0.022705 0.974525
vt 0.177307 0.988380
vt 0.177307 1.791382
vt 0.300769 0.882480
vt 0.199951 0.943867
vt 0.005554 1.793335
vn -0.6381 -0.7670 -0.0677
vn 0.6378 -0.7672 -0.0677
vn -0.0002 -0.9999 -0.0140
vn 0.4758 -0.8792 0.0254
vn 0.9914 -0.0814 0.1022
vn 0.5009 -0.6885 0.5244
vn 0.5315 0.5313 0.6597
vn 0.0000 -0.0000 1.0000
vn -0.5313 0.5315 0.6597
vn -0.4999 -0.6895 0.5241
vn -0.9914 -0.0811 0.1023
vn -0.4753 -0.8795 0.0253
vn -0.1470 -0.0337 0.9886
vn -0.0912 -0.0374 0.9951
vn -0.1485 -0.0122 0.9888
vn -0.0922 0.0065 0.9957
vn -0.0000 -0.0188 0.9998
vn 0.0001 0.5173 0.8558
vn 0.0922 0.0065 0.9957
vn 0.0339 0.9601 0.2777
vn 0.0804 0.8437 0.5308
vn -0.0828 0.5731 -0.8153
vn -0.1240 0.5708 -0.8117
vn -0.1274 0.0532 -0.9904
vn -0.6882 0.6885 -0.2289
vn -0.7042 0.7044 0.0892
vn 0.0002 0.9940 0.1095
vn 0.7044 0.7042 0.0892
vn 0.6885 0.6882 -0.2289
vn -0.0801 0.8437 0.5308
vn -0.0335 0.9601 0.2777
vn 0.0001 0.5832 -0.8123
vn -0.0494 0.0695 -0.9964
vn 0.0000 0.0993 -0.9951
vn 0.0494 0.0695 -0.9964
vn -0.7070 0.7072 -0.0000
vn 0.7072 0.7070 -0.0000
vn 0.4083 0.4082 -0.8165
vn 0.8944 -0.0001 -0.4472
vn 0.0277 -0.9996 -0.0000
vn -0.0002 -1.0000 -0.0000
vn -0.0281 -0.9996 -0.0000
vn 0.0911 -0.0374 0.9951
vn 0.1485 -0.0123 0.9888
vn 0.1469 -0.0338 0.9886
vn 0.0830 0.5730 -0.8153
vn 0.1242 0.5707 -0.8117
vn 0.1274 0.0531 -0.9904
vn 0.0002 1.0000 0.0000
vn -1.0000 0.0002 0.0000
vn 1.0000 -0.0002 -0.0000
vn -0.4472 0.0001 -0.8944
vn 0.4083 0.4081 -0.8165
vn -0.8164 0.4084 -0.4082
vn -0.4471 0.8945 -0.0000
vn 0.8945 0.4471 -0.0000
vn 0.4474 0.8943 0.0000
vn -0.0000 -0.0413 0.9991
usemtl Material.014
s 1
f 1/1/1 2/2/2 3/3/3
f 2/2/2 4/4/4 3/3/3
f 2/2/2 5/5/5 4/4/4
f 5/5/5 6/6/6 4/4/4
f 5/5/5 7/7/7 6/6/6
f 7/7/7 8/8/8 6/6/6
f 7/7/7 9/9/9 8/8/8
f 9/9/9 10/10/10 8/8/8
f 9/9/9 11/11/11 10/10/10
f 11/11/11 12/12/12 10/10/10
f 11/11/11 1/1/1 12/12/12
f 1/1/1 3/3/3 12/12/12
f 13/13/13 14/14/14 15/15/15
f 14/14/14 16/16/16 15/15/15
f 14/17/14 17/18/17 16/19/16
f 17/18/17 18/20/18 16/19/16
f 17/18/17 19/21/19 18/20/18
f 19/21/19 20/22/20 18/23/18
f 19/21/19 21/24/21 20/22/20
f 21/24/21 22/25/22 20/22/20
f 21/24/21 23/26/23 22/25/22
f 23/26/23 24/27/24 22/25/22
f 1/1/1 11/11/11 25/28/25
f 11/11/11 26/29/26 25/28/25
f 11/11/11 9/9/9 26/29/26
f 9/9/9 27/30/27 26/29/26
f 9/9/9 7/7/7 27/30/27
f 7/7/7 28/31/28 27/30/27
f 7/7/7 5/5/5 28/31/28
f 5/5/5 29/32/29 28/31/28
f 5/5/5 2/2/2 29/32/29
f 15/15/15 16/16/16 30/33/30
f 16/16/16 31/34/31 30/33/30
f 16/19/16 18/20/18 31/35/31
f 18/36/18 32/37/32 31/38/31
f 18/36/18 20/22/20 32/37/32
f 20/22/20 22/25/22 32/37/32
f 24/27/24 33/39/33 22/25/22
f 33/39/33 32/40/32 22/25/22
f 33/39/33 34/41/34 32/40/32
f 34/41/34 35/42/35 32/40/32
f 36/43/36 37/44/37 38/45/36
f 37/44/37 39/46/38 38/45/36
f 37/44/37 40/47/39 39/46/38
f 41/48/40 42/49/41 43/50/40
f 42/49/41 44/51/41 43/50/40
f 42/49/41 45/52/42 44/51/41
f 17/18/17 46/53/43 19/21/19
f 46/53/43 47/54/44 19/21/19
f 46/53/43 48/55/45 47/54/44
f 12/12/12 3/3/3 10/10/10
f 3/3/3 6/6/6 10/10/10
f 3/3/3 4/4/4 6/6/6
f 35/42/35 49/56/46 32/40/32
f 49/57/46 31/38/31 32/37/32
f 49/58/46 30/33/30 31/34/31
f 30/33/30 49/58/46 50/59/47
f 49/58/46 51/60/48 50/59/47
f 49/58/46 35/61/35 51/60/48
f 52/62/49 53/63/49 54/64/49
f 53/63/49 55/65/49 54/64/49
f 56/66/50 57/67/50 58/68/50
f 57/67/50 59/69/50 58/68/50
f 60/70/51 61/71/51 62/72/51
f 61/71/51 63/73/51 62/72/51
f 28/31/28 29/32/29 27/30/27
f 29/32/29 25/28/25 27/30/27
f 64/74/39 65/75/52 66/76/53
f 65/75/52 67/77/54 66/76/53
f 68/78/55 69/79/54 70/80/50
f 69/79/54 71/81/52 70/80/50
f 72/82/8 73/83/8 74/84/8
f 73/83/8 75/85/8 74/84/8
f 76/86/49 77/87/49 78/88/49
f 77/87/49 79/89/49 78/88/49
f 80/90/51 81/91/51 82/92/56
f 81/91/51 83/93/57 82/92/56
f 84/94/50 85/95/50 86/96/50
f 85/95/50 87/97/50 86/96/50
f 88/98/51 89/99/51 90/100/51
f 89/99/51 91/101/51 90/100/51
f 92/102/41 93/103/41 94/104/41
f 93/103/41 95/105/41 94/104/41
f 96/106/49 97/107/49 98/108/49
f 97/107/49 99/109/49 98/108/49
f 14/17/14 100/110/58 17/18/17
f 100/110/58 46/53/43 17/18/17
f 101/111/8 102/112/8 103/113/8
f 102/114/8 104/115/8 103/113/8
f 105/116/50 106/117/50 38/45/36
f 106/117/50 36/118/36 38/45/36
f 82/119/56 83/93/57 68/78/55
f 83/93/57 69/79/54 68/78/55
f 45/52/42 42/49/41 107/120/42
f 19/21/19 47/54/44 21/24/21
f 78/88/49 79/89/49 108/121/49
f 8/8/8 10/10/10 6/6/6
f 26/29/26 27/30/27 25/28/25
f 37/44/37 109/122/51 40/47/39
