# Blender 4.0.2
# www.blender.org
mtllib ornglef.mtl
o mesh-1
v -5.076170 43.922905 -0.349611
v -3.388670 44.487305 -6.220701
v -1.808590 43.448303 -0.687502
v -0.345703 43.682606 -1.304692
v -0.966797 44.868202 -0.611330
v 0.191406 45.040005 -0.636721
v -1.757810 45.040005 0.234373
v -1.734380 44.868202 1.394528
v -2.425780 43.682606 0.773436
v -1.808590 43.448303 2.236328
v -5.076170 44.085007 5.412108
v -0.345703 43.682606 2.853518
v 6.447270 45.413105 5.412108
v 1.115230 43.723602 2.236328
v 1.732420 43.682606 0.773436
v 1.064450 45.040005 1.312498
v 1.041020 44.868202 0.152342
v -0.884766 45.040005 2.185548
v 1.115230 43.708008 -0.687502
v 3.566410 44.460007 -6.111331
v 0.273438 44.868202 2.162108
v 0.683594 44.483406 -6.111331
vn -0.3693 0.8519 -0.3713
vn 0.0277 0.9851 0.1696
vn 0.1311 0.9914 0.0031
vn -0.0483 0.9280 -0.3695
vn -0.3460 0.5712 -0.7443
vn 0.1880 0.8503 -0.4916
vn -0.6000 0.7474 -0.2852
vn -0.4774 0.8398 0.2585
vn -0.4743 0.8803 0.0026
vn -0.4613 0.7633 0.4523
vn 0.0472 0.9883 -0.1448
vn -0.0610 0.9097 0.4109
vn -0.2115 0.9597 -0.1848
vn 0.4000 0.8208 0.4079
vn 0.4348 0.9001 -0.0284
vn 0.5887 0.7629 0.2671
vn 0.4705 0.8493 -0.2396
vn -0.2023 0.8413 0.5013
vn 0.4372 0.7907 -0.4285
vn -0.1383 0.9862 0.0913
vn 0.3204 0.5952 0.7369
vn 0.0024 0.9863 0.1648
vt 0.364746 0.532227
vt 0.344971 0.770996
vt 0.093750 0.492432
vt 0.479492 0.604004
vt 0.431641 0.572021
vt 0.545166 0.541748
vt 0.354980 0.482910
vt 0.324951 0.369385
vt 0.292725 0.417236
vt 0.364746 0.302490
vt 0.093750 0.039795
vt 0.479492 0.230469
vt 0.890381 0.043945
vt 0.594482 0.302490
vt 0.666260 0.417236
vt 0.604004 0.351563
vt 0.634277 0.465088
vt 0.413818 0.292725
vt 0.594482 0.532227
vt 0.776855 0.957520
vt 0.527344 0.262695
vt 0.588135 0.936768
s 1
usemtl m0heta_mat_v
f 3/1/1 2/2/2 1/3/3
f 3/1/1 4/4/4 2/2/2
f 5/5/5 4/4/4 3/1/1
f 5/5/5 6/6/6 4/4/4
f 7/7/7 6/6/6 5/5/5
f 7/7/7 8/8/8 6/6/6
f 9/9/9 8/8/8 7/7/7
f 9/9/9 10/10/10 8/8/8
f 11/11/11 10/10/10 9/9/9
f 11/11/11 12/12/12 10/10/10
f 13/13/13 12/12/12 11/11/11
f 13/13/13 14/14/14 12/12/12
f 15/15/15 14/14/14 13/13/13
f 15/15/15 16/16/16 14/14/14
f 17/17/17 16/16/16 15/15/15
f 17/17/17 18/18/18 16/16/16
f 8/8/8 18/18/18 17/17/17
f 8/8/8 10/10/10 18/18/18
f 17/17/17 6/6/6 8/8/8
f 17/17/17 19/19/19 6/6/6
f 15/15/15 19/19/19 17/17/17
f 15/15/15 20/20/20 19/19/19
f 13/13/13 20/20/20 15/15/15
f 12/12/12 18/18/18 10/10/10
f 12/12/12 21/21/21 18/18/18
f 14/14/14 21/21/21 12/12/12
f 14/14/14 16/16/16 21/21/21
f 3/1/1 7/7/7 5/5/5
f 3/1/1 9/9/9 7/7/7
f 1/3/3 9/9/9 3/1/1
f 1/3/3 11/11/11 9/9/9
f 19/19/19 4/4/4 6/6/6
f 19/19/19 20/20/20 4/4/4
f 22/22/22 4/4/4 20/20/20
f 22/22/22 2/2/2 4/4/4
f 21/21/21 16/16/16 18/18/18
