# Blender v3.0.0 OBJ File: ''
# www.blender.org
mtllib exhausted_top.mtl
o mesh-1_meshId1_name.001
v 16.726599 18.998005 -18.578096
v 23.367199 19.000004 -25.951195
v 20.224600 18.998003 -14.693397
v 28.252001 19.000004 -20.527296
v 22.837900 18.998003 -10.167997
v 31.902300 19.000002 -14.203096
v 24.453100 18.998001 -5.197267
v 34.158199 19.000002 -7.259767
v 25.000000 18.998001 0.000003
v 34.921898 19.000000 0.000003
v 24.453100 18.998001 5.197273
v 34.158199 18.999998 7.259773
v 22.837900 18.997999 10.168003
v 31.902300 18.999998 14.203102
v 20.224600 18.997999 14.693402
v 28.252001 18.999996 20.527304
v 16.726599 18.997997 18.578104
v 23.367199 18.999996 25.951202
v 12.500000 18.997997 21.650404
v 17.460899 18.999994 30.244102
v 7.724610 18.997997 23.775404
v 10.791000 18.999994 33.212902
v 2.611330 18.997997 24.861303
v 3.650390 18.999994 34.730503
v -2.611330 18.997997 24.861303
v -3.650390 18.999994 34.730503
v -7.724610 18.997997 23.775404
v -10.791000 18.999994 33.212902
v -12.500000 18.997997 21.650404
v -17.460899 18.999994 30.244102
v -16.726599 18.997997 18.578104
v -23.367199 18.999996 25.951202
v -20.224600 18.997999 14.693402
v -28.252001 18.999996 20.527304
v -22.837900 18.997999 10.168003
v -31.902300 18.999998 14.203102
v -24.453100 18.998001 5.197273
v -34.158199 18.999998 7.259773
v -25.000000 18.998001 0.000003
v -34.921898 19.000000 0.000003
v -24.453100 18.998001 -5.197267
v -34.158199 19.000002 -7.259767
v -22.837900 18.998003 -10.167997
v -31.902300 19.000002 -14.203096
v -20.224600 18.998003 -14.693397
v -28.252001 19.000004 -20.527296
v -16.726599 18.998005 -18.578096
v -23.367199 19.000004 -25.951195
v -12.500000 18.998005 -21.650396
v -17.460899 19.000006 -30.244095
v -7.724610 18.998005 -23.775396
v -10.791000 19.000006 -33.212894
v -2.611330 18.998005 -24.861296
v -3.650390 19.000006 -34.730495
v 2.611330 18.998005 -24.861296
v 3.650390 19.000006 -34.730495
v 7.724610 18.998005 -23.775396
v 10.791000 19.000006 -33.212894
v 12.500000 18.998005 -21.650396
v 17.460899 19.000006 -30.244095
v 16.726599 18.998005 -18.578096
v 34.921898 -19.000000 -0.000003
v 34.158199 -18.999998 -7.259773
v 31.902300 -18.999998 -14.203102
v 28.252001 -18.999996 -20.527304
v 34.158199 -19.000002 7.259767
v 31.902300 -19.000002 14.203096
v 28.252001 -19.000004 20.527296
v 23.367199 -19.000004 25.951195
v 17.460899 -19.000006 30.244095
v 10.791000 -19.000006 33.212894
v 3.650390 -19.000006 34.730495
v -3.650390 -19.000006 34.730495
v -10.791000 -19.000006 33.212894
v -17.460899 -19.000006 30.244095
v -23.367199 -19.000004 25.951195
v -28.252001 -19.000004 20.527296
v -31.902300 -19.000002 14.203096
v -34.158199 -19.000002 7.259767
v -34.921898 -19.000000 -0.000003
v -34.158199 -18.999998 -7.259773
v -31.902300 -18.999998 -14.203102
v -28.252001 -18.999996 -20.527304
v -23.367199 -18.999996 -25.951202
v -17.460899 -18.999994 -30.244102
v -10.791000 -18.999994 -33.212902
v -3.650390 -18.999994 -34.730503
v 3.650390 -18.999994 -34.730503
v 10.791000 -18.999994 -33.212902
v 17.460899 -18.999994 -30.244102
v 23.367199 -18.999996 -25.951202
v 24.520687 -19.000000 -5.211476
v 24.520687 -19.000000 5.211470
v 20.280884 -19.000002 14.735653
v 12.534421 -19.000004 21.710920
v 2.620456 -19.000004 24.931511
v -7.746390 -19.000004 23.842093
v -16.774296 -19.000004 18.629234
v -22.901274 -19.000002 10.195785
v -25.068913 -19.000000 -0.000003
v -22.901274 -18.999998 -10.195790
v -16.774296 -18.999996 -18.629242
v -7.746390 -18.999996 -23.842100
v 2.620456 -18.999996 -24.931519
v 12.534421 -18.999996 -21.710928
v 25.068913 -19.000000 -0.000003
v 22.901274 -18.999998 -10.195790
v 20.280884 -18.999998 -14.735659
v 22.901274 -19.000002 10.195785
v 16.774296 -19.000004 18.629234
v 7.746390 -19.000004 23.842093
v -2.620456 -19.000004 24.931511
v -12.534421 -19.000004 21.710920
v -20.280884 -19.000002 14.735653
v -24.520687 -19.000000 5.211470
v -24.520687 -19.000000 -5.211476
v -20.280884 -18.999998 -14.735659
v -12.534421 -18.999996 -21.710928
v -2.620456 -18.999996 -24.931519
v 7.746390 -18.999996 -23.842100
v 16.774296 -18.999996 -18.629242
vt 0.000000 0.000000
vt 1.000000 0.400391
vt 0.094727 -0.000977
vt 0.000000 0.400391
vt 1.000000 0.000000
vt 1.000000 0.400391
vt 0.000000 0.000000
vt 0.000000 0.400391
vt 1.000000 0.000000
vt 1.000000 0.400391
vt 0.000000 0.000000
vt 0.000000 0.400391
vt 1.000000 0.000000
vt 1.000000 0.400391
vt 0.000000 0.000000
vt 0.000000 0.400391
vt 1.000000 0.000000
vt 1.000000 0.400391
vt 0.000000 0.000000
vt 0.000000 0.400391
vt 1.000000 0.000000
vt 1.000000 0.400391
vt 0.000000 0.000000
vt 0.000000 0.400391
vt 1.000000 0.000000
vt 1.000000 0.400391
vt 0.000000 0.000000
vt 0.000000 0.400391
vt 1.000000 0.000000
vt 1.000000 0.400391
vt 0.000000 0.000000
vt 0.000000 0.400391
vt 1.000000 0.000000
vt 1.000000 0.400391
vt 0.000000 0.000000
vt 0.000000 0.400391
vt 1.000000 0.000000
vt 1.000000 0.400391
vt 0.000000 0.000000
vt 0.000000 0.400391
vt 1.000000 0.000000
vt 1.000000 0.400391
vt 0.000000 0.000000
vt 0.000000 0.400391
vt 1.000000 0.000000
vt 1.000000 0.400391
vt 0.000000 0.000000
vt 0.000000 0.400391
vt 1.000000 0.000000
vt 1.000000 0.400391
vt 0.000000 0.000000
vt 0.000000 0.400391
vt 1.000000 0.000000
vt 1.000000 0.400391
vt 0.000000 0.000000
vt 0.000000 0.400391
vt 1.000000 0.000000
vt 1.000000 0.400391
vt 0.000000 0.000000
vt 0.000000 0.400391
vt 1.000000 0.000000
vt 0.299805 -0.000976
vt 0.099609 0.699219
vt 0.949219 0.699219
vt 0.724609 -0.000976
vt 0.724609 -0.000976
vt 0.949219 0.699219
vt 0.949219 0.699219
vt 0.099609 0.699219
vt 0.299805 -0.000976
vt 0.724609 -0.000976
vt 0.099609 0.699219
vt 0.299805 -0.000976
vt 0.724609 -0.000976
vt 0.949219 0.699219
vt 0.099609 0.699219
vt 0.299805 -0.000976
vt 0.724609 -0.000976
vt 0.949219 0.699219
vt 0.099609 0.699219
vt 0.299805 -0.000976
vt 0.724609 -0.000976
vt 0.949219 0.699219
vt 0.099609 0.699219
vt 0.299805 -0.000976
vt 0.724609 -0.000976
vt 0.949219 0.699219
vt 0.099609 0.699219
vt 0.299805 -0.000976
vt 0.724609 -0.000976
vt 0.949219 0.699219
vt 0.099609 0.699219
vt 0.299805 -0.000976
vt 0.724609 -0.000976
vt 0.949219 0.699219
vt 0.099609 0.699219
vt 0.299805 -0.000976
vt 0.724609 -0.000976
vt 0.949219 0.699219
vt 0.099609 0.699219
vt 0.299805 -0.000976
vt 0.724609 -0.000976
vt 0.949219 0.699219
vt 0.099609 0.699219
vt 0.299805 -0.000976
vt 0.724609 -0.000976
vt 0.949219 0.699219
vt 0.099609 0.699219
vt 0.299805 -0.000976
vt 0.724609 -0.000976
vt 0.949219 0.699219
vt 0.099609 0.699219
vt 0.299805 -0.000976
vt 0.724609 -0.000976
vt 0.949219 0.699219
vt 0.099609 0.699219
vt 0.299805 -0.000976
vt 0.724609 -0.000976
vt 0.949219 0.699219
vt 0.099609 0.699219
vt 0.299805 -0.000976
vn -0.0002 1.0000 0.0001
vn -0.0002 1.0000 0.0000
vn -0.0002 1.0000 -0.0001
vn -0.0001 1.0000 -0.0002
vn -0.0000 1.0000 -0.0002
vn 0.0001 1.0000 -0.0002
vn 0.0002 1.0000 -0.0001
vn 0.0002 1.0000 -0.0000
vn 0.0002 1.0000 0.0001
vn 0.0001 1.0000 0.0002
vn 0.0000 1.0000 0.0002
vn -0.0001 1.0000 0.0002
vn 0.0000 -1.0000 -0.0000
usemtl m1side_mat
s off
f 3/1/1 2/2/1 1/3/1
f 3/1/1 4/4/1 2/2/1
f 5/5/1 4/4/1 3/1/1
f 5/5/1 6/6/1 4/4/1
f 7/7/1 6/6/1 5/5/1
f 7/7/1 8/8/1 6/6/1
f 9/9/2 8/8/2 7/7/2
f 9/9/2 10/10/2 8/8/2
f 11/11/2 10/10/2 9/9/2
f 11/11/2 12/12/2 10/10/2
f 13/13/3 12/12/3 11/11/3
f 13/13/3 14/14/3 12/12/3
f 15/15/3 14/14/3 13/13/3
f 15/15/3 16/16/3 14/14/3
f 17/17/3 16/16/3 15/15/3
f 17/17/3 18/18/3 16/16/3
f 19/19/4 18/18/4 17/17/4
f 19/19/4 20/20/4 18/18/4
f 21/21/4 20/20/4 19/19/4
f 21/21/4 22/22/4 20/20/4
f 23/23/5 22/22/5 21/21/5
f 23/23/5 24/24/5 22/22/5
f 25/25/5 24/24/5 23/23/5
f 25/25/5 26/26/5 24/24/5
f 27/27/5 26/26/5 25/25/5
f 27/27/5 28/28/5 26/26/5
f 29/29/6 28/28/6 27/27/6
f 29/29/6 30/30/6 28/28/6
f 31/31/6 30/30/6 29/29/6
f 31/31/6 32/32/6 30/30/6
f 33/33/7 32/32/7 31/31/7
f 33/33/7 34/34/7 32/32/7
f 35/35/7 34/34/7 33/33/7
f 35/35/7 36/36/7 34/34/7
f 37/37/7 36/36/7 35/35/7
f 37/37/7 38/38/7 36/36/7
f 39/39/8 38/38/8 37/37/8
f 39/39/8 40/40/8 38/38/8
f 41/41/8 40/40/8 39/39/8
f 41/41/8 42/42/8 40/40/8
f 43/43/9 42/42/9 41/41/9
f 43/43/9 44/44/9 42/42/9
f 45/45/9 44/44/9 43/43/9
f 45/45/9 46/46/9 44/44/9
f 47/47/9 46/46/9 45/45/9
f 47/47/9 48/48/9 46/46/9
f 49/49/10 48/48/10 47/47/10
f 49/49/10 50/50/10 48/48/10
f 51/51/10 50/50/10 49/49/10
f 51/51/10 52/52/10 50/50/10
f 53/53/11 52/52/11 51/51/11
f 53/53/11 54/54/11 52/52/11
f 55/55/11 54/54/11 53/53/11
f 55/55/11 56/56/11 54/54/11
f 57/57/11 56/56/11 55/55/11
f 57/57/11 58/58/11 56/56/11
f 59/59/12 58/58/12 57/57/12
f 59/59/12 60/60/12 58/58/12
f 61/61/12 60/60/12 59/59/12
f 61/61/12 2/2/12 60/60/12
f 92/62/13 63/63/13 62/64/13 106/65/13
f 107/66/13 64/67/13 63/63/13 92/62/13
f 91/68/13 65/69/13 108/70/13 121/71/13
f 90/72/13 91/68/13 121/71/13 105/73/13
f 90/72/13 105/73/13 120/74/13 89/75/13
f 88/76/13 89/75/13 120/74/13 104/77/13
f 88/76/13 104/77/13 119/78/13 87/79/13
f 86/80/13 87/79/13 119/78/13 103/81/13
f 86/80/13 103/81/13 118/82/13 85/83/13
f 84/84/13 85/83/13 118/82/13 102/85/13
f 84/84/13 102/85/13 117/86/13 83/87/13
f 82/88/13 83/87/13 117/86/13 101/89/13
f 82/88/13 101/89/13 116/90/13 81/91/13
f 80/92/13 81/91/13 116/90/13 100/93/13
f 80/92/13 100/93/13 115/94/13 79/95/13
f 78/96/13 79/95/13 115/94/13 99/97/13
f 78/96/13 99/97/13 114/98/13 77/99/13
f 76/100/13 77/99/13 114/98/13 98/101/13
f 76/100/13 98/101/13 113/102/13 75/103/13
f 74/104/13 75/103/13 113/102/13 97/105/13
f 74/104/13 97/105/13 112/106/13 73/107/13
f 72/108/13 73/107/13 112/106/13 96/109/13
f 72/108/13 96/109/13 111/110/13 71/111/13
f 70/112/13 71/111/13 111/110/13 95/113/13
f 70/112/13 95/113/13 110/114/13 69/115/13
f 68/116/13 69/115/13 110/114/13 94/117/13
f 68/116/13 94/117/13 109/118/13 67/119/13
f 66/120/13 67/119/13 109/118/13 93/121/13
f 66/120/13 93/121/13 106/65/13 62/64/13
f 65/69/13 64/67/13 107/66/13 108/70/13
