# Blender v3.0.0 OBJ File: ''
# www.blender.org
mtllib ham.mtl
o nodes_14_Mesh.007
v 91.234550 -3.498091 -37.787758
v 95.624214 -3.496531 -25.621096
v 60.129108 -3.498095 -34.713661
v 69.429688 -3.496534 -0.000004
v 97.905464 -3.496531 -12.886723
v 98.999214 -3.496534 -0.000003
v 77.860764 2.501911 -59.630363
v 60.136921 2.501907 -34.717567
v 85.735046 2.501909 -49.494095
v 91.234550 2.501907 -37.787754
v 95.624214 2.503469 -25.621096
v 69.437500 2.503466 -0.000003
v 36.968754 2.503466 -0.000004
v 32.015312 2.501905 -18.484085
v 95.624214 -3.496531 -25.621096
v 95.624214 2.503469 -25.621096
v 97.905464 -3.496531 -12.886723
v 97.905464 2.503468 -12.886722
v 98.999214 2.503466 -0.000002
v 98.999214 -3.496534 -0.000003
v 97.089058 2.503464 13.078122
v 97.089058 -3.496538 13.078121
v 91.234550 -3.498091 -37.787758
v 91.234550 2.501907 -37.787754
v 85.735046 -3.498091 -49.494095
v 85.735046 2.501909 -49.494095
v 93.999214 2.503462 25.999998
v 93.999214 -3.496538 25.999998
v 77.860764 -3.498087 -59.630363
v 77.860764 2.501911 -59.630363
v 25.627089 -3.496519 -95.623474
v 25.627089 2.503481 -95.623466
v 37.794300 -3.496519 -91.236473
v 37.794300 2.503481 -91.236465
v 49.505867 2.503479 -85.732292
v 49.505867 -3.496519 -85.732300
v 59.633018 2.503479 -77.859200
v 59.633018 -3.496523 -77.859200
v 69.041725 2.503477 -69.038742
v 69.041725 -3.496523 -69.038742
v 37.054691 -3.496534 -0.000005
v 32.089531 -3.498095 -18.527052
v 98.999214 2.503466 -0.000002
v 97.905464 2.503468 -12.886722
v 93.999214 2.503462 25.999998
v 97.089058 2.503464 13.078122
v 93.999214 -3.496538 25.999998
v 97.089058 -3.496538 13.078121
v 77.860764 -3.498087 -59.630363
v 85.735046 -3.498091 -49.494095
v 69.041725 -3.496523 -69.038742
v 34.719471 -3.496519 -60.125259
v 18.530188 -3.496527 -32.088718
v 0.000003 -3.498098 -0.000006
v 0.000413 -3.498091 -37.055141
v 69.041725 2.503477 -69.038742
v 34.725330 2.503477 -60.135414
v 59.633018 2.503479 -77.859200
v 49.505867 2.503479 -85.732292
v 25.627089 2.503481 -95.623466
v 0.001960 2.501913 -69.437965
v 18.487213 2.503473 -32.014297
v 0.000408 2.501907 -36.969204
v 0.000003 2.501902 -0.000005
v 37.794300 -3.496519 -91.236473
v 25.627089 -3.496519 -95.623474
v 0.001959 -3.498087 -69.430153
v 59.633018 -3.496523 -77.859200
v 49.505867 -3.496519 -85.732300
v 37.794300 2.503481 -91.236465
v 32.015587 2.501898 18.483896
v 32.089806 -3.498102 18.526865
v -77.704132 -3.498087 -59.308540
v -68.717484 -3.496523 -68.400154
v -60.130459 -3.498095 -34.714024
v -34.714840 -3.496523 -60.129314
v -59.470688 -3.496523 -77.540718
v -49.496826 -3.496519 -85.734360
v -68.717484 2.503477 -68.400154
v -60.138271 2.501905 -34.717926
v -34.718746 2.503475 -60.136066
v -18.485266 2.503471 -32.016788
v -32.016659 2.501905 -18.484446
v -91.240707 2.501904 -37.785580
v -85.736404 2.501905 -49.494453
v -77.704132 2.501909 -59.308540
v -32.090881 -3.498095 -18.527411
v -18.526278 -3.496531 -32.087837
v -37.793457 2.503477 -91.236900
v -25.622452 2.503477 -95.624695
v -59.470688 2.503479 -77.540718
v -49.496826 2.503475 -85.734360
v -68.717484 -3.496523 -68.400154
v -68.717484 2.503477 -68.400154
v -59.470688 -3.496523 -77.540718
v -59.470688 2.503479 -77.540718
v -49.496826 2.503475 -85.734360
v -49.496826 -3.496519 -85.734360
v -37.793457 2.503477 -91.236900
v -37.793457 -3.496519 -91.236900
v -25.622452 2.503477 -95.624695
v -25.622452 -3.496519 -95.624695
v -77.704132 -3.498087 -59.308540
v -77.704132 2.501909 -59.308540
v -85.736404 -3.498095 -49.494453
v -85.736404 2.501905 -49.494453
v -91.240707 -3.498095 -37.785580
v -91.240707 2.501904 -37.785580
v -25.622452 -3.496519 -95.624695
v -37.793457 -3.496519 -91.236900
v -91.240707 -3.498095 -37.785580
v -85.736404 -3.498095 -49.494453
v -95.626671 -3.496534 -25.614672
v -69.429680 -3.496534 0.003912
v -37.054684 -3.496534 0.000813
v -32.088005 -3.496538 18.527576
v -18.528227 -3.496531 32.088543
v -34.714836 -3.496542 60.126625
v 0.002363 -3.498106 69.429955
v -95.621765 2.503458 25.627514
v -60.133095 2.503456 34.722073
v -69.437492 2.503462 0.003914
v -32.013680 2.503462 18.484783
v -34.720695 2.503458 60.136776
v -18.485264 2.503464 32.014118
v 0.002363 2.501896 69.437767
v 0.000814 2.501902 36.969017
v -36.968746 2.503466 0.000805
v -95.626671 2.503462 -25.614672
v -96.621552 2.503462 -12.880203
v -97.026558 2.503460 0.006555
v -96.619080 -3.496542 12.897141
v -95.621765 -3.496538 25.627514
v -60.125801 -3.496538 34.717258
v -96.621552 -3.496534 -12.880204
v -97.026558 -3.496538 0.006554
v 0.000819 -3.498102 37.054955
v -96.619080 2.503458 12.897140
v -95.626671 2.503462 -25.614672
v -95.626671 -3.496534 -25.614672
v -96.621552 2.503462 -12.880203
v -96.621552 -3.496534 -12.880204
v -95.621765 -3.496538 25.627514
v -95.621765 2.503458 25.627514
v -96.619080 -3.496542 12.897141
v -96.619080 2.503458 12.897140
v -97.026558 -3.496538 0.006554
v -97.026558 2.503460 0.006555
v -49.173714 2.501892 84.774445
v -59.310669 2.501886 77.380241
v -68.717178 2.501886 69.040695
v -77.700523 2.501890 59.635563
v -85.731544 2.501890 49.499920
v -59.310669 -3.498110 77.380241
v -68.717178 -3.498114 69.040695
v -77.700523 -3.498110 59.635563
v -85.731529 -3.498110 49.499920
v -25.618681 2.501892 95.625252
v -37.630554 2.501890 90.754547
v -25.618681 -3.498110 95.625252
v -37.630554 -3.498110 90.754547
v -49.173714 -3.498110 84.774445
v -91.235580 2.501892 37.793964
v -91.235573 -3.498110 37.793968
v -91.235580 2.501892 37.793964
v -91.235573 -3.498110 37.793968
v -68.717178 -3.498114 69.040695
v -68.717178 2.501886 69.040695
v -77.700523 -3.498110 59.635563
v -77.700523 2.501890 59.635563
v -85.731529 -3.498110 49.499920
v -85.731544 2.501890 49.499920
v 25.626301 2.503450 95.623169
v 12.890898 2.501892 97.265518
v 0.003711 2.501892 97.715111
v -12.887426 2.501892 97.266083
v 25.626301 -3.496546 95.623161
v 12.890900 -3.498110 97.265518
v 0.003711 -3.498110 97.715111
v -12.887425 -3.498110 97.266083
v 68.001129 -3.496542 69.995209
v 68.001129 2.503454 69.995209
v 59.110180 -3.496542 78.345291
v 59.110180 2.503452 78.345291
v 49.505077 -3.496546 85.731995
v 49.505077 2.503452 85.732002
v 37.793510 -3.496546 91.236160
v 37.793510 2.503450 91.236168
v 25.626301 -3.496546 95.623161
v 25.626301 2.503450 95.623169
v 12.890900 -3.498110 97.265518
v 12.890898 2.501892 97.265518
v 0.003711 -3.498110 97.715111
v 0.003711 2.501892 97.715111
v -12.887425 -3.498110 97.266083
v -12.887426 2.501892 97.266083
v -25.618681 -3.498110 95.625252
v -25.618681 2.501892 95.625252
v -37.630554 -3.498110 90.754547
v -37.630554 2.501890 90.754547
v -49.173714 -3.498110 84.774445
v -49.173714 2.501892 84.774445
v -59.310669 -3.498110 77.380241
v -59.310669 2.501886 77.380241
v 60.137196 2.501896 34.717381
v 18.486422 2.503462 32.013992
v 34.718754 2.501892 60.136715
v 49.505077 -3.496546 85.731995
v 34.714848 -3.498110 60.128902
v 59.110180 -3.496542 78.345291
v 68.001129 -3.496542 69.995209
v 60.129383 -3.498102 34.713474
v 77.337730 -3.498110 60.114502
v 85.735313 -3.498106 49.497814
v 59.110180 2.503452 78.345291
v 68.001129 2.503454 69.995209
v 77.337730 2.501892 60.114502
v 85.735313 2.501894 49.497814
v 18.529398 -3.496534 32.088413
v 90.418320 2.501896 37.979069
v 37.793510 -3.496546 91.236160
v 90.418320 -3.498106 37.979065
v 77.337730 2.501892 60.114502
v 77.337730 -3.498110 60.114502
v 85.735313 2.501894 49.497814
v 85.735313 -3.498106 49.497814
v 90.418320 2.501896 37.979069
v 90.418320 -3.498106 37.979065
v 37.793510 2.503450 91.236168
v 49.505077 2.503452 85.732002
v 12.890446 -3.498083 -97.406418
v 0.003320 -3.498083 -98.000473
v -12.887770 -3.498083 -97.406853
v 12.890446 2.501917 -97.406418
v 0.003320 2.501917 -98.000473
v -12.887770 2.501915 -97.406853
v 12.890446 2.501917 -97.406418
v 12.890446 -3.498083 -97.406418
v 0.003320 2.501917 -98.000473
v 0.003320 -3.498083 -98.000473
v -12.887770 2.501915 -97.406853
v -12.887770 -3.498083 -97.406853
vt 0.971130 0.699402
vt 0.989807 0.632202
vt 0.800659 0.676697
vt 0.848145 0.499329
vt 0.995117 0.566528
vt 1.000366 0.500916
vt 0.904541 0.815552
vt 0.800659 0.676697
vt 0.943665 0.761536
vt 0.961975 0.695618
vt 0.980347 0.629700
vt 0.848206 0.499329
vt 0.682312 0.499329
vt 0.656982 0.593750
vt 0.989807 0.632202
vt 0.980347 0.629700
vt 0.995117 0.566528
vt 0.985535 0.565308
vt 0.990662 0.500977
vt 1.000366 0.500916
vt 0.987427 0.432251
vt 0.997070 0.430847
vt 0.971130 0.699402
vt 0.961975 0.695618
vt 0.952454 0.766602
vt 0.943665 0.761536
vt 0.984253 0.363464
vt 0.993774 0.360779
vt 0.912598 0.821716
vt 0.904541 0.815552
vt 0.627930 1.001831
vt 0.625427 0.992249
vt 0.697021 0.980042
vt 0.693115 0.970886
vt 0.760864 0.949463
vt 0.766052 0.958191
vt 0.813171 0.909485
vt 0.819397 0.917480
vt 0.865479 0.869568
vt 0.872742 0.876770
vt 0.682739 0.499329
vt 0.657349 0.593994
vt 0.990662 0.500977
vt 0.985535 0.565308
vt 0.984253 0.363464
vt 0.987427 0.432251
vt 0.993774 0.360779
vt 0.997070 0.430847
vt 0.912598 0.821716
vt 0.952454 0.766602
vt 0.872742 0.876770
vt 0.670776 0.806519
vt 0.588074 0.663269
vt 0.493408 0.499329
vt 0.493408 0.688660
vt 0.865479 0.869568
vt 0.670837 0.806580
vt 0.813171 0.909485
vt 0.760864 0.949463
vt 0.625427 0.992249
vt 0.493408 0.854126
vt 0.587891 0.662903
vt 0.493408 0.688232
vt 0.493408 0.499329
vt 0.697021 0.980042
vt 0.627930 1.001831
vt 0.493408 0.854065
vt 0.819397 0.917480
vt 0.766052 0.958191
vt 0.693115 0.970886
vt 0.656982 0.404846
vt 0.657349 0.404663
vt 0.095032 0.803467
vt 0.134888 0.852539
vt 0.186157 0.676697
vt 0.316040 0.806519
vt 0.187378 0.896667
vt 0.239868 0.940796
vt 0.141846 0.845764
vt 0.186157 0.676697
vt 0.315979 0.806580
vt 0.398987 0.662903
vt 0.329834 0.593750
vt 0.039429 0.687927
vt 0.063721 0.749573
vt 0.102783 0.797668
vt 0.329468 0.593994
vt 0.398743 0.663269
vt 0.303894 0.959229
vt 0.362976 0.986145
vt 0.193359 0.889099
vt 0.244812 0.932373
vt 0.134888 0.852539
vt 0.141846 0.845764
vt 0.187378 0.896667
vt 0.193359 0.889099
vt 0.244812 0.932373
vt 0.239868 0.940796
vt 0.303894 0.959229
vt 0.300110 0.968201
vt 0.362976 0.986145
vt 0.360352 0.995605
vt 0.095032 0.803467
vt 0.102783 0.797668
vt 0.055237 0.754395
vt 0.063721 0.749573
vt 0.030457 0.691528
vt 0.039429 0.687927
vt 0.360352 0.995605
vt 0.300110 0.968201
vt 0.030457 0.691528
vt 0.055237 0.754395
vt 0.005615 0.628723
vt 0.138672 0.499329
vt 0.304077 0.499329
vt 0.329468 0.404663
vt 0.398743 0.335327
vt 0.316040 0.192078
vt 0.493408 0.144531
vt 0.009949 0.370483
vt 0.186157 0.321899
vt 0.138611 0.499329
vt 0.329834 0.404846
vt 0.315979 0.192017
vt 0.398987 0.335693
vt 0.493408 0.144531
vt 0.493408 0.310425
vt 0.304504 0.499329
vt 0.015076 0.626282
vt 0.009277 0.563660
vt 0.003479 0.501038
vt -0.002869 0.434448
vt 0.000427 0.367859
vt 0.186157 0.321899
vt -0.000244 0.564819
vt -0.006165 0.500977
vt 0.493408 0.309998
vt 0.006714 0.435730
vt 0.015076 0.626282
vt 0.005615 0.628723
vt 0.009277 0.563660
vt -0.000244 0.564819
vt 0.000427 0.367859
vt 0.009949 0.370483
vt -0.002869 0.434448
vt 0.006714 0.435730
vt -0.006165 0.500977
vt 0.003479 0.501038
vt 0.244751 0.071045
vt 0.194153 0.110229
vt 0.143555 0.149414
vt 0.103638 0.197449
vt 0.063721 0.245483
vt 0.188171 0.102478
vt 0.136597 0.142456
vt 0.095886 0.191467
vt 0.055237 0.240417
vt 0.366394 0.031128
vt 0.305603 0.051086
vt 0.363831 0.021851
vt 0.301819 0.042175
vt 0.239807 0.062561
vt 0.036865 0.307983
vt 0.027832 0.304138
vt 0.036865 0.307983
vt 0.027832 0.304138
vt 0.136597 0.142456
vt 0.143555 0.149414
vt 0.095886 0.191467
vt 0.103638 0.197449
vt 0.055237 0.240417
vt 0.063721 0.245483
vt 0.622864 0.016479
vt 0.558228 0.012268
vt 0.493530 0.008057
vt 0.429993 0.019592
vt 0.625366 0.006897
vt 0.559448 0.002625
vt 0.493469 -0.001648
vt 0.428650 0.010071
vt 0.844971 0.137268
vt 0.838257 0.144348
vt 0.797180 0.096619
vt 0.791382 0.104431
vt 0.749329 0.055908
vt 0.744446 0.064514
vt 0.687317 0.031433
vt 0.683655 0.040527
vt 0.625366 0.006897
vt 0.622864 0.016479
vt 0.559448 0.002625
vt 0.558228 0.012268
vt 0.493469 -0.001648
vt 0.493530 0.008057
vt 0.428650 0.010071
vt 0.429993 0.019592
vt 0.363831 0.021851
vt 0.366394 0.031128
vt 0.301819 0.042175
vt 0.305603 0.051086
vt 0.239807 0.062561
vt 0.244751 0.071045
vt 0.188171 0.102478
vt 0.194153 0.110229
vt 0.800659 0.321899
vt 0.587891 0.335693
vt 0.670837 0.192017
vt 0.749329 0.055908
vt 0.670776 0.192078
vt 0.797180 0.096619
vt 0.844971 0.137268
vt 0.800659 0.321899
vt 0.894348 0.187988
vt 0.943726 0.238708
vt 0.791382 0.104431
vt 0.838257 0.144348
vt 0.886719 0.194092
vt 0.935120 0.243774
vt 0.588074 0.335327
vt 0.959656 0.303650
vt 0.687317 0.031433
vt 0.968750 0.299744
vt 0.886719 0.194092
vt 0.894348 0.187988
vt 0.935120 0.243774
vt 0.943726 0.238708
vt 0.959656 0.303650
vt 0.968750 0.299744
vt 0.683655 0.040527
vt 0.744446 0.064514
vt 0.560669 1.004883
vt 0.493347 1.007874
vt 0.426880 1.001709
vt 0.559448 0.995239
vt 0.493469 0.998230
vt 0.428223 0.992188
vt 0.559448 0.995239
vt 0.560669 1.004883
vt 0.493469 0.998230
vt 0.493347 1.007874
vt 0.428223 0.992188
vt 0.426880 1.001709
vn 0.0000 -1.0000 0.0001
vn -0.0000 -1.0000 0.0000
vn 0.0001 1.0000 0.0000
vn 0.0000 1.0000 -0.0000
vn -0.0000 1.0000 -0.0001
vn 0.9659 0.0000 -0.2588
vn 0.9914 -0.0000 -0.1306
vn 0.9995 0.0000 0.0302
vn 0.9820 0.0000 0.1887
vn 0.9239 -0.0000 -0.3827
vn 0.8526 0.0000 -0.5225
vn 0.9657 -0.0000 0.2596
vn 0.7605 0.0000 -0.6494
vn 0.2402 0.0000 -0.9707
vn 0.3827 0.0000 -0.9239
vn 0.5228 0.0000 -0.8525
vn 0.6495 0.0000 -0.7603
vn 0.7071 0.0000 -0.7071
vn -0.0000 1.0000 0.0001
vn 0.0000 -1.0000 -0.0001
vn -0.0001 -1.0000 -0.0000
vn -0.0001 1.0000 -0.0000
vn 0.0001 -1.0000 0.0000
vn -0.7071 0.0000 -0.7071
vn -0.6696 0.0000 -0.7427
vn -0.5342 0.0000 -0.8453
vn -0.3827 0.0000 -0.9239
vn -0.2402 0.0000 -0.9707
vn -0.7431 0.0000 -0.6692
vn -0.7433 0.0000 -0.6689
vn -0.8458 0.0000 -0.5334
vn -0.9239 0.0000 -0.3826
vn -0.9776 0.0000 -0.2103
vn -0.9985 0.0000 -0.0547
vn -0.9776 -0.0000 0.2105
vn -0.9985 0.0000 0.0549
vn -1.0000 -0.0000 0.0001
vn -0.9239 -0.0000 0.3827
vn -0.6939 0.0000 0.7201
vn -0.7543 0.0000 0.6566
vn -0.8500 -0.0000 0.5268
vn 0.7060 0.0000 0.7082
vn 0.6479 0.0000 0.7617
vn 0.5205 -0.0000 0.8538
vn 0.3827 -0.0000 0.9239
vn 0.2349 -0.0000 0.9720
vn 0.0815 -0.0000 0.9967
vn 0.0000 0.0000 1.0000
vn -0.0814 -0.0000 0.9967
vn -0.2539 0.0000 0.9672
vn -0.4183 0.0000 0.9083
vn -0.5262 0.0000 0.8504
vn -0.6271 0.0000 0.7790
vn 0.7563 0.0000 0.6542
vn 0.8640 0.0000 0.5035
vn 0.9433 -0.0000 0.3319
vn 0.0924 0.0000 -0.9957
vn 0.0000 0.0000 -1.0000
vn -0.0921 0.0000 -0.9958
vn -0.0919 0.0000 -0.9958
usemtl Material.011
s 1
f 1/1/1 2/2/1 3/3/2
f 2/2/1 4/4/2 3/3/2
f 2/2/1 5/5/2 4/4/2
f 5/5/2 6/6/2 4/4/2
f 7/7/3 8/8/4 9/9/4
f 8/8/4 10/10/5 9/9/4
f 8/8/4 11/11/5 10/10/5
f 11/11/5 8/8/4 12/12/4
f 8/8/4 13/13/4 12/12/4
f 8/8/4 14/14/4 13/13/4
f 15/15/6 16/16/6 17/17/7
f 16/16/6 18/18/7 17/17/7
f 19/19/8 20/20/8 18/18/7
f 20/20/8 17/17/7 18/18/7
f 21/21/9 22/22/9 19/19/8
f 22/22/9 20/20/8 19/19/8
f 23/23/10 24/24/10 15/15/6
f 24/24/10 16/16/6 15/15/6
f 25/25/11 26/26/11 23/23/10
f 26/26/11 24/24/10 23/23/10
f 27/27/12 28/28/12 21/21/9
f 28/28/12 22/22/9 21/21/9
f 29/29/13 30/30/13 25/25/11
f 30/30/13 26/26/11 25/25/11
f 31/31/14 32/32/14 33/33/15
f 32/32/14 34/34/15 33/33/15
f 35/35/16 36/36/16 34/34/15
f 36/36/16 33/33/15 34/34/15
f 37/37/17 38/38/17 35/35/16
f 38/38/17 36/36/16 35/35/16
f 39/39/18 40/40/18 37/37/17
f 40/40/18 38/38/17 37/37/17
f 4/4/2 41/41/2 3/3/2
f 41/41/2 42/42/2 3/3/2
f 43/43/4 44/44/4 12/12/4
f 44/44/4 11/11/5 12/12/4
f 45/45/19 46/46/4 12/12/4
f 46/46/4 43/43/4 12/12/4
f 47/47/20 4/4/2 48/48/2
f 4/4/2 6/6/2 48/48/2
f 49/49/21 50/50/2 3/3/2
f 50/50/2 1/1/1 3/3/2
f 49/49/21 3/3/2 51/51/2
f 3/3/2 52/52/2 51/51/2
f 3/3/2 42/42/2 52/52/2
f 42/42/2 53/53/2 52/52/2
f 42/42/2 54/54/2 53/53/2
f 54/54/2 55/55/2 53/53/2
f 7/7/3 56/56/4 8/8/4
f 56/56/4 57/57/4 8/8/4
f 56/56/4 58/58/4 57/57/4
f 58/58/4 59/59/4 57/57/4
f 60/60/22 61/61/4 57/57/4
f 61/61/4 62/62/4 57/57/4
f 61/61/4 63/63/4 62/62/4
f 63/63/4 64/64/4 62/62/4
f 65/65/2 52/52/2 66/66/23
f 52/52/2 67/67/2 66/66/23
f 52/52/2 53/53/2 67/67/2
f 53/53/2 55/55/2 67/67/2
f 51/51/2 52/52/2 68/68/2
f 52/52/2 69/69/2 68/68/2
f 52/52/2 65/65/2 69/69/2
f 64/64/4 14/14/4 62/62/4
f 14/14/4 57/57/4 62/62/4
f 14/14/4 8/8/4 57/57/4
f 59/59/4 70/70/4 57/57/4
f 70/70/4 60/60/22 57/57/4
f 71/71/4 13/13/4 64/64/4
f 13/13/4 14/14/4 64/64/4
f 72/72/2 54/54/2 41/41/2
f 54/54/2 42/42/2 41/41/2
f 40/40/18 39/39/18 29/29/13
f 39/39/18 30/30/13 29/29/13
f 73/73/23 74/74/2 75/75/2
f 74/74/2 76/76/2 75/75/2
f 74/74/2 77/77/2 76/76/2
f 77/77/2 78/78/2 76/76/2
f 79/79/4 80/80/4 81/81/4
f 80/80/4 82/82/4 81/81/4
f 80/80/4 83/83/4 82/82/4
f 83/83/4 64/64/4 82/82/4
f 84/84/5 80/80/4 85/85/4
f 80/80/4 86/86/22 85/85/4
f 80/80/4 79/79/4 86/86/22
f 87/87/2 88/88/2 54/54/2
f 88/88/2 55/55/2 54/54/2
f 88/88/2 76/76/2 55/55/2
f 89/89/4 81/81/4 90/90/3
f 81/81/4 61/61/4 90/90/3
f 81/81/4 63/63/4 61/61/4
f 79/79/4 81/81/4 91/91/4
f 81/81/4 92/92/4 91/91/4
f 81/81/4 89/89/4 92/92/4
f 76/76/2 88/88/2 75/75/2
f 88/88/2 87/87/2 75/75/2
f 64/64/4 63/63/4 82/82/4
f 63/63/4 81/81/4 82/82/4
f 93/93/24 94/94/24 95/95/25
f 94/94/24 96/96/25 95/95/25
f 97/97/26 98/98/26 96/96/25
f 98/98/26 95/95/25 96/96/25
f 99/99/27 100/100/27 97/97/26
f 100/100/27 98/98/26 97/97/26
f 101/101/28 102/102/28 99/99/27
f 102/102/28 100/100/27 99/99/27
f 103/103/29 104/104/30 93/93/24
f 104/104/30 94/94/24 93/93/24
f 105/105/31 106/106/31 103/103/29
f 106/106/31 104/104/30 103/103/29
f 107/107/32 108/108/32 105/105/31
f 108/108/32 106/106/31 105/105/31
f 109/109/21 67/67/2 76/76/2
f 67/67/2 55/55/2 76/76/2
f 78/78/2 110/110/2 76/76/2
f 110/110/2 109/109/21 76/76/2
f 111/111/1 112/112/2 75/75/2
f 112/112/2 73/73/23 75/75/2
f 111/111/1 75/75/2 113/113/1
f 75/75/2 114/114/2 113/113/1
f 75/75/2 87/87/2 114/114/2
f 87/87/2 115/115/2 114/114/2
f 87/87/2 54/54/2 115/115/2
f 54/54/2 116/116/2 115/115/2
f 54/54/2 117/117/2 116/116/2
f 117/117/2 118/118/2 116/116/2
f 117/117/2 119/119/2 118/118/2
f 120/120/4 121/121/4 122/122/4
f 121/121/4 123/123/4 122/122/4
f 121/121/4 124/124/4 123/123/4
f 124/124/4 125/125/4 123/123/4
f 124/124/4 126/126/4 125/125/4
f 126/126/4 127/127/4 125/125/4
f 127/127/4 64/64/4 125/125/4
f 64/64/4 123/123/4 125/125/4
f 64/64/4 128/128/4 123/123/4
f 128/128/4 122/122/4 123/123/4
f 128/128/4 83/83/4 122/122/4
f 83/83/4 80/80/4 122/122/4
f 84/84/5 129/129/5 80/80/4
f 129/129/5 122/122/4 80/80/4
f 129/129/5 130/130/4 122/122/4
f 130/130/4 131/131/4 122/122/4
f 132/132/2 114/114/2 133/133/2
f 114/114/2 134/134/2 133/133/2
f 114/114/2 115/115/2 134/134/2
f 115/115/2 116/116/2 134/134/2
f 113/113/1 114/114/2 135/135/2
f 114/114/2 136/136/2 135/135/2
f 114/114/2 132/132/2 136/136/2
f 54/54/2 137/137/2 117/117/2
f 137/137/2 119/119/2 117/117/2
f 131/131/4 138/138/4 122/122/4
f 138/138/4 120/120/4 122/122/4
f 108/108/32 107/107/32 139/139/33
f 107/107/32 140/140/33 139/139/33
f 139/139/33 140/140/33 141/141/34
f 140/140/33 142/142/34 141/141/34
f 143/143/35 144/144/35 145/145/36
f 144/144/35 146/146/36 145/145/36
f 145/145/36 146/146/36 147/147/37
f 146/146/36 148/148/37 147/147/37
f 147/147/37 148/148/37 142/142/34
f 148/148/37 141/141/34 142/142/34
f 128/128/4 64/64/4 83/83/4
f 116/116/2 118/118/2 134/134/2
f 149/149/4 124/124/4 150/150/4
f 124/124/4 151/151/4 150/150/4
f 124/124/4 121/121/4 151/151/4
f 121/121/4 152/152/4 151/151/4
f 121/121/4 153/153/4 152/152/4
f 154/154/2 155/155/2 118/118/2
f 155/155/2 134/134/2 118/118/2
f 155/155/2 156/156/2 134/134/2
f 156/156/2 157/157/2 134/134/2
f 126/126/4 124/124/4 158/158/4
f 124/124/4 159/159/4 158/158/4
f 124/124/4 149/149/4 159/159/4
f 119/119/2 160/160/2 118/118/2
f 160/160/2 161/161/2 118/118/2
f 161/161/2 162/162/2 118/118/2
f 162/162/2 154/154/2 118/118/2
f 120/120/4 163/163/19 121/121/4
f 163/163/19 153/153/4 121/121/4
f 133/133/2 134/134/2 164/164/20
f 134/134/2 157/157/2 164/164/20
f 144/144/35 143/143/35 165/165/38
f 143/143/35 166/166/38 165/165/38
f 167/167/39 168/168/39 169/169/40
f 168/168/39 170/170/40 169/169/40
f 169/169/40 170/170/40 171/171/41
f 170/170/40 172/172/41 171/171/41
f 171/171/41 172/172/41 166/166/38
f 172/172/41 165/165/38 166/166/38
f 173/173/4 126/126/4 174/174/22
f 126/126/4 175/175/4 174/174/22
f 126/126/4 176/176/4 175/175/4
f 177/177/2 178/178/23 119/119/2
f 178/178/23 179/179/2 119/119/2
f 160/160/2 119/119/2 180/180/2
f 119/119/2 179/179/2 180/180/2
f 181/181/42 182/182/42 183/183/43
f 182/182/42 184/184/43 183/183/43
f 183/183/43 184/184/43 185/185/44
f 184/184/43 186/186/44 185/185/44
f 185/185/44 186/186/44 187/187/45
f 186/186/44 188/188/45 187/187/45
f 187/187/45 188/188/45 189/189/46
f 188/188/45 190/190/46 189/189/46
f 189/189/46 190/190/46 191/191/47
f 190/190/46 192/192/47 191/191/47
f 191/191/47 192/192/47 193/193/48
f 192/192/47 194/194/48 193/193/48
f 193/193/48 194/194/48 195/195/49
f 194/194/48 196/196/49 195/195/49
f 195/195/49 196/196/49 197/197/50
f 196/196/49 198/198/50 197/197/50
f 197/197/50 198/198/50 199/199/51
f 198/198/50 200/200/51 199/199/51
f 199/199/51 200/200/51 201/201/52
f 200/200/51 202/202/52 201/201/52
f 201/201/52 202/202/52 203/203/53
f 202/202/52 204/204/53 203/203/53
f 203/203/53 204/204/53 167/167/39
f 204/204/53 168/168/39 167/167/39
f 176/176/4 126/126/4 158/158/4
f 13/13/4 71/71/4 12/12/4
f 71/71/4 205/205/4 12/12/4
f 71/71/4 206/206/4 205/205/4
f 206/206/4 207/207/4 205/205/4
f 206/206/4 127/127/4 207/207/4
f 127/127/4 126/126/4 207/207/4
f 208/208/2 209/209/2 210/210/2
f 209/209/2 211/211/2 210/210/2
f 209/209/2 212/212/2 211/211/2
f 212/212/2 213/213/21 211/211/2
f 212/212/2 214/214/2 213/213/21
f 215/215/4 216/216/4 207/207/4
f 216/216/4 205/205/4 207/207/4
f 216/216/4 217/217/3 205/205/4
f 217/217/3 218/218/4 205/205/4
f 119/119/2 137/137/2 209/209/2
f 137/137/2 219/219/2 209/209/2
f 137/137/2 54/54/2 219/219/2
f 54/54/2 72/72/2 219/219/2
f 12/12/4 205/205/4 45/45/19
f 205/205/4 220/220/19 45/45/19
f 205/205/4 218/218/4 220/220/19
f 119/119/2 209/209/2 177/177/2
f 209/209/2 221/221/2 177/177/2
f 209/209/2 208/208/2 221/221/2
f 214/214/2 212/212/2 222/222/20
f 212/212/2 47/47/20 222/222/20
f 212/212/2 4/4/2 47/47/20
f 182/182/42 181/181/42 223/223/54
f 181/181/42 224/224/54 223/223/54
f 223/223/54 224/224/54 225/225/55
f 224/224/54 226/226/55 225/225/55
f 225/225/55 226/226/55 227/227/56
f 226/226/55 228/228/56 227/227/56
f 28/28/12 27/27/12 228/228/56
f 27/27/12 227/227/56 228/228/56
f 126/126/4 173/173/4 207/207/4
f 173/173/4 229/229/4 207/207/4
f 127/127/4 206/206/4 64/64/4
f 206/206/4 71/71/4 64/64/4
f 229/229/4 230/230/4 207/207/4
f 230/230/4 215/215/4 207/207/4
f 209/209/2 219/219/2 212/212/2
f 219/219/2 72/72/2 212/212/2
f 72/72/2 41/41/2 212/212/2
f 41/41/2 4/4/2 212/212/2
f 66/66/23 67/67/2 231/231/23
f 67/67/2 232/232/2 231/231/23
f 67/67/2 233/233/21 232/232/2
f 60/60/22 234/234/22 61/61/4
f 234/234/22 235/235/4 61/61/4
f 235/235/4 236/236/3 61/61/4
f 236/236/3 90/90/3 61/61/4
f 32/32/14 31/31/14 237/237/57
f 31/31/14 238/238/57 237/237/57
f 237/237/57 238/238/57 239/239/58
f 238/238/57 240/240/58 239/239/58
f 239/239/58 240/240/58 241/241/59
f 240/240/58 242/242/60 241/241/59
f 102/102/28 101/101/28 242/242/60
f 101/101/28 241/241/59 242/242/60
f 67/67/2 109/109/21 233/233/21
