# Blender v3.0.0 OBJ File: ''
# www.blender.org
mtllib chocolate.mtl
o mesh-0_meshId0_name
v -5.065430 -10.000003 15.589798
v -9.643550 -10.000002 13.273397
v -4.275390 7.999998 13.102501
v -11.160200 7.999999 8.086911
v -6.367190 10.999999 8.741212
v -10.289100 10.999999 3.328132
v 0.000000 13.000000 0.000002
v -10.281300 11.000001 -3.354488
v -6.345700 11.000001 -8.756838
v -11.139600 8.000001 -8.115229
v -4.242190 8.000002 -13.113298
v -9.643550 -9.999998 -13.273401
v -5.065430 -9.999997 -15.589802
v 0.000000 -9.999997 -16.407202
v 4.275390 8.000002 -13.102499
v 0.012695 11.000002 -10.814498
v 6.367190 11.000001 -8.741208
v 10.289100 11.000001 -3.328128
v 10.281300 10.999999 3.354492
v 13.782200 8.000000 0.016603
v 11.139600 7.999999 8.115231
v 15.604500 -10.000001 5.069338
v 13.260699 -10.000002 9.634768
v 9.643550 -10.000002 13.273397
v 4.242190 7.999998 13.113300
v 6.345700 10.999999 8.756842
v -0.012695 10.999998 10.814502
v -13.260699 -10.000002 9.634768
v -15.604500 -10.000001 5.069338
v -13.782200 8.000000 -0.016600
v -16.391600 -10.000000 -0.000002
v -15.604500 -9.999999 -5.069341
v 5.065430 -9.999997 -15.589802
v 9.643550 -9.999998 -13.273401
v 11.160200 8.000001 -8.086909
v 13.260699 -9.999998 -9.634771
v 15.604500 -9.999999 -5.069341
v 0.000000 -10.000003 16.407198
v 5.065430 -10.000003 15.589798
v -13.260699 -9.999998 -9.634771
v 16.391600 -10.000000 -0.000002
vt 0.398682 0.224854
vt 0.253418 0.186768
vt 0.380859 0.169189
vt 0.244385 0.337402
vt 0.275635 0.360107
vt 0.224121 0.519043
vt 0.494385 0.518555
vt 0.275879 0.677734
vt 0.411133 0.775635
vt 0.244873 0.700439
vt 0.399414 0.812500
vt 0.253418 0.850342
vt 0.380859 0.867920
vt 0.494385 0.928711
vt 0.590332 0.812256
vt 0.578125 0.775635
vt 0.713135 0.677246
vt 0.764648 0.518311
vt 0.712891 0.359375
vt 0.803223 0.518311
vt 0.744141 0.336670
vt 0.884277 0.391846
vt 0.791504 0.302734
vt 0.735352 0.186768
vt 0.589600 0.224609
vt 0.577637 0.261475
vt 0.410645 0.261719
vt 0.197266 0.302734
vt 0.104492 0.391846
vt 0.185547 0.519043
vt 0.126953 0.518555
vt 0.104492 0.645264
vt 0.607910 0.867920
vt 0.735352 0.850342
vt 0.744629 0.699707
vt 0.791504 0.734619
vt 0.884277 0.645264
vt 0.494385 0.108643
vt 0.607910 0.169189
vt 0.197266 0.734619
vt 0.861816 0.518555
vn -0.2794 0.4346 0.8562
vn -0.5813 0.1491 0.7999
vn -0.3058 0.1435 0.9412
vn -0.7293 0.4346 0.5284
vn -0.3035 0.8569 0.4166
vn -0.4904 0.8569 0.1587
vn 0.0000 1.0000 0.0000
vn -0.4901 0.8568 -0.1599
vn -0.3025 0.8569 -0.4174
vn -0.7279 0.4346 -0.5303
vn -0.2772 0.4346 -0.8569
vn -0.5812 0.1491 -0.8000
vn -0.3059 0.1435 -0.9412
vn 0.0001 0.1491 -0.9888
vn 0.2794 0.4346 -0.8562
vn 0.0006 0.8569 -0.5155
vn 0.3035 0.8569 -0.4166
vn 0.4904 0.8569 -0.1587
vn 0.4901 0.8568 0.1599
vn 0.9006 0.4346 0.0011
vn 0.7279 0.4346 0.5303
vn 0.9404 0.1491 0.3056
vn 0.8007 0.1434 0.5817
vn 0.5812 0.1491 0.8000
vn 0.2772 0.4346 0.8569
vn 0.3025 0.8569 0.4174
vn -0.0006 0.8569 0.5155
vn -0.8006 0.1434 0.5818
vn -0.9404 0.1491 0.3055
vn -0.9006 0.4346 -0.0011
vn -0.9897 0.1434 0.0001
vn -0.9404 0.1491 -0.3056
vn 0.3058 0.1435 -0.9412
vn 0.5813 0.1491 -0.7999
vn 0.7293 0.4346 -0.5284
vn 0.8006 0.1434 -0.5818
vn 0.9404 0.1491 -0.3055
vn -0.0001 0.1491 0.9888
vn 0.3059 0.1435 0.9412
vn -0.8007 0.1434 -0.5817
vn 0.9897 0.1434 -0.0001
usemtl m0chocolate_mat
s 1
f 3/1/1 2/2/2 1/3/3
f 3/1/1 4/4/4 2/2/2
f 5/5/5 4/4/4 3/1/1
f 5/5/5 6/6/6 4/4/4
f 7/7/7 6/6/6 5/5/5
f 7/7/7 8/8/8 6/6/6
f 9/9/9 8/8/8 7/7/7
f 9/9/9 10/10/10 8/8/8
f 11/11/11 10/10/10 9/9/9
f 11/11/11 12/12/12 10/10/10
f 13/13/13 12/12/12 11/11/11
f 11/11/11 14/14/14 13/13/13
f 11/11/11 15/15/15 14/14/14
f 16/16/16 15/15/15 11/11/11
f 16/16/16 17/17/17 15/15/15
f 7/7/7 17/17/17 16/16/16
f 7/7/7 18/18/18 17/17/17
f 19/19/19 18/18/18 7/7/7
f 19/19/19 20/20/20 18/18/18
f 21/21/21 20/20/20 19/19/19
f 21/21/21 22/22/22 20/20/20
f 23/23/23 22/22/22 21/21/21
f 21/21/21 24/24/24 23/23/23
f 21/21/21 25/25/25 24/24/24
f 26/26/26 25/25/25 21/21/21
f 26/26/26 27/27/27 25/25/25
f 7/7/7 27/27/27 26/26/26
f 7/7/7 5/5/5 27/27/27
f 4/4/4 28/28/28 2/2/2
f 4/4/4 29/29/29 28/28/28
f 30/30/30 29/29/29 4/4/4
f 30/30/30 31/31/31 29/29/29
f 32/32/32 31/31/31 30/30/30
f 15/15/15 33/33/33 14/14/14
f 15/15/15 34/34/34 33/33/33
f 35/35/35 34/34/34 15/15/15
f 35/35/35 36/36/36 34/34/34
f 37/37/37 36/36/36 35/35/35
f 3/1/1 27/27/27 5/5/5
f 3/1/1 25/25/25 27/27/27
f 38/38/38 25/25/25 3/1/1
f 38/38/38 39/39/39 25/25/25
f 10/10/10 30/30/30 8/8/8
f 10/10/10 32/32/32 30/30/30
f 40/40/40 32/32/32 10/10/10
f 6/6/6 30/30/30 4/4/4
f 6/6/6 8/8/8 30/30/30
f 16/16/16 9/9/9 7/7/7
f 16/16/16 11/11/11 9/9/9
f 41/41/41 20/20/20 22/22/22
f 41/41/41 37/37/37 20/20/20
f 26/26/26 19/19/19 7/7/7
f 26/26/26 21/21/21 19/19/19
f 17/17/17 35/35/35 15/15/15
f 17/17/17 18/18/18 35/35/35
f 20/20/20 35/35/35 18/18/18
f 20/20/20 37/37/37 35/35/35
f 40/40/40 10/10/10 12/12/12
f 39/39/39 24/24/24 25/25/25
f 1/3/3 38/38/38 3/1/1
