# Blender v3.0.0 OBJ File: ''
# www.blender.org
mtllib top.mtl
o mesh-1_meshId1_name.004
v -23.802475 35.107391 11.518523
v -17.431366 11.052703 -22.843014
v -17.124477 38.917892 16.898802
v -24.026920 14.861292 -17.356956
v -28.115955 30.306595 4.704438
v -28.235268 19.662083 -10.477428
v -29.643951 24.984299 -2.874635
v 0.543489 42.206985 21.454086
v 17.832802 11.052696 -23.115170
v 9.806537 41.363186 20.180225
v -8.735215 41.363190 20.324883
v -13.929608 36.652298 -5.516160
v -13.989284 31.330002 -13.107139
v -14.707466 33.992199 -9.306630
v -11.784579 39.058598 -2.102000
v -11.896646 28.925701 -16.552994
v -8.432746 40.958992 0.582599
v -8.588930 27.025400 -19.288795
v -4.242670 42.189392 2.306104
v -4.426727 25.794899 -21.076778
v 0.400897 42.603493 2.858108
v 14.539466 31.329994 -13.326852
v 14.597990 36.652294 -5.737507
v 15.317758 33.992195 -9.539135
v 12.394411 28.925697 -16.741016
v 12.505403 39.058594 -2.291630
v 9.044209 27.025396 -19.426804
v 9.196050 40.958992 0.445265
v 4.852554 25.794899 -21.149197
v 5.033886 42.189392 2.233306
v 0.209414 25.380798 -21.703861
v 28.941956 30.306583 4.262218
v 28.824276 19.662069 -10.920803
v 30.350723 24.984287 -3.340638
v 24.733677 35.107384 11.141689
v 24.511925 14.861283 -17.733303
v 18.139690 38.917885 16.626633
v 12.394411 28.925697 -16.741016
v 13.424510 21.494106 -22.993134
v 9.044209 27.025396 -19.426804
v 24.483910 19.775354 -21.177637
v 14.539466 31.329994 -13.326852
v 28.797401 24.576092 -14.363544
v 15.317758 33.992195 -9.539135
v 30.325336 29.898388 -6.784554
v 14.597990 36.652294 -5.737507
v 28.915550 35.218689 0.816693
v 12.505403 39.058594 -2.291630
v 24.708351 40.021484 7.697855
v 9.196050 40.958992 0.445265
v 18.112820 43.829987 13.183902
v 5.033886 42.189392 2.233306
v 9.778502 46.277283 16.735863
v 0.400897 42.603493 2.858108
v 0.518162 47.119083 18.010252
v -4.242670 42.189392 2.306104
v -8.761661 46.277290 16.879477
v -8.432746 40.958992 0.582599
v -17.151360 43.829994 13.456059
v -11.784579 39.058598 -2.102000
v -23.830490 40.021496 8.074186
v -13.929608 36.652298 -5.516160
v -28.143990 35.218697 1.260077
v -14.707466 33.992199 -9.306630
v -29.670380 29.898399 -6.320018
v -13.989284 31.330002 -13.107139
v -28.260513 24.576103 -13.921322
v -11.896646 28.925701 -16.552994
v -24.053288 19.775364 -20.802380
v -8.588930 27.025400 -19.288795
v -10.943269 20.878872 -23.680702
v -4.426727 25.794899 -21.076778
v -8.830031 17.667931 -26.700184
v -7.361732 18.121061 -26.553854
v -7.808051 17.326141 -27.164005
v -7.507341 16.656221 -27.751949
v -2.736378 37.609287 20.147118
v -0.417006 35.011688 20.778484
v 0.543187 38.386688 21.231388
v -1.778368 34.234287 19.680962
v -4.111084 35.732388 17.481659
v -1.790609 33.136688 18.114574
v -2.777362 33.855389 14.791700
v -0.445562 32.359287 16.996443
v 0.483480 33.076088 13.657248
v 1.467089 32.359287 16.982357
v 3.763013 33.855389 14.741541
v 2.827340 33.136688 18.078215
v 5.138895 35.732388 17.408617
v 2.840709 34.234287 19.646255
v 3.804030 37.609283 20.096933
v 1.495677 35.011684 20.764374
v -3.012697 40.218689 18.644123
v 0.531824 41.058590 19.817808
v -4.499323 38.187489 15.760910
v -3.057821 36.158192 12.855244
v 0.467929 35.318291 11.628108
v 4.014071 36.158192 12.800656
v 5.500606 38.187489 15.683809
v 4.057579 40.218689 18.590647
v 10.310033 17.915977 -26.455696
v 11.308442 17.455038 -26.629374
v 9.276749 18.583948 -26.024582
v 4.852554 25.794899 -21.149197
v 7.133801 19.656219 -25.566082
v 0.136876 12.675749 -31.114880
v 9.416739 13.517540 -29.984047
v -7.794750 15.771453 -28.216339
v -9.125078 13.517543 -29.839344
v -8.909170 15.210903 -28.151812
v -10.048610 15.521453 -27.788994
v -9.110879 11.064422 -28.118580
v -9.125078 13.517543 -29.839344
v 0.144958 11.039029 -29.965084
v -17.460983 15.964813 -26.286251
v -17.431366 11.052703 -22.843014
v -24.026920 14.861292 -17.356956
v -17.460983 15.964813 -26.286251
v -9.920517 17.187473 -26.861366
v 0.209414 25.380798 -21.703861
v 10.420043 15.527309 -27.890863
v 11.375086 15.816369 -27.566246
v 9.548143 15.908169 -27.886410
v 8.922557 16.966759 -27.414703
v 10.356924 11.757775 -23.705639
v 11.672317 16.638638 -27.135239
v 11.375086 15.816369 -27.566246
v 11.308442 17.455038 -26.629374
v 10.310033 17.915977 -26.455696
v 9.482297 17.656219 -26.796669
v 8.922557 16.966759 -27.414703
v 9.548143 15.908169 -27.886410
v 17.804756 15.964808 -26.559547
v 11.672317 16.638638 -27.135239
v -8.888581 11.488249 -23.939886
v -7.808051 17.326141 -27.164005
v -7.507341 16.656221 -27.751949
v -8.830031 17.667931 -26.700184
v -9.920517 17.187473 -26.861366
v 0.526568 33.275391 19.167055
v 17.804756 15.964808 -26.559547
v 17.832802 11.052696 -23.115170
v 9.429331 11.064419 -28.262142
v 24.483910 19.775354 -21.177637
v 9.416739 13.517540 -29.984047
v 0.136876 12.675749 -31.114880
v 24.511925 14.861283 -17.733303
v 28.797401 24.576092 -14.363544
v -10.294717 16.427704 -27.259066
v 9.482297 17.656219 -26.796669
v 10.420043 15.527309 -27.890863
v -7.794750 15.771453 -28.216339
v -8.909170 15.210903 -28.151812
v -10.048610 15.521453 -27.788994
v -10.294717 16.427704 -27.259066
v -24.053288 19.775364 -20.802380
v -28.235268 19.662083 -10.477428
v -28.260513 24.576103 -13.921322
v -29.643951 24.984299 -2.874635
v -29.670380 29.898399 -6.320018
v -28.115955 30.306595 4.704438
v -28.143990 35.218697 1.260077
v -23.802475 35.107391 11.518523
v -23.830490 40.021496 8.074186
v -17.124477 38.917892 16.898802
v -17.151360 43.829994 13.456059
v -8.735215 41.363190 20.324883
v -8.761661 46.277290 16.879477
v 0.543489 42.206985 21.454086
v 0.518162 47.119083 18.010252
v 9.806537 41.363186 20.180225
v 9.778502 46.277283 16.735863
v 18.139690 38.917885 16.626633
v 18.112820 43.829987 13.183902
v 24.733677 35.107384 11.141689
v 24.708351 40.021484 7.697855
v 28.941956 30.306583 4.262218
v 28.915550 35.218689 0.816693
v 30.350723 24.984287 -3.340638
v 30.325336 29.898388 -6.784554
v 28.824276 19.662069 -10.920803
vt 0.095546 0.206095
vt 0.206142 0.904461
vt 0.206142 0.095499
vt 0.095546 0.793801
vt 0.024501 0.345499
vt 0.024501 0.654461
vt 0.000087 0.499916
vt 0.500026 -0.000021
vt 0.793909 0.904461
vt 0.654569 0.024455
vt 0.345546 0.024455
vt 0.262294 0.422709
vt 0.262294 0.577191
vt 0.249782 0.499916
vt 0.297573 0.352885
vt 0.297573 0.647011
vt 0.353115 0.297709
vt 0.353115 0.702191
vt 0.422695 0.262003
vt 0.422695 0.737896
vt 0.500026 0.249979
vt 0.737819 0.577191
vt 0.737819 0.422709
vt 0.750269 0.499916
vt 0.702479 0.647011
vt 0.702479 0.352885
vt 0.646999 0.702191
vt 0.646999 0.297709
vt 0.577359 0.737896
vt 0.577359 0.262003
vt 0.500026 0.749916
vt 0.975549 0.345499
vt 0.975549 0.654461
vt 1.000024 0.499916
vt 0.904569 0.206095
vt 0.904569 0.793801
vt 0.793909 0.095499
vt 0.702479 0.647011
vt 0.720424 0.803326
vt 0.646999 0.702191
vt 0.904569 0.793801
vt 0.737819 0.577191
vt 0.975549 0.654461
vt 0.750269 0.499916
vt 1.000024 0.499916
vt 0.737819 0.422709
vt 0.975549 0.345499
vt 0.702479 0.352885
vt 0.904569 0.206095
vt 0.646999 0.297709
vt 0.793909 0.095499
vt 0.577359 0.262003
vt 0.654569 0.024455
vt 0.500026 0.249979
vt 0.500026 -0.000021
vt 0.422695 0.262003
vt 0.345546 0.024455
vt 0.353115 0.297709
vt 0.206142 0.095499
vt 0.297573 0.352885
vt 0.095546 0.206095
vt 0.262294 0.422709
vt 0.024501 0.345499
vt 0.249782 0.499916
vt 0.000087 0.499916
vt 0.262294 0.577191
vt 0.024501 0.654461
vt 0.297573 0.647011
vt 0.095546 0.793801
vt 0.353115 0.702191
vt 0.314418 0.821146
vt 0.422695 0.737896
vt 0.349819 0.899761
vt 0.374477 0.886391
vt 0.357326 0.907936
vt 0.364833 0.916056
vt 0.445522 0.062174
vt 0.484096 0.078165
vt 0.500026 0.039591
vt 0.461513 0.100687
vt 0.422939 0.116679
vt 0.461513 0.132609
vt 0.445522 0.171183
vt 0.484096 0.155131
vt 0.500026 0.193766
vt 0.515954 0.155131
vt 0.554529 0.171183
vt 0.538539 0.132609
vt 0.577114 0.116679
vt 0.538539 0.100687
vt 0.554529 0.062174
vt 0.515954 0.078165
vt 0.441127 0.057719
vt 0.500026 0.033305
vt 0.416713 0.116679
vt 0.441127 0.175578
vt 0.500026 0.199992
vt 0.558984 0.175578
vt 0.583339 0.116679
vt 0.558984 0.057719
vt 0.669824 0.889691
vt 0.678919 0.898111
vt 0.651699 0.872966
vt 0.577359 0.737896
vt 0.615934 0.856671
vt 0.500026 0.999916
vt 0.654569 0.975441
vt 0.355007 0.930521
vt 0.345546 0.975441
vt 0.335353 0.944316
vt 0.330226 0.928751
vt 0.482509 0.250834
vt 0.482509 0.472941
vt 0.407497 0.317423
vt 0.407497 0.472941
vt 0.407497 0.028666
vt 0.482509 0.028666
vt 0.206142 0.904461
vt 0.337490 0.906471
vt 0.500026 0.749916
vt 0.671229 0.940956
vt 0.679589 0.923686
vt 0.661954 0.924051
vt 0.652674 0.907146
vt 0.039882 0.042216
vt 0.062160 0.041728
vt 0.057216 0.055643
vt 0.055995 0.026957
vt 0.039211 0.020243
vt 0.025417 0.027506
vt 0.016078 0.042704
vt 0.026638 0.059306
vt 0.793909 0.904461
vt 0.687954 0.906471
vt 0.039699 0.041056
vt 0.057643 0.029154
vt 0.062587 0.043131
vt 0.041103 0.019938
vt 0.023525 0.026652
vt 0.500026 0.116679
vt 0.407497 0.472941
vt 0.407497 0.028666
vt 0.482509 0.250834
vt 0.482509 0.472941
vt 0.482509 0.472941
vt 0.407497 0.472941
vt 0.482509 0.028666
vt 0.407497 0.472941
vt 0.325160 0.913186
vt 0.661219 0.898416
vt 0.041225 0.062968
vt 0.058010 0.057474
vt 0.040004 0.061930
vt 0.021572 0.054423
vt 0.017482 0.038981
vt 0.482509 0.472941
vt 0.407497 0.028666
vt 0.407497 0.472941
vt 0.482509 0.028666
vt 0.482509 0.472941
vt 0.407497 0.028666
vt 0.407497 0.472941
vt 0.482509 0.028666
vt 0.482509 0.472941
vt 0.407497 0.028666
vt 0.407497 0.472941
vt 0.482509 0.028666
vt 0.482509 0.472941
vt 0.407497 0.028666
vt 0.407497 0.472941
vt 0.482509 0.028666
vt 0.482509 0.472941
vt 0.407497 0.028666
vt 0.407497 0.472941
vt 0.482509 0.028666
vt 0.482509 0.472941
vt 0.407497 0.028666
vt 0.407497 0.472941
vt 0.482509 0.028666
vt 0.482509 0.472941
vt 0.407497 0.028666
vn 0.0047 -0.8188 0.5741
vn 0.0044 -0.8188 0.5741
vn 0.0044 -0.8188 0.5740
vn 0.0046 -0.8188 0.5740
vn 0.0042 -0.8188 0.5741
vn -0.0027 0.8188 -0.5741
vn -0.0048 0.8188 -0.5741
vn -0.0046 0.8188 -0.5741
vn -0.0044 0.8188 -0.5741
vn -0.0043 0.8188 -0.5741
vn -0.0045 0.8188 -0.5741
vn -0.0065 0.8187 -0.5741
vn -0.0039 0.8187 -0.5741
vn -0.0039 0.8188 -0.5741
vn -0.0041 0.8188 -0.5741
vn -0.0042 0.8188 -0.5741
vn 0.0043 -0.8188 0.5740
vn 0.0046 -0.8188 0.5741
vn 0.0043 -0.8188 0.5741
vn 0.0045 -0.8188 0.5741
vn 0.2507 0.6701 -0.6986
vn 0.1853 0.6320 -0.7525
vn 0.1799 0.6305 -0.7551
vn 0.2504 0.6701 -0.6988
vn 0.2959 0.7204 -0.6272
vn 0.2959 0.7206 -0.6270
vn 0.3120 0.7769 -0.5469
vn 0.3121 0.7768 -0.5469
vn 0.2974 0.8327 -0.4670
vn 0.2973 0.8328 -0.4669
vn 0.2528 0.8835 -0.3943
vn 0.2529 0.8835 -0.3942
vn 0.1835 0.9237 -0.3364
vn 0.1834 0.9237 -0.3365
vn 0.0954 0.9495 -0.2990
vn 0.0954 0.9495 -0.2989
vn -0.0021 0.9584 -0.2855
vn -0.0022 0.9584 -0.2855
vn -0.1002 0.9494 -0.2975
vn -0.1001 0.9495 -0.2975
vn -0.1884 0.9238 -0.3334
vn -0.1885 0.9237 -0.3335
vn -0.2591 0.8834 -0.3905
vn -0.2590 0.8834 -0.3904
vn -0.3045 0.8330 -0.4620
vn -0.3045 0.8329 -0.4621
vn -0.3205 0.7767 -0.5423
vn -0.3206 0.7767 -0.5421
vn -0.3058 0.7207 -0.6222
vn -0.3057 0.7207 -0.6222
vn -0.2612 0.6700 -0.6949
vn -0.2546 0.6704 -0.6970
vn -0.1953 0.6263 -0.7547
vn -0.1820 0.6247 -0.7593
vn -0.1034 0.6046 -0.7898
vn -0.1416 0.6216 -0.7705
vn -0.0785 0.6136 -0.7857
vn -0.0995 0.6404 -0.7616
vn -0.0563 0.5890 -0.8062
vn -0.6519 0.0769 0.7544
vn -0.2032 -0.3933 0.8967
vn 0.0075 0.2331 0.9724
vn -0.5019 -0.5640 0.6558
vn -0.9284 -0.3007 0.2182
vn -0.5047 -0.8050 0.3118
vn -0.6603 -0.6783 -0.3225
vn -0.2096 -0.9755 0.0666
vn -0.0044 -0.8347 -0.5506
vn 0.2108 -0.9755 0.0635
vn 0.6552 -0.6783 -0.3325
vn 0.5094 -0.8051 0.3038
vn 0.9317 -0.3008 0.2036
vn 0.5120 -0.5641 0.6478
vn 0.6634 0.0768 0.7443
vn 0.2167 -0.3933 0.8935
vn -0.6967 0.3011 0.6511
vn 0.0067 0.4677 0.8839
vn -0.9917 -0.1016 0.0788
vn -0.7055 -0.5045 -0.4977
vn -0.0059 -0.6711 -0.7414
vn 0.6977 -0.5045 -0.5085
vn 0.9928 -0.1017 0.0636
vn 0.7065 0.3011 0.6404
vn 0.1222 0.6261 -0.7701
vn 0.1471 0.6036 -0.7836
vn 0.1089 0.6241 -0.7737
vn 0.0918 0.6040 -0.7916
vn 0.0911 0.6049 -0.7911
vn -0.0061 0.5948 -0.8038
vn 0.1061 0.6282 -0.7708
vn -0.1498 0.5784 -0.8019
vn -0.1100 0.6574 -0.7455
vn -0.2108 0.7034 -0.6788
vn -0.1030 0.6338 -0.7666
vn -0.3336 -0.5426 -0.7709
vn -0.3150 -0.5463 -0.7761
vn -0.0064 -0.5748 -0.8183
vn -0.5929 -0.4646 -0.6577
vn -0.6066 -0.4588 -0.6492
vn -0.8127 -0.3375 -0.4750
vn -0.1855 0.6426 -0.7434
vn -0.1562 0.5914 -0.7911
vn -0.0065 0.5951 -0.8036
vn 0.1205 0.6866 -0.7170
vn 0.0967 0.6176 -0.7805
vn 0.3943 0.5938 -0.7014
vn 0.1323 0.6117 -0.7800
vn 0.0050 0.8075 -0.5898
vn -0.9550 0.0522 -0.2920
vn -0.7946 0.5111 0.3278
vn -0.5831 -0.2917 -0.7582
vn 0.1011 -0.4050 -0.9087
vn 0.6406 -0.2798 -0.7151
vn 0.9561 0.0589 -0.2870
vn 0.7165 0.5594 0.4167
vn 0.1780 0.6285 -0.7572
vn 0.1352 0.4987 -0.8562
vn -0.0096 0.8039 -0.5947
vn -0.7226 -0.2269 -0.6530
vn -0.9674 0.0818 -0.2396
vn -0.1338 -0.4031 -0.9053
vn 0.5378 -0.3055 -0.7858
vn 0.5826 -0.4644 -0.6670
vn 0.5966 -0.4585 -0.6587
vn 0.3217 -0.5428 -0.7758
vn 0.8052 -0.3373 -0.4877
vn 0.3030 -0.5465 -0.7807
vn -0.0063 -0.5748 -0.8182
vn 0.9491 -0.1773 -0.2605
vn -0.1482 0.4930 -0.8573
vn 0.0676 0.6470 -0.7595
vn -0.0206 0.7430 0.6689
vn -0.8244 0.4912 0.2811
vn -0.0090 0.7492 0.6622
vn 0.8112 0.5087 0.2886
vn 0.9296 0.0173 -0.3681
vn -0.8127 -0.3374 -0.4750
vn -0.9530 -0.1772 -0.2457
vn -1.0000 0.0001 0.0077
vn -1.0000 -0.0000 0.0077
vn -0.9491 0.1773 0.2605
vn -0.9491 0.1772 0.2604
vn -0.8053 0.3372 0.4877
vn -0.5826 0.4643 0.6670
vn -0.5826 0.4644 0.6670
vn -0.3030 0.5460 0.7811
vn 0.0063 0.5741 0.8188
vn 0.0064 0.5741 0.8188
vn 0.3151 0.5459 0.7763
vn 0.3150 0.5459 0.7764
vn 0.5929 0.4644 0.6579
vn 0.5929 0.4643 0.6579
vn 0.8127 0.3372 0.4752
vn 0.8127 0.3373 0.4752
vn 0.9530 0.1773 0.2456
vn 1.0000 -0.0001 -0.0076
vn 0.9491 -0.1773 -0.2604
usemtl m2red_mat.003
s off
f 1/1/1 2/2/1 3/3/1
f 1/1/1 4/4/1 2/2/1
f 5/5/2 4/4/2 1/1/2
f 5/5/2 6/6/2 4/4/2
f 7/7/1 6/6/1 5/5/1
f 8/8/3 9/9/3 10/10/3
f 8/8/2 2/2/2 9/9/2
f 11/11/4 2/2/4 8/8/4
f 11/11/5 3/3/5 2/2/5
f 12/12/6 13/13/6 14/14/6
f 12/12/7 15/15/7 13/13/7
f 15/15/8 16/16/8 13/13/8
f 15/15/9 17/17/9 16/16/9
f 17/17/9 18/18/9 16/16/9
f 17/17/10 19/19/10 18/18/10
f 19/19/11 20/20/11 18/18/11
f 19/19/7 21/21/7 20/20/7
f 22/22/12 23/23/12 24/24/12
f 22/22/13 25/25/13 23/23/13
f 25/25/14 26/26/14 23/23/14
f 25/25/15 27/27/15 26/26/15
f 27/27/8 28/28/8 26/26/8
f 27/27/11 29/29/11 28/28/11
f 29/29/8 30/30/8 28/28/8
f 29/29/9 31/31/9 30/30/9
f 31/31/16 21/21/16 30/30/16
f 31/31/11 20/20/11 21/21/11
f 32/32/3 33/33/3 34/34/3
f 32/32/17 35/35/17 33/33/17
f 35/35/18 36/36/18 33/33/18
f 35/35/2 37/37/2 36/36/2
f 37/37/19 9/9/19 36/36/19
f 37/37/20 10/10/20 9/9/20
s 1
f 38/38/21 39/39/22 40/40/23
f 38/38/21 41/41/24 39/39/22
f 42/42/25 41/41/24 38/38/21
f 42/42/25 43/43/26 41/41/24
f 44/44/27 43/43/26 42/42/25
f 44/44/27 45/45/28 43/43/26
f 46/46/29 45/45/28 44/44/27
f 46/46/29 47/47/30 45/45/28
f 48/48/31 47/47/30 46/46/29
f 48/48/31 49/49/32 47/47/30
f 50/50/33 49/49/32 48/48/31
f 50/50/33 51/51/34 49/49/32
f 52/52/35 51/51/34 50/50/33
f 52/52/35 53/53/36 51/51/34
f 54/54/37 53/53/36 52/52/35
f 54/54/37 55/55/38 53/53/36
f 56/56/39 55/55/38 54/54/37
f 56/56/39 57/57/40 55/55/38
f 58/58/41 57/57/40 56/56/39
f 58/58/41 59/59/42 57/57/40
f 60/60/43 59/59/42 58/58/41
f 60/60/43 61/61/44 59/59/42
f 62/62/45 61/61/44 60/60/43
f 62/62/45 63/63/46 61/61/44
f 64/64/47 63/63/46 62/62/45
f 64/64/47 65/65/48 63/63/46
f 66/66/49 65/65/48 64/64/47
f 66/66/49 67/67/50 65/65/48
f 68/68/51 67/67/50 66/66/49
f 68/68/51 69/69/52 67/67/50
f 70/70/53 69/69/52 68/68/51
f 70/70/53 71/71/54 69/69/52
f 72/72/55 71/71/54 70/70/53
f 72/72/55 73/73/56 71/71/54
f 74/74/57 73/73/56 72/72/55
f 74/74/57 75/75/58 73/73/56
f 76/76/59 75/75/58 74/74/57
f 77/77/60 78/78/61 79/79/62
f 77/77/60 80/80/63 78/78/61
f 81/81/64 80/80/63 77/77/60
f 81/81/64 82/82/65 80/80/63
f 83/83/66 82/82/65 81/81/64
f 83/83/66 84/84/67 82/82/65
f 85/85/68 84/84/67 83/83/66
f 85/85/68 86/86/69 84/84/67
f 87/87/70 86/86/69 85/85/68
f 87/87/70 88/88/71 86/86/69
f 89/89/72 88/88/71 87/87/70
f 89/89/72 90/90/73 88/88/71
f 91/91/74 90/90/73 89/89/72
f 91/91/74 92/92/75 90/90/73
f 79/79/62 92/92/75 91/91/74
f 79/79/62 78/78/61 92/92/75
f 93/93/76 79/79/62 94/94/77
f 93/93/76 77/77/60 79/79/62
f 95/95/78 77/77/60 93/93/76
f 95/95/78 81/81/64 77/77/60
f 96/96/79 81/81/64 95/95/78
f 96/96/79 83/83/66 81/81/64
f 97/97/80 83/83/66 96/96/79
f 97/97/80 85/85/68 83/83/66
f 98/98/81 85/85/68 97/97/80
f 98/98/81 87/87/70 85/85/68
f 99/99/82 87/87/70 98/98/81
f 99/99/82 89/89/72 87/87/70
f 100/100/83 89/89/72 99/99/82
f 100/100/83 91/91/74 89/89/72
f 94/94/77 91/91/74 100/100/83
f 94/94/77 79/79/62 91/91/74
f 101/101/84 39/39/22 102/102/85
f 101/101/84 40/40/23 39/39/22
f 103/103/86 40/40/23 101/101/84
f 103/103/86 104/104/87 40/40/23
f 105/105/88 104/104/87 103/103/86
f 105/105/88 106/106/89 104/104/87
f 107/107/90 106/106/89 105/105/88
f 106/106/89 76/76/59 74/74/57
f 106/106/89 108/108/91 76/76/59
f 109/109/92 108/108/91 106/106/89
f 109/109/92 110/110/93 108/108/91
f 111/111/94 110/110/93 109/109/92
f 112/112/95 113/113/96 114/114/97
f 112/112/95 115/115/98 113/113/96
f 116/116/99 115/115/98 112/112/95
f 116/116/99 117/117/100 115/115/98
f 71/71/54 118/118/101 69/69/52
f 71/71/54 119/119/102 118/118/101
f 73/73/56 119/119/102 71/71/54
f 120/120/103 74/74/57 72/72/55
f 120/120/103 106/106/89 74/74/57
f 104/104/87 106/106/89 120/120/103
f 107/107/90 121/121/104 122/122/105
f 107/107/90 123/123/106 121/121/104
f 124/124/107 123/123/106 107/107/90
f 125/125/108 126/126/109 127/127/110
f 125/125/108 128/128/111 126/126/109
f 129/129/112 128/128/111 125/125/108
f 125/125/108 130/130/113 129/129/112
f 125/125/108 131/131/114 130/130/113
f 132/132/115 131/131/114 125/125/108
f 133/133/116 39/39/22 41/41/24
f 133/133/116 102/102/85 39/39/22
f 134/134/117 102/102/85 133/133/116
f 135/135/118 136/136/119 137/137/120
f 135/135/118 138/138/121 136/136/119
f 139/139/122 138/138/121 135/135/118
f 140/140/17 88/88/71 90/90/73
f 140/140/17 86/86/69 88/88/71
f 84/84/67 86/86/69 140/140/17
f 133/133/116 122/122/105 134/134/117
f 133/133/116 107/107/90 122/122/105
f 141/141/123 142/142/124 143/143/125
f 141/141/123 144/144/126 142/142/124
f 145/145/127 143/143/125 114/114/97
f 145/145/127 141/141/123 143/143/125
f 146/146/128 114/114/97 113/113/96
f 146/146/128 145/145/127 114/114/97
f 147/147/126 144/144/126 148/148/129
f 147/147/126 142/142/124 144/144/126
f 149/149/130 118/118/101 119/119/102
f 149/149/130 111/111/94 118/118/101
f 105/105/88 124/124/107 107/107/90
f 105/105/88 103/103/86 124/124/107
f 150/150/131 103/103/86 101/101/84
f 150/150/131 124/124/107 103/103/86
f 125/125/108 151/151/132 132/132/115
f 125/125/108 127/127/110 151/151/132
f 152/152/133 135/135/118 137/137/120
f 152/152/133 153/153/134 135/135/118
f 154/154/135 135/135/118 153/153/134
f 154/154/135 155/155/136 135/135/118
f 92/92/75 140/140/17 90/90/73
f 92/92/75 78/78/61 140/140/17
f 80/80/63 140/140/17 78/78/61
f 80/80/63 82/82/65 140/140/17
f 117/117/100 156/156/137 115/115/98
f 117/117/100 157/157/138 156/156/137
f 157/157/138 158/158/138 156/156/137
f 157/157/138 159/159/139 158/158/138
f 159/159/139 160/160/140 158/158/138
f 159/159/139 161/161/141 160/160/140
f 161/161/141 162/162/142 160/160/140
f 161/161/141 163/163/143 162/162/142
f 163/163/143 164/164/143 162/162/142
f 163/163/143 165/165/144 164/164/143
f 165/165/144 166/166/145 164/164/143
f 165/165/144 167/167/146 166/166/145
f 167/167/146 168/168/146 166/166/145
f 167/167/146 169/169/147 168/168/146
f 169/169/147 170/170/148 168/168/146
f 169/169/147 171/171/149 170/170/148
f 171/171/149 172/172/150 170/170/148
f 171/171/149 173/173/151 172/172/150
f 173/173/151 174/174/152 172/172/150
f 173/173/151 175/175/153 174/174/152
f 175/175/153 176/176/154 174/174/152
f 175/175/153 177/177/155 176/176/154
f 177/177/155 178/178/155 176/176/154
f 177/177/155 179/179/156 178/178/155
f 179/179/156 180/180/156 178/178/155
f 179/179/156 181/181/157 180/180/156
f 181/181/157 148/148/129 180/180/156
f 181/181/157 147/147/126 148/148/129
f 109/109/92 118/118/101 111/111/94
f 135/135/118 155/155/136 139/139/122
f 82/82/65 84/84/67 140/140/17
